<svg xmlns="http://www.w3.org/2000/svg" xmlns:xlink="http://www.w3.org/1999/xlink" width="108.573" height="108.573" viewBox="0 0 108.573 108.573">
  <defs>
    <clipPath id="clip-path">
      <rect id="Rectángulo_296229" data-name="Rectángulo 296229" width="108.573" height="108.573" transform="translate(494.668 1851)" fill="#a6daff"/>
    </clipPath>
  </defs>
  <g id="Enmascarar_grupo_876721" data-name="Enmascarar grupo 876721" transform="translate(-494.668 -1851)" clip-path="url(#clip-path)">
    <g id="observacion" transform="translate(494.669 1851.001)">
      <g id="Grupo_882413" data-name="Grupo 882413" transform="translate(1.751 1.751)">
        <g id="Grupo_882397" data-name="Grupo 882397" transform="translate(43.78)">
          <path id="Trazado_599347" data-name="Trazado 599347" d="M70.669,17.558a27.861,27.861,0,0,0-13.554,3.485,3.958,3.958,0,0,1-.455.018A8.729,8.729,0,0,1,47.9,12.3a8.653,8.653,0,0,1,1.751-5.254,8.215,8.215,0,0,1,.806-.946,8.794,8.794,0,0,1,6.2-2.557,19.122,19.122,0,0,1,11.873,4.1,19.4,19.4,0,0,1,6.777,10.3A27.062,27.062,0,0,0,70.669,17.558Z" transform="translate(-47.903 -3.548)" fill="#b27946"/>
        </g>
        <g id="Grupo_882398" data-name="Grupo 882398" transform="translate(5.254 3.502)">
          <path id="Trazado_599348" data-name="Trazado 599348" d="M56.153,21.106a3.958,3.958,0,0,0,.455-.018,28.317,28.317,0,0,0-10.314,9.824,30.8,30.8,0,0,1-4.15-2.8,31.974,31.974,0,0,1-19.964,7h-2.8v3.5H17.627a8.75,8.75,0,0,0-6.059,2.434A23.128,23.128,0,0,1,32.022,7.1H49.148A8.653,8.653,0,0,0,47.4,12.35a8.729,8.729,0,0,0,8.756,8.756Z" transform="translate(-8.871 -7.097)" fill="#b27946"/>
        </g>
        <g id="Grupo_882399" data-name="Grupo 882399" transform="translate(0 78.803)">
          <path id="Trazado_599349" data-name="Trazado 599349" d="M66.591,109.655H3.548v-8.949A16.018,16.018,0,0,1,18.1,84.771l15.218-1.383,8.756,10.507L50.83,83.387l15.218,1.383A16.018,16.018,0,0,1,80.6,100.706v8.949Z" transform="translate(-3.548 -83.387)" fill="#ffe0f0"/>
        </g>
        <g id="Grupo_882400" data-name="Grupo 882400" transform="translate(29.77 72.149)">
          <path id="Trazado_599350" data-name="Trazado 599350" d="M50.276,76.663l.946,6.637L42.466,93.807,33.71,83.3l.946-6.637a22.615,22.615,0,0,0,7.81,1.383,22.221,22.221,0,0,0,7.81-1.4Z" transform="translate(-33.71 -76.645)" fill="#f0d0b4"/>
        </g>
        <g id="Grupo_882401" data-name="Grupo 882401" transform="translate(15.761 24.517)">
          <path id="Trazado_599351" data-name="Trazado 599351" d="M58.025,71.081a22.868,22.868,0,0,1-7.933,4.938,22.221,22.221,0,0,1-7.81,1.4A22.745,22.745,0,0,1,19.6,56.406a14.479,14.479,0,0,1-.088-1.751V35.392h2.8a31.974,31.974,0,0,0,19.964-7,30.8,30.8,0,0,0,4.15,2.8,28.1,28.1,0,0,0-.4,28.719H35.277V61.66a6.985,6.985,0,0,0,13.589,2.294A27.854,27.854,0,0,0,58.025,71.081Z" transform="translate(-19.516 -28.387)" fill="#f0d0b4"/>
        </g>
        <g id="Grupo_882402" data-name="Grupo 882402" transform="translate(5.254 35.024)">
          <path id="Trazado_599352" data-name="Trazado 599352" d="M11.568,41.466a8.75,8.75,0,0,1,6.059-2.434h1.751V54.793a14.48,14.48,0,0,0,.088,1.751H17.627a8.757,8.757,0,0,1-6.059-15.078Z" transform="translate(-8.871 -39.032)" fill="#f0d0b4"/>
        </g>
        <g id="Grupo_882403" data-name="Grupo 882403" transform="translate(31.521 56.038)">
          <path id="Trazado_599353" data-name="Trazado 599353" d="M49.073,64.368a6.985,6.985,0,0,1-13.589-2.294V60.323H46.236A26.2,26.2,0,0,0,49.073,64.368Z" transform="translate(-35.484 -60.323)" fill="#ff826e"/>
        </g>
        <g id="Grupo_882404" data-name="Grupo 882404" transform="translate(24.517 38.526)">
          <circle id="Elipse_7966" data-name="Elipse 7966" cx="3.502" cy="3.502" r="3.502" fill="#838f9b"/>
        </g>
        <g id="Grupo_882405" data-name="Grupo 882405" transform="translate(81.5 56.984)">
          <path id="Trazado_599354" data-name="Trazado 599354" d="M107.869,74.274a6.191,6.191,0,1,1-8.756,8.756L86.119,70.037a28.61,28.61,0,0,0,8.756-8.756Z" transform="translate(-86.119 -61.281)" fill="#26aab7"/>
        </g>
        <g id="Grupo_882406" data-name="Grupo 882406" transform="translate(38.526 14.009)">
          <path id="Trazado_599355" data-name="Trazado 599355" d="M58.324,70.943a27.854,27.854,0,0,1-9.159-7.127,26.2,26.2,0,0,1-2.837-4.045,28.1,28.1,0,0,1,.4-28.719,28.317,28.317,0,0,1,10.314-9.824A27.861,27.861,0,0,1,70.6,17.742a27.062,27.062,0,0,1,4.641.385,28.044,28.044,0,0,1,19.07,42.589,28.61,28.61,0,0,1-8.756,8.756,28.053,28.053,0,0,1-27.231,1.471Z" transform="translate(-42.581 -17.742)" fill="#fb8c00"/>
        </g>
        <g id="Grupo_882407" data-name="Grupo 882407" transform="translate(45.548 42.449)">
          <path id="Trazado_599356" data-name="Trazado 599356" d="M90.463,49.129a4.288,4.288,0,0,0,1.226-2.574,21,21,0,0,1-41.993,0,4.288,4.288,0,0,0,1.226,2.574,25.538,25.538,0,0,0,18.142,7.513H72.32A25.632,25.632,0,0,0,90.463,49.129Z" transform="translate(-49.695 -46.555)" fill="#e6e9ed"/>
        </g>
        <g id="Grupo_882408" data-name="Grupo 882408" transform="translate(45.548 21.014)">
          <path id="Trazado_599357" data-name="Trazado 599357" d="M91.689,45.433a4.288,4.288,0,0,0-1.226-2.574A25.538,25.538,0,0,0,72.32,35.346H69.063a25.632,25.632,0,0,0-18.142,7.513A4.288,4.288,0,0,0,49.7,45.433a21,21,0,0,1,41.993,0Z" transform="translate(-49.695 -24.839)" fill="#e6e9ed"/>
        </g>
        <g id="Grupo_882409" data-name="Grupo 882409" transform="translate(45.531 31.521)">
          <path id="Trazado_599358" data-name="Trazado 599358" d="M50.921,43a25.632,25.632,0,0,1,18.142-7.513h1.629a10.507,10.507,0,1,0,0,21.014H69.063a25.539,25.539,0,0,1-18.142-7.513,4.288,4.288,0,0,1-1.226-2.574,5.052,5.052,0,0,1,0-.841A4.288,4.288,0,0,1,50.921,43Z" transform="translate(-49.677 -35.484)" fill="#ccd1d9"/>
        </g>
        <g id="Grupo_882410" data-name="Grupo 882410" transform="translate(66.545 31.521)">
          <path id="Trazado_599359" data-name="Trazado 599359" d="M82.42,37.428A25.718,25.718,0,0,1,90.739,43a4.288,4.288,0,0,1,1.226,2.574,5.051,5.051,0,0,1,0,.841,4.288,4.288,0,0,1-1.226,2.574A25.632,25.632,0,0,1,72.6,56.5H70.968a10.507,10.507,0,1,0,0-21.014H72.6A25.6,25.6,0,0,1,82.42,37.428Z" transform="translate(-70.968 -35.484)" fill="#ccd1d9"/>
        </g>
        <g id="Grupo_882411" data-name="Grupo 882411" transform="translate(56.038 31.521)">
          <path id="Trazado_599360" data-name="Trazado 599360" d="M70.83,35.484A10.507,10.507,0,1,1,60.323,45.991,10.515,10.515,0,0,1,70.83,35.484Z" transform="translate(-60.323 -35.484)" fill="#fffae7"/>
        </g>
        <g id="Grupo_882412" data-name="Grupo 882412" transform="translate(63.043 38.526)">
          <circle id="Elipse_7967" data-name="Elipse 7967" cx="3.502" cy="3.502" r="3.502" fill="#4fc1e9"/>
        </g>
      </g>
      <g id="Grupo_882414" data-name="Grupo 882414" transform="translate(0 0)">
        <path id="Trazado_599361" data-name="Trazado 599361" d="M37.12,46.06a5.254,5.254,0,1,0-5.254,5.254A5.26,5.26,0,0,0,37.12,46.06Zm-5.254,1.751a1.751,1.751,0,1,1,1.751-1.751A1.754,1.754,0,0,1,31.866,47.811Z" transform="translate(-2.096 -2.28)"/>
        <path id="Trazado_599362" data-name="Trazado 599362" d="M70.9,40.806a5.254,5.254,0,1,0,5.254,5.254A5.26,5.26,0,0,0,70.9,40.806Zm0,7A1.751,1.751,0,1,1,72.65,46.06,1.754,1.754,0,0,1,70.9,47.811Z" transform="translate(-2.602 -2.28)"/>
        <path id="Trazado_599363" data-name="Trazado 599363" d="M70.669,23.065A22.765,22.765,0,1,0,93.434,45.83,22.792,22.792,0,0,0,70.669,23.065ZM89.207,47.581a23.8,23.8,0,0,1-8.7,5.535,12.166,12.166,0,0,0,0-14.573,23.812,23.812,0,0,1,8.7,5.535,2.477,2.477,0,0,1,0,3.5Zm-37.8-1.751a2.5,2.5,0,0,1,.725-1.751,23.8,23.8,0,0,1,8.7-5.535,12.166,12.166,0,0,0,0,14.573,23.812,23.812,0,0,1-8.7-5.535,2.5,2.5,0,0,1-.725-1.751Zm10.507,0a8.756,8.756,0,1,1,8.756,8.756A8.766,8.766,0,0,1,61.913,45.83Zm8.756-19.263a19.276,19.276,0,0,1,18,12.465A27.19,27.19,0,0,0,72.3,33.572H69.044a27.2,27.2,0,0,0-16.375,5.46,19.276,19.276,0,0,1,18-12.465Zm0,38.526a19.276,19.276,0,0,1-18-12.465,27.19,27.19,0,0,0,16.374,5.46h3.252a27.2,27.2,0,0,0,16.375-5.46A19.276,19.276,0,0,1,70.669,65.093Z" transform="translate(-2.372 -2.05)"/>
        <path id="Trazado_599364" data-name="Trazado 599364" d="M108.02,72.273,95.955,60.206A29.724,29.724,0,0,0,76.065,16.39a21,21,0,0,0-20-14.615,10.477,10.477,0,0,0-7.81,3.5H31.921A24.806,24.806,0,0,0,9.4,40.666a10.5,10.5,0,0,0,8.136,17.146h.28A24.564,24.564,0,0,0,32.317,76.8l-.559,3.91L17.922,81.968A17.755,17.755,0,0,0,1.774,99.65v10.7H82.329V99.65A17.755,17.755,0,0,0,66.181,81.968L52.345,80.711l-.56-3.924a24.48,24.48,0,0,0,6.311-4,29.556,29.556,0,0,0,26.627-1.35L96.788,83.505A7.942,7.942,0,1,0,108.02,72.273Zm-51.959-67A17.51,17.51,0,0,1,72.153,15.889c-.692-.047-1.38-.105-2.082-.105a29.791,29.791,0,0,0-4.247.338,10.48,10.48,0,0,0,.744-3.84V10.53h-3.5v1.751A7.008,7.008,0,0,1,61.01,17.2a29.674,29.674,0,0,0-4.917,2.08h-.032a7,7,0,1,1,0-14.008Zm-24.14,3.5H46.167a10.466,10.466,0,0,0,5.814,13.185,29.943,29.943,0,0,0-6.264,6.52,29.451,29.451,0,0,1-2.572-1.809L42.051,25.8l-1.094.876A30.321,30.321,0,0,1,22.083,33.3H17.535v3.5a10.422,10.422,0,0,0-5.374,1.5A21.335,21.335,0,0,1,31.921,8.779ZM10.53,47.305a7.012,7.012,0,0,1,7-7V54.31A7.012,7.012,0,0,1,10.53,47.305ZM65.866,85.456A14.25,14.25,0,0,1,78.826,99.65v7.2H68.319V96.338h-3.5v10.507H19.286V96.338h-3.5v10.507H5.277v-7.2A14.25,14.25,0,0,1,18.237,85.458l14.3-1.3,9.514,11.416,9.514-11.416Zm-16.9-3.651-6.912,8.3-6.912-8.3.55-3.846a23.88,23.88,0,0,0,12.726.007Zm-6.912-6.481A21.038,21.038,0,0,1,21.037,54.31V36.8h1.045a33.859,33.859,0,0,0,19.971-6.551c.578.422,1.182.827,1.8,1.221a29.578,29.578,0,0,0-.883,26.345H33.3v3.5a8.735,8.735,0,0,0,15.72,5.266,29.98,29.98,0,0,0,5.723,4.445,20.855,20.855,0,0,1-12.687,4.3Zm4.572-11.49a5.23,5.23,0,0,1-9.826-2.52H44.86A30.046,30.046,0,0,0,46.624,63.834ZM43.8,45.554A26.268,26.268,0,1,1,70.07,71.822,26.3,26.3,0,0,1,43.8,45.554Zm58.6,36.775a4.415,4.415,0,0,1-3.14-1.3L87.714,69.477a29.985,29.985,0,0,0,6.28-6.28L105.544,74.75a4.439,4.439,0,0,1-3.14,7.579Z" transform="translate(-1.774 -1.774)"/>
      </g>
    </g>
  </g>
</svg>
