<svg xmlns="http://www.w3.org/2000/svg" xmlns:xlink="http://www.w3.org/1999/xlink" width="236.753" height="248" viewBox="0 0 236.753 248">
  <defs>
    <clipPath id="clip-path">
      <rect id="Rectángulo_57890" data-name="Rectángulo 57890" width="216.753" height="236" fill="none"/>
    </clipPath>
    <clipPath id="clip-path-7">
      <rect id="Rectángulo_57867" data-name="Rectángulo 57867" width="6.887" height="5.862" fill="none"/>
    </clipPath>
    <clipPath id="clip-path-10">
      <rect id="Rectángulo_57871" data-name="Rectángulo 57871" width="4.888" height="7.774" fill="none"/>
    </clipPath>
    <clipPath id="clip-path-16">
      <rect id="Rectángulo_57881" data-name="Rectángulo 57881" width="29.638" height="14.938" fill="none"/>
    </clipPath>
    <clipPath id="clip-path-17">
      <rect id="Rectángulo_57882" data-name="Rectángulo 57882" width="20.827" height="25.516" fill="none"/>
    </clipPath>
    <clipPath id="clip-path-18">
      <rect id="Rectángulo_57883" data-name="Rectángulo 57883" width="3.118" height="14.726" fill="none"/>
    </clipPath>
    <clipPath id="clip-path-19">
      <rect id="Rectángulo_57884" data-name="Rectángulo 57884" width="29.242" height="32.077" fill="none"/>
    </clipPath>
    <clipPath id="clip-path-20">
      <rect id="Rectángulo_57885" data-name="Rectángulo 57885" width="29.312" height="10.901" fill="none"/>
    </clipPath>
    <clipPath id="clip-path-21">
      <rect id="Rectángulo_57886" data-name="Rectángulo 57886" width="30.46" height="2.57" fill="none"/>
    </clipPath>
  </defs>
  <g id="Grupo_948144" data-name="Grupo 948144" transform="translate(-1098.247 -1160.059)">
    <g id="Grupo_180274" data-name="Grupo 180274" transform="translate(1098.247 1172.059)">
      <g id="Grupo_179949" data-name="Grupo 179949" clip-path="url(#clip-path)">
        <path id="Trazado_230356" data-name="Trazado 230356" d="M350,12.523V55.3H288.562l-2.213-42.477Z" transform="translate(-135.058 -5.906)" fill="#e0e0e0"/>
        <rect id="Rectángulo_57818" data-name="Rectángulo 57818" width="61.438" height="42.387" transform="translate(151.291 6.916)" fill="#fff"/>
        <path id="Trazado_230357" data-name="Trazado 230357" d="M347.817,55.507H285.8V12.538h62.02Zm-61.438-.583h60.855V13.12H286.38Z" transform="translate(-134.797 -5.914)" fill="#e0e0e0"/>
        <rect id="Rectángulo_57819" data-name="Rectángulo 57819" width="48.129" height="31.854" transform="translate(157.945 12.182)" fill="#fff"/>
        <g id="Grupo_179890" data-name="Grupo 179890">
          <g id="Grupo_179889" data-name="Grupo 179889" clip-path="url(#clip-path)">
            <path id="Trazado_230358" data-name="Trazado 230358" d="M346.936,22.931s-.083.005-.237.008l-.684.008-2.643.017L333.453,23l-34.646.068.139-.139c0,9.733.008,20.516.013,31.85v0l-.152-.152,48.129.031-.121.12c.027-9.694.049-17.641.063-23.176.014-2.766.024-4.927.031-6.409q.009-1.1.013-1.684c0-.381.013-.584.013-.584s.009.185.013.559.007.939.013,1.662c.007,1.475.017,3.627.031,6.382.015,5.552.037,13.526.063,23.251v.121h-.122l-48.129.031h-.152v-.156c0-11.334.009-22.118.013-31.85v-.139h.139l34.738.069,9.886.038,2.615.017.669.008c.149,0,.221.008.221.008" transform="translate(-140.862 -10.75)" fill="#e0e0e0"/>
            <path id="Trazado_230359" data-name="Trazado 230359" d="M286.347,12.862a5.19,5.19,0,0,1,1.056.684c.629.454,1.485,1.1,2.409,1.837s1.737,1.439,2.309,1.963a4.972,4.972,0,0,1,.88.9c-.057.064-1.534-1.154-3.379-2.627a33.509,33.509,0,0,1-3.275-2.758" transform="translate(-135.056 -6.065)" fill="#e0e0e0"/>
            <path id="Trazado_230360" data-name="Trazado 230360" d="M396.69,13.087a29.774,29.774,0,0,1-3.232,2.752,29.748,29.748,0,0,1-3.422,2.514,29.814,29.814,0,0,1,3.233-2.752,29.814,29.814,0,0,1,3.421-2.514" transform="translate(-183.962 -6.171)" fill="#e0e0e0"/>
            <path id="Trazado_230361" data-name="Trazado 230361" d="M396.424,88.37l-6.85-5.552" transform="translate(-183.744 -39.061)" fill="#fff"/>
            <path id="Trazado_230362" data-name="Trazado 230362" d="M389.573,82.815a32.143,32.143,0,0,1,3.52,2.658,32.144,32.144,0,0,1,3.33,2.894,32.189,32.189,0,0,1-3.521-2.658,32.165,32.165,0,0,1-3.329-2.894" transform="translate(-183.743 -39.059)" fill="#e0e0e0"/>
            <path id="Trazado_230363" data-name="Trazado 230363" d="M286.347,88.662a29.144,29.144,0,0,1,3.2-2.723,29.178,29.178,0,0,1,3.388-2.486,29.157,29.157,0,0,1-3.2,2.724,29.238,29.238,0,0,1-3.387,2.485" transform="translate(-135.056 -39.359)" fill="#e0e0e0"/>
            <rect id="Rectángulo_57820" data-name="Rectángulo 57820" width="30.284" height="10.666" transform="translate(167.717 22.106)" fill="#e0e0e0"/>
            <rect id="Rectángulo_57821" data-name="Rectángulo 57821" width="57.108" height="51.092" transform="translate(0.153 5.549)" fill="#fafafa"/>
            <path id="Trazado_230364" data-name="Trazado 230364" d="M57.261,61.459s-.01-.328-.014-.948-.008-1.543-.015-2.737c-.007-2.4-.019-5.905-.033-10.371-.016-8.927-.039-21.683-.067-37.035l.129.129-57.1.023H.153l.153-.153C.3,28.955.292,46.446.287,61.459l-.134-.134,41.3.068,11.65.035,3.084.016.8.007c.179,0,.274.008.274.008s-.085.005-.259.007l-.781.008-3.058.016-11.62.035L.153,61.593H.018v-.135C.013,46.446.007,28.955,0,10.367v-.153H.158l57.1.023h.129v.129c-.027,15.386-.051,28.17-.067,37.117-.014,4.454-.026,7.951-.033,10.342-.007,1.183-.012,2.092-.015,2.713s-.014.92-.014.92" transform="translate(0 -4.817)" fill="#e0e0e0"/>
            <path id="Trazado_230365" data-name="Trazado 230365" d="M29.748,27.549c0,.084-3.006.153-6.713.153s-6.714-.069-6.714-.153,3.005-.153,6.714-.153,6.713.069,6.713.153" transform="translate(-7.698 -12.921)" fill="#e0e0e0"/>
            <path id="Trazado_230366" data-name="Trazado 230366" d="M54.6,34.809c0,.085-8.258.153-18.442.153s-18.444-.068-18.444-.153,8.256-.152,18.444-.152,18.442.068,18.442.152" transform="translate(-8.356 -16.346)" fill="#e0e0e0"/>
            <rect id="Rectángulo_57822" data-name="Rectángulo 57822" width="2.406" height="2.406" transform="translate(8.721 24.961)" fill="#e0e0e0"/>
            <rect id="Rectángulo_57823" data-name="Rectángulo 57823" width="2.406" height="2.406" transform="translate(14.644 24.961)" fill="#e0e0e0"/>
            <rect id="Rectángulo_57824" data-name="Rectángulo 57824" width="2.406" height="2.406" transform="translate(20.675 24.852)" fill="#e0e0e0"/>
            <rect id="Rectángulo_57825" data-name="Rectángulo 57825" width="2.406" height="2.406" transform="translate(26.489 24.961)" fill="#e0e0e0"/>
            <rect id="Rectángulo_57826" data-name="Rectángulo 57826" width="2.406" height="2.406" transform="translate(32.411 24.961)" fill="#e0e0e0"/>
            <rect id="Rectángulo_57827" data-name="Rectángulo 57827" width="2.406" height="2.406" transform="translate(38.333 24.961)" fill="#e0e0e0"/>
            <rect id="Rectángulo_57828" data-name="Rectángulo 57828" width="2.406" height="2.406" transform="translate(44.255 24.961)" fill="#ebebeb"/>
            <rect id="Rectángulo_57829" data-name="Rectángulo 57829" width="2.406" height="2.406" transform="translate(8.721 30.076)" fill="#ebebeb"/>
            <rect id="Rectángulo_57830" data-name="Rectángulo 57830" width="2.406" height="2.406" transform="translate(14.644 30.076)" fill="#e0e0e0"/>
            <rect id="Rectángulo_57831" data-name="Rectángulo 57831" width="2.406" height="2.406" transform="translate(20.566 30.076)" fill="#ebebeb"/>
            <rect id="Rectángulo_57832" data-name="Rectángulo 57832" width="2.406" height="2.406" transform="translate(26.489 30.076)" fill="#e0e0e0"/>
            <rect id="Rectángulo_57833" data-name="Rectángulo 57833" width="2.406" height="2.406" transform="translate(32.411 30.076)" fill="#e0e0e0"/>
            <rect id="Rectángulo_57834" data-name="Rectángulo 57834" width="2.406" height="2.406" transform="translate(38.442 29.967)" fill="#e0e0e0"/>
            <rect id="Rectángulo_57835" data-name="Rectángulo 57835" width="2.406" height="2.406" transform="translate(44.255 30.076)" fill="#e0e0e0"/>
            <rect id="Rectángulo_57836" data-name="Rectángulo 57836" width="2.406" height="2.406" transform="translate(8.721 35.191)" fill="#e0e0e0"/>
            <rect id="Rectángulo_57837" data-name="Rectángulo 57837" width="2.406" height="2.406" transform="translate(14.753 35.082)" fill="#e0e0e0"/>
            <rect id="Rectángulo_57838" data-name="Rectángulo 57838" width="2.406" height="2.406" transform="translate(20.566 35.191)" fill="#e0e0e0"/>
            <rect id="Rectángulo_57839" data-name="Rectángulo 57839" width="2.406" height="2.406" transform="translate(26.489 35.191)" fill="#ebebeb"/>
            <rect id="Rectángulo_57840" data-name="Rectángulo 57840" width="2.406" height="2.406" transform="translate(32.411 35.191)" fill="#e0e0e0"/>
            <rect id="Rectángulo_57841" data-name="Rectángulo 57841" width="2.406" height="2.406" transform="translate(38.333 35.191)" fill="#e0e0e0"/>
            <rect id="Rectángulo_57842" data-name="Rectángulo 57842" width="2.406" height="2.406" transform="translate(44.255 35.191)" fill="#e0e0e0"/>
            <rect id="Rectángulo_57843" data-name="Rectángulo 57843" width="2.406" height="2.406" transform="translate(8.721 40.306)" fill="#e0e0e0"/>
            <rect id="Rectángulo_57844" data-name="Rectángulo 57844" width="2.406" height="2.406" transform="translate(14.644 40.306)" fill="#e0e0e0"/>
            <rect id="Rectángulo_57845" data-name="Rectángulo 57845" width="2.406" height="2.406" transform="translate(20.566 40.306)" fill="#e0e0e0"/>
            <rect id="Rectángulo_57846" data-name="Rectángulo 57846" width="2.406" height="2.406" transform="translate(26.597 40.197)" fill="#e0e0e0"/>
            <rect id="Rectángulo_57847" data-name="Rectángulo 57847" width="2.406" height="2.406" transform="translate(32.411 40.306)" fill="#e0e0e0"/>
            <rect id="Rectángulo_57848" data-name="Rectángulo 57848" width="2.406" height="2.406" transform="translate(38.333 40.306)" fill="#ebebeb"/>
            <rect id="Rectángulo_57849" data-name="Rectángulo 57849" width="2.406" height="2.406" transform="translate(44.255 40.306)" fill="#e0e0e0"/>
            <rect id="Rectángulo_57850" data-name="Rectángulo 57850" width="2.406" height="2.406" transform="translate(8.721 45.421)" fill="#e0e0e0"/>
            <rect id="Rectángulo_57851" data-name="Rectángulo 57851" width="2.406" height="2.406" transform="translate(14.644 45.421)" fill="#ebebeb"/>
            <rect id="Rectángulo_57852" data-name="Rectángulo 57852" width="2.406" height="2.406" transform="translate(20.566 45.421)" fill="#e0e0e0"/>
            <rect id="Rectángulo_57853" data-name="Rectángulo 57853" width="2.406" height="2.406" transform="translate(26.489 45.421)" fill="#e0e0e0"/>
            <rect id="Rectángulo_57854" data-name="Rectángulo 57854" width="2.406" height="2.406" transform="translate(32.411 45.421)" fill="#e0e0e0"/>
            <rect id="Rectángulo_57855" data-name="Rectángulo 57855" width="2.406" height="2.406" transform="translate(38.442 45.312)" fill="#e0e0e0"/>
            <rect id="Rectángulo_57856" data-name="Rectángulo 57856" width="2.406" height="2.406" transform="translate(44.255 45.421)" fill="#e0e0e0"/>
            <rect id="Rectángulo_57857" data-name="Rectángulo 57857" width="21.045" height="14.185" transform="translate(85.569 89.049) rotate(-20.625)" fill="#ebebeb"/>
            <path id="Trazado_230367" data-name="Trazado 230367" d="M181.885,154.769a1.475,1.475,0,0,1-.117.246l-.368.687-1.384,2.511-4.638,8.27-.039.068-.075-.024-.18-.058-9.132-2.993-2.761-.928-.747-.262a1.482,1.482,0,0,1-.257-.1,1.474,1.474,0,0,1,.268.067l.759.227,2.779.87,9.149,2.94.18.059-.113.044,4.688-8.242,1.436-2.481.4-.669a1.466,1.466,0,0,1,.15-.227" transform="translate(-76.497 -72.997)" fill="#e0e0e0"/>
            <path id="Trazado_230368" data-name="Trazado 230368" d="M171.645,184.5c-.05-.017.747-2.4,1.778-5.309s1.909-5.263,1.959-5.246-.746,2.394-1.778,5.31-1.908,5.263-1.958,5.245" transform="translate(-80.956 -82.044)" fill="#e0e0e0"/>
            <path id="Trazado_230369" data-name="Trazado 230369" d="M190.992,168.97c.027-.045,2.171,1.21,4.787,2.8s4.716,2.922,4.689,2.968-2.17-1.21-4.788-2.8-4.715-2.923-4.687-2.968" transform="translate(-90.082 -79.695)" fill="#e0e0e0"/>
            <path id="Trazado_230370" data-name="Trazado 230370" d="M243.405,73.082a6.6,6.6,0,0,1,1.611-.7l.332-1.6,2.7-.047.388,1.582a6.582,6.582,0,0,1,1.635.644l1.362-.893,1.94,1.872-.844,1.392a6.586,6.586,0,0,1,.7,1.612l1.6.332.048,2.7-1.582.388A6.583,6.583,0,0,1,252.641,82l.893,1.363L251.662,85.3l-1.392-.844a6.611,6.611,0,0,1-1.612.7l-.332,1.6-2.7.047-.388-1.582a6.583,6.583,0,0,1-1.635-.644l-1.363.893-1.939-1.872.844-1.392a6.614,6.614,0,0,1-.7-1.612l-1.6-.332-.047-2.7,1.582-.388a6.6,6.6,0,0,1,.643-1.635l-.892-1.362,1.872-1.94Zm1.437,3.591a2.892,2.892,0,1,0,4.089-.072,2.891,2.891,0,0,0-4.089.072" transform="translate(-112.634 -33.364)" fill="#e0e0e0"/>
            <path id="Trazado_230371" data-name="Trazado 230371" d="M249.459,81.134a2.187,2.187,0,0,1,.538-.472,2.88,2.88,0,0,1,1.887-.446,2.921,2.921,0,0,1,1.282.456,2.958,2.958,0,0,1,1.037,1.168,2.965,2.965,0,0,1,.279,1.7,2.951,2.951,0,0,1-2.441,2.529,2.961,2.961,0,0,1-1.711-.219,2.962,2.962,0,0,1-1.2-1,2.91,2.91,0,0,1-.5-1.265,2.874,2.874,0,0,1,.379-1.9,2.184,2.184,0,0,1,.453-.555c.015.013-.174.19-.4.587a2.881,2.881,0,0,0-.32,1.851,2.825,2.825,0,0,0,1.651,2.139,2.82,2.82,0,0,0,1.621.2,2.8,2.8,0,0,0,2.307-2.39,2.827,2.827,0,0,0-.256-1.613,2.825,2.825,0,0,0-2.2-1.574,2.885,2.885,0,0,0-1.839.384c-.389.237-.558.433-.572.418" transform="translate(-117.252 -37.826)" fill="#e0e0e0"/>
            <path id="Trazado_230372" data-name="Trazado 230372" d="M243.351,73.038a.664.664,0,0,1-.09-.048l-.267-.154-1.049-.62.033,0-1.861,1.95.005-.052.9,1.358.016.024-.014.026a6.586,6.586,0,0,0-.633,1.624l-.008.032-.032.008-1.581.393.045-.059c.017.849.035,1.749.053,2.7l-.052-.063,1.6.329.041.008.012.04a6.559,6.559,0,0,0,.7,1.593l.023.037-.023.038-.842,1.394L240.3,83.5l1.942,1.87-.1-.009,1.362-.894.04-.026.042.023a6.559,6.559,0,0,0,1.616.634l.047.012.012.048c.122.5.255,1.036.389,1.582l-.08-.062,2.7-.048-.079.066c.105-.5.218-1.048.332-1.6l.01-.05.049-.013a6.561,6.561,0,0,0,1.59-.691h0l.043-.026.042.026,1.393.844-.1.013,1.873-1.939-.009.1L252.519,82l-.027-.041.024-.043a6.528,6.528,0,0,0,.637-1.615l.012-.048.047-.012,1.583-.387-.06.078q-.022-1.38-.044-2.7l.061.073-1.6-.334-.044-.009-.012-.043a6.564,6.564,0,0,0-.691-1.6l-.022-.037.022-.037.847-1.391.011.085-1.935-1.876.079.007-1.364.889-.031.02-.031-.017a6.57,6.57,0,0,0-1.619-.642l-.032-.008-.008-.032-.383-1.583.049.037-2.7.035.036-.03-.342,1.593,0,.016-.015,0a6.847,6.847,0,0,0-1.232.474l-.29.152a.673.673,0,0,1-.1.049.828.828,0,0,1,.09-.061c.062-.038.155-.095.284-.164a6.408,6.408,0,0,1,1.23-.5l-.019.02.322-1.6.006-.029h.03l2.7-.059h.039l.009.038c.122.489.25,1.007.394,1.581l-.04-.04a6.676,6.676,0,0,1,1.652.645l-.062,0,1.36-.9.042-.028.036.035,1.943,1.868.04.039-.029.047-.842,1.394v-.074a6.667,6.667,0,0,1,.71,1.629l-.056-.053,1.6.33.06.012,0,.061q.024,1.314.05,2.7l0,.063-.062.015-1.582.389.059-.059a6.669,6.669,0,0,1-.65,1.656l0-.084.893,1.362.036.055-.045.047-1.872,1.94-.046.048-.057-.034-1.393-.844h.084a6.7,6.7,0,0,1-1.63.708l.059-.063c-.114.548-.228,1.092-.332,1.6l-.014.064h-.066l-2.7.046h-.065l-.015-.063c-.133-.546-.266-1.087-.387-1.583l.059.059a6.7,6.7,0,0,1-1.654-.653l.081,0-1.363.891-.052.034-.044-.043L240.2,83.6l-.042-.041.031-.05.846-1.392v.074a6.686,6.686,0,0,1-.705-1.63l.052.048-1.595-.335-.051-.011v-.052c-.014-.946-.028-1.846-.041-2.7v-.048l.046-.011,1.583-.384-.04.04a6.657,6.657,0,0,1,.654-1.646l0,.05-.887-1.366-.018-.029.023-.024,1.884-1.928.015-.015.018.011,1.026.638.264.167a.878.878,0,0,1,.089.061" transform="translate(-112.581 -33.32)" fill="#e0e0e0"/>
          </g>
        </g>
        <g id="Grupo_179892" data-name="Grupo 179892">
          <g id="Grupo_179891" data-name="Grupo 179891" clip-path="url(#clip-path)">
            <path id="Trazado_230373" data-name="Trazado 230373" d="M217.339,446.3c0,.076-48.378.137-108.043.137-59.685,0-108.053-.061-108.053-.137s48.368-.137,108.053-.137c59.664,0,108.043.061,108.043.137" transform="translate(-0.586 -210.432)" fill="#263238"/>
          </g>
        </g>
        <g id="Grupo_179897" data-name="Grupo 179897">
          <g id="Grupo_179896" data-name="Grupo 179896" clip-path="url(#clip-path)">
            <path id="Trazado_230374" data-name="Trazado 230374" d="M320.931,200.23s6.241-7.183,8.6-14.366,1.236-6.358,1.236-6.358a82.538,82.538,0,0,1-5.593,10.348c-2.414,3.37-6.712,8.316-6.712,8.316Z" transform="translate(-150.202 -84.651)" fill="#455a64"/>
            <path id="Trazado_230375" data-name="Trazado 230375" d="M318.023,181.484a.364.364,0,0,1,.677.231A94.266,94.266,0,0,0,317.529,194c.042,4.989,0,6.917,0,6.917h-2.6s.461-10.312,1.048-13.456a21.588,21.588,0,0,1,2.045-5.976" transform="translate(-148.538 -85.51)" fill="#455a64"/>
            <path id="Trazado_230376" data-name="Trazado 230376" d="M313.927,199.283a27.508,27.508,0,0,1-2.138-7.755c-.214-1.837.167-4.318.735-7.63a20.523,20.523,0,0,0,.329-3.671.62.62,0,0,0-1.163-.291,16.452,16.452,0,0,0-1.451,3.668c-.629,3.269-1.341,4.9-.8,8.007A48.084,48.084,0,0,0,312,199.493Z" transform="translate(-145.858 -84.716)" fill="#455a64"/>
            <path id="Trazado_230377" data-name="Trazado 230377" d="M304.947,195.942s-6.852-14.726-7.327-16.91-2.09-7.219-2.279-6.934a10.139,10.139,0,0,0,.76,5.984c1.235,3.04,6.507,18.308,6.507,18.308h2.34" transform="translate(-139.219 -81.166)" fill="#455a64"/>
            <path id="Trazado_230378" data-name="Trazado 230378" d="M319.524,198.943a1.379,1.379,0,0,0,.192-.132c.121-.092.306-.221.53-.405a24.266,24.266,0,0,0,1.842-1.626,30.879,30.879,0,0,0,4.971-6.38,41.808,41.808,0,0,0,3.394-7.35c.344-.978.6-1.778.759-2.335.083-.277.141-.5.182-.642a1.288,1.288,0,0,0,.053-.227,1.48,1.48,0,0,0-.081.219l-.208.633c-.18.551-.446,1.345-.8,2.317a44.45,44.45,0,0,1-3.422,7.311,32.254,32.254,0,0,1-4.918,6.381c-.733.729-1.361,1.284-1.8,1.655-.219.19-.4.327-.513.426a1.352,1.352,0,0,0-.174.155" transform="translate(-150.705 -84.825)" fill="#263238"/>
            <path id="Trazado_230379" data-name="Trazado 230379" d="M318.1,192.865a2.464,2.464,0,0,0,.061-.432c.033-.3.076-.7.126-1.18.109-1,.278-2.37.52-3.879s.514-2.867.722-3.847c.1-.47.185-.861.25-1.16a2.576,2.576,0,0,0,.077-.43,2.436,2.436,0,0,0-.133.416c-.077.27-.178.663-.3,1.151-.235.976-.522,2.334-.766,3.847s-.4,2.892-.479,3.892c-.041.5-.068.906-.08,1.186a2.478,2.478,0,0,0,0,.436" transform="translate(-150.03 -85.811)" fill="#263238"/>
            <path id="Trazado_230380" data-name="Trazado 230380" d="M313.572,180.006a1.1,1.1,0,0,0-.081.187l-.205.547c-.09.238-.195.53-.294.877s-.234.735-.333,1.179c-.054.221-.111.452-.17.693s-.1.5-.151.758c-.112.523-.181,1.089-.265,1.684a25.167,25.167,0,0,0,.28,7.784c.125.588.235,1.148.384,1.662.071.257.13.509.2.746l.219.678c.131.435.291.814.417,1.152s.248.623.356.853l.244.53a1.109,1.109,0,0,0,.093.181,1.035,1.035,0,0,0-.067-.193l-.218-.54c-.1-.233-.216-.52-.332-.86s-.271-.72-.395-1.155c-.067-.217-.136-.443-.209-.678s-.127-.487-.2-.744c-.143-.512-.248-1.071-.369-1.656a26.031,26.031,0,0,1-.277-7.743c.079-.592.143-1.157.249-1.679.05-.261.088-.515.142-.756l.16-.692c.092-.443.217-.833.311-1.18s.188-.642.269-.882.134-.414.179-.555a1.066,1.066,0,0,0,.053-.2" transform="translate(-147.108 -84.901)" fill="#263238"/>
            <path id="Trazado_230381" data-name="Trazado 230381" d="M295.641,172.67a.222.222,0,0,0,.005.066c.008.052.018.115.031.191.03.168.068.416.135.733.133.633.353,1.545.7,2.651s.809,2.4,1.364,3.828,1.2,2.979,1.8,4.633,1.094,3.261,1.541,4.723.863,2.776,1.27,3.861a24.78,24.78,0,0,0,1.082,2.518c.14.292.267.509.348.659l.1.169a.033.033,0,1,0,.013-.007l-.083-.175c-.073-.154-.191-.375-.323-.67-.276-.583-.647-1.442-1.036-2.529s-.8-2.4-1.238-3.864-.913-3.08-1.532-4.735-1.256-3.209-1.815-4.631-1.038-2.711-1.391-3.81-.59-2-.739-2.632c-.076-.314-.123-.561-.162-.726-.017-.076-.032-.138-.044-.189a.233.233,0,0,0-.02-.063" transform="translate(-139.44 -81.441)" fill="#263238"/>
            <path id="Trazado_230382" data-name="Trazado 230382" d="M326.009,166.362a.59.59,0,0,1,.971.6,16.87,16.87,0,0,1-.861,2.214c-.942,2-3.709,9.185-5,13.129s-3.12,11.3-3.12,11.3l-2.766-.449s2.53-12.092,5-16.448c1.987-3.5,3.974-8.56,5.777-10.352" transform="translate(-148.679 -78.385)" fill="#455a64"/>
            <path id="Trazado_230383" data-name="Trazado 230383" d="M322.825,201.362a1.72,1.72,0,0,0-.143.331c-.082.217-.193.534-.319.929-.255.789-.566,1.891-.881,3.116s-.574,2.339-.756,3.147l-.208.958a1.693,1.693,0,0,0-.057.356,1.761,1.761,0,0,0,.113-.343c.068-.252.152-.57.253-.947l.8-3.135c.314-1.223.609-2.327.838-3.121.109-.375.2-.69.274-.94a1.747,1.747,0,0,0,.088-.35" transform="translate(-151.146 -94.973)" fill="#263238"/>
            <path id="Trazado_230384" data-name="Trazado 230384" d="M317.831,193.5a.273.273,0,0,0,.016-.074c.008-.057.018-.129.031-.218.029-.191.055-.475.113-.837.1-.726.283-1.774.58-3.051a43.762,43.762,0,0,1,1.294-4.419c.568-1.639,1.279-3.409,2.085-5.242,1.627-3.661,3.253-6.908,4.321-9.308.54-1.2.958-2.176,1.233-2.857.141-.339.241-.607.311-.787l.077-.206a.265.265,0,0,0,.021-.072.324.324,0,0,0-.035.067l-.09.2-.337.776c-.291.674-.723,1.645-1.275,2.836-1.091,2.388-2.731,5.626-4.36,9.292-.808,1.835-1.517,3.611-2.079,5.257a41.561,41.561,0,0,0-1.268,4.44,30.882,30.882,0,0,0-.535,3.067c-.05.364-.067.649-.086.842-.007.09-.013.162-.017.22a.3.3,0,0,0,0,.075" transform="translate(-149.906 -78.496)" fill="#263238"/>
            <path id="Trazado_230385" data-name="Trazado 230385" d="M315.225,206.863a2.929,2.929,0,0,0,.093-.465l.215-1.271c.191-1.072.482-2.548.9-4.154s.881-3.039,1.24-4.066l.432-1.215a3.016,3.016,0,0,0,.147-.451,2.917,2.917,0,0,0-.2.43c-.119.281-.286.689-.477,1.2a40.137,40.137,0,0,0-1.284,4.064,42.188,42.188,0,0,0-.861,4.174c-.079.539-.139.977-.169,1.28a2.919,2.919,0,0,0-.037.473" transform="translate(-148.676 -92.086)" fill="#263238"/>
            <rect id="Rectángulo_57860" data-name="Rectángulo 57860" width="10.796" height="13.154" transform="translate(160.872 114.379)" fill="#b0c0d2"/>
            <rect id="Rectángulo_57863" data-name="Rectángulo 57863" width="9.578" height="13.154" transform="translate(164.316 114.379)" fill="#12263f"/>
          </g>
        </g>
        <rect id="Rectángulo_57865" data-name="Rectángulo 57865" width="21.045" height="14.185" transform="matrix(0.952, -0.305, 0.305, 0.952, 54.614, 12.441)" fill="#afafaf"/>
        <g id="Grupo_179899" data-name="Grupo 179899">
          <g id="Grupo_179898" data-name="Grupo 179898" clip-path="url(#clip-path)">
            <path id="Trazado_230386" data-name="Trazado 230386" d="M123.631,11.669a1.482,1.482,0,0,1-.129.24l-.4.667-1.508,2.439-5.047,8.027-.041.066-.073-.028-.177-.068-8.97-3.447L104.572,18.5l-.733-.3a1.518,1.518,0,0,1-.251-.116,1.483,1.483,0,0,1,.265.08l.746.265,2.733,1.008,8.99,3.395.177.068-.115.038,5.095-8,1.559-2.407.432-.648a1.463,1.463,0,0,1,.161-.219" transform="translate(-48.858 -5.504)" fill="#263238"/>
            <path id="Trazado_230387" data-name="Trazado 230387" d="M111.773,40.141c-.049-.02.865-2.355,2.042-5.214s2.17-5.161,2.219-5.141-.865,2.354-2.042,5.214-2.17,5.161-2.219,5.141" transform="translate(-52.718 -14.049)" fill="#263238"/>
            <path id="Trazado_230388" data-name="Trazado 230388" d="M132.346,25.428c.03-.044,2.108,1.318,4.64,3.041s4.563,3.155,4.534,3.2-2.108-1.318-4.641-3.041-4.563-3.155-4.533-3.2" transform="translate(-62.421 -11.993)" fill="#263238"/>
          </g>
        </g>
        <g id="Grupo_179907" data-name="Grupo 179907">
          <g id="Grupo_179906" data-name="Grupo 179906" clip-path="url(#clip-path)">
            <path id="Trazado_230389" data-name="Trazado 230389" d="M294.487,39.3l-14.918-6.32a2.028,2.028,0,0,1-1.076-2.658l8.748-20.649A2.027,2.027,0,0,1,289.9,8.6l9.461,4.008,4.126,10.651-6.34,14.967a2.027,2.027,0,0,1-2.658,1.076" transform="translate(-131.277 -3.979)" fill="#afafaf"/>
            <path id="Trazado_230390" data-name="Trazado 230390" d="M315.8,16.328l-2.462,5.811a1.886,1.886,0,0,0,1,2.472l5.587,2.368Z" transform="translate(-147.716 -7.701)" fill="#636363"/>
            <g id="Grupo_179902" data-name="Grupo 179902" transform="translate(165.321 14.981)" opacity="0.2">
              <g id="Grupo_179901" data-name="Grupo 179901">
                <g id="Grupo_179900" data-name="Grupo 179900" clip-path="url(#clip-path-7)">
                  <path id="Trazado_230391" data-name="Trazado 230391" d="M313.064,28.354a2.1,2.1,0,0,0,.737,2.521,1.859,1.859,0,0,0,.167.119c.674.44,5.115,3.329,5.162,3.218l.661-1.561L314.2,30.284a1.932,1.932,0,0,1-1.14-1.93" transform="translate(-312.904 -28.354)"/>
                </g>
              </g>
            </g>
            <path id="Trazado_230393" data-name="Trazado 230393" d="M305.131,23.26a24.063,24.063,0,0,1-3.508-1.327,24.011,24.011,0,0,1-3.394-1.6,24.09,24.09,0,0,1,3.508,1.327,24.053,24.053,0,0,1,3.394,1.6" transform="translate(-140.661 -9.589)" fill="#fafafa"/>
            <path id="Trazado_230394" data-name="Trazado 230394" d="M306.954,31.37c-.032.075-2.6-.942-5.737-2.271s-5.654-2.467-5.623-2.541,2.6.942,5.737,2.271,5.654,2.467,5.622,2.541" transform="translate(-139.419 -12.524)" fill="#fafafa"/>
            <path id="Trazado_230395" data-name="Trazado 230395" d="M305.778,37c-.032.074-2.829-1.039-6.248-2.487s-6.166-2.683-6.134-2.758,2.829,1.039,6.249,2.487,6.165,2.683,6.134,2.758" transform="translate(-138.381 -14.974)" fill="#fafafa"/>
            <path id="Trazado_230396" data-name="Trazado 230396" d="M303.7,41.9c-.032.075-2.829-1.039-6.248-2.487s-6.166-2.683-6.134-2.758,2.829,1.039,6.249,2.487,6.165,2.683,6.134,2.758" transform="translate(-137.402 -17.284)" fill="#fafafa"/>
            <path id="Trazado_230397" data-name="Trazado 230397" d="M301.626,46.8c-.032.074-2.829-1.039-6.248-2.487s-6.166-2.683-6.134-2.758,2.829,1.039,6.249,2.487,6.165,2.683,6.134,2.758" transform="translate(-136.423 -19.596)" fill="#fafafa"/>
            <path id="Trazado_230398" data-name="Trazado 230398" d="M299.551,51.694c-.032.074-2.829-1.039-6.248-2.487s-6.165-2.683-6.134-2.758,2.829,1.039,6.249,2.487,6.165,2.683,6.134,2.758" transform="translate(-135.444 -21.906)" fill="#fafafa"/>
          </g>
        </g>
        <g id="Grupo_179909" data-name="Grupo 179909">
          <g id="Grupo_179908" data-name="Grupo 179908" clip-path="url(#clip-path)">
            <path id="Trazado_230399" data-name="Trazado 230399" d="M216.082,20.183A19.732,19.732,0,1,1,196.351.451a19.731,19.731,0,0,1,19.732,19.732" transform="translate(-83.303 -0.213)" fill="#fff"/>
            <path id="Trazado_230400" data-name="Trazado 230400" d="M215.96,20.082s-.015-.108-.03-.319-.035-.532-.061-.937q-.018-.31-.041-.689c-.027-.253-.081-.526-.125-.824a14.428,14.428,0,0,0-.411-2.036,18.826,18.826,0,0,0-2.186-5.232A19.717,19.717,0,0,0,199.849.812a18.244,18.244,0,0,0-2.481-.286c-.423-.015-.849-.056-1.278-.049l-1.3.067c-.218.015-.437.014-.655.043l-.654.1c-.436.072-.881.123-1.319.214a20.763,20.763,0,0,0-2.614.768,20.438,20.438,0,0,0-2.556,1.124c-.414.225-.811.486-1.22.729-.2.128-.415.238-.606.383l-.577.432a22.123,22.123,0,0,0-2.223,1.889,22.157,22.157,0,0,0-1.92,2.272L180,9.1l-.395.645-.394.649a4.9,4.9,0,0,0-.365.668l-.665,1.382-.532,1.451a20.946,20.946,0,0,0-1.011,6.182,20.95,20.95,0,0,0,1.01,6.185l.532,1.451.666,1.383a4.814,4.814,0,0,0,.365.668l.394.649.395.645.451.6a22.174,22.174,0,0,0,1.921,2.272,21.949,21.949,0,0,0,2.224,1.89l.577.432c.191.145.405.255.606.383.409.244.806.505,1.22.73a20.447,20.447,0,0,0,2.557,1.124,20.706,20.706,0,0,0,2.615.768c.439.091.883.142,1.319.215l.654.1c.218.029.438.027.655.043l1.3.067c.43.007.856-.034,1.279-.049a18.232,18.232,0,0,0,2.481-.286A19.719,19.719,0,0,0,213.1,30.118a18.808,18.808,0,0,0,2.186-5.232,14.268,14.268,0,0,0,.411-2.035c.044-.3.1-.572.125-.824s.029-.482.041-.689c.026-.4.047-.715.061-.936s.03-.319.03-.319,0,.108,0,.32-.019.534-.034.939q-.013.311-.028.693c-.023.254-.072.529-.113.828a14.113,14.113,0,0,1-.388,2.05,18.711,18.711,0,0,1-2.158,5.285,19.833,19.833,0,0,1-13.345,9.379,18.469,18.469,0,0,1-2.509.3c-.428.016-.859.058-1.294.053l-1.314-.065c-.22-.014-.443-.013-.663-.041l-.663-.1c-.442-.072-.892-.123-1.336-.215a20.936,20.936,0,0,1-2.65-.772,20.6,20.6,0,0,1-2.593-1.134c-.42-.227-.823-.491-1.238-.737-.2-.13-.421-.24-.615-.387l-.585-.437a22.277,22.277,0,0,1-2.256-1.913,22.411,22.411,0,0,1-1.95-2.3l-.458-.611-.4-.654-.4-.658a4.978,4.978,0,0,1-.37-.678l-.676-1.4-.54-1.472a21.192,21.192,0,0,1-1.025-6.271,21.161,21.161,0,0,1,1.027-6.268l.54-1.471.675-1.4a4.974,4.974,0,0,1,.371-.677l.4-.658.4-.654.458-.611a22.457,22.457,0,0,1,1.949-2.3,22.384,22.384,0,0,1,2.255-1.913l.585-.437c.194-.146.411-.257.614-.387.415-.246.818-.51,1.238-.737a20.556,20.556,0,0,1,2.592-1.134,20.93,20.93,0,0,1,2.649-.772c.445-.091.894-.142,1.336-.215l.663-.1c.22-.029.443-.027.663-.042l1.313-.065c.435-.005.866.037,1.294.053a18.385,18.385,0,0,1,2.509.3,19.831,19.831,0,0,1,13.346,9.378,18.713,18.713,0,0,1,2.158,5.285,14.047,14.047,0,0,1,.388,2.05c.041.3.09.575.113.828s.02.486.029.693c.015.405.026.717.034.939s0,.32,0,.32" transform="translate(-83.181 -0.112)" fill="#263238"/>
            <path id="Trazado_230401" data-name="Trazado 230401" d="M222.294,28.264a4.949,4.949,0,0,1-.8.228l-2.2.526c-1.865.434-4.455,1.017-7.347,1.652l-.167.037V29.96c0-3.092.015-5.891.04-7.917.018-.977.033-1.785.044-2.4a5.4,5.4,0,0,1,.053-.88,5.426,5.426,0,0,1,.054.88c.011.613.026,1.422.043,2.4.025,2.026.041,4.825.041,7.917,0,.2,0,.393,0,.575l-.166-.134c2.892-.631,5.489-1.183,7.365-1.569l2.22-.442a4.88,4.88,0,0,1,.818-.126" transform="translate(-99.888 -8.851)" fill="#263238"/>
            <path id="Trazado_230402" data-name="Trazado 230402" d="M245.032,28.1a1.511,1.511,0,0,1,.087-.32c.06-.208.177-.506.287-.9a23.8,23.8,0,0,0,.771-3.384,23.32,23.32,0,0,0-1.043-11.273A23.325,23.325,0,0,0,238.8,2.839,23.863,23.863,0,0,0,236.062.708c-.335-.237-.614-.392-.793-.515A1.529,1.529,0,0,1,235,0a1.507,1.507,0,0,1,.3.145c.189.108.477.249.824.473a20.972,20.972,0,0,1,2.81,2.075,22.46,22.46,0,0,1,7.439,20.837,20.921,20.921,0,0,1-.861,3.386c-.126.393-.26.685-.338.888a1.477,1.477,0,0,1-.139.3" transform="translate(-110.838 0)" fill="#263238"/>
            <path id="Trazado_230403" data-name="Trazado 230403" d="M257.146,23.134c-.044,0-.07-.786-.231-2.043a23.94,23.94,0,0,0-3.179-9.285c-.645-1.091-1.107-1.728-1.072-1.754a2.024,2.024,0,0,1,.368.416c.221.28.524.7.87,1.236a20.927,20.927,0,0,1,3.206,9.365c.057.636.074,1.153.073,1.509a2.088,2.088,0,0,1-.035.554" transform="translate(-119.169 -4.741)" fill="#263238"/>
            <path id="Trazado_230404" data-name="Trazado 230404" d="M173.768,16.165a1.564,1.564,0,0,1-.137.3c-.094.2-.256.471-.428.844a23.8,23.8,0,0,0-1.3,3.218,22.822,22.822,0,0,0,4,21.57,23.74,23.74,0,0,0,2.366,2.539c.294.287.544.485.7.635a1.606,1.606,0,0,1,.237.234,1.449,1.449,0,0,1-.272-.191c-.169-.136-.431-.321-.737-.6a20.924,20.924,0,0,1-2.445-2.5,22.465,22.465,0,0,1-4.033-21.754,20.919,20.919,0,0,1,1.389-3.207c.186-.367.365-.635.474-.823a1.441,1.441,0,0,1,.185-.275" transform="translate(-80.42 -7.624)" fill="#263238"/>
            <path id="Trazado_230405" data-name="Trazado 230405" d="M166.386,33.175c.044.006-.055.787-.1,2.053a23.931,23.931,0,0,0,1.663,9.672c.463,1.179.818,1.882.779,1.9a2.075,2.075,0,0,1-.3-.47c-.173-.312-.405-.773-.661-1.358a20.929,20.929,0,0,1-1.677-9.756c.045-.637.11-1.15.168-1.5a2.061,2.061,0,0,1,.123-.542" transform="translate(-78.316 -15.647)" fill="#263238"/>
            <path id="Trazado_230406" data-name="Trazado 230406" d="M243.681,43.706c-.744-.153-1.347-.282-1.345-.29s.606.109,1.351.262,1.346.282,1.345.29-.607-.11-1.35-.262" transform="translate(-114.299 -20.477)" fill="#263238"/>
            <path id="Trazado_230407" data-name="Trazado 230407" d="M240.209,52.744c-.655-.386-1.182-.7-1.179-.71s.538.3,1.192.687,1.182.7,1.178.71-.537-.3-1.192-.687" transform="translate(-112.74 -24.542)" fill="#263238"/>
            <path id="Trazado_230408" data-name="Trazado 230408" d="M233.981,60.153c-.493-.578-.889-1.05-.884-1.055s.41.46.9,1.038.889,1.05.883,1.055-.41-.46-.9-1.038" transform="translate(-109.941 -27.874)" fill="#263238"/>
            <path id="Trazado_230409" data-name="Trazado 230409" d="M225.692,65.146c-.281-.706-.5-1.281-.5-1.283s.239.567.52,1.274.5,1.281.5,1.283-.239-.568-.52-1.274" transform="translate(-106.215 -30.121)" fill="#263238"/>
            <path id="Trazado_230410" data-name="Trazado 230410" d="M216.233,67.18c-.035-.759-.057-1.375-.05-1.375s.041.615.076,1.374.058,1.374.05,1.375-.041-.615-.076-1.374" transform="translate(-101.963 -31.037)" fill="#263238"/>
            <path id="Trazado_230411" data-name="Trazado 230411" d="M205.929,66.023c.212-.73.39-1.319.4-1.317s-.159.595-.371,1.325-.39,1.319-.4,1.317.159-.6.371-1.325" transform="translate(-96.952 -30.519)" fill="#263238"/>
            <path id="Trazado_230412" data-name="Trazado 230412" d="M196.478,61.818c.439-.62.8-1.12.805-1.116s-.344.51-.784,1.131-.8,1.12-.8,1.115.344-.51.783-1.131" transform="translate(-92.3 -28.63)" fill="#263238"/>
            <path id="Trazado_230413" data-name="Trazado 230413" d="M189.032,55c.616-.445,1.119-.8,1.123-.795s-.492.371-1.108.816-1.119.8-1.123.794.492-.371,1.108-.815" transform="translate(-88.635 -25.567)" fill="#263238"/>
            <path id="Trazado_230414" data-name="Trazado 230414" d="M184.374,46.328c.727-.221,1.318-.4,1.32-.388s-.585.192-1.312.413-1.318.4-1.32.388.586-.192,1.312-.413" transform="translate(-86.342 -21.668)" fill="#263238"/>
            <path id="Trazado_230415" data-name="Trazado 230415" d="M183.025,36.638c.759.028,1.375.057,1.375.064s-.616-.01-1.376-.038-1.374-.057-1.374-.064.616.01,1.375.038" transform="translate(-85.676 -17.262)" fill="#263238"/>
            <path id="Trazado_230416" data-name="Trazado 230416" d="M185.128,26.361c.71.272,1.283.5,1.28.5s-.58-.208-1.29-.479-1.283-.5-1.28-.5.581.207,1.29.479" transform="translate(-86.708 -12.207)" fill="#263238"/>
            <path id="Trazado_230417" data-name="Trazado 230417" d="M190.453,17.32c.582.489,1.05.889,1.046.894s-.48-.386-1.063-.874-1.05-.889-1.045-.894.48.386,1.062.874" transform="translate(-89.327 -7.757)" fill="#263238"/>
            <path id="Trazado_230418" data-name="Trazado 230418" d="M198.421,10.509c.393.651.706,1.181.7,1.185s-.33-.52-.722-1.171-.706-1.18-.7-1.184.33.52.722,1.171" transform="translate(-93.246 -4.404)" fill="#263238"/>
            <path id="Trazado_230419" data-name="Trazado 230419" d="M208.164,6.64c.161.743.285,1.346.278,1.348s-.143-.6-.3-1.343-.285-1.346-.278-1.347.143.6.3,1.341" transform="translate(-98.038 -2.499)" fill="#263238"/>
            <path id="Trazado_230420" data-name="Trazado 230420" d="M218.351,6.155c-.09.754-.17,1.365-.177,1.365s.06-.613.151-1.368.17-1.365.177-1.364-.06.613-.151,1.367" transform="translate(-102.903 -2.258)" fill="#263238"/>
            <path id="Trazado_230421" data-name="Trazado 230421" d="M227.653,9.09c-.33.685-.6,1.237-.609,1.234s.255-.561.584-1.246.6-1.237.608-1.234-.255.561-.584,1.245" transform="translate(-107.086 -3.7)" fill="#263238"/>
            <path id="Trazado_230422" data-name="Trazado 230422" d="M235.557,15.142c-.535.54-.973.973-.978.968s.424-.447.959-.987.972-.973.976-.968-.424.447-.958.986" transform="translate(-110.64 -6.677)" fill="#263238"/>
            <path id="Trazado_230423" data-name="Trazado 230423" d="M241.222,23.641c-.68.338-1.235.607-1.238.6s.546-.286,1.226-.624,1.234-.607,1.237-.6-.546.286-1.226.624" transform="translate(-113.19 -10.856)" fill="#263238"/>
            <path id="Trazado_230424" data-name="Trazado 230424" d="M244.042,33.67c-.753.1-1.365.173-1.366.166s.609-.093,1.363-.192,1.364-.173,1.365-.165-.609.093-1.362.191" transform="translate(-114.459 -15.79)" fill="#263238"/>
            <path id="Trazado_230425" data-name="Trazado 230425" d="M261.294,30.392a14.442,14.442,0,0,1-1.13,2.573l-.031.062-.107.214-.131-.2a13.941,13.941,0,0,1-1.389-2.363,13.885,13.885,0,0,1,1.619,2.212l-.238.014.031-.062a14.41,14.41,0,0,1,1.376-2.45" transform="translate(-121.924 -14.334)" fill="#263238"/>
          </g>
        </g>
        <g id="Grupo_179926" data-name="Grupo 179926">
          <g id="Grupo_179925" data-name="Grupo 179925" clip-path="url(#clip-path)">
            <path id="Trazado_230426" data-name="Trazado 230426" d="M220.4,114.848H158.3a5.5,5.5,0,1,0,0,11h29.042l6.5,6.2v-6.2H220.4a5.5,5.5,0,0,0,0-11" transform="translate(-72.069 -54.169)" fill="#fafafa"/>
            <path id="Trazado_230427" data-name="Trazado 230427" d="M220.281,114.728s.069,0,.2,0a3.967,3.967,0,0,1,.6.045,5.406,5.406,0,0,1,2.2.808,5.534,5.534,0,0,1,1.507,7.9,5.622,5.622,0,0,1-2.369,1.894,6.068,6.068,0,0,1-1.594.4c-.565.043-1.127.026-1.706.032l-7.48.013-17.916.021.121-.12c0,1.94,0,4.044,0,6.2v.293l-.213-.2-6.508-6.193.091.036-24.7.006h-4.309a5.638,5.638,0,0,1-4.313-9.3,5.587,5.587,0,0,1,3.569-1.923c.688-.077,1.348-.04,2.011-.049h1.977l7.692,0,26.61.03,17.939.044,4.877.025,1.269.014c.286,0,.432.014.432.014s-.146.01-.432.014l-1.269.013-4.877.026-17.939.044-26.61.03-7.692,0h-1.977c-.66.008-1.336-.025-1.978.049a5.364,5.364,0,0,0-3.043,9.179,5.381,5.381,0,0,0,3.753,1.5h4.309l24.7.006h.052l.038.036,6.5,6.2-.212.091c0-2.153,0-4.257.005-6.2v-.121h.12l17.916.022,7.48.013c.577,0,1.149.015,1.69-.023a5.908,5.908,0,0,0,1.55-.386,5.456,5.456,0,0,0-1.284-10.422c-.524-.082-.8-.067-.8-.084" transform="translate(-71.953 -54.049)" fill="#263238"/>
            <path id="Trazado_230428" data-name="Trazado 230428" d="M186.87,125.677h-27.2a3.887,3.887,0,0,1,0-7.774h27.2a3.887,3.887,0,1,1,0,7.774" transform="translate(-73.477 -55.609)" fill="#ff5422"/>
            <path id="Trazado_230429" data-name="Trazado 230429" d="M214.917,104.115l-.919,2.81h-.7l-.618-1.9-.639,1.9h-.694l-.924-2.81h.674l.635,1.975.663-1.975h.6l.642,1.991.654-1.991Z" transform="translate(-99.248 -49.106)" fill="#263238"/>
            <path id="Trazado_230430" data-name="Trazado 230430" d="M219.215,105.478a1.54,1.54,0,1,1,1.538,1.453,1.454,1.454,0,0,1-1.538-1.453m2.417,0a.879.879,0,1,0-.879.9.857.857,0,0,0,.879-.9" transform="translate(-103.394 -49.064)" fill="#263238"/>
            <path id="Trazado_230431" data-name="Trazado 230431" d="M227.752,106.925l-.542-.782h-.6v.782h-.65v-2.81h1.216c.751,0,1.22.389,1.22,1.02a.913.913,0,0,1-.578.888l.63.9Zm-.61-2.28h-.53v.98h.53c.4,0,.6-.184.6-.49s-.2-.49-.6-.49" transform="translate(-106.576 -49.106)" fill="#263238"/>
            <path id="Trazado_230432" data-name="Trazado 230432" d="M232.57,105.822l-.377.394v.711h-.646v-2.81h.646v1.312l1.245-1.312h.722L233,105.368l1.233,1.558h-.759Z" transform="translate(-109.21 -49.107)" fill="#263238"/>
            <path id="Trazado_230433" data-name="Trazado 230433" d="M264.024,124.445h-.787l-.2,1.01h-.57l.2-1.01H260.39l.077-.411,2.612-2.688h.664l-2.5,2.594h1.55l.182-.892h.545l-.176.892h.781Z" transform="translate(-122.814 -57.233)" fill="#263238"/>
            <path id="Trazado_230434" data-name="Trazado 230434" d="M269.038,121.856l-.341,1.127h.4c1.051,0,1.526.434,1.526,1.1,0,.851-.7,1.42-1.749,1.42a1.929,1.929,0,0,1-1.438-.516l.311-.452a1.545,1.545,0,0,0,1.168.446c.71,0,1.121-.311,1.121-.834,0-.4-.294-.651-1.045-.651h-1l.64-2.148h2.318l-.1.51Z" transform="translate(-126.137 -57.233)" fill="#263238"/>
            <path id="Trazado_230435" data-name="Trazado 230435" d="M274.77,122.628a1.21,1.21,0,0,1,1.121-1.338.8.8,0,0,1,.827.892,1.206,1.206,0,0,1-1.121,1.338.8.8,0,0,1-.827-.892m3.645-1.309h.47l-3.592,4.108h-.481Zm-2.077.892c0-.387-.182-.593-.476-.593-.475,0-.71.534-.71.981,0,.387.182.592.475.592.476,0,.711-.534.711-.98m.651,2.36a1.206,1.206,0,0,1,1.121-1.338.794.794,0,0,1,.822.892,1.2,1.2,0,0,1-1.121,1.339.792.792,0,0,1-.822-.892m1.561-.417c0-.387-.182-.593-.475-.593-.47,0-.711.534-.711.98,0,.387.188.593.475.593.476,0,.71-.534.71-.98" transform="translate(-129.597 -57.207)" fill="#263238"/>
            <g id="Grupo_179912" data-name="Grupo 179912" transform="translate(84.728 62.294)" opacity="0.3">
              <g id="Grupo_179911" data-name="Grupo 179911">
                <g id="Grupo_179910" data-name="Grupo 179910" clip-path="url(#clip-path-10)">
                  <path id="Trazado_230436" data-name="Trazado 230436" d="M162.884,117.9l-2.519,7.774h2.519l2.369-7.774Z" transform="translate(-160.365 -117.903)" fill="#fff"/>
                </g>
              </g>
            </g>
            <g id="Grupo_179915" data-name="Grupo 179915" transform="translate(90.952 62.294)" opacity="0.3">
              <g id="Grupo_179914" data-name="Grupo 179914">
                <g id="Grupo_179913" data-name="Grupo 179913" clip-path="url(#clip-path-10)">
                  <path id="Trazado_230437" data-name="Trazado 230437" d="M174.663,117.9l-2.519,7.774h2.519l2.369-7.774Z" transform="translate(-172.144 -117.903)" fill="#fff"/>
                </g>
              </g>
            </g>
            <g id="Grupo_179918" data-name="Grupo 179918" transform="translate(97.174 62.294)" opacity="0.3">
              <g id="Grupo_179917" data-name="Grupo 179917">
                <g id="Grupo_179916" data-name="Grupo 179916" clip-path="url(#clip-path-10)">
                  <path id="Trazado_230438" data-name="Trazado 230438" d="M186.441,117.9l-2.519,7.774h2.519l2.369-7.774Z" transform="translate(-183.922 -117.903)" fill="#fff"/>
                </g>
              </g>
            </g>
            <g id="Grupo_179921" data-name="Grupo 179921" transform="translate(103.398 62.294)" opacity="0.3">
              <g id="Grupo_179920" data-name="Grupo 179920">
                <g id="Grupo_179919" data-name="Grupo 179919" clip-path="url(#clip-path-10)">
                  <path id="Trazado_230439" data-name="Trazado 230439" d="M198.22,117.9l-2.519,7.774h2.519l2.369-7.774Z" transform="translate(-195.701 -117.903)" fill="#fff"/>
                </g>
              </g>
            </g>
            <g id="Grupo_179924" data-name="Grupo 179924" transform="translate(109.621 62.294)" opacity="0.3">
              <g id="Grupo_179923" data-name="Grupo 179923">
                <g id="Grupo_179922" data-name="Grupo 179922" clip-path="url(#clip-path-10)">
                  <path id="Trazado_230440" data-name="Trazado 230440" d="M210,117.9l-2.519,7.774H210l2.369-7.774Z" transform="translate(-207.48 -117.903)" fill="#fff"/>
                </g>
              </g>
            </g>
          </g>
        </g>
        <g id="Grupo_179946" data-name="Grupo 179946">
          <g id="Grupo_179945" data-name="Grupo 179945" clip-path="url(#clip-path)">
            <path id="Trazado_230441" data-name="Trazado 230441" d="M33.739,325.691s13.38,6.029,27.317,6.029c12.906,0,26.563-6.5,26.563-6.5Z" transform="translate(-15.913 -153.393)" fill="#e0e0e0"/>
            <rect id="Rectángulo_57877" data-name="Rectángulo 57877" width="5.527" height="57.891" transform="translate(41.074 172.411)" fill="#e0e0e0"/>
            <rect id="Rectángulo_57878" data-name="Rectángulo 57878" width="49.054" height="3.394" transform="translate(19.31 226.908)" fill="#e0e0e0"/>
            <path id="Trazado_230442" data-name="Trazado 230442" d="M41.226,434.654a3.744,3.744,0,1,1-3.744-3.744,3.744,3.744,0,0,1,3.744,3.744" transform="translate(-15.913 -203.241)" fill="#263238"/>
            <path id="Trazado_230443" data-name="Trazado 230443" d="M82.482,434.654a3.744,3.744,0,1,1-3.744-3.744,3.744,3.744,0,0,1,3.744,3.744" transform="translate(-35.372 -203.241)" fill="#263238"/>
            <path id="Trazado_230444" data-name="Trazado 230444" d="M130.271,434.654a3.744,3.744,0,1,1-3.744-3.744,3.744,3.744,0,0,1,3.744,3.744" transform="translate(-57.912 -203.241)" fill="#263238"/>
            <rect id="Rectángulo_57879" data-name="Rectángulo 57879" width="7.518" height="3.111" transform="translate(37.625 193.247)" fill="#e0e0e0"/>
            <rect id="Rectángulo_57880" data-name="Rectángulo 57880" width="2.738" height="7.467" transform="translate(36.256 191.069)" fill="#e0e0e0"/>
            <path id="Trazado_230445" data-name="Trazado 230445" d="M48.219,240.082H19.66V165.464a6.133,6.133,0,0,1,6.133-6.133H48.219Z" transform="translate(-9.273 -75.149)" fill="#455a64"/>
            <path id="Trazado_230446" data-name="Trazado 230446" d="M31.5,239.982c-.076,0-.138-17.522-.138-39.13s.062-39.133.138-39.133.137,17.517.137,39.133-.061,39.13-.137,39.13" transform="translate(-14.794 -76.275)" fill="#263238"/>
            <path id="Trazado_230447" data-name="Trazado 230447" d="M90.359,320.636H23.865a4.2,4.2,0,0,1-4.2-4.2v-4.578h70.7Z" transform="translate(-9.273 -147.088)" fill="#455a64"/>
            <path id="Trazado_230448" data-name="Trazado 230448" d="M92.523,87.26l-3.062,29.214c-.521,4.968-.271,12.372,7.622,12.837,6.878-.113,9.279-6.392,9.76-11.029.228-2.2.423-4.033.461-4.257,0,0,7.51.08,8.819-7.225.632-3.53,1.343-10.907,1.908-17.588A13.822,13.822,0,0,0,106.522,74.42l-.706-.118c-7.69-.823-12.684,5.249-13.293,12.958" transform="translate(-42.116 -35.01)" fill="#ffbe9d"/>
            <path id="Trazado_230449" data-name="Trazado 230449" d="M115.294,145.622a17.921,17.921,0,0,1-9.062-4.4s1.436,5.734,8.849,6.29Z" transform="translate(-50.105 -66.607)" fill="#eb996e"/>
            <path id="Trazado_230450" data-name="Trazado 230450" d="M115.308,104.74c-.16.136-.947-.627-2.178-.774-1.227-.165-2.207.373-2.322.2-.058-.077.12-.335.548-.58a3.1,3.1,0,0,1,1.882-.351,2.987,2.987,0,0,1,1.71.807c.342.343.437.636.359.7" transform="translate(-52.258 -48.681)" fill="#263238"/>
            <path id="Trazado_230451" data-name="Trazado 230451" d="M117.317,110.5a1,1,0,0,1-1.12.839.959.959,0,0,1-.871-1.061,1,1,0,0,1,1.119-.84.959.959,0,0,1,.872,1.062" transform="translate(-54.391 -51.615)" fill="#263238"/>
            <path id="Trazado_230452" data-name="Trazado 230452" d="M123.684,114.441a7.538,7.538,0,0,1,1.882-.025c.292.018.573.006.654-.182a1.481,1.481,0,0,0-.05-.883q-.232-1.11-.486-2.328a38.082,38.082,0,0,1-.956-6.038,38.131,38.131,0,0,1,1.439,5.948q.235,1.222.448,2.335a1.689,1.689,0,0,1-.039,1.152.731.731,0,0,1-.542.341,1.974,1.974,0,0,1-.5-.014,7.435,7.435,0,0,1-1.852-.305" transform="translate(-58.336 -49.516)" fill="#263238"/>
            <path id="Trazado_230453" data-name="Trazado 230453" d="M115.039,96.215c-.144.263-1.113-.034-2.3-.083-1.187-.073-2.184.123-2.3-.153-.049-.132.159-.367.583-.574a3.752,3.752,0,0,1,1.776-.327,3.7,3.7,0,0,1,1.727.507c.4.249.576.5.512.629" transform="translate(-52.087 -44.842)" fill="#263238"/>
            <path id="Trazado_230454" data-name="Trazado 230454" d="M136.9,102.534c-.15.211-1.09-.125-2.253-.269-1.161-.165-2.145-.083-2.247-.328-.043-.116.167-.3.59-.438a4.091,4.091,0,0,1,1.752-.126,4.222,4.222,0,0,1,1.676.581c.382.246.549.479.482.58" transform="translate(-62.446 -47.794)" fill="#263238"/>
            <path id="Trazado_230455" data-name="Trazado 230455" d="M89.907,108.837c-.116-.075-4.782-2.324-5.455,2.706s4.516,4.668,4.544,4.526.91-7.232.91-7.232" transform="translate(-39.804 -51.067)" fill="#ffbe9d"/>
            <path id="Trazado_230456" data-name="Trazado 230456" d="M88.876,115.36c-.02-.019-.1.05-.253.1a.887.887,0,0,1-.657-.074,2.19,2.19,0,0,1-.743-2.08,2.918,2.918,0,0,1,.413-1.222,1.022,1.022,0,0,1,.749-.585.45.45,0,0,1,.485.31c.049.15,0,.246.029.258s.119-.07.106-.283a.563.563,0,0,0-.156-.341.666.666,0,0,0-.468-.193,1.241,1.241,0,0,0-1.02.657,3,3,0,0,0-.491,1.362,2.3,2.3,0,0,0,.988,2.344.947.947,0,0,0,.819-.026c.173-.1.214-.213.2-.224" transform="translate(-40.966 -52.47)" fill="#eb996e"/>
            <path id="Trazado_230457" data-name="Trazado 230457" d="M118.686,126.174c.067-.123-.9-.51-1.5-1.5a5.684,5.684,0,0,1-.577-1.383c-.113-.38-.2-.62-.26-.609s-.063.26-.018.667a3.747,3.747,0,0,0,.514,1.537,3.029,3.029,0,0,0,1.2,1.106c.371.192.631.226.648.184" transform="translate(-54.852 -57.862)" fill="#263238"/>
            <path id="Trazado_230458" data-name="Trazado 230458" d="M83.152,80.086c1.217-1.684,1.658-3.787,2.416-5.721s2.056-3.891,4.068-4.405l.042.023a5.336,5.336,0,0,1,5.3.994,6.938,6.938,0,0,1,5.715-4.894,17.17,17.17,0,0,1,9.062,1.56c1.829.939,3.52,2.675,5.54,5.183a24.891,24.891,0,0,1,2.288,3.36l1.593,7.085L116.932,86.7c-.137.235-.277.469-.443.7v-.017l-2.422,7.443c.082-2.083.9-9.28.981-11.364a11.612,11.612,0,0,1-7.888-4.566c-1.017-1.358-1.761-3.012-3.207-3.9-1.863-1.146-4.256-.658-6.379-.133l.095-.071a9.284,9.284,0,0,0-3.042,1.8A28.856,28.856,0,0,1,92.26,88.637c-.248.57-.886,1.732-1.484,1.9-1.175.333-1.373-.849-2-1.526a3.016,3.016,0,0,0-2.016-.7,45.354,45.354,0,0,1-.9-5.368,4.626,4.626,0,0,1-2.133-.054l.8-1.5a2.418,2.418,0,0,1-.945.327.825.825,0,0,1-.826-.454c-.156-.405.146-.827.4-1.18" transform="translate(-39.01 -31.111)" fill="#263238"/>
            <path id="Trazado_230459" data-name="Trazado 230459" d="M99.529,77.459a6.328,6.328,0,0,0-.8.608,5.3,5.3,0,0,0-1.356,2.341,9.325,9.325,0,0,0-.361,1.854c-.066.678-.078,1.41-.1,2.18a19.58,19.58,0,0,1-.167,2.42,8.54,8.54,0,0,1-.284,1.259,2.669,2.669,0,0,1-.634,1.188,1.117,1.117,0,0,1-1.071.254,1.664,1.664,0,0,1-.887-.614,3.828,3.828,0,0,1-.537-1.939l.153.033a6.2,6.2,0,0,1-1.038,1.46,2.2,2.2,0,0,1-1.505.648,1.423,1.423,0,0,1-.747-.2,1.233,1.233,0,0,1-.469-.556,1.265,1.265,0,0,1-.1-.667.915.915,0,0,1,.289-.551l.072.077A4.771,4.771,0,0,1,88.3,88.292a4.329,4.329,0,0,1-.508.145.789.789,0,0,1-.18.027.861.861,0,0,1,.173-.055c.114-.035.282-.086.5-.17a4.932,4.932,0,0,0,1.638-1.064l.072.077a.948.948,0,0,0-.15,1.09,1.107,1.107,0,0,0,.425.493,1.292,1.292,0,0,0,.678.175,2.066,2.066,0,0,0,1.4-.619,6.109,6.109,0,0,0,1-1.43l.128-.227.025.259a3.706,3.706,0,0,0,.51,1.852,1.5,1.5,0,0,0,.794.55.942.942,0,0,0,.911-.215,2.52,2.52,0,0,0,.586-1.112,8.493,8.493,0,0,0,.281-1.233,19.849,19.849,0,0,0,.175-2.4c.023-.769.041-1.5.114-2.189a9.269,9.269,0,0,1,.387-1.877,5.236,5.236,0,0,1,1.427-2.354,3.011,3.011,0,0,1,.847-.558" transform="translate(-41.323 -36.534)" fill="#455a64"/>
            <path id="Trazado_230460" data-name="Trazado 230460" d="M132.572,83.369s-.02.017-.064.045l-.2.117a2.466,2.466,0,0,1-.331.171,3.952,3.952,0,0,1-.47.194,6.562,6.562,0,0,1-3.2.276,8.386,8.386,0,0,1-4.294-2.052,14.523,14.523,0,0,1-3.413-4.754c-.453-.942-.805-1.9-1.209-2.785a9.8,9.8,0,0,0-1.439-2.394,5.05,5.05,0,0,0-2-1.484,3.616,3.616,0,0,0-1.107-.232,3.993,3.993,0,0,0-1.043.1,4.28,4.28,0,0,0-2.551,1.785,5.121,5.121,0,0,0-.482,1.069.257.257,0,0,1,.013-.077c.015-.06.034-.133.056-.222a3.694,3.694,0,0,1,.356-.806,4.215,4.215,0,0,1,.928-1.042,4.328,4.328,0,0,1,1.652-.825,4.042,4.042,0,0,1,1.077-.117,3.719,3.719,0,0,1,1.153.231,5.182,5.182,0,0,1,2.074,1.514,9.89,9.89,0,0,1,1.472,2.428c.409.9.761,1.848,1.211,2.78A14.526,14.526,0,0,0,124.117,82a8.328,8.328,0,0,0,4.208,2.05,6.659,6.659,0,0,0,3.164-.219,10.477,10.477,0,0,0,1.083-.464" transform="translate(-52.242 -33.176)" fill="#455a64"/>
            <path id="Trazado_230461" data-name="Trazado 230461" d="M136.511,107.583c-.16.135-.947-.628-2.178-.775-1.227-.165-2.207.374-2.322.2-.058-.077.12-.335.548-.58a3.1,3.1,0,0,1,1.882-.351,2.984,2.984,0,0,1,1.71.807c.343.343.437.636.36.7" transform="translate(-62.259 -50.022)" fill="#263238"/>
            <path id="Trazado_230462" data-name="Trazado 230462" d="M136.774,112.314a1,1,0,0,1-1.12.839.959.959,0,0,1-.871-1.061,1,1,0,0,1,1.118-.84.959.959,0,0,1,.872,1.062" transform="translate(-63.568 -52.47)" fill="#263238"/>
            <path id="Trazado_230463" data-name="Trazado 230463" d="M146.643,83.6a3.169,3.169,0,0,0,2.466,1.745,7.793,7.793,0,0,0,1.131-.207c.337.256.123,1.48-.161,1.794a6.646,6.646,0,0,1-.857.719c1.141.777,2.276.573,3.615.236a6.359,6.359,0,0,1-4.288,4.676,2.229,2.229,0,0,1-2.035-.174,2.563,2.563,0,0,1-.726-1.677,27.848,27.848,0,0,1-.194-6.858Z" transform="translate(-68.611 -39.431)" fill="#263238"/>
            <path id="Trazado_230464" data-name="Trazado 230464" d="M119.983,162.521s4.648,1.89,7.3,8.326c1.861,4.521,12.2,18.8,12.2,18.8l27.507,6.107.94,8.774-44-.362-6.115-19.469Z" transform="translate(-55.571 -76.654)" fill="#ffd800"/>
            <path id="Trazado_230465" data-name="Trazado 230465" d="M61.8,143.454,56.919,145.5c-4.516,1.9-10.3,6.254-12.234,10.753a149.289,149.289,0,0,0-10.488,37.1c-1.632,12.431,1.619,30.827,1.619,30.827L77.1,200.6l-2.412-1.689,7.823-42.561L81.05,151.2l.974-4.356s-10.953-4.4-18.932-7.549Z" transform="translate(-15.913 -65.697)" fill="#ffd800"/>
            <g id="Grupo_179929" data-name="Grupo 179929" transform="translate(17.795 131.253)" opacity="0.3">
              <g id="Grupo_179928" data-name="Grupo 179928">
                <g id="Grupo_179927" data-name="Grupo 179927" clip-path="url(#clip-path-16)">
                  <path id="Trazado_230466" data-name="Trazado 230466" d="M57.832,263.36q.23-3.188.459-6.376a2.8,2.8,0,0,1-1.787.766,18.71,18.71,0,0,0,2.728-3.283l-1.879.807a5.552,5.552,0,0,0,1.6-1.9c-1.008-.79-2.43-.658-3.7-.529-6.528.66-13.112.223-19.66-.216a4.492,4.492,0,0,1-1.876-.554,7.884,7.884,0,0,1,.158-2.465c.291-.668.743-.478,1.43-.722a7.571,7.571,0,0,1,2.152-.332c7.974-.42,15.96.237,23.918.893a2.488,2.488,0,0,1,1.4.405,2.523,2.523,0,0,1,.482,2.351l-1.214,8.932" transform="translate(-33.681 -248.422)"/>
                </g>
              </g>
            </g>
            <path id="Trazado_230467" data-name="Trazado 230467" d="M118.095,168.337a2.2,2.2,0,0,1-.04.4l-.167,1.136c-.151.986-.386,2.41-.7,4.165-.62,3.512-1.558,8.349-2.67,13.675s-2.177,10.137-2.965,13.615c-.4,1.716-.719,3.114-.95,4.114-.113.464-.2.835-.273,1.115a2.242,2.242,0,0,1-.113.385,2.136,2.136,0,0,1,.059-.4c.056-.283.13-.658.222-1.126l.864-4.133,2.886-13.63C115.361,182.332,116.329,177.5,117,174c.327-1.729.594-3.139.785-4.148l.218-1.128a2.164,2.164,0,0,1,.095-.39" transform="translate(-51.984 -79.397)" fill="#263238"/>
            <path id="Trazado_230468" data-name="Trazado 230468" d="M54.456,268.489a1.7,1.7,0,0,1,.245-.251l.74-.68c.321-.3.72-.651,1.2-1.045s1.01-.861,1.632-1.333c1.221-.975,2.726-2.07,4.444-3.218,1.728-1.132,3.673-2.309,5.779-3.428s4.183-2.048,6.093-2.836c1.917-.77,3.671-1.394,5.165-1.852.741-.246,1.425-.424,2.022-.594s1.114-.3,1.54-.4l.979-.227a1.7,1.7,0,0,1,.346-.061,1.667,1.667,0,0,1-.332.115l-.965.277c-.421.114-.934.257-1.524.444s-1.27.374-2.005.632c-1.481.48-3.222,1.121-5.128,1.9-1.9.8-3.956,1.742-6.061,2.845s-4.039,2.28-5.768,3.4-3.231,2.207-4.464,3.159c-.628.461-1.168.914-1.653,1.3s-.9.724-1.227,1.007l-.773.641a1.7,1.7,0,0,1-.282.21" transform="translate(-25.684 -119.122)" fill="#263238"/>
            <path id="Trazado_230469" data-name="Trazado 230469" d="M78.439,253.217c.036.067-3.979,2.323-8.967,5.039s-9.063,4.865-9.1,4.8,3.978-2.323,8.968-5.04,9.062-4.865,9.1-4.8" transform="translate(-28.475 -119.43)" fill="#263238"/>
            <g id="Grupo_179932" data-name="Grupo 179932" transform="translate(35.456 101.175)" opacity="0.3">
              <g id="Grupo_179931" data-name="Grupo 179931">
                <g id="Grupo_179930" data-name="Grupo 179930" clip-path="url(#clip-path-17)">
                  <path id="Trazado_230470" data-name="Trazado 230470" d="M67.108,191.494c2.563,11.075,10.4,21,20.827,25.516a246.99,246.99,0,0,1-20.827-25.516" transform="translate(-67.108 -191.494)"/>
                </g>
              </g>
            </g>
            <g id="Grupo_179935" data-name="Grupo 179935" transform="translate(62.774 92.744)" opacity="0.3">
              <g id="Grupo_179934" data-name="Grupo 179934">
                <g id="Grupo_179933" data-name="Grupo 179933" clip-path="url(#clip-path-18)">
                  <path id="Trazado_230471" data-name="Trazado 230471" d="M121.491,175.537a22.316,22.316,0,0,1-2.093,14.726l-.586-1.216c.83-3.521,2.02-9.775,2.679-13.509" transform="translate(-118.812 -175.537)"/>
                </g>
              </g>
            </g>
            <path id="Trazado_230472" data-name="Trazado 230472" d="M146.373,383.582l-4.948,14.892s13.475,10.031,12.829,12.872l-29.22-8.557,6.758-23.52Z" transform="translate(-58.973 -178.884)" fill="#455a64"/>
            <g id="Grupo_179938" data-name="Grupo 179938" transform="translate(66.061 200.385)" opacity="0.3">
              <g id="Grupo_179937" data-name="Grupo 179937">
                <g id="Grupo_179936" data-name="Grupo 179936" clip-path="url(#clip-path-19)">
                  <path id="Trazado_230473" data-name="Trazado 230473" d="M146.373,383.582l-4.948,14.892s13.475,10.031,12.829,12.872l-29.22-8.557,6.758-23.52Z" transform="translate(-125.034 -379.269)"/>
                </g>
              </g>
            </g>
            <path id="Trazado_230474" data-name="Trazado 230474" d="M138.564,408.2a1.243,1.243,0,0,0-1.224,1.12,1.194,1.194,0,0,0,1.1,1.223,1.311,1.311,0,0,0,1.29-1.193,1.24,1.24,0,0,0-1.285-1.145" transform="translate(-64.776 -192.526)" fill="#e0e0e0"/>
            <g id="Grupo_179941" data-name="Grupo 179941" transform="translate(66.061 221.561)" opacity="0.6">
              <g id="Grupo_179940" data-name="Grupo 179940">
                <g id="Grupo_179939" data-name="Grupo 179939" clip-path="url(#clip-path-20)">
                  <path id="Trazado_230475" data-name="Trazado 230475" d="M125.034,421.693l.774-2.344,27.726,9.081s1.135.947.72,1.82Z" transform="translate(-125.034 -419.349)" fill="#fff"/>
                </g>
              </g>
            </g>
            <path id="Trazado_230476" data-name="Trazado 230476" d="M154.237,415.286c-.046.142-.779,0-1.615.25-.843.231-1.386.743-1.5.648-.124-.066.339-.857,1.357-1.146s1.828.125,1.759.247" transform="translate(-71.268 -195.706)" fill="#263238"/>
            <path id="Trazado_230477" data-name="Trazado 230477" d="M159.872,419.57c-.008.148-.7.209-1.358.671-.675.442-.988,1.059-1.128,1.011-.141-.016,0-.881.839-1.439s1.684-.379,1.648-.242" transform="translate(-74.209 -197.825)" fill="#263238"/>
            <path id="Trazado_230478" data-name="Trazado 230478" d="M163.33,425.68c-.138-.007-.128-.778.467-1.452s1.353-.79,1.379-.654c.046.141-.51.434-.99.994s-.71,1.139-.856,1.112" transform="translate(-77.001 -199.756)" fill="#263238"/>
            <path id="Trazado_230479" data-name="Trazado 230479" d="M155.7,408.014c-.1.113-.695-.276-1.517-.458-.819-.2-1.526-.111-1.564-.255-.053-.127.715-.476,1.681-.249s1.5.87,1.4.962" transform="translate(-71.984 -191.952)" fill="#263238"/>
            <path id="Trazado_230480" data-name="Trazado 230480" d="M167.978,399.93l-.616,15.681s15.731,5.893,15.9,8.8l-30.447-.1-.042-24.472Z" transform="translate(-72.056 -188.585)" fill="#455a64"/>
            <path id="Trazado_230481" data-name="Trazado 230481" d="M161.78,427.09a1.243,1.243,0,0,0-.864,1.416,1.2,1.2,0,0,0,1.4.869,1.312,1.312,0,0,0,.908-1.5,1.24,1.24,0,0,0-1.552-.743" transform="translate(-75.885 -201.415)" fill="#e0e0e0"/>
            <g id="Grupo_179944" data-name="Grupo 179944" transform="translate(80.759 233.258)" opacity="0.6">
              <g id="Grupo_179943" data-name="Grupo 179943">
                <g id="Grupo_179942" data-name="Grupo 179942" clip-path="url(#clip-path-21)">
                  <path id="Trazado_230482" data-name="Trazado 230482" d="M152.853,443.954l.092-2.467,29.158,1.021s1.354.594,1.2,1.549Z" transform="translate(-152.853 -441.487)" fill="#fff"/>
                </g>
              </g>
            </g>
            <path id="Trazado_230483" data-name="Trazado 230483" d="M178.839,429.278c-.005.149-.749.213-1.482.689-.745.456-1.125,1.1-1.262,1.04-.137-.029.088-.917.985-1.477s1.791-.388,1.758-.252" transform="translate(-83.039 -202.405)" fill="#263238"/>
            <path id="Trazado_230484" data-name="Trazado 230484" d="M185.549,431.868c.034.144-.611.395-1.118,1.022-.525.612-.655,1.292-.8,1.285-.139.023-.24-.848.406-1.616s1.513-.832,1.516-.691" transform="translate(-86.56 -203.664)" fill="#263238"/>
            <path id="Trazado_230485" data-name="Trazado 230485" d="M190.607,436.881c-.135.031-.34-.712.045-1.525s1.081-1.134,1.143-1.01c.083.122-.369.558-.675,1.23-.321.665-.366,1.291-.514,1.305" transform="translate(-89.817 -204.849)" fill="#263238"/>
            <path id="Trazado_230486" data-name="Trazado 230486" d="M178.01,422.126c-.063.135-.744-.072-1.585-.018-.842.038-1.5.317-1.574.189-.086-.108.555-.656,1.546-.706s1.686.418,1.613.535" transform="translate(-82.466 -198.843)" fill="#263238"/>
            <path id="Trazado_230487" data-name="Trazado 230487" d="M90.082,254.68s36.493,9.486,41.023,15.8c3.828,5.339-16.264,59.9-16.264,59.9L98.99,329.017l6.833-45.641-40.886-13,6.177-15.7Z" transform="translate(-30.628 -120.121)" fill="#263238"/>
            <path id="Trazado_230488" data-name="Trazado 230488" d="M79.835,265.037s37.3,9.065,41.077,15.506c1.76,3.006.606,12.874-.051,17.533-.443,3.138-7.039,47.053-7.039,47.053H97.695l.352-49.6-38.761-7.814S38.479,289.3,37.67,280.425l8.683-11.769,20.5-10.132Z" transform="translate(-17.767 -121.934)" fill="#263238"/>
            <path id="Trazado_230489" data-name="Trazado 230489" d="M97.239,268.7s.185.043.541.141l1.583.441,6.083,1.7c2.642.741,5.875,1.642,9.61,2.754s7.971,2.449,12.561,4.188q3.448,1.289,7.122,2.935l1.85.838a18.181,18.181,0,0,1,1.817,1.01,11.931,11.931,0,0,1,1.694,1.277,6.138,6.138,0,0,1,1.358,1.7c1.258,5.717.5,11.965-.436,18.353-.408,3.218-.931,6.5-1.426,9.857s-1.013,6.785-1.535,10.274c-1.045,6.979-2.127,14.2-3.235,21.6q-.315,2.1-.627,4.181l-.017.117h-.118l-16.126,0H117.8v-.136c.146-18.8.277-35.824.383-49.6l.084.1-27.536-5.6-7.518-1.544-1.958-.41c-.441-.094-.666-.15-.666-.15s.229.035.673.119l1.963.381,7.529,1.489,27.554,5.508.085.017v.087c-.089,13.777-.2,30.8-.322,49.6l-.134-.136,16.126,0-.136.117q.311-2.079.626-4.18c1.11-7.4,2.192-14.625,3.239-21.6q.785-5.234,1.543-10.273c.5-3.357,1.022-6.639,1.434-9.854q.326-2.409.643-4.757a42.1,42.1,0,0,0,.407-4.643q.083-2.3,0-4.529c-.03-.743-.073-1.479-.137-2.207a5.426,5.426,0,0,0-.426-2.08,5.9,5.9,0,0,0-1.305-1.632,11.728,11.728,0,0,0-1.662-1.257,17.97,17.97,0,0,0-1.792-1l-1.842-.839q-3.661-1.646-7.1-2.947c-4.58-1.748-8.812-3.086-12.537-4.223s-6.958-2.042-9.594-2.8l-6.069-1.751-1.576-.468c-.354-.107-.534-.168-.534-.168" transform="translate(-38.012 -126.731)" fill="#455a64"/>
            <path id="Trazado_230490" data-name="Trazado 230490" d="M206.582,222.74c.237-.356,3.32-3.912,4.149-3.912a3.294,3.294,0,0,1,1.778.948,3.071,3.071,0,0,1,1.778-.237c.712.237,4.031,3.082,4.031,4.149v1.778a4.62,4.62,0,0,1,0,1.422c-.118.83-2.134,2.252-2.134,2.252H204.809s-2.174-1.465-1.9-2.845,3.675-3.556,3.675-3.556" transform="translate(-95.691 -103.211)" fill="#ffbe9d"/>
            <path id="Trazado_230491" data-name="Trazado 230491" d="M219.422,220.622a4.609,4.609,0,0,1,.71.4l1.881,1.186a5.767,5.767,0,0,1,.621.425,1.64,1.64,0,0,1,.46.71,3.451,3.451,0,0,1,.1.877q.023.441.047.906c.061,1.245.126,2.6.2,4.032q.015.327.029.647l.005.113-.109.027-.7.172-.017,0h-.018a1.479,1.479,0,0,1-.892-.336,2.474,2.474,0,0,1-.574-.689,6.034,6.034,0,0,1-.6-1.531,13.671,13.671,0,0,1-.392-2.734l.062.086-1.989-.785a4.379,4.379,0,0,1-.713-.321,4.321,4.321,0,0,1,.749.222l2.019.7.057.02,0,.066a14.449,14.449,0,0,0,.438,2.679,5.935,5.935,0,0,0,.585,1.459,1.564,1.564,0,0,0,1.246.887l-.035,0,.7-.174-.1.139c-.01-.213-.02-.43-.03-.647-.062-1.428-.12-2.789-.174-4.033q-.018-.464-.035-.906a3.354,3.354,0,0,0-.079-.819,1.429,1.429,0,0,0-.386-.622,6.084,6.084,0,0,0-.584-.419l-1.833-1.259a4.61,4.61,0,0,1-.651-.493" transform="translate(-102.604 -104.057)" fill="#eb996e"/>
            <path id="Trazado_230492" data-name="Trazado 230492" d="M206.528,233.763a3.756,3.756,0,0,1,.761-.1l2.073-.166h.014l.018,0c.674.156,1.468.311,2.342.424a13.49,13.49,0,0,0,1.367.108,1.523,1.523,0,0,0,1.251-.356,1.094,1.094,0,0,0,.2-.7c.006-.26-.037-.517-.045-.8a.977.977,0,0,0-.311-.582,2.383,2.383,0,0,0-.563-.423,4.3,4.3,0,0,0-2.439-.432,1.906,1.906,0,0,1-1.612-.646.859.859,0,0,1-.213-.609,1.922,1.922,0,0,0,.3.542,1.839,1.839,0,0,0,1.526.518,4.372,4.372,0,0,1,2.565.4,2.61,2.61,0,0,1,.628.461,1.205,1.205,0,0,1,.392.764c.007.244.053.519.049.805a1.355,1.355,0,0,1-.255.864,1.221,1.221,0,0,1-.715.407,3.132,3.132,0,0,1-.758.048,13.045,13.045,0,0,1-1.394-.124,20.593,20.593,0,0,1-2.361-.477l.032,0-2.079.074a3.756,3.756,0,0,1-.768-.014" transform="translate(-97.41 -108.238)" fill="#eb996e"/>
            <path id="Trazado_230493" data-name="Trazado 230493" d="M228.473,233.85a18.837,18.837,0,0,1,.916-2.063,9.276,9.276,0,0,1,1.049-2.007,9.562,9.562,0,0,1-.8,2.121,6.293,6.293,0,0,1-1.166,1.949" transform="translate(-107.758 -108.376)" fill="#eb996e"/>
            <path id="Trazado_230494" data-name="Trazado 230494" d="M180.809,207.56l41.045.544,13.216-37.058a1.554,1.554,0,1,0-2.91-1.092l-13.021,35.091-38.338.38a1.067,1.067,0,0,0,.007,2.135" transform="translate(-84.778 -79.682)" fill="#263238"/>
            <path id="Trazado_230495" data-name="Trazado 230495" d="M65.779,173.107s20.053,27.3,23.189,27.3h29.3v-11.1L96.108,184.08S85.2,161.5,82.784,158.608s-8.869-6.784-13.693-2.441-3.313,16.941-3.313,16.941" transform="translate(-30.919 -72.74)" fill="#ffd800"/>
            <path id="Trazado_230496" data-name="Trazado 230496" d="M165.278,213.049l4.8-.385s.1-1.781,1.153-2.41.943-1.991,1.571-1.886a2.729,2.729,0,0,0,1.048-.005l3.982-3.348,3.353-2.2,2.62-.524s1.572.419,0,1.886l-1.676.943-1.467,1.467,3.352-1.646a1.139,1.139,0,0,1,.99-.008,14.194,14.194,0,0,1,2.574,1.444.726.726,0,0,1,0,1.048l1.467,1.257s.314,1.676-1.362,1.257l-1.362-.314-1.782,1.782s6.078-1.257,6.5-1.048a1.2,1.2,0,0,1,0,1.991c-.943.838-4.61.629-5.448,1.467s-6.38,5.9-7.742,6.213-12.543,3.045-12.543,3.045Z" transform="translate(-77.954 -95.411)" fill="#ffbe9d"/>
            <path id="Trazado_230497" data-name="Trazado 230497" d="M205.063,212.541a7.1,7.1,0,0,1-.825-.584c-.251-.183-.551-.4-.889-.632-.169-.116-.349-.233-.536-.347a1.219,1.219,0,0,0-.562-.23,3.435,3.435,0,0,0-1.171.486c-.361.2-.681.381-.949.538a4.641,4.641,0,0,1-.887.488,3.146,3.146,0,0,1,.782-.651c.257-.18.571-.385.929-.595.18-.106.368-.212.571-.318a1.717,1.717,0,0,1,.715-.222.624.624,0,0,1,.219.026,1.7,1.7,0,0,1,.183.074c.11.055.212.115.31.175.194.123.375.247.542.37.336.246.626.482.864.687.478.406.737.708.7.737" transform="translate(-93.974 -99.27)" fill="#eb996e"/>
            <path id="Trazado_230498" data-name="Trazado 230498" d="M180.478,213.02c.047.064-.453.495-1.032,1.055s-1.058,1.026-1.117.971a3.577,3.577,0,0,1,.926-1.169,3.1,3.1,0,0,1,1.224-.857" transform="translate(-84.107 -100.469)" fill="#eb996e"/>
            <path id="Trazado_230499" data-name="Trazado 230499" d="M82.984,162.521a13.373,13.373,0,0,1,1.16,1.69c.694,1.146,1.669,2.854,2.845,5.071,2.361,4.429,5.612,10.845,9.421,18.661l-.077-.062,22.161,5.206.1.024v.107c0,3.571,0,7.294,0,11.1v.138h-1.468l-24.9-.011-2.833,0a2.256,2.256,0,0,1-.368-.016,1.356,1.356,0,0,1-.359-.12,4.029,4.029,0,0,1-.612-.367,11.9,11.9,0,0,1-1.067-.88,51.494,51.494,0,0,1-3.653-3.819c-2.248-2.559-4.243-5.026-6.048-7.287-3.6-4.533-6.417-8.276-8.353-10.87l-2.211-3-.566-.787c-.126-.179-.184-.274-.184-.274s.073.085.207.257l.588.771,2.252,2.968c1.962,2.573,4.8,6.3,8.419,10.813,1.814,2.253,3.816,4.71,6.067,7.258a51.47,51.47,0,0,0,3.645,3.79,11.654,11.654,0,0,0,1.047.859,3.8,3.8,0,0,0,.573.343,1.146,1.146,0,0,0,.625.113l2.833,0,24.9-.011h1.33l-.137.137c0-3.805,0-7.528,0-11.1l.1.132L96.282,188.1l-.053-.013-.024-.049c-3.786-7.824-7.007-14.254-9.332-18.7-1.158-2.225-2.114-3.942-2.787-5.1-.348-.571-.6-1.015-.81-1.29s-.291-.435-.291-.435" transform="translate(-31.119 -76.654)" fill="#263238"/>
            <path id="Trazado_230500" data-name="Trazado 230500" d="M81.676,158.17c-.018.048-.686-.223-1.809-.478a14.38,14.38,0,0,0-2-.3,14.185,14.185,0,0,0-4.895.462,14.468,14.468,0,0,0-1.9.67c-1.056.461-1.661.852-1.688.808a1.791,1.791,0,0,1,.4-.306,9.293,9.293,0,0,1,1.2-.679,12.546,12.546,0,0,1,1.915-.737,13.178,13.178,0,0,1,4.986-.471,12.533,12.533,0,0,1,2.02.366,9.318,9.318,0,0,1,1.309.442,1.8,1.8,0,0,1,.454.226" transform="translate(-32.726 -74.087)" fill="#263238"/>
            <path id="Trazado_230501" data-name="Trazado 230501" d="M115.749,216.167a10.094,10.094,0,0,1,3.676-4.611c.053.064-.957.927-1.968,2.2s-1.634,2.447-1.709,2.409" transform="translate(-54.591 -99.78)" fill="#263238"/>
            <path id="Trazado_230502" data-name="Trazado 230502" d="M114.475,212.506a5.8,5.8,0,0,1,4.085-1.462c.007.082-.968.186-2.092.594s-1.946.936-1.993.868" transform="translate(-53.992 -99.522)" fill="#263238"/>
            <path id="Trazado_230503" data-name="Trazado 230503" d="M88.949,314.184a3.7,3.7,0,0,0-2.384-1.572c-18.455-5.95-38.257-8.8-57.336-5.337a14.229,14.229,0,0,0-6.485,2.421c-1.822,1.457-2.919,4.075-1.944,6.193l3.917,1.254a249.76,249.76,0,0,1,58.762.416,7.569,7.569,0,0,0,3.915-.188c1.217-.519,2.13-2,1.555-3.188" transform="translate(-9.639 -144.22)" fill="#455a64"/>
            <path id="Trazado_230504" data-name="Trazado 230504" d="M68.286,308.294a.4.4,0,0,1-.124-.006l-.357-.046-1.367-.2c-1.186-.189-2.9-.463-5.032-.706a119.877,119.877,0,0,0-16.727-.8c-1.636.032-3.232.11-4.771.237s-3.02.2-4.442.331a3.009,3.009,0,0,1-.551-.011,2.751,2.751,0,0,0-.5-.023,6.149,6.149,0,0,0-.991.15l-1.914.4c-1.229.275-2.363.578-3.379.913a19.462,19.462,0,0,0-4.579,2.132c-.5.324-.878.6-1.124.8l-.285.218a.408.408,0,0,1-.1.067s.025-.033.085-.089l.269-.24a11.252,11.252,0,0,1,1.1-.843,18.581,18.581,0,0,1,4.576-2.227,34.8,34.8,0,0,1,3.39-.951l1.914-.413a6.367,6.367,0,0,1,1.03-.161,2.992,2.992,0,0,1,.542.021,2.727,2.727,0,0,0,.505.008c1.4-.135,2.9-.227,4.441-.347s3.141-.211,4.782-.243a111.41,111.41,0,0,1,16.758.88c2.132.268,3.845.572,5.026.794l1.36.256.352.073a.4.4,0,0,1,.118.034" transform="translate(-10.395 -144.433)" fill="#263238"/>
            <path id="Trazado_230505" data-name="Trazado 230505" d="M21.283,247.98l31.454,1.1a.783.783,0,0,1,.747.893L48.957,287.7h7.088L59.7,246.168a2.436,2.436,0,0,0-2.331-2.731l-36.936-1.325Z" transform="translate(-9.639 -114.193)" fill="#455a64"/>
          </g>
        </g>
        <path id="Trazado_230506" data-name="Trazado 230506" d="M329.131,248.015v1.093L339.985,352.84h5.063L334.06,248.015Z" transform="translate(-155.236 -116.977)" fill="#455a64"/>
        <path id="Trazado_230507" data-name="Trazado 230507" d="M121.013,248.015l-10.251,104.79h5.063L125.942,249.13v-1.115Z" transform="translate(-52.241 -116.977)" fill="#455a64"/>
        <g id="Grupo_179948" data-name="Grupo 179948">
          <g id="Grupo_179947" data-name="Grupo 179947" clip-path="url(#clip-path)">
            <path id="Trazado_230508" data-name="Trazado 230508" d="M120.878,247.979s-.012.188-.043.546-.081.891-.145,1.583c-.132,1.393-.325,3.438-.574,6.074l-2.146,22.362c-1.834,18.9-4.376,45.076-7.207,74.239l-.137-.151h5.062l-.137.124c4.8-48.705,8.864-89.961,10.213-103.665v0c0-.517,0-.824,0-1.116l.039.039L122.087,248l-.907-.009c-.2,0-.3-.008-.3-.008s.092,0,.289-.008l.9-.009,3.742-.022h.039v.039c0,.292,0,.6,0,1.116v0L115.826,352.783l-.012.124h-5.339l.015-.151c2.878-29.2,5.462-55.407,7.327-74.324.941-9.439,1.7-17.058,2.226-22.324.265-2.621.471-4.654.611-6.04q.107-1.025.163-1.563c.038-.351.062-.526.062-.526" transform="translate(-52.106 -116.942)" fill="#263238"/>
            <rect id="Rectángulo_57888" data-name="Rectángulo 57888" width="141.076" height="4.466" transform="translate(56.911 127.664)" fill="#455a64"/>
            <path id="Trazado_230509" data-name="Trazado 230509" d="M234.188,249.96c0,.076-28.118.137-62.8.137s-62.8-.061-62.8-.137,28.112-.137,62.8-.137,62.8.061,62.8.137" transform="translate(-51.217 -117.83)" fill="#263238"/>
          </g>
        </g>
      </g>
    </g>
    <g id="Grupo_947564" data-name="Grupo 947564" transform="translate(947.2 1023.009)">
      <circle id="Elipse_8345" data-name="Elipse 8345" cx="28.02" cy="28.02" r="28.02" transform="translate(236.472 138.338)" fill="#12263f"/>
      <circle id="Elipse_8346" data-name="Elipse 8346" cx="24.304" cy="24.304" r="24.304" transform="translate(235.184 184.313) rotate(-76.492)" fill="#a7b6d4"/>
      <circle id="Elipse_8347" data-name="Elipse 8347" cx="22.572" cy="22.572" r="22.572" transform="translate(241.92 143.786)" fill="#e3e9f9"/>
      <circle id="Elipse_8348" data-name="Elipse 8348" cx="17.185" cy="17.185" r="17.185" transform="translate(247.307 149.174)" fill="#fff"/>
      <g id="Grupo_947552" data-name="Grupo 947552" transform="translate(251.778 146.62)">
        <path id="Trazado_620934" data-name="Trazado 620934" d="M281.386,152.137v28.538l12.291-8.458Z" transform="translate(-268.674 -152.137)" fill="#af5e46"/>
        <path id="Trazado_620935" data-name="Trazado 620935" d="M281.386,176.3v13.21l12.291-8.458Z" transform="translate(-268.674 -160.974)" fill="#8f4d39"/>
        <path id="Trazado_620936" data-name="Trazado 620936" d="M274.3,152.137v28.538l-12.291-8.458Z" transform="translate(-261.588 -152.137)" fill="#f76846"/>
        <path id="Trazado_620937" data-name="Trazado 620937" d="M274.3,176.3v13.21l-12.291-8.458Z" transform="translate(-261.588 -160.974)" fill="#af5e46"/>
        <g id="Grupo_947551" data-name="Grupo 947551" transform="translate(0 22.007)">
          <path id="Trazado_620938" data-name="Trazado 620938" d="M281.386,204.3l12.755-17.47L281.386,195.9Z" transform="translate(-268.674 -186.831)" fill="#af5e46"/>
          <path id="Trazado_620939" data-name="Trazado 620939" d="M274.1,204.3l-12.755-17.47L274.1,195.9Z" transform="translate(-261.345 -186.831)" fill="#f76846"/>
        </g>
      </g>
    </g>
    <g id="Grupo_947565" data-name="Grupo 947565" transform="translate(986.225 980.688)">
      <g id="Grupo_947560" data-name="Grupo 947560" transform="translate(253.34 217.501)">
        <g id="Grupo_947558" data-name="Grupo 947558">
          <g id="Grupo_947554" data-name="Grupo 947554" transform="translate(30.763)">
            <rect id="Rectángulo_341848" data-name="Rectángulo 341848" width="1.024" height="11.437" transform="translate(1.134 9.835)" fill="#2947ab"/>
            <rect id="Rectángulo_341849" data-name="Rectángulo 341849" width="1.024" height="18.152" transform="translate(11.319 3.121)" fill="#2947ab"/>
            <rect id="Rectángulo_341850" data-name="Rectángulo 341850" width="1.024" height="11.437" transform="translate(21.505 9.835)" fill="#2947ab"/>
            <rect id="Rectángulo_341851" data-name="Rectángulo 341851" width="1.024" height="18.152" transform="translate(31.691 3.121)" fill="#2947ab"/>
            <path id="Trazado_620940" data-name="Trazado 620940" d="M355.982,219.146a1.645,1.645,0,1,1-1.645-1.645A1.646,1.646,0,0,1,355.982,219.146Z" transform="translate(-322.134 -217.501)" fill="#9faadd"/>
            <path id="Trazado_620941" data-name="Trazado 620941" d="M322.976,219.146a1.645,1.645,0,1,1-1.645-1.645A1.646,1.646,0,0,1,322.976,219.146Z" transform="translate(-309.499 -217.501)" fill="#9faadd"/>
            <path id="Trazado_620942" data-name="Trazado 620942" d="M306.474,231.312a1.646,1.646,0,1,1-1.646-1.645A1.646,1.646,0,0,1,306.474,231.312Z" transform="translate(-303.182 -222.158)" fill="#9faadd"/>
            <path id="Trazado_620943" data-name="Trazado 620943" d="M339.479,231.312a1.645,1.645,0,1,1-1.646-1.645A1.645,1.645,0,0,1,339.479,231.312Z" transform="translate(-315.816 -222.158)" fill="#9faadd"/>
          </g>
          <g id="Grupo_947555" data-name="Grupo 947555" transform="translate(30.763 56.097)">
            <rect id="Rectángulo_341852" data-name="Rectángulo 341852" width="1.024" height="11.437" transform="translate(31.691)" fill="#2947ab"/>
            <rect id="Rectángulo_341853" data-name="Rectángulo 341853" width="1.024" height="18.152" transform="translate(21.505)" fill="#2947ab"/>
            <rect id="Rectángulo_341854" data-name="Rectángulo 341854" width="1.024" height="11.437" transform="translate(11.319)" fill="#2947ab"/>
            <rect id="Rectángulo_341855" data-name="Rectángulo 341855" width="1.024" height="18.152" transform="translate(1.134)" fill="#2947ab"/>
            <path id="Trazado_620944" data-name="Trazado 620944" d="M303.182,339.169a1.646,1.646,0,1,1,1.646,1.645A1.646,1.646,0,0,1,303.182,339.169Z" transform="translate(-303.182 -319.543)" fill="#9faadd"/>
            <path id="Trazado_620945" data-name="Trazado 620945" d="M336.188,339.169a1.645,1.645,0,1,1,1.645,1.645A1.646,1.646,0,0,1,336.188,339.169Z" transform="translate(-315.816 -319.543)" fill="#9faadd"/>
            <path id="Trazado_620946" data-name="Trazado 620946" d="M352.691,327a1.645,1.645,0,1,1,1.645,1.646A1.645,1.645,0,0,1,352.691,327Z" transform="translate(-322.134 -314.886)" fill="#9faadd"/>
            <path id="Trazado_620947" data-name="Trazado 620947" d="M319.685,327a1.645,1.645,0,1,1,1.645,1.646A1.646,1.646,0,0,1,319.685,327Z" transform="translate(-309.499 -314.886)" fill="#9faadd"/>
          </g>
          <g id="Grupo_947556" data-name="Grupo 947556" transform="translate(71.496 21.761)">
            <rect id="Rectángulo_341856" data-name="Rectángulo 341856" width="14.104" height="1.024" transform="translate(0 1.134)" fill="#2947ab"/>
            <rect id="Rectángulo_341857" data-name="Rectángulo 341857" width="20.819" height="1.024" transform="translate(0 11.319)" fill="#2947ab"/>
            <rect id="Rectángulo_341858" data-name="Rectángulo 341858" width="14.104" height="1.024" transform="translate(0 21.505)" fill="#2947ab"/>
            <rect id="Rectángulo_341859" data-name="Rectángulo 341859" width="20.819" height="1.024" transform="translate(0 31.691)" fill="#2947ab"/>
            <path id="Trazado_620948" data-name="Trazado 620948" d="M404.277,305.558a1.645,1.645,0,1,1,1.646-1.645A1.645,1.645,0,0,1,404.277,305.558Z" transform="translate(-381.984 -271.71)" fill="#9faadd"/>
            <path id="Trazado_620949" data-name="Trazado 620949" d="M404.277,272.553a1.646,1.646,0,1,1,1.646-1.646A1.646,1.646,0,0,1,404.277,272.553Z" transform="translate(-381.984 -259.075)" fill="#9faadd"/>
            <path id="Trazado_620950" data-name="Trazado 620950" d="M392.111,256.05a1.646,1.646,0,1,1,1.646-1.645A1.646,1.646,0,0,1,392.111,256.05Z" transform="translate(-377.327 -252.758)" fill="#9faadd"/>
            <path id="Trazado_620951" data-name="Trazado 620951" d="M392.111,289.056a1.646,1.646,0,1,1,1.646-1.646A1.646,1.646,0,0,1,392.111,289.056Z" transform="translate(-377.327 -265.393)" fill="#9faadd"/>
          </g>
          <g id="Grupo_947557" data-name="Grupo 947557" transform="translate(0 21.761)">
            <rect id="Rectángulo_341860" data-name="Rectángulo 341860" width="14.104" height="1.024" transform="translate(9.835 31.691)" fill="#2947ab"/>
            <rect id="Rectángulo_341861" data-name="Rectángulo 341861" width="20.819" height="1.024" transform="translate(3.121 21.505)" fill="#2947ab"/>
            <rect id="Rectángulo_341862" data-name="Rectángulo 341862" width="14.104" height="1.024" transform="translate(9.835 11.319)" fill="#2947ab"/>
            <rect id="Rectángulo_341863" data-name="Rectángulo 341863" width="20.819" height="1.024" transform="translate(3.121 1.134)" fill="#2947ab"/>
            <path id="Trazado_620952" data-name="Trazado 620952" d="M254.986,252.758a1.646,1.646,0,1,1-1.646,1.646A1.646,1.646,0,0,1,254.986,252.758Z" transform="translate(-253.34 -252.758)" fill="#9faadd"/>
            <path id="Trazado_620953" data-name="Trazado 620953" d="M254.986,285.764a1.646,1.646,0,1,1-1.646,1.645A1.646,1.646,0,0,1,254.986,285.764Z" transform="translate(-253.34 -265.393)" fill="#9faadd"/>
            <path id="Trazado_620954" data-name="Trazado 620954" d="M267.151,302.267a1.645,1.645,0,1,1-1.645,1.645A1.646,1.646,0,0,1,267.151,302.267Z" transform="translate(-257.997 -271.71)" fill="#9faadd"/>
            <path id="Trazado_620955" data-name="Trazado 620955" d="M267.151,269.261a1.646,1.646,0,1,1-1.645,1.645A1.646,1.646,0,0,1,267.151,269.261Z" transform="translate(-257.997 -259.075)" fill="#9faadd"/>
          </g>
        </g>
        <g id="Grupo_947559" data-name="Grupo 947559" transform="translate(21.003 19.119)">
          <rect id="Rectángulo_341864" data-name="Rectángulo 341864" width="53.369" height="39.132" rx="3.507" fill="#12263f"/>
          <rect id="Rectángulo_341865" data-name="Rectángulo 341865" width="48.78" height="34.798" rx="4.458" transform="translate(2.294 2.167)" fill="#8792c9"/>
          <path id="Trazado_620956" data-name="Trazado 620956" d="M336.788,285.974H296.777a2.233,2.233,0,0,1-2.277-2.186V257.64a2.233,2.233,0,0,1,2.277-2.186h40.011a2.233,2.233,0,0,1,2.277,2.186v26.149A2.233,2.233,0,0,1,336.788,285.974Z" transform="translate(-290.098 -251.149)" fill="#fff"/>
          <path id="Trazado_620957" data-name="Trazado 620957" d="M336.172,285.435H299.589a2.166,2.166,0,0,1-2.221-2.1V259.858a2.166,2.166,0,0,1,2.221-2.1h36.584a2.166,2.166,0,0,1,2.221,2.1v23.476A2.166,2.166,0,0,1,336.172,285.435Zm-36.584-27.4a1.888,1.888,0,0,0-1.943,1.824v23.476a1.888,1.888,0,0,0,1.943,1.823h36.584a1.888,1.888,0,0,0,1.943-1.823V259.858a1.888,1.888,0,0,0-1.943-1.824Z" transform="translate(-291.196 -252.03)" fill="#2947ab"/>
        </g>
      </g>
      <text id="NFT" transform="translate(300.757 261.956)" fill="#ff5422" font-size="17" font-family="Montserrat-Bold, Montserrat" font-weight="700"><tspan x="-17.595" y="0">NFT</tspan></text>
    </g>
  </g>
</svg>
