<svg xmlns="http://www.w3.org/2000/svg" width="93" height="94" viewBox="0 0 93 94">
  <g id="Grupo_947615" data-name="Grupo 947615" transform="translate(0.275 -0.334)">
    <ellipse id="Elipse_4870" data-name="Elipse 4870" cx="46.5" cy="47" rx="46.5" ry="47" transform="translate(-0.275 0.334)" fill="#ff5422"/>
    <g id="WSoQz6.tif" transform="translate(-92.329 -2444.843)">
      <g id="Grupo_947620" data-name="Grupo 947620" transform="translate(106.383 2462.353)">
        <path id="Trazado_621075" data-name="Trazado 621075" d="M246.33,2570.091a4.23,4.23,0,1,1,4.322-4.2A4.256,4.256,0,0,1,246.33,2570.091Z" transform="translate(-219.355 -2544.956)" fill="#fcfdfe"/>
        <path id="Trazado_621076" data-name="Trazado 621076" d="M246.408,2676.3a4.232,4.232,0,1,1,4.245-4.2A4.257,4.257,0,0,1,246.408,2676.3Z" transform="translate(-219.355 -2633.323)" fill="#fcfdfe"/>
        <path id="Trazado_621077" data-name="Trazado 621077" d="M307.293,2570.089a4.23,4.23,0,1,1,4.3-4.216A4.26,4.26,0,0,1,307.293,2570.089Z" transform="translate(-270.06 -2544.954)" fill="#fcfdfe"/>
        <path id="Trazado_621078" data-name="Trazado 621078" d="M307.348,2667.836a4.232,4.232,0,1,1-4.247,4.186A4.25,4.25,0,0,1,307.348,2667.836Z" transform="translate(-270.06 -2633.323)" fill="#fcfdfe"/>
        <path id="Trazado_621079" data-name="Trazado 621079" d="M343.055,2619.9a4.219,4.219,0,1,1-4.259-4.219A4.188,4.188,0,0,1,343.055,2619.9Z" transform="translate(-296.282 -2589.925)" fill="#fdfdfe"/>
        <path id="Trazado_621080" data-name="Trazado 621080" d="M215.181,2624.12a4.22,4.22,0,1,1,4.229-4.17A4.187,4.187,0,0,1,215.181,2624.12Z" transform="translate(-193.406 -2589.927)" fill="#fdfdfe"/>
        <path id="Trazado_621081" data-name="Trazado 621081" d="M284.855,2519.908a2.642,2.642,0,0,1,2.63,2.6,2.637,2.637,0,1,1-5.274-.014A2.643,2.643,0,0,1,284.855,2519.908Z" transform="translate(-252.679 -2510.241)" fill="#fbfcfd"/>
        <path id="Trazado_621082" data-name="Trazado 621082" d="M191.8,2679.2a2.586,2.586,0,0,1,2.612-2.592,2.625,2.625,0,0,1,2.634,2.586,2.653,2.653,0,0,1-2.67,2.646A2.616,2.616,0,0,1,191.8,2679.2Z" transform="translate(-177.452 -2640.624)" fill="#fbfcfd"/>
        <path id="Trazado_621083" data-name="Trazado 621083" d="M194.394,2577.3a2.617,2.617,0,0,1,0-5.233,2.652,2.652,0,0,1,2.654,2.661A2.625,2.625,0,0,1,194.394,2577.3Z" transform="translate(-177.451 -2553.641)" fill="#fbfcfd"/>
        <path id="Trazado_621084" data-name="Trazado 621084" d="M284.82,2733.958a2.621,2.621,0,0,1,.011-5.242,2.672,2.672,0,0,1,2.652,2.676A2.642,2.642,0,0,1,284.82,2733.958Z" transform="translate(-252.677 -2683.978)" fill="#fbfcfd"/>
        <path id="Trazado_621085" data-name="Trazado 621085" d="M375.416,2676.612a2.583,2.583,0,0,1,2.621,2.581,2.612,2.612,0,0,1-2.648,2.652,2.617,2.617,0,0,1,.027-5.233Z" transform="translate(-328.046 -2640.624)" fill="#fcfcfd"/>
        <path id="Trazado_621086" data-name="Trazado 621086" d="M378.037,2574.7a2.583,2.583,0,0,1-2.6,2.607,2.616,2.616,0,1,1,2.6-2.607Z" transform="translate(-328.046 -2553.641)" fill="#fcfcfd"/>
        <path id="Trazado_621087" data-name="Trazado 621087" d="M220.158,2513.7a2.134,2.134,0,0,1-2.2-2.139,2.18,2.18,0,0,1,2.139-2.222,2.234,2.234,0,0,1,2.223,2.161A2.181,2.181,0,0,1,220.158,2513.7Z" transform="translate(-199.217 -2501.443)" fill="#fafbfd"/>
        <path id="Trazado_621088" data-name="Trazado 621088" d="M356.261,2746.661a2.186,2.186,0,0,1-2.13,2.234,2.236,2.236,0,0,1-2.232-2.152,2.173,2.173,0,0,1,2.149-2.209A2.137,2.137,0,0,1,356.261,2746.661Z" transform="translate(-310.661 -2697.137)" fill="#fbfbfd"/>
        <path id="Trazado_621089" data-name="Trazado 621089" d="M356.26,2511.519a2.138,2.138,0,0,1-2.164,2.179,2.177,2.177,0,0,1-2.2-2.162,2.234,2.234,0,0,1,2.184-2.2A2.181,2.181,0,0,1,356.26,2511.519Z" transform="translate(-310.66 -2501.445)" fill="#fafbfd"/>
        <path id="Trazado_621090" data-name="Trazado 621090" d="M152.185,2626a2.23,2.23,0,0,1,2.231,2.15,2.19,2.19,0,0,1-2.154,2.211,2.14,2.14,0,0,1-2.207-2.135A2.173,2.173,0,0,1,152.185,2626Z" transform="translate(-142.719 -2598.517)" fill="#fbfbfd"/>
        <path id="Trazado_621091" data-name="Trazado 621091" d="M424.169,2628.2a2.14,2.14,0,0,1-2.173,2.17,2.188,2.188,0,0,1-2.188-2.178,2.227,2.227,0,0,1,2.2-2.184A2.167,2.167,0,0,1,424.169,2628.2Z" transform="translate(-367.164 -2598.519)" fill="#fafbfd"/>
        <path id="Trazado_621092" data-name="Trazado 621092" d="M217.961,2746.728a2.128,2.128,0,0,1,2.143-2.2,2.176,2.176,0,0,1,2.219,2.142,2.238,2.238,0,0,1-2.167,2.219A2.178,2.178,0,0,1,217.961,2746.728Z" transform="translate(-199.22 -2697.137)" fill="#fbfbfd"/>
        <path id="Trazado_621093" data-name="Trazado 621093" d="M291.056,2464.069a1.733,1.733,0,1,1-1.789-1.715A1.737,1.737,0,0,1,291.056,2464.069Z" transform="translate(-257.154 -2462.353)" fill="#f9fafd"/>
        <path id="Trazado_621094" data-name="Trazado 621094" d="M291.059,2798.348a1.733,1.733,0,1,1-1.776-1.73A1.736,1.736,0,0,1,291.059,2798.348Z" transform="translate(-257.156 -2740.473)" fill="#f9fafd"/>
        <path id="Trazado_621095" data-name="Trazado 621095" d="M143.08,2547.668a1.7,1.7,0,0,1,1.849-1.629,1.723,1.723,0,0,1,1.622,1.787,1.769,1.769,0,0,1-1.821,1.7A1.75,1.75,0,0,1,143.08,2547.668Z" transform="translate(-136.915 -2531.98)" fill="#fafafd"/>
        <path id="Trazado_621096" data-name="Trazado 621096" d="M435.534,2547.758a1.745,1.745,0,0,1-1.74,1.764,1.771,1.771,0,0,1-1.734-1.786,1.724,1.724,0,0,1,1.713-1.7A1.694,1.694,0,0,1,435.534,2547.758Z" transform="translate(-377.358 -2531.981)" fill="#fafafd"/>
        <path id="Trazado_621097" data-name="Trazado 621097" d="M144.814,2716.531a1.7,1.7,0,0,1-1.733-1.751,1.742,1.742,0,0,1,1.685-1.735,1.771,1.771,0,0,1,1.791,1.729A1.73,1.73,0,0,1,144.814,2716.531Z" transform="translate(-136.917 -2670.937)" fill="#fafafd"/>
        <path id="Trazado_621098" data-name="Trazado 621098" d="M435.532,2714.837a1.7,1.7,0,0,1-1.787,1.7,1.729,1.729,0,0,1-1.687-1.729,1.769,1.769,0,0,1,1.762-1.757A1.742,1.742,0,0,1,435.532,2714.837Z" transform="translate(-377.357 -2670.94)" fill="#fafafd"/>
        <path id="Trazado_621099" data-name="Trazado 621099" d="M107.829,2634.133a1.465,1.465,0,0,1,.019-2.93,1.465,1.465,0,0,1-.019,2.93Z" transform="translate(-106.383 -2602.842)" fill="#f8f9fd"/>
        <path id="Trazado_621100" data-name="Trazado 621100" d="M472.193,2632.6a1.46,1.46,0,0,1,1.461-1.4,1.465,1.465,0,0,1-.04,2.93A1.46,1.46,0,0,1,472.193,2632.6Z" transform="translate(-410.75 -2602.834)" fill="#f8f9fd"/>
        <path id="Trazado_621101" data-name="Trazado 621101" d="M383.051,2472.883a1.423,1.423,0,0,1,1.461,1.4,1.441,1.441,0,1,1-2.881.041A1.421,1.421,0,0,1,383.051,2472.883Z" transform="translate(-335.4 -2471.115)" fill="#fafbfd"/>
        <path id="Trazado_621102" data-name="Trazado 621102" d="M384.511,2791.066a1.442,1.442,0,0,1-2.88.126,1.442,1.442,0,1,1,2.88-.126Z" transform="translate(-335.398 -2734.674)" fill="#fafbfd"/>
        <path id="Trazado_621103" data-name="Trazado 621103" d="M199.931,2474.309a1.44,1.44,0,1,1-2.88-.009,1.44,1.44,0,0,1,2.88.009Z" transform="translate(-181.823 -2471.11)" fill="#fafbfd"/>
        <path id="Trazado_621104" data-name="Trazado 621104" d="M198.531,2792.551a1.421,1.421,0,0,1-1.478-1.385,1.441,1.441,0,1,1,2.879-.08A1.42,1.42,0,0,1,198.531,2792.551Z" transform="translate(-181.823 -2734.672)" fill="#fafbfd"/>
      </g>
    </g>
  </g>
</svg>
