<svg xmlns="http://www.w3.org/2000/svg" width="93" height="94" viewBox="0 0 93 94">
  <g id="Grupo_947614" data-name="Grupo 947614" transform="translate(0.275 -0.334)">
    <ellipse id="Elipse_4870" data-name="Elipse 4870" cx="46.5" cy="47" rx="46.5" ry="47" transform="translate(-0.275 0.334)" fill="#ff5422"/>
    <path id="Trazado_621073" data-name="Trazado 621073" d="M218.5,730.454l-1.874,9.091H182.559l2.837-13.58-5.535,3.782c.09-.525.145-.863.205-1.2.337-1.867.648-3.74,1.036-5.6a1.9,1.9,0,0,1,.693-1.049q2.232-1.627,4.547-3.14a1.841,1.841,0,0,0,.852-1.272q2.651-12.767,5.328-25.528c.063-.3.147-.6.222-.9h10.6l-3.912,18.668,13.826-9.506c-.436,2.11-.915,4.023-1.2,5.964a3.866,3.866,0,0,1-1.926,2.849c-3.945,2.614-7.828,5.321-11.719,8.015a1.68,1.68,0,0,0-.683.882c-.9,4.12-1.754,8.25-2.65,12.516Z" transform="translate(-151.653 -671.202)" fill="#fff"/>
  </g>
</svg>
