<svg xmlns="http://www.w3.org/2000/svg" width="93" height="94" viewBox="0 0 93 94">
  <g id="Grupo_947617" data-name="Grupo 947617" transform="translate(0.275 -0.334)">
    <ellipse id="Elipse_4870" data-name="Elipse 4870" cx="46.5" cy="47" rx="46.5" ry="47" transform="translate(-0.275 0.334)" fill="#ff5422"/>
    <g id="Grupo_947621" data-name="Grupo 947621" transform="translate(-215.299 -4386.903)">
      <path id="Trazado_621106" data-name="Trazado 621106" d="M234.96,4411.205c2.317,0,4.592-.092,6.851.055a3.682,3.682,0,0,1,1.992,1.165c3.6,3.513,7.147,7.076,10.711,10.624,4.748,4.725,10.465,4.731,15.266-.008,3.42-3.377,6.866-6.731,10.2-10.193a4.707,4.707,0,0,1,4.061-1.678c1.726.137,3.472.03,5.65.03-.771.854-1.176,1.347-1.627,1.8-4.877,4.849-9.736,9.717-14.651,14.528-6.538,6.4-15.96,6.468-22.462.042C245.589,4422.266,240.4,4416.788,234.96,4411.205Z" transform="translate(-0.617)" fill="#fff"/>
      <path id="Trazado_621107" data-name="Trazado 621107" d="M233.846,4488.1c.858-.943,1.307-1.481,1.8-1.975q7.069-7.039,14.153-14.062c7.1-7.007,16.345-7.019,23.428-.03q7.1,7.008,14.154,14.061c.5.5.964,1.045,1.819,1.977-2.839,0-5.168.068-7.487-.05-.554-.028-1.146-.612-1.6-1.061-3.583-3.522-7.135-7.077-10.7-10.616-5.061-5.022-10.478-5.094-15.55-.158-3.441,3.35-6.888,6.7-10.206,10.17a5.122,5.122,0,0,1-4.483,1.772C237.588,4488,235.985,4488.1,233.846,4488.1Z" transform="translate(0 -30.833)" fill="#fff"/>
    </g>
  </g>
</svg>
