<svg xmlns="http://www.w3.org/2000/svg" xmlns:xlink="http://www.w3.org/1999/xlink" width="202.018" height="180.782" viewBox="0 0 202.018 180.782">
  <defs>
    <filter id="Rect치ngulo_341846" x="0" y="0" width="202.018" height="180.782" filterUnits="userSpaceOnUse">
      <feOffset dy="3" input="SourceAlpha"/>
      <feGaussianBlur stdDeviation="3" result="blur"/>
      <feFlood flood-opacity="0.161"/>
      <feComposite operator="in" in2="blur"/>
      <feComposite in="SourceGraphic"/>
    </filter>
  </defs>
  <g id="Grupo_948785" data-name="Grupo 948785" transform="translate(-909.007 -2331.66)">
    <g transform="matrix(1, 0, 0, 1, 909.01, 2331.66)" filter="url(#Rect치ngulo_341846)">
      <rect id="Rect치ngulo_341846-2" data-name="Rect치ngulo 341846" width="184.018" height="162.782" rx="10" transform="translate(9 6)" fill="#f6f6f6"/>
    </g>
    <g id="Grupo_947541" data-name="Grupo 947541" transform="translate(963.791 2357.326)">
      <ellipse id="Elipse_4870" data-name="Elipse 4870" cx="46.5" cy="47" rx="46.5" ry="47" transform="translate(-0.275 0.334)" fill="#ff5422"/>
      <g id="Z32Kze" transform="translate(-600.987 -2474.941)">
        <g id="Grupo_947547" data-name="Grupo 947547" transform="translate(618.857 2491.511)">
          <path id="Trazado_620919" data-name="Trazado 620919" d="M679.65,2491.511c-.014.553.477.76.779,1.073,1.82,1.889,3.651,3.767,5.513,5.615.465.461.462.742,0,1.2q-8.314,8.291-16.584,16.624c-.57.576-.854.368-1.3-.087-1.894-1.935-3.789-3.871-5.743-5.745-.634-.608-.505-.929.046-1.481q8.025-8.041,16-16.135c.3-.308.8-.506.784-1.065Z" transform="translate(-650.957 -2491.511)" fill="#fff"/>
          <path id="Trazado_620920" data-name="Trazado 620920" d="M618.857,2583.673c1.571-1.083,2.659-2.661,4.042-3.937,1.051-.97,2-2.7,3.1-2.789,1.139-.095,2.008,1.791,3.032,2.773,1.22,1.169,2.362,2.418,3.578,3.591.434.418.466.661.019,1.1-2.022,1.98-4.029,3.977-6,6.013-.556.575-.854.373-1.309-.085-2.14-2.152-4.309-4.276-6.467-6.411Z" transform="translate(-618.857 -2555.234)" fill="#fff"/>
          <path id="Trazado_620921" data-name="Trazado 620921" d="M738.924,2583.425c.015.553-.452.786-.766,1.1q-13.273,13.314-26.568,26.608c-.335.335-.567.888-1.2.788-2.044-2.078-4.067-4.177-6.146-6.219-.581-.571-.6-.889-.011-1.48q13.52-13.565,26.983-27.188c.635-.644.953-.488,1.486.066C734.752,2579.231,736.846,2581.32,738.924,2583.425Z" transform="translate(-682.214 -2554.989)" fill="#fff"/>
          <path id="Trazado_620922" data-name="Trazado 620922" d="M697.074,2541.613c-.278.3-.521.592-.786.858q-8.784,8.805-17.571,17.606c-3.078,3.084-6.166,6.158-9.22,9.266-.551.56-.883.687-1.5.041-1.867-1.96-3.787-3.871-5.737-5.748-.589-.567-.491-.874.033-1.4q13.525-13.575,27-27.195c.537-.543.834-.606,1.391-.017,1.889,2,3.84,3.935,5.765,5.9C696.657,2541.129,696.842,2541.353,697.074,2541.613Z" transform="translate(-650.932 -2523.657)" fill="#fff"/>
        </g>
      </g>
    </g>
    <path id="Trazado_622659" data-name="Trazado 622659" d="M65.035,14.07a1.626,1.626,0,0,0-.5-1.211,4.508,4.508,0,0,0-1.7-.891,5.447,5.447,0,0,1-2.426-1.324,2.921,2.921,0,0,1-.762-2.074,3,3,0,0,1,.746-2.1,3.17,3.17,0,0,1,2.051-.977V3.781h1.164V5.5a3.011,3.011,0,0,1,2.043,1.1,3.959,3.959,0,0,1,.73,2.523H64.941a2.721,2.721,0,0,0-.523-1.756A1.72,1.72,0,0,0,63,6.719a1.951,1.951,0,0,0-1.422.481,1.791,1.791,0,0,0-.492,1.342,1.636,1.636,0,0,0,.52,1.272,4.786,4.786,0,0,0,1.711.861,7.2,7.2,0,0,1,1.859.852,2.991,2.991,0,0,1,.984,1.082,3.128,3.128,0,0,1,.316,1.445,2.9,2.9,0,0,1-.793,2.125,3.516,3.516,0,0,1-2.223.953v1.492H62.309V17.133A3.369,3.369,0,0,1,60.031,16.1a3.493,3.493,0,0,1-.824-2.449h1.445a2.3,2.3,0,0,0,.57,1.672,2.153,2.153,0,0,0,1.617.586,2.426,2.426,0,0,0,1.609-.492A1.662,1.662,0,0,0,65.035,14.07ZM68.652,17V5.625h3.719a4.317,4.317,0,0,1,2.785.766,2.759,2.759,0,0,1,.934,2.266,2.31,2.31,0,0,1-.453,1.41,2.937,2.937,0,0,1-1.234.949,2.638,2.638,0,0,1,1.457.98,2.814,2.814,0,0,1,.535,1.723,3.042,3.042,0,0,1-.992,2.406A4.1,4.1,0,0,1,72.6,17Zm1.5-5.32v4.094h2.477a2.385,2.385,0,0,0,1.652-.543,1.907,1.907,0,0,0,.605-1.5q0-2.055-2.234-2.055Zm0-1.2h2.266a2.375,2.375,0,0,0,1.574-.493,1.654,1.654,0,0,0,.59-1.339,1.626,1.626,0,0,0-.547-1.366,2.686,2.686,0,0,0-1.664-.427H70.152ZM86.621,5.625v7.734a3.628,3.628,0,0,1-1.012,2.633,4.077,4.077,0,0,1-2.723,1.148l-.4.016a4.258,4.258,0,0,1-2.977-1.008,3.6,3.6,0,0,1-1.125-2.773V5.625h1.484v7.7a2.6,2.6,0,0,0,.68,1.918,3.111,3.111,0,0,0,3.887,0,2.6,2.6,0,0,0,.676-1.914V5.625Zm5.719,6.3a7.053,7.053,0,0,1-2.809-1.363,2.6,2.6,0,0,1-.879-2,2.751,2.751,0,0,1,1.074-2.223,4.269,4.269,0,0,1,2.793-.879,4.66,4.66,0,0,1,2.09.453,3.436,3.436,0,0,1,1.422,1.25,3.2,3.2,0,0,1,.5,1.742H95.027a2.08,2.08,0,0,0-.656-1.627A2.669,2.669,0,0,0,92.52,6.7a2.732,2.732,0,0,0-1.73.489,1.632,1.632,0,0,0-.621,1.358,1.468,1.468,0,0,0,.59,1.178,5.785,5.785,0,0,0,2.008.88,9.316,9.316,0,0,1,2.219.88A3.367,3.367,0,0,1,96.172,12.6a2.861,2.861,0,0,1,.387,1.508,2.658,2.658,0,0,1-1.078,2.215,4.6,4.6,0,0,1-2.883.832,5.347,5.347,0,0,1-2.187-.449,3.681,3.681,0,0,1-1.566-1.23,3,3,0,0,1-.551-1.773H89.8a1.959,1.959,0,0,0,.762,1.629,3.207,3.207,0,0,0,2.035.6,2.948,2.948,0,0,0,1.82-.484,1.573,1.573,0,0,0,.633-1.32,1.545,1.545,0,0,0-.586-1.293A6.755,6.755,0,0,0,92.34,11.93ZM98.48,17V5.625h3.211a5.169,5.169,0,0,1,2.625.656,4.438,4.438,0,0,1,1.762,1.867,6.078,6.078,0,0,1,.629,2.781v.727a6.1,6.1,0,0,1-.621,2.82,4.369,4.369,0,0,1-1.773,1.859,5.5,5.5,0,0,1-2.684.664Zm1.5-10.148v8.922h1.578a3.434,3.434,0,0,0,2.7-1.079,4.458,4.458,0,0,0,.965-3.073v-.665a4.529,4.529,0,0,0-.91-3.014,3.239,3.239,0,0,0-2.582-1.091Z" transform="translate(929.015 2460.66)" fill="#12263f"/>
    <path id="Trazado_622658" data-name="Trazado 622658" d="M11.66,15.189a6.789,6.789,0,0,1-1.294,4.443A4.471,4.471,0,0,1,6.719,21.2a4.5,4.5,0,0,1-3.672-1.572,6.779,6.779,0,0,1-1.3-4.434v-2.6A6.789,6.789,0,0,1,3.042,8.148,4.483,4.483,0,0,1,6.7,6.586a4.484,4.484,0,0,1,3.662,1.572,6.8,6.8,0,0,1,1.3,4.443ZM8.369,12.172a5.071,5.071,0,0,0-.4-2.29A1.338,1.338,0,0,0,6.7,9.125a1.307,1.307,0,0,0-1.235.7,4.777,4.777,0,0,0-.415,2.129V15.59a5.109,5.109,0,0,0,.4,2.329,1.343,1.343,0,0,0,1.27.737,1.325,1.325,0,0,0,1.24-.718,4.878,4.878,0,0,0,.41-2.251Zm13.691,3.271h1.445v2.539H22.061V21H18.77V17.982h-5.5l-.2-2.012,5.693-9.16V6.781h3.291Zm-5.85,0H18.77V11.068l-.205.332Z" transform="translate(929.015 2344.33)" fill="#12263f" opacity="0.134"/>
  </g>
</svg>
