<svg xmlns="http://www.w3.org/2000/svg" xmlns:xlink="http://www.w3.org/1999/xlink" width="202.018" height="180.782" viewBox="0 0 202.018 180.782">
  <defs>
    <filter id="Rect치ngulo_341844" x="0" y="0" width="202.018" height="180.782" filterUnits="userSpaceOnUse">
      <feOffset dy="3" input="SourceAlpha"/>
      <feGaussianBlur stdDeviation="3" result="blur"/>
      <feFlood flood-opacity="0.161"/>
      <feComposite operator="in" in2="blur"/>
      <feComposite in="SourceGraphic"/>
    </filter>
  </defs>
  <g id="Grupo_948784" data-name="Grupo 948784" transform="translate(-698.004 -2331.66)">
    <g transform="matrix(1, 0, 0, 1, 698, 2331.66)" filter="url(#Rect치ngulo_341844)">
      <rect id="Rect치ngulo_341844-2" data-name="Rect치ngulo 341844" width="184.018" height="162.782" rx="10" transform="translate(9 6)" fill="#f6f6f6"/>
    </g>
    <g id="Grupo_947539" data-name="Grupo 947539" transform="translate(752.789 2357.326)">
      <ellipse id="Elipse_4870" data-name="Elipse 4870" cx="46.5" cy="47" rx="46.5" ry="47" transform="translate(-0.275 0.334)" fill="#49acc5"/>
      <g id="_3hTitU" data-name="3hTitU" transform="translate(-622.312 -2446.758)">
        <g id="Grupo_947546" data-name="Grupo 947546" transform="translate(640.523 2464.431)">
          <path id="Trazado_620916" data-name="Trazado 620916" d="M705.837,2525.5c.491-1.609-.479-2.176-2.147-2.593a8.007,8.007,0,0,1-6.266-6.479c-.22-1.02.071-1.547,1.146-1.552a6.264,6.264,0,0,1,1.9.041c.541.176,1.28.629,1.393,1.092,1.131,4.621,7.692,4.829,10.324,2.6,1.786-1.516,2.393-5.59-1.06-6.736-1.8-.6-3.7-.874-5.554-1.295-.723-.164-1.458-.287-2.168-.5-3.834-1.126-5.494-3.168-5.54-6.77-.046-3.667,1.876-6.569,5.484-7.421,1.988-.469,2.395-1.359,2.293-3.135-.043-.739.3-1.992.775-2.164a6.976,6.976,0,0,1,3.092,0c.242.031.512.628.587,1a5,5,0,0,1,.02,1.587c-.2,1.544.253,2.309,1.961,2.723a7.024,7.024,0,0,1,5.138,5.365c.3,1.079-.052,1.578-1.208,1.65-1.623.1-2.779-.068-3.66-1.875-1.337-2.742-6.675-3.171-8.831-.977a3.644,3.644,0,0,0,1.416,6.08,64.478,64.478,0,0,0,6.515,1.377c.362.074.728.142,1.082.249,4.027,1.213,5.578,3.066,5.825,6.95a7.631,7.631,0,0,1-4.917,7.643c-2.268.832-3.519,1.755-3.111,4.4.28,1.818-1.262,1.666-2.51,1.682-1.229.017-2.135-.218-1.981-1.738C705.864,2526.4,705.837,2526.076,705.837,2525.5Z" transform="translate(-679.255 -2482.135)" fill="#fff"/>
          <path id="Trazado_620917" data-name="Trazado 620917" d="M774.873,2491.871a28.278,28.278,0,0,1-19.082,27c-1.755.616-1.953.389-2.132-1.4-.192-1.909.572-2.791,2.319-3.532a24.117,24.117,0,0,0-.054-44.146c-2.2-.932-2.727-1.984-2.208-4.358.279-1.274,1.092-1.036,1.951-.712,8.475,3.2,14.492,8.935,17.5,17.508,1.072,3.058,1.437,6.364,2.125,9.557Z" transform="translate(-717.54 -2464.45)" fill="#fff"/>
          <path id="Trazado_620918" data-name="Trazado 620918" d="M640.523,2491.7a28.554,28.554,0,0,1,19.267-26.975c1.669-.6,1.869-.365,2.064,1.339.225,1.973-.636,2.856-2.375,3.651a24.043,24.043,0,0,0-5.105,40.956,37.763,37.763,0,0,0,6.035,3.47c1.231.655,2.084,3.319,1.165,4.359a1.9,1.9,0,0,1-1.659.2,27.749,27.749,0,0,1-17.03-15.879,32.677,32.677,0,0,1-1.78-5.922A48.534,48.534,0,0,1,640.523,2491.7Z" transform="translate(-640.523 -2464.431)" fill="#fff"/>
        </g>
      </g>
    </g>
    <path id="Trazado_622657" data-name="Trazado 622657" d="M64.809,14.07a1.626,1.626,0,0,0-.5-1.211,4.508,4.508,0,0,0-1.7-.891,5.447,5.447,0,0,1-2.426-1.324,2.921,2.921,0,0,1-.762-2.074,3,3,0,0,1,.746-2.1,3.17,3.17,0,0,1,2.051-.977V3.781h1.164V5.5a3.011,3.011,0,0,1,2.043,1.1,3.959,3.959,0,0,1,.73,2.523H64.715a2.721,2.721,0,0,0-.523-1.756,1.72,1.72,0,0,0-1.414-.651,1.951,1.951,0,0,0-1.422.481,1.791,1.791,0,0,0-.492,1.342,1.636,1.636,0,0,0,.52,1.272,4.786,4.786,0,0,0,1.711.861,7.2,7.2,0,0,1,1.859.852,2.991,2.991,0,0,1,.984,1.082,3.128,3.128,0,0,1,.316,1.445,2.9,2.9,0,0,1-.793,2.125,3.516,3.516,0,0,1-2.223.953v1.492H62.082V17.133A3.369,3.369,0,0,1,59.8,16.1a3.493,3.493,0,0,1-.824-2.449h1.445A2.3,2.3,0,0,0,61,15.32a2.153,2.153,0,0,0,1.617.586,2.426,2.426,0,0,0,1.609-.492A1.662,1.662,0,0,0,64.809,14.07ZM76.434,5.625v7.734a3.628,3.628,0,0,1-1.012,2.633A4.077,4.077,0,0,1,72.7,17.141l-.4.016a4.258,4.258,0,0,1-2.977-1.008A3.6,3.6,0,0,1,68.2,13.375V5.625h1.484v7.7a2.6,2.6,0,0,0,.68,1.918,3.111,3.111,0,0,0,3.887,0,2.6,2.6,0,0,0,.676-1.914V5.625Zm5.719,6.3a7.053,7.053,0,0,1-2.809-1.363,2.6,2.6,0,0,1-.879-2,2.751,2.751,0,0,1,1.074-2.223,4.269,4.269,0,0,1,2.793-.879,4.66,4.66,0,0,1,2.09.453,3.436,3.436,0,0,1,1.422,1.25,3.2,3.2,0,0,1,.5,1.742H84.84a2.08,2.08,0,0,0-.656-1.627A2.669,2.669,0,0,0,82.332,6.7a2.732,2.732,0,0,0-1.73.489,1.632,1.632,0,0,0-.621,1.358,1.468,1.468,0,0,0,.59,1.178,5.785,5.785,0,0,0,2.008.88,9.316,9.316,0,0,1,2.219.88A3.367,3.367,0,0,1,85.984,12.6a2.861,2.861,0,0,1,.387,1.508,2.658,2.658,0,0,1-1.078,2.215,4.6,4.6,0,0,1-2.883.832,5.347,5.347,0,0,1-2.187-.449,3.681,3.681,0,0,1-1.566-1.23,3,3,0,0,1-.551-1.773h1.508a1.959,1.959,0,0,0,.762,1.629,3.207,3.207,0,0,0,2.035.6,2.948,2.948,0,0,0,1.82-.484,1.573,1.573,0,0,0,.633-1.32,1.545,1.545,0,0,0-.586-1.293A6.755,6.755,0,0,0,82.152,11.93ZM88.293,17V5.625H91.5a5.169,5.169,0,0,1,2.625.656,4.438,4.438,0,0,1,1.762,1.867,6.078,6.078,0,0,1,.629,2.781v.727a6.1,6.1,0,0,1-.621,2.82,4.369,4.369,0,0,1-1.773,1.859A5.5,5.5,0,0,1,91.441,17Zm1.5-10.148v8.922h1.578a3.434,3.434,0,0,0,2.7-1.079,4.458,4.458,0,0,0,.965-3.073v-.665a4.529,4.529,0,0,0-.91-3.014,3.239,3.239,0,0,0-2.582-1.091Zm17.359,6.539a4.185,4.185,0,0,1-1.332,2.785,4.365,4.365,0,0,1-2.98.98,4.008,4.008,0,0,1-3.23-1.445,5.815,5.815,0,0,1-1.215-3.867V10.75a6.481,6.481,0,0,1,.566-2.789,4.231,4.231,0,0,1,1.605-1.848,4.47,4.47,0,0,1,2.406-.645,4.11,4.11,0,0,1,2.906,1.012,4.235,4.235,0,0,1,1.273,2.8h-1.508a3.268,3.268,0,0,0-.848-1.975,2.565,2.565,0,0,0-1.824-.611,2.684,2.684,0,0,0-2.254,1.063,4.882,4.882,0,0,0-.816,3.026v1.1a5.018,5.018,0,0,0,.773,2.948,2.5,2.5,0,0,0,2.164,1.095,2.886,2.886,0,0,0,1.918-.566,3.143,3.143,0,0,0,.887-1.973Z" transform="translate(718.013 2460.66)" fill="#12263f"/>
    <path id="Trazado_622656" data-name="Trazado 622656" d="M11.66,15.189a6.789,6.789,0,0,1-1.294,4.443A4.471,4.471,0,0,1,6.719,21.2a4.5,4.5,0,0,1-3.672-1.572,6.779,6.779,0,0,1-1.3-4.434v-2.6A6.789,6.789,0,0,1,3.042,8.148,4.483,4.483,0,0,1,6.7,6.586a4.484,4.484,0,0,1,3.662,1.572,6.8,6.8,0,0,1,1.3,4.443ZM8.369,12.172a5.071,5.071,0,0,0-.4-2.29A1.338,1.338,0,0,0,6.7,9.125a1.307,1.307,0,0,0-1.235.7,4.777,4.777,0,0,0-.415,2.129V15.59a5.109,5.109,0,0,0,.4,2.329,1.343,1.343,0,0,0,1.27.737,1.325,1.325,0,0,0,1.24-.718,4.878,4.878,0,0,0,.41-2.251Zm8.008.342H17.93a1.614,1.614,0,0,0,1.846-1.807,1.562,1.562,0,0,0-.439-1.147,1.666,1.666,0,0,0-1.24-.444,1.784,1.784,0,0,0-1.138.381,1.162,1.162,0,0,0-.483.947H13.184a3.369,3.369,0,0,1,.625-2,4.127,4.127,0,0,1,1.733-1.372,5.926,5.926,0,0,1,2.437-.493,5.823,5.823,0,0,1,3.73,1.084,3.6,3.6,0,0,1,1.357,2.979,3,3,0,0,1-.562,1.733A4,4,0,0,1,20.869,13.7a3.823,3.823,0,0,1,1.777,1.245,3.279,3.279,0,0,1,.645,2.065,3.669,3.669,0,0,1-1.465,3.047A6.08,6.08,0,0,1,17.979,21.2a6.306,6.306,0,0,1-2.593-.532,4.062,4.062,0,0,1-1.812-1.475,3.834,3.834,0,0,1-.615-2.144H16.27a1.482,1.482,0,0,0,.527,1.133,1.862,1.862,0,0,0,1.3.479,1.95,1.95,0,0,0,1.387-.483A1.616,1.616,0,0,0,20,16.938a1.889,1.889,0,0,0-.537-1.523,2.245,2.245,0,0,0-1.484-.449h-1.6Z" transform="translate(718.013 2344.33)" fill="#12263f" opacity="0.134"/>
  </g>
</svg>
