<svg xmlns="http://www.w3.org/2000/svg" xmlns:xlink="http://www.w3.org/1999/xlink" width="202.018" height="180.782" viewBox="0 0 202.018 180.782">
  <defs>
    <filter id="Rect치ngulo_341847" x="0" y="0" width="202.018" height="180.782" filterUnits="userSpaceOnUse">
      <feOffset dy="3" input="SourceAlpha"/>
      <feGaussianBlur stdDeviation="3" result="blur"/>
      <feFlood flood-opacity="0.161"/>
      <feComposite operator="in" in2="blur"/>
      <feComposite in="SourceGraphic"/>
    </filter>
  </defs>
  <g id="Grupo_948786" data-name="Grupo 948786" transform="translate(-1117 -2331.66)">
    <g transform="matrix(1, 0, 0, 1, 1117, 2331.66)" filter="url(#Rect치ngulo_341847)">
      <rect id="Rect치ngulo_341847-2" data-name="Rect치ngulo 341847" width="184.018" height="162.782" rx="10" transform="translate(9 6)" fill="#f6f6f6"/>
    </g>
    <g id="Grupo_947542" data-name="Grupo 947542" transform="translate(1171.784 2357.326)">
      <ellipse id="Elipse_4870" data-name="Elipse 4870" cx="46.5" cy="47" rx="46.5" ry="47" transform="translate(-0.275 0.334)" fill="#49acc5"/>
      <g id="ZIWOJD" transform="translate(-603.187 -3144.407)">
        <g id="Grupo_947548" data-name="Grupo 947548" transform="translate(621.354 3162.274)">
          <path id="Trazado_620923" data-name="Trazado 620923" d="M651.817,3258.809c-2.012-.633-4.125-.848-6.13-1.531a29.822,29.822,0,0,1-16.022-12.661.674.674,0,0,1-.007-.638c.422.407.838.821,1.269,1.218.47.433.943.864,1.435,1.271a28.826,28.826,0,0,0,39.927-2.6c7.188-7.776,7.394-20.84.455-28.852-.585-.676-1.179-1.344-1.769-2.015q.079-.077.156-.157a23.32,23.32,0,0,1,10.667,11.73c.908,2.023,1.168,4.213,1.791,6.307v1.281c-.264.171-.265.342,0,.513v1.537c-.329.257-.335.513,0,.769v1.538c-.434.421-.379,1.01-.482,1.529a20.357,20.357,0,0,1-1.46,4.616c-3.716,8.029-10.258,12.624-18.5,15.1-1.523.457-3.109.705-4.667,1.05Z" transform="translate(-627.475 -3199.875)" fill="#fff"/>
          <path id="Trazado_620924" data-name="Trazado 620924" d="M633.813,3208.237a22.383,22.383,0,0,1-9.338-8.981,23.351,23.351,0,0,1-2.843-7.88c-.044-.241.014-.524-.279-.66v-6.15c.437-.42.376-1.01.482-1.528a20.338,20.338,0,0,1,1.465-4.615c3.949-8.417,10.809-13.129,19.6-15.394a20.087,20.087,0,0,0,3.564-.756h6.406a19.648,19.648,0,0,0,3.564.754,29.839,29.839,0,0,1,18.645,13.133,1.062,1.062,0,0,1,.293.954c-1-.9-1.926-1.784-2.9-2.6a29.011,29.011,0,0,0-38.888,1.594,22.26,22.26,0,0,0-.222,31.329c.206.211.388.448.581.672Q633.878,3208.171,633.813,3208.237Z" transform="translate(-621.354 -3162.274)" fill="#fff"/>
          <path id="Trazado_620925" data-name="Trazado 620925" d="M839.466,3296.942c-.335-.256-.329-.512,0-.769Z" transform="translate(-783.351 -3261.838)" fill="#fff"/>
          <path id="Trazado_620926" data-name="Trazado 620926" d="M839.615,3288.692c-.265-.171-.264-.342,0-.513Z" transform="translate(-783.499 -3255.894)" fill="#fff"/>
          <path id="Trazado_620927" data-name="Trazado 620927" d="M687.632,3246.629c0-3.285-.059-6.572.032-9.854.033-1.184-.358-1.415-1.441-1.38-2.472.078-4.95-.038-7.422.05-1.286.046-1.195-.441-.745-1.283a8.548,8.548,0,0,1,7.2-4.634c5.19-.462,10.4-.1,15.6-.194.512-.01,1.024,0,1.536,0,1.89,0,1.916.021,1.023,1.64a8.06,8.06,0,0,1-7.505,4.448c-1.872.005-1.872.019-1.872,1.919,0,4.181-.069,8.363.02,12.542.084,3.971-2.75,6.453-5.714,7.679-1,.413-.695-.424-.7-.82C687.623,3253.37,687.632,3250,687.632,3246.629Z" transform="translate(-663.292 -3212.104)" fill="#fff"/>
          <path id="Trazado_620928" data-name="Trazado 620928" d="M790.654,3212.77l-.119-.236.274.08C790.759,3212.666,790.707,3212.719,790.654,3212.77Z" transform="translate(-747.152 -3199.646)" fill="#fff"/>
          <path id="Trazado_620929" data-name="Trazado 620929" d="M670.076,3341.007l.128.216-.26-.086C669.987,3341.094,670.031,3341.05,670.076,3341.007Z" transform="translate(-657.484 -3295.175)" fill="#fff"/>
        </g>
      </g>
    </g>
    <path id="Trazado_622661" data-name="Trazado 622661" d="M65.242,14.07a1.626,1.626,0,0,0-.5-1.211,4.508,4.508,0,0,0-1.7-.891,5.447,5.447,0,0,1-2.426-1.324,2.921,2.921,0,0,1-.762-2.074,3,3,0,0,1,.746-2.1,3.17,3.17,0,0,1,2.051-.977V3.781h1.164V5.5a3.011,3.011,0,0,1,2.043,1.1,3.959,3.959,0,0,1,.73,2.523H65.148a2.721,2.721,0,0,0-.523-1.756,1.72,1.72,0,0,0-1.414-.651,1.951,1.951,0,0,0-1.422.481A1.791,1.791,0,0,0,61.3,8.542a1.636,1.636,0,0,0,.52,1.272,4.786,4.786,0,0,0,1.711.861,7.2,7.2,0,0,1,1.859.852,2.991,2.991,0,0,1,.984,1.082,3.128,3.128,0,0,1,.316,1.445,2.9,2.9,0,0,1-.793,2.125,3.516,3.516,0,0,1-2.223.953v1.492H62.516V17.133A3.369,3.369,0,0,1,60.238,16.1a3.493,3.493,0,0,1-.824-2.449h1.445a2.3,2.3,0,0,0,.57,1.672,2.153,2.153,0,0,0,1.617.586,2.426,2.426,0,0,0,1.609-.492A1.662,1.662,0,0,0,65.242,14.07ZM76.719,6.852H73.063V17H71.57V6.852H67.922V5.625h8.8Zm9.7-1.227v7.734A3.628,3.628,0,0,1,85.4,15.992a4.077,4.077,0,0,1-2.723,1.148l-.4.016A4.258,4.258,0,0,1,79.3,16.148a3.6,3.6,0,0,1-1.125-2.773V5.625h1.484v7.7a2.6,2.6,0,0,0,.68,1.918,3.111,3.111,0,0,0,3.887,0,2.6,2.6,0,0,0,.676-1.914V5.625Zm5.719,6.3a7.053,7.053,0,0,1-2.809-1.363,2.6,2.6,0,0,1-.879-2A2.751,2.751,0,0,1,89.52,6.348a4.269,4.269,0,0,1,2.793-.879,4.66,4.66,0,0,1,2.09.453,3.436,3.436,0,0,1,1.422,1.25,3.2,3.2,0,0,1,.5,1.742H94.82a2.08,2.08,0,0,0-.656-1.627A2.669,2.669,0,0,0,92.313,6.7a2.732,2.732,0,0,0-1.73.489,1.632,1.632,0,0,0-.621,1.358,1.468,1.468,0,0,0,.59,1.178,5.785,5.785,0,0,0,2.008.88,9.316,9.316,0,0,1,2.219.88A3.367,3.367,0,0,1,95.965,12.6a2.861,2.861,0,0,1,.387,1.508,2.658,2.658,0,0,1-1.078,2.215,4.6,4.6,0,0,1-2.883.832,5.347,5.347,0,0,1-2.187-.449,3.681,3.681,0,0,1-1.566-1.23,3,3,0,0,1-.551-1.773h1.508a1.959,1.959,0,0,0,.762,1.629,3.207,3.207,0,0,0,2.035.6,2.948,2.948,0,0,0,1.82-.484,1.573,1.573,0,0,0,.633-1.32,1.545,1.545,0,0,0-.586-1.293A6.755,6.755,0,0,0,92.133,11.93ZM98.273,17V5.625h3.211a5.169,5.169,0,0,1,2.625.656,4.438,4.438,0,0,1,1.762,1.867,6.078,6.078,0,0,1,.629,2.781v.727a6.1,6.1,0,0,1-.621,2.82,4.369,4.369,0,0,1-1.773,1.859,5.5,5.5,0,0,1-2.684.664Zm1.5-10.148v8.922h1.578a3.434,3.434,0,0,0,2.7-1.079,4.458,4.458,0,0,0,.965-3.073v-.665a4.529,4.529,0,0,0-.91-3.014,3.239,3.239,0,0,0-2.582-1.091Z" transform="translate(1137.008 2460.66)" fill="#12263f"/>
    <path id="Trazado_622660" data-name="Trazado 622660" d="M11.66,15.189a6.789,6.789,0,0,1-1.294,4.443A4.471,4.471,0,0,1,6.719,21.2a4.5,4.5,0,0,1-3.672-1.572,6.779,6.779,0,0,1-1.3-4.434v-2.6A6.789,6.789,0,0,1,3.042,8.148,4.483,4.483,0,0,1,6.7,6.586a4.484,4.484,0,0,1,3.662,1.572,6.8,6.8,0,0,1,1.3,4.443ZM8.369,12.172a5.071,5.071,0,0,0-.4-2.29A1.338,1.338,0,0,0,6.7,9.125a1.307,1.307,0,0,0-1.235.7,4.777,4.777,0,0,0-.415,2.129V15.59a5.109,5.109,0,0,0,.4,2.329,1.343,1.343,0,0,0,1.27.737,1.325,1.325,0,0,0,1.24-.718,4.878,4.878,0,0,0,.41-2.251Zm14.59-1.592a3.283,3.283,0,0,1-.513,1.826,3.734,3.734,0,0,1-1.411,1.27,4.109,4.109,0,0,1,1.611,1.362,3.515,3.515,0,0,1,.6,2.046,3.721,3.721,0,0,1-1.313,3.008,5.454,5.454,0,0,1-3.618,1.1,5.554,5.554,0,0,1-3.652-1.108,3.7,3.7,0,0,1-1.338-3,3.56,3.56,0,0,1,.586-2.021,3.984,3.984,0,0,1,1.66-1.387,3.755,3.755,0,0,1-1.426-1.27,3.26,3.26,0,0,1-.518-1.826,3.648,3.648,0,0,1,1.26-2.93,5.064,5.064,0,0,1,3.4-1.074A5.1,5.1,0,0,1,21.7,7.65,3.648,3.648,0,0,1,22.959,10.58Zm-3.018,6.24a1.877,1.877,0,0,0-.454-1.353,1.581,1.581,0,0,0-1.2-.474,1.6,1.6,0,0,0-1.2.474,1.865,1.865,0,0,0-.459,1.353,1.881,1.881,0,0,0,.464,1.343,1.592,1.592,0,0,0,1.216.493,1.53,1.53,0,0,0,1.182-.488A1.915,1.915,0,0,0,19.941,16.82Zm-1.66-7.705a1.216,1.216,0,0,0-1.011.435,1.886,1.886,0,0,0-.347,1.206,2,2,0,0,0,.352,1.23,1.213,1.213,0,0,0,1.035.469,1.163,1.163,0,0,0,1.011-.469,2.062,2.062,0,0,0,.337-1.23,1.89,1.89,0,0,0-.347-1.2A1.233,1.233,0,0,0,18.281,9.115Z" transform="translate(1137.008 2344.33)" fill="#12263f" opacity="0.05"/>
  </g>
</svg>
