<svg id="Grupo_947742" data-name="Grupo 947742" xmlns="http://www.w3.org/2000/svg" width="69.826" height="70.577" viewBox="0 0 69.826 70.577">
  <ellipse id="Elipse_4870" data-name="Elipse 4870" cx="34.913" cy="35.288" rx="34.913" ry="35.288" transform="translate(0 0)" fill="#ff5422"/>
  <g id="HFxP5I.tif" transform="translate(-781.113 660.392)">
    <g id="Grupo_947748" data-name="Grupo 947748" transform="translate(797.884 -647.198)">
      <path id="Trazado_621357" data-name="Trazado 621357" d="M842.355-608.305H819.029V-609.6h.5c1.795,0,3.59,0,5.384-.008a.77.77,0,0,0,.493-.184q2.234-2.2,4.441-4.434a.575.575,0,0,0,.186-.332c.017-.711.009-1.423.009-2.174H816.052c-.73,0-.908-.177-.908-.9q0-11.276,0-22.553v-.524h-.462c-.623,0-.832-.205-.833-.813q0-1.134,0-2.267c0-.591.212-.8.8-.8,1.673,0,3.347.007,5.02-.011a.833.833,0,0,0,.541-.243,7.121,7.121,0,0,1,10.556-.019.8.8,0,0,0,.663.279q7.57-.012,15.141-.006c.108,0,.216,0,.324,0a.613.613,0,0,1,.64.637q.017,1.3,0,2.591a.618.618,0,0,1-.665.654c-.2.008-.4,0-.6,0v10.352a7.138,7.138,0,0,1,1.026.059,2.041,2.041,0,0,1,1.542,1.5v.81a2.147,2.147,0,0,1-2.566,1.531v1.954c.576,0,1.127.019,1.675-.007a.91.91,0,0,1,.891.41v4.374a.916.916,0,0,1-.894.41c-.559-.026-1.12-.007-1.7-.007,0,.611,0,1.163,0,1.714,0,.692-.189.878-.89.878H831.339c0,.693-.017,1.338.011,1.982a.908.908,0,0,0,.227.553q2.156,2.191,4.348,4.348a.932.932,0,0,0,.589.238c1.793.018,3.587.011,5.38.011h.462Zm-13.573-24.658c.332.1.614.271.613.7,0,.851.005,1.7,0,2.552a.652.652,0,0,1-.611.677.66.66,0,0,0-.407.281c-.323.591-.62,1.2-.909,1.8a.773.773,0,0,1-.79.5c-.782-.017-1.566-.016-2.348,0a.754.754,0,0,1-.763-.478c-.3-.631-.617-1.258-.946-1.876a.5.5,0,0,0-.314-.233c-.5-.081-.678-.266-.68-.771,0-.729.019-1.459-.008-2.187-.019-.5.1-.879.613-.959.154-.532-.044-.794-.478-1.064a6.851,6.851,0,0,1-3.29-5.04c-.078-.539-.077-1.089-.111-1.618h-1.89v22.625h28.459v-1.272H830.23c-.622,0-.831-.2-.832-.815q0-1.742,0-3.483c0-.7.184-.883.885-.883h14.634v-1.947c-2.38,0-4.728,0-7.076,0a12.2,12.2,0,0,1-2.782-.063,12.973,12.973,0,0,1-2.545-1.211l-.037-.016a.687.687,0,0,1-.487-.63.7.7,0,0,1,.484-.674c.749-.369,1.489-.758,2.245-1.113a1.789,1.789,0,0,1,.731-.169c3.01-.011,6.02-.007,9.03-.007h.443v-10.344H832.662a.308.308,0,0,0-.024.063c0,.175,0,.351,0,.526a6.954,6.954,0,0,1-3.378,6.083C828.819-633.731,828.642-633.465,828.782-632.963Zm-1.328.017a5.246,5.246,0,0,0-.005-.721c-.093-.632.191-.954.749-1.25a5.59,5.59,0,0,0,3.124-5.032,5.79,5.79,0,0,0-6.542-5.876,5.807,5.807,0,0,0-4.907,7.2,5.66,5.66,0,0,0,3.1,3.788.887.887,0,0,1,.6.974c-.03.3-.006.608-.006.911h1.3c0-.879.015-1.74-.011-2.6a.966.966,0,0,0-.247-.586c-.7-.729-1.423-1.433-2.147-2.154l.964-.958,2.149,2.168,2.057-2.1.933.884c-.739.738-1.466,1.459-2.186,2.186-.089.09-.2.213-.207.322-.016.94-.009,1.88-.009,2.836Zm3.255,12.3h16.8v-2.543H846.23v1.253h-1.288v-1.246h-1.3v1.239h-1.3v-1.247h-1.289v1.254H839.76v-1.247h-1.3v1.24h-1.3v-1.248h-1.289v1.241h-1.3v-1.234h-1.289v1.241h-1.3v-1.249h-1.263Zm15.517-22.637H831.9a8.38,8.38,0,0,1,.334.882c.081.313.229.408.561.407,4.342-.014,8.685-.009,13.027-.009h.409Zm-9.035,14.238v1.3h9.363c.108,0,.217.006.324,0a.674.674,0,0,0,.656-.644.672.672,0,0,0-.651-.648c-.094-.009-.189,0-.283,0h-9.409Zm-14.258-1.322h5.135v-1.249h-5.135Zm-7.769-12.925V-642c1.113,0,2.2,0,3.288,0a.289.289,0,0,0,.226-.113c.154-.379.286-.766.431-1.17Zm12.077,33.663h2.784v-2.784Zm4.122-2.791v2.784h2.783Zm-4.336-16.606h-2.988c.311,1.139.488,1.28,1.587,1.28a5.419,5.419,0,0,0,.566-.006.371.371,0,0,0,.261-.128C826.654-628.242,826.828-628.617,827.028-629.025Zm7.167.631c.544.244.983.728,1.652.635v-1.276C835.173-629.109,834.737-628.641,834.2-628.394Z" transform="translate(-812.551 647.198)" fill="#262f43"/>
      <path id="Trazado_621358" data-name="Trazado 621358" d="M845.768-182.4v-1.267h1.3v1.267Z" transform="translate(-841.881 221.297)" fill="#262f43"/>
      <path id="Trazado_621359" data-name="Trazado 621359" d="M802.4-409.687v1.329a20.046,20.046,0,0,1-2.582-.14,2.44,2.44,0,0,1-1.929-2.39q-.011-6.069,0-12.138c0-.078.008-.156.013-.25h1.279v.471q0,5.766,0,11.531c0,1.091.491,1.586,1.573,1.587Z" transform="translate(-797.884 441.453)" fill="#262f43"/>
      <path id="Trazado_621360" data-name="Trazado 621360" d="M1065.834-646.706v1.244h-12.27v-1.244Z" transform="translate(-1032.809 646.746)" fill="#262f43"/>
      <path id="Trazado_621361" data-name="Trazado 621361" d="M799.512-453.868h-1.238v-1.245h1.238Z" transform="translate(-798.242 470.705)" fill="#262f43"/>
      <path id="Trazado_621362" data-name="Trazado 621362" d="M1101.431-254.351v-1.242h8.382v1.242Z" transform="translate(-1076.791 287.381)" fill="#262f43"/>
      <path id="Trazado_621363" data-name="Trazado 621363" d="M866.935-367.64q2.187,0,4.374,0c.566,0,.787.218.788.777q0,1.822,0,3.645c0,.533-.229.757-.767.758q-4.414,0-8.828,0c-.539,0-.766-.224-.767-.757q0-1.843,0-3.686c0-.509.232-.735.746-.736C863.966-367.642,865.451-367.64,866.935-367.64Zm-3.881,1.313v2.545h7.73v-2.545Z" transform="translate(-856.55 390.333)" fill="#262f43"/>
      <path id="Trazado_621364" data-name="Trazado 621364" d="M1069.526-509.839v-1.245h8.368v1.245Z" transform="translate(-1047.476 522.133)" fill="#262f43"/>
      <path id="Trazado_621365" data-name="Trazado 621365" d="M1069.406-477.792v-1.24h8.382v1.24Z" transform="translate(-1047.365 492.683)" fill="#262f43"/>
      <path id="Trazado_621366" data-name="Trazado 621366" d="M1101.453-541.771v-1.245h5.776v1.245Z" transform="translate(-1076.811 551.473)" fill="#262f43"/>
      <path id="Trazado_621367" data-name="Trazado 621367" d="M1069.673-543.078h1.237v1.257h-1.237Z" transform="translate(-1047.611 551.53)" fill="#262f43"/>
      <path id="Trazado_621368" data-name="Trazado 621368" d="M953.451-611.254l-1.236.208a3.353,3.353,0,0,0-1.322-2.086,3.309,3.309,0,0,0-2.424-.574l-.212-1.238A4.439,4.439,0,0,1,953.451-611.254Z" transform="translate(-936.051 617.646)" fill="#262f43"/>
    </g>
  </g>
</svg>
