<svg xmlns="http://www.w3.org/2000/svg" xmlns:xlink="http://www.w3.org/1999/xlink" width="632" height="151.598" viewBox="0 0 632 151.598">
  <defs>
    <clipPath id="clip-path">
      <rect id="Rectángulo_75224" data-name="Rectángulo 75224" width="114.489" height="114.489" fill="none"/>
    </clipPath>
    <clipPath id="clip-path-4">
      <path id="Trazado_228509" data-name="Trazado 228509" d="M114.489,57.245A57.244,57.244,0,1,1,57.244,0a57.245,57.245,0,0,1,57.245,57.245" fill="none"/>
    </clipPath>
    <radialGradient id="radial-gradient" cx="0.5" cy="0.5" r="0.5" gradientTransform="matrix(1, 0, 0, -1, 0, 2)" gradientUnits="objectBoundingBox">
      <stop offset="0" stop-color="#1b1464"/>
      <stop offset="0.106" stop-color="#1b1464"/>
      <stop offset="0.243" stop-color="#534d8a"/>
      <stop offset="0.386" stop-color="#8683ad"/>
      <stop offset="0.527" stop-color="#b1afca"/>
      <stop offset="0.662" stop-color="#d3d2e1"/>
      <stop offset="0.789" stop-color="#ebeaf1"/>
      <stop offset="0.905" stop-color="#f9f9fb"/>
      <stop offset="1" stop-color="#fff"/>
    </radialGradient>
    <radialGradient id="radial-gradient-2" xlink:href="#radial-gradient"/>
    <clipPath id="clip-path-13">
      <rect id="Rectángulo_66713" data-name="Rectángulo 66713" width="13.655" height="15.443" fill="none"/>
    </clipPath>
  </defs>
  <g id="Grupo_234516" data-name="Grupo 234516" transform="translate(-541 -2957.484)">
    <rect id="Rectángulo_4912" data-name="Rectángulo 4912" width="632" height="100.767" rx="19" transform="translate(541 3008.315)" fill="#d4e0f7"/>
    <g id="Grupo_234485" data-name="Grupo 234485" transform="translate(1023 2957.484)">
      <g id="Grupo_234484" data-name="Grupo 234484" clip-path="url(#clip-path)">
        <g id="Grupo_234483" data-name="Grupo 234483">
          <g id="Grupo_234482" data-name="Grupo 234482" clip-path="url(#clip-path)">
            <g id="Grupo_234481" data-name="Grupo 234481" opacity="0.5" style="mix-blend-mode: multiply;isolation: isolate">
              <g id="Grupo_234480" data-name="Grupo 234480">
                <g id="Grupo_234479" data-name="Grupo 234479" clip-path="url(#clip-path)">
                  <g id="Grupo_234478" data-name="Grupo 234478">
                    <g id="Grupo_234477" data-name="Grupo 234477" clip-path="url(#clip-path-4)">
                      <rect id="Rectángulo_75221" data-name="Rectángulo 75221" width="114.489" height="114.489" transform="translate(0)" fill="url(#radial-gradient)"/>
                    </g>
                  </g>
                </g>
              </g>
            </g>
            <path id="Trazado_228510" data-name="Trazado 228510" d="M79.106,40.918A36.821,36.821,0,1,1,42.285,4.1,36.821,36.821,0,0,1,79.106,40.918" fill="#23292f"/>
            <g id="AFbIpX.tif" transform="translate(-65.639 -836.886)">
              <g id="Grupo_947633" data-name="Grupo 947633" transform="translate(91.399 857.38)">
                <path id="Trazado_621116" data-name="Trazado 621116" d="M98.658,857.38h19.669c.015.02.025.05.045.058a2.052,2.052,0,0,1,1.515,2.258q0,5.6,0,11.2v.481a5.886,5.886,0,0,1,3.948-1.5c.809-.022,1.047.223,1.047,1.031q0,12.236,0,24.471c0,.1.005.209,0,.312a.778.778,0,0,1-1.552.01c-.01-.129,0-.26,0-.39q0-11.65,0-23.3v-.523a3.588,3.588,0,0,0-2.975,1.935,5.273,5.273,0,0,0-.461,2.388c0,1.925-.016,3.851.009,5.776a1.252,1.252,0,0,1-.577,1.145c-.846.6-1.657,1.258-2.5,1.862a4.423,4.423,0,0,0-1.93,3.872c.018,2.355.006,4.71,0,7.064a.772.772,0,0,1-.846.884q-7.491,0-14.982,0a2,2,0,0,1-1.962-1.973c-.006-.429-.027-.861.006-1.287a1.062,1.062,0,0,0-.385-.91c-1.035-1.007-2.063-2.021-3.063-3.062a3.279,3.279,0,0,1,1.323-5.37c.187-.064.381-.107.664-.185-.493-.474-.949-.879-1.368-1.321a3.276,3.276,0,0,1,1.486-5.41l.491-.138c-.7-.686-1.367-1.3-1.991-1.964a3.278,3.278,0,0,1,1.046-5.231l.4-.184c-.9-.9-1.75-1.774-2.633-2.619a5.108,5.108,0,0,1-1.68-2.509v-1.093a.934.934,0,0,0,.079-.168,3.279,3.279,0,0,1,5.411-1.712c.052.045.114.079.21.144,0-.716-.01-1.378,0-2.04a1.986,1.986,0,0,1,1.184-1.824C98.407,857.495,98.533,857.439,98.658,857.38Zm14.675,31.234c0-.166,0-.281,0-.4a5.713,5.713,0,0,1,2.357-4.737c.773-.595,1.552-1.182,2.342-1.753a.661.661,0,0,0,.3-.612q-.012-8.686-.006-17.372v-.4H98.657c0,2.153,0,4.274,0,6.4a.4.4,0,0,0,.061.254c.509.512,1.029,1.014,1.581,1.552.065-.2.114-.344.16-.489a8.275,8.275,0,1,1,6.061,10.642,8.38,8.38,0,0,1-4.368-2.562.49.49,0,0,0-.4-.148c-.366.1-.716.262-1.092.407.081.088.164.183.254.273.541.544,1.094,1.078,1.625,1.632a3.275,3.275,0,0,1-1.5,5.451c-.127.035-.253.073-.485.139.533.507,1.031.93,1.462,1.413a.855.855,0,0,0,.725.317q5.054-.014,10.108-.006Zm1.717-14.993a6.719,6.719,0,0,0-13.275-1.455,1.049,1.049,0,0,0,.383,1.254,2.552,2.552,0,0,1,.36.355,3.245,3.245,0,0,1,.651,3.672.426.426,0,0,0,.075.542,6.608,6.608,0,0,0,5.076,2.339A6.716,6.716,0,0,0,115.05,873.621Zm3.278-11.882c0-.692,0-1.352,0-2.012s-.124-.787-.8-.787H99.462c-.117,0-.258-.038-.346.013-.165.1-.418.241-.425.377-.04.8-.02,1.6-.02,2.408Zm-15.47,28.45A3.358,3.358,0,0,1,101.632,893a3.314,3.314,0,0,1-2.975.63c0,.118,0,.2,0,.272-.009.88.064.955.94.955H113.3v-4.67Zm-6.068-19.33a1.688,1.688,0,0,0-1.7,1.016,1.661,1.661,0,0,0,.372,1.9c1.151,1.163,2.3,2.325,3.472,3.472a1.706,1.706,0,1,0,2.413-2.41c-1.155-1.178-2.329-2.337-3.5-3.5A1.524,1.524,0,0,0,96.791,870.859Zm-.027,7.5a1.677,1.677,0,0,0-1.658.992,1.626,1.626,0,0,0,.317,1.877q1.757,1.8,3.553,3.556a1.7,1.7,0,1,0,2.394-2.423c-1.162-1.189-2.347-2.356-3.524-3.53A1.518,1.518,0,0,0,96.764,878.354ZM94.33,886.9l-.1.051a4.03,4.03,0,0,0,.531,1.081c1.19,1.251,2.413,2.473,3.655,3.673a1.7,1.7,0,0,0,2.4-2.4c-1.2-1.244-2.424-2.462-3.663-3.666a1.58,1.58,0,0,0-1.815-.276A1.613,1.613,0,0,0,94.33,886.9Zm2.777-18.551c-.039.064-.016.044-.016.024,0-1.5.007-2.993,0-4.489a.485.485,0,0,0-.128-.3c-.389-.4-.775-.809-1.193-1.179a1.671,1.671,0,0,0-2.241.053,1.556,1.556,0,0,0-.255,2.179C94.5,865.93,95.835,867.129,97.108,868.351Z" transform="translate(-91.399 -857.38)" fill="#fff"/>
                <path id="Trazado_621117" data-name="Trazado 621117" d="M267.56,1001.68a7.639,7.639,0,0,1-1.1-.129,1.976,1.976,0,0,1-1.436-1.916.823.823,0,0,1,.76-.875.767.767,0,0,1,.807.77c.034.383.207.561.6.554.559-.011,1.119,0,1.678,0a1.135,1.135,0,1,0,0-2.265,11.548,11.548,0,0,1-1.673-.048,2.617,2.617,0,0,1-2.178-2.8,2.659,2.659,0,0,1,2.411-2.453l.022,0a7.248,7.248,0,0,1,.448-1.072c.073-.121.347-.168.528-.167.5,0,.666.3.75,1.239.159,0,.323,0,.487,0a1.974,1.974,0,0,1,1.929,1.954.772.772,0,0,1-.714.858.752.752,0,0,1-.846-.724c-.032-.411-.24-.536-.608-.532-.546.006-1.092,0-1.639,0a1.1,1.1,0,1,0-.016,2.187,12.518,12.518,0,0,1,1.635.04,2.692,2.692,0,0,1,.126,5.285c-.114.027-.228.052-.343.078-.168,1-.331,1.242-.84,1.231S267.652,1002.607,267.56,1001.68Z" transform="translate(-251.428 -980.794)" fill="#fff"/>
                <path id="Trazado_621118" data-name="Trazado 621118" d="M277.789,1298.057c-.636,0-1.271,0-1.907,0a.781.781,0,1,1,0-1.556q1.926-.006,3.852,0a.779.779,0,1,1,0,1.555C279.086,1298.062,278.437,1298.057,277.789,1298.057Z" transform="translate(-260.662 -1262.143)" fill="#fff"/>
              </g>
            </g>
          </g>
        </g>
      </g>
    </g>
    <g id="Grupo_234506" data-name="Grupo 234506" transform="translate(813.511 2957.484)">
      <g id="Grupo_234505" data-name="Grupo 234505" clip-path="url(#clip-path)">
        <g id="Grupo_234504" data-name="Grupo 234504">
          <g id="Grupo_234503" data-name="Grupo 234503" clip-path="url(#clip-path)">
            <g id="Grupo_234490" data-name="Grupo 234490" opacity="0.5" style="mix-blend-mode: multiply;isolation: isolate">
              <g id="Grupo_234489" data-name="Grupo 234489">
                <g id="Grupo_234488" data-name="Grupo 234488" clip-path="url(#clip-path)">
                  <g id="Grupo_234487" data-name="Grupo 234487">
                    <g id="Grupo_234486" data-name="Grupo 234486" clip-path="url(#clip-path-4)">
                      <rect id="Rectángulo_75225" data-name="Rectángulo 75225" width="114.489" height="114.489" transform="translate(0 0)" fill="url(#radial-gradient-2)"/>
                    </g>
                  </g>
                </g>
              </g>
            </g>
            <path id="Trazado_228514" data-name="Trazado 228514" d="M43.483,4.1A36.821,36.821,0,1,1,6.662,40.918,36.821,36.821,0,0,1,43.483,4.1" fill="#1565c0" fill-rule="evenodd"/>
            <g id="We6zsJ.tif" transform="translate(251.366 -766.554)">
              <g id="Grupo_947632" data-name="Grupo 947632" transform="translate(-229.848 784.652)">
                <path id="Trazado_621111" data-name="Trazado 621111" d="M-229.848,787.793a7.318,7.318,0,0,1,.571-.765c.655-.681,1.33-1.343,2-2.008a.886.886,0,0,1,1.284-.167c1.922,1.149,3.839,2.307,5.762,3.453a.991.991,0,0,1,.531.936c-.009.536-.016,1.072.006,1.607a.777.777,0,0,0,.181.48q5.037,5.075,10.092,10.131a.86.86,0,0,0,.124.082c.1-.094.2-.187.3-.285q2.813-2.811,5.629-5.619a.649.649,0,0,0,.2-.7,8.467,8.467,0,0,1,7.166-10.2,8.246,8.246,0,0,1,3.673.312.869.869,0,0,1,.4,1.558q-1.52,1.561-3.064,3.1a1.122,1.122,0,0,0-.318.736,2.173,2.173,0,0,0,.9,2.2.756.756,0,0,1,.177.181,1.913,1.913,0,0,0,1.954.834,1.312,1.312,0,0,0,.914-.4c.966-1.007,1.958-1.991,2.941-2.982.716-.721,1.405-.555,1.672.437a5.568,5.568,0,0,1,.217,1.491,11.714,11.714,0,0,1-.188,3.317,8.5,8.5,0,0,1-9.982,5.9.512.512,0,0,0-.567.109c-1.543,1.568-3.1,3.118-4.659,4.674-.039.039-.071.085-.132.16l1.313,1.217a3.953,3.953,0,0,1,.417-.592.846.846,0,0,1,1.211-.012.849.849,0,0,1,.012,1.183c-.136.161-.289.306-.464.49.836.769,1.661,1.529,2.488,2.288q4.5,4.133,9.011,8.263a4.535,4.535,0,0,1,1.4,2.172,6.008,6.008,0,0,1,.145,1.5A4.764,4.764,0,0,1-190.648,828c-.036.008-.066.046-.1.069h-1.439a6.22,6.22,0,0,1-3.353-1.96c-3.327-3.663-6.693-7.29-10.045-10.93-.081-.088-.173-.166-.32-.306a4.609,4.609,0,0,1-.4.484.829.829,0,0,1-1.211.005.842.842,0,0,1,.019-1.211,6.24,6.24,0,0,1,.544-.459l-1.158-1.264a.792.792,0,0,0-.118.078c-1.566,1.565-3.134,3.127-4.688,4.7a.66.66,0,0,0-.125.475c.04.4.153.8.189,1.207a8.517,8.517,0,0,1-5.763,8.739c-.569.188-1.165.294-1.748.437h-1.862c-.506-.115-1.016-.213-1.516-.35-.971-.264-1.154-.975-.443-1.68,1.031-1.023,2.072-2.037,3.089-3.074a1.225,1.225,0,0,0,.272-.615,2.074,2.074,0,0,0-.915-2.256.719.719,0,0,1-.179-.179,1.946,1.946,0,0,0-2-.837,1.286,1.286,0,0,0-.882.367c-1.005,1.048-2.033,2.075-3.063,3.1a.861.861,0,0,1-1.541-.371,2.948,2.948,0,0,1-.1-.366c-.114-.592-.224-1.184-.335-1.777v-.846c.07-.442.117-.889.212-1.326a8.465,8.465,0,0,1,10.173-6.539.555.555,0,0,0,.587-.173q2.8-2.824,5.622-5.626a2.911,2.911,0,0,1,.357-.266,1.53,1.53,0,0,0-.1-.149q-5.079-5.092-10.165-10.177a.713.713,0,0,0-.443-.174c-.563-.021-1.128-.013-1.692-.007a.889.889,0,0,1-.835-.47q-1.855-3.118-3.718-6.232Zm7.837,38.535c.186.02.3.038.4.042a6.776,6.776,0,0,0,6.786-8.654,1.267,1.267,0,0,1,.376-1.424q8.15-8.122,16.273-16.273a1.3,1.3,0,0,1,1.435-.379,6.759,6.759,0,0,0,8.406-4.707,6.392,6.392,0,0,0,.19-2.458c-.866.852-1.7,1.656-2.509,2.477a1.191,1.191,0,0,1-.936.39q-1.015-.026-2.031,0a1.162,1.162,0,0,1-.935-.392c-.7-.74-1.423-1.449-2.1-2.206a1.478,1.478,0,0,1-.336-.823c-.049-.659,0-1.324-.02-1.987a1.292,1.292,0,0,1,.412-1.017c.714-.7,1.407-1.424,2.107-2.14.1-.1.19-.213.33-.372-.187-.022-.281-.038-.376-.043a6.778,6.778,0,0,0-6.834,8.679,1.208,1.208,0,0,1-.345,1.357q-8.178,8.154-16.332,16.333a1.256,1.256,0,0,1-1.4.359,6.775,6.775,0,0,0-7.914,3.391,6.552,6.552,0,0,0-.692,3.8c.148-.139.25-.23.346-.326.737-.739,1.457-1.5,2.219-2.207a1.412,1.412,0,0,1,.812-.34,16.454,16.454,0,0,1,2.156,0,1.419,1.419,0,0,1,.815.338c.765.709,1.508,1.445,2.212,2.213a1.622,1.622,0,0,1,.365.895c.056.6,0,1.212.023,1.817a1.5,1.5,0,0,1-.506,1.235C-220.409,824.676-221.175,825.481-222.011,826.328Zm21.283-16.4-3.82,3.813a.3.3,0,0,0,.046.075q5.3,5.754,10.605,11.5a3.107,3.107,0,0,0,2.627,1.024,3.2,3.2,0,0,0,2.964-2.27,3.24,3.24,0,0,0-.973-3.642q-4.406-4.049-8.815-8.094C-198.985,811.519-199.879,810.7-200.729,809.929Zm-9.8-7.154c-.122-.128-.217-.23-.315-.329q-5.064-5.072-10.133-10.138a1.3,1.3,0,0,1-.432-1.047c.023-.464.018-.93,0-1.395a.519.519,0,0,0-.183-.373c-1.6-.975-3.2-1.933-4.851-2.924-.4.411-.779.825-1.186,1.212a.382.382,0,0,0-.075.571c.678,1.1,1.336,2.217,2,3.327.268.446.441,1.067.836,1.287a3.311,3.311,0,0,0,1.575.077,1.507,1.507,0,0,1,1.193.5q4.6,4.637,9.223,9.254c.386.387.757.79,1.132,1.183Z" transform="translate(229.848 -784.652)" fill="#fff"/>
                <path id="Trazado_621112" data-name="Trazado 621112" d="M-44.31,980.668c-.289-.234-.606-.375-.716-.612a1.494,1.494,0,0,1,.035-.83c.023-.118.174-.214.273-.314q5.13-5.131,10.266-10.257a1.462,1.462,0,0,1,.582-.389.768.768,0,0,1,.905.378.8.8,0,0,1-.051.948,2.323,2.323,0,0,1-.261.276q-5.116,5.116-10.237,10.226A6.509,6.509,0,0,1-44.31,980.668Z" transform="translate(60.74 -952.669)" fill="#fff"/>
                <path id="Trazado_621113" data-name="Trazado 621113" d="M108.446,939.972a.846.846,0,0,1,.824.885.846.846,0,0,1-1.69-.083A.85.85,0,0,1,108.446,939.972Z" transform="translate(-78.972 -926.804)" fill="#fff"/>
                <path id="Trazado_621114" data-name="Trazado 621114" d="M-72.423,1122.577a.851.851,0,0,1-.872.841.842.842,0,0,1-.82-.846.832.832,0,0,1,.868-.835A.84.84,0,0,1-72.423,1122.577Z" transform="translate(87.318 -1093.159)" fill="#fff"/>
                <path id="Trazado_621115" data-name="Trazado 621115" d="M116.287,1129.768a1.9,1.9,0,0,1,.526.3q3.783,3.745,7.544,7.513a.876.876,0,0,1,.049,1.279.863.863,0,0,1-1.305-.1q-3.372-3.35-6.736-6.708c-.289-.288-.587-.569-.859-.873a.793.793,0,0,1-.128-.905A.879.879,0,0,1,116.287,1129.768Z" transform="translate(-86.031 -1100.51)" fill="#fff"/>
              </g>
            </g>
          </g>
        </g>
      </g>
    </g>
    <g id="Grupo_234515" data-name="Grupo 234515" transform="translate(611.511 2966.484)">
      <g id="Grupo_234514" data-name="Grupo 234514" transform="translate(-11 -9)" clip-path="url(#clip-path)">
        <g id="Grupo_234513" data-name="Grupo 234513">
          <g id="Grupo_234512" data-name="Grupo 234512" clip-path="url(#clip-path)">
            <g id="Grupo_234511" data-name="Grupo 234511" opacity="0.5" style="mix-blend-mode: multiply;isolation: isolate">
              <g id="Grupo_234510" data-name="Grupo 234510">
                <g id="Grupo_234509" data-name="Grupo 234509" clip-path="url(#clip-path)">
                  <g id="Grupo_234508" data-name="Grupo 234508">
                    <g id="Grupo_234507" data-name="Grupo 234507" clip-path="url(#clip-path-4)">
                      <rect id="Rectángulo_75233" data-name="Rectángulo 75233" width="114.489" height="114.489" transform="translate(0 0)" fill="url(#radial-gradient-2)"/>
                    </g>
                  </g>
                </g>
              </g>
            </g>
            <path id="Trazado_228522" data-name="Trazado 228522" d="M79.5,49.826A36.809,36.809,0,1,1,52.684,5.2,36.813,36.813,0,0,1,79.5,49.826Z" fill="#ff5422"/>
            <g id="_7QWidK.tif" data-name="7QWidK.tif" transform="translate(-47.314 -120.657)">
              <g id="Grupo_947631" data-name="Grupo 947631" transform="translate(71.669 142.074)">
                <path id="Trazado_621108" data-name="Trazado 621108" d="M93.361,183.742H92.276c-.628-.255-1.274-.475-1.882-.771a29.758,29.758,0,0,1-13.356-12.752A29.141,29.141,0,0,1,73.648,159.7c-.09-.727-.167-1.456-.249-2.185V150.5a1.007,1.007,0,0,0,.086-.177,3.34,3.34,0,0,1,2.167-2.409,7.513,7.513,0,0,0,4.638-4.653,3.329,3.329,0,0,1,3.3-2.281q9.23,0,18.459,0a3.33,3.33,0,0,1,3.3,2.277,7.508,7.508,0,0,0,4.676,4.667,3.352,3.352,0,0,1,2.215,3.222c0,1.643.046,3.287-.013,4.927a39.2,39.2,0,0,1-.357,4.486,29.912,29.912,0,0,1-18.5,23.184Zm-.553-40.261q-4.551,0-9.1,0a.96.96,0,0,0-1.1.754,9.924,9.924,0,0,1-5.987,6,.941.941,0,0,0-.717,1.039c0,1.559-.01,3.118,0,4.676a25.856,25.856,0,0,0,.7,6.035,27.366,27.366,0,0,0,15.592,19.049,1.374,1.374,0,0,0,1.265-.006,27.334,27.334,0,0,0,13.835-13.86,25.619,25.619,0,0,0,2.359-9.736c.079-2,.059-4.006.079-6.01.007-.762-.147-.972-.849-1.247a9.852,9.852,0,0,1-5.833-5.884c-.254-.66-.469-.814-1.182-.814Z" transform="translate(-73.399 -140.978)" fill="#fff"/>
                <path id="Trazado_621109" data-name="Trazado 621109" d="M208.607,238.582c0-.77-.014-1.533,0-2.3a15.3,15.3,0,0,1,.116-2.286,5.224,5.224,0,0,1,10.23-.018,20.094,20.094,0,0,1,.124,2.828c.016.583,0,1.166,0,1.762.326.064.628.1.918.184a2.887,2.887,0,0,1,2.156,2.626c.061,1.32.037,2.643.035,3.965,0,1.35.027,2.7-.046,4.049a5.529,5.529,0,0,1-5.162,5.058c-2,.056-4.009.055-6.012.014a5.55,5.55,0,0,1-5.469-5.594c-.041-2.379-.026-4.76,0-7.141a2.989,2.989,0,0,1,2.738-3.089C208.349,238.629,208.457,238.608,208.607,238.582Zm5.238,2.575q-2.547,0-5.093,0c-.609,0-.723.12-.724.739,0,2.3-.006,4.592,0,6.888a3.076,3.076,0,0,0,3.186,3.18q2.588.006,5.177,0a3.089,3.089,0,0,0,3.27-3.265q.006-3.4,0-6.8c0-.616-.117-.736-.725-.737Q216.391,241.154,213.845,241.157Zm2.721-2.56c0-1.224.012-2.417,0-3.609a2.716,2.716,0,0,0-5.358-.558,2.056,2.056,0,0,0-.073.45c-.006,1.233,0,2.465,0,3.717Z" transform="translate(-194.426 -222.393)" fill="#fff"/>
                <path id="Trazado_621110" data-name="Trazado 621110" d="M290.236,402.974c0-.362-.009-.723,0-1.085a1.268,1.268,0,1,1,2.534-.016q.028,1.126,0,2.253a1.269,1.269,0,1,1-2.534-.025C290.227,403.725,290.236,403.35,290.236,402.974Z" transform="translate(-272.086 -378.831)" fill="#fff"/>
              </g>
            </g>
          </g>
        </g>
      </g>
    </g>
    <g id="Grupo_234476" data-name="Grupo 234476" transform="translate(18)">
      <rect id="Rectángulo_67395" data-name="Rectángulo 67395" width="121.5" height="27" transform="translate(568 3054.975)" fill="#fff"/>
      <g id="Grupo_213015" data-name="Grupo 213015" transform="translate(145 1990.396)">
        <text id="Seguridad" transform="translate(454.787 1068.578)" fill="#12263f" font-size="16" font-family="Roboto-Bold, Roboto" font-weight="700"><tspan x="0" y="17">Seguridad</tspan></text>
      </g>
      <rect id="Rectángulo_67396" data-name="Rectángulo 67396" width="125" height="27" transform="translate(774.5 3054.975)" fill="#fff"/>
      <rect id="Rectángulo_75220" data-name="Rectángulo 75220" width="127" height="27" transform="translate(983.213 3054.975)" fill="#fff"/>
      <path id="Trazado_622653" data-name="Trazado 622653" d="M9.625,5.625v7.492A3.836,3.836,0,0,1,8.457,16.07a4.5,4.5,0,0,1-3.191,1.086A4.553,4.553,0,0,1,2.1,16.1a3.77,3.77,0,0,1-1.2-2.9V5.625H3.25v7.508a2.167,2.167,0,0,0,.535,1.629,2.054,2.054,0,0,0,1.48.512q1.977,0,2.008-2.078V5.625Zm4.477.844V8.547h1.445V10.2H14.1v4.219a1.007,1.007,0,0,0,.18.672.9.9,0,0,0,.688.2,3.6,3.6,0,0,0,.664-.055v1.711a4.648,4.648,0,0,1-1.367.2,2.156,2.156,0,0,1-2.422-2.4V10.2H10.609V8.547h1.234V6.469ZM19.188,17H16.922V8.547h2.266Zm-2.4-10.641a1.112,1.112,0,0,1,.34-.836,1.465,1.465,0,0,1,1.848,0,1.105,1.105,0,0,1,.344.836,1.108,1.108,0,0,1-.348.844,1.448,1.448,0,0,1-1.836,0A1.108,1.108,0,0,1,16.789,6.359ZM23.43,17H21.164V5H23.43Zm4.242,0H25.406V8.547h2.266Zm-2.4-10.641a1.112,1.112,0,0,1,.34-.836,1.465,1.465,0,0,1,1.848,0,1.105,1.105,0,0,1,.344.836,1.108,1.108,0,0,1-.348.844,1.448,1.448,0,0,1-1.836,0A1.108,1.108,0,0,1,25.273,6.359Zm3.906,6.352a5.094,5.094,0,0,1,.887-3.148,2.877,2.877,0,0,1,2.426-1.172,2.589,2.589,0,0,1,2.039.922V5H36.8V17H34.758l-.109-.9a2.657,2.657,0,0,1-2.172,1.055,2.869,2.869,0,0,1-2.395-1.176A5.258,5.258,0,0,1,29.18,12.711Zm2.258.168a3.337,3.337,0,0,0,.414,1.823,1.349,1.349,0,0,0,1.2.634,1.511,1.511,0,0,0,1.477-.884V11.111a1.489,1.489,0,0,0-1.461-.884Q31.438,10.227,31.438,12.879ZM43.445,17a2.507,2.507,0,0,1-.227-.758,2.732,2.732,0,0,1-2.133.914,3,3,0,0,1-2.059-.719,2.312,2.312,0,0,1-.816-1.812,2.389,2.389,0,0,1,1-2.062,4.915,4.915,0,0,1,2.879-.727h1.039v-.484a1.393,1.393,0,0,0-.3-.937,1.183,1.183,0,0,0-.949-.352,1.345,1.345,0,0,0-.895.273.929.929,0,0,0-.324.75H38.4a2.268,2.268,0,0,1,.453-1.359,3,3,0,0,1,1.281-.98,4.669,4.669,0,0,1,1.859-.355,3.689,3.689,0,0,1,2.48.785,2.747,2.747,0,0,1,.918,2.207v3.664a4.041,4.041,0,0,0,.336,1.82V17Zm-1.867-1.57a1.945,1.945,0,0,0,.922-.223,1.462,1.462,0,0,0,.625-.6V13.156h-.844q-1.7,0-1.8,1.172l-.008.133a.9.9,0,0,0,.3.7A1.153,1.153,0,0,0,41.578,15.43Zm5.2-2.719a5.094,5.094,0,0,1,.887-3.148,2.877,2.877,0,0,1,2.426-1.172,2.589,2.589,0,0,1,2.039.922V5h2.266V17H52.352l-.109-.9a2.657,2.657,0,0,1-2.172,1.055,2.869,2.869,0,0,1-2.395-1.176A5.258,5.258,0,0,1,46.773,12.711Zm2.258.168a3.337,3.337,0,0,0,.414,1.823,1.349,1.349,0,0,0,1.2.634,1.511,1.511,0,0,0,1.477-.884V11.111a1.489,1.489,0,0,0-1.461-.884Q49.031,10.227,49.031,12.879Z" transform="translate(809 3058.975)" fill="#12263f"/>
      <path id="Trazado_622654" data-name="Trazado 622654" d="M3.359,12.992V17H1.016V5.625H5.453a5.134,5.134,0,0,1,2.254.469A3.454,3.454,0,0,1,9.2,7.426a3.714,3.714,0,0,1,.523,1.965,3.266,3.266,0,0,1-1.145,2.637,4.767,4.767,0,0,1-3.168.965Zm0-1.9H5.453a2.059,2.059,0,0,0,1.418-.437,1.591,1.591,0,0,0,.488-1.25,1.876,1.876,0,0,0-.492-1.352,1.839,1.839,0,0,0-1.359-.531H3.359ZM16,17a2.507,2.507,0,0,1-.227-.758,2.732,2.732,0,0,1-2.133.914,3,3,0,0,1-2.059-.719,2.312,2.312,0,0,1-.816-1.812,2.389,2.389,0,0,1,1-2.062,4.915,4.915,0,0,1,2.879-.727H15.68v-.484a1.393,1.393,0,0,0-.3-.937,1.183,1.183,0,0,0-.949-.352,1.345,1.345,0,0,0-.895.273.929.929,0,0,0-.324.75H10.953a2.268,2.268,0,0,1,.453-1.359,3,3,0,0,1,1.281-.98,4.669,4.669,0,0,1,1.859-.355,3.689,3.689,0,0,1,2.48.785,2.747,2.747,0,0,1,.918,2.207v3.664a4.041,4.041,0,0,0,.336,1.82V17Zm-1.867-1.57a1.945,1.945,0,0,0,.922-.223,1.462,1.462,0,0,0,.625-.6V13.156h-.844q-1.7,0-1.8,1.172l-.008.133a.9.9,0,0,0,.3.7A1.153,1.153,0,0,0,14.133,15.43Zm5.219-2.719a4.954,4.954,0,0,1,.926-3.133,3,3,0,0,1,2.5-1.187,2.631,2.631,0,0,1,2.164.953l.094-.8h2.047v8.172a3.613,3.613,0,0,1-.5,1.93,3.236,3.236,0,0,1-1.418,1.25,4.985,4.985,0,0,1-2.141.43,4.635,4.635,0,0,1-1.812-.371A3.217,3.217,0,0,1,19.867,19l1-1.375a2.645,2.645,0,0,0,2.047.945,1.936,1.936,0,0,0,1.4-.48,1.8,1.8,0,0,0,.5-1.363v-.453a2.612,2.612,0,0,1-2.055.883,2.992,2.992,0,0,1-2.465-1.191,4.953,4.953,0,0,1-.941-3.16Zm2.258.168a3.085,3.085,0,0,0,.461,1.8,1.466,1.466,0,0,0,1.266.653,1.568,1.568,0,0,0,1.477-.775V11a1.564,1.564,0,0,0-1.461-.775,1.476,1.476,0,0,0-1.277.665A3.477,3.477,0,0,0,21.609,12.879Zm6.852-.184a5.013,5.013,0,0,1,.484-2.242A3.546,3.546,0,0,1,30.34,8.93a4.069,4.069,0,0,1,2.113-.539,3.849,3.849,0,0,1,2.793,1.047,4.2,4.2,0,0,1,1.207,2.844l.016.578a4.418,4.418,0,0,1-1.086,3.121,3.775,3.775,0,0,1-2.914,1.176,3.793,3.793,0,0,1-2.918-1.172,4.5,4.5,0,0,1-1.09-3.187Zm2.258.16a3.16,3.16,0,0,0,.453,1.843,1.628,1.628,0,0,0,2.578.008,3.457,3.457,0,0,0,.461-2.015,3.128,3.128,0,0,0-.461-1.831,1.5,1.5,0,0,0-1.3-.649,1.474,1.474,0,0,0-1.281.646A3.516,3.516,0,0,0,30.719,12.856Z" transform="translate(1030.213 3058.975)" fill="#12263f"/>
      <g id="Grupo_234473" data-name="Grupo 234473" transform="translate(787.854 3061.283)">
        <g id="Grupo_213053" data-name="Grupo 213053" clip-path="url(#clip-path-13)">
          <path id="Trazado_210475" data-name="Trazado 210475" d="M13.651,7.7c0,1.178-.005,2.355,0,3.533a.592.592,0,0,1-.334.575Q10.208,13.58,7.1,15.363a.512.512,0,0,1-.555,0Q3.456,13.587.361,11.824A.635.635,0,0,1,0,11.2Q.012,7.67,0,4.137a.517.517,0,0,1,.284-.5Q3.381,1.878,6.473.107a.643.643,0,0,1,.718.006q3.079,1.772,6.169,3.524a.528.528,0,0,1,.293.511c-.006,1.184,0,2.369,0,3.553" transform="translate(0 0)"/>
          <path id="Trazado_210476" data-name="Trazado 210476" d="M170.095,123.411V119.6c0-.749,0-1.5,0-2.246a.221.221,0,0,1,.121-.229q2.623-1.492,5.241-2.992c.023-.013.048-.022.073-.033.057.035.031.088.031.129q0,2.951,0,5.9a.238.238,0,0,1-.126.248q-2.615,1.485-5.224,2.98c-.028.016-.058.027-.116.054" transform="translate(-162.815 -109.217)" fill="#ffd800"/>
          <path id="Trazado_210477" data-name="Trazado 210477" d="M26.666,123.582l-1.62-.923c-1.221-.7-2.44-1.4-3.664-2.088a.313.313,0,0,1-.184-.318c.006-1.993,0-3.986,0-5.98.074-.025.119.028.169.056l5.147,2.939c.084.048.151.086.151.21,0,2.02,0,4.041,0,6.1" transform="translate(-20.291 -109.378)" fill="#ffd800"/>
          <path id="Trazado_210478" data-name="Trazado 210478" d="M32.411,26.19l1.471-.84q1.9-1.087,3.8-2.175a.256.256,0,0,1,.3-.026q2.614,1.5,5.234,2.995c.023.013.044.031.081.057l-1.686.962q-1.8,1.026-3.59,2.054a.255.255,0,0,1-.295.026q-2.614-1.5-5.234-2.994c-.023-.013-.044-.032-.079-.057" transform="translate(-31.024 -22.123)" fill="#ff8900"/>
        </g>
      </g>
      <g id="Grupo_234475" data-name="Grupo 234475" transform="translate(1009.067 3061.283)">
        <g id="Grupo_213053-2" data-name="Grupo 213053" clip-path="url(#clip-path-13)">
          <path id="Trazado_210475-2" data-name="Trazado 210475" d="M13.651,7.7c0,1.178-.005,2.355,0,3.533a.592.592,0,0,1-.334.575Q10.208,13.58,7.1,15.363a.512.512,0,0,1-.555,0Q3.456,13.587.361,11.824A.635.635,0,0,1,0,11.2Q.012,7.67,0,4.137a.517.517,0,0,1,.284-.5Q3.381,1.878,6.473.107a.643.643,0,0,1,.718.006q3.079,1.772,6.169,3.524a.528.528,0,0,1,.293.511c-.006,1.184,0,2.369,0,3.553" transform="translate(0 0)"/>
          <path id="Trazado_210476-2" data-name="Trazado 210476" d="M170.095,123.411V119.6c0-.749,0-1.5,0-2.246a.221.221,0,0,1,.121-.229q2.623-1.492,5.241-2.992c.023-.013.048-.022.073-.033.057.035.031.088.031.129q0,2.951,0,5.9a.238.238,0,0,1-.126.248q-2.615,1.485-5.224,2.98c-.028.016-.058.027-.116.054" transform="translate(-162.815 -109.217)" fill="#ffd800"/>
          <path id="Trazado_210477-2" data-name="Trazado 210477" d="M26.666,123.582l-1.62-.923c-1.221-.7-2.44-1.4-3.664-2.088a.313.313,0,0,1-.184-.318c.006-1.993,0-3.986,0-5.98.074-.025.119.028.169.056l5.147,2.939c.084.048.151.086.151.21,0,2.02,0,4.041,0,6.1" transform="translate(-20.291 -109.378)" fill="#ffd800"/>
          <path id="Trazado_210478-2" data-name="Trazado 210478" d="M32.411,26.19l1.471-.84q1.9-1.087,3.8-2.175a.256.256,0,0,1,.3-.026q2.614,1.5,5.234,2.995c.023.013.044.031.081.057l-1.686.962q-1.8,1.026-3.59,2.054a.255.255,0,0,1-.295.026q-2.614-1.5-5.234-2.994c-.023-.013-.044-.032-.079-.057" transform="translate(-31.024 -22.123)" fill="#ff8900"/>
        </g>
      </g>
      <g id="Grupo_234474" data-name="Grupo 234474" transform="translate(578.854 3061.283)">
        <g id="Grupo_213053-3" data-name="Grupo 213053" clip-path="url(#clip-path-13)">
          <path id="Trazado_210475-3" data-name="Trazado 210475" d="M13.651,7.7c0,1.178-.005,2.355,0,3.533a.592.592,0,0,1-.334.575Q10.208,13.58,7.1,15.363a.512.512,0,0,1-.555,0Q3.456,13.587.361,11.824A.635.635,0,0,1,0,11.2Q.012,7.67,0,4.137a.517.517,0,0,1,.284-.5Q3.381,1.878,6.473.107a.643.643,0,0,1,.718.006q3.079,1.772,6.169,3.524a.528.528,0,0,1,.293.511c-.006,1.184,0,2.369,0,3.553" transform="translate(0 0)"/>
          <path id="Trazado_210476-3" data-name="Trazado 210476" d="M170.095,123.411V119.6c0-.749,0-1.5,0-2.246a.221.221,0,0,1,.121-.229q2.623-1.492,5.241-2.992c.023-.013.048-.022.073-.033.057.035.031.088.031.129q0,2.951,0,5.9a.238.238,0,0,1-.126.248q-2.615,1.485-5.224,2.98c-.028.016-.058.027-.116.054" transform="translate(-162.815 -109.217)" fill="#ffd800"/>
          <path id="Trazado_210477-3" data-name="Trazado 210477" d="M26.666,123.582l-1.62-.923c-1.221-.7-2.44-1.4-3.664-2.088a.313.313,0,0,1-.184-.318c.006-1.993,0-3.986,0-5.98.074-.025.119.028.169.056l5.147,2.939c.084.048.151.086.151.21,0,2.02,0,4.041,0,6.1" transform="translate(-20.291 -109.378)" fill="#ffd800"/>
          <path id="Trazado_210478-3" data-name="Trazado 210478" d="M32.411,26.19l1.471-.84q1.9-1.087,3.8-2.175a.256.256,0,0,1,.3-.026q2.614,1.5,5.234,2.995c.023.013.044.031.081.057l-1.686.962q-1.8,1.026-3.59,2.054a.255.255,0,0,1-.295.026q-2.614-1.5-5.234-2.994c-.023-.013-.044-.032-.079-.057" transform="translate(-31.024 -22.123)" fill="#ff8900"/>
        </g>
      </g>
    </g>
  </g>
</svg>
