<svg xmlns="http://www.w3.org/2000/svg" width="293.624" height="104.056" viewBox="0 0 293.624 104.056">
  <g id="Grupo_948784" data-name="Grupo 948784" transform="translate(-827.931 -5875.101)">
    <g id="Grupo_947639" data-name="Grupo 947639" transform="translate(827.931 5875.101)">
      <ellipse id="Elipse_4870" data-name="Elipse 4870" cx="39.248" cy="39.67" rx="39.248" ry="39.67" transform="translate(0 0)" fill="#12263f"/>
      <g id="htNtez.tif" transform="translate(-442.932 -6387.436)">
        <g id="Grupo_947643" data-name="Grupo 947643" transform="translate(459.994 6398.078)">
          <path id="Trazado_621120" data-name="Trazado 621120" d="M754.455,7200.575c-.08-.1-.2-.057-.3-.076a4.415,4.415,0,0,1-3.024-2.445c-.511-.914-.884-1.9-1.347-2.833a5.367,5.367,0,0,0-2.064-2.377,3.29,3.29,0,0,0-3.154-.273,2.056,2.056,0,0,0-1.278,1.843,1.986,1.986,0,0,0,1.053,1.915,2.139,2.139,0,0,0,1.765.331,1.732,1.732,0,0,0,1.128-2.23,1.612,1.612,0,0,0-2.313-.663.935.935,0,0,0-.02,1.479l-.037.043a.919.919,0,0,1-.483-1.08,1.428,1.428,0,0,1,1.3-1.07,2.032,2.032,0,0,1,2.223,1.482,2.543,2.543,0,0,1-3.156,3.034,3.811,3.811,0,0,1-1.9-1.038c-.433-.428-.871-.851-1.293-1.289a6.828,6.828,0,0,0-3.977-2.056c-.468-.072-.934-.155-1.4-.234-.019-.053.021-.079.053-.108a15.448,15.448,0,0,1,6.86-3.661,9,9,0,0,1,4.616.128,5.677,5.677,0,0,1,4.17,4.465c.225,1,.353,2.024.542,3.035a5.2,5.2,0,0,0,.54,1.536,2.671,2.671,0,0,0,2.66,1.361,5.913,5.913,0,0,0,1.984-.42c.123-.046.248-.087.38-.133,0,.1-.063.127-.11.161a5.291,5.291,0,0,1-2.629,1.124.085.085,0,0,0-.085.051Z" transform="translate(-721.31 -7146.473)" fill="#fff"/>
          <path id="Trazado_621121" data-name="Trazado 621121" d="M466.857,6405.867c1.194,1.3,2.393,2.592,3.581,3.895q4.3,4.714,8.591,9.435c2.324,2.558,4.659,5.107,6.949,7.7a.634.634,0,0,1,.184.5,6.127,6.127,0,0,1-.1.987,3.249,3.249,0,0,1-1.822,2.1,6.779,6.779,0,0,1-2.369.639,1.8,1.8,0,0,0-1.712,1.31,4.294,4.294,0,0,0-.135.737,12.128,12.128,0,0,1-.755,3.825c-.332.752-.677,1.5-1.007,2.252a4.926,4.926,0,0,0-.386,1.2,3.508,3.508,0,0,0,1.42,3.443c.638.519,1.327.976,1.964,1.5a2.776,2.776,0,0,1,1.135,2.041,3.28,3.28,0,0,1-1.439,2.919,11.165,11.165,0,0,1-3.7,1.839,19.728,19.728,0,0,1-1.926.476c-.216.043-.355.033-.4-.257a3.862,3.862,0,0,0-.6-1.308c-.438-.749-.953-1.452-1.323-2.24a7.619,7.619,0,0,1-.6-5.147,5.837,5.837,0,0,1,1.156-2.163c.836-1.084,1.714-2.135,2.486-3.27a10.673,10.673,0,0,0,1.786-4.942,5.7,5.7,0,0,1,1.133-3.135c.142-.173.292-.339.432-.514a.941.941,0,0,0,.116-1.117c-.743-1.449-1.542-2.867-2.333-4.29q-1.727-3.108-3.466-6.21c-.012-.021-.017-.031.026-.049.13.041.166.183.233.286q2.827,4.342,5.651,8.687c.3.464.615.924.948,1.368a1.9,1.9,0,0,0,2.075.784,3.45,3.45,0,0,0,1.313-.517.862.862,0,0,0,.2-1.4q-1.429-1.8-2.879-3.578-6.192-7.583-12.39-15.161-1.045-1.278-2.089-2.558Zm8.984,39.767a1.076,1.076,0,0,0-.3-.78,1.019,1.019,0,0,0-1.173-.252c-.269.143-.3.4-.073.575.343.263.346.275.124.67a.538.538,0,0,0-.025.647.692.692,0,0,0,.725.213A1.1,1.1,0,0,0,475.841,6445.634Z" transform="translate(-466.436 -6405.448)" fill="#fff"/>
          <path id="Trazado_621122" data-name="Trazado 621122" d="M1020.91,6836.654a2.616,2.616,0,0,1,.221.148,7.928,7.928,0,0,0,3.982,1.662c1.747.333,3.523.5,5.256.913a10.38,10.38,0,0,1,4.988,2.526,7.656,7.656,0,0,1,2.308,6.412,8.023,8.023,0,0,1-.9,3.148.875.875,0,0,1-.236.33,1.255,1.255,0,0,1-.1-.585,4.689,4.689,0,0,0-1.916-3.175,17.142,17.142,0,0,0-3.665-2c-1.577-.7-3.2-1.279-4.755-2.041a13.18,13.18,0,0,1-3.5-2.308,5.362,5.362,0,0,1-1.68-3.91C1020.907,6837.424,1020.91,6837.069,1020.91,6836.654Z" transform="translate(-990.731 -6813.058)" fill="#fff"/>
          <path id="Trazado_621123" data-name="Trazado 621123" d="M790.1,6618.279a9.033,9.033,0,0,1,5.433,1.371,16,16,0,0,1,3.463,3.111.451.451,0,0,0,.481.175,15.65,15.65,0,0,1,9.518,1.088,13.718,13.718,0,0,1,1.753.983.6.6,0,0,1,.282.4,6.416,6.416,0,0,1,.049,3,4.025,4.025,0,0,1-.306.742.833.833,0,0,0,.236,1.075.819.819,0,0,0,1.079-.08,3.449,3.449,0,0,0,.867-1.4,12.766,12.766,0,0,0,.395-1.442c1.214.875,2.908,4.2,3.032,5.935-.1-.033-.124-.123-.164-.19a4.762,4.762,0,0,0-3.763-2.308c-1.334-.16-2.677-.187-4.013-.312a13.5,13.5,0,0,1-4.83-1.228,9.92,9.92,0,0,1-2.981-2.5c-1.132-1.3-2.117-2.707-3.216-4.028a12.583,12.583,0,0,0-4.047-3.384,10.182,10.182,0,0,0-2.993-.893A.343.343,0,0,1,790.1,6618.279Z" transform="translate(-772.344 -6606.419)" fill="#fff"/>
          <path id="Trazado_621124" data-name="Trazado 621124" d="M1126.953,7021.847c.069-.175.1-.294.161-.4a5.944,5.944,0,0,0-.245-5.894c-.682-1.261-1.495-2.439-2.278-3.637a17.719,17.719,0,0,1-1.883-3.3,6.215,6.215,0,0,1-.292-3.942c.009-.035.015-.07.026-.1.091-.275.13-.3.369-.145.931.587,1.908,1.092,2.868,1.627a23.876,23.876,0,0,1,3.3,2.1,7.081,7.081,0,0,1,2.8,4.921,8.4,8.4,0,0,1-4.651,8.708C1127.1,7021.794,1127.054,7021.807,1126.953,7021.847Z" transform="translate(-1086.59 -6971.711)" fill="#fff"/>
          <path id="Trazado_621125" data-name="Trazado 621125" d="M792.044,6651.365a3.563,3.563,0,0,1-1.759-.629,7.607,7.607,0,0,1-3.005-3.967,9.615,9.615,0,0,1-.636-3.354c0-.286.038-.571.049-.857.005-.144.064-.19.2-.161a4.193,4.193,0,0,1,3.42,2.515,15.11,15.11,0,0,1,.711,2.635,8.286,8.286,0,0,0,1.267,2.961c.039.06.084.116.117.179.084.16.258.311.134.51C792.426,6651.381,792.213,6651.347,792.044,6651.365Z" transform="translate(-769.069 -6629.244)" fill="#fff"/>
          <path id="Trazado_621126" data-name="Trazado 621126" d="M878.963,6982.092a2.9,2.9,0,0,1,.7.935,4.964,4.964,0,0,1-2.648,7.07,9.067,9.067,0,0,1-2.892.645c-1.435.114-2.878.136-4.3.373a12.828,12.828,0,0,0-2,.49c-.122.042-.248.073-.4.117a.683.683,0,0,1,.289-.25,11.1,11.1,0,0,1,4.088-1.539c1.24-.225,2.5-.369,3.713-.7a4.889,4.889,0,0,0,3.653-3.268,6.034,6.034,0,0,0-.144-3.592c-.026-.092-.091-.178-.049-.282Z" transform="translate(-845.497 -6950.666)" fill="#fff"/>
          <path id="Trazado_621127" data-name="Trazado 621127" d="M815.987,6883.79c-1.447,0-1.82-.378-1.783-1.581a2.269,2.269,0,0,1,2.619-2.117,2.3,2.3,0,0,1,1.859,1.482,1.132,1.132,0,0,1-.388,1.456A3.928,3.928,0,0,1,815.987,6883.79Zm.649-3.406a1.317,1.317,0,0,0-1.071.393.548.548,0,0,0,.052.848,1.442,1.442,0,0,0,1.831.028.589.589,0,0,0,0-.967A1.242,1.242,0,0,0,816.637,6880.384Z" transform="translate(-795.145 -6854.133)" fill="#fff"/>
          <path id="Trazado_621128" data-name="Trazado 621128" d="M1122.739,6648.565a.334.334,0,0,1,0-.13,3.9,3.9,0,0,0,.249-1.766,10.4,10.4,0,0,0-.146-2.112,2.461,2.461,0,0,0-.9-1.479,13.549,13.549,0,0,0-2.72-1.551,5.136,5.136,0,0,1-.474-.246,3.363,3.363,0,0,1,.787.176,20.973,20.973,0,0,1,2.033.681c.141.056.286.1.431.147.314.094.378.053.409-.281.043-.454.069-.91.115-1.364a5.269,5.269,0,0,1,.431-1.682c.035-.075.044-.176.167-.221-.058.312-.154.6-.187.9a7.382,7.382,0,0,0,.23,2.605,3.619,3.619,0,0,0,1.073,1.549c.66.7,1.334,1.376,1.939,2.121.063.077.154.144.156.27-.131,0-.178-.1-.246-.157a23.335,23.335,0,0,0-1.931-1.539c-.415-.289-.578-.206-.625.3a15.814,15.814,0,0,1-.2,2.323,3.711,3.711,0,0,1-.591,1.445Z" transform="translate(-1083.305 -6625.79)" fill="#fff"/>
          <path id="Trazado_621129" data-name="Trazado 621129" d="M462.519,6400.949l-.055.057a.986.986,0,0,1-.247-.3l.044-.037A1.092,1.092,0,0,1,462.519,6400.949Z" transform="translate(-462.098 -6400.529)" fill="#fff"/>
          <path id="Trazado_621130" data-name="Trazado 621130" d="M460.067,6398.2c-.032-.034-.1-.073-.059-.112s.073.035.1.075C460.091,6398.175,460.079,6398.188,460.067,6398.2Z" transform="translate(-459.994 -6398.077)" fill="#fff"/>
          <path id="Trazado_621131" data-name="Trazado 621131" d="M900.6,7305.932a.131.131,0,0,1-.046.013c-.01,0-.018-.017-.027-.026a.117.117,0,0,1,.042-.012C900.584,7305.908,900.593,7305.922,900.6,7305.932Z" transform="translate(-876.83 -7257.064)" fill="#fff"/>
          <path id="Trazado_621132" data-name="Trazado 621132" d="M461.411,6399.766l-.046-.053.037-.036.053.054Z" transform="translate(-461.291 -6399.591)" fill="#fff"/>
          <path id="Trazado_621133" data-name="Trazado 621133" d="M1192.4,6821.311a.091.091,0,0,1-.01.023s-.011,0-.017,0l.031-.02Z" transform="translate(-1152.973 -6798.541)" fill="#fff"/>
          <path id="Trazado_621134" data-name="Trazado 621134" d="M1081.466,6981.545h-.036l.01-.03.021.037Z" transform="translate(-1047.996 -6950.124)" fill="#fff"/>
          <path id="Trazado_621135" data-name="Trazado 621135" d="M897.845,7304.581a.433.433,0,0,1,.044.042c-.025.036-.053.018-.081,0Z" transform="translate(-874.253 -7255.81)" fill="#fff"/>
        </g>
      </g>
    </g>
    <g id="Grupo_947641" data-name="Grupo 947641" transform="translate(1041.181 5875.101)">
      <ellipse id="Elipse_4870-2" data-name="Elipse 4870" cx="39.248" cy="39.67" rx="39.248" ry="39.67" transform="translate(0 0)" fill="#12263f"/>
      <path id="Trazado_621139" data-name="Trazado 621139" d="M808.108,2704a43.183,43.183,0,0,1,5.228-3.149c4.661-2.728,9.346-5.416,14.022-8.117.469-.271.864-.573,1.5-.2q9.646,5.64,19.33,11.216,0,11.878,0,23.756a.117.117,0,0,1-.118.053c-.5-.034-.929.059-1.077.629q-9.063,5.251-18.121,10.508a1.039,1.039,0,0,1-1.195.021q-9.556-5.573-19.131-11.116a.69.69,0,0,0-.484-.6c-.021-5.057-.051-10.114-.058-15.171,0-2.369.039-4.739.06-7.108C808.395,2704.5,808.413,2704.257,808.108,2704Zm31.933,8.332c.4-.259.4-.518,0-.776-.023-.628-.091-1.259-.056-1.885a1.171,1.171,0,0,0-.714-1.208c-3.491-1.99-6.964-4.011-10.443-6.023a.839.839,0,0,0-.97-.1q-5.641,3.339-11.3,6.642c-.491.124-.386.526-.386.863q-.007,5.77,0,11.539c0,.335-.107.738.383.865a2.224,2.224,0,0,0,.348.314c3.616,2.1,7.243,4.177,10.848,6.295.53.311.871.081,1.282-.158,3.345-1.939,6.68-3.9,10.052-5.786a1.561,1.561,0,0,0,.9-1.589C839.969,2718.332,840.016,2715.333,840.042,2712.333Z" transform="translate(-788.855 -2677.959)" fill="#fff"/>
    </g>
    <g id="Grupo_947640" data-name="Grupo 947640" transform="translate(934.255 5875.101)">
      <ellipse id="Elipse_4870-3" data-name="Elipse 4870" cx="39.248" cy="39.67" rx="39.248" ry="39.67" transform="translate(0 0)" fill="#12263f"/>
      <g id="Grupo_947644" data-name="Grupo 947644" transform="translate(156.469 -6525.206)">
        <path id="Trazado_621136" data-name="Trazado 621136" d="M155.09,6586.117a1.191,1.191,0,0,1-.04-.517c0-5.2-.01-10.4.026-15.6.012-1.768-.012-3.535.041-5.3a5.49,5.49,0,0,0-1.385-3.836,4.871,4.871,0,0,0-1.3-1.054q-7.967-4.6-15.931-9.194a.562.562,0,0,0-.089-.049c-.374-.134-.469-.389-.467-.786q.039-6.729.037-13.461a3.636,3.636,0,0,1,.093-.808,1.616,1.616,0,0,1,2.16-1.273,3.823,3.823,0,0,1,.881.395c5.662,3.27,11.338,6.518,16.98,9.823a6,6,0,0,1,3.115,5.441q.014,12.059-.041,24.119c-.014,3.075-.048,6.15-.035,9.227a.691.691,0,0,1-.388.686c-1.094.653-2.172,1.331-3.258,2A.839.839,0,0,1,155.09,6586.117Z" transform="translate(-259.354)" fill="#fff"/>
        <path id="Trazado_621137" data-name="Trazado 621137" d="M8.818,6903.518a1.373,1.373,0,0,1-.049-.565q.008-4.536.02-9.073a3.767,3.767,0,0,0-1.989-3.485q-8.909-5.146-17.82-10.288c-.675-.389-.676-.39-.675-1.167q.014-6.218.033-12.437a4.38,4.38,0,0,1,.075-.81,1.332,1.332,0,0,1,1.823-1.092,3.054,3.054,0,0,1,.649.29c6.043,3.489,12.1,6.961,18.123,10.478a4.921,4.921,0,0,1,2.557,4.469c.007,5.759-.008,11.52-.017,17.279,0,1.444-.021,2.888-.014,4.333a.657.657,0,0,1-.354.656c-.644.378-1.267.792-1.9,1.189A1.112,1.112,0,0,1,8.818,6903.518Z" transform="translate(-119.239 -313.523)" fill="#fff"/>
        <path id="Trazado_621138" data-name="Trazado 621138" d="M-114.1,7207.005v4.64c0,.034,0,.068,0,.1-.013,1.1-.729,1.55-1.7,1.017-1.16-.639-2.3-1.32-3.444-1.982l-16.1-9.3a3.737,3.737,0,0,1-1.988-3.434c-.005-2.039-.014-4.078.014-6.118.013-.985.046-1.971.023-2.955-.03-1.265.825-1.649,1.844-1.057q5.9,3.434,11.821,6.833l7.588,4.382a3.672,3.672,0,0,1,1.968,3.385q0,2.244,0,4.487Z" transform="translate(0 -620.176)" fill="#fff"/>
      </g>
    </g>
    <path id="Trazado_622659" data-name="Trazado 622659" d="M9.625-11.375v7.492A3.836,3.836,0,0,1,8.457-.93,4.5,4.5,0,0,1,5.266.156,4.553,4.553,0,0,1,2.1-.9a3.77,3.77,0,0,1-1.2-2.9v-7.578H3.25v7.508a2.167,2.167,0,0,0,.535,1.629,2.054,2.054,0,0,0,1.48.512q1.977,0,2.008-2.078v-7.57ZM20.8,0H18.453L13.891-7.484V0H11.547V-11.375h2.344l4.57,7.5v-7.5H20.8Zm4.539,0H22.992V-11.375h2.344Zm8.07-2.984A1.2,1.2,0,0,0,32.938-4a6.148,6.148,0,0,0-1.687-.75,11.963,11.963,0,0,1-1.93-.777,3.153,3.153,0,0,1-1.937-2.82A2.747,2.747,0,0,1,27.9-10a3.389,3.389,0,0,1,1.492-1.129,5.616,5.616,0,0,1,2.184-.406,5.112,5.112,0,0,1,2.172.441,3.458,3.458,0,0,1,1.48,1.246,3.261,3.261,0,0,1,.527,1.828H33.414a1.534,1.534,0,0,0-.492-1.215,2.023,2.023,0,0,0-1.383-.434A2.162,2.162,0,0,0,30.2-9.3a1.146,1.146,0,0,0-.477.957,1.1,1.1,0,0,0,.559.93,6.311,6.311,0,0,0,1.645.7,7.106,7.106,0,0,1,2.914,1.492A2.972,2.972,0,0,1,35.758-3,2.737,2.737,0,0,1,34.641-.684a4.891,4.891,0,0,1-3.008.84,5.808,5.808,0,0,1-2.391-.48A3.783,3.783,0,0,1,27.6-1.641a3.371,3.371,0,0,1-.566-1.937h2.352q0,1.883,2.25,1.883a2.189,2.189,0,0,0,1.3-.34A1.106,1.106,0,0,0,33.406-2.984Zm12.8-.3,1.531-8.094H50.07L47.547,0H45.188L43.336-7.609,41.484,0H39.125L36.6-11.375h2.336L40.477-3.3l1.875-8.078h1.984Zm11.219.938H53.313L52.531,0H50.039l4.234-11.375h2.172L60.7,0H58.211Zm-3.477-1.9h2.844L55.359-8.5Zm10.164.234V0H61.766V-11.375H66.2a5.134,5.134,0,0,1,2.254.469,3.454,3.454,0,0,1,1.5,1.332,3.714,3.714,0,0,1,.523,1.965,3.266,3.266,0,0,1-1.145,2.637,4.767,4.767,0,0,1-3.168.965Zm0-1.9H66.2a2.059,2.059,0,0,0,1.418-.437,1.591,1.591,0,0,0,.488-1.25,1.876,1.876,0,0,0-.492-1.352,1.839,1.839,0,0,0-1.359-.531H64.109Z" transform="translate(832 5978)" fill="#12263f"/>
    <path id="Trazado_622658" data-name="Trazado 622658" d="M9.945-3.789A4.025,4.025,0,0,1,8.59-.9,4.76,4.76,0,0,1,5.367.156,4.28,4.28,0,0,1,1.926-1.316,6.038,6.038,0,0,1,.672-5.359v-.7A6.819,6.819,0,0,1,1.25-8.945,4.332,4.332,0,0,1,2.9-10.863a4.629,4.629,0,0,1,2.5-.668A4.637,4.637,0,0,1,8.57-10.477,4.326,4.326,0,0,1,9.961-7.516H7.617A2.376,2.376,0,0,0,7-9.113a2.271,2.271,0,0,0-1.605-.5,1.991,1.991,0,0,0-1.754.84,4.707,4.707,0,0,0-.6,2.605V-5.3a5.038,5.038,0,0,0,.559,2.7,1.954,1.954,0,0,0,1.762.852,2.314,2.314,0,0,0,1.621-.5A2.241,2.241,0,0,0,7.6-3.789ZM20.828-5.43a6.867,6.867,0,0,1-.594,2.945,4.472,4.472,0,0,1-1.7,1.953A4.7,4.7,0,0,1,16,.156a4.732,4.732,0,0,1-2.523-.68,4.515,4.515,0,0,1-1.719-1.941,6.67,6.67,0,0,1-.617-2.9V-5.93a6.831,6.831,0,0,1,.605-2.957,4.508,4.508,0,0,1,1.711-1.961,4.706,4.706,0,0,1,2.527-.684,4.706,4.706,0,0,1,2.527.684,4.508,4.508,0,0,1,1.711,1.961,6.811,6.811,0,0,1,.605,2.949Zm-2.375-.516a4.787,4.787,0,0,0-.641-2.719,2.088,2.088,0,0,0-1.828-.93,2.088,2.088,0,0,0-1.82.918,4.732,4.732,0,0,0-.648,2.691v.555a4.847,4.847,0,0,0,.641,2.7A2.082,2.082,0,0,0,16-1.766a2.064,2.064,0,0,0,1.813-.926,4.819,4.819,0,0,0,.641-2.7Zm7.141-5.43,2.922,8.25,2.906-8.25H34.5V0H32.148V-3.109l.234-5.367L29.313,0H27.7L24.641-8.469l.234,5.359V0H22.531V-11.375Zm13.3,7.367V0H36.547V-11.375h4.438a5.134,5.134,0,0,1,2.254.469,3.454,3.454,0,0,1,1.5,1.332,3.714,3.714,0,0,1,.523,1.965,3.266,3.266,0,0,1-1.145,2.637,4.767,4.767,0,0,1-3.168.965Zm0-1.9h2.094A2.059,2.059,0,0,0,42.4-6.344a1.591,1.591,0,0,0,.488-1.25A1.876,1.876,0,0,0,42.4-8.945a1.839,1.839,0,0,0-1.359-.531H38.891Zm17.32.477a6.867,6.867,0,0,1-.594,2.945,4.472,4.472,0,0,1-1.7,1.953,4.7,4.7,0,0,1-2.535.688,4.732,4.732,0,0,1-2.523-.68,4.515,4.515,0,0,1-1.719-1.941,6.67,6.67,0,0,1-.617-2.9V-5.93a6.831,6.831,0,0,1,.605-2.957,4.508,4.508,0,0,1,1.711-1.961,4.706,4.706,0,0,1,2.527-.684,4.706,4.706,0,0,1,2.527.684,4.508,4.508,0,0,1,1.711,1.961,6.811,6.811,0,0,1,.605,2.949Zm-2.375-.516A4.787,4.787,0,0,0,53.2-8.664a2.088,2.088,0,0,0-1.828-.93,2.088,2.088,0,0,0-1.82.918A4.732,4.732,0,0,0,48.9-5.984v.555a4.847,4.847,0,0,0,.641,2.7,2.082,2.082,0,0,0,1.844.961A2.064,2.064,0,0,0,53.2-2.691a4.819,4.819,0,0,0,.641-2.7Zm12.688-5.43v7.492A3.836,3.836,0,0,1,65.355-.93,4.5,4.5,0,0,1,62.164.156,4.553,4.553,0,0,1,59-.9a3.77,3.77,0,0,1-1.2-2.9v-7.578h2.344v7.508a2.167,2.167,0,0,0,.535,1.629,2.054,2.054,0,0,0,1.48.512q1.977,0,2.008-2.078v-7.57ZM77.7,0H75.352L70.789-7.484V0H68.445V-11.375h2.344l4.57,7.5v-7.5H77.7Zm2.047,0V-11.375h3.5a5.315,5.315,0,0,1,2.684.676,4.712,4.712,0,0,1,1.848,1.922,5.928,5.928,0,0,1,.664,2.832v.523a5.945,5.945,0,0,1-.652,2.82,4.672,4.672,0,0,1-1.84,1.914A5.355,5.355,0,0,1,83.266,0Zm2.344-9.477v7.594h1.133a2.545,2.545,0,0,0,2.1-.9,4.06,4.06,0,0,0,.742-2.57v-.6a4.124,4.124,0,0,0-.719-2.629,2.537,2.537,0,0,0-2.1-.895Z" transform="translate(930 5979)" fill="#12263f"/>
    <path id="Trazado_622657" data-name="Trazado 622657" d="M9.945-3.789A4.025,4.025,0,0,1,8.59-.9,4.76,4.76,0,0,1,5.367.156,4.28,4.28,0,0,1,1.926-1.316,6.038,6.038,0,0,1,.672-5.359v-.7A6.819,6.819,0,0,1,1.25-8.945,4.332,4.332,0,0,1,2.9-10.863a4.629,4.629,0,0,1,2.5-.668A4.637,4.637,0,0,1,8.57-10.477,4.326,4.326,0,0,1,9.961-7.516H7.617A2.376,2.376,0,0,0,7-9.113a2.271,2.271,0,0,0-1.605-.5,1.991,1.991,0,0,0-1.754.84,4.707,4.707,0,0,0-.6,2.605V-5.3a5.038,5.038,0,0,0,.559,2.7,1.954,1.954,0,0,0,1.762.852,2.314,2.314,0,0,0,1.621-.5A2.241,2.241,0,0,0,7.6-3.789ZM20.742,0H18.4V-4.875h-4.57V0H11.484V-11.375h2.344v4.609H18.4v-4.609h2.344Zm8.609-2.344H25.242L24.461,0H21.969L26.2-11.375h2.172L32.633,0H30.141Zm-3.477-1.9h2.844L27.289-8.5ZM36.188,0H33.844V-11.375h2.344ZM47.609,0H45.266L40.7-7.484V0H38.359V-11.375H40.7l4.57,7.5v-7.5h2.336ZM52-1.883h4.977V0h-7.32V-11.375H52ZM60.813,0H58.469V-11.375h2.344ZM72.234,0H69.891L65.328-7.484V0H62.984V-11.375h2.344l4.57,7.5v-7.5h2.336Zm5.609-4.562L76.625-3.25V0H74.281V-11.375h2.344v5.156l1.031-1.414,2.9-3.742h2.883L79.4-6.32,83.555,0H80.766Z" transform="translate(1038 5979)" fill="#12263f"/>
  </g>
</svg>
