<svg id="Grupo_947810" data-name="Grupo 947810" xmlns="http://www.w3.org/2000/svg" width="69.826" height="70.576" viewBox="0 0 69.826 70.576">
  <ellipse id="Elipse_4870" data-name="Elipse 4870" cx="34.913" cy="35.288" rx="34.913" ry="35.288" transform="translate(0 0)" fill="#49acc5"/>
  <g id="HK2OWq" transform="translate(131.61 61.989)">
    <g id="Grupo_947817" data-name="Grupo 947817" transform="translate(-118.063 -53.097)">
      <path id="Trazado_621438" data-name="Trazado 621438" d="M-75.767-10.976c.759,0,1.482,0,2.205,0a.743.743,0,0,1,.716.425.635.635,0,0,1-.084.771,2.033,2.033,0,0,1-.615.319.568.568,0,0,1-.212,0q-21.607,0-43.214,0a.9.9,0,0,1-.864-.369.748.748,0,0,1,.692-1.149c.624-.013,1.249,0,1.874,0h.317v-.316q0-8.153,0-16.306a.361.361,0,0,0-.253-.392,4.84,4.84,0,0,1-2.523-2.39,3.649,3.649,0,0,1,.1-3.27q1.855-3.718,3.717-7.432c.047-.095.091-.191.14-.3a2.392,2.392,0,0,1-1.052-1.273,2.242,2.242,0,0,1,2.119-2.954c2.035,0,4.07,0,6.1,0h.688v-.346q0-3.146,0-6.292a.765.765,0,0,1,.7-.85.73.73,0,0,1,.8.789q0,3.092,0,6.184v.495h1.488c0-.093.013-.186.013-.28q0-1.285,0-2.57a.8.8,0,0,1,.467-.8.754.754,0,0,1,1.051.725c.008.866,0,1.731,0,2.6v.351h.4q11.406,0,22.812,0a2.242,2.242,0,0,1,2.118,1.186,2.248,2.248,0,0,1-.9,3.047c.067.137.134.278.2.418,1.241,2.486,2.5,4.964,3.717,7.461a3.7,3.7,0,0,1-.741,4.266,5.771,5.771,0,0,1-1.844,1.3c-.067.029-.108.133-.147.209-.018.035,0,.088,0,.132q0,8.206,0,16.413ZM-85.6-41.082h-19.541c-.024.122-.043.226-.066.33q-.191.872-.384,1.743c-.36,1.629-.716,3.259-1.083,4.886a.747.747,0,0,1-.937.571.755.755,0,0,1-.53-.918c.2-.9.4-1.8.6-2.706l.869-3.9a.862.862,0,0,0-.118-.018c-1.758,0-3.516,0-5.274.007a.353.353,0,0,0-.241.18c-.372.719-.731,1.444-1.093,2.168q-1.439,2.88-2.877,5.761a2.158,2.158,0,0,0,.168,2.415,3.813,3.813,0,0,0,5.428.771c.643-.492,1.295-.974,1.946-1.454a2.235,2.235,0,0,1,2.62-.015c.826.6,1.627,1.242,2.463,1.832a3.644,3.644,0,0,0,4.185.215,17.8,17.8,0,0,0,1.539-1.105c.511-.371,1.007-.765,1.541-1.1a.465.465,0,0,0,.274-.465c-.009-2.026-.005-4.051,0-6.077a1.058,1.058,0,0,1,.037-.315.754.754,0,0,1,.813-.512.758.758,0,0,1,.647.793c0,1.99.01,3.98-.008,5.97,0,.334.057.553.392.66a1.078,1.078,0,0,1,.291.186q1.111.831,2.22,1.667a3.78,3.78,0,0,0,4.744.014q1.1-.821,2.2-1.653a2.28,2.28,0,0,1,2.907-.016c.528.394,1.069.772,1.573,1.194a3.846,3.846,0,0,0,5.5-.376,2.058,2.058,0,0,0,.534-2.072,14.354,14.354,0,0,0-.84-1.868c-1.09-2.2-2.194-4.394-3.287-6.593a.324.324,0,0,0-.34-.219c-1.321.009-2.641,0-3.962,0h-1.348c.017.114.027.21.047.3q.7,3.146,1.4,6.292a.755.755,0,0,1-.536.957.766.766,0,0,1-.929-.623q-.486-2.211-.975-4.421C-85.218-39.413-85.405-40.235-85.6-41.082ZM-98.365-18.527a.508.508,0,0,0,.087.024c.75,0,1.5,0,2.249.005a.713.713,0,0,1,.782.723.731.731,0,0,1-.794.774c-.687,0-1.374,0-2.062,0h-.242v6.006h21.037v-6.014c-.695,0-1.367.014-2.038-.008A1.408,1.408,0,0,1-80-17.188a.681.681,0,0,1-.267-.8.75.75,0,0,1,.773-.538c.6-.008,1.2,0,1.794,0h.393v-8.934c-.024-.018-.031-.028-.038-.028-.071,0-.142-.005-.213,0A5.325,5.325,0,0,1-80.963-28.6c-.575-.437-1.157-.864-1.733-1.3a.815.815,0,0,0-1.218-.011c-.718.542-1.446,1.073-2.158,1.623a5.3,5.3,0,0,1-6.346.124c-.8-.581-1.584-1.185-2.375-1.778a.794.794,0,0,0-1.115-.011c-.735.551-1.471,1.1-2.2,1.655a5.288,5.288,0,0,1-6.537,0q-1.108-.84-2.225-1.669a.77.77,0,0,0-1.071,0c-.543.4-1.091.8-1.623,1.223a5.32,5.32,0,0,1-2.832,1.2c-.342.032-.687.043-1.02.063v8.961h4.511c0-.114,0-.21,0-.307q0-2.811,0-5.623a1.5,1.5,0,0,1,1.585-1.6l7.331,0a1.543,1.543,0,0,1,1.628,1.625q0,1.378,0,2.756C-98.365-20.62-98.365-19.577-98.365-18.527Zm-1.524,7.509v-13.5h-7.5v13.5ZM-95.355-44.1h-10.459q-3.424,0-6.847,0a.736.736,0,0,0-.742.535.723.723,0,0,0,.369.86,1.342,1.342,0,0,0,.542.1q12.821.007,25.643,0h8.7a.777.777,0,0,0,.862-.748.791.791,0,0,0-.842-.767c-1.194.025-2.39.009-3.584.009Zm-13.571,33.114v-6h-4.484v6Z" transform="translate(118.063 53.097)" fill="#262f43"/>
      <path id="Trazado_621440" data-name="Trazado 621440" d="M339.889,461.067h-4.442a1.5,1.5,0,0,1-1.576-1.555q-.01-2.945,0-5.889a1.525,1.525,0,0,1,1.556-1.556q4.454-.005,8.908,0a1.519,1.519,0,0,1,1.584,1.6q0,2.945,0,5.889a1.494,1.494,0,0,1-1.506,1.508h-4.523Zm-4.509-1.525H344.4v-5.95H335.38Z" transform="translate(-309.664 -425.01)" fill="#262f43"/>
      <path id="Trazado_621441" data-name="Trazado 621441" d="M433.782,650.517c0,.241.006.481,0,.722a.76.76,0,0,1-.743.782.731.731,0,0,1-.768-.75c-.019-.507-.018-1.015,0-1.522a.756.756,0,0,1,.761-.738.777.777,0,0,1,.751.784C433.786,650.036,433.782,650.277,433.782,650.517Z" transform="translate(-402.785 -611.413)" fill="#262f43"/>
      <path id="Trazado_621442" data-name="Trazado 621442" d="M293.344,650.544c0,.25,0,.5,0,.749a.749.749,0,0,1-1.5.008c-.007-.517-.008-1.034,0-1.551a.748.748,0,0,1,1.5-.008C293.352,650.009,293.344,650.277,293.344,650.544Z" transform="translate(-269.89 -611.411)" fill="#262f43"/>
      <path id="Trazado_621443" data-name="Trazado 621443" d="M504.367,650.521c0,.249,0,.5,0,.748a.742.742,0,0,1-.766.751.719.719,0,0,1-.73-.751q-.005-.748,0-1.5a.748.748,0,1,1,1.5,0C504.371,650.023,504.367,650.272,504.367,650.521Z" transform="translate(-469.615 -611.413)" fill="#262f43"/>
      <path id="Trazado_621444" data-name="Trazado 621444" d="M363.358,650.507c0,.249.005.5,0,.748a.716.716,0,0,1-.718.761.73.73,0,0,1-.778-.711c-.024-.524-.021-1.051,0-1.575a.763.763,0,0,1,.781-.721.747.747,0,0,1,.715.75C363.365,650.008,363.358,650.258,363.358,650.507Z" transform="translate(-336.145 -611.41)" fill="#262f43"/>
      <path id="Trazado_621445" data-name="Trazado 621445" d="M574.28,650.533c0,.24,0,.481,0,.721a.708.708,0,0,1-.687.759.726.726,0,0,1-.8-.681,14.729,14.729,0,0,1,0-1.628.747.747,0,0,1,.773-.7.76.76,0,0,1,.715.777C574.284,650.035,574.281,650.284,574.28,650.533Z" transform="translate(-535.774 -611.409)" fill="#262f43"/>
      <path id="Trazado_621446" data-name="Trazado 621446" d="M166.459,580.406c0,.241.006.481,0,.722a.743.743,0,0,1-.7.764.718.718,0,0,1-.793-.663,12.166,12.166,0,0,1,0-1.654.718.718,0,0,1,.8-.684.743.743,0,0,1,.7.767C166.467,579.907,166.459,580.156,166.459,580.406Z" transform="translate(-149.778 -545.045)" fill="#262f43"/>
      <path id="Trazado_621447" data-name="Trazado 621447" d="M-1.88,650.527c0,.24.007.481,0,.721a.753.753,0,0,1-.75.772.72.72,0,0,1-.751-.783q-.01-.721,0-1.442a.748.748,0,0,1,.736-.783.775.775,0,0,1,.765.768C-1.872,650.029-1.88,650.278-1.88,650.527Z" transform="translate(9.529 -611.413)" fill="#262f43"/>
    </g>
  </g>
</svg>
