<svg id="Grupo_947745" data-name="Grupo 947745" xmlns="http://www.w3.org/2000/svg" width="69.826" height="70.577" viewBox="0 0 69.826 70.577">
  <ellipse id="Elipse_4870" data-name="Elipse 4870" cx="34.913" cy="35.288" rx="34.913" ry="35.288" transform="translate(0 0)" fill="#49acc5"/>
  <g id="NsJwDz.tif" transform="translate(-758.898 -1595.51)">
    <g id="Grupo_947751" data-name="Grupo 947751" transform="translate(772.687 1609.033)">
      <path id="Trazado_621402" data-name="Trazado 621402" d="M817.256,1609.212c-.179.978-.369,1.954-.534,2.935-.432,2.567-.853,5.135-1.281,7.7,0,.023-.034.042-.061.073l-2.937-2.955c-.369.387-.683.7-.974,1.033a.588.588,0,0,0-.115.361q-.007,10.376,0,20.752c0,.029.008.059.024.161.725,0,1.463-.009,2.2,0a2.112,2.112,0,0,1,2.059,1.968c.027.785.005,1.571.005,2.425a1.964,1.964,0,0,1,1.348,1.515,10.2,10.2,0,0,1,0,2.484,1.924,1.924,0,0,1-1.346,1.508c0,.777,0,1.515,0,2.253a2.117,2.117,0,0,1-2.15,2.153q-5.68.007-11.36,0a2.125,2.125,0,0,1-2.23-2.253c0-.179,0-.357,0-.609h-.571c-8.08,0-16.16-.019-24.24.018a2.322,2.322,0,0,1-2.4-2.386c.053-3.7.017-7.394.019-11.091a2.129,2.129,0,0,1,2.29-2.283c1.372,0,2.743-.012,4.115.008a.979.979,0,0,0,.774-.33q8.72-8.737,17.451-17.463c.126-.126.237-.266.381-.429l4.237,4.28,7.246-7.245-2.939-2.919c1.426-.239,2.74-.459,4.055-.678q3.3-.549,6.6-1.1a.675.675,0,0,0,.16-.073Zm-28.094,27.2a6.442,6.442,0,1,0,6.445,6.428A6.479,6.479,0,0,0,789.162,1636.407Zm-4.551,0h-9.444c-.806,0-1.032.228-1.033,1.038q0,5.409,0,10.819c0,.8.23,1.029,1.042,1.029h9.383A7.97,7.97,0,0,1,784.611,1636.407Zm-2.945-1.536.06.108c.564,0,1.129-.018,1.691.007a.9.9,0,0,0,.739-.305q6.6-6.618,13.209-13.227a2.647,2.647,0,0,0,.305-.506l4.4,4.4,10.394-10.4,1.995,2.018,1.024-6.156-6.268,1.048,2.019,1.951-9.3,9.3-4.2-4.267Zm12.057,14.42c2.119,0,4.126,0,6.133-.005a.275.275,0,0,0,.213-.116,2.345,2.345,0,0,1,1.314-1.225V1644.9a2.221,2.221,0,0,1-1.483-2.415c.023-.341,0-.686,0-1.028a2.12,2.12,0,0,1,2.206-2.187c.682,0,1.363,0,2.088,0,0-.666,0-1.288,0-1.91,0-.694-.255-.954-.937-.955q-4.562,0-9.125,0c-.105,0-.21.021-.36.038A7.934,7.934,0,0,1,793.722,1649.291Zm9.027-7.175V1640.7H802.3c-.718,0-.967.249-.972.964q0,.469,0,.938c0,.714.252.962.972.963q2.279,0,4.558,0,3.217,0,6.434,0c.585,0,.891-.242.915-.746.022-.461.018-.924,0-1.385a.694.694,0,0,0-.617-.713,5.56,5.56,0,0,0-.831-.008v1.392H811.34v-1.371H809.9v1.365h-1.436v-1.375h-1.422v1.385h-1.421v-1.379h-1.454v1.4c-.406,0-.764,0-1.121,0C802.975,1642.131,802.9,1642.124,802.749,1642.116Zm1.447,2.879h-.439c-.746,0-.992.242-1,.984,0,.283,0,.566,0,.849,0,.805.229,1.032,1.037,1.032h7.686c1.1,0,2.2.005,3.307,0a.76.76,0,0,0,.854-.855c.008-.417.014-.835,0-1.251a.728.728,0,0,0-.726-.753c-.218-.016-.439,0-.706,0v1.4h-1.436v-1.372h-1.438v1.382h-1.421v-1.376h-1.438v1.37H807.04v-1.38h-1.422v1.374H804.2Zm-1.433,4.294h-.44c-.744,0-.99.244-.993.987q0,.424,0,.849c0,.8.23,1.029,1.04,1.03h8.043c.983,0,1.966.005,2.949,0,.517,0,.821-.256.845-.724a13.429,13.429,0,0,0,0-1.429.7.7,0,0,0-.68-.7,7.174,7.174,0,0,0-.75,0v1.392h-1.436v-1.37H809.9v1.38h-1.421v-1.374h-1.438v1.368h-1.436v-1.378h-1.422v1.372h-1.421Zm7.148-29.622-.1-.067c-.348.363-.682.74-1.048,1.083a.866.866,0,0,0-.284.7q.011,8.7.005,17.392v.458h1.424Zm-2.878,19.589V1622.4c-.418.427-.757.8-1.122,1.137a.865.865,0,0,0-.293.7q.013,7.287.007,14.574c0,.144.013.287.021.445Zm-9.291-16.078a1.479,1.479,0,0,0-.724,1.383c.04,3.3.018,6.611.018,9.916v.468h1.435v-.521c0-3.246-.017-6.492.015-9.737A1.466,1.466,0,0,0,797.742,1623.178Zm6.433,2.071c-.427.441-.763.813-1.129,1.155a.865.865,0,0,0-.29.7c.011,2.475.006,4.95.006,7.425v.423l1.413.078Zm-8.6,9.72v-9.717c-.431.45-.808.809-1.139,1.206a1.057,1.057,0,0,0-.247.614c-.017,2.488-.011,4.975-.011,7.463v.434Zm5.723-.009a.624.624,0,0,0,.034-.121q0-3.955,0-7.911c0-.086.006-.2-.043-.254-.433-.452-.878-.893-1.365-1.383v9.669Zm-8.587,0v-6.8c-.454.457-.864.848-1.242,1.267a.777.777,0,0,0-.148.478c-.013,1.087-.006,2.174-.006,3.261v1.795Zm-2.848-3.7-3.7,3.7h3.7Z" transform="translate(-772.687 -1609.033)" fill="#fff"/>
      <path id="Trazado_621403" data-name="Trazado 621403" d="M817.926,1615.675H805.1v-4.237h12.822Zm-11.4-1.44h9.966v-1.38h-9.966Z" transform="translate(-802.198 -1611.222)" fill="#fff"/>
      <path id="Trazado_621404" data-name="Trazado 621404" d="M805.046,1676.563v-1.371h12.837v1.371Z" transform="translate(-802.145 -1669.26)" fill="#fff"/>
      <path id="Trazado_621405" data-name="Trazado 621405" d="M818.055,1707.175v1.363H805.222v-1.363Z" transform="translate(-802.305 -1698.377)" fill="#fff"/>
      <path id="Trazado_621406" data-name="Trazado 621406" d="M805.053,1772.364v-1.373H817.89v1.373Z" transform="translate(-802.152 -1756.473)" fill="#fff"/>
      <path id="Trazado_621407" data-name="Trazado 621407" d="M876.168,1740.472a1.8,1.8,0,0,1-.191.022h-6.9v-1.4h7.095Z" transform="translate(-860.433 -1727.436)" fill="#fff"/>
      <path id="Trazado_621408" data-name="Trazado 621408" d="M805.037,1740.506v-1.375h1.383v1.375Z" transform="translate(-802.137 -1727.469)" fill="#fff"/>
      <path id="Trazado_621409" data-name="Trazado 621409" d="M838.5,1740.492h-1.37v-1.378h1.37Z" transform="translate(-831.355 -1727.453)" fill="#fff"/>
      <path id="Trazado_621410" data-name="Trazado 621410" d="M934.032,1930.61h1.428c0,.4.014.783-.005,1.164a.432.432,0,0,0,.292.471,1.976,1.976,0,0,1,1.145,1.894h-1.4a.711.711,0,0,0-.769-.689.629.629,0,0,0-.665.486.579.579,0,0,0,.364.688c.411.208.823.414,1.235.621a2.059,2.059,0,0,1,.033,3.755.514.514,0,0,0-.22.363c-.028.4-.01.8-.01,1.22h-1.428c0-.389.025-.787-.012-1.179a.619.619,0,0,0-.264-.421,1.96,1.96,0,0,1-1.117-1.93h1.328c.218.567.48.8.908.671a.874.874,0,0,0,.539-.491.741.741,0,0,0-.3-.614,12.565,12.565,0,0,0-1.305-.676,2,2,0,0,1-1.21-1.879,2.03,2.03,0,0,1,1.177-1.858.568.568,0,0,0,.241-.393C934.053,1931.43,934.032,1931.042,934.032,1930.61Z" transform="translate(-918.268 -1901.783)" fill="#fff"/>
      <path id="Trazado_621411" data-name="Trazado 621411" d="M805.016,1933.407a2.8,2.8,0,0,1,2.81-2.818v1.363c-1.018.345-1.182.51-1.425,1.455Z" transform="translate(-802.117 -1901.764)" fill="#fff"/>
      <path id="Trazado_621412" data-name="Trazado 621412" d="M805.143,2010.5h1.366a1.548,1.548,0,0,0,1.445,1.424v1.349A2.7,2.7,0,0,1,805.143,2010.5Z" transform="translate(-802.227 -1974.508)" fill="#fff"/>
    </g>
  </g>
</svg>
