<svg xmlns="http://www.w3.org/2000/svg" width="31.93" height="44.996" viewBox="0 0 31.93 44.996"><g transform="translate(0 1)"><g transform="translate(0 57.821) rotate(-90)"><rect width="34.663" height="22.081" transform="translate(48.488 22.081) rotate(180)" fill="#e8e8e8"/><g transform="translate(15.203 12.231)"><rect width="3.752" height="3.752" transform="translate(39.866 15.947)" fill="#1565c0"/><rect width="3.752" height="3.752" transform="translate(31.893 15.947)" fill="#1565c0"/><rect width="3.752" height="3.752" transform="translate(23.92 15.947)" fill="#1565c0"/><rect width="3.752" height="3.752" transform="translate(15.947 15.947)" fill="#1565c0"/><rect width="3.752" height="3.752" transform="translate(7.973 15.947)" fill="#1565c0"/><rect width="3.752" height="3.752" transform="translate(39.866 7.973)" fill="#1565c0"/><rect width="3.752" height="3.752" transform="translate(31.893 7.973)" fill="#1565c0"/><rect width="3.752" height="3.752" transform="translate(23.92 7.973)" fill="#1565c0"/><rect width="3.752" height="3.752" transform="translate(15.947 7.973)" fill="#1565c0"/><rect width="3.752" height="3.752" transform="translate(7.973 7.973)" fill="#1565c0"/><rect width="3.752" height="3.752" transform="translate(39.866)" fill="#1565c0"/><rect width="3.752" height="3.752" transform="translate(31.893)" fill="#1565c0"/><rect width="3.752" height="3.752" transform="translate(23.92)" fill="#1565c0"/><rect width="3.752" height="3.752" transform="translate(15.947)" fill="#1565c0"/><rect width="3.752" height="3.752" transform="translate(7.973)" fill="#1565c0"/></g></g></g></svg>