<svg id="Grupo_947813" data-name="Grupo 947813" xmlns="http://www.w3.org/2000/svg" width="69.826" height="70.576" viewBox="0 0 69.826 70.576">
  <ellipse id="Elipse_4870" data-name="Elipse 4870" cx="34.913" cy="35.288" rx="34.913" ry="35.288" transform="translate(0 0)" fill="#ff5422"/>
  <g id="x39wno.tif" transform="translate(-1156.823 -4858.572)">
    <g id="Grupo_947820" data-name="Grupo 947820" transform="translate(1172.048 4871.079)">
      <path id="Trazado_621465" data-name="Trazado 621465" d="M1211.383,4883.69c-.1.422-.184.85-.312,1.263a7.161,7.161,0,0,1-3.8,4.434,1.408,1.408,0,0,0-.529.468c-.645.995-1.262,2.007-1.893,3.012-.422.671-.925.672-1.348,0-.639-1.015-1.265-2.037-1.915-3.045a1.206,1.206,0,0,0-.471-.413,7.214,7.214,0,0,1,1.911-13.661,1.837,1.837,0,0,0,.2-.066h-4.258a9.333,9.333,0,0,1-.763,1.188,2.27,2.27,0,0,1-1.786.761q-4.626-.006-9.252,0a2.458,2.458,0,0,1-2.515-1.76c-.023-.062-.051-.124-.079-.193h-4.609v4.518a16.46,16.46,0,0,1,1.944.556,6.869,6.869,0,0,1,4.548,6.243,6.975,6.975,0,0,1-4.07,6.978,1.549,1.549,0,0,0-.554.5c-.638.983-1.248,1.985-1.871,2.977-.425.675-.928.681-1.348.014-.639-1.015-1.265-2.038-1.915-3.046a1.207,1.207,0,0,0-.469-.416,7.22,7.22,0,0,1,1.7-13.635c.225-.045.453-.075.7-.116v-2.882c0-.982,0-1.965,0-2.947a3.259,3.259,0,0,1,2.522-3.256,1.114,1.114,0,0,0,.178-.083h20.8a.7.7,0,0,0,.138.076,3.256,3.256,0,0,1,2.563,3.335c0,.39,0,.779,0,1.164.17.035.289.063.409.083a7.1,7.1,0,0,1,5.853,5.092c.132.4.2.815.29,1.223Zm-7.206,7.755c.524-.839,1.027-1.611,1.495-2.406a1.964,1.964,0,0,1,.953-.836,5.891,5.891,0,1,0-4.893,0,1.954,1.954,0,0,1,.951.839C1203.151,4889.836,1203.654,4890.608,1204.177,4891.445Zm-24.9,4.585c.523-.836,1.026-1.609,1.493-2.4a1.951,1.951,0,0,1,.952-.838,5.888,5.888,0,1,0-4.893,0,1.967,1.967,0,0,1,.953.838C1178.253,4894.42,1178.757,4895.192,1179.281,4896.03Zm.677-21.674h.444q2.312,0,4.625,0c.563,0,.764.188.8.737a1.236,1.236,0,0,0,1.274,1.224q4.625.012,9.25,0a1.237,1.237,0,0,0,1.27-1.187c.053-.611.231-.774.85-.775h5.027a1.958,1.958,0,0,0-2.1-1.967q-9.68,0-19.359,0c-.068,0-.137,0-.2,0A1.956,1.956,0,0,0,1179.958,4874.356Z" transform="translate(-1172.048 -4871.079)" fill="#262f43"/>
      <path id="Trazado_621466" data-name="Trazado 621466" d="M1308.222,5084.632h1.292c0,.176,0,.348,0,.519.013.466.289.779.673.767a.688.688,0,0,0,.637-.761c.008-.969,0-1.937,0-2.906,0-.067.007-.134.013-.244h12.771c-.259-.648-.483-1.244-.745-1.823-.043-.094-.26-.154-.4-.154-2.142-.01-4.284-.007-6.427-.007h-3.876v-1.308h10.873c.6,0,.719.079.944.639q.586,1.459,1.169,2.918a.472.472,0,0,1,.058.152c-.01,1.116.017,2.234-.058,3.346a1.526,1.526,0,0,1-.94,1.213.471.471,0,0,0-.292.506c.008,2.47.005,4.939,0,7.409,0,.646-.205.848-.859.848h-12.689c-.669,0-.862-.2-.862-.884,0-2.456,0-4.912,0-7.368a.484.484,0,0,0-.288-.51C1308.418,5086.546,1308.157,5085.918,1308.222,5084.632Zm5.226,9.79v-.479q0-2.291,0-4.583c0-.6.213-.816.805-.817q2.455,0,4.91,0c.624,0,.832.208.833.831q0,2.312,0,4.624v.419h2.624v-.462c0-2.032-.026-4.064.016-6.1.012-.579-.151-.919-.707-1.076a353.815,353.815,0,0,0-5.207-.02,2.035,2.035,0,0,1-2.605.011c-1.073.615-1.345.615-2.623.031-.674.145-.686.609-.68,1.149.025,2,.01,4.01.01,6.014v.453Zm1.337-4.553v4.538h3.883v-4.538Zm-2.646-6.553c0,.679-.014,1.318.005,1.957a.658.658,0,0,0,.623.645.647.647,0,0,0,.666-.6c.027-.662.008-1.327.008-2.006Zm2.617,0c0,.61,0,1.182,0,1.753a1.867,1.867,0,0,0,0,.2.684.684,0,0,0,.628.645.647.647,0,0,0,.665-.6c.027-.663.008-1.327.008-2.006Zm2.629,0c0,.684-.025,1.35.01,2.012a.6.6,0,0,0,.631.579.575.575,0,0,0,.631-.526c.042-.687.013-1.377.013-2.065Zm2.614,0c0,.669-.011,1.3,0,1.921a.666.666,0,0,0,.629.682.648.648,0,0,0,.663-.6c.027-.663.008-1.327.008-2Zm3.929.018h-1.308c0,.659-.012,1.286,0,1.912a.649.649,0,1,0,1.3.025C1323.942,5084.631,1323.927,5083.992,1323.927,5083.332Z" transform="translate(-1297.041 -5061.682)" fill="#262f43"/>
      <path id="Trazado_621467" data-name="Trazado 621467" d="M1252.234,5166.029h1.307v.43q0,3.582,0,7.164a2.014,2.014,0,0,0,2.235,2.222h19.119a2.013,2.013,0,0,0,2.235-2.223q0-7.143,0-14.287v-.5h1.307v.43q0,7.245,0,14.492a3.255,3.255,0,0,1-3.4,3.4h-19.405a3.256,3.256,0,0,1-3.4-3.395q0-3.644,0-7.287Z" transform="translate(-1245.655 -5135.225)" fill="#262f43"/>
      <path id="Trazado_621468" data-name="Trazado 621468" d="M1356.179,5303.96v-1.248h11.748v1.248Z" transform="translate(-1341.073 -5267.3)" fill="#262f43"/>
      <path id="Trazado_621469" data-name="Trazado 621469" d="M1252.656,5214.576h1.242v1.271h-1.242Z" transform="translate(-1246.043 -5186.396)" fill="#262f43"/>
      <path id="Trazado_621470" data-name="Trazado 621470" d="M1324.446,5302.547h1.259v1.256h-1.259Z" transform="translate(-1311.943 -5267.148)" fill="#262f43"/>
      <path id="Trazado_621471" data-name="Trazado 621471" d="M1527.962,4983.995l-.753-.828,5.2-5.194.777.8Z" transform="translate(-1498.072 -4969.202)" fill="#262f43"/>
      <path id="Trazado_621472" data-name="Trazado 621472" d="M1533.361,4984.5h-1.242v-1.271h1.242Z" transform="translate(-1502.578 -4974.027)" fill="#262f43"/>
      <path id="Trazado_621473" data-name="Trazado 621473" d="M1581.277,5032.391h-1.254v-1.261h1.254Z" transform="translate(-1546.552 -5017.999)" fill="#262f43"/>
      <path id="Trazado_621474" data-name="Trazado 621474" d="M1220.3,5034.059a3.274,3.274,0,1,1,3.241,3.295A3.256,3.256,0,0,1,1220.3,5034.059Zm1.311.027a1.964,1.964,0,1,0,1.988-1.971A1.993,1.993,0,0,0,1221.609,5034.086Z" transform="translate(-1216.339 -5017.702)" fill="#262f43"/>
      <path id="Trazado_621475" data-name="Trazado 621475" d="M1376.266,4904.54v-1.261h5.841v1.261Z" transform="translate(-1359.512 -4900.637)" fill="#262f43"/>
    </g>
  </g>
</svg>
