<svg xmlns="http://www.w3.org/2000/svg" width="79.911" height="86.251" viewBox="0 0 79.911 86.251">
  <g id="nhVMZ3.tif" transform="translate(190.976 -818.972)">
    <g id="Grupo_948529" data-name="Grupo 948529" transform="translate(-190.976 818.972)">
      <path id="Trazado_622103" data-name="Trazado 622103" d="M-146.885,919.143a14.672,14.672,0,0,1-1.823-1.066,4.724,4.724,0,0,1-1.558-3.674c-.064-.922-.148-1.843-.233-2.887-.232.192-.414.316-.563.471-1.1,1.138-2.167,2.312-3.3,3.42a4.241,4.241,0,0,1-7.018-1.433c-1.784-4.738-3.456-9.52-5.114-14.3a4.2,4.2,0,0,1,1.248-4.567c3.828-3.82,7.64-7.656,11.482-11.462a1.879,1.879,0,0,0,.654-1.7c-.363-3.683-.634-7.376-.985-11.06a1.406,1.406,0,0,0-.627-.926,4.375,4.375,0,0,1-2.279-4.9,4.272,4.272,0,0,1,4.338-3.3c1.01,0,2.021,0,3.1,0-1.23-7.656.653-14.3,6.159-19.724a20.576,20.576,0,0,1,15.655-6.08,20.752,20.752,0,0,1,16.174,8.128c4.123,5.169,5.41,11.107,4.288,17.677,1.083,0,2.093,0,3.1,0a4.273,4.273,0,0,1,4.343,3.289,4.37,4.37,0,0,1-2.269,4.9,1.394,1.394,0,0,0-.633.921c-.583,6.391-1.117,12.787-1.681,19.18-.566,6.423-1.157,12.843-1.733,19.265-.173,1.933-.317,3.868-.506,5.8a4.2,4.2,0,0,1-3.089,3.868c-.075.025-.132.106-.2.161ZM-150.366,880c.186-.033.225-.028.242-.045,1.125-1.114,2.241-2.237,3.373-3.344a4.183,4.183,0,0,1,4.938-.917q6.064,2.967,12.078,6.036a4.1,4.1,0,0,1,2.3,3.871,4.81,4.81,0,0,1-1.609,3.382q-9.095,9.468-18.172,18.954a1.815,1.815,0,0,0-.574,1.586c.19,1.75.334,3.506.513,5.258a1.429,1.429,0,0,0,1.637,1.488q17.206.012,34.412,0c1.091,0,1.574-.451,1.674-1.547.38-4.161.742-8.324,1.114-12.486q.59-6.6,1.185-13.2.6-6.778,1.2-13.557c.148-1.681.282-3.363.425-5.076h-45.583Zm6.8-18.289H-110.3a17.35,17.35,0,0,0,.092-8.081l-4.064,1.15-.771-2.758,4.034-1.228a18.652,18.652,0,0,0-7.233-8.942l-2.122,3.828-2.523-1.383,2.087-3.852a18.328,18.328,0,0,0-11.444-1.208l1.165,4.062-2.76.787-1.227-4.05A18.553,18.553,0,0,0-144,847.283l2.038,1.143-1.38,2.519-2.068-1.1a18.217,18.217,0,0,0-1.212,11.438l2.656-.743Zm13.212,24.106a1.725,1.725,0,0,0-1.164-1.764q-5.483-2.733-10.964-5.468c-1.259-.627-1.578-.566-2.59.446q-8.966,8.966-17.943,17.922a2.027,2.027,0,0,0-.55,2.4c1.569,4.311,3.1,8.635,4.647,12.953.616,1.718,1.651,1.959,2.9.659q5.088-5.3,10.162-10.615,7.341-7.672,14.673-15.352A7.967,7.967,0,0,0-130.356,885.819Zm1.833-18.321q12.048,0,24.1,0c1.115,0,1.808-.555,1.82-1.42s-.682-1.45-1.788-1.451q-24.007-.005-48.014,0c-1.118,0-1.807.552-1.819,1.419s.681,1.435,1.787,1.454c.209,0,.418,0,.627,0Z" transform="translate(171.091 -832.892)"/>
      <path id="Trazado_622104" data-name="Trazado 622104" d="M-190.976,848.834l1.973-1.755,2.794,2.854-1.922,1.76-2.844-2.679Z" transform="translate(190.976 -842.028)"/>
      <path id="Trazado_622105" data-name="Trazado 622105" d="M-155.674,879.374l9.859,9.863-1.9,1.679-9.858-9.858Z" transform="translate(163.574 -868.519)"/>
      <path id="Trazado_622106" data-name="Trazado 622106" d="M-131.708,839.517l8.395,8.4-1.919,1.67-8.378-8.384Z" transform="translate(143.919 -835.825)"/>
      <path id="Trazado_622107" data-name="Trazado 622107" d="M190.994,892.57h-2.777c-.4-3.4-2.288-5.351-5.74-5.739v-2.753C186.8,883.681,191.141,887.982,190.994,892.57Z" transform="translate(-115.366 -872.357)"/>
      <path id="Trazado_622108" data-name="Trazado 622108" d="M218.66,867.231a4.475,4.475,0,0,0-4.294-4.293v-2.744c3.561-.42,7.434,3.449,7.042,7.037Z" transform="translate(-141.524 -852.761)"/>
      <path id="Trazado_622109" data-name="Trazado 622109" d="M-86.317,820.8l1.811-1.823,4.979,5.017-1.846,1.761Z" transform="translate(105.125 -818.972)"/>
      <path id="Trazado_622110" data-name="Trazado 622110" d="M-79.519,1037.327l-.848-9.595h45.583c-.143,1.713-.278,3.4-.425,5.077q-.594,6.779-1.2,13.557-.588,6.6-1.185,13.2c-.372,4.162-.734,8.325-1.114,12.486-.1,1.1-.583,1.546-1.674,1.547q-17.206.011-34.412,0a1.429,1.429,0,0,1-1.637-1.488c-.179-1.752-.323-3.507-.513-5.258a1.815,1.815,0,0,1,.574-1.586q9.1-9.462,18.172-18.954a4.81,4.81,0,0,0,1.609-3.382,4.1,4.1,0,0,0-2.3-3.871q-6.012-3.07-12.078-6.036a4.183,4.183,0,0,0-4.938.917c-1.132,1.106-2.248,2.23-3.373,3.344C-79.294,1037.3-79.333,1037.293-79.519,1037.327Zm22,14.832v2.724c4.906.233,8.857-4.516,8.451-8.492h-2.722C-52.365,1049.989-53.711,1051.339-57.516,1052.158Zm5.728,7c3.555.423,7.432-3.449,7.042-7.036H-47.5a4.491,4.491,0,0,1-4.29,4.311Z" transform="translate(100.244 -990.217)" fill="#ffd800"/>
      <path id="Trazado_622111" data-name="Trazado 622111" d="M-53.727,874.816l-.4-1.174-2.656.743a18.218,18.218,0,0,1,1.212-11.438l2.068,1.1,1.38-2.519-2.038-1.143a18.552,18.552,0,0,1,8.933-7.244l1.227,4.05,2.76-.787-1.165-4.062a18.327,18.327,0,0,1,11.444,1.208l-2.087,3.852,2.523,1.383,2.122-3.828a18.651,18.651,0,0,1,7.233,8.942l-4.034,1.228.771,2.758,4.063-1.15a17.35,17.35,0,0,1-.092,8.081Zm5.64-11.947,9.523,9.491,6.612-4.962-1.743-2.3-4.793,3.572-7.6-7.63Z" transform="translate(81.25 -845.994)" fill="#e8e8e8"/>
      <path id="Trazado_622112" data-name="Trazado 622112" d="M-116.708,1078.63a7.975,7.975,0,0,1-.831,1.184q-7.321,7.691-14.673,15.352-5.08,5.309-10.162,10.615c-1.247,1.3-2.282,1.059-2.9-.659-1.548-4.318-3.078-8.643-4.647-12.954a2.027,2.027,0,0,1,.55-2.4q9-8.934,17.943-17.922c1.012-1.012,1.331-1.073,2.59-.446q5.485,2.729,10.964,5.467A1.725,1.725,0,0,1-116.708,1078.63Zm-4.85,1.2c-.14-1.593-.694-2.525-1.857-3.011q-2.142-.9-4.31-1.728a2.813,2.813,0,0,0-3.19.755q-7.129,7.122-14.248,14.254a2.825,2.825,0,0,0-.683,3.281c.558,1.381,1.078,2.777,1.67,4.143a2.829,2.829,0,0,0,4.771.938q8.48-8.431,16.9-16.926A6.341,6.341,0,0,0-121.558,1079.826Z" transform="translate(157.444 -1025.703)" fill="#afafaf"/>
      <path id="Trazado_622113" data-name="Trazado 622113" d="M-71.434,998.413H-94.725c-.209,0-.418,0-.627,0-1.106-.019-1.8-.584-1.787-1.454s.7-1.419,1.819-1.419q24.007,0,48.014,0c1.106,0,1.8.58,1.788,1.451s-.7,1.42-1.82,1.42Q-59.386,998.417-71.434,998.413Z" transform="translate(114.002 -963.807)" fill="#1565c0"/>
      <path id="Trazado_622114" data-name="Trazado 622114" d="M46.793,1137.326c3.8-.82,5.151-2.17,5.728-5.768h2.722c.406,3.976-3.544,8.725-8.451,8.492Z" transform="translate(-4.065 -1075.385)"/>
      <path id="Trazado_622115" data-name="Trazado 622115" d="M78.669,1170.5v-2.725a4.491,4.491,0,0,0,4.29-4.311h2.752C86.1,1167.056,82.224,1170.927,78.669,1170.5Z" transform="translate(-30.212 -1101.561)"/>
      <path id="Trazado_622116" data-name="Trazado 622116" d="M-6.438,904.515l1.994-1.831,7.6,7.63,4.793-3.571,1.743,2.3-6.612,4.962Z" transform="translate(39.6 -887.641)"/>
      <path id="Trazado_622117" data-name="Trazado 622117" d="M-103.31,1097.542a6.339,6.339,0,0,1-.951,1.707q-8.407,8.5-16.9,16.926a2.829,2.829,0,0,1-4.771-.938c-.592-1.366-1.112-2.762-1.67-4.143a2.825,2.825,0,0,1,.683-3.281q7.116-7.135,14.248-14.254a2.813,2.813,0,0,1,3.19-.755q2.168.829,4.31,1.728C-104,1095.017-103.45,1095.949-103.31,1097.542Zm-3.079-.391c-1.257-.5-2.461-1.008-3.689-1.445a.976.976,0,0,0-.827.216q-6.83,6.781-13.615,13.607c-.165.165-.356.5-.295.664.479,1.3,1.018,2.584,1.527,3.844Z" transform="translate(139.195 -1043.419)"/>
    </g>
  </g>
</svg>
