<svg xmlns="http://www.w3.org/2000/svg" width="820" height="458.541" viewBox="0 0 820 458.541">
  <g id="Grupo_947869" data-name="Grupo 947869" transform="translate(-390 -11869.748)">
    <g id="_6258jg.tif" data-name="6258jg.tif" transform="translate(451.732 11905.045)">
      <g id="Grupo_947854" data-name="Grupo 947854" transform="translate(0 0)">
        <path id="Trazado_621481" data-name="Trazado 621481" d="M646.14,5350.047c.741-2.7,1.288-5.477,2.257-8.1,3.753-10.14,10.823-17.2,20.689-21.463a3.192,3.192,0,0,0,2.2-2.905,26.727,26.727,0,0,1,27.317-23.521,25.548,25.548,0,0,1,12.373,3.932c.6.357,1.2.72,1.8,1.083,12.259-24.843,39.031-33.626,60.957-26.611,20.851,6.671,36.786,26.915,35.49,50.986,3.094.913,6.26,1.57,9.209,2.762,14.1,5.7,22.832,20.094,21.119,34.548-1.9,16.037-13.723,28.368-29.394,30.67a6.406,6.406,0,0,0-1.08.358H679.424a7.324,7.324,0,0,0-1.078-.359q-23.36-4.039-30.7-26.547c-.67-2.057-1.012-4.219-1.506-6.333Zm32.5-24.978c-.86.25-1.41.43-1.971.57a29.6,29.6,0,0,0,7.026,58.406q60.561.1,121.123.008c14.037-.013,24.949-9.686,26.836-23.605,1.9-13.993-8.444-27.606-22.394-29.371-2.841-.359-5.725-.382-8.747-.57,2.038-10.613.949-20.736-4.293-30.19a42.143,42.143,0,0,0-23.284-19.853,41.528,41.528,0,0,0-27.317-.574c-15.733,5.065-25.119,16.277-29.805,32.223-6.773-8.406-14.693-12.872-25.017-8.856C681.036,5307.054,677.72,5315,678.64,5325.069Z" transform="translate(-646.14 -5270.132)" fill="#12263f"/>
      </g>
    </g>
    <g id="Grupo_947855" data-name="Grupo 947855" transform="translate(390 12176.699)">
      <path id="Trazado_621482" data-name="Trazado 621482" d="M478.584,5108.837v-16.911q0-10.073,0-20.146a12.875,12.875,0,0,1,1.363-6,13.118,13.118,0,0,1,9.839-7.306,14.839,14.839,0,0,1,2.49-.193c6.054-.016,12.108-.009,18.162-.009q6.4,0,12.8,0a13.349,13.349,0,0,1,13.178,10.66,13.774,13.774,0,0,1,.273,2.792q.027,16.738.012,33.475v19.9q0,10.421,0,20.843a12.9,12.9,0,0,1-1.369,6,13.106,13.106,0,0,1-9.85,7.29,14.9,14.9,0,0,1-2.49.191q-8.821.025-17.642.011l-13.291,0a13.354,13.354,0,0,1-13.2-10.679A13.781,13.781,0,0,1,478.6,5146c-.021-7.644-.012-15.287-.012-22.931Zm3.007-37.694v76.047h52.094v-76.047Zm.152,76.819a10.03,10.03,0,0,0,2.777,5.375,10.278,10.278,0,0,0,7.594,3.111q15.276.009,30.553,0a14.269,14.269,0,0,0,2.114-.122,10.078,10.078,0,0,0,7.932-5.778,9.214,9.214,0,0,0,.83-2.585Zm51.867-77.6c0-.079,0-.135,0-.189a1.305,1.305,0,0,0-.012-.173,10.353,10.353,0,0,0-10.436-8.742c-5.3-.014-10.6,0-15.9,0-3,0-6.007-.009-9.011,0-2.388.007-4.779-.026-7.164.068a9.725,9.725,0,0,0-6.14,2.608,9.487,9.487,0,0,0-2.811,4.305c-.215.684-.358,1.391-.543,2.125Z" transform="translate(-478.582 -5058.272)" fill="#12263f"/>
      <path id="Trazado_621483" data-name="Trazado 621483" d="M651,5682.928h-2.137c-.325,0-.65-.007-.974,0-.2.006-.283-.066-.31-.273-.084-.641-.191-1.278-.292-1.937h-3.911c-.083.559-.176,1.114-.245,1.673-.066.533-.054.535-.573.535h-2.944c.094-.562.176-1.081.269-1.6q.613-3.409,1.231-6.817l1.206-6.68c.271-1.5.547-3,.808-4.5.047-.27.131-.391.438-.386,1.24.02,2.481.014,3.722,0,.241,0,.333.064.377.32.56,3.278,1.139,6.553,1.707,9.83q.843,4.863,1.673,9.728C651.048,5682.84,651.038,5682.852,651,5682.928Zm-4.288-5.308-1.3-8.909h-.036l-1.413,8.909Z" transform="translate(-628.407 -5620.863)" fill="#12263f"/>
      <path id="Trazado_621484" data-name="Trazado 621484" d="M1021.826,5675.588v.664q0,3.13,0,6.262c0,.449,0,.451-.464.451-.87,0-1.74-.018-2.609.009-.351.01-.453-.083-.45-.443q.044-6.365.058-12.731c.007-2.146.01-4.291,0-6.436,0-.327.117-.376.4-.375,1.786.012,3.571,0,5.357.007a5.277,5.277,0,0,1,5.522,4.972,7.391,7.391,0,0,1-1,4.969,5.369,5.369,0,0,1-4.745,2.653Zm.02-3.477c.706,0,1.387-.01,2.069,0a2.046,2.046,0,0,0,1.91-1.216,3.834,3.834,0,0,0,.41-2.481,2.132,2.132,0,0,0-1.911-1.978,24.048,24.048,0,0,0-2.478-.017Z" transform="translate(-980.739 -5620.899)" fill="#12263f"/>
      <path id="Trazado_621485" data-name="Trazado 621485" d="M833.56,5675.5v7.343a2.5,2.5,0,0,1-.281.031c-.951,0-1.9-.008-2.853.007-.276,0-.354-.077-.352-.354q.035-5.706.049-11.413.013-3.841.022-7.683c0-.607-.067-.526.545-.527,1.786,0,3.573-.035,5.359.01a5.15,5.15,0,0,1,4.618,2.6,6.273,6.273,0,0,1,.79,3.021,7.115,7.115,0,0,1-1.311,4.684,5.364,5.364,0,0,1-4.6,2.281C834.9,5675.488,834.252,5675.5,833.56,5675.5Zm.009-3.478c.722,0,1.4-.017,2.086,0a1.934,1.934,0,0,0,1.663-.835,3.673,3.673,0,0,0,.675-2.793,2.154,2.154,0,0,0-2.052-2.075c-.519-.032-1.041,0-1.562,0h-.81Z" transform="translate(-805.61 -5620.807)" fill="#12263f"/>
      <path id="Trazado_621486" data-name="Trazado 621486" d="M825.929,6385.384c-.788,0-1.577.02-2.365-.006a2.17,2.17,0,0,1-1.491-.648,1.424,1.424,0,0,1,.108-2.193,2.357,2.357,0,0,1,1.5-.559q2.261-.016,4.522,0a2.317,2.317,0,0,1,1.414.5,1.454,1.454,0,0,1-.154,2.509,3.055,3.055,0,0,1-1.239.384c-.76.06-1.529.017-2.294.017Z" transform="translate(-797.734 -6289.841)" fill="#12263f"/>
      <path id="Trazado_621487" data-name="Trazado 621487" d="M776.526,5133.5q3.165,0,6.329,0a2.369,2.369,0,0,1,1.4,4.361,2.435,2.435,0,0,1-1.384.382q-6.154.007-12.309-.005a3.683,3.683,0,0,1-1.254-.19,2.3,2.3,0,0,1-1.5-2.589,2.359,2.359,0,0,1,2.326-1.951c1.309-.012,2.619.015,3.928.021.821,0,1.642,0,2.463,0Z" transform="translate(-747.645 -5128.262)" fill="#12263f"/>
      <path id="Trazado_621488" data-name="Trazado 621488" d="M627.781,5130.992a2.474,2.474,0,1,1-2.492,2.49A2.484,2.484,0,0,1,627.781,5130.992Z" transform="translate(-615.079 -5125.931)" fill="#12263f"/>
    </g>
    <g id="Grupo_947856" data-name="Grupo 947856" transform="translate(464.589 12176.699)">
      <path id="Trazado_621482-2" data-name="Trazado 621482" d="M478.584,5108.837v-16.911q0-10.073,0-20.146a12.875,12.875,0,0,1,1.363-6,13.118,13.118,0,0,1,9.839-7.306,14.839,14.839,0,0,1,2.49-.193c6.054-.016,12.108-.009,18.162-.009q6.4,0,12.8,0a13.349,13.349,0,0,1,13.178,10.66,13.774,13.774,0,0,1,.273,2.792q.027,16.738.012,33.475v19.9q0,10.421,0,20.843a12.9,12.9,0,0,1-1.369,6,13.106,13.106,0,0,1-9.85,7.29,14.9,14.9,0,0,1-2.49.191q-8.821.025-17.642.011l-13.291,0a13.354,13.354,0,0,1-13.2-10.679A13.781,13.781,0,0,1,478.6,5146c-.021-7.644-.012-15.287-.012-22.931Zm3.007-37.694v76.047h52.094v-76.047Zm.152,76.819a10.03,10.03,0,0,0,2.777,5.375,10.278,10.278,0,0,0,7.594,3.111q15.276.009,30.553,0a14.269,14.269,0,0,0,2.114-.122,10.078,10.078,0,0,0,7.932-5.778,9.214,9.214,0,0,0,.83-2.585Zm51.867-77.6c0-.079,0-.135,0-.189a1.305,1.305,0,0,0-.012-.173,10.353,10.353,0,0,0-10.436-8.742c-5.3-.014-10.6,0-15.9,0-3,0-6.007-.009-9.011,0-2.388.007-4.779-.026-7.164.068a9.725,9.725,0,0,0-6.14,2.608,9.487,9.487,0,0,0-2.811,4.305c-.215.684-.358,1.391-.543,2.125Z" transform="translate(-478.582 -5058.272)" fill="#12263f"/>
      <path id="Trazado_621483-2" data-name="Trazado 621483" d="M651,5682.928h-2.137c-.325,0-.65-.007-.974,0-.2.006-.283-.066-.31-.273-.084-.641-.191-1.278-.292-1.937h-3.911c-.083.559-.176,1.114-.245,1.673-.066.533-.054.535-.573.535h-2.944c.094-.562.176-1.081.269-1.6q.613-3.409,1.231-6.817l1.206-6.68c.271-1.5.547-3,.808-4.5.047-.27.131-.391.438-.386,1.24.02,2.481.014,3.722,0,.241,0,.333.064.377.32.56,3.278,1.139,6.553,1.707,9.83q.843,4.863,1.673,9.728C651.048,5682.84,651.038,5682.852,651,5682.928Zm-4.288-5.308-1.3-8.909h-.036l-1.413,8.909Z" transform="translate(-628.407 -5620.863)" fill="#12263f"/>
      <path id="Trazado_621484-2" data-name="Trazado 621484" d="M1021.826,5675.588v.664q0,3.13,0,6.262c0,.449,0,.451-.464.451-.87,0-1.74-.018-2.609.009-.351.01-.453-.083-.45-.443q.044-6.365.058-12.731c.007-2.146.01-4.291,0-6.436,0-.327.117-.376.4-.375,1.786.012,3.571,0,5.357.007a5.277,5.277,0,0,1,5.522,4.972,7.391,7.391,0,0,1-1,4.969,5.369,5.369,0,0,1-4.745,2.653Zm.02-3.477c.706,0,1.387-.01,2.069,0a2.046,2.046,0,0,0,1.91-1.216,3.834,3.834,0,0,0,.41-2.481,2.132,2.132,0,0,0-1.911-1.978,24.048,24.048,0,0,0-2.478-.017Z" transform="translate(-980.739 -5620.899)" fill="#12263f"/>
      <path id="Trazado_621485-2" data-name="Trazado 621485" d="M833.56,5675.5v7.343a2.5,2.5,0,0,1-.281.031c-.951,0-1.9-.008-2.853.007-.276,0-.354-.077-.352-.354q.035-5.706.049-11.413.013-3.841.022-7.683c0-.607-.067-.526.545-.527,1.786,0,3.573-.035,5.359.01a5.15,5.15,0,0,1,4.618,2.6,6.273,6.273,0,0,1,.79,3.021,7.115,7.115,0,0,1-1.311,4.684,5.364,5.364,0,0,1-4.6,2.281C834.9,5675.488,834.252,5675.5,833.56,5675.5Zm.009-3.478c.722,0,1.4-.017,2.086,0a1.934,1.934,0,0,0,1.663-.835,3.673,3.673,0,0,0,.675-2.793,2.154,2.154,0,0,0-2.052-2.075c-.519-.032-1.041,0-1.562,0h-.81Z" transform="translate(-805.61 -5620.807)" fill="#12263f"/>
      <path id="Trazado_621486-2" data-name="Trazado 621486" d="M825.929,6385.384c-.788,0-1.577.02-2.365-.006a2.17,2.17,0,0,1-1.491-.648,1.424,1.424,0,0,1,.108-2.193,2.357,2.357,0,0,1,1.5-.559q2.261-.016,4.522,0a2.317,2.317,0,0,1,1.414.5,1.454,1.454,0,0,1-.154,2.509,3.055,3.055,0,0,1-1.239.384c-.76.06-1.529.017-2.294.017Z" transform="translate(-797.734 -6289.841)" fill="#12263f"/>
      <path id="Trazado_621487-2" data-name="Trazado 621487" d="M776.526,5133.5q3.165,0,6.329,0a2.369,2.369,0,0,1,1.4,4.361,2.435,2.435,0,0,1-1.384.382q-6.154.007-12.309-.005a3.683,3.683,0,0,1-1.254-.19,2.3,2.3,0,0,1-1.5-2.589,2.359,2.359,0,0,1,2.326-1.951c1.309-.012,2.619.015,3.928.021.821,0,1.642,0,2.463,0Z" transform="translate(-747.645 -5128.262)" fill="#12263f"/>
      <path id="Trazado_621488-2" data-name="Trazado 621488" d="M627.781,5130.992a2.474,2.474,0,1,1-2.492,2.49A2.484,2.484,0,0,1,627.781,5130.992Z" transform="translate(-615.079 -5125.931)" fill="#12263f"/>
    </g>
    <g id="Grupo_947861" data-name="Grupo 947861" transform="translate(864.175 12227.124)">
      <path id="Trazado_621482-3" data-name="Trazado 621482" d="M478.584,5108.837v-16.911q0-10.073,0-20.146a12.875,12.875,0,0,1,1.363-6,13.118,13.118,0,0,1,9.839-7.306,14.839,14.839,0,0,1,2.49-.193c6.054-.016,12.108-.009,18.162-.009q6.4,0,12.8,0a13.349,13.349,0,0,1,13.178,10.66,13.774,13.774,0,0,1,.273,2.792q.027,16.738.012,33.475v19.9q0,10.421,0,20.843a12.9,12.9,0,0,1-1.369,6,13.106,13.106,0,0,1-9.85,7.29,14.9,14.9,0,0,1-2.49.191q-8.821.025-17.642.011l-13.291,0a13.354,13.354,0,0,1-13.2-10.679A13.781,13.781,0,0,1,478.6,5146c-.021-7.644-.012-15.287-.012-22.931Zm3.007-37.694v76.047h52.094v-76.047Zm.152,76.819a10.03,10.03,0,0,0,2.777,5.375,10.278,10.278,0,0,0,7.594,3.111q15.276.009,30.553,0a14.269,14.269,0,0,0,2.114-.122,10.078,10.078,0,0,0,7.932-5.778,9.214,9.214,0,0,0,.83-2.585Zm51.867-77.6c0-.079,0-.135,0-.189a1.305,1.305,0,0,0-.012-.173,10.353,10.353,0,0,0-10.436-8.742c-5.3-.014-10.6,0-15.9,0-3,0-6.007-.009-9.011,0-2.388.007-4.779-.026-7.164.068a9.725,9.725,0,0,0-6.14,2.608,9.487,9.487,0,0,0-2.811,4.305c-.215.684-.358,1.391-.543,2.125Z" transform="translate(-478.582 -5058.272)" fill="#12263f"/>
      <path id="Trazado_621483-3" data-name="Trazado 621483" d="M651,5682.928h-2.137c-.325,0-.65-.007-.974,0-.2.006-.283-.066-.31-.273-.084-.641-.191-1.278-.292-1.937h-3.911c-.083.559-.176,1.114-.245,1.673-.066.533-.054.535-.573.535h-2.944c.094-.562.176-1.081.269-1.6q.613-3.409,1.231-6.817l1.206-6.68c.271-1.5.547-3,.808-4.5.047-.27.131-.391.438-.386,1.24.02,2.481.014,3.722,0,.241,0,.333.064.377.32.56,3.278,1.139,6.553,1.707,9.83q.843,4.863,1.673,9.728C651.048,5682.84,651.038,5682.852,651,5682.928Zm-4.288-5.308-1.3-8.909h-.036l-1.413,8.909Z" transform="translate(-628.407 -5620.863)" fill="#12263f"/>
      <path id="Trazado_621484-3" data-name="Trazado 621484" d="M1021.826,5675.588v.664q0,3.13,0,6.262c0,.449,0,.451-.464.451-.87,0-1.74-.018-2.609.009-.351.01-.453-.083-.45-.443q.044-6.365.058-12.731c.007-2.146.01-4.291,0-6.436,0-.327.117-.376.4-.375,1.786.012,3.571,0,5.357.007a5.277,5.277,0,0,1,5.522,4.972,7.391,7.391,0,0,1-1,4.969,5.369,5.369,0,0,1-4.745,2.653Zm.02-3.477c.706,0,1.387-.01,2.069,0a2.046,2.046,0,0,0,1.91-1.216,3.834,3.834,0,0,0,.41-2.481,2.132,2.132,0,0,0-1.911-1.978,24.048,24.048,0,0,0-2.478-.017Z" transform="translate(-980.739 -5620.899)" fill="#12263f"/>
      <path id="Trazado_621485-3" data-name="Trazado 621485" d="M833.56,5675.5v7.343a2.5,2.5,0,0,1-.281.031c-.951,0-1.9-.008-2.853.007-.276,0-.354-.077-.352-.354q.035-5.706.049-11.413.013-3.841.022-7.683c0-.607-.067-.526.545-.527,1.786,0,3.573-.035,5.359.01a5.15,5.15,0,0,1,4.618,2.6,6.273,6.273,0,0,1,.79,3.021,7.115,7.115,0,0,1-1.311,4.684,5.364,5.364,0,0,1-4.6,2.281C834.9,5675.488,834.252,5675.5,833.56,5675.5Zm.009-3.478c.722,0,1.4-.017,2.086,0a1.934,1.934,0,0,0,1.663-.835,3.673,3.673,0,0,0,.675-2.793,2.154,2.154,0,0,0-2.052-2.075c-.519-.032-1.041,0-1.562,0h-.81Z" transform="translate(-805.61 -5620.807)" fill="#12263f"/>
      <path id="Trazado_621486-3" data-name="Trazado 621486" d="M825.929,6385.384c-.788,0-1.577.02-2.365-.006a2.17,2.17,0,0,1-1.491-.648,1.424,1.424,0,0,1,.108-2.193,2.357,2.357,0,0,1,1.5-.559q2.261-.016,4.522,0a2.317,2.317,0,0,1,1.414.5,1.454,1.454,0,0,1-.154,2.509,3.055,3.055,0,0,1-1.239.384c-.76.06-1.529.017-2.294.017Z" transform="translate(-797.734 -6289.841)" fill="#12263f"/>
      <path id="Trazado_621487-3" data-name="Trazado 621487" d="M776.526,5133.5q3.165,0,6.329,0a2.369,2.369,0,0,1,1.4,4.361,2.435,2.435,0,0,1-1.384.382q-6.154.007-12.309-.005a3.683,3.683,0,0,1-1.254-.19,2.3,2.3,0,0,1-1.5-2.589,2.359,2.359,0,0,1,2.326-1.951c1.309-.012,2.619.015,3.928.021.821,0,1.642,0,2.463,0Z" transform="translate(-747.645 -5128.262)" fill="#12263f"/>
      <path id="Trazado_621488-3" data-name="Trazado 621488" d="M627.781,5130.992a2.474,2.474,0,1,1-2.492,2.49A2.484,2.484,0,0,1,627.781,5130.992Z" transform="translate(-615.079 -5125.931)" fill="#12263f"/>
    </g>
    <g id="Grupo_947864" data-name="Grupo 947864" transform="translate(864.175 11905.045)">
      <path id="Trazado_621482-4" data-name="Trazado 621482" d="M478.584,5108.837v-16.911q0-10.073,0-20.146a12.875,12.875,0,0,1,1.363-6,13.118,13.118,0,0,1,9.839-7.306,14.839,14.839,0,0,1,2.49-.193c6.054-.016,12.108-.009,18.162-.009q6.4,0,12.8,0a13.349,13.349,0,0,1,13.178,10.66,13.774,13.774,0,0,1,.273,2.792q.027,16.738.012,33.475v19.9q0,10.421,0,20.843a12.9,12.9,0,0,1-1.369,6,13.106,13.106,0,0,1-9.85,7.29,14.9,14.9,0,0,1-2.49.191q-8.821.025-17.642.011l-13.291,0a13.354,13.354,0,0,1-13.2-10.679A13.781,13.781,0,0,1,478.6,5146c-.021-7.644-.012-15.287-.012-22.931Zm3.007-37.694v76.047h52.094v-76.047Zm.152,76.819a10.03,10.03,0,0,0,2.777,5.375,10.278,10.278,0,0,0,7.594,3.111q15.276.009,30.553,0a14.269,14.269,0,0,0,2.114-.122,10.078,10.078,0,0,0,7.932-5.778,9.214,9.214,0,0,0,.83-2.585Zm51.867-77.6c0-.079,0-.135,0-.189a1.305,1.305,0,0,0-.012-.173,10.353,10.353,0,0,0-10.436-8.742c-5.3-.014-10.6,0-15.9,0-3,0-6.007-.009-9.011,0-2.388.007-4.779-.026-7.164.068a9.725,9.725,0,0,0-6.14,2.608,9.487,9.487,0,0,0-2.811,4.305c-.215.684-.358,1.391-.543,2.125Z" transform="translate(-478.582 -5058.272)" fill="#12263f"/>
      <path id="Trazado_621483-4" data-name="Trazado 621483" d="M651,5682.928h-2.137c-.325,0-.65-.007-.974,0-.2.006-.283-.066-.31-.273-.084-.641-.191-1.278-.292-1.937h-3.911c-.083.559-.176,1.114-.245,1.673-.066.533-.054.535-.573.535h-2.944c.094-.562.176-1.081.269-1.6q.613-3.409,1.231-6.817l1.206-6.68c.271-1.5.547-3,.808-4.5.047-.27.131-.391.438-.386,1.24.02,2.481.014,3.722,0,.241,0,.333.064.377.32.56,3.278,1.139,6.553,1.707,9.83q.843,4.863,1.673,9.728C651.048,5682.84,651.038,5682.852,651,5682.928Zm-4.288-5.308-1.3-8.909h-.036l-1.413,8.909Z" transform="translate(-628.407 -5620.863)" fill="#12263f"/>
      <path id="Trazado_621484-4" data-name="Trazado 621484" d="M1021.826,5675.588v.664q0,3.13,0,6.262c0,.449,0,.451-.464.451-.87,0-1.74-.018-2.609.009-.351.01-.453-.083-.45-.443q.044-6.365.058-12.731c.007-2.146.01-4.291,0-6.436,0-.327.117-.376.4-.375,1.786.012,3.571,0,5.357.007a5.277,5.277,0,0,1,5.522,4.972,7.391,7.391,0,0,1-1,4.969,5.369,5.369,0,0,1-4.745,2.653Zm.02-3.477c.706,0,1.387-.01,2.069,0a2.046,2.046,0,0,0,1.91-1.216,3.834,3.834,0,0,0,.41-2.481,2.132,2.132,0,0,0-1.911-1.978,24.048,24.048,0,0,0-2.478-.017Z" transform="translate(-980.739 -5620.899)" fill="#12263f"/>
      <path id="Trazado_621485-4" data-name="Trazado 621485" d="M833.56,5675.5v7.343a2.5,2.5,0,0,1-.281.031c-.951,0-1.9-.008-2.853.007-.276,0-.354-.077-.352-.354q.035-5.706.049-11.413.013-3.841.022-7.683c0-.607-.067-.526.545-.527,1.786,0,3.573-.035,5.359.01a5.15,5.15,0,0,1,4.618,2.6,6.273,6.273,0,0,1,.79,3.021,7.115,7.115,0,0,1-1.311,4.684,5.364,5.364,0,0,1-4.6,2.281C834.9,5675.488,834.252,5675.5,833.56,5675.5Zm.009-3.478c.722,0,1.4-.017,2.086,0a1.934,1.934,0,0,0,1.663-.835,3.673,3.673,0,0,0,.675-2.793,2.154,2.154,0,0,0-2.052-2.075c-.519-.032-1.041,0-1.562,0h-.81Z" transform="translate(-805.61 -5620.807)" fill="#12263f"/>
      <path id="Trazado_621486-4" data-name="Trazado 621486" d="M825.929,6385.384c-.788,0-1.577.02-2.365-.006a2.17,2.17,0,0,1-1.491-.648,1.424,1.424,0,0,1,.108-2.193,2.357,2.357,0,0,1,1.5-.559q2.261-.016,4.522,0a2.317,2.317,0,0,1,1.414.5,1.454,1.454,0,0,1-.154,2.509,3.055,3.055,0,0,1-1.239.384c-.76.06-1.529.017-2.294.017Z" transform="translate(-797.734 -6289.841)" fill="#12263f"/>
      <path id="Trazado_621487-4" data-name="Trazado 621487" d="M776.526,5133.5q3.165,0,6.329,0a2.369,2.369,0,0,1,1.4,4.361,2.435,2.435,0,0,1-1.384.382q-6.154.007-12.309-.005a3.683,3.683,0,0,1-1.254-.19,2.3,2.3,0,0,1-1.5-2.589,2.359,2.359,0,0,1,2.326-1.951c1.309-.012,2.619.015,3.928.021.821,0,1.642,0,2.463,0Z" transform="translate(-747.645 -5128.262)" fill="#12263f"/>
      <path id="Trazado_621488-4" data-name="Trazado 621488" d="M627.781,5130.992a2.474,2.474,0,1,1-2.492,2.49A2.484,2.484,0,0,1,627.781,5130.992Z" transform="translate(-615.079 -5125.931)" fill="#12263f"/>
    </g>
    <g id="Grupo_947865" data-name="Grupo 947865" transform="translate(758.102 11999.57)">
      <path id="Trazado_621482-5" data-name="Trazado 621482" d="M478.584,5108.837v-16.911q0-10.073,0-20.146a12.875,12.875,0,0,1,1.363-6,13.118,13.118,0,0,1,9.839-7.306,14.839,14.839,0,0,1,2.49-.193c6.054-.016,12.108-.009,18.162-.009q6.4,0,12.8,0a13.349,13.349,0,0,1,13.178,10.66,13.774,13.774,0,0,1,.273,2.792q.027,16.738.012,33.475v19.9q0,10.421,0,20.843a12.9,12.9,0,0,1-1.369,6,13.106,13.106,0,0,1-9.85,7.29,14.9,14.9,0,0,1-2.49.191q-8.821.025-17.642.011l-13.291,0a13.354,13.354,0,0,1-13.2-10.679A13.781,13.781,0,0,1,478.6,5146c-.021-7.644-.012-15.287-.012-22.931Zm3.007-37.694v76.047h52.094v-76.047Zm.152,76.819a10.03,10.03,0,0,0,2.777,5.375,10.278,10.278,0,0,0,7.594,3.111q15.276.009,30.553,0a14.269,14.269,0,0,0,2.114-.122,10.078,10.078,0,0,0,7.932-5.778,9.214,9.214,0,0,0,.83-2.585Zm51.867-77.6c0-.079,0-.135,0-.189a1.305,1.305,0,0,0-.012-.173,10.353,10.353,0,0,0-10.436-8.742c-5.3-.014-10.6,0-15.9,0-3,0-6.007-.009-9.011,0-2.388.007-4.779-.026-7.164.068a9.725,9.725,0,0,0-6.14,2.608,9.487,9.487,0,0,0-2.811,4.305c-.215.684-.358,1.391-.543,2.125Z" transform="translate(-478.582 -5058.272)" fill="#12263f"/>
      <path id="Trazado_621483-5" data-name="Trazado 621483" d="M651,5682.928h-2.137c-.325,0-.65-.007-.974,0-.2.006-.283-.066-.31-.273-.084-.641-.191-1.278-.292-1.937h-3.911c-.083.559-.176,1.114-.245,1.673-.066.533-.054.535-.573.535h-2.944c.094-.562.176-1.081.269-1.6q.613-3.409,1.231-6.817l1.206-6.68c.271-1.5.547-3,.808-4.5.047-.27.131-.391.438-.386,1.24.02,2.481.014,3.722,0,.241,0,.333.064.377.32.56,3.278,1.139,6.553,1.707,9.83q.843,4.863,1.673,9.728C651.048,5682.84,651.038,5682.852,651,5682.928Zm-4.288-5.308-1.3-8.909h-.036l-1.413,8.909Z" transform="translate(-628.407 -5620.863)" fill="#12263f"/>
      <path id="Trazado_621484-5" data-name="Trazado 621484" d="M1021.826,5675.588v.664q0,3.13,0,6.262c0,.449,0,.451-.464.451-.87,0-1.74-.018-2.609.009-.351.01-.453-.083-.45-.443q.044-6.365.058-12.731c.007-2.146.01-4.291,0-6.436,0-.327.117-.376.4-.375,1.786.012,3.571,0,5.357.007a5.277,5.277,0,0,1,5.522,4.972,7.391,7.391,0,0,1-1,4.969,5.369,5.369,0,0,1-4.745,2.653Zm.02-3.477c.706,0,1.387-.01,2.069,0a2.046,2.046,0,0,0,1.91-1.216,3.834,3.834,0,0,0,.41-2.481,2.132,2.132,0,0,0-1.911-1.978,24.048,24.048,0,0,0-2.478-.017Z" transform="translate(-980.739 -5620.899)" fill="#12263f"/>
      <path id="Trazado_621485-5" data-name="Trazado 621485" d="M833.56,5675.5v7.343a2.5,2.5,0,0,1-.281.031c-.951,0-1.9-.008-2.853.007-.276,0-.354-.077-.352-.354q.035-5.706.049-11.413.013-3.841.022-7.683c0-.607-.067-.526.545-.527,1.786,0,3.573-.035,5.359.01a5.15,5.15,0,0,1,4.618,2.6,6.273,6.273,0,0,1,.79,3.021,7.115,7.115,0,0,1-1.311,4.684,5.364,5.364,0,0,1-4.6,2.281C834.9,5675.488,834.252,5675.5,833.56,5675.5Zm.009-3.478c.722,0,1.4-.017,2.086,0a1.934,1.934,0,0,0,1.663-.835,3.673,3.673,0,0,0,.675-2.793,2.154,2.154,0,0,0-2.052-2.075c-.519-.032-1.041,0-1.562,0h-.81Z" transform="translate(-805.61 -5620.807)" fill="#12263f"/>
      <path id="Trazado_621486-5" data-name="Trazado 621486" d="M825.929,6385.384c-.788,0-1.577.02-2.365-.006a2.17,2.17,0,0,1-1.491-.648,1.424,1.424,0,0,1,.108-2.193,2.357,2.357,0,0,1,1.5-.559q2.261-.016,4.522,0a2.317,2.317,0,0,1,1.414.5,1.454,1.454,0,0,1-.154,2.509,3.055,3.055,0,0,1-1.239.384c-.76.06-1.529.017-2.294.017Z" transform="translate(-797.734 -6289.841)" fill="#12263f"/>
      <path id="Trazado_621487-5" data-name="Trazado 621487" d="M776.526,5133.5q3.165,0,6.329,0a2.369,2.369,0,0,1,1.4,4.361,2.435,2.435,0,0,1-1.384.382q-6.154.007-12.309-.005a3.683,3.683,0,0,1-1.254-.19,2.3,2.3,0,0,1-1.5-2.589,2.359,2.359,0,0,1,2.326-1.951c1.309-.012,2.619.015,3.928.021.821,0,1.642,0,2.463,0Z" transform="translate(-747.645 -5128.262)" fill="#12263f"/>
      <path id="Trazado_621488-5" data-name="Trazado 621488" d="M627.781,5130.992a2.474,2.474,0,1,1-2.492,2.49A2.484,2.484,0,0,1,627.781,5130.992Z" transform="translate(-615.079 -5125.931)" fill="#12263f"/>
    </g>
    <g id="Grupo_947868" data-name="Grupo 947868" transform="translate(758.102 12136.613)">
      <path id="Trazado_621482-6" data-name="Trazado 621482" d="M478.584,5108.837v-16.911q0-10.073,0-20.146a12.875,12.875,0,0,1,1.363-6,13.118,13.118,0,0,1,9.839-7.306,14.839,14.839,0,0,1,2.49-.193c6.054-.016,12.108-.009,18.162-.009q6.4,0,12.8,0a13.349,13.349,0,0,1,13.178,10.66,13.774,13.774,0,0,1,.273,2.792q.027,16.738.012,33.475v19.9q0,10.421,0,20.843a12.9,12.9,0,0,1-1.369,6,13.106,13.106,0,0,1-9.85,7.29,14.9,14.9,0,0,1-2.49.191q-8.821.025-17.642.011l-13.291,0a13.354,13.354,0,0,1-13.2-10.679A13.781,13.781,0,0,1,478.6,5146c-.021-7.644-.012-15.287-.012-22.931Zm3.007-37.694v76.047h52.094v-76.047Zm.152,76.819a10.03,10.03,0,0,0,2.777,5.375,10.278,10.278,0,0,0,7.594,3.111q15.276.009,30.553,0a14.269,14.269,0,0,0,2.114-.122,10.078,10.078,0,0,0,7.932-5.778,9.214,9.214,0,0,0,.83-2.585Zm51.867-77.6c0-.079,0-.135,0-.189a1.305,1.305,0,0,0-.012-.173,10.353,10.353,0,0,0-10.436-8.742c-5.3-.014-10.6,0-15.9,0-3,0-6.007-.009-9.011,0-2.388.007-4.779-.026-7.164.068a9.725,9.725,0,0,0-6.14,2.608,9.487,9.487,0,0,0-2.811,4.305c-.215.684-.358,1.391-.543,2.125Z" transform="translate(-478.582 -5058.272)" fill="#12263f"/>
      <path id="Trazado_621483-6" data-name="Trazado 621483" d="M651,5682.928h-2.137c-.325,0-.65-.007-.974,0-.2.006-.283-.066-.31-.273-.084-.641-.191-1.278-.292-1.937h-3.911c-.083.559-.176,1.114-.245,1.673-.066.533-.054.535-.573.535h-2.944c.094-.562.176-1.081.269-1.6q.613-3.409,1.231-6.817l1.206-6.68c.271-1.5.547-3,.808-4.5.047-.27.131-.391.438-.386,1.24.02,2.481.014,3.722,0,.241,0,.333.064.377.32.56,3.278,1.139,6.553,1.707,9.83q.843,4.863,1.673,9.728C651.048,5682.84,651.038,5682.852,651,5682.928Zm-4.288-5.308-1.3-8.909h-.036l-1.413,8.909Z" transform="translate(-628.407 -5620.863)" fill="#12263f"/>
      <path id="Trazado_621484-6" data-name="Trazado 621484" d="M1021.826,5675.588v.664q0,3.13,0,6.262c0,.449,0,.451-.464.451-.87,0-1.74-.018-2.609.009-.351.01-.453-.083-.45-.443q.044-6.365.058-12.731c.007-2.146.01-4.291,0-6.436,0-.327.117-.376.4-.375,1.786.012,3.571,0,5.357.007a5.277,5.277,0,0,1,5.522,4.972,7.391,7.391,0,0,1-1,4.969,5.369,5.369,0,0,1-4.745,2.653Zm.02-3.477c.706,0,1.387-.01,2.069,0a2.046,2.046,0,0,0,1.91-1.216,3.834,3.834,0,0,0,.41-2.481,2.132,2.132,0,0,0-1.911-1.978,24.048,24.048,0,0,0-2.478-.017Z" transform="translate(-980.739 -5620.899)" fill="#12263f"/>
      <path id="Trazado_621485-6" data-name="Trazado 621485" d="M833.56,5675.5v7.343a2.5,2.5,0,0,1-.281.031c-.951,0-1.9-.008-2.853.007-.276,0-.354-.077-.352-.354q.035-5.706.049-11.413.013-3.841.022-7.683c0-.607-.067-.526.545-.527,1.786,0,3.573-.035,5.359.01a5.15,5.15,0,0,1,4.618,2.6,6.273,6.273,0,0,1,.79,3.021,7.115,7.115,0,0,1-1.311,4.684,5.364,5.364,0,0,1-4.6,2.281C834.9,5675.488,834.252,5675.5,833.56,5675.5Zm.009-3.478c.722,0,1.4-.017,2.086,0a1.934,1.934,0,0,0,1.663-.835,3.673,3.673,0,0,0,.675-2.793,2.154,2.154,0,0,0-2.052-2.075c-.519-.032-1.041,0-1.562,0h-.81Z" transform="translate(-805.61 -5620.807)" fill="#12263f"/>
      <path id="Trazado_621486-6" data-name="Trazado 621486" d="M825.929,6385.384c-.788,0-1.577.02-2.365-.006a2.17,2.17,0,0,1-1.491-.648,1.424,1.424,0,0,1,.108-2.193,2.357,2.357,0,0,1,1.5-.559q2.261-.016,4.522,0a2.317,2.317,0,0,1,1.414.5,1.454,1.454,0,0,1-.154,2.509,3.055,3.055,0,0,1-1.239.384c-.76.06-1.529.017-2.294.017Z" transform="translate(-797.734 -6289.841)" fill="#12263f"/>
      <path id="Trazado_621487-6" data-name="Trazado 621487" d="M776.526,5133.5q3.165,0,6.329,0a2.369,2.369,0,0,1,1.4,4.361,2.435,2.435,0,0,1-1.384.382q-6.154.007-12.309-.005a3.683,3.683,0,0,1-1.254-.19,2.3,2.3,0,0,1-1.5-2.589,2.359,2.359,0,0,1,2.326-1.951c1.309-.012,2.619.015,3.928.021.821,0,1.642,0,2.463,0Z" transform="translate(-747.645 -5128.262)" fill="#12263f"/>
      <path id="Trazado_621488-6" data-name="Trazado 621488" d="M627.781,5130.992a2.474,2.474,0,1,1-2.492,2.49A2.484,2.484,0,0,1,627.781,5130.992Z" transform="translate(-615.079 -5125.931)" fill="#12263f"/>
    </g>
    <g id="Grupo_947866" data-name="Grupo 947866" transform="translate(1151.877 11999.57)">
      <path id="Trazado_621482-7" data-name="Trazado 621482" d="M478.584,5108.837v-16.911q0-10.073,0-20.146a12.875,12.875,0,0,1,1.363-6,13.118,13.118,0,0,1,9.839-7.306,14.839,14.839,0,0,1,2.49-.193c6.054-.016,12.108-.009,18.162-.009q6.4,0,12.8,0a13.349,13.349,0,0,1,13.178,10.66,13.774,13.774,0,0,1,.273,2.792q.027,16.738.012,33.475v19.9q0,10.421,0,20.843a12.9,12.9,0,0,1-1.369,6,13.106,13.106,0,0,1-9.85,7.29,14.9,14.9,0,0,1-2.49.191q-8.821.025-17.642.011l-13.291,0a13.354,13.354,0,0,1-13.2-10.679A13.781,13.781,0,0,1,478.6,5146c-.021-7.644-.012-15.287-.012-22.931Zm3.007-37.694v76.047h52.094v-76.047Zm.152,76.819a10.03,10.03,0,0,0,2.777,5.375,10.278,10.278,0,0,0,7.594,3.111q15.276.009,30.553,0a14.269,14.269,0,0,0,2.114-.122,10.078,10.078,0,0,0,7.932-5.778,9.214,9.214,0,0,0,.83-2.585Zm51.867-77.6c0-.079,0-.135,0-.189a1.305,1.305,0,0,0-.012-.173,10.353,10.353,0,0,0-10.436-8.742c-5.3-.014-10.6,0-15.9,0-3,0-6.007-.009-9.011,0-2.388.007-4.779-.026-7.164.068a9.725,9.725,0,0,0-6.14,2.608,9.487,9.487,0,0,0-2.811,4.305c-.215.684-.358,1.391-.543,2.125Z" transform="translate(-478.582 -5058.272)" fill="#12263f"/>
      <path id="Trazado_621483-7" data-name="Trazado 621483" d="M651,5682.928h-2.137c-.325,0-.65-.007-.974,0-.2.006-.283-.066-.31-.273-.084-.641-.191-1.278-.292-1.937h-3.911c-.083.559-.176,1.114-.245,1.673-.066.533-.054.535-.573.535h-2.944c.094-.562.176-1.081.269-1.6q.613-3.409,1.231-6.817l1.206-6.68c.271-1.5.547-3,.808-4.5.047-.27.131-.391.438-.386,1.24.02,2.481.014,3.722,0,.241,0,.333.064.377.32.56,3.278,1.139,6.553,1.707,9.83q.843,4.863,1.673,9.728C651.048,5682.84,651.038,5682.852,651,5682.928Zm-4.288-5.308-1.3-8.909h-.036l-1.413,8.909Z" transform="translate(-628.407 -5620.863)" fill="#12263f"/>
      <path id="Trazado_621484-7" data-name="Trazado 621484" d="M1021.826,5675.588v.664q0,3.13,0,6.262c0,.449,0,.451-.464.451-.87,0-1.74-.018-2.609.009-.351.01-.453-.083-.45-.443q.044-6.365.058-12.731c.007-2.146.01-4.291,0-6.436,0-.327.117-.376.4-.375,1.786.012,3.571,0,5.357.007a5.277,5.277,0,0,1,5.522,4.972,7.391,7.391,0,0,1-1,4.969,5.369,5.369,0,0,1-4.745,2.653Zm.02-3.477c.706,0,1.387-.01,2.069,0a2.046,2.046,0,0,0,1.91-1.216,3.834,3.834,0,0,0,.41-2.481,2.132,2.132,0,0,0-1.911-1.978,24.048,24.048,0,0,0-2.478-.017Z" transform="translate(-980.739 -5620.899)" fill="#12263f"/>
      <path id="Trazado_621485-7" data-name="Trazado 621485" d="M833.56,5675.5v7.343a2.5,2.5,0,0,1-.281.031c-.951,0-1.9-.008-2.853.007-.276,0-.354-.077-.352-.354q.035-5.706.049-11.413.013-3.841.022-7.683c0-.607-.067-.526.545-.527,1.786,0,3.573-.035,5.359.01a5.15,5.15,0,0,1,4.618,2.6,6.273,6.273,0,0,1,.79,3.021,7.115,7.115,0,0,1-1.311,4.684,5.364,5.364,0,0,1-4.6,2.281C834.9,5675.488,834.252,5675.5,833.56,5675.5Zm.009-3.478c.722,0,1.4-.017,2.086,0a1.934,1.934,0,0,0,1.663-.835,3.673,3.673,0,0,0,.675-2.793,2.154,2.154,0,0,0-2.052-2.075c-.519-.032-1.041,0-1.562,0h-.81Z" transform="translate(-805.61 -5620.807)" fill="#12263f"/>
      <path id="Trazado_621486-7" data-name="Trazado 621486" d="M825.929,6385.384c-.788,0-1.577.02-2.365-.006a2.17,2.17,0,0,1-1.491-.648,1.424,1.424,0,0,1,.108-2.193,2.357,2.357,0,0,1,1.5-.559q2.261-.016,4.522,0a2.317,2.317,0,0,1,1.414.5,1.454,1.454,0,0,1-.154,2.509,3.055,3.055,0,0,1-1.239.384c-.76.06-1.529.017-2.294.017Z" transform="translate(-797.734 -6289.841)" fill="#12263f"/>
      <path id="Trazado_621487-7" data-name="Trazado 621487" d="M776.526,5133.5q3.165,0,6.329,0a2.369,2.369,0,0,1,1.4,4.361,2.435,2.435,0,0,1-1.384.382q-6.154.007-12.309-.005a3.683,3.683,0,0,1-1.254-.19,2.3,2.3,0,0,1-1.5-2.589,2.359,2.359,0,0,1,2.326-1.951c1.309-.012,2.619.015,3.928.021.821,0,1.642,0,2.463,0Z" transform="translate(-747.645 -5128.262)" fill="#12263f"/>
      <path id="Trazado_621488-7" data-name="Trazado 621488" d="M627.781,5130.992a2.474,2.474,0,1,1-2.492,2.49A2.484,2.484,0,0,1,627.781,5130.992Z" transform="translate(-615.079 -5125.931)" fill="#12263f"/>
    </g>
    <g id="Grupo_947867" data-name="Grupo 947867" transform="translate(1151.877 12136.613)">
      <path id="Trazado_621482-8" data-name="Trazado 621482" d="M478.584,5108.837v-16.911q0-10.073,0-20.146a12.875,12.875,0,0,1,1.363-6,13.118,13.118,0,0,1,9.839-7.306,14.839,14.839,0,0,1,2.49-.193c6.054-.016,12.108-.009,18.162-.009q6.4,0,12.8,0a13.349,13.349,0,0,1,13.178,10.66,13.774,13.774,0,0,1,.273,2.792q.027,16.738.012,33.475v19.9q0,10.421,0,20.843a12.9,12.9,0,0,1-1.369,6,13.106,13.106,0,0,1-9.85,7.29,14.9,14.9,0,0,1-2.49.191q-8.821.025-17.642.011l-13.291,0a13.354,13.354,0,0,1-13.2-10.679A13.781,13.781,0,0,1,478.6,5146c-.021-7.644-.012-15.287-.012-22.931Zm3.007-37.694v76.047h52.094v-76.047Zm.152,76.819a10.03,10.03,0,0,0,2.777,5.375,10.278,10.278,0,0,0,7.594,3.111q15.276.009,30.553,0a14.269,14.269,0,0,0,2.114-.122,10.078,10.078,0,0,0,7.932-5.778,9.214,9.214,0,0,0,.83-2.585Zm51.867-77.6c0-.079,0-.135,0-.189a1.305,1.305,0,0,0-.012-.173,10.353,10.353,0,0,0-10.436-8.742c-5.3-.014-10.6,0-15.9,0-3,0-6.007-.009-9.011,0-2.388.007-4.779-.026-7.164.068a9.725,9.725,0,0,0-6.14,2.608,9.487,9.487,0,0,0-2.811,4.305c-.215.684-.358,1.391-.543,2.125Z" transform="translate(-478.582 -5058.272)" fill="#12263f"/>
      <path id="Trazado_621483-8" data-name="Trazado 621483" d="M651,5682.928h-2.137c-.325,0-.65-.007-.974,0-.2.006-.283-.066-.31-.273-.084-.641-.191-1.278-.292-1.937h-3.911c-.083.559-.176,1.114-.245,1.673-.066.533-.054.535-.573.535h-2.944c.094-.562.176-1.081.269-1.6q.613-3.409,1.231-6.817l1.206-6.68c.271-1.5.547-3,.808-4.5.047-.27.131-.391.438-.386,1.24.02,2.481.014,3.722,0,.241,0,.333.064.377.32.56,3.278,1.139,6.553,1.707,9.83q.843,4.863,1.673,9.728C651.048,5682.84,651.038,5682.852,651,5682.928Zm-4.288-5.308-1.3-8.909h-.036l-1.413,8.909Z" transform="translate(-628.407 -5620.863)" fill="#12263f"/>
      <path id="Trazado_621484-8" data-name="Trazado 621484" d="M1021.826,5675.588v.664q0,3.13,0,6.262c0,.449,0,.451-.464.451-.87,0-1.74-.018-2.609.009-.351.01-.453-.083-.45-.443q.044-6.365.058-12.731c.007-2.146.01-4.291,0-6.436,0-.327.117-.376.4-.375,1.786.012,3.571,0,5.357.007a5.277,5.277,0,0,1,5.522,4.972,7.391,7.391,0,0,1-1,4.969,5.369,5.369,0,0,1-4.745,2.653Zm.02-3.477c.706,0,1.387-.01,2.069,0a2.046,2.046,0,0,0,1.91-1.216,3.834,3.834,0,0,0,.41-2.481,2.132,2.132,0,0,0-1.911-1.978,24.048,24.048,0,0,0-2.478-.017Z" transform="translate(-980.739 -5620.899)" fill="#12263f"/>
      <path id="Trazado_621485-8" data-name="Trazado 621485" d="M833.56,5675.5v7.343a2.5,2.5,0,0,1-.281.031c-.951,0-1.9-.008-2.853.007-.276,0-.354-.077-.352-.354q.035-5.706.049-11.413.013-3.841.022-7.683c0-.607-.067-.526.545-.527,1.786,0,3.573-.035,5.359.01a5.15,5.15,0,0,1,4.618,2.6,6.273,6.273,0,0,1,.79,3.021,7.115,7.115,0,0,1-1.311,4.684,5.364,5.364,0,0,1-4.6,2.281C834.9,5675.488,834.252,5675.5,833.56,5675.5Zm.009-3.478c.722,0,1.4-.017,2.086,0a1.934,1.934,0,0,0,1.663-.835,3.673,3.673,0,0,0,.675-2.793,2.154,2.154,0,0,0-2.052-2.075c-.519-.032-1.041,0-1.562,0h-.81Z" transform="translate(-805.61 -5620.807)" fill="#12263f"/>
      <path id="Trazado_621486-8" data-name="Trazado 621486" d="M825.929,6385.384c-.788,0-1.577.02-2.365-.006a2.17,2.17,0,0,1-1.491-.648,1.424,1.424,0,0,1,.108-2.193,2.357,2.357,0,0,1,1.5-.559q2.261-.016,4.522,0a2.317,2.317,0,0,1,1.414.5,1.454,1.454,0,0,1-.154,2.509,3.055,3.055,0,0,1-1.239.384c-.76.06-1.529.017-2.294.017Z" transform="translate(-797.734 -6289.841)" fill="#12263f"/>
      <path id="Trazado_621487-8" data-name="Trazado 621487" d="M776.526,5133.5q3.165,0,6.329,0a2.369,2.369,0,0,1,1.4,4.361,2.435,2.435,0,0,1-1.384.382q-6.154.007-12.309-.005a3.683,3.683,0,0,1-1.254-.19,2.3,2.3,0,0,1-1.5-2.589,2.359,2.359,0,0,1,2.326-1.951c1.309-.012,2.619.015,3.928.021.821,0,1.642,0,2.463,0Z" transform="translate(-747.645 -5128.262)" fill="#12263f"/>
      <path id="Trazado_621488-8" data-name="Trazado 621488" d="M627.781,5130.992a2.474,2.474,0,1,1-2.492,2.49A2.484,2.484,0,0,1,627.781,5130.992Z" transform="translate(-615.079 -5125.931)" fill="#12263f"/>
    </g>
    <g id="Grupo_947857" data-name="Grupo 947857" transform="translate(534.333 12176.699)">
      <path id="Trazado_621482-9" data-name="Trazado 621482" d="M478.584,5108.837v-16.911q0-10.073,0-20.146a12.875,12.875,0,0,1,1.363-6,13.118,13.118,0,0,1,9.839-7.306,14.839,14.839,0,0,1,2.49-.193c6.054-.016,12.108-.009,18.162-.009q6.4,0,12.8,0a13.349,13.349,0,0,1,13.178,10.66,13.774,13.774,0,0,1,.273,2.792q.027,16.738.012,33.475v19.9q0,10.421,0,20.843a12.9,12.9,0,0,1-1.369,6,13.106,13.106,0,0,1-9.85,7.29,14.9,14.9,0,0,1-2.49.191q-8.821.025-17.642.011l-13.291,0a13.354,13.354,0,0,1-13.2-10.679A13.781,13.781,0,0,1,478.6,5146c-.021-7.644-.012-15.287-.012-22.931Zm3.007-37.694v76.047h52.094v-76.047Zm.152,76.819a10.03,10.03,0,0,0,2.777,5.375,10.278,10.278,0,0,0,7.594,3.111q15.276.009,30.553,0a14.269,14.269,0,0,0,2.114-.122,10.078,10.078,0,0,0,7.932-5.778,9.214,9.214,0,0,0,.83-2.585Zm51.867-77.6c0-.079,0-.135,0-.189a1.305,1.305,0,0,0-.012-.173,10.353,10.353,0,0,0-10.436-8.742c-5.3-.014-10.6,0-15.9,0-3,0-6.007-.009-9.011,0-2.388.007-4.779-.026-7.164.068a9.725,9.725,0,0,0-6.14,2.608,9.487,9.487,0,0,0-2.811,4.305c-.215.684-.358,1.391-.543,2.125Z" transform="translate(-478.582 -5058.272)" fill="#12263f"/>
      <path id="Trazado_621483-9" data-name="Trazado 621483" d="M651,5682.928h-2.137c-.325,0-.65-.007-.974,0-.2.006-.283-.066-.31-.273-.084-.641-.191-1.278-.292-1.937h-3.911c-.083.559-.176,1.114-.245,1.673-.066.533-.054.535-.573.535h-2.944c.094-.562.176-1.081.269-1.6q.613-3.409,1.231-6.817l1.206-6.68c.271-1.5.547-3,.808-4.5.047-.27.131-.391.438-.386,1.24.02,2.481.014,3.722,0,.241,0,.333.064.377.32.56,3.278,1.139,6.553,1.707,9.83q.843,4.863,1.673,9.728C651.048,5682.84,651.038,5682.852,651,5682.928Zm-4.288-5.308-1.3-8.909h-.036l-1.413,8.909Z" transform="translate(-628.407 -5620.863)" fill="#12263f"/>
      <path id="Trazado_621484-9" data-name="Trazado 621484" d="M1021.826,5675.588v.664q0,3.13,0,6.262c0,.449,0,.451-.464.451-.87,0-1.74-.018-2.609.009-.351.01-.453-.083-.45-.443q.044-6.365.058-12.731c.007-2.146.01-4.291,0-6.436,0-.327.117-.376.4-.375,1.786.012,3.571,0,5.357.007a5.277,5.277,0,0,1,5.522,4.972,7.391,7.391,0,0,1-1,4.969,5.369,5.369,0,0,1-4.745,2.653Zm.02-3.477c.706,0,1.387-.01,2.069,0a2.046,2.046,0,0,0,1.91-1.216,3.834,3.834,0,0,0,.41-2.481,2.132,2.132,0,0,0-1.911-1.978,24.048,24.048,0,0,0-2.478-.017Z" transform="translate(-980.739 -5620.899)" fill="#12263f"/>
      <path id="Trazado_621485-9" data-name="Trazado 621485" d="M833.56,5675.5v7.343a2.5,2.5,0,0,1-.281.031c-.951,0-1.9-.008-2.853.007-.276,0-.354-.077-.352-.354q.035-5.706.049-11.413.013-3.841.022-7.683c0-.607-.067-.526.545-.527,1.786,0,3.573-.035,5.359.01a5.15,5.15,0,0,1,4.618,2.6,6.273,6.273,0,0,1,.79,3.021,7.115,7.115,0,0,1-1.311,4.684,5.364,5.364,0,0,1-4.6,2.281C834.9,5675.488,834.252,5675.5,833.56,5675.5Zm.009-3.478c.722,0,1.4-.017,2.086,0a1.934,1.934,0,0,0,1.663-.835,3.673,3.673,0,0,0,.675-2.793,2.154,2.154,0,0,0-2.052-2.075c-.519-.032-1.041,0-1.562,0h-.81Z" transform="translate(-805.61 -5620.807)" fill="#12263f"/>
      <path id="Trazado_621486-9" data-name="Trazado 621486" d="M825.929,6385.384c-.788,0-1.577.02-2.365-.006a2.17,2.17,0,0,1-1.491-.648,1.424,1.424,0,0,1,.108-2.193,2.357,2.357,0,0,1,1.5-.559q2.261-.016,4.522,0a2.317,2.317,0,0,1,1.414.5,1.454,1.454,0,0,1-.154,2.509,3.055,3.055,0,0,1-1.239.384c-.76.06-1.529.017-2.294.017Z" transform="translate(-797.734 -6289.841)" fill="#12263f"/>
      <path id="Trazado_621487-9" data-name="Trazado 621487" d="M776.526,5133.5q3.165,0,6.329,0a2.369,2.369,0,0,1,1.4,4.361,2.435,2.435,0,0,1-1.384.382q-6.154.007-12.309-.005a3.683,3.683,0,0,1-1.254-.19,2.3,2.3,0,0,1-1.5-2.589,2.359,2.359,0,0,1,2.326-1.951c1.309-.012,2.619.015,3.928.021.821,0,1.642,0,2.463,0Z" transform="translate(-747.645 -5128.262)" fill="#12263f"/>
      <path id="Trazado_621488-9" data-name="Trazado 621488" d="M627.781,5130.992a2.474,2.474,0,1,1-2.492,2.49A2.484,2.484,0,0,1,627.781,5130.992Z" transform="translate(-615.079 -5125.931)" fill="#12263f"/>
    </g>
    <g id="Grupo_947860" data-name="Grupo 947860" transform="translate(933.919 12227.124)">
      <path id="Trazado_621482-10" data-name="Trazado 621482" d="M478.584,5108.837v-16.911q0-10.073,0-20.146a12.875,12.875,0,0,1,1.363-6,13.118,13.118,0,0,1,9.839-7.306,14.839,14.839,0,0,1,2.49-.193c6.054-.016,12.108-.009,18.162-.009q6.4,0,12.8,0a13.349,13.349,0,0,1,13.178,10.66,13.774,13.774,0,0,1,.273,2.792q.027,16.738.012,33.475v19.9q0,10.421,0,20.843a12.9,12.9,0,0,1-1.369,6,13.106,13.106,0,0,1-9.85,7.29,14.9,14.9,0,0,1-2.49.191q-8.821.025-17.642.011l-13.291,0a13.354,13.354,0,0,1-13.2-10.679A13.781,13.781,0,0,1,478.6,5146c-.021-7.644-.012-15.287-.012-22.931Zm3.007-37.694v76.047h52.094v-76.047Zm.152,76.819a10.03,10.03,0,0,0,2.777,5.375,10.278,10.278,0,0,0,7.594,3.111q15.276.009,30.553,0a14.269,14.269,0,0,0,2.114-.122,10.078,10.078,0,0,0,7.932-5.778,9.214,9.214,0,0,0,.83-2.585Zm51.867-77.6c0-.079,0-.135,0-.189a1.305,1.305,0,0,0-.012-.173,10.353,10.353,0,0,0-10.436-8.742c-5.3-.014-10.6,0-15.9,0-3,0-6.007-.009-9.011,0-2.388.007-4.779-.026-7.164.068a9.725,9.725,0,0,0-6.14,2.608,9.487,9.487,0,0,0-2.811,4.305c-.215.684-.358,1.391-.543,2.125Z" transform="translate(-478.582 -5058.272)" fill="#12263f"/>
      <path id="Trazado_621483-10" data-name="Trazado 621483" d="M651,5682.928h-2.137c-.325,0-.65-.007-.974,0-.2.006-.283-.066-.31-.273-.084-.641-.191-1.278-.292-1.937h-3.911c-.083.559-.176,1.114-.245,1.673-.066.533-.054.535-.573.535h-2.944c.094-.562.176-1.081.269-1.6q.613-3.409,1.231-6.817l1.206-6.68c.271-1.5.547-3,.808-4.5.047-.27.131-.391.438-.386,1.24.02,2.481.014,3.722,0,.241,0,.333.064.377.32.56,3.278,1.139,6.553,1.707,9.83q.843,4.863,1.673,9.728C651.048,5682.84,651.038,5682.852,651,5682.928Zm-4.288-5.308-1.3-8.909h-.036l-1.413,8.909Z" transform="translate(-628.407 -5620.863)" fill="#12263f"/>
      <path id="Trazado_621484-10" data-name="Trazado 621484" d="M1021.826,5675.588v.664q0,3.13,0,6.262c0,.449,0,.451-.464.451-.87,0-1.74-.018-2.609.009-.351.01-.453-.083-.45-.443q.044-6.365.058-12.731c.007-2.146.01-4.291,0-6.436,0-.327.117-.376.4-.375,1.786.012,3.571,0,5.357.007a5.277,5.277,0,0,1,5.522,4.972,7.391,7.391,0,0,1-1,4.969,5.369,5.369,0,0,1-4.745,2.653Zm.02-3.477c.706,0,1.387-.01,2.069,0a2.046,2.046,0,0,0,1.91-1.216,3.834,3.834,0,0,0,.41-2.481,2.132,2.132,0,0,0-1.911-1.978,24.048,24.048,0,0,0-2.478-.017Z" transform="translate(-980.739 -5620.899)" fill="#12263f"/>
      <path id="Trazado_621485-10" data-name="Trazado 621485" d="M833.56,5675.5v7.343a2.5,2.5,0,0,1-.281.031c-.951,0-1.9-.008-2.853.007-.276,0-.354-.077-.352-.354q.035-5.706.049-11.413.013-3.841.022-7.683c0-.607-.067-.526.545-.527,1.786,0,3.573-.035,5.359.01a5.15,5.15,0,0,1,4.618,2.6,6.273,6.273,0,0,1,.79,3.021,7.115,7.115,0,0,1-1.311,4.684,5.364,5.364,0,0,1-4.6,2.281C834.9,5675.488,834.252,5675.5,833.56,5675.5Zm.009-3.478c.722,0,1.4-.017,2.086,0a1.934,1.934,0,0,0,1.663-.835,3.673,3.673,0,0,0,.675-2.793,2.154,2.154,0,0,0-2.052-2.075c-.519-.032-1.041,0-1.562,0h-.81Z" transform="translate(-805.61 -5620.807)" fill="#12263f"/>
      <path id="Trazado_621486-10" data-name="Trazado 621486" d="M825.929,6385.384c-.788,0-1.577.02-2.365-.006a2.17,2.17,0,0,1-1.491-.648,1.424,1.424,0,0,1,.108-2.193,2.357,2.357,0,0,1,1.5-.559q2.261-.016,4.522,0a2.317,2.317,0,0,1,1.414.5,1.454,1.454,0,0,1-.154,2.509,3.055,3.055,0,0,1-1.239.384c-.76.06-1.529.017-2.294.017Z" transform="translate(-797.734 -6289.841)" fill="#12263f"/>
      <path id="Trazado_621487-10" data-name="Trazado 621487" d="M776.526,5133.5q3.165,0,6.329,0a2.369,2.369,0,0,1,1.4,4.361,2.435,2.435,0,0,1-1.384.382q-6.154.007-12.309-.005a3.683,3.683,0,0,1-1.254-.19,2.3,2.3,0,0,1-1.5-2.589,2.359,2.359,0,0,1,2.326-1.951c1.309-.012,2.619.015,3.928.021.821,0,1.642,0,2.463,0Z" transform="translate(-747.645 -5128.262)" fill="#12263f"/>
      <path id="Trazado_621488-10" data-name="Trazado 621488" d="M627.781,5130.992a2.474,2.474,0,1,1-2.492,2.49A2.484,2.484,0,0,1,627.781,5130.992Z" transform="translate(-615.079 -5125.931)" fill="#12263f"/>
    </g>
    <g id="Grupo_947863" data-name="Grupo 947863" transform="translate(933.919 11905.045)">
      <path id="Trazado_621482-11" data-name="Trazado 621482" d="M478.584,5108.837v-16.911q0-10.073,0-20.146a12.875,12.875,0,0,1,1.363-6,13.118,13.118,0,0,1,9.839-7.306,14.839,14.839,0,0,1,2.49-.193c6.054-.016,12.108-.009,18.162-.009q6.4,0,12.8,0a13.349,13.349,0,0,1,13.178,10.66,13.774,13.774,0,0,1,.273,2.792q.027,16.738.012,33.475v19.9q0,10.421,0,20.843a12.9,12.9,0,0,1-1.369,6,13.106,13.106,0,0,1-9.85,7.29,14.9,14.9,0,0,1-2.49.191q-8.821.025-17.642.011l-13.291,0a13.354,13.354,0,0,1-13.2-10.679A13.781,13.781,0,0,1,478.6,5146c-.021-7.644-.012-15.287-.012-22.931Zm3.007-37.694v76.047h52.094v-76.047Zm.152,76.819a10.03,10.03,0,0,0,2.777,5.375,10.278,10.278,0,0,0,7.594,3.111q15.276.009,30.553,0a14.269,14.269,0,0,0,2.114-.122,10.078,10.078,0,0,0,7.932-5.778,9.214,9.214,0,0,0,.83-2.585Zm51.867-77.6c0-.079,0-.135,0-.189a1.305,1.305,0,0,0-.012-.173,10.353,10.353,0,0,0-10.436-8.742c-5.3-.014-10.6,0-15.9,0-3,0-6.007-.009-9.011,0-2.388.007-4.779-.026-7.164.068a9.725,9.725,0,0,0-6.14,2.608,9.487,9.487,0,0,0-2.811,4.305c-.215.684-.358,1.391-.543,2.125Z" transform="translate(-478.582 -5058.272)" fill="#12263f"/>
      <path id="Trazado_621483-11" data-name="Trazado 621483" d="M651,5682.928h-2.137c-.325,0-.65-.007-.974,0-.2.006-.283-.066-.31-.273-.084-.641-.191-1.278-.292-1.937h-3.911c-.083.559-.176,1.114-.245,1.673-.066.533-.054.535-.573.535h-2.944c.094-.562.176-1.081.269-1.6q.613-3.409,1.231-6.817l1.206-6.68c.271-1.5.547-3,.808-4.5.047-.27.131-.391.438-.386,1.24.02,2.481.014,3.722,0,.241,0,.333.064.377.32.56,3.278,1.139,6.553,1.707,9.83q.843,4.863,1.673,9.728C651.048,5682.84,651.038,5682.852,651,5682.928Zm-4.288-5.308-1.3-8.909h-.036l-1.413,8.909Z" transform="translate(-628.407 -5620.863)" fill="#12263f"/>
      <path id="Trazado_621484-11" data-name="Trazado 621484" d="M1021.826,5675.588v.664q0,3.13,0,6.262c0,.449,0,.451-.464.451-.87,0-1.74-.018-2.609.009-.351.01-.453-.083-.45-.443q.044-6.365.058-12.731c.007-2.146.01-4.291,0-6.436,0-.327.117-.376.4-.375,1.786.012,3.571,0,5.357.007a5.277,5.277,0,0,1,5.522,4.972,7.391,7.391,0,0,1-1,4.969,5.369,5.369,0,0,1-4.745,2.653Zm.02-3.477c.706,0,1.387-.01,2.069,0a2.046,2.046,0,0,0,1.91-1.216,3.834,3.834,0,0,0,.41-2.481,2.132,2.132,0,0,0-1.911-1.978,24.048,24.048,0,0,0-2.478-.017Z" transform="translate(-980.739 -5620.899)" fill="#12263f"/>
      <path id="Trazado_621485-11" data-name="Trazado 621485" d="M833.56,5675.5v7.343a2.5,2.5,0,0,1-.281.031c-.951,0-1.9-.008-2.853.007-.276,0-.354-.077-.352-.354q.035-5.706.049-11.413.013-3.841.022-7.683c0-.607-.067-.526.545-.527,1.786,0,3.573-.035,5.359.01a5.15,5.15,0,0,1,4.618,2.6,6.273,6.273,0,0,1,.79,3.021,7.115,7.115,0,0,1-1.311,4.684,5.364,5.364,0,0,1-4.6,2.281C834.9,5675.488,834.252,5675.5,833.56,5675.5Zm.009-3.478c.722,0,1.4-.017,2.086,0a1.934,1.934,0,0,0,1.663-.835,3.673,3.673,0,0,0,.675-2.793,2.154,2.154,0,0,0-2.052-2.075c-.519-.032-1.041,0-1.562,0h-.81Z" transform="translate(-805.61 -5620.807)" fill="#12263f"/>
      <path id="Trazado_621486-11" data-name="Trazado 621486" d="M825.929,6385.384c-.788,0-1.577.02-2.365-.006a2.17,2.17,0,0,1-1.491-.648,1.424,1.424,0,0,1,.108-2.193,2.357,2.357,0,0,1,1.5-.559q2.261-.016,4.522,0a2.317,2.317,0,0,1,1.414.5,1.454,1.454,0,0,1-.154,2.509,3.055,3.055,0,0,1-1.239.384c-.76.06-1.529.017-2.294.017Z" transform="translate(-797.734 -6289.841)" fill="#12263f"/>
      <path id="Trazado_621487-11" data-name="Trazado 621487" d="M776.526,5133.5q3.165,0,6.329,0a2.369,2.369,0,0,1,1.4,4.361,2.435,2.435,0,0,1-1.384.382q-6.154.007-12.309-.005a3.683,3.683,0,0,1-1.254-.19,2.3,2.3,0,0,1-1.5-2.589,2.359,2.359,0,0,1,2.326-1.951c1.309-.012,2.619.015,3.928.021.821,0,1.642,0,2.463,0Z" transform="translate(-747.645 -5128.262)" fill="#12263f"/>
      <path id="Trazado_621488-11" data-name="Trazado 621488" d="M627.781,5130.992a2.474,2.474,0,1,1-2.492,2.49A2.484,2.484,0,0,1,627.781,5130.992Z" transform="translate(-615.079 -5125.931)" fill="#12263f"/>
    </g>
    <g id="Grupo_947858" data-name="Grupo 947858" transform="translate(646.218 12176.699)">
      <path id="Trazado_621482-12" data-name="Trazado 621482" d="M478.584,5108.837v-16.911q0-10.073,0-20.146a12.875,12.875,0,0,1,1.363-6,13.118,13.118,0,0,1,9.839-7.306,14.839,14.839,0,0,1,2.49-.193c6.054-.016,12.108-.009,18.162-.009q6.4,0,12.8,0a13.349,13.349,0,0,1,13.178,10.66,13.774,13.774,0,0,1,.273,2.792q.027,16.738.012,33.475v19.9q0,10.421,0,20.843a12.9,12.9,0,0,1-1.369,6,13.106,13.106,0,0,1-9.85,7.29,14.9,14.9,0,0,1-2.49.191q-8.821.025-17.642.011l-13.291,0a13.354,13.354,0,0,1-13.2-10.679A13.781,13.781,0,0,1,478.6,5146c-.021-7.644-.012-15.287-.012-22.931Zm3.007-37.694v76.047h52.094v-76.047Zm.152,76.819a10.03,10.03,0,0,0,2.777,5.375,10.278,10.278,0,0,0,7.594,3.111q15.276.009,30.553,0a14.269,14.269,0,0,0,2.114-.122,10.078,10.078,0,0,0,7.932-5.778,9.214,9.214,0,0,0,.83-2.585Zm51.867-77.6c0-.079,0-.135,0-.189a1.305,1.305,0,0,0-.012-.173,10.353,10.353,0,0,0-10.436-8.742c-5.3-.014-10.6,0-15.9,0-3,0-6.007-.009-9.011,0-2.388.007-4.779-.026-7.164.068a9.725,9.725,0,0,0-6.14,2.608,9.487,9.487,0,0,0-2.811,4.305c-.215.684-.358,1.391-.543,2.125Z" transform="translate(-478.582 -5058.272)" fill="#12263f"/>
      <path id="Trazado_621483-12" data-name="Trazado 621483" d="M651,5682.928h-2.137c-.325,0-.65-.007-.974,0-.2.006-.283-.066-.31-.273-.084-.641-.191-1.278-.292-1.937h-3.911c-.083.559-.176,1.114-.245,1.673-.066.533-.054.535-.573.535h-2.944c.094-.562.176-1.081.269-1.6q.613-3.409,1.231-6.817l1.206-6.68c.271-1.5.547-3,.808-4.5.047-.27.131-.391.438-.386,1.24.02,2.481.014,3.722,0,.241,0,.333.064.377.32.56,3.278,1.139,6.553,1.707,9.83q.843,4.863,1.673,9.728C651.048,5682.84,651.038,5682.852,651,5682.928Zm-4.288-5.308-1.3-8.909h-.036l-1.413,8.909Z" transform="translate(-628.407 -5620.863)" fill="#12263f"/>
      <path id="Trazado_621484-12" data-name="Trazado 621484" d="M1021.826,5675.588v.664q0,3.13,0,6.262c0,.449,0,.451-.464.451-.87,0-1.74-.018-2.609.009-.351.01-.453-.083-.45-.443q.044-6.365.058-12.731c.007-2.146.01-4.291,0-6.436,0-.327.117-.376.4-.375,1.786.012,3.571,0,5.357.007a5.277,5.277,0,0,1,5.522,4.972,7.391,7.391,0,0,1-1,4.969,5.369,5.369,0,0,1-4.745,2.653Zm.02-3.477c.706,0,1.387-.01,2.069,0a2.046,2.046,0,0,0,1.91-1.216,3.834,3.834,0,0,0,.41-2.481,2.132,2.132,0,0,0-1.911-1.978,24.048,24.048,0,0,0-2.478-.017Z" transform="translate(-980.739 -5620.899)" fill="#12263f"/>
      <path id="Trazado_621485-12" data-name="Trazado 621485" d="M833.56,5675.5v7.343a2.5,2.5,0,0,1-.281.031c-.951,0-1.9-.008-2.853.007-.276,0-.354-.077-.352-.354q.035-5.706.049-11.413.013-3.841.022-7.683c0-.607-.067-.526.545-.527,1.786,0,3.573-.035,5.359.01a5.15,5.15,0,0,1,4.618,2.6,6.273,6.273,0,0,1,.79,3.021,7.115,7.115,0,0,1-1.311,4.684,5.364,5.364,0,0,1-4.6,2.281C834.9,5675.488,834.252,5675.5,833.56,5675.5Zm.009-3.478c.722,0,1.4-.017,2.086,0a1.934,1.934,0,0,0,1.663-.835,3.673,3.673,0,0,0,.675-2.793,2.154,2.154,0,0,0-2.052-2.075c-.519-.032-1.041,0-1.562,0h-.81Z" transform="translate(-805.61 -5620.807)" fill="#12263f"/>
      <path id="Trazado_621486-12" data-name="Trazado 621486" d="M825.929,6385.384c-.788,0-1.577.02-2.365-.006a2.17,2.17,0,0,1-1.491-.648,1.424,1.424,0,0,1,.108-2.193,2.357,2.357,0,0,1,1.5-.559q2.261-.016,4.522,0a2.317,2.317,0,0,1,1.414.5,1.454,1.454,0,0,1-.154,2.509,3.055,3.055,0,0,1-1.239.384c-.76.06-1.529.017-2.294.017Z" transform="translate(-797.734 -6289.841)" fill="#12263f"/>
      <path id="Trazado_621487-12" data-name="Trazado 621487" d="M776.526,5133.5q3.165,0,6.329,0a2.369,2.369,0,0,1,1.4,4.361,2.435,2.435,0,0,1-1.384.382q-6.154.007-12.309-.005a3.683,3.683,0,0,1-1.254-.19,2.3,2.3,0,0,1-1.5-2.589,2.359,2.359,0,0,1,2.326-1.951c1.309-.012,2.619.015,3.928.021.821,0,1.642,0,2.463,0Z" transform="translate(-747.645 -5128.262)" fill="#12263f"/>
      <path id="Trazado_621488-12" data-name="Trazado 621488" d="M627.781,5130.992a2.474,2.474,0,1,1-2.492,2.49A2.484,2.484,0,0,1,627.781,5130.992Z" transform="translate(-615.079 -5125.931)" fill="#12263f"/>
    </g>
    <g id="Grupo_947859" data-name="Grupo 947859" transform="translate(1045.803 12227.124)">
      <path id="Trazado_621482-13" data-name="Trazado 621482" d="M478.584,5108.837v-16.911q0-10.073,0-20.146a12.875,12.875,0,0,1,1.363-6,13.118,13.118,0,0,1,9.839-7.306,14.839,14.839,0,0,1,2.49-.193c6.054-.016,12.108-.009,18.162-.009q6.4,0,12.8,0a13.349,13.349,0,0,1,13.178,10.66,13.774,13.774,0,0,1,.273,2.792q.027,16.738.012,33.475v19.9q0,10.421,0,20.843a12.9,12.9,0,0,1-1.369,6,13.106,13.106,0,0,1-9.85,7.29,14.9,14.9,0,0,1-2.49.191q-8.821.025-17.642.011l-13.291,0a13.354,13.354,0,0,1-13.2-10.679A13.781,13.781,0,0,1,478.6,5146c-.021-7.644-.012-15.287-.012-22.931Zm3.007-37.694v76.047h52.094v-76.047Zm.152,76.819a10.03,10.03,0,0,0,2.777,5.375,10.278,10.278,0,0,0,7.594,3.111q15.276.009,30.553,0a14.269,14.269,0,0,0,2.114-.122,10.078,10.078,0,0,0,7.932-5.778,9.214,9.214,0,0,0,.83-2.585Zm51.867-77.6c0-.079,0-.135,0-.189a1.305,1.305,0,0,0-.012-.173,10.353,10.353,0,0,0-10.436-8.742c-5.3-.014-10.6,0-15.9,0-3,0-6.007-.009-9.011,0-2.388.007-4.779-.026-7.164.068a9.725,9.725,0,0,0-6.14,2.608,9.487,9.487,0,0,0-2.811,4.305c-.215.684-.358,1.391-.543,2.125Z" transform="translate(-478.582 -5058.272)" fill="#12263f"/>
      <path id="Trazado_621483-13" data-name="Trazado 621483" d="M651,5682.928h-2.137c-.325,0-.65-.007-.974,0-.2.006-.283-.066-.31-.273-.084-.641-.191-1.278-.292-1.937h-3.911c-.083.559-.176,1.114-.245,1.673-.066.533-.054.535-.573.535h-2.944c.094-.562.176-1.081.269-1.6q.613-3.409,1.231-6.817l1.206-6.68c.271-1.5.547-3,.808-4.5.047-.27.131-.391.438-.386,1.24.02,2.481.014,3.722,0,.241,0,.333.064.377.32.56,3.278,1.139,6.553,1.707,9.83q.843,4.863,1.673,9.728C651.048,5682.84,651.038,5682.852,651,5682.928Zm-4.288-5.308-1.3-8.909h-.036l-1.413,8.909Z" transform="translate(-628.407 -5620.863)" fill="#12263f"/>
      <path id="Trazado_621484-13" data-name="Trazado 621484" d="M1021.826,5675.588v.664q0,3.13,0,6.262c0,.449,0,.451-.464.451-.87,0-1.74-.018-2.609.009-.351.01-.453-.083-.45-.443q.044-6.365.058-12.731c.007-2.146.01-4.291,0-6.436,0-.327.117-.376.4-.375,1.786.012,3.571,0,5.357.007a5.277,5.277,0,0,1,5.522,4.972,7.391,7.391,0,0,1-1,4.969,5.369,5.369,0,0,1-4.745,2.653Zm.02-3.477c.706,0,1.387-.01,2.069,0a2.046,2.046,0,0,0,1.91-1.216,3.834,3.834,0,0,0,.41-2.481,2.132,2.132,0,0,0-1.911-1.978,24.048,24.048,0,0,0-2.478-.017Z" transform="translate(-980.739 -5620.899)" fill="#12263f"/>
      <path id="Trazado_621485-13" data-name="Trazado 621485" d="M833.56,5675.5v7.343a2.5,2.5,0,0,1-.281.031c-.951,0-1.9-.008-2.853.007-.276,0-.354-.077-.352-.354q.035-5.706.049-11.413.013-3.841.022-7.683c0-.607-.067-.526.545-.527,1.786,0,3.573-.035,5.359.01a5.15,5.15,0,0,1,4.618,2.6,6.273,6.273,0,0,1,.79,3.021,7.115,7.115,0,0,1-1.311,4.684,5.364,5.364,0,0,1-4.6,2.281C834.9,5675.488,834.252,5675.5,833.56,5675.5Zm.009-3.478c.722,0,1.4-.017,2.086,0a1.934,1.934,0,0,0,1.663-.835,3.673,3.673,0,0,0,.675-2.793,2.154,2.154,0,0,0-2.052-2.075c-.519-.032-1.041,0-1.562,0h-.81Z" transform="translate(-805.61 -5620.807)" fill="#12263f"/>
      <path id="Trazado_621486-13" data-name="Trazado 621486" d="M825.929,6385.384c-.788,0-1.577.02-2.365-.006a2.17,2.17,0,0,1-1.491-.648,1.424,1.424,0,0,1,.108-2.193,2.357,2.357,0,0,1,1.5-.559q2.261-.016,4.522,0a2.317,2.317,0,0,1,1.414.5,1.454,1.454,0,0,1-.154,2.509,3.055,3.055,0,0,1-1.239.384c-.76.06-1.529.017-2.294.017Z" transform="translate(-797.734 -6289.841)" fill="#12263f"/>
      <path id="Trazado_621487-13" data-name="Trazado 621487" d="M776.526,5133.5q3.165,0,6.329,0a2.369,2.369,0,0,1,1.4,4.361,2.435,2.435,0,0,1-1.384.382q-6.154.007-12.309-.005a3.683,3.683,0,0,1-1.254-.19,2.3,2.3,0,0,1-1.5-2.589,2.359,2.359,0,0,1,2.326-1.951c1.309-.012,2.619.015,3.928.021.821,0,1.642,0,2.463,0Z" transform="translate(-747.645 -5128.262)" fill="#12263f"/>
      <path id="Trazado_621488-13" data-name="Trazado 621488" d="M627.781,5130.992a2.474,2.474,0,1,1-2.492,2.49A2.484,2.484,0,0,1,627.781,5130.992Z" transform="translate(-615.079 -5125.931)" fill="#12263f"/>
    </g>
    <g id="Grupo_947862" data-name="Grupo 947862" transform="translate(1045.803 11905.045)">
      <path id="Trazado_621482-14" data-name="Trazado 621482" d="M478.584,5108.837v-16.911q0-10.073,0-20.146a12.875,12.875,0,0,1,1.363-6,13.118,13.118,0,0,1,9.839-7.306,14.839,14.839,0,0,1,2.49-.193c6.054-.016,12.108-.009,18.162-.009q6.4,0,12.8,0a13.349,13.349,0,0,1,13.178,10.66,13.774,13.774,0,0,1,.273,2.792q.027,16.738.012,33.475v19.9q0,10.421,0,20.843a12.9,12.9,0,0,1-1.369,6,13.106,13.106,0,0,1-9.85,7.29,14.9,14.9,0,0,1-2.49.191q-8.821.025-17.642.011l-13.291,0a13.354,13.354,0,0,1-13.2-10.679A13.781,13.781,0,0,1,478.6,5146c-.021-7.644-.012-15.287-.012-22.931Zm3.007-37.694v76.047h52.094v-76.047Zm.152,76.819a10.03,10.03,0,0,0,2.777,5.375,10.278,10.278,0,0,0,7.594,3.111q15.276.009,30.553,0a14.269,14.269,0,0,0,2.114-.122,10.078,10.078,0,0,0,7.932-5.778,9.214,9.214,0,0,0,.83-2.585Zm51.867-77.6c0-.079,0-.135,0-.189a1.305,1.305,0,0,0-.012-.173,10.353,10.353,0,0,0-10.436-8.742c-5.3-.014-10.6,0-15.9,0-3,0-6.007-.009-9.011,0-2.388.007-4.779-.026-7.164.068a9.725,9.725,0,0,0-6.14,2.608,9.487,9.487,0,0,0-2.811,4.305c-.215.684-.358,1.391-.543,2.125Z" transform="translate(-478.582 -5058.272)" fill="#12263f"/>
      <path id="Trazado_621483-14" data-name="Trazado 621483" d="M651,5682.928h-2.137c-.325,0-.65-.007-.974,0-.2.006-.283-.066-.31-.273-.084-.641-.191-1.278-.292-1.937h-3.911c-.083.559-.176,1.114-.245,1.673-.066.533-.054.535-.573.535h-2.944c.094-.562.176-1.081.269-1.6q.613-3.409,1.231-6.817l1.206-6.68c.271-1.5.547-3,.808-4.5.047-.27.131-.391.438-.386,1.24.02,2.481.014,3.722,0,.241,0,.333.064.377.32.56,3.278,1.139,6.553,1.707,9.83q.843,4.863,1.673,9.728C651.048,5682.84,651.038,5682.852,651,5682.928Zm-4.288-5.308-1.3-8.909h-.036l-1.413,8.909Z" transform="translate(-628.407 -5620.863)" fill="#12263f"/>
      <path id="Trazado_621484-14" data-name="Trazado 621484" d="M1021.826,5675.588v.664q0,3.13,0,6.262c0,.449,0,.451-.464.451-.87,0-1.74-.018-2.609.009-.351.01-.453-.083-.45-.443q.044-6.365.058-12.731c.007-2.146.01-4.291,0-6.436,0-.327.117-.376.4-.375,1.786.012,3.571,0,5.357.007a5.277,5.277,0,0,1,5.522,4.972,7.391,7.391,0,0,1-1,4.969,5.369,5.369,0,0,1-4.745,2.653Zm.02-3.477c.706,0,1.387-.01,2.069,0a2.046,2.046,0,0,0,1.91-1.216,3.834,3.834,0,0,0,.41-2.481,2.132,2.132,0,0,0-1.911-1.978,24.048,24.048,0,0,0-2.478-.017Z" transform="translate(-980.739 -5620.899)" fill="#12263f"/>
      <path id="Trazado_621485-14" data-name="Trazado 621485" d="M833.56,5675.5v7.343a2.5,2.5,0,0,1-.281.031c-.951,0-1.9-.008-2.853.007-.276,0-.354-.077-.352-.354q.035-5.706.049-11.413.013-3.841.022-7.683c0-.607-.067-.526.545-.527,1.786,0,3.573-.035,5.359.01a5.15,5.15,0,0,1,4.618,2.6,6.273,6.273,0,0,1,.79,3.021,7.115,7.115,0,0,1-1.311,4.684,5.364,5.364,0,0,1-4.6,2.281C834.9,5675.488,834.252,5675.5,833.56,5675.5Zm.009-3.478c.722,0,1.4-.017,2.086,0a1.934,1.934,0,0,0,1.663-.835,3.673,3.673,0,0,0,.675-2.793,2.154,2.154,0,0,0-2.052-2.075c-.519-.032-1.041,0-1.562,0h-.81Z" transform="translate(-805.61 -5620.807)" fill="#12263f"/>
      <path id="Trazado_621486-14" data-name="Trazado 621486" d="M825.929,6385.384c-.788,0-1.577.02-2.365-.006a2.17,2.17,0,0,1-1.491-.648,1.424,1.424,0,0,1,.108-2.193,2.357,2.357,0,0,1,1.5-.559q2.261-.016,4.522,0a2.317,2.317,0,0,1,1.414.5,1.454,1.454,0,0,1-.154,2.509,3.055,3.055,0,0,1-1.239.384c-.76.06-1.529.017-2.294.017Z" transform="translate(-797.734 -6289.841)" fill="#12263f"/>
      <path id="Trazado_621487-14" data-name="Trazado 621487" d="M776.526,5133.5q3.165,0,6.329,0a2.369,2.369,0,0,1,1.4,4.361,2.435,2.435,0,0,1-1.384.382q-6.154.007-12.309-.005a3.683,3.683,0,0,1-1.254-.19,2.3,2.3,0,0,1-1.5-2.589,2.359,2.359,0,0,1,2.326-1.951c1.309-.012,2.619.015,3.928.021.821,0,1.642,0,2.463,0Z" transform="translate(-747.645 -5128.262)" fill="#12263f"/>
      <path id="Trazado_621488-14" data-name="Trazado 621488" d="M627.781,5130.992a2.474,2.474,0,1,1-2.492,2.49A2.484,2.484,0,0,1,627.781,5130.992Z" transform="translate(-615.079 -5125.931)" fill="#12263f"/>
    </g>
    <g id="Elipse_8386" data-name="Elipse 8386" transform="translate(390 12077)" fill="#12263f" stroke="#12263f" stroke-width="4">
      <circle cx="29" cy="29" r="29" stroke="none"/>
      <circle cx="29" cy="29" r="27" fill="none"/>
    </g>
    <g id="Elipse_8387" data-name="Elipse 8387" transform="translate(465 12077)" fill="#12263f" stroke="#12263f" stroke-width="4">
      <ellipse cx="28.5" cy="29" rx="28.5" ry="29" stroke="none"/>
      <ellipse cx="28.5" cy="29" rx="26.5" ry="27" fill="none"/>
    </g>
    <g id="Elipse_8388" data-name="Elipse 8388" transform="translate(535 12077)" fill="#12263f" stroke="#12263f" stroke-width="4">
      <ellipse cx="28.5" cy="29" rx="28.5" ry="29" stroke="none"/>
      <ellipse cx="28.5" cy="29" rx="26.5" ry="27" fill="none"/>
    </g>
    <g id="Elipse_8389" data-name="Elipse 8389" transform="translate(647 12077)" fill="#12263f" stroke="#12263f" stroke-width="4">
      <ellipse cx="28.5" cy="29" rx="28.5" ry="29" stroke="none"/>
      <ellipse cx="28.5" cy="29" rx="26.5" ry="27" fill="none"/>
    </g>
    <path id="Trazado_621489" data-name="Trazado 621489" d="M-4670,443v42.706" transform="translate(5088.77 11691.521)" fill="none" stroke="#12263f" stroke-width="4"/>
    <path id="Trazado_621490" data-name="Trazado 621490" d="M-4670,443v42.706" transform="translate(5163.359 11691.521)" fill="none" stroke="#12263f" stroke-width="4"/>
    <path id="Trazado_621502" data-name="Trazado 621502" d="M-4670,443V663.913" transform="translate(5562.945 11563.211)" fill="none" stroke="#12263f" stroke-width="4"/>
    <path id="Trazado_621491" data-name="Trazado 621491" d="M-4670,443v42.706" transform="translate(5233.687 11691.521)" fill="none" stroke="#12263f" stroke-width="4"/>
    <path id="Trazado_621498" data-name="Trazado 621498" d="M-4670,443V664.441" transform="translate(5633.272 11563.211)" fill="none" stroke="#12263f" stroke-width="4"/>
    <path id="Trazado_621492" data-name="Trazado 621492" d="M-4670,443v42.706" transform="translate(5345.571 11691.521)" fill="none" stroke="#12263f" stroke-width="4"/>
    <path id="Trazado_621497" data-name="Trazado 621497" d="M-4670,443V664.441" transform="translate(5745.156 11563.211)" fill="none" stroke="#12263f" stroke-width="4"/>
    <path id="Trazado_621493" data-name="Trazado 621493" d="M-4669.727,402.038l95.082-60.67" transform="translate(5088.789 11680.805)" fill="none" stroke="#12263f" stroke-width="4"/>
    <path id="Trazado_621494" data-name="Trazado 621494" d="M-4592,400.526l35.048-58.1" transform="translate(5088.377 11679.746)" fill="none" stroke="#12263f" stroke-width="4"/>
    <path id="Trazado_621495" data-name="Trazado 621495" d="M-4533.53,399.366l-15.143-56.616" transform="translate(5097.216 11683.476)" fill="none" stroke="#12263f" stroke-width="4"/>
    <path id="Trazado_621496" data-name="Trazado 621496" d="M-4422.506,400.366l-94.119-58.1" transform="translate(5097.786 11679.906)" fill="none" stroke="#12263f" stroke-width="4"/>
    <path id="Trazado_622664" data-name="Trazado 622664" d="M3.727,0H1.237V-12.086h2.49ZM12.3-3.171a1.278,1.278,0,0,0-.5-1.083,6.533,6.533,0,0,0-1.793-.8,12.71,12.71,0,0,1-2.05-.826,3.35,3.35,0,0,1-2.059-3,2.919,2.919,0,0,1,.552-1.747,3.6,3.6,0,0,1,1.585-1.2,5.967,5.967,0,0,1,2.32-.432,5.432,5.432,0,0,1,2.308.469,3.674,3.674,0,0,1,1.573,1.324,3.464,3.464,0,0,1,.56,1.942H12.31a1.63,1.63,0,0,0-.523-1.291,2.15,2.15,0,0,0-1.469-.461A2.3,2.3,0,0,0,8.9-9.882a1.217,1.217,0,0,0-.506,1.017,1.166,1.166,0,0,0,.594.988,6.705,6.705,0,0,0,1.747.747,7.55,7.55,0,0,1,3.1,1.585A3.157,3.157,0,0,1,14.8-3.187,2.909,2.909,0,0,1,13.613-.726a5.2,5.2,0,0,1-3.2.892,6.171,6.171,0,0,1-2.54-.51,4.019,4.019,0,0,1-1.747-1.4,3.582,3.582,0,0,1-.6-2.059h2.5q0,2,2.391,2A2.326,2.326,0,0,0,11.8-2.162,1.175,1.175,0,0,0,12.3-3.171Zm6.674-1.087V0h-2.49V-12.086H21.2a5.455,5.455,0,0,1,2.395.5,3.67,3.67,0,0,1,1.59,1.415,3.946,3.946,0,0,1,.556,2.088,3.47,3.47,0,0,1-1.216,2.8,5.065,5.065,0,0,1-3.366,1.025Zm0-2.017H21.2a2.187,2.187,0,0,0,1.507-.465,1.691,1.691,0,0,0,.519-1.328A1.994,1.994,0,0,0,22.7-9.5a1.953,1.953,0,0,0-1.444-.564H18.976Z" transform="translate(406 12111)" fill="#fff"/>
    <path id="Trazado_622663" data-name="Trazado 622663" d="M10.567-4.026A4.277,4.277,0,0,1,9.127-.955,5.058,5.058,0,0,1,5.7.166,4.548,4.548,0,0,1,2.046-1.4a6.416,6.416,0,0,1-1.332-4.3v-.739A7.245,7.245,0,0,1,1.328-9.5a4.6,4.6,0,0,1,1.756-2.038,4.918,4.918,0,0,1,2.652-.71,4.927,4.927,0,0,1,3.37,1.121,4.6,4.6,0,0,1,1.478,3.146H8.093a2.524,2.524,0,0,0-.652-1.7,2.413,2.413,0,0,0-1.706-.527,2.116,2.116,0,0,0-1.864.892,5,5,0,0,0-.635,2.768v.913a5.352,5.352,0,0,0,.594,2.864,2.077,2.077,0,0,0,1.872.9,2.458,2.458,0,0,0,1.722-.527,2.381,2.381,0,0,0,.652-1.631Zm8.907-1.212H14.692V-2H20.3V0H12.2V-12.086h8.085v2.017H14.692v2.88h4.781ZM31.593,0H29.1L24.255-7.952V0h-2.49V-12.086h2.49l4.856,7.969v-7.969h2.482ZM42.865-10.069h-3.7V0h-2.49V-10.069H33.021v-2.017h9.845Zm5.894,5.645H46.775V0h-2.49V-12.086h4.491a5.076,5.076,0,0,1,3.3.955,3.3,3.3,0,0,1,1.162,2.7,3.718,3.718,0,0,1-.535,2.063,3.651,3.651,0,0,1-1.623,1.316L53.7-.116V0H51.025ZM46.775-6.441h2.009a2.057,2.057,0,0,0,1.453-.477,1.706,1.706,0,0,0,.515-1.316,1.826,1.826,0,0,0-.486-1.345,2.018,2.018,0,0,0-1.49-.49h-2Zm18.287.672a7.3,7.3,0,0,1-.631,3.129A4.751,4.751,0,0,1,62.625-.564a4.994,4.994,0,0,1-2.694.73A5.028,5.028,0,0,1,57.25-.556a4.8,4.8,0,0,1-1.826-2.063A7.087,7.087,0,0,1,54.769-5.7v-.6a7.258,7.258,0,0,1,.643-3.142,4.79,4.79,0,0,1,1.818-2.083,5,5,0,0,1,2.685-.726,5,5,0,0,1,2.685.726,4.79,4.79,0,0,1,1.818,2.083,7.237,7.237,0,0,1,.643,3.134Zm-2.523-.548a5.086,5.086,0,0,0-.681-2.889,2.218,2.218,0,0,0-1.942-.988,2.219,2.219,0,0,0-1.934.975,5.028,5.028,0,0,0-.689,2.86v.589A5.15,5.15,0,0,0,57.973-2.9a2.212,2.212,0,0,0,1.959,1.021,2.192,2.192,0,0,0,1.926-.984,5.12,5.12,0,0,0,.681-2.868ZM71.1,0V-12.086h3.719a5.647,5.647,0,0,1,2.851.718,5.007,5.007,0,0,1,1.963,2.042,6.3,6.3,0,0,1,.706,3.009v.556a6.316,6.316,0,0,1-.693,3A4.964,4.964,0,0,1,77.7-.73,5.69,5.69,0,0,1,74.848,0Zm2.49-10.069V-2h1.2a2.7,2.7,0,0,0,2.233-.955,4.314,4.314,0,0,0,.789-2.731v-.639a4.382,4.382,0,0,0-.764-2.793,2.7,2.7,0,0,0-2.233-.95Zm15.83,4.831H84.643V-2h5.611V0h-8.1V-12.086h8.085v2.017H84.643v2.88h4.781ZM95.949,0V-12.086h3.719a5.647,5.647,0,0,1,2.851.718,5.007,5.007,0,0,1,1.963,2.042,6.3,6.3,0,0,1,.706,3.009v.556a6.316,6.316,0,0,1-.693,3A4.964,4.964,0,0,1,102.54-.73,5.69,5.69,0,0,1,99.692,0Zm2.49-10.069V-2h1.2a2.7,2.7,0,0,0,2.233-.955,4.314,4.314,0,0,0,.789-2.731v-.639a4.382,4.382,0,0,0-.764-2.793,2.7,2.7,0,0,0-2.233-.95ZM113.82-2.49h-4.366L108.624,0h-2.648l4.5-12.086h2.308L117.307,0h-2.648Zm-3.694-2.017h3.021l-1.519-4.524Zm16.411-5.562h-3.7V0h-2.49V-10.069h-3.652v-2.017h9.845Zm11.115,4.3a7.3,7.3,0,0,1-.631,3.129,4.751,4.751,0,0,1-1.805,2.075,4.994,4.994,0,0,1-2.694.73,5.028,5.028,0,0,1-2.681-.722,4.8,4.8,0,0,1-1.826-2.063,7.087,7.087,0,0,1-.656-3.084v-.6A7.258,7.258,0,0,1,128-9.442a4.79,4.79,0,0,1,1.818-2.083,5,5,0,0,1,2.685-.726,5,5,0,0,1,2.685.726,4.79,4.79,0,0,1,1.818,2.083,7.237,7.237,0,0,1,.643,3.134Zm-2.523-.548a5.086,5.086,0,0,0-.681-2.889,2.218,2.218,0,0,0-1.942-.988,2.219,2.219,0,0,0-1.934.975,5.028,5.028,0,0,0-.689,2.86v.589a5.15,5.15,0,0,0,.681,2.872,2.212,2.212,0,0,0,1.959,1.021,2.192,2.192,0,0,0,1.926-.984,5.12,5.12,0,0,0,.681-2.868Zm10.6,3.146a1.278,1.278,0,0,0-.5-1.083,6.533,6.533,0,0,0-1.793-.8,12.71,12.71,0,0,1-2.05-.826,3.35,3.35,0,0,1-2.059-3,2.919,2.919,0,0,1,.552-1.747,3.6,3.6,0,0,1,1.585-1.2,5.967,5.967,0,0,1,2.32-.432,5.432,5.432,0,0,1,2.308.469,3.674,3.674,0,0,1,1.573,1.324,3.464,3.464,0,0,1,.56,1.942h-2.49a1.63,1.63,0,0,0-.523-1.291,2.15,2.15,0,0,0-1.469-.461,2.3,2.3,0,0,0-1.419.386,1.217,1.217,0,0,0-.506,1.017,1.166,1.166,0,0,0,.594.988,6.705,6.705,0,0,0,1.747.747,7.55,7.55,0,0,1,3.1,1.585,3.157,3.157,0,0,1,.971,2.357A2.909,2.909,0,0,1,147.04-.726a5.2,5.2,0,0,1-3.2.892,6.171,6.171,0,0,1-2.54-.51,4.019,4.019,0,0,1-1.747-1.4,3.582,3.582,0,0,1-.6-2.059h2.5q0,2,2.391,2a2.326,2.326,0,0,0,1.386-.361A1.175,1.175,0,0,0,145.729-3.171Z" transform="translate(472 12001)" fill="#12263f"/>
    <path id="Trazado_622662" data-name="Trazado 622662" d="M7.9-2.49H3.536L2.706,0H.058l4.5-12.086H6.865L11.389,0H8.741ZM4.208-4.507H7.23L5.711-9.031Zm10.8.249V0h-2.49V-12.086h4.715a5.455,5.455,0,0,1,2.395.5,3.67,3.67,0,0,1,1.59,1.415,3.946,3.946,0,0,1,.556,2.088,3.47,3.47,0,0,1-1.216,2.8,5.065,5.065,0,0,1-3.366,1.025Zm0-2.017h2.225a2.187,2.187,0,0,0,1.507-.465,1.691,1.691,0,0,0,.519-1.328A1.994,1.994,0,0,0,18.735-9.5a1.953,1.953,0,0,0-1.444-.564H15.008ZM25.973-4.258V0h-2.49V-12.086H28.2a5.455,5.455,0,0,1,2.395.5,3.67,3.67,0,0,1,1.59,1.415,3.946,3.946,0,0,1,.556,2.088,3.47,3.47,0,0,1-1.216,2.8,5.065,5.065,0,0,1-3.366,1.025Zm0-2.017H28.2A2.187,2.187,0,0,0,29.7-6.74a1.691,1.691,0,0,0,.519-1.328A1.994,1.994,0,0,0,29.7-9.5a1.953,1.953,0,0,0-1.444-.564H25.973Zm14.742,3.1a1.278,1.278,0,0,0-.5-1.083,6.533,6.533,0,0,0-1.793-.8,12.71,12.71,0,0,1-2.05-.826,3.35,3.35,0,0,1-2.059-3,2.919,2.919,0,0,1,.552-1.747,3.6,3.6,0,0,1,1.585-1.2,5.967,5.967,0,0,1,2.32-.432,5.432,5.432,0,0,1,2.308.469,3.674,3.674,0,0,1,1.573,1.324,3.464,3.464,0,0,1,.56,1.942h-2.49A1.63,1.63,0,0,0,40.2-9.807a2.15,2.15,0,0,0-1.469-.461,2.3,2.3,0,0,0-1.419.386,1.217,1.217,0,0,0-.506,1.017,1.166,1.166,0,0,0,.594.988,6.705,6.705,0,0,0,1.747.747,7.55,7.55,0,0,1,3.1,1.585,3.157,3.157,0,0,1,.971,2.357A2.909,2.909,0,0,1,42.027-.726a5.2,5.2,0,0,1-3.2.892,6.171,6.171,0,0,1-2.54-.51,4.019,4.019,0,0,1-1.747-1.4,3.582,3.582,0,0,1-.6-2.059h2.5q0,2,2.391,2a2.326,2.326,0,0,0,1.386-.361A1.175,1.175,0,0,0,40.715-3.171Zm17.9-.855A4.277,4.277,0,0,1,57.18-.955,5.058,5.058,0,0,1,53.756.166,4.548,4.548,0,0,1,50.1-1.4a6.416,6.416,0,0,1-1.332-4.3v-.739A7.245,7.245,0,0,1,49.381-9.5a4.6,4.6,0,0,1,1.756-2.038,4.918,4.918,0,0,1,2.652-.71,4.927,4.927,0,0,1,3.37,1.121,4.6,4.6,0,0,1,1.478,3.146h-2.49a2.524,2.524,0,0,0-.652-1.7,2.413,2.413,0,0,0-1.706-.527,2.116,2.116,0,0,0-1.864.892,5,5,0,0,0-.635,2.768v.913a5.352,5.352,0,0,0,.594,2.864,2.077,2.077,0,0,0,1.872.9,2.458,2.458,0,0,0,1.722-.527,2.381,2.381,0,0,0,.652-1.631ZM70.183-5.769a7.3,7.3,0,0,1-.631,3.129A4.751,4.751,0,0,1,67.747-.564a4.994,4.994,0,0,1-2.694.73,5.028,5.028,0,0,1-2.681-.722,4.8,4.8,0,0,1-1.826-2.063A7.087,7.087,0,0,1,59.89-5.7v-.6a7.258,7.258,0,0,1,.643-3.142,4.79,4.79,0,0,1,1.818-2.083,5,5,0,0,1,2.685-.726,5,5,0,0,1,2.685.726A4.79,4.79,0,0,1,69.54-9.442a7.237,7.237,0,0,1,.643,3.134ZM67.66-6.317a5.086,5.086,0,0,0-.681-2.889,2.218,2.218,0,0,0-1.942-.988,2.219,2.219,0,0,0-1.934.975,5.028,5.028,0,0,0-.689,2.86v.589A5.15,5.15,0,0,0,63.094-2.9a2.212,2.212,0,0,0,1.959,1.021,2.192,2.192,0,0,0,1.926-.984,5.12,5.12,0,0,0,.681-2.868ZM81.821,0h-2.49L74.483-7.952V0h-2.49V-12.086h2.49l4.856,7.969v-7.969h2.482Zm6.641-3L91.2-12.086h2.772L89.765,0h-2.6L82.975-12.086h2.764Zm13.92-2.241H97.6V-2h5.611V0h-8.1V-12.086H103.2v2.017H97.6v2.88h4.781ZM114.5,0h-2.49l-4.848-7.952V0h-2.49V-12.086h2.49l4.856,7.969v-7.969H114.5Zm11.663-4.026a4.277,4.277,0,0,1-1.44,3.071A5.058,5.058,0,0,1,121.3.166,4.548,4.548,0,0,1,117.643-1.4a6.416,6.416,0,0,1-1.332-4.3v-.739a7.245,7.245,0,0,1,.614-3.071,4.6,4.6,0,0,1,1.756-2.038,4.918,4.918,0,0,1,2.652-.71,4.927,4.927,0,0,1,3.37,1.121,4.6,4.6,0,0,1,1.478,3.146h-2.49a2.524,2.524,0,0,0-.652-1.7,2.413,2.413,0,0,0-1.706-.527,2.116,2.116,0,0,0-1.864.892,5,5,0,0,0-.635,2.768v.913a5.352,5.352,0,0,0,.594,2.864,2.077,2.077,0,0,0,1.872.9,2.458,2.458,0,0,0,1.722-.527,2.381,2.381,0,0,0,.652-1.631ZM130.447,0h-2.49V-12.086h2.49Zm12.235-5.769a7.3,7.3,0,0,1-.631,3.129,4.751,4.751,0,0,1-1.805,2.075,4.994,4.994,0,0,1-2.694.73,5.028,5.028,0,0,1-2.681-.722,4.8,4.8,0,0,1-1.826-2.063,7.087,7.087,0,0,1-.656-3.084v-.6a7.258,7.258,0,0,1,.643-3.142,4.79,4.79,0,0,1,1.818-2.083,5,5,0,0,1,2.685-.726,5,5,0,0,1,2.685.726,4.79,4.79,0,0,1,1.818,2.083,7.237,7.237,0,0,1,.643,3.134Zm-2.523-.548a5.086,5.086,0,0,0-.681-2.889,2.218,2.218,0,0,0-1.942-.988,2.219,2.219,0,0,0-1.934.975,5.028,5.028,0,0,0-.689,2.86v.589a5.15,5.15,0,0,0,.681,2.872,2.212,2.212,0,0,0,1.959,1.021,2.192,2.192,0,0,0,1.926-.984,5.12,5.12,0,0,0,.681-2.868ZM154.32,0h-2.49l-4.848-7.952V0h-2.49V-12.086h2.49l4.856,7.969v-7.969h2.482Zm9-2.49h-4.366L158.122,0h-2.648l4.5-12.086h2.308L166.8,0h-2.648Zm-3.694-2.017h3.021l-1.519-4.524ZM170.423-2h5.288V0h-7.778V-12.086h2.49Z" transform="translate(470 11882)" fill="#12263f"/>
    <path id="Trazado_622661" data-name="Trazado 622661" d="M1.079,0V-12.086H4.8a5.647,5.647,0,0,1,2.851.718A5.007,5.007,0,0,1,9.612-9.326a6.3,6.3,0,0,1,.706,3.009v.556a6.316,6.316,0,0,1-.693,3A4.964,4.964,0,0,1,7.67-.73,5.69,5.69,0,0,1,4.823,0Zm2.49-10.069V-2h1.2a2.7,2.7,0,0,0,2.233-.955,4.314,4.314,0,0,0,.789-2.731v-.639a4.382,4.382,0,0,0-.764-2.793,2.7,2.7,0,0,0-2.233-.95ZM18.951-2.49H14.584L13.754,0H11.106l4.5-12.086h2.308L22.437,0H19.789ZM15.257-4.507h3.021L16.759-9.031Zm10.8.249V0h-2.49V-12.086h4.715a5.455,5.455,0,0,1,2.395.5,3.67,3.67,0,0,1,1.59,1.415,3.946,3.946,0,0,1,.556,2.088,3.47,3.47,0,0,1-1.216,2.8,5.065,5.065,0,0,1-3.366,1.025Zm0-2.017h2.225a2.187,2.187,0,0,0,1.507-.465,1.691,1.691,0,0,0,.519-1.328A1.994,1.994,0,0,0,29.783-9.5a1.953,1.953,0,0,0-1.444-.564H26.056ZM37.021-4.258V0h-2.49V-12.086h4.715a5.455,5.455,0,0,1,2.395.5,3.67,3.67,0,0,1,1.59,1.415,3.946,3.946,0,0,1,.556,2.088,3.47,3.47,0,0,1-1.216,2.8A5.065,5.065,0,0,1,39.2-4.258Zm0-2.017h2.225a2.187,2.187,0,0,0,1.507-.465,1.691,1.691,0,0,0,.519-1.328A1.994,1.994,0,0,0,40.749-9.5a1.953,1.953,0,0,0-1.444-.564H37.021Zm14.742,3.1a1.278,1.278,0,0,0-.5-1.083,6.533,6.533,0,0,0-1.793-.8,12.71,12.71,0,0,1-2.05-.826,3.35,3.35,0,0,1-2.059-3,2.919,2.919,0,0,1,.552-1.747,3.6,3.6,0,0,1,1.585-1.2,5.967,5.967,0,0,1,2.32-.432,5.432,5.432,0,0,1,2.308.469A3.674,3.674,0,0,1,53.7-10.459a3.464,3.464,0,0,1,.56,1.942h-2.49a1.63,1.63,0,0,0-.523-1.291,2.15,2.15,0,0,0-1.469-.461,2.3,2.3,0,0,0-1.419.386,1.217,1.217,0,0,0-.506,1.017,1.166,1.166,0,0,0,.594.988,6.705,6.705,0,0,0,1.747.747,7.55,7.55,0,0,1,3.1,1.585,3.157,3.157,0,0,1,.971,2.357A2.909,2.909,0,0,1,53.075-.726a5.2,5.2,0,0,1-3.2.892,6.171,6.171,0,0,1-2.54-.51,4.019,4.019,0,0,1-1.747-1.4,3.582,3.582,0,0,1-.6-2.059h2.5q0,2,2.391,2a2.326,2.326,0,0,0,1.386-.361A1.175,1.175,0,0,0,51.764-3.171Z" transform="translate(986 11883)" fill="#12263f"/>
    <path id="Trazado_622665" data-name="Trazado 622665" d="M3.727,0H1.237V-12.086h2.49ZM12.3-3.171a1.278,1.278,0,0,0-.5-1.083,6.533,6.533,0,0,0-1.793-.8,12.71,12.71,0,0,1-2.05-.826,3.35,3.35,0,0,1-2.059-3,2.919,2.919,0,0,1,.552-1.747,3.6,3.6,0,0,1,1.585-1.2,5.967,5.967,0,0,1,2.32-.432,5.432,5.432,0,0,1,2.308.469,3.674,3.674,0,0,1,1.573,1.324,3.464,3.464,0,0,1,.56,1.942H12.31a1.63,1.63,0,0,0-.523-1.291,2.15,2.15,0,0,0-1.469-.461A2.3,2.3,0,0,0,8.9-9.882a1.217,1.217,0,0,0-.506,1.017,1.166,1.166,0,0,0,.594.988,6.705,6.705,0,0,0,1.747.747,7.55,7.55,0,0,1,3.1,1.585A3.157,3.157,0,0,1,14.8-3.187,2.909,2.909,0,0,1,13.613-.726a5.2,5.2,0,0,1-3.2.892,6.171,6.171,0,0,1-2.54-.51,4.019,4.019,0,0,1-1.747-1.4,3.582,3.582,0,0,1-.6-2.059h2.5q0,2,2.391,2A2.326,2.326,0,0,0,11.8-2.162,1.175,1.175,0,0,0,12.3-3.171Zm6.674-1.087V0h-2.49V-12.086H21.2a5.455,5.455,0,0,1,2.395.5,3.67,3.67,0,0,1,1.59,1.415,3.946,3.946,0,0,1,.556,2.088,3.47,3.47,0,0,1-1.216,2.8,5.065,5.065,0,0,1-3.366,1.025Zm0-2.017H21.2a2.187,2.187,0,0,0,1.507-.465,1.691,1.691,0,0,0,.519-1.328A1.994,1.994,0,0,0,22.7-9.5a1.953,1.953,0,0,0-1.444-.564H18.976Z" transform="translate(481 12111)" fill="#fff"/>
    <path id="Trazado_622666" data-name="Trazado 622666" d="M3.727,0H1.237V-12.086h2.49ZM12.3-3.171a1.278,1.278,0,0,0-.5-1.083,6.533,6.533,0,0,0-1.793-.8,12.71,12.71,0,0,1-2.05-.826,3.35,3.35,0,0,1-2.059-3,2.919,2.919,0,0,1,.552-1.747,3.6,3.6,0,0,1,1.585-1.2,5.967,5.967,0,0,1,2.32-.432,5.432,5.432,0,0,1,2.308.469,3.674,3.674,0,0,1,1.573,1.324,3.464,3.464,0,0,1,.56,1.942H12.31a1.63,1.63,0,0,0-.523-1.291,2.15,2.15,0,0,0-1.469-.461A2.3,2.3,0,0,0,8.9-9.882a1.217,1.217,0,0,0-.506,1.017,1.166,1.166,0,0,0,.594.988,6.705,6.705,0,0,0,1.747.747,7.55,7.55,0,0,1,3.1,1.585A3.157,3.157,0,0,1,14.8-3.187,2.909,2.909,0,0,1,13.613-.726a5.2,5.2,0,0,1-3.2.892,6.171,6.171,0,0,1-2.54-.51,4.019,4.019,0,0,1-1.747-1.4,3.582,3.582,0,0,1-.6-2.059h2.5q0,2,2.391,2A2.326,2.326,0,0,0,11.8-2.162,1.175,1.175,0,0,0,12.3-3.171Zm6.674-1.087V0h-2.49V-12.086H21.2a5.455,5.455,0,0,1,2.395.5,3.67,3.67,0,0,1,1.59,1.415,3.946,3.946,0,0,1,.556,2.088,3.47,3.47,0,0,1-1.216,2.8,5.065,5.065,0,0,1-3.366,1.025Zm0-2.017H21.2a2.187,2.187,0,0,0,1.507-.465,1.691,1.691,0,0,0,.519-1.328A1.994,1.994,0,0,0,22.7-9.5a1.953,1.953,0,0,0-1.444-.564H18.976Z" transform="translate(551 12111)" fill="#fff"/>
    <path id="Trazado_622667" data-name="Trazado 622667" d="M3.727,0H1.237V-12.086h2.49ZM12.3-3.171a1.278,1.278,0,0,0-.5-1.083,6.533,6.533,0,0,0-1.793-.8,12.71,12.71,0,0,1-2.05-.826,3.35,3.35,0,0,1-2.059-3,2.919,2.919,0,0,1,.552-1.747,3.6,3.6,0,0,1,1.585-1.2,5.967,5.967,0,0,1,2.32-.432,5.432,5.432,0,0,1,2.308.469,3.674,3.674,0,0,1,1.573,1.324,3.464,3.464,0,0,1,.56,1.942H12.31a1.63,1.63,0,0,0-.523-1.291,2.15,2.15,0,0,0-1.469-.461A2.3,2.3,0,0,0,8.9-9.882a1.217,1.217,0,0,0-.506,1.017,1.166,1.166,0,0,0,.594.988,6.705,6.705,0,0,0,1.747.747,7.55,7.55,0,0,1,3.1,1.585A3.157,3.157,0,0,1,14.8-3.187,2.909,2.909,0,0,1,13.613-.726a5.2,5.2,0,0,1-3.2.892,6.171,6.171,0,0,1-2.54-.51,4.019,4.019,0,0,1-1.747-1.4,3.582,3.582,0,0,1-.6-2.059h2.5q0,2,2.391,2A2.326,2.326,0,0,0,11.8-2.162,1.175,1.175,0,0,0,12.3-3.171Zm6.674-1.087V0h-2.49V-12.086H21.2a5.455,5.455,0,0,1,2.395.5,3.67,3.67,0,0,1,1.59,1.415,3.946,3.946,0,0,1,.556,2.088,3.47,3.47,0,0,1-1.216,2.8,5.065,5.065,0,0,1-3.366,1.025Zm0-2.017H21.2a2.187,2.187,0,0,0,1.507-.465,1.691,1.691,0,0,0,.519-1.328A1.994,1.994,0,0,0,22.7-9.5a1.953,1.953,0,0,0-1.444-.564H18.976Z" transform="translate(663 12111)" fill="#fff"/>
    <path id="Trazado_622675" data-name="Trazado 622675" d="M2.013-2.149a2.2,2.2,0,0,1,.7-1.7A2.5,2.5,0,0,1,4.48-4.5a2.518,2.518,0,0,1,1.779.651,2.2,2.2,0,0,1,.7,1.7,2.172,2.172,0,0,1-.7,1.673A2.528,2.528,0,0,1,4.48.167,2.508,2.508,0,0,1,2.709-.477,2.172,2.172,0,0,1,2.013-2.149Zm7.16,0a2.2,2.2,0,0,1,.7-1.7A2.5,2.5,0,0,1,11.64-4.5a2.518,2.518,0,0,1,1.779.651,2.2,2.2,0,0,1,.7,1.7,2.172,2.172,0,0,1-.7,1.673A2.528,2.528,0,0,1,11.64.167,2.508,2.508,0,0,1,9.869-.477,2.172,2.172,0,0,1,9.173-2.149Zm7.023,0a2.2,2.2,0,0,1,.7-1.7A2.5,2.5,0,0,1,18.664-4.5a2.518,2.518,0,0,1,1.779.651,2.2,2.2,0,0,1,.7,1.7,2.172,2.172,0,0,1-.7,1.673,2.528,2.528,0,0,1-1.786.643,2.508,2.508,0,0,1-1.771-.643A2.172,2.172,0,0,1,16.2-2.149Z" transform="translate(607 12231)" fill="#12263f"/>
    <path id="Trazado_622676" data-name="Trazado 622676" d="M2.013-2.149a2.2,2.2,0,0,1,.7-1.7A2.5,2.5,0,0,1,4.48-4.5a2.518,2.518,0,0,1,1.779.651,2.2,2.2,0,0,1,.7,1.7,2.172,2.172,0,0,1-.7,1.673A2.528,2.528,0,0,1,4.48.167,2.508,2.508,0,0,1,2.709-.477,2.172,2.172,0,0,1,2.013-2.149Zm7.16,0a2.2,2.2,0,0,1,.7-1.7A2.5,2.5,0,0,1,11.64-4.5a2.518,2.518,0,0,1,1.779.651,2.2,2.2,0,0,1,.7,1.7,2.172,2.172,0,0,1-.7,1.673A2.528,2.528,0,0,1,11.64.167,2.508,2.508,0,0,1,9.869-.477,2.172,2.172,0,0,1,9.173-2.149Zm7.023,0a2.2,2.2,0,0,1,.7-1.7A2.5,2.5,0,0,1,18.664-4.5a2.518,2.518,0,0,1,1.779.651,2.2,2.2,0,0,1,.7,1.7,2.172,2.172,0,0,1-.7,1.673,2.528,2.528,0,0,1-1.786.643,2.508,2.508,0,0,1-1.771-.643A2.172,2.172,0,0,1,16.2-2.149Z" transform="translate(1006.96 12281.077)" fill="#12263f"/>
    <path id="Trazado_622674" data-name="Trazado 622674" d="M2.013-2.149a2.2,2.2,0,0,1,.7-1.7A2.5,2.5,0,0,1,4.48-4.5a2.518,2.518,0,0,1,1.779.651,2.2,2.2,0,0,1,.7,1.7,2.172,2.172,0,0,1-.7,1.673A2.528,2.528,0,0,1,4.48.167,2.508,2.508,0,0,1,2.709-.477,2.172,2.172,0,0,1,2.013-2.149Zm7.16,0a2.2,2.2,0,0,1,.7-1.7A2.5,2.5,0,0,1,11.64-4.5a2.518,2.518,0,0,1,1.779.651,2.2,2.2,0,0,1,.7,1.7,2.172,2.172,0,0,1-.7,1.673A2.528,2.528,0,0,1,11.64.167,2.508,2.508,0,0,1,9.869-.477,2.172,2.172,0,0,1,9.173-2.149Zm7.023,0a2.2,2.2,0,0,1,.7-1.7A2.5,2.5,0,0,1,18.664-4.5a2.518,2.518,0,0,1,1.779.651,2.2,2.2,0,0,1,.7,1.7,2.172,2.172,0,0,1-.7,1.673,2.528,2.528,0,0,1-1.786.643,2.508,2.508,0,0,1-1.771-.643A2.172,2.172,0,0,1,16.2-2.149Z" transform="translate(1006.96 11958.998)" fill="#12263f"/>
    <path id="Trazado_622673" data-name="Trazado 622673" d="M2.013-2.149a2.2,2.2,0,0,1,.7-1.7A2.5,2.5,0,0,1,4.48-4.5a2.518,2.518,0,0,1,1.779.651,2.2,2.2,0,0,1,.7,1.7,2.172,2.172,0,0,1-.7,1.673A2.528,2.528,0,0,1,4.48.167,2.508,2.508,0,0,1,2.709-.477,2.172,2.172,0,0,1,2.013-2.149Zm7.16,0a2.2,2.2,0,0,1,.7-1.7A2.5,2.5,0,0,1,11.64-4.5a2.518,2.518,0,0,1,1.779.651,2.2,2.2,0,0,1,.7,1.7,2.172,2.172,0,0,1-.7,1.673A2.528,2.528,0,0,1,11.64.167,2.508,2.508,0,0,1,9.869-.477,2.172,2.172,0,0,1,9.173-2.149Zm7.023,0a2.2,2.2,0,0,1,.7-1.7A2.5,2.5,0,0,1,18.664-4.5a2.518,2.518,0,0,1,1.779.651,2.2,2.2,0,0,1,.7,1.7,2.172,2.172,0,0,1-.7,1.673,2.528,2.528,0,0,1-1.786.643,2.508,2.508,0,0,1-1.771-.643A2.172,2.172,0,0,1,16.2-2.149Z" transform="translate(1006.96 12041.858)" fill="#12263f"/>
    <text id="_" data-name="" transform="translate(1006.96 12168.404)" fill="#12263f" font-size="31" font-family="Roboto-Bold, Roboto" font-weight="700"><tspan x="0" y="0"></tspan></text>
    <path id="Trazado_621503" data-name="Trazado 621503" d="M0,0V335.652" transform="translate(1151.877 12179.086) rotate(90)" fill="none" stroke="#12263f" stroke-width="4"/>
    <path id="Trazado_621504" data-name="Trazado 621504" d="M0,0V335.652" transform="translate(1151.877 12050.153) rotate(90)" fill="none" stroke="#12263f" stroke-width="4"/>
    <g id="Elipse_8393" data-name="Elipse 8393" transform="translate(864.175 12021.915)" fill="#12263f" stroke="#12263f" stroke-width="4">
      <ellipse cx="28.77" cy="28.77" rx="28.77" ry="28.77" stroke="none"/>
      <ellipse cx="28.77" cy="28.77" rx="26.77" ry="26.77" fill="none"/>
    </g>
    <g id="Elipse_8394" data-name="Elipse 8394" transform="translate(934.502 12021.915)" fill="#12263f" stroke="#12263f" stroke-width="4">
      <ellipse cx="28.77" cy="28.77" rx="28.77" ry="28.77" stroke="none"/>
      <ellipse cx="28.77" cy="28.77" rx="26.77" ry="26.77" fill="none"/>
    </g>
    <g id="Elipse_8395" data-name="Elipse 8395" transform="translate(1046.386 12021.915)" fill="#12263f" stroke="#12263f" stroke-width="4">
      <ellipse cx="28.77" cy="28.77" rx="28.77" ry="28.77" stroke="none"/>
      <ellipse cx="28.77" cy="28.77" rx="26.77" ry="26.77" fill="none"/>
    </g>
    <path id="Trazado_622671" data-name="Trazado 622671" d="M3.727,0H1.237V-12.086h2.49ZM12.3-3.171a1.278,1.278,0,0,0-.5-1.083,6.533,6.533,0,0,0-1.793-.8,12.71,12.71,0,0,1-2.05-.826,3.35,3.35,0,0,1-2.059-3,2.919,2.919,0,0,1,.552-1.747,3.6,3.6,0,0,1,1.585-1.2,5.967,5.967,0,0,1,2.32-.432,5.432,5.432,0,0,1,2.308.469,3.674,3.674,0,0,1,1.573,1.324,3.464,3.464,0,0,1,.56,1.942H12.31a1.63,1.63,0,0,0-.523-1.291,2.15,2.15,0,0,0-1.469-.461A2.3,2.3,0,0,0,8.9-9.882a1.217,1.217,0,0,0-.506,1.017,1.166,1.166,0,0,0,.594.988,6.705,6.705,0,0,0,1.747.747,7.55,7.55,0,0,1,3.1,1.585A3.157,3.157,0,0,1,14.8-3.187,2.909,2.909,0,0,1,13.613-.726a5.2,5.2,0,0,1-3.2.892,6.171,6.171,0,0,1-2.54-.51,4.019,4.019,0,0,1-1.747-1.4,3.582,3.582,0,0,1-.6-2.059h2.5q0,2,2.391,2A2.326,2.326,0,0,0,11.8-2.162,1.175,1.175,0,0,0,12.3-3.171Zm6.674-1.087V0h-2.49V-12.086H21.2a5.455,5.455,0,0,1,2.395.5,3.67,3.67,0,0,1,1.59,1.415,3.946,3.946,0,0,1,.556,2.088,3.47,3.47,0,0,1-1.216,2.8,5.065,5.065,0,0,1-3.366,1.025Zm0-2.017H21.2a2.187,2.187,0,0,0,1.507-.465,1.691,1.691,0,0,0,.519-1.328A1.994,1.994,0,0,0,22.7-9.5a1.953,1.953,0,0,0-1.444-.564H18.976Z" transform="translate(880.159 12056.03)" fill="#fff"/>
    <path id="Trazado_622672" data-name="Trazado 622672" d="M3.727,0H1.237V-12.086h2.49ZM12.3-3.171a1.278,1.278,0,0,0-.5-1.083,6.533,6.533,0,0,0-1.793-.8,12.71,12.71,0,0,1-2.05-.826,3.35,3.35,0,0,1-2.059-3,2.919,2.919,0,0,1,.552-1.747,3.6,3.6,0,0,1,1.585-1.2,5.967,5.967,0,0,1,2.32-.432,5.432,5.432,0,0,1,2.308.469,3.674,3.674,0,0,1,1.573,1.324,3.464,3.464,0,0,1,.56,1.942H12.31a1.63,1.63,0,0,0-.523-1.291,2.15,2.15,0,0,0-1.469-.461A2.3,2.3,0,0,0,8.9-9.882a1.217,1.217,0,0,0-.506,1.017,1.166,1.166,0,0,0,.594.988,6.705,6.705,0,0,0,1.747.747,7.55,7.55,0,0,1,3.1,1.585A3.157,3.157,0,0,1,14.8-3.187,2.909,2.909,0,0,1,13.613-.726a5.2,5.2,0,0,1-3.2.892,6.171,6.171,0,0,1-2.54-.51,4.019,4.019,0,0,1-1.747-1.4,3.582,3.582,0,0,1-.6-2.059h2.5q0,2,2.391,2A2.326,2.326,0,0,0,11.8-2.162,1.175,1.175,0,0,0,12.3-3.171Zm6.674-1.087V0h-2.49V-12.086H21.2a5.455,5.455,0,0,1,2.395.5,3.67,3.67,0,0,1,1.59,1.415,3.946,3.946,0,0,1,.556,2.088,3.47,3.47,0,0,1-1.216,2.8,5.065,5.065,0,0,1-3.366,1.025Zm0-2.017H21.2a2.187,2.187,0,0,0,1.507-.465,1.691,1.691,0,0,0,.519-1.328A1.994,1.994,0,0,0,22.7-9.5a1.953,1.953,0,0,0-1.444-.564H18.976Z" transform="translate(950.485 12056.03)" fill="#fff"/>
    <text id="ISP" transform="translate(1062.37 12056.03)" fill="#fff" font-size="17" font-family="Roboto-Bold, Roboto" font-weight="700"><tspan x="0" y="0">ISP</tspan></text>
    <g id="Elipse_8396" data-name="Elipse 8396" transform="translate(864.175 12150.849)" fill="#12263f" stroke="#12263f" stroke-width="4">
      <ellipse cx="28.77" cy="28.77" rx="28.77" ry="28.77" stroke="none"/>
      <ellipse cx="28.77" cy="28.77" rx="26.77" ry="26.77" fill="none"/>
    </g>
    <g id="Elipse_8397" data-name="Elipse 8397" transform="translate(934.502 12150.849)" fill="#12263f" stroke="#12263f" stroke-width="4">
      <ellipse cx="28.77" cy="28.77" rx="28.77" ry="28.77" stroke="none"/>
      <ellipse cx="28.77" cy="28.77" rx="26.77" ry="26.77" fill="none"/>
    </g>
    <g id="Elipse_8398" data-name="Elipse 8398" transform="translate(1046.386 12150.849)" fill="#12263f" stroke="#12263f" stroke-width="4">
      <ellipse cx="28.77" cy="28.77" rx="28.77" ry="28.77" stroke="none"/>
      <ellipse cx="28.77" cy="28.77" rx="26.77" ry="26.77" fill="none"/>
    </g>
    <path id="Trazado_622670" data-name="Trazado 622670" d="M3.727,0H1.237V-12.086h2.49ZM12.3-3.171a1.278,1.278,0,0,0-.5-1.083,6.533,6.533,0,0,0-1.793-.8,12.71,12.71,0,0,1-2.05-.826,3.35,3.35,0,0,1-2.059-3,2.919,2.919,0,0,1,.552-1.747,3.6,3.6,0,0,1,1.585-1.2,5.967,5.967,0,0,1,2.32-.432,5.432,5.432,0,0,1,2.308.469,3.674,3.674,0,0,1,1.573,1.324,3.464,3.464,0,0,1,.56,1.942H12.31a1.63,1.63,0,0,0-.523-1.291,2.15,2.15,0,0,0-1.469-.461A2.3,2.3,0,0,0,8.9-9.882a1.217,1.217,0,0,0-.506,1.017,1.166,1.166,0,0,0,.594.988,6.705,6.705,0,0,0,1.747.747,7.55,7.55,0,0,1,3.1,1.585A3.157,3.157,0,0,1,14.8-3.187,2.909,2.909,0,0,1,13.613-.726a5.2,5.2,0,0,1-3.2.892,6.171,6.171,0,0,1-2.54-.51,4.019,4.019,0,0,1-1.747-1.4,3.582,3.582,0,0,1-.6-2.059h2.5q0,2,2.391,2A2.326,2.326,0,0,0,11.8-2.162,1.175,1.175,0,0,0,12.3-3.171Zm6.674-1.087V0h-2.49V-12.086H21.2a5.455,5.455,0,0,1,2.395.5,3.67,3.67,0,0,1,1.59,1.415,3.946,3.946,0,0,1,.556,2.088,3.47,3.47,0,0,1-1.216,2.8,5.065,5.065,0,0,1-3.366,1.025Zm0-2.017H21.2a2.187,2.187,0,0,0,1.507-.465,1.691,1.691,0,0,0,.519-1.328A1.994,1.994,0,0,0,22.7-9.5a1.953,1.953,0,0,0-1.444-.564H18.976Z" transform="translate(880.159 12184.963)" fill="#fff"/>
    <path id="Trazado_622669" data-name="Trazado 622669" d="M3.727,0H1.237V-12.086h2.49ZM12.3-3.171a1.278,1.278,0,0,0-.5-1.083,6.533,6.533,0,0,0-1.793-.8,12.71,12.71,0,0,1-2.05-.826,3.35,3.35,0,0,1-2.059-3,2.919,2.919,0,0,1,.552-1.747,3.6,3.6,0,0,1,1.585-1.2,5.967,5.967,0,0,1,2.32-.432,5.432,5.432,0,0,1,2.308.469,3.674,3.674,0,0,1,1.573,1.324,3.464,3.464,0,0,1,.56,1.942H12.31a1.63,1.63,0,0,0-.523-1.291,2.15,2.15,0,0,0-1.469-.461A2.3,2.3,0,0,0,8.9-9.882a1.217,1.217,0,0,0-.506,1.017,1.166,1.166,0,0,0,.594.988,6.705,6.705,0,0,0,1.747.747,7.55,7.55,0,0,1,3.1,1.585A3.157,3.157,0,0,1,14.8-3.187,2.909,2.909,0,0,1,13.613-.726a5.2,5.2,0,0,1-3.2.892,6.171,6.171,0,0,1-2.54-.51,4.019,4.019,0,0,1-1.747-1.4,3.582,3.582,0,0,1-.6-2.059h2.5q0,2,2.391,2A2.326,2.326,0,0,0,11.8-2.162,1.175,1.175,0,0,0,12.3-3.171Zm6.674-1.087V0h-2.49V-12.086H21.2a5.455,5.455,0,0,1,2.395.5,3.67,3.67,0,0,1,1.59,1.415,3.946,3.946,0,0,1,.556,2.088,3.47,3.47,0,0,1-1.216,2.8,5.065,5.065,0,0,1-3.366,1.025Zm0-2.017H21.2a2.187,2.187,0,0,0,1.507-.465,1.691,1.691,0,0,0,.519-1.328A1.994,1.994,0,0,0,22.7-9.5a1.953,1.953,0,0,0-1.444-.564H18.976Z" transform="translate(950.485 12184.963)" fill="#fff"/>
    <path id="Trazado_622668" data-name="Trazado 622668" d="M3.727,0H1.237V-12.086h2.49ZM12.3-3.171a1.278,1.278,0,0,0-.5-1.083,6.533,6.533,0,0,0-1.793-.8,12.71,12.71,0,0,1-2.05-.826,3.35,3.35,0,0,1-2.059-3,2.919,2.919,0,0,1,.552-1.747,3.6,3.6,0,0,1,1.585-1.2,5.967,5.967,0,0,1,2.32-.432,5.432,5.432,0,0,1,2.308.469,3.674,3.674,0,0,1,1.573,1.324,3.464,3.464,0,0,1,.56,1.942H12.31a1.63,1.63,0,0,0-.523-1.291,2.15,2.15,0,0,0-1.469-.461A2.3,2.3,0,0,0,8.9-9.882a1.217,1.217,0,0,0-.506,1.017,1.166,1.166,0,0,0,.594.988,6.705,6.705,0,0,0,1.747.747,7.55,7.55,0,0,1,3.1,1.585A3.157,3.157,0,0,1,14.8-3.187,2.909,2.909,0,0,1,13.613-.726a5.2,5.2,0,0,1-3.2.892,6.171,6.171,0,0,1-2.54-.51,4.019,4.019,0,0,1-1.747-1.4,3.582,3.582,0,0,1-.6-2.059h2.5q0,2,2.391,2A2.326,2.326,0,0,0,11.8-2.162,1.175,1.175,0,0,0,12.3-3.171Zm6.674-1.087V0h-2.49V-12.086H21.2a5.455,5.455,0,0,1,2.395.5,3.67,3.67,0,0,1,1.59,1.415,3.946,3.946,0,0,1,.556,2.088,3.47,3.47,0,0,1-1.216,2.8,5.065,5.065,0,0,1-3.366,1.025Zm0-2.017H21.2a2.187,2.187,0,0,0,1.507-.465,1.691,1.691,0,0,0,.519-1.328A1.994,1.994,0,0,0,22.7-9.5a1.953,1.953,0,0,0-1.444-.564H18.976Z" transform="translate(1062.37 12184.963)" fill="#fff"/>
    <path id="Trazado_621505" data-name="Trazado 621505" d="M-4212,468.478l42.622-88.4" transform="translate(5118.797 11687.396)" fill="none" stroke="#12263f" stroke-width="4"/>
    <path id="Trazado_621506" data-name="Trazado 621506" d="M-4139.5,380.082l77.254,91.235" transform="translate(5123.551 11687.396)" fill="none" stroke="#12263f" stroke-width="4"/>
    <rect id="Rectngulo_342133" data-name="Rectngulo 342133" width="8" height="310" transform="translate(726 11917)" fill="#ff5422"/>
  </g>
</svg>
