<svg xmlns="http://www.w3.org/2000/svg" xmlns:xlink="http://www.w3.org/1999/xlink" width="202.018" height="180.782" viewBox="0 0 202.018 180.782">
  <defs>
    <filter id="Rect치ngulo_341843" x="0" y="0" width="202.018" height="180.782" filterUnits="userSpaceOnUse">
      <feOffset dy="3" input="SourceAlpha"/>
      <feGaussianBlur stdDeviation="3" result="blur"/>
      <feFlood flood-opacity="0.161"/>
      <feComposite operator="in" in2="blur"/>
      <feComposite in="SourceGraphic"/>
    </filter>
  </defs>
  <g id="Grupo_948782" data-name="Grupo 948782" transform="translate(-276 -2331.66)">
    <g transform="matrix(1, 0, 0, 1, 276, 2331.66)" filter="url(#Rect치ngulo_341843)">
      <rect id="Rect치ngulo_341843-2" data-name="Rect치ngulo 341843" width="184.018" height="162.782" rx="10" transform="translate(9 6)" fill="#f6f6f6"/>
    </g>
    <g id="Grupo_947538" data-name="Grupo 947538" transform="translate(330.784 2357.326)">
      <ellipse id="Elipse_4870" data-name="Elipse 4870" cx="46.5" cy="47" rx="46.5" ry="47" transform="translate(-0.275 0.334)" fill="#49acc5"/>
      <g id="pblm1S" transform="translate(-633.742 -1340.966)">
        <g id="Grupo_947544" data-name="Grupo 947544" transform="translate(666.176 1359.64)">
          <path id="Trazado_620914" data-name="Trazado 620914" d="M679.795,1413.337V1409.6c-1.978-.185-3.8-.247-5.573-.549-2.38-.405-4.737-.963-7.082-1.545a1.4,1.4,0,0,1-.843-1.011c-.077-2.259-.039-4.522-.039-6.669,2.133.882,4.225,1.875,6.4,2.612a17.069,17.069,0,0,0,6.965.884c.027-.437.067-.786.068-1.136,0-3.855-.022-7.71.023-11.564a1.458,1.458,0,0,0-.992-1.5,70.568,70.568,0,0,1-7.829-4.48,10.492,10.492,0,0,1-4.232-11.968c1.018-3.448,3.514-5.637,6.677-7.021,1.976-.865,4.107-1.375,6.453-2.136v-3.872h3.819v3.724c1.966.183,3.986.278,5.973.586a33.219,33.219,0,0,1,4.6,1.167,1.328,1.328,0,0,1,.776.947c.069,2.219.036,4.441.036,6.889-3.579-2.14-7.218-3.565-11.432-3.289-.033.38-.088.721-.088,1.061-.006,3.817.014,7.634-.02,11.451a1.322,1.322,0,0,0,.921,1.41c3.447,1.642,6.857,3.365,9.518,6.217a10.892,10.892,0,0,1,.668,14.37c-2.229,2.648-5.268,3.883-8.549,4.6-2.534.557-2.534.531-2.546,3.141,0,.473-.061.946-.093,1.419Zm-.064-32c0-3.559,0-7.016,0-10.474a2.291,2.291,0,0,0-.084-.437,5.7,5.7,0,0,0-5.053,4.495C674.247,1377.619,676.341,1380.292,679.731,1381.333Zm3.858,21.419c2.861-.456,4.761-2.308,5-4.824.264-2.737-1.732-5.323-5-6.43Z" transform="translate(-666.176 -1359.64)" fill="#fff"/>
        </g>
      </g>
    </g>
    <path id="Trazado_622653" data-name="Trazado 622653" d="M64.969,14.07a1.626,1.626,0,0,0-.5-1.211,4.508,4.508,0,0,0-1.7-.891,5.447,5.447,0,0,1-2.426-1.324,2.921,2.921,0,0,1-.762-2.074,3,3,0,0,1,.746-2.1,3.17,3.17,0,0,1,2.051-.977V3.781h1.164V5.5a3.011,3.011,0,0,1,2.043,1.1,3.959,3.959,0,0,1,.73,2.523H64.875a2.721,2.721,0,0,0-.523-1.756,1.72,1.72,0,0,0-1.414-.651,1.951,1.951,0,0,0-1.422.481,1.791,1.791,0,0,0-.492,1.342,1.636,1.636,0,0,0,.52,1.272,4.786,4.786,0,0,0,1.711.861,7.2,7.2,0,0,1,1.859.852,2.991,2.991,0,0,1,.984,1.082,3.128,3.128,0,0,1,.316,1.445,2.9,2.9,0,0,1-.793,2.125,3.516,3.516,0,0,1-2.223.953v1.492H62.242V17.133A3.369,3.369,0,0,1,59.965,16.1a3.493,3.493,0,0,1-.824-2.449h1.445a2.3,2.3,0,0,0,.57,1.672,2.153,2.153,0,0,0,1.617.586,2.426,2.426,0,0,0,1.609-.492A1.662,1.662,0,0,0,64.969,14.07ZM76.594,5.625v7.734a3.628,3.628,0,0,1-1.012,2.633,4.077,4.077,0,0,1-2.723,1.148l-.4.016a4.258,4.258,0,0,1-2.977-1.008,3.6,3.6,0,0,1-1.125-2.773V5.625h1.484v7.7a2.6,2.6,0,0,0,.68,1.918,3.111,3.111,0,0,0,3.887,0,2.6,2.6,0,0,0,.676-1.914V5.625Zm5.719,6.3A7.053,7.053,0,0,1,79.5,10.566a2.6,2.6,0,0,1-.879-2A2.751,2.751,0,0,1,79.7,6.348a4.269,4.269,0,0,1,2.793-.879,4.66,4.66,0,0,1,2.09.453A3.436,3.436,0,0,1,86,7.172a3.2,3.2,0,0,1,.5,1.742H85a2.08,2.08,0,0,0-.656-1.627A2.669,2.669,0,0,0,82.492,6.7a2.732,2.732,0,0,0-1.73.489,1.632,1.632,0,0,0-.621,1.358,1.468,1.468,0,0,0,.59,1.178,5.785,5.785,0,0,0,2.008.88,9.316,9.316,0,0,1,2.219.88A3.367,3.367,0,0,1,86.145,12.6a2.861,2.861,0,0,1,.387,1.508,2.658,2.658,0,0,1-1.078,2.215,4.6,4.6,0,0,1-2.883.832,5.347,5.347,0,0,1-2.187-.449,3.681,3.681,0,0,1-1.566-1.23,3,3,0,0,1-.551-1.773h1.508a1.959,1.959,0,0,0,.762,1.629,3.207,3.207,0,0,0,2.035.6,2.948,2.948,0,0,0,1.82-.484,1.573,1.573,0,0,0,.633-1.32,1.545,1.545,0,0,0-.586-1.293A6.755,6.755,0,0,0,82.313,11.93ZM88.453,17V5.625h3.211a5.169,5.169,0,0,1,2.625.656,4.438,4.438,0,0,1,1.762,1.867,6.078,6.078,0,0,1,.629,2.781v.727a6.1,6.1,0,0,1-.621,2.82,4.369,4.369,0,0,1-1.773,1.859A5.5,5.5,0,0,1,91.6,17Zm1.5-10.148v8.922h1.578a3.434,3.434,0,0,0,2.7-1.079,4.458,4.458,0,0,0,.965-3.073v-.665a4.529,4.529,0,0,0-.91-3.014A3.239,3.239,0,0,0,91.7,6.852Zm10.492,5.7V17h-1.5V5.625h4.2a4.215,4.215,0,0,1,2.926.953A3.231,3.231,0,0,1,107.125,9.1a3.189,3.189,0,0,1-1.035,2.551,4.4,4.4,0,0,1-2.965.895Zm0-1.227h2.7a2.7,2.7,0,0,0,1.844-.567,2.075,2.075,0,0,0,.641-1.64,2.143,2.143,0,0,0-.641-1.628,2.525,2.525,0,0,0-1.758-.634h-2.781Z" transform="translate(296.009 2460.66)" fill="#12263f"/>
    <path id="Trazado_622652" data-name="Trazado 622652" d="M11.66,15.189a6.789,6.789,0,0,1-1.294,4.443A4.471,4.471,0,0,1,6.719,21.2a4.5,4.5,0,0,1-3.672-1.572,6.779,6.779,0,0,1-1.3-4.434v-2.6A6.789,6.789,0,0,1,3.042,8.148,4.483,4.483,0,0,1,6.7,6.586a4.484,4.484,0,0,1,3.662,1.572,6.8,6.8,0,0,1,1.3,4.443ZM8.369,12.172a5.071,5.071,0,0,0-.4-2.29A1.338,1.338,0,0,0,6.7,9.125a1.307,1.307,0,0,0-1.235.7,4.777,4.777,0,0,0-.415,2.129V15.59a5.109,5.109,0,0,0,.4,2.329,1.343,1.343,0,0,0,1.27.737,1.325,1.325,0,0,0,1.24-.718,4.878,4.878,0,0,0,.41-2.251ZM20.664,21h-3.3V10.492l-3.242.947v-2.5l6.24-2.158h.3Z" transform="translate(296.009 2344.33)" fill="#12263f" opacity="0.134"/>
  </g>
</svg>
