<svg xmlns="http://www.w3.org/2000/svg" xmlns:xlink="http://www.w3.org/1999/xlink" width="1242" height="825.549" viewBox="0 0 1242 825.549"><defs><clipPath id="a"><rect width="259.952" height="59.635" fill="none"/></clipPath><clipPath id="b"><rect width="259.952" height="59.635" fill="#fff"/></clipPath><clipPath id="e"><rect width="198.393" height="25.436" fill="none"/></clipPath><clipPath id="h"><rect width="234.089" height="20.733" fill="none"/></clipPath><clipPath id="k"><rect width="198.393" height="26.718" fill="none"/></clipPath><clipPath id="q"><rect width="198.393" height="25.222" fill="none"/></clipPath><linearGradient id="t" x1="0.5" x2="0.5" y2="1" gradientUnits="objectBoundingBox"><stop offset="0" stop-color="#f5f5f5"/><stop offset="0.25" stop-color="#f5f5f5"/><stop offset="1" stop-color="#a7b3cf"/></linearGradient><clipPath id="u"><rect width="293.083" height="25.222" fill="none"/></clipPath><clipPath id="x"><rect width="119.057" height="25.222" fill="none"/></clipPath><clipPath id="aa"><rect width="89.987" height="25.436" fill="none"/></clipPath><clipPath id="ad"><rect width="106.66" height="25.222" fill="none"/></clipPath><clipPath id="ag"><rect width="80.839" height="25.222" fill="none"/></clipPath><clipPath id="aj"><rect width="222.083" height="23.555" fill="none"/></clipPath><clipPath id="am"><rect width="205.019" height="24.581" fill="none"/></clipPath><clipPath id="ap"><rect width="179.975" height="24.367" fill="none"/></clipPath><clipPath id="as"><rect width="221.656" height="27.402" fill="none"/></clipPath><clipPath id="av"><rect width="257.173" height="26.932" fill="none"/></clipPath><clipPath id="ay"><rect width="254.822" height="26.718" fill="none"/></clipPath><clipPath id="bb"><rect width="95.117" height="23.512" fill="none"/></clipPath><clipPath id="be"><rect width="107.344" height="28.642" fill="none"/></clipPath><clipPath id="bi"><rect width="129.744" height="23.512" fill="none"/></clipPath><clipPath id="bl"><rect width="225.325" height="19.878" fill="none"/></clipPath><clipPath id="bp"><rect width="396.964" height="33.986" fill="none"/></clipPath><clipPath id="bs"><rect width="322.794" height="21.588" fill="none"/></clipPath><clipPath id="bv"><rect width="135.088" height="30.395" fill="none"/></clipPath><clipPath id="by"><rect width="353.573" height="25.265" fill="none"/></clipPath><clipPath id="cb"><rect width="164.628" height="23.512" fill="none"/></clipPath><clipPath id="cd"><rect width="181.934" height="49.589" fill="none"/></clipPath><clipPath id="ch"><rect width="65.407" height="28.642" fill="none"/></clipPath><clipPath id="ck"><rect width="389.964" height="26.932" fill="none"/></clipPath><clipPath id="cn"><rect width="93.407" height="23.085" fill="none"/></clipPath><clipPath id="cq"><rect width="148.34" height="24.581" fill="none"/></clipPath></defs><g transform="translate(-179 -402)"><g transform="translate(96.15 318.9)"><rect width="261.84" height="74.188" transform="translate(637.811 531.098)" fill="#fff"/><rect width="261.84" height="74.188" rx="5" transform="translate(637.811 531.098)" fill="#ff5422" stroke="#12263f" stroke-miterlimit="10" stroke-width="2"/><g transform="translate(638.88 538.473)"><g clip-path="url(#a)"><g clip-path="url(#b)"><text transform="translate(43.818 23.57)" fill="#fff" font-size="24" font-family="Roboto-BoldItalic, Roboto" font-weight="700" font-style="italic"><tspan x="0" y="0">F</tspan><tspan y="0" letter-spacing="0.003em">u</tspan><tspan y="0" letter-spacing="-0.006em">n</tspan><tspan y="0">d</tspan><tspan y="0" letter-spacing="0.003em">a</tspan><tspan y="0" letter-spacing="-0.008em">m</tspan><tspan y="0" letter-spacing="-0.004em">e</tspan><tspan y="0">ntos</tspan><tspan y="0" letter-spacing="-0.004em"> </tspan><tspan y="0">d</tspan><tspan y="0" letter-spacing="0.005em">e</tspan><tspan y="0"> </tspan></text></g><g clip-path="url(#a)"><text transform="translate(74.42 55.487)" fill="#fff" font-size="23" font-family="Roboto-BoldItalic, Roboto" font-weight="700" font-style="italic"><tspan x="0" y="0" letter-spacing="0.002em">B</tspan><tspan y="0">l</tspan><tspan y="0" letter-spacing="0.003em">o</tspan><tspan y="0">c</tspan><tspan y="0" letter-spacing="-0.002em">k</tspan><tspan y="0" letter-spacing="-0.009em">c</tspan><tspan y="0">h</tspan><tspan y="0" letter-spacing="-0.003em">a</tspan><tspan y="0">in</tspan></text></g><g clip-path="url(#a)"><text transform="translate(185.782 51.05)" font-size="15" font-family="Calibri"><tspan x="0" y="0"> </tspan></text></g></g></g><line x2="82.827" y2="1.781" transform="translate(899.651 588.097)" fill="none" stroke="#12263f" stroke-miterlimit="10" stroke-width="2"/><rect width="200.21" height="39.899" transform="translate(981.587 691.409)" fill="#fff"/><rect width="200.21" height="39.899" transform="translate(981.587 691.409)" fill="none" stroke="#000" stroke-miterlimit="10" stroke-width="1"/><g transform="translate(982.62 698.783)"><g clip-path="url(#e)"><g clip-path="url(#e)"><text transform="translate(17.74 16.002)" font-size="18" font-family="Calibri-Italic, Calibri" font-style="italic"><tspan x="0" y="0">Bl</tspan><tspan y="0" letter-spacing="0.001em">o</tspan><tspan y="0">c</tspan><tspan y="0" letter-spacing="-0.007em">k</tspan><tspan y="0">ch</tspan><tspan y="0" letter-spacing="-0.002em">a</tspan><tspan y="0">i</tspan><tspan y="0" letter-spacing="-0.005em">n</tspan><tspan y="0">s</tspan><tspan y="0" font-family="Calibri" font-style="normal"> </tspan><tspan y="0" font-family="Calibri" font-style="normal" letter-spacing="0.006em">P</tspan><tspan y="0" font-family="Calibri" font-style="normal" letter-spacing="-0.003em">úb</tspan><tspan y="0" font-family="Calibri" font-style="normal">l</tspan><tspan y="0" font-family="Calibri" font-style="normal" letter-spacing="-0.002em">i</tspan><tspan y="0" font-family="Calibri" font-style="normal">cos</tspan></text></g><g clip-path="url(#e)"><text transform="translate(180.456 13.002)" font-size="15" font-family="Calibri"><tspan x="0" y="0"> </tspan></text></g></g></g><rect width="235.834" height="35.357" rx="5" transform="translate(963.775 630.847)" fill="#fff" stroke="#12263f" stroke-width="2"/><rect width="235.834" height="35.357" rx="5" transform="translate(963.775 630.847)" fill="none" stroke="#12263f" stroke-miterlimit="10" stroke-width="2"/><g transform="translate(964.879 638.292)"><g clip-path="url(#h)"><g clip-path="url(#h)"><text transform="translate(22.444 16.069)" font-size="16" font-family="Roboto-Bold, Roboto" font-weight="700"><tspan x="0" y="0">Los</tspan><tspan y="0" letter-spacing="0.002em"> </tspan><tspan y="0" letter-spacing="0.004em">m</tspan><tspan y="0">ás </tspan><tspan y="0" letter-spacing="-0.003em">i</tspan><tspan y="0" letter-spacing="0.004em">mp</tspan><tspan y="0" letter-spacing="0.003em">o</tspan><tspan y="0" letter-spacing="0.004em">r</tspan><tspan y="0">ta</tspan><tspan y="0" letter-spacing="0.007em">n</tspan><tspan y="0">t</tspan><tspan y="0" letter-spacing="0.003em">e</tspan><tspan y="0">s s</tspan><tspan y="0" letter-spacing="0.003em">o</tspan><tspan y="0" letter-spacing="0.004em">n</tspan><tspan y="0">:</tspan></text></g><g clip-path="url(#h)"><text transform="translate(211.449 11.506)" font-size="15" font-family="Calibri"><tspan x="0" y="0"> </tspan></text></g></g></g><rect width="200.21" height="41.324" rx="5" transform="translate(981.587 566.723)" fill="#fff" stroke="#12263f" stroke-width="2"/><rect width="200.21" height="41.324" rx="5" transform="translate(981.587 566.723)" fill="none" stroke="#12263f" stroke-miterlimit="10" stroke-width="2"/><g transform="translate(982.62 574.168)"><g clip-path="url(#k)"><g clip-path="url(#k)"><text transform="translate(20.734 16.002)" font-size="18" font-family="Roboto-Regular, Roboto"><tspan x="0" y="0">Tipo</tspan><tspan y="0" letter-spacing="0.001em">s</tspan><tspan y="0" xml:space="preserve"> d</tspan><tspan y="0" letter-spacing="-0.009em">e</tspan><tspan y="0"> </tspan><tspan y="0" font-family="Roboto-Italic, Roboto" font-style="italic">Bl</tspan><tspan y="0" font-family="Roboto-Italic, Roboto" font-style="italic" letter-spacing="-0.005em">o</tspan><tspan y="0" font-family="Roboto-Italic, Roboto" font-style="italic">ck</tspan><tspan y="0" font-family="Roboto-Italic, Roboto" font-style="italic" letter-spacing="0.002em">c</tspan><tspan y="0" font-family="Roboto-Italic, Roboto" font-style="italic" letter-spacing="-0.003em">h</tspan><tspan y="0" font-family="Roboto-Italic, Roboto" font-style="italic">ain</tspan></text></g><g clip-path="url(#k)"><text transform="translate(177.463 13.002)" font-size="15" font-family="Calibri"><tspan x="0" y="0"> </tspan></text></g></g></g><rect width="200.21" height="39.899" transform="translate(979.806 755.533)" fill="#fff"/><rect width="200.21" height="39.899" rx="5" transform="translate(979.806 755.533)" fill="none" stroke="#12263f" stroke-miterlimit="10" stroke-width="2"/><g transform="translate(980.91 762.96)"><g clip-path="url(#e)"><g clip-path="url(#e)"><text transform="translate(16.458 16.003)" font-size="18" font-family="Calibri-Italic, Calibri" font-style="italic"><tspan x="0" y="0">Bl</tspan><tspan y="0" letter-spacing="0.001em">o</tspan><tspan y="0">c</tspan><tspan y="0" letter-spacing="-0.007em">k</tspan><tspan y="0">ch</tspan><tspan y="0" letter-spacing="-0.002em">a</tspan><tspan y="0">i</tspan><tspan y="0" letter-spacing="-0.005em">n</tspan><tspan y="0">s</tspan><tspan y="0" font-family="Calibri" font-style="normal"> </tspan><tspan y="0" font-family="Calibri" font-style="normal" letter-spacing="0.006em">P</tspan><tspan y="0" font-family="Calibri" font-style="normal">r</tspan><tspan y="0" font-family="Calibri" font-style="normal" letter-spacing="-0.013em">i</tspan><tspan y="0" font-family="Calibri" font-style="normal" letter-spacing="0.004em">v</tspan><tspan y="0" font-family="Calibri" font-style="normal">a</tspan><tspan y="0" font-family="Calibri" font-style="normal" letter-spacing="-0.015em">d</tspan><tspan y="0" font-family="Calibri" font-style="normal" letter-spacing="0.004em">o</tspan><tspan y="0" font-family="Calibri" font-style="normal">s</tspan></text></g><g clip-path="url(#e)"><text transform="translate(181.952 13.003)" font-size="15" font-family="Calibri"><tspan x="0" y="0"> </tspan></text></g></g></g><rect width="200.21" height="39.899" transform="translate(979.806 823.219)" fill="#fff"/><rect width="200.21" height="39.899" rx="5" transform="translate(979.806 823.219)" fill="none" stroke="#12263f" stroke-miterlimit="10" stroke-width="2"/><g transform="translate(980.91 830.711)"><g clip-path="url(#q)"><g clip-path="url(#q)"><text transform="translate(17.1 16.003)" font-size="18" font-family="Calibri-Italic, Calibri" font-style="italic"><tspan x="0" y="0">Bl</tspan><tspan y="0" letter-spacing="0.001em">o</tspan><tspan y="0">c</tspan><tspan y="0" letter-spacing="-0.007em">k</tspan><tspan y="0">ch</tspan><tspan y="0" letter-spacing="-0.002em">a</tspan><tspan y="0">i</tspan><tspan y="0" letter-spacing="-0.005em">n</tspan><tspan y="0">s</tspan><tspan y="0" xml:space="preserve" font-family="Calibri" font-style="normal"> Hí</tspan><tspan y="0" font-family="Calibri" font-style="normal" letter-spacing="-0.006em">b</tspan><tspan y="0" font-family="Calibri" font-style="normal">ri</tspan><tspan y="0" font-family="Calibri" font-style="normal" letter-spacing="-0.006em">d</tspan><tspan y="0" font-family="Calibri" font-style="normal" letter-spacing="0.004em">o</tspan><tspan y="0" font-family="Calibri" font-style="normal">s</tspan></text></g><g clip-path="url(#q)"><text transform="translate(181.311 13.003)" font-size="15" font-family="Calibri"><tspan x="0" y="0"> </tspan></text></g></g></g><line x2="1.781" y2="25.917" transform="translate(1083.117 666.471)" fill="none" stroke="#12263f" stroke-miterlimit="10" stroke-width="2"/><line x1="74.99" y2="74.99" transform="translate(691.248 605.91)" fill="none" stroke="#12263f" stroke-miterlimit="10" stroke-width="2"/><rect width="294.882" height="39.899" transform="translate(545.187 678.94)" fill="#fff"/><rect width="294.882" height="39.899" rx="5" transform="translate(545.187 678.94)" stroke="#12263f" stroke-miterlimit="10" stroke-width="2" fill="url(#t)"/><g transform="translate(546.113 689.385)"><g clip-path="url(#u)"><g clip-path="url(#u)"><text transform="translate(19.085 16.002)" font-size="18" font-family="Roboto-Regular, Roboto"><tspan x="0" y="0">Cr</tspan><tspan y="0" letter-spacing="-0.002em">i</tspan><tspan y="0" letter-spacing="-0.003em">p</tspan><tspan y="0">t</tspan><tspan y="0" letter-spacing="0.006em">o</tspan><tspan y="0">E</tspan><tspan y="0" letter-spacing="-0.008em">c</tspan><tspan y="0" letter-spacing="0.004em">o</tspan><tspan y="0" letter-spacing="-0.014em">n</tspan><tspan y="0" letter-spacing="0.004em">om</tspan><tspan y="0">í</tspan><tspan y="0" letter-spacing="-0.012em">a</tspan><tspan y="0"> </tspan><tspan y="0" letter-spacing="0.005em">y</tspan><tspan y="0" letter-spacing="-0.009em"> </tspan><tspan y="0">Cr</tspan><tspan y="0" letter-spacing="-0.002em">i</tspan><tspan y="0" letter-spacing="-0.003em">p</tspan><tspan y="0">t</tspan><tspan y="0" letter-spacing="0.006em">o</tspan><tspan y="0" letter-spacing="-0.003em">d</tspan><tspan y="0" letter-spacing="-0.012em">i</tspan><tspan y="0" letter-spacing="-0.005em">v</tspan><tspan y="0">isas</tspan></text></g><g clip-path="url(#u)"><text transform="translate(269.998 13.002)" font-size="15" font-family="Calibri"><tspan x="0" y="0"> </tspan></text></g></g></g><line x1="82.649" y2="78.018" transform="translate(530.937 716.346)" fill="none" stroke="#12263f" stroke-miterlimit="10" stroke-width="2"/><line x1="59.76" y2="146.773" transform="translate(595.061 719.908)" fill="none" stroke="#12263f" stroke-miterlimit="10" stroke-width="2"/><line x2="50.587" y2="52.19" transform="translate(732.216 719.908)" fill="none" stroke="#12263f" stroke-miterlimit="10" stroke-width="2"/><line x1="6.323" y2="102.509" transform="translate(687.685 721.689)" fill="none" stroke="#12263f" stroke-miterlimit="10" stroke-width="2"/><rect width="120.856" height="39.899" transform="translate(470.376 791.157)" fill="#fff"/><rect width="120.856" height="39.899" rx="5" transform="translate(470.376 791.157)" fill="none" stroke="#12263f" stroke-miterlimit="10" stroke-width="2"/><g transform="translate(471.302 798.656)"><g clip-path="url(#x)"><g clip-path="url(#x)"><text transform="translate(16.886 16.003)" font-size="18" font-family="Calibri-Italic, Calibri" font-style="italic"><tspan x="0" y="0">Sta</tspan><tspan y="0" letter-spacing="-0.005em">b</tspan><tspan y="0">leC</tspan><tspan y="0" letter-spacing="0.003em">o</tspan><tspan y="0">in</tspan></text></g><g clip-path="url(#x)"><text transform="translate(101.957 13.003)" font-size="15" font-family="Calibri"><tspan x="0" y="0"> </tspan></text></g></g></g><rect width="91.822" height="39.899" transform="translate(552.312 867.75)" fill="#fff"/><rect width="91.822" height="39.899" rx="5" transform="translate(552.312 867.75)" fill="none" stroke="#12263f" stroke-miterlimit="10" stroke-width="2"/><g transform="translate(553.381 875.17)"><g clip-path="url(#aa)"><g clip-path="url(#aa)"><text transform="translate(16.031 17.003)" font-size="19" font-family="Calibri-Italic, Calibri" font-style="italic"><tspan x="0" y="0">A</tspan><tspan y="0" letter-spacing="-0.004em">l</tspan><tspan y="0">tC</tspan><tspan y="0" letter-spacing="0.005em">o</tspan><tspan y="0">in</tspan></text></g><g clip-path="url(#aa)"><text transform="translate(73.957 13.003)" font-size="15" font-family="Calibri"><tspan x="0" y="0"> </tspan></text></g></g></g><rect width="108.566" height="39.899" transform="translate(730.435 769.782)" fill="#fff"/><rect width="108.566" height="39.899" rx="5" transform="translate(730.435 769.782)" fill="none" stroke="#12263f" stroke-miterlimit="10" stroke-width="2"/><g transform="translate(731.468 777.281)"><g clip-path="url(#ad)"><g clip-path="url(#ad)"><text transform="translate(17.74 16.003)" font-size="18" font-family="Calibri-Italic, Calibri" font-style="italic"><tspan x="0" y="0">S</tspan><tspan y="0" letter-spacing="-0.006em">h</tspan><tspan y="0">itc</tspan><tspan y="0" letter-spacing="0.005em">o</tspan><tspan y="0">i</tspan><tspan y="0" letter-spacing="-0.005em">n</tspan><tspan y="0">s</tspan></text></g><g clip-path="url(#ad)"><text transform="translate(89.132 13.003)" font-size="15" font-family="Calibri"><tspan x="0" y="0"> </tspan></text></g></g></g><rect width="82.649" height="39.899" rx="5" transform="translate(648.498 823.219)" fill="#fff" stroke="#12263f" stroke-width="2"/><rect width="82.649" height="39.899" transform="translate(648.498 823.219)" fill="none" stroke="#000" stroke-miterlimit="10" stroke-width="1"/><g transform="translate(649.567 830.711)"><g clip-path="url(#ag)"><g clip-path="url(#ag)"><text transform="translate(16.031 16.003)" font-size="18" font-family="Calibri-Italic, Calibri" font-style="italic"><tspan x="0" y="0">T</tspan><tspan y="0" letter-spacing="0.006em">o</tspan><tspan y="0" letter-spacing="-0.008em">k</tspan><tspan y="0">en</tspan></text></g><g clip-path="url(#ag)"><text transform="translate(64.801 13.003)" font-size="15" font-family="Calibri"><tspan x="0" y="0"> </tspan></text></g></g></g><rect width="223.989" height="38.118" rx="5" transform="translate(429.408 743.064)" fill="#fff" stroke="#12263f" stroke-width="2"/><rect width="223.989" height="38.118" transform="translate(429.408 743.064)" fill="none" stroke="#000" stroke-miterlimit="10" stroke-width="1"/><g transform="translate(430.476 750.52)"><g transform="translate(0)" clip-path="url(#aj)"><g clip-path="url(#aj)"><text transform="translate(17.099 16.112)" font-size="16" font-family="Roboto-Bold, Roboto" font-weight="700"><tspan x="0" y="0">Las </tspan><tspan y="0" letter-spacing="0.004em">m</tspan><tspan y="0">ás </tspan><tspan y="0" letter-spacing="-0.003em">i</tspan><tspan y="0" letter-spacing="0.004em">mp</tspan><tspan y="0" letter-spacing="0.003em">o</tspan><tspan y="0" letter-spacing="0.004em">r</tspan><tspan y="0">ta</tspan><tspan y="0" letter-spacing="0.007em">n</tspan><tspan y="0">t</tspan><tspan y="0" letter-spacing="0.003em">e</tspan><tspan y="0">s s</tspan><tspan y="0" letter-spacing="0.003em">o</tspan><tspan y="0" letter-spacing="0.004em">n</tspan><tspan y="0">:</tspan></text></g><g clip-path="url(#aj)"><text transform="translate(205.197 11.55)" font-size="15" font-family="Calibri"><tspan x="0" y="0"> </tspan></text></g></g></g><line x2="1.781" y2="26.629" transform="translate(1081.336 796.501)" fill="none" stroke="#12263f" stroke-miterlimit="10" stroke-width="2"/><line x2="1.781" y2="26.629" transform="translate(1083.117 728.814)" fill="none" stroke="#12263f" stroke-miterlimit="10" stroke-width="2"/><line x2="1.781" y2="25.917" transform="translate(1083.117 605.91)" fill="none" stroke="#12263f" stroke-miterlimit="10" stroke-width="2"/><line x1="155.234" y2="56.287" transform="translate(484.626 575.629)" fill="none" stroke="#12263f" stroke-miterlimit="10" stroke-width="2"/><rect width="206.8" height="39.187" transform="translate(279.785 618.378)" fill="#fff"/><rect width="206.8" height="39.187" rx="5" transform="translate(279.785 618.378)" fill="none" stroke="#12263f" stroke-miterlimit="10" stroke-width="2"/><g transform="translate(280.8 625.895)"><g clip-path="url(#am)"><g clip-path="url(#am)"><text transform="translate(15.39 16.069)" font-size="16" font-family="Roboto-Bold, Roboto" font-weight="700"><tspan x="0" y="0" letter-spacing="-0.003em">A</tspan><tspan y="0" letter-spacing="-0.004em">lg</tspan><tspan y="0" letter-spacing="0.004em">un</tspan><tspan y="0" letter-spacing="0.003em">o</tspan><tspan y="0">s </tspan><tspan y="0" letter-spacing="0.003em">co</tspan><tspan y="0" letter-spacing="0.004em">n</tspan><tspan y="0" letter-spacing="0.002em">c</tspan><tspan y="0" letter-spacing="0.001em">e</tspan><tspan y="0" letter-spacing="0.004em">p</tspan><tspan y="0">t</tspan><tspan y="0" letter-spacing="0.006em">o</tspan><tspan y="0">s s</tspan><tspan y="0" letter-spacing="0.003em">o</tspan><tspan y="0" letter-spacing="0.004em">n</tspan><tspan y="0">:</tspan></text></g><g clip-path="url(#am)"><text transform="translate(189.433 11.506)" font-size="15" font-family="Calibri"><tspan x="0" y="0"> </tspan></text></g></g></g><line x1="105.46" y2="33.789" transform="translate(219.223 658.6)" fill="none" stroke="#12263f" stroke-miterlimit="10" stroke-width="2"/><rect width="181.774" height="38.831" transform="translate(121.256 691.409)" fill="#fff"/><rect width="181.774" height="38.831" rx="5" transform="translate(121.256 691.409)" fill="none" stroke="#12263f" stroke-miterlimit="10" stroke-width="2"/><g transform="translate(122.2 698.783)"><g clip-path="url(#ap)"><g clip-path="url(#ap)"><text transform="translate(13.894 16.002)" font-size="18" font-family="Calibri"><tspan x="0" y="0">Ca</tspan><tspan y="0" letter-spacing="-0.004em">d</tspan><tspan y="0">ena de B</tspan><tspan y="0" letter-spacing="-0.011em">l</tspan><tspan y="0" letter-spacing="0.004em">o</tspan><tspan y="0" letter-spacing="-0.003em">qu</tspan><tspan y="0">es</tspan></text></g><g clip-path="url(#ap)"><text transform="translate(165.868 13.002)" font-size="15" font-family="Calibri"><tspan x="0" y="0"> </tspan></text></g></g></g><rect width="223.455" height="41.948" transform="translate(99.881 753.751)" fill="#fff"/><rect width="223.455" height="41.948" rx="5" transform="translate(99.881 753.751)" fill="none" stroke="#12263f" stroke-miterlimit="10" stroke-width="2"/><g transform="translate(100.832 761.208)"><g clip-path="url(#as)"><g clip-path="url(#as)"><text transform="translate(17.307 16.046)" font-size="18" font-family="Calibri"><tspan x="0" y="0">Ori</tspan><tspan y="0" letter-spacing="-0.004em">g</tspan><tspan y="0">en de la</tspan><tspan y="0" letter-spacing="-0.009em"> </tspan><tspan y="0">T</tspan><tspan y="0" letter-spacing="0.003em">e</tspan><tspan y="0">c</tspan><tspan y="0" letter-spacing="-0.013em">n</tspan><tspan y="0" letter-spacing="0.004em">o</tspan><tspan y="0" letter-spacing="-0.012em">l</tspan><tspan y="0" letter-spacing="0.004em">o</tspan><tspan y="0" letter-spacing="-0.003em">g</tspan><tspan y="0">ía</tspan></text></g><g clip-path="url(#as)"><text transform="translate(204.335 13.046)" font-size="15" font-family="Calibri"><tspan x="0" y="0"> </tspan></text></g></g></g><rect width="258.99" height="41.413" transform="translate(83.85 819.657)" fill="#fff"/><rect width="258.99" height="41.413" rx="5" transform="translate(83.85 819.657)" fill="none" stroke="#12263f" stroke-miterlimit="10" stroke-width="2"/><g transform="translate(84.758 827.077)"><g clip-path="url(#av)"><g clip-path="url(#av)"><text transform="translate(17.997 16.01)" font-size="18" font-family="Calibri"><tspan x="0" y="0">Ciclo</tspan><tspan y="0" letter-spacing="0.003em"> </tspan><tspan y="0" letter-spacing="-0.003em">d</tspan><tspan y="0" letter-spacing="-0.008em">e</tspan><tspan y="0" xml:space="preserve"> Vi</tspan><tspan y="0" letter-spacing="-0.005em">d</tspan><tspan y="0">a del </tspan><tspan y="0" font-family="Calibri-Italic, Calibri" font-style="italic">B</tspan><tspan y="0" font-family="Calibri-Italic, Calibri" font-style="italic" letter-spacing="-0.011em">l</tspan><tspan y="0" font-family="Calibri-Italic, Calibri" font-style="italic" letter-spacing="0.004em">o</tspan><tspan y="0" font-family="Calibri-Italic, Calibri" font-style="italic" letter-spacing="-0.009em">c</tspan><tspan y="0" font-family="Calibri-Italic, Calibri" font-style="italic">kcha</tspan><tspan y="0" font-family="Calibri-Italic, Calibri" font-style="italic" letter-spacing="-0.013em">i</tspan><tspan y="0" font-family="Calibri-Italic, Calibri" font-style="italic">n</tspan></text></g><g clip-path="url(#av)"><text transform="translate(239.005 13.01)" font-size="15" font-family="Calibri"><tspan x="0" y="0"> </tspan></text></g></g></g><line x2="1.781" y2="21.375" transform="translate(208.536 728.814)" fill="none" stroke="#12263f" stroke-miterlimit="10" stroke-width="2"/><line x2="1.781" y2="22.711" transform="translate(212.098 796.501)" fill="none" stroke="#12263f" stroke-miterlimit="10" stroke-width="2"/><line x1="158.618" y1="61.809" transform="translate(482.844 491.911)" fill="none" stroke="#12263f" stroke-miterlimit="10" stroke-width="2"/><rect width="256.496" height="41.324" transform="translate(233.473 472.318)" fill="#fff"/><rect width="256.496" height="41.324" rx="5" transform="translate(233.473 472.318)" fill="none" stroke="#12263f" stroke-miterlimit="10" stroke-width="2"/><g transform="translate(234.417 482.657)"><g clip-path="url(#ay)"><g clip-path="url(#ay)"><text transform="translate(18.169 16.003)" font-size="18" font-family="Roboto-Regular, Roboto"><tspan x="0" y="0">Tipo</tspan><tspan y="0" letter-spacing="0.001em">s</tspan><tspan y="0" xml:space="preserve"> d</tspan><tspan y="0" letter-spacing="-0.009em">e</tspan><tspan y="0"> </tspan><tspan y="0" letter-spacing="-0.004em">M</tspan><tspan y="0" letter-spacing="0.004em">o</tspan><tspan y="0" letter-spacing="-0.003em">n</tspan><tspan y="0">eda</tspan><tspan y="0" letter-spacing="-0.013em">s</tspan><tspan y="0"> </tspan><tspan y="0" letter-spacing="0.005em">D</tspan><tspan y="0">i</tspan><tspan y="0" letter-spacing="-0.004em">g</tspan><tspan y="0">ita</tspan><tspan y="0" letter-spacing="-0.012em">l</tspan><tspan y="0">es</tspan></text></g><g clip-path="url(#ay)"><text transform="translate(236.457 13.003)" font-size="15" font-family="Calibri"><tspan x="0" y="0"> </tspan></text></g></g></g><line x1="112.616" y1="101.812" transform="translate(196.066 370.788)" fill="none" stroke="#12263f" stroke-miterlimit="10" stroke-width="2"/><line x1="1.781" y1="86.568" transform="translate(351.034 386.819)" fill="none" stroke="#12263f" stroke-miterlimit="10" stroke-width="2"/><line x1="99.035" y2="108.937" transform="translate(398.683 363.663)" fill="none" stroke="#12263f" stroke-miterlimit="10" stroke-width="2"/><rect width="96.988" height="38.118" transform="translate(147.974 335.164)" fill="#fff"/><rect width="96.988" height="38.118" rx="5" transform="translate(147.974 335.164)" fill="#afafaf" stroke="#12263f" stroke-miterlimit="10" stroke-width="2"/><g transform="translate(148.918 342.645)"><g clip-path="url(#bb)"><g clip-path="url(#bb)"><text transform="translate(19.879 16.002)" font-size="18" font-family="Calibri-Italic, Calibri" font-style="italic"><tspan x="0" y="0">Bitc</tspan><tspan y="0" letter-spacing="0.004em">o</tspan><tspan y="0">in</tspan></text></g><g clip-path="url(#bb)"><text transform="translate(75.025 13.002)" font-size="15" font-family="Calibri"><tspan x="0" y="0"> </tspan></text></g></g></g><rect width="109.189" height="43.373" rx="5" transform="translate(301.159 345.851)" fill="#fff" stroke="#12263f" stroke-width="2"/><rect width="109.189" height="43.373" transform="translate(301.159 345.851)" fill="#dee4f0" stroke="#000" stroke-miterlimit="10" stroke-width="1"/><g transform="translate(302.175 353.332)"><g transform="translate(0 0)" clip-path="url(#be)"><g clip-path="url(#be)"><text transform="translate(14.321 16.002)" font-size="18" font-family="Calibri-Italic, Calibri" font-style="italic"><tspan x="0" y="0">E</tspan><tspan y="0" letter-spacing="0.002em">t</tspan><tspan y="0" letter-spacing="-0.003em">h</tspan><tspan y="0">ere</tspan><tspan y="0" letter-spacing="-0.011em">u</tspan><tspan y="0">m</tspan></text></g><g clip-path="url(#be)"><text transform="translate(45.742 42.652)" font-size="19" font-family="Calibri"><tspan x="0" y="0">m</tspan></text></g><g clip-path="url(#be)"><text transform="translate(61.345 38.652)" font-size="15" font-family="Calibri"><tspan x="0" y="0"> </tspan></text></g></g></g><rect width="131.722" height="38.118" transform="translate(440.095 338.726)" fill="#fff"/><path d="M5,0H126.722a5,5,0,0,1,5,5V33.118a5,5,0,0,1-5,5H5a5,5,0,0,1-5-5V5A5,5,0,0,1,5,0Z" transform="translate(440.095 338.726)" fill="#e8e8e8" stroke="#12263f" stroke-width="2"/><g transform="translate(441.164 346.065)"><g clip-path="url(#bi)"><g clip-path="url(#bi)"><text transform="translate(15.817 16.002)" font-size="18" font-family="Calibri-Italic, Calibri" font-style="italic"><tspan x="0" y="0" letter-spacing="-0.003em">H</tspan><tspan y="0" letter-spacing="0.003em">y</tspan><tspan y="0" letter-spacing="-0.003em">p</tspan><tspan y="0">erled</tspan><tspan y="0" letter-spacing="-0.005em">g</tspan><tspan y="0">er</tspan></text></g><g clip-path="url(#bi)"><text transform="translate(114.14 13.002)" font-size="15" font-family="Calibri"><tspan x="0" y="0"> </tspan></text></g></g></g><rect width="227.017" height="34.645" transform="translate(238.817 409.975)" fill="#fff"/><rect width="227.017" height="34.645" rx="5" transform="translate(238.817 409.975)" fill="none" stroke="#12263f" stroke-miterlimit="10" stroke-width="2"/><g transform="translate(239.761 417.456)"><g clip-path="url(#bl)"><g clip-path="url(#bl)"><text transform="translate(22.016 16.069)" font-size="16" font-family="Roboto-Bold, Roboto" font-weight="700"><tspan x="0" y="0">Los</tspan><tspan y="0" letter-spacing="0.002em"> </tspan><tspan y="0" letter-spacing="0.004em">m</tspan><tspan y="0">ás </tspan><tspan y="0" letter-spacing="0.006em">d</tspan><tspan y="0" letter-spacing="0.001em">e</tspan><tspan y="0">sta</tspan><tspan y="0" letter-spacing="0.003em">c</tspan><tspan y="0">a</tspan><tspan y="0" letter-spacing="0.004em">d</tspan><tspan y="0" letter-spacing="0.003em">o</tspan><tspan y="0">s s</tspan><tspan y="0" letter-spacing="0.003em">o</tspan><tspan y="0" letter-spacing="0.004em">n</tspan><tspan y="0">:</tspan></text></g><g clip-path="url(#bl)"><text transform="translate(203.113 11.506)" font-size="15" font-family="Calibri"><tspan x="0" y="0"> </tspan></text></g></g></g><line y1="82.204" x2="91.377" transform="translate(823.058 450.943)" fill="none" stroke="#12263f" stroke-miterlimit="10" stroke-width="2"/><rect width="398.638" height="48.538" transform="translate(709.06 411.756)" fill="#fff"/><rect width="398.638" height="48.538" rx="5" transform="translate(709.06 411.756)" stroke="#12263f" stroke-miterlimit="10" stroke-width="2" fill="url(#t)"/><g transform="translate(710.093 426.166)"><g transform="translate(0 0)" clip-path="url(#bp)"><g clip-path="url(#bp)"><text transform="translate(24.368 16.002)" font-size="18" font-family="Roboto-Italic, Roboto" font-style="italic"><tspan x="0" y="0" letter-spacing="-0.004em">N</tspan><tspan y="0">TF </tspan><tspan y="0" letter-spacing="0.002em">T</tspan><tspan y="0" letter-spacing="-0.005em">o</tspan><tspan y="0">k</tspan><tspan y="0" letter-spacing="0.003em">e</tspan><tspan y="0" letter-spacing="-0.003em">n</tspan><tspan y="0"> </tspan><tspan y="0" letter-spacing="-0.012em">n</tspan><tspan y="0" letter-spacing="0.004em">o</tspan><tspan y="0" xml:space="preserve"> F</tspan><tspan y="0" letter-spacing="-0.003em">ung</tspan><tspan y="0">i</tspan><tspan y="0" letter-spacing="-0.005em">b</tspan><tspan y="0">le o </tspan><tspan y="0" letter-spacing="-0.013em">A</tspan><tspan y="0">cti</tspan><tspan y="0" letter-spacing="-0.004em">v</tspan><tspan y="0" letter-spacing="0.004em">o</tspan><tspan y="0"> </tspan><tspan y="0" letter-spacing="-0.012em">n</tspan><tspan y="0" letter-spacing="0.004em">o</tspan><tspan y="0" xml:space="preserve"> F</tspan><tspan y="0" letter-spacing="-0.003em">ung</tspan><tspan y="0">i</tspan><tspan y="0" letter-spacing="-0.005em">b</tspan><tspan y="0">le</tspan></text></g><g clip-path="url(#bp)"><text transform="translate(372.615 13.002)" font-size="15" font-family="Calibri"><tspan x="0" y="0"> </tspan></text></g></g></g><line x1="1.781" y1="38.029" transform="translate(912.12 372.569)" fill="none" stroke="#12263f" stroke-miterlimit="10" stroke-width="2"/><rect width="324.539" height="36.337" transform="translate(760.715 345.851)" fill="#fff"/><rect width="324.539" height="36.337" rx="5" transform="translate(760.715 345.851)" fill="none" stroke="#12263f" stroke-miterlimit="10" stroke-width="2"/><g transform="translate(761.82 353.332)"><g transform="translate(0 0)" clip-path="url(#bs)"><g clip-path="url(#bs)"><text transform="translate(26.292 16.069)" font-size="16" font-family="Roboto-Bold, Roboto" font-weight="700"><tspan x="0" y="0" letter-spacing="-0.003em">A</tspan><tspan y="0" letter-spacing="-0.004em">lg</tspan><tspan y="0" letter-spacing="0.004em">un</tspan><tspan y="0" letter-spacing="0.003em">o</tspan><tspan y="0">s </tspan><tspan y="0" letter-spacing="0.005em">o</tspan><tspan y="0" letter-spacing="0.004em">n</tspan><tspan y="0" letter-spacing="0.002em">c</tspan><tspan y="0" letter-spacing="0.001em">e</tspan><tspan y="0" letter-spacing="0.004em">p</tspan><tspan y="0">t</tspan><tspan y="0" letter-spacing="0.006em">o</tspan><tspan y="0">s </tspan><tspan y="0" letter-spacing="0.006em">b</tspan><tspan y="0">ás</tspan><tspan y="0" letter-spacing="-0.005em">i</tspan><tspan y="0" letter-spacing="0.002em">c</tspan><tspan y="0" letter-spacing="0.003em">o</tspan><tspan y="0">s a</tspan><tspan y="0" xml:space="preserve" letter-spacing="0.002em"> c</tspan><tspan y="0" letter-spacing="0.003em">o</tspan><tspan y="0" letter-spacing="0.004em">n</tspan><tspan y="0" letter-spacing="0.003em">o</tspan><tspan y="0" letter-spacing="0.002em">c</tspan><tspan y="0" letter-spacing="0.001em">e</tspan><tspan y="0" letter-spacing="0.004em">r</tspan><tspan y="0">:</tspan></text></g><g clip-path="url(#bs)"><text transform="translate(296.521 11.506)" font-size="15" font-family="Calibri"><tspan x="0" y="0"> </tspan></text></g></g></g><line x1="1.781" y1="39.81" transform="translate(912.12 306.664)" fill="none" stroke="#12263f" stroke-miterlimit="10" stroke-width="2"/><rect width="136.887" height="45.065" transform="translate(846.214 262.133)" fill="#fff"/><rect width="136.887" height="45.065" rx="5" transform="translate(846.214 262.133)" fill="none" stroke="#12263f" stroke-miterlimit="10" stroke-width="2"/><g transform="translate(847.318 269.501)"><g transform="translate(0 0)" clip-path="url(#bv)"><g clip-path="url(#bv)"><text transform="translate(13.681 15.992)" font-size="18" font-family="Roboto-Regular, Roboto"><tspan x="0" y="0">Bie</tspan><tspan y="0" letter-spacing="-0.004em">n</tspan><tspan y="0" xml:space="preserve"> F</tspan><tspan y="0" letter-spacing="-0.003em">ung</tspan><tspan y="0">i</tspan><tspan y="0" letter-spacing="-0.005em">b</tspan><tspan y="0">le</tspan></text></g><g clip-path="url(#bv)"><text transform="translate(121.194 12.992)" font-size="15" font-family="Calibri"><tspan x="0" y="0"> </tspan></text></g></g></g><line x1="39.656" y1="2.092" transform="translate(807.026 283.508)" fill="none" stroke="#12263f" stroke-miterlimit="10" stroke-width="2"/><rect width="355.265" height="39.899" transform="translate(452.564 265.696)" fill="#fff"/><rect width="355.265" height="39.899" rx="5" transform="translate(452.564 265.696)" fill="none" stroke="#12263f" stroke-miterlimit="10" stroke-width="2"/><g transform="translate(453.561 273.134)"><g transform="translate(0)" clip-path="url(#by)"><g clip-path="url(#by)"><text transform="translate(21.588 16.045)" font-size="18" font-family="Roboto-Regular, Roboto"><tspan x="0" y="0">Se p</tspan><tspan y="0" letter-spacing="-0.005em">u</tspan><tspan y="0">eden i</tspan><tspan y="0" letter-spacing="-0.005em">n</tspan><tspan y="0">t</tspan><tspan y="0" letter-spacing="0.003em">e</tspan><tspan y="0" letter-spacing="-0.011em">r</tspan><tspan y="0">c</tspan><tspan y="0" letter-spacing="-0.011em">a</tspan><tspan y="0" letter-spacing="0.004em">m</tspan><tspan y="0" letter-spacing="-0.003em">b</tspan><tspan y="0">ia</tspan><tspan y="0" letter-spacing="-0.003em">r</tspan><tspan y="0">, </tspan><tspan y="0" letter-spacing="0.003em">t</tspan><tspan y="0" letter-spacing="-0.012em">i</tspan><tspan y="0">ene</tspan><tspan y="0" letter-spacing="0.001em"> </tspan><tspan y="0" letter-spacing="-0.003em">un</tspan><tspan y="0"> </tspan><tspan y="0" letter-spacing="-0.003em">v</tspan><tspan y="0">al</tspan><tspan y="0" letter-spacing="0.001em">o</tspan><tspan y="0">r</tspan></text></g><g clip-path="url(#by)"><text transform="translate(331.771 13.045)" font-size="15" font-family="Calibri"><tspan x="0" y="0"> </tspan></text></g></g></g><line y1="32.953" x2="45.065" transform="translate(926.369 230.071)" fill="none" stroke="#12263f" stroke-miterlimit="10" stroke-width="2"/><rect width="166.366" height="38.118" transform="translate(945.963 194.447)" fill="#fff"/><rect width="166.366" height="38.118" rx="5" transform="translate(945.963 194.447)" fill="none" stroke="#12263f" stroke-miterlimit="10" stroke-width="2"/><g transform="translate(946.925 201.732)"><g clip-path="url(#cb)"><text transform="translate(14.748 16.003)" font-size="18" font-family="Roboto-Regular, Roboto"><tspan x="0" y="0">Bie</tspan><tspan y="0" letter-spacing="-0.004em">n</tspan><tspan y="0" xml:space="preserve"> N</tspan><tspan y="0" letter-spacing="0.001em">o</tspan><tspan y="0" xml:space="preserve"> F</tspan><tspan y="0" letter-spacing="-0.003em">ung</tspan><tspan y="0">i</tspan><tspan y="0" letter-spacing="-0.005em">b</tspan><tspan y="0">le</tspan></text><g clip-path="url(#cb)"><text transform="translate(149.676 13.003)" font-size="15" font-family="Calibri"><tspan x="0" y="0"> </tspan></text></g></g></g><line x2="32.489" y2="2.222" transform="translate(1113.683 213.6)" fill="none" stroke="#12263f" stroke-miterlimit="10" stroke-width="2"/><rect width="183.733" height="64.124" transform="translate(1140.116 183.76)" fill="#fff"/><rect width="183.733" height="64.124" rx="5" transform="translate(1140.116 183.76)" fill="none" stroke="#12263f" stroke-miterlimit="10" stroke-width="2"/><g transform="translate(1141.274 191.045)"><g clip-path="url(#cd)"><g clip-path="url(#cd)"><text transform="translate(32.49 16.003)" font-size="18" font-family="Roboto-Regular, Roboto"><tspan x="0" y="0" letter-spacing="-0.004em">N</tspan><tspan y="0" letter-spacing="0.004em">o</tspan><tspan y="0" xml:space="preserve"> p</tspan><tspan y="0" letter-spacing="-0.004em">u</tspan><tspan y="0">eden </tspan><tspan y="0" letter-spacing="-0.011em">s</tspan><tspan y="0">er </tspan></text></g><g clip-path="url(#cd)"><text transform="translate(45.741 42.866)" font-size="19" font-family="Roboto-Regular, Roboto"><tspan x="0" y="0">sustit</tspan><tspan y="0" letter-spacing="-0.004em">u</tspan><tspan y="0">i</tspan><tspan y="0" letter-spacing="-0.005em">b</tspan><tspan y="0">les</tspan></text></g><g clip-path="url(#cd)"><text transform="translate(135.944 38.866)" font-size="15" font-family="Calibri"><tspan x="0" y="0"> </tspan></text></g></g></g><line x1="126.467" y1="44.976" transform="translate(821.277 162.385)" fill="none" stroke="#12263f" stroke-miterlimit="10" stroke-width="2"/><rect width="67.063" height="43.373" transform="translate(764.278 142.791)" fill="#fff"/><rect width="67.063" height="43.373" rx="5" transform="translate(764.278 142.791)" fill="#ffd800" stroke="#12263f" stroke-miterlimit="10" stroke-width="2"/><g transform="translate(765.24 150.219)"><g clip-path="url(#ch)"><g clip-path="url(#ch)"><text transform="translate(13.886 20.003)" font-size="19" font-family="Roboto-Bold, Roboto" font-weight="700"><tspan x="0" y="0" letter-spacing="-0.004em">N</tspan><tspan y="0">FT</tspan></text></g><g clip-path="url(#ch)"><text transform="translate(48.092 13.003)" font-size="15" font-family="Calibri"><tspan x="0" y="0"> </tspan></text></g></g></g><rect width="391.691" height="41.592" transform="translate(324.315 142.791)" fill="#fff"/><rect width="391.691" height="41.592" rx="5" transform="translate(324.315 142.791)" fill="none" stroke="#12263f" stroke-miterlimit="10" stroke-width="2"/><g transform="translate(325.259 150.219)"><g clip-path="url(#ck)"><g clip-path="url(#ck)"><text transform="translate(12.825 16.003)" font-size="18" font-family="Roboto-Regular, Roboto"><tspan x="0" y="0">U</tspan><tspan y="0" letter-spacing="-0.004em">n</tspan><tspan y="0">i</tspan><tspan y="0" letter-spacing="-0.005em">d</tspan><tspan y="0">a</tspan><tspan y="0" letter-spacing="-0.004em">d</tspan><tspan y="0">es</tspan><tspan y="0" letter-spacing="0.003em"> </tspan><tspan y="0" letter-spacing="-0.003em">d</tspan><tspan y="0">e</tspan><tspan y="0" letter-spacing="-0.007em"> </tspan><tspan y="0" letter-spacing="0.004em">v</tspan><tspan y="0">al</tspan><tspan y="0" letter-spacing="0.001em">o</tspan><tspan y="0" letter-spacing="-0.011em">r</tspan><tspan y="0">, in</tspan><tspan y="0" letter-spacing="-0.006em">d</tspan><tspan y="0">ivisi</tspan><tspan y="0" letter-spacing="-0.015em">b</tspan><tspan y="0">les </tspan><tspan y="0" letter-spacing="-0.004em">y</tspan><tspan y="0"> </tspan><tspan y="0" letter-spacing="0.003em">t</tspan><tspan y="0">ra</tspan><tspan y="0" letter-spacing="-0.005em">n</tspan><tspan y="0">sferi</tspan><tspan y="0" letter-spacing="-0.005em">b</tspan><tspan y="0" letter-spacing="-0.012em">l</tspan><tspan y="0">es</tspan></text></g><g clip-path="url(#ck)"><text transform="translate(370.691 13.003)" font-size="15" font-family="Calibri"><tspan x="0" y="0"> </tspan></text></g></g></g><line x1="50.141" y1="1.781" transform="translate(716.185 162.385)" fill="none" stroke="#12263f" stroke-miterlimit="10" stroke-width="2"/><line y1="43.462" x2="76.682" transform="translate(833.746 108.948)" fill="none" stroke="#12263f" stroke-miterlimit="10" stroke-width="2"/><rect width="95.385" height="37.762" transform="translate(910.338 85.792)" fill="#fff"/><rect width="95.385" height="37.762" rx="5" transform="translate(910.338 85.792)" fill="none" stroke="#12263f" stroke-miterlimit="10" stroke-width="2"/><g transform="translate(911.443 93.149)"><g clip-path="url(#cn)"><g clip-path="url(#cn)"><text transform="translate(17.74 16.003)" font-size="18" font-family="Roboto-Italic, Roboto" font-style="italic"><tspan x="0" y="0" letter-spacing="0.003em">M</tspan><tspan y="0">ark</tspan><tspan y="0" letter-spacing="-0.008em">e</tspan><tspan y="0">t</tspan></text></g><g clip-path="url(#cn)"><text transform="translate(75.881 13.003)" font-size="15" font-family="Calibri"><tspan x="0" y="0"> </tspan></text></g></g></g><rect width="150.157" height="39.187" transform="translate(1045.711 84.1)" fill="#fff"/><rect width="150.157" height="39.187" rx="5" transform="translate(1045.711 84.1)" fill="none" stroke="#12263f" stroke-miterlimit="10" stroke-width="2"/><g transform="translate(1046.798 91.439)"><g clip-path="url(#cq)"><g clip-path="url(#cq)"><text transform="translate(19.665 16.003)" font-size="18" font-family="Roboto-Regular, Roboto"><tspan x="0" y="0">Tien</tspan><tspan y="0" letter-spacing="-0.004em">d</tspan><tspan y="0">a </tspan><tspan y="0" letter-spacing="0.004em">D</tspan><tspan y="0">i</tspan><tspan y="0" letter-spacing="-0.004em">g</tspan><tspan y="0">ital</tspan></text></g><g clip-path="url(#cq)"><text transform="translate(128.676 13.003)" font-size="15" font-family="Calibri"><tspan x="0" y="0"> </tspan></text></g></g></g><line x2="35.981" y2="1.781" transform="translate(1006.524 101.823)" fill="none" stroke="#12263f" stroke-miterlimit="10" stroke-width="2"/></g></g></svg>