<svg xmlns="http://www.w3.org/2000/svg" xmlns:xlink="http://www.w3.org/1999/xlink" width="123.202" height="91.583" viewBox="0 0 123.202 91.583"><defs><linearGradient id="a" x1="0.5" x2="0.5" y2="1" gradientUnits="objectBoundingBox"><stop offset="0" stop-color="#49acc5"/><stop offset="1" stop-color="#5573c6"/></linearGradient><linearGradient id="b" x1="0.5" x2="0.5" y2="1" gradientUnits="objectBoundingBox"><stop offset="0" stop-color="#5573c6"/><stop offset="1" stop-color="#2c4a9b"/></linearGradient><linearGradient id="c" x1="0.5" x2="0.5" y2="1" gradientUnits="objectBoundingBox"><stop offset="0" stop-color="#f5f5f5"/><stop offset="0.25" stop-color="#f5f5f5"/><stop offset="1" stop-color="#a7b3cf"/></linearGradient><clipPath id="d"><path d="M1443.843,859.637l-15.121-63.761L1397,796.983l15.122,63.761Z" transform="translate(-1396.997 -795.875)" fill="none"/></clipPath></defs><g transform="translate(0 0)"><g transform="translate(0 0)"><g style="isolation:isolate"><path d="M1303.531,782.834a3.036,3.036,0,0,0-.9.79,5.191,5.191,0,0,0-.435,4.74l-5.155,2.851C1295.217,785.82,1299.952,785.07,1303.531,782.834Z" transform="translate(-1296.636 -775.225)" fill="#1565c0"/><path d="M1407.7,771.028l-94.9,7.62-4.2.337a5.2,5.2,0,0,1,.435-4.74,3.008,3.008,0,0,1,2.18-1.178l91.133-7.217C1405.145,765.724,1407.223,768.464,1407.7,771.028Z" transform="translate(-1303.043 -765.846)" fill="url(#a)"/></g><g transform="translate(0.403 5.181)" style="isolation:isolate"><path d="M1418.45,862.079c-.7.274-5.36,2.911-5.92,2.907-1.669-.106-91.329,9.34-92.851,8.6a6.148,6.148,0,0,1-3.679-3.854c-.219-.572-18.285-71.1-18.464-71.7l5.157-2.851c1.323,1.62,17.714,77.313,21.3,75.269a4.065,4.065,0,0,0,2.379.57C1327.539,870.74,1417.348,862.65,1418.45,862.079Z" transform="translate(-1297.536 -787.223)" fill="url(#b)"/><path d="M1426.69,849.211a3.308,3.308,0,0,1-2.825,3.306c-1.547-.035-90.747,9-92.228,8.623a5.907,5.907,0,0,1-3.912-3.54c-.576-1.1-18.264-71.093-18.68-72.229l4.2-.337,94.9-7.62C1411.8,792.4,1423.786,834.81,1426.69,849.211Z" transform="translate(-1303.891 -777.415)" fill="url(#c)"/></g><g transform="translate(44.952 13.45)"><g style="isolation:isolate"><g clip-path="url(#d)"><g transform="translate(7.699 0.554)"><path d="M1432.412,797.112l23.561,31.91-17.968-8.325-5.593-23.585" transform="translate(-1424.249 -797.112)" fill="#8a92b2"/><path d="M1444.9,849.769l17.968,8.325-13.112,12.149-4.856-20.475" transform="translate(-1431.144 -826.184)" fill="#62688f"/><path d="M1470.854,876.12l-9.264,28.374-3.718-15.677,12.982-12.7" transform="translate(-1438.306 -840.733)" fill="#8a92b2"/><path d="M1422.35,797.112l10.449,44.059-18.612-11.042,18.612,11.042-4.856-20.475-13.756,9.433,8.163-33.018" transform="translate(-1414.187 -797.112)" fill="#62688f"/><path d="M1427.943,849.769l4.856,20.475L1414.187,859.2l13.756-9.433" transform="translate(-1414.187 -826.184)" fill="#454a75"/><path d="M1416.028,878.594l18.742,11.589,3.718,15.677-22.46-27.266" transform="translate(-1415.203 -842.099)" fill="#62688f"/></g></g></g></g></g></g></svg>