<svg xmlns="http://www.w3.org/2000/svg" xmlns:xlink="http://www.w3.org/1999/xlink" width="93.067" height="135.818" viewBox="0 0 93.067 135.818"><defs><linearGradient id="a" x1="-1.55" y1="2.363" x2="-0.622" y2="2.363" gradientUnits="objectBoundingBox"><stop offset="0" stop-color="#b87333"/><stop offset="0.076" stop-color="#bb7b40"/><stop offset="0.217" stop-color="#c49162"/><stop offset="0.408" stop-color="#d2b59a"/><stop offset="0.626" stop-color="#e5e4e2"/><stop offset="0.989" stop-color="#b87333"/></linearGradient><linearGradient id="b" x1="0" y1="0.5" x2="1" y2="0.5" xlink:href="#a"/></defs><g transform="translate(-1068.435 -424.928)"><g transform="translate(1068.436 507.063)"><g transform="translate(0 0)"><g transform="translate(0 0)" style="isolation:isolate"><path d="M2202.887,629.021c-8.836-16.992-34.632-19.988-50.539-9.564a39.564,39.564,0,0,1,23.9-5.119c-22.5-3.709-47.991,19.6-27.953,38.946,16.438,18.031,64.067,6.243,53.954-22.4,3.671,8.98.2,19.211-9.76,25.786C2203.561,650.087,2207.594,638.574,2202.887,629.021ZM2202,630.3q-.054-.122-.111-.245Q2201.946,630.181,2202,630.3Zm-.131-.288c-.036-.077-.071-.153-.108-.229C2201.8,629.862,2201.833,629.938,2201.869,630.015Zm-.137-.288q-.051-.107-.1-.214Q2201.68,629.62,2201.731,629.727Zm-.139-.283q-.051-.1-.1-.2Q2201.542,629.343,2201.592,629.444Zm-.145-.282c-.033-.064-.066-.127-.1-.191C2201.381,629.035,2201.415,629.1,2201.448,629.162Zm-.153-.287-.094-.173Zm-.158-.286c-.029-.052-.058-.1-.087-.155C2201.079,628.485,2201.108,628.537,2201.137,628.589Zm-.16-.279-.083-.143Zm-.167-.282-.077-.127Zm-.173-.282-.069-.111Zm-.177-.279-.062-.1Zm-.181-.276c-.018-.028-.036-.055-.055-.083C2200.242,627.135,2200.26,627.163,2200.278,627.19Zm-.187-.277-.046-.068Zm-.2-.28-.034-.048Zm-.2-.276-.023-.032Zm-.207-.277-.01-.012Zm-20.146-11.327c.194.034.388.068.582.1C2179.731,614.821,2179.537,614.786,2179.343,614.753Zm-3.078-.413q.363.035.723.075Q2176.628,614.374,2176.266,614.34Zm.772.081q.345.04.689.085Q2177.383,614.46,2177.038,614.421Zm.772.1c.218.029.436.06.653.092C2178.246,614.577,2178.028,614.547,2177.81,614.518Zm.769.111c.207.032.413.064.618.1C2178.991,614.692,2178.785,614.66,2178.579,614.628Zm12.259,4.1-.017-.01Zm-.626-.34-.05-.026Zm-.636-.327-.081-.039Zm-.644-.314-.117-.054Zm-.653-.3-.154-.067Zm-.661-.288c-.062-.026-.125-.051-.187-.077C2187.493,617.109,2187.556,617.134,2187.617,617.16Zm-.668-.275-.218-.085Zm-.675-.262-.255-.093Zm-.683-.249c-.1-.034-.194-.066-.291-.1C2185.4,616.308,2185.5,616.34,2185.591,616.374Zm-.688-.235c-.108-.036-.217-.07-.326-.1C2184.686,616.069,2184.794,616.1,2184.9,616.139Zm-.7-.223c-.12-.037-.24-.072-.359-.107C2183.967,615.844,2184.087,615.879,2184.207,615.916Zm-.7-.209c-.132-.038-.265-.074-.4-.111C2183.242,615.633,2183.375,615.669,2183.506,615.707Zm-.707-.2c-.143-.038-.288-.074-.431-.111C2182.512,615.436,2182.657,615.472,2182.8,615.511Zm-.712-.183c-.155-.038-.312-.075-.469-.111C2181.776,615.253,2181.933,615.289,2182.088,615.327Zm-.716-.17c-.168-.038-.337-.074-.506-.11C2181.035,615.083,2181.2,615.119,2181.372,615.158Zm-.721-.157c-.18-.037-.36-.072-.541-.107C2180.291,614.929,2180.471,614.963,2180.65,615Zm21.482,15.606c.04.091.078.183.115.274C2202.21,630.79,2202.172,630.7,2202.132,630.607Zm-.119-.274c.038.087.076.174.113.261C2202.09,630.507,2202.052,630.419,2202.014,630.332Z" transform="translate(-2141.042 -613.417)" fill="#f7b865"/><path d="M2211.694,647.692c1.984-29.55-51.937-31.124-56.18-3.8C2153.531,673.443,2207.452,675.019,2211.694,647.692Z" transform="translate(-2151.589 -621.463)" fill="url(#a)"/><path d="M2212.918,649.223c-4.118,26.5-56.406,24.972-54.484-3.685C2162.554,619.039,2214.844,620.566,2212.918,649.223Z" transform="translate(-2153.727 -623.098)" fill="#ffd800"/><g transform="translate(14.655 12.39)"><path d="M2216.254,673.863c1.029,2.707-2.047,4.973-4.57,6.349a8.713,8.713,0,0,1-8,.907l-.106.067-2.268,1.431-1.66-1.539,1.929-1.217c-.242-.186-2.117-1.949-2.387-2.192l-1.915,1.208-1.66-1.539,1.915-1.208L2196.2,674.9l24.307-15.336,1.332,1.235,1.916-1.209,1.66,1.539-1.916,1.209c.45.433,1.958,1.768,2.335,2.225l1.955-1.233,1.66,1.539-2.516,1.587C2228.422,670.9,2220.264,675.335,2216.254,673.863Zm-7.632,3.619c4.023-2.455,5.587-3.152,1.339-6.6l-.372.234-6.92,4.367c1.562,1.562,3.6,3.693,5.953,2m6.016-9.556-1.205.761c1.654,1.744,3.611,3.283,6.047,1.549,3.809-2.148,3.772-3.016.55-5.711l-.371.234-5.021,3.168" transform="translate(-2195.62 -659.56)" fill="#fff"/></g><path d="M2233.691,629.021c-8.837-16.992-34.632-19.988-50.539-9.564,25.962-17.82,73.429,11.461,40.139,37.211C2234.365,650.087,2238.4,638.574,2233.691,629.021Z" transform="translate(-2171.845 -613.417)" fill="#fff" opacity="0.75" style="mix-blend-mode:screen;isolation:isolate"/><path d="M2201.042,718.086l.251-.356h0a23.228,23.228,0,0,0,1.228-1.985h0q.323-.591.61-1.2l.006-.013h0c.254-.547.488-1.1.695-1.669v0c.076-.213.153-.425.221-.64v0q.275-.842.477-1.705v0c.091-.395.168-.792.237-1.191a.149.149,0,0,1,0-.032v.005q.039-.244.074-.489a19.03,19.03,0,0,0,.166-1.961v.01c.041-.707-.121-5.449-.134-6.254h0V700.6c.286,8.322-5.3,15.691-12.229,19.781v-.007c-16.989,10.8-49.451,5.334-51.412-18.032v.009h0c-2.286,26.874,32.249,35.085,51.451,23.239v.01q.292-.176.579-.357h0c.165-.1.326-.21.489-.315h0q.682-.449,1.341-.929h0c.571-.42,1.135-.864,1.665-1.315h0c.191-.165.383-.33.571-.5h0q.459-.415.9-.843h0c.2-.2.4-.4.595-.6h0c.281-.3.558-.6.826-.905h0l.061-.07h0c.134-.157.266-.316.4-.474h0l.029-.036h0q.467-.574.9-1.173Z" transform="translate(-2141.105 -677.192)" fill="#ffd800"/></g></g></g><g transform="translate(1091.019 424.928)"><g transform="translate(0 0)" style="isolation:isolate"><path d="M2337,290.341c-19.525-9.995-45.589,4.329-53.516,24.615a45.3,45.3,0,0,1,18.907-20.638c-23.465,11.474-31.781,50.146-.241,54.9,27.308,5.919,63.937-36.692,35.488-56.715,9.386,5.945,12.933,17.8,8,30.543C2351.605,309.555,2347.729,296.134,2337,290.341Zm.023,1.786-.267-.155Zm-.314-.182-.253-.142Zm-.319-.178q-.118-.066-.239-.13Q2336.267,291.7,2336.385,291.767Zm-.318-.171-.23-.121Zm-.322-.167-.22-.111Zm-.333-.167-.2-.1Zm-.338-.162-.184-.086Zm-.334-.154-.174-.078Zm-.344-.152-.156-.068Zm-.349-.148-.138-.057Zm-.35-.143-.121-.049Zm-.353-.137-.106-.041Zm-.359-.134-.088-.032Zm-.368-.131-.064-.023Zm-.37-.126-.042-.014Zm-.376-.122-.017-.005Zm-26.32,2.8c.2-.1.407-.195.612-.289C2305.959,292.455,2305.756,292.553,2305.552,292.65Zm-3.147,1.657q.361-.208.725-.409Q2302.767,294.1,2302.406,294.307Zm.774-.436q.349-.193.7-.379Q2303.529,293.678,2303.18,293.871Zm.786-.423c.223-.117.446-.234.67-.347C2304.411,293.214,2304.188,293.33,2303.966,293.447Zm.791-.407q.319-.161.642-.318Q2305.075,292.879,2304.756,293.041Zm14.164-4.308-.023,0Zm-.811.1-.064.009Zm-.811.117-.1.017Zm-.81.135-.146.027Zm-.809.152-.189.04Zm-.808.17-.225.052Zm-.806.187-.26.066Zm-.8.2c-.1.026-.2.055-.3.082C2313.062,289.851,2313.161,289.822,2313.262,289.8Zm-.8.221c-.113.032-.225.067-.338.1C2312.235,290.084,2312.347,290.049,2312.46,290.017Zm-.8.237c-.125.038-.249.079-.373.119C2311.412,290.333,2311.536,290.292,2311.661,290.254Zm-.8.254c-.136.045-.271.092-.407.138C2310.593,290.6,2310.728,290.552,2310.864,290.508Zm-.793.27c-.148.052-.3.107-.444.161C2309.775,290.884,2309.922,290.829,2310.071,290.777Zm-.79.286c-.159.059-.317.121-.476.183C2308.964,291.184,2309.122,291.122,2309.281,291.063Zm-.786.3c-.171.067-.341.137-.511.207C2308.154,291.5,2308.324,291.432,2308.5,291.364Zm-.782.317c-.182.076-.363.155-.545.233C2307.35,291.836,2307.532,291.757,2307.713,291.681Zm-.777.332c-.193.084-.384.172-.576.259C2306.553,292.185,2306.744,292.1,2306.937,292.014Zm30.407.308q.145.089.289.18Q2337.489,292.411,2337.344,292.322Zm-.294-.177q.141.083.28.168Q2337.191,292.229,2337.05,292.145Z" transform="translate(-2281.516 -287.079)" fill="#f7b865"/><path d="M2351.98,310.647c-17.76-28.9-69.13,5.42-54.955,33.74C2314.786,373.281,2366.157,338.967,2351.98,310.647Z" transform="translate(-2291.074 -296.313)" fill="url(#b)"/><path d="M2353.274,313.445c13.744,27.465-36.071,60.742-53.3,32.72C2286.237,318.7,2336.052,285.422,2353.274,313.445Z" transform="translate(-2293.29 -298.602)" fill="#ffd800"/><g transform="translate(20.025 12.931)"><path d="M2374.124,353.543c2.773,1.91,1.39,5.947-.052,8.959a9.98,9.98,0,0,1-6.861,6.154l-.055.133-1.167,2.841-2.57-.335.993-2.416c-.349-.012-3.27-.414-3.683-.462l-.985,2.4-2.571-.335.985-2.4-2.062-.268,12.507-30.445,2.062.269.986-2.4,2.571.335-.986,2.4c.707.105,3,.351,3.655.527l1.005-2.448,2.57.335-1.293,3.15c2.5,1.592,1.925,5.663.383,8.607A9.184,9.184,0,0,1,2374.124,353.543Zm-4.721,8.443c2.125-4.961,3.123-6.65-3.134-7.052l-.192.465-3.561,8.668c2.495.421,5.81,1.058,6.887-2.081m-.728-12.91-.62,1.509c2.7.53,5.549.668,6.672-2.568,2.13-4.532,1.519-5.318-3.277-5.7l-.191.465-2.584,6.289" transform="translate(-2356.096 -335.238)" fill="#fff"/></g><path d="M2342.344,290.341c-19.524-9.995-45.589,4.329-53.516,24.615,12.4-33.862,76.14-38.036,62.158,8.091C2356.954,309.555,2353.077,296.134,2342.344,290.341Z" transform="translate(-2286.865 -287.079)" fill="#fff" opacity="0.75" style="mix-blend-mode:screen;isolation:isolate"/><path d="M2363.485,340.463q0-.25,0-.5h0c-.011-.707-.047-1.414-.113-2.119h0c-.017-.183-.038-.366-.058-.548h0q-.092-.774-.23-1.54h0c-.125-.679-.276-1.353-.459-2.019v0c-.07-.249-.139-.5-.218-.744l0,0q-.3-.968-.687-1.908v0c-.177-.429-.369-.851-.57-1.269h0l-.015-.032,0,0c-.084-.169-.169-.338-.256-.506a22.11,22.11,0,0,0-1.147-1.94l.007.009c-.431-.686-3.73-5-4.276-5.748h0l-.008-.011c5.79,7.577,5.465,18.164,1.714,26.578l0-.007c-8.6,21.3-42.747,37.814-59.951,17.29l.006.009h0c2.141,2.725,4.31,6.212,7.049,8.375,19.321,14.358,47.784-.8,56.394-20.832l.007.009c.1-.238.2-.477.3-.718h0c.085-.207.165-.412.247-.619h0q.339-.872.635-1.757h0c.254-.771.486-1.561.682-2.332h0c.068-.281.138-.562.2-.844h0q.153-.692.28-1.383h0c.056-.319.11-.638.156-.956h0c.065-.463.123-.929.17-1.393h0l.011-.106h0c.021-.236.039-.471.057-.707h0c0-.017,0-.035,0-.053h0q.056-.845.063-1.692Z" transform="translate(-2293.002 -312.33)" fill="#ffd800"/></g></g></g></svg>