<svg xmlns="http://www.w3.org/2000/svg" xmlns:xlink="http://www.w3.org/1999/xlink" width="96.657" height="71.837" viewBox="0 0 96.657 71.837"><defs><linearGradient id="a" x1="0.5" x2="0.5" y2="1" gradientUnits="objectBoundingBox"><stop offset="0" stop-color="#f5f5f5"/><stop offset="0.25" stop-color="#f5f5f5"/><stop offset="1" stop-color="#a7b3cf"/></linearGradient></defs><g transform="translate(0 0)"><g transform="translate(0 0)"><g transform="translate(0 0)"><g transform="translate(14.562)" style="isolation:isolate"><path d="M1445.236,625.9a3.224,3.224,0,0,0-1.279-3.5c2.791,1.738,6.561,2.384,5.115,6.587l-4.045-2.236C1445.08,626.538,1445.2,626.109,1445.236,625.9Z" transform="translate(-1367.297 -616.444)" fill="#12263f"/><path d="M1207.245,607.533c.472-1.817,2.084-3.63,4.057-3.531l71.484,5.662c2.24.182,2.733,2.834,2.051,4.641l-77.731-6.242Z" transform="translate(-1207.106 -603.999)" fill="#ff5422"/></g><g transform="translate(0 4.065)" style="isolation:isolate"><path d="M1166.732,688.315c.548.215,4.2,2.283,4.644,2.281,1.309-.084,71.636,7.326,72.831,6.743a4.823,4.823,0,0,0,2.886-3.023c.171-.449,14.343-55.769,14.483-56.238l-4.045-2.236c-1.036,1.269-13.9,60.645-16.709,59.039a3.187,3.187,0,0,1-1.866.447C1238.041,695.11,1167.6,688.764,1166.732,688.315Z" transform="translate(-1165.238 -629.599)" fill="#12263f"/><path d="M1176.678,616.557l-14.4,54.814c-.5,1.669.129,3.909,2.067,4.1,1.3-.175,71.634,7.413,72.8,6.633,3.438,2.586,16.137-58.171,17.264-59.3Z" transform="translate(-1162.116 -616.557)" fill="url(#a)"/></g></g></g><g transform="translate(30.316 12.564)"><path d="M1269.853,683.282l-2.839-.429,1.526-7.312a3.639,3.639,0,0,1,.882-4.745l3.052.438a3.662,3.662,0,0,1-1.094,4.724l-1.527,7.325m8.168-18.044-12.155-1.693c1.356-5.362,1.665-16.6,9.575-16.025,7.946,1.591,3.331,12.623,2.58,17.718m-1.6-22.407c-10.989-.5-12.668,11.991-14.225,20.2l-3.124-.435c-.674,6.729-7,20.218-.067,25.418,1.771,1.825,9.721,2.152,12.061,2.746,11.823,1.127,11.727-16.908,13.915-24.556l-3.213-.447c1.688-7.7,5.651-20.56-5.346-22.928" transform="translate(-1255.782 -642.817)" fill="#12263f"/></g></g></svg>