<svg xmlns="http://www.w3.org/2000/svg" width="93" height="94" viewBox="0 0 93 94">
  <g id="Grupo_947616" data-name="Grupo 947616" transform="translate(0.275 -0.334)">
    <ellipse id="Elipse_4870" data-name="Elipse 4870" cx="46.5" cy="47" rx="46.5" ry="47" transform="translate(-0.275 0.334)" fill="#49acc5"/>
    <path id="Trazado_621105" data-name="Trazado 621105" d="M131.817,3328.1a5.82,5.82,0,0,0-.6-1.241l-2.547-5.113-3.809-7.737c-.744-1.519-1.477-3.044-2.239-4.555a1.327,1.327,0,0,1,.063-1.541,1.564,1.564,0,0,1,1.035-.3c2.278.006,4.556.011,6.834,0a1.232,1.232,0,0,1,1.214.608l3.331,6.765,2.876,5.753a6.911,6.911,0,0,0,.711,1.43c.478.993.94,1.994,1.437,2.978,1.509,2.988,2.868,6.051,4.483,8.986a2.817,2.817,0,0,0,.433.891c.787,1.611,1.506,3.26,2.376,4.825a3.544,3.544,0,0,0,5.834.564,3.33,3.33,0,0,0,.774-1.205q3.825-7.753,7.64-15.511,2.248-4.573,4.477-9.157c.939-1.869,1.95-3.707,2.787-5.621.42-.96.949-1.442,1.984-1.335,1.021.153,1.207.506.745,1.442q-3.941,7.987-7.885,15.972c-.121.245-.217.5-.325.756-.985,1.968-1.98,3.932-2.953,5.906q-2.556,5.189-5.089,10.388c-1.785,3.365-3.4,6.815-5.092,10.226a3.916,3.916,0,0,1-1.552,1.693,3.4,3.4,0,0,1-4.88-1.577c-.773-1.564-1.567-3.118-2.351-4.677q-2.554-5.188-5.109-10.378-1.947-3.95-3.9-7.9C132.294,3328.989,132.051,3328.549,131.817,3328.1Z" transform="translate(-100.924 -3283.688)" fill="#fdfdfe"/>
  </g>
</svg>
