<svg xmlns="http://www.w3.org/2000/svg" width="105" height="104.679" viewBox="0 0 105 104.679">
  <g id="Grupo_948039" data-name="Grupo 948039" transform="translate(-939 -1037.489)">
    <path id="Trazado_621622" data-name="Trazado 621622" d="M1044,1058.571v53.216c-.152.97-.263,1.948-.462,2.909-2.823,13.629-10.793,22.765-24.022,27.233a5.216,5.216,0,0,1-3.063.018c-11.2-3.614-18.778-11-22.732-22.058a1.2,1.2,0,0,0-1.37-.959q-15.172.044-30.345.018a9.163,9.163,0,0,1-9.469-9.493c0-1.249,0-2.5,0-3.81-1.528,0-2.924,0-4.319,0a9.086,9.086,0,0,1-6.816-3,10.846,10.846,0,0,1-2.4-4.776v-52.6a11.616,11.616,0,0,1,2.237-4.608,10.646,10.646,0,0,1,5.556-3.17h75.879a2.006,2.006,0,0,0,.368.169,9.148,9.148,0,0,1,7.424,9.332c0,1.248,0,2.5,0,3.805,1.565,0,3,0,4.426,0a8.992,8.992,0,0,1,6.132,2.418A10.432,10.432,0,0,1,1044,1058.571Zm-52.2,41.346a1.617,1.617,0,0,0,.1-.311c.007-2.387.121-4.781-.015-7.161-.14-2.449,1.436-3.808,3.78-3.843a31.908,31.908,0,0,0,19.943-7.136c1.738-1.39,2.935-1.4,4.685-.013a30.687,30.687,0,0,0,10.488,5.6c2.267.66,4.6,1.088,7.02,1.647v-13.7H994.575c0,1.077,0,2.093,0,3.11a3.061,3.061,0,0,1-3.34,3.377q-11.227.005-22.453,0a3.045,3.045,0,0,1-3.324-3.288c0-1.075,0-2.151,0-3.2h-6.77v1.156q0,16.423,0,32.847c0,2.641,1.165,3.808,3.8,3.809h29.439v-6.757c-1.3,0-2.427.017-3.553,0a3.065,3.065,0,0,1,.019-6.129C989.515,1099.9,990.64,1099.917,991.8,1099.917Zm6.263-5.093v1.128c0,4.059-.095,8.121.035,12.177a34.1,34.1,0,0,0,.827,7.282c2.517,9.881,8.665,16.629,18.2,20.278a2.1,2.1,0,0,0,1.356.077c10.572-3.946,16.976-11.467,18.913-22.556a63.437,63.437,0,0,0,.439-9.48c.064-2.963.014-5.928.014-8.891-.193-.064-.317-.118-.447-.146a4.071,4.071,0,0,0-.506-.078,37.845,37.845,0,0,1-18.142-6.614,1.173,1.173,0,0,0-1.6,0,37.074,37.074,0,0,1-14,5.982C1001.492,1094.315,999.806,1094.54,998.061,1094.825Zm26.252-44.03c0-1.2,0-2.28,0-3.364,0-2.637-1.166-3.8-3.805-3.8H948.954c-2.639,0-3.8,1.164-3.8,3.8q0,20.207,0,40.414c0,2.762-.009,5.525,0,8.287.007,1.614.79,2.927,2.211,3.15a48.512,48.512,0,0,0,5.17.291v-1.463q0-18.877,0-37.754a9.165,9.165,0,0,1,9.6-9.563q30.344,0,60.688,0Zm-58.857,17.972c0-1.192-.009-2.281,0-3.368a3.012,3.012,0,0,1,3.162-3.138q11.381-.012,22.763,0a3.024,3.024,0,0,1,3.19,3.215c.008,1.081,0,2.163,0,3.265h43.191a1.278,1.278,0,0,0,.07-.256q.01-3.786.013-7.572c0-2.863-1.1-3.979-3.936-3.979H962.649c-.239,0-.479-.005-.718,0a3.157,3.157,0,0,0-3.239,3.234c-.028,1.33-.006,2.661-.006,3.991,0,1.523,0,3.046,0,4.607Zm6.21-.322v6.845h16.681v-6.845Z" fill="#12263f"/>
    <path id="Trazado_621623" data-name="Trazado 621623" d="M1044.108,1199.589c-1.159,0-2.283-.015-3.407,0a3.065,3.065,0,0,0-.019,6.129c1.126.021,2.253,0,3.553,0v6.757h-.937q-14.251,0-28.5,0c-2.635,0-3.8-1.168-3.8-3.809q0-16.423,0-32.847v-1.156h6.77c0,1.054,0,2.129,0,3.2a3.045,3.045,0,0,0,3.324,3.288q11.227.005,22.453,0a3.061,3.061,0,0,0,3.34-3.377c0-1.017,0-2.034,0-3.11h43.222v13.7c-2.419-.559-4.754-.987-7.02-1.647a30.685,30.685,0,0,1-10.488-5.6c-1.749-1.387-2.947-1.377-4.684.013a31.908,31.908,0,0,1-19.943,7.136c-2.344.035-3.919,1.394-3.78,3.843.136,2.38.022,4.773.015,7.161A1.6,1.6,0,0,1,1044.108,1199.589Zm-19.867,6.137h3.482a3.066,3.066,0,0,0-.035-6.129q-3.379-.04-6.759,0a3.063,3.063,0,0,0,.034,6.124C1022.056,1205.745,1023.148,1205.726,1024.241,1205.726Z" transform="translate(-52.309 -99.671)" fill="#afafaf"/>
    <path id="Trazado_621624" data-name="Trazado 621624" d="M1154.908,1228.206c1.745-.285,3.431-.51,5.1-.84a37.074,37.074,0,0,0,14-5.982,1.173,1.173,0,0,1,1.6,0,37.845,37.845,0,0,0,18.142,6.614,4.049,4.049,0,0,1,.506.078c.13.029.255.082.448.146,0,2.962.051,5.928-.014,8.891a63.421,63.421,0,0,1-.439,9.48c-1.936,11.089-8.341,18.61-18.913,22.556a2.1,2.1,0,0,1-1.356-.077c-9.539-3.649-15.687-10.4-18.2-20.278a34.1,34.1,0,0,1-.827-7.282c-.13-4.055-.035-8.117-.035-12.177Zm19.925,17.222a1.761,1.761,0,0,1-.2-.123c-1.333-1.322-2.658-2.653-4-3.966a3.106,3.106,0,1,0-4.41,4.347q3.064,3.093,6.161,6.152a3.132,3.132,0,0,0,4.863-.022q6.139-6.1,12.252-12.23a3.112,3.112,0,1,0-4.411-4.351q-4.723,4.694-9.428,9.4C1175.4,1244.9,1175.125,1245.149,1174.832,1245.428Z" transform="translate(-156.846 -133.381)" fill="#ffd800"/>
    <path id="Trazado_621625" data-name="Trazado 621625" d="M1040.65,1067.107h-1.485q-30.344,0-60.688,0a9.165,9.165,0,0,0-9.6,9.563q0,18.877,0,37.754v1.463a48.544,48.544,0,0,1-5.17-.291c-1.421-.223-2.2-1.536-2.211-3.15-.013-2.762,0-5.525,0-8.287q0-20.207,0-40.414c0-2.64,1.164-3.8,3.8-3.8h71.555c2.639,0,3.8,1.164,3.805,3.8C1040.651,1064.827,1040.65,1065.911,1040.65,1067.107Z" transform="translate(-16.337 -16.313)" fill="#1565c0"/>
    <path id="Trazado_621626" data-name="Trazado 621626" d="M1017.745,1120.425h-6.77c0-1.561,0-3.084,0-4.607,0-1.331-.022-2.661.006-3.991a3.157,3.157,0,0,1,3.239-3.234c.239-.007.478,0,.718,0H1086.2c2.833,0,3.938,1.116,3.937,3.979q0,3.786-.013,7.572a1.281,1.281,0,0,1-.07.256h-43.191c0-1.1.006-2.183,0-3.265a3.024,3.024,0,0,0-3.19-3.215q-11.381-.011-22.763,0a3.011,3.011,0,0,0-3.162,3.138C1017.736,1118.144,1017.745,1119.232,1017.745,1120.425Z" transform="translate(-52.288 -51.658)" fill="#f6f6f6"/>
    <path id="Trazado_621627" data-name="Trazado 621627" d="M1058.465,1150.695h16.681v6.845h-16.681Z" transform="translate(-86.799 -82.251)" fill="#fff"/>
    <path id="Trazado_621628" data-name="Trazado 621628" d="M1042.776,1271.9c-1.092,0-2.185.019-3.277,0a3.063,3.063,0,0,1-.034-6.124q3.379-.046,6.759,0a3.005,3.005,0,0,1,2.994,3.095,3.035,3.035,0,0,1-2.959,3.034h-3.482Z" transform="translate(-70.845 -165.845)" fill="#12263f"/>
    <path id="Trazado_621629" data-name="Trazado 621629" d="M1202.133,1280.067c.292-.279.565-.529.827-.789q4.715-4.7,9.428-9.4a3.112,3.112,0,1,1,4.411,4.351q-6.113,6.128-12.252,12.23a3.131,3.131,0,0,1-4.863.022q-3.095-3.062-6.161-6.152a3.106,3.106,0,1,1,4.41-4.347c1.341,1.314,2.667,2.644,4,3.967A1.805,1.805,0,0,0,1202.133,1280.067Z" transform="translate(-184.147 -168.021)" fill="#12263f"/>
  </g>
</svg>
