<svg xmlns="http://www.w3.org/2000/svg" width="114.318" height="142.61" viewBox="0 0 114.318 142.61">
  <g id="Grupo_948038" data-name="Grupo 948038" transform="translate(-1267.996 -754.259)">
    <path id="Trazado_621605" data-name="Trazado 621605" d="M1278.016,896.869a14.5,14.5,0,0,1-6.609-3.592A12.516,12.516,0,0,1,1268,884.29q.013-18.31,0-36.62,0-40.449,0-80.9c0-6.505,4.145-11.48,10.288-12.392a15.145,15.145,0,0,1,2.222-.115q32.726-.009,65.454,0c6.065,0,10.494,3.32,12.045,9.131a15.72,15.72,0,0,1,.421,3.988q.042,22.557.018,45.114v1.868a9.085,9.085,0,0,1,6.3-.22,8.312,8.312,0,0,1,4.68,4.243c.31-.123.554-.209.788-.316,5.389-2.461,11.625.883,11.853,6.787.306,7.947.737,15.967-1.551,23.766-.559,1.906-1.19,3.8-1.9,5.65a17.064,17.064,0,0,0-1.033,9.26c.646,0,1.329-.052,2,.01,1.643.152,2.576.995,2.586,2.536q.061,9.4,0,18.8a2.408,2.408,0,0,1-2.59,2.507c-.644.028-1.29,0-2.111,0v9.48h-5.014v-9.383H1339.3v9.383Zm-5.19-118.7v1.586q0,52.077.013,104.156a11.678,11.678,0,0,0,.328,3.024c.9,3.329,3.676,5.182,7.639,5.184q26.183.009,52.365,0h1.332v-4.728c-.478,0-.884,0-1.291,0-2.651-.018-3.373-.744-3.376-3.4,0-1.983,0-3.966,0-6.094h-42.76v-4.821h42.76c0-2.328-.014-4.5,0-6.667a2.527,2.527,0,0,1,2.666-2.875c.636-.051,1.279-.008,1.9-.008.68-3.915-.232-5.89-3.466-7.75-2.249-1.294-4.559-2.5-6.713-3.938a14.326,14.326,0,0,1-2.968-21,14.642,14.642,0,0,1,8.58-5.111v-1.571c0-8.448-.038-16.9.037-25.342a10.778,10.778,0,0,1,.835-4.164,8.2,8.2,0,0,1,9.08-4.618,8.384,8.384,0,0,1,6.725,8.133c.075,3.712.017,7.426.024,11.139,0,.481.041.963.06,1.38a21.792,21.792,0,0,1,3.528-.563,19.691,19.691,0,0,1,3.354.562v-32.52Zm80.729,52.109c0-.643,0-1.144,0-1.645,0-3.434.016-6.868-.021-10.3a3.553,3.553,0,0,0-2.54-3.3,3.378,3.378,0,0,0-3.907,1.676,5.144,5.144,0,0,0-.529,2.239c-.052,3.744-.024,7.49-.024,11.294h-4.827v-1.7q0-14.479,0-28.958a13.427,13.427,0,0,0-.09-1.8,3.518,3.518,0,0,0-2.722-2.981,3.179,3.179,0,0,0-3.567,1.526,6.481,6.481,0,0,0-.693,2.9c-.044,12.947-.029,25.895-.029,38.843v1.669h-4.767v-9.014a16.2,16.2,0,0,0-1.8.683,9.625,9.625,0,0,0-.665,16.751c2.318,1.446,4.751,2.706,7.088,4.122a9.485,9.485,0,0,1,4.869,8.23c.03.959,0,1.92,0,2.914h33.255c0-1.621.058-3.147-.015-4.666a10.888,10.888,0,0,1,1.089-5.231,41.159,41.159,0,0,0,2.06-5.59c2.209-7.427,1.647-15.065,1.522-22.655a4.151,4.151,0,0,0-1.343-2.441,2.935,2.935,0,0,0-3.491-.459,3.582,3.582,0,0,0-2.133,3.329c-.047,1.509-.01,3.02-.01,4.5h-4.776c0-2.754.029-5.4-.009-8.038a3.551,3.551,0,0,0-3.58-3.639,3.438,3.438,0,0,0-3.441,3.582c-.037,1.438-.011,2.877-.012,4.316,0,1.275,0,2.55,0,3.853Zm-80.57-57.146h80.524c0-2.729.163-5.379-.039-8-.281-3.653-3.571-6.116-7.859-6.118q-29.945-.008-59.89,0c-1.811,0-3.622-.037-5.432.009-3.825.1-6.962,2.476-7.255,5.808C1272.795,767.533,1272.985,770.278,1272.985,773.129ZM1377.3,868.5h-42.577v14H1377.3Z" fill="#12263f"/>
    <path id="Trazado_621607" data-name="Trazado 621607" d="M1280.978,818.519h80.653v32.52a19.716,19.716,0,0,0-3.354-.562,21.8,21.8,0,0,0-3.528.563c-.019-.417-.059-.9-.06-1.38-.007-3.713.051-7.427-.024-11.139a8.385,8.385,0,0,0-6.725-8.133,8.2,8.2,0,0,0-9.08,4.618,10.779,10.779,0,0,0-.835,4.164c-.075,8.447-.037,16.895-.037,25.342v1.571a14.643,14.643,0,0,0-8.58,5.111,14.326,14.326,0,0,0,2.969,21c2.154,1.438,4.463,2.644,6.712,3.938,3.233,1.861,4.145,3.835,3.466,7.75-.616,0-1.26-.043-1.9.008a2.527,2.527,0,0,0-2.667,2.875c-.018,2.169,0,4.338,0,6.667h-42.76v4.821h42.76c0,2.127,0,4.111,0,6.094,0,2.653.724,3.379,3.376,3.4.406,0,.812,0,1.291,0v4.728h-1.332q-26.183,0-52.365,0c-3.962,0-6.736-1.855-7.639-5.184a11.694,11.694,0,0,1-.327-3.024q-.024-52.078-.013-104.156Zm23.675,7.058a10.784,10.784,0,0,1-.026,1.828,1.59,1.59,0,0,1-.611,1.057,6.615,6.615,0,0,0-4.036,6.292c.021,3.057,1.706,5.076,4.4,6.357,1.338.635,2.662,1.3,3.961,2.015a1.728,1.728,0,0,1,.889,2.354,2.986,2.986,0,0,1-1.865,1.319c-1.506.3-2.206-.377-2.744-2.205h-4.681c.044,2.438.823,4.514,2.837,5.669,1.489.854,2.142,1.809,1.938,3.442-.009.069.088.151.147.245h4.763a2.73,2.73,0,0,1,1.812-3.673,4.1,4.1,0,0,0,1.474-1.432c2.518-3.467,1.451-7.9-2.427-10.056-1.5-.831-3.065-1.533-4.577-2.337a1.893,1.893,0,0,1-1.025-2.342,1.962,1.962,0,0,1,1.995-1.409c1.7-.138,2.418.819,2.666,2.224h4.732c-.048-2.478-.9-4.567-2.969-5.728a2.978,2.978,0,0,1-1.811-3.339c.009-.069-.084-.151-.162-.28Zm14.321,47.506h-30.808v4.677h30.808Zm0,9.546h-30.8v4.625h30.8Zm-30.835,14.089h30.812v-4.566h-30.812Zm30.839-33.14h-19.086c0,1.216.077,2.328-.021,3.425-.1,1.154.373,1.391,1.432,1.382,5.478-.046,10.956-.019,16.434-.025.4,0,.8-.057,1.241-.091ZM1290.434,913.5h-4.7v4.679h4.7Zm.06-50.034v4.745c4.552.694,5,.335,4.79-3.71,0-.092.035-.219-.011-.271-.234-.265-.477-.714-.739-.729C1293.214,863.43,1291.885,863.471,1290.495,863.471Zm33.174,64.221v-4.627h-4.579v4.627Z" transform="translate(-8.152 -40.353)" fill="#e8e8e8"/>
    <path id="Trazado_621608" data-name="Trazado 621608" d="M1446.072,898.542h4.9c0-1.3,0-2.578,0-3.853,0-1.439-.025-2.878.012-4.316a3.438,3.438,0,0,1,3.441-3.582A3.55,3.55,0,0,1,1458,890.43c.038,2.642.009,5.285.009,8.038h4.776c0-1.475-.036-2.987.01-4.5a3.582,3.582,0,0,1,2.133-3.329,2.934,2.934,0,0,1,3.491.459,4.15,4.15,0,0,1,1.343,2.441c.125,7.59.688,15.228-1.522,22.655a41.158,41.158,0,0,1-2.06,5.59,10.887,10.887,0,0,0-1.089,5.231c.073,1.519.015,3.045.015,4.666h-33.255c0-.995.025-1.955,0-2.915a9.485,9.485,0,0,0-4.869-8.23c-2.337-1.416-4.77-2.676-7.088-4.122a9.625,9.625,0,0,1,.665-16.751,16.183,16.183,0,0,1,1.8-.683V908h4.767v-1.669c0-12.948-.015-25.9.029-38.842a6.481,6.481,0,0,1,.693-2.9,3.179,3.179,0,0,1,3.567-1.526,3.519,3.519,0,0,1,2.722,2.981,13.448,13.448,0,0,1,.09,1.8q.008,14.479,0,28.958v1.7h4.827c0-3.8-.028-7.55.024-11.294a5.144,5.144,0,0,1,.529-2.239,3.378,3.378,0,0,1,3.907-1.676,3.553,3.553,0,0,1,2.539,3.3c.036,3.434.017,6.868.021,10.3C1446.072,897.4,1446.072,897.9,1446.072,898.542Z" transform="translate(-92.517 -68.266)" fill="#f6f6f6"/>
    <path id="Trazado_621609" data-name="Trazado 621609" d="M1281.284,781.122c0-2.851-.19-5.6.048-8.3.293-3.332,3.43-5.709,7.255-5.808,1.81-.047,3.621-.009,5.432-.009q29.945,0,59.89,0c4.288,0,7.578,2.465,7.859,6.118.2,2.622.04,5.272.04,8Zm37.777-4.693v-4.591h-4.637v4.591Zm9.533-4.62h-4.623v4.622h4.623Z" transform="translate(-8.299 -7.993)" fill="#ff5422"/>
    <path id="Trazado_621610" data-name="Trazado 621610" d="M1489.931,1061.31v14h-42.577v-14Zm-9.406,9.313h4.72v-4.629h-4.72Z" transform="translate(-112.629 -192.815)" fill="#ffd800"/>
    <path id="Trazado_621611" data-name="Trazado 621611" d="M1336.66,837.491h4.679c.078.129.171.211.162.28a2.978,2.978,0,0,0,1.812,3.34c2.065,1.16,2.921,3.25,2.969,5.728h-4.733c-.248-1.4-.968-2.362-2.666-2.224a1.962,1.962,0,0,0-2,1.409,1.893,1.893,0,0,0,1.025,2.342c1.512.8,3.081,1.506,4.577,2.337,3.878,2.154,4.945,6.59,2.427,10.056a4.105,4.105,0,0,1-1.474,1.432,2.73,2.73,0,0,0-1.812,3.673h-4.763c-.059-.094-.156-.176-.147-.245.2-1.633-.45-2.588-1.938-3.442-2.014-1.155-2.793-3.232-2.837-5.669h4.682c.538,1.827,1.238,2.5,2.743,2.2a2.985,2.985,0,0,0,1.865-1.319,1.728,1.728,0,0,0-.888-2.354c-1.3-.712-2.623-1.38-3.961-2.015-2.7-1.281-4.381-3.3-4.4-6.357a6.615,6.615,0,0,1,4.036-6.292,1.59,1.59,0,0,0,.611-1.057A10.771,10.771,0,0,0,1336.66,837.491Z" transform="translate(-40.159 -52.266)"/>
    <path id="Trazado_621612" data-name="Trazado 621612" d="M1331.108,965.182v4.677H1300.3v-4.677Z" transform="translate(-20.286 -132.451)"/>
    <path id="Trazado_621613" data-name="Trazado 621613" d="M1331.127,990.841v4.625h-30.8v-4.625Z" transform="translate(-20.304 -148.563)"/>
    <path id="Trazado_621614" data-name="Trazado 621614" d="M1300.231,1021v-4.566h30.812V1021Z" transform="translate(-20.242 -164.638)"/>
    <path id="Trazado_621615" data-name="Trazado 621615" d="M1350.849,939.636v4.691c-.439.034-.84.09-1.241.091-5.478.006-10.956-.02-16.434.025-1.059.009-1.535-.229-1.432-1.382.1-1.1.021-2.209.021-3.425Z" transform="translate(-40.021 -116.409)"/>
    <path id="Trazado_621616" data-name="Trazado 621616" d="M1298.466,1073.826v4.679h-4.7v-4.679Z" transform="translate(-16.183 -200.674)"/>
    <path id="Trazado_621617" data-name="Trazado 621617" d="M1306.558,939.325c1.391,0,2.719-.04,4.04.035.261.015.505.464.739.729.047.053.006.179.011.271.214,4.045-.238,4.4-4.79,3.71Z" transform="translate(-24.215 -116.207)"/>
    <path id="Trazado_621618" data-name="Trazado 621618" d="M1388,1104.15h-4.579v-4.627H1388Z" transform="translate(-72.481 -216.811)"/>
    <path id="Trazado_621619" data-name="Trazado 621619" d="M1375.115,784.617h-4.637v-4.591h4.637Z" transform="translate(-64.354 -16.181)"/>
    <path id="Trazado_621620" data-name="Trazado 621620" d="M1400.763,779.947v4.621h-4.623v-4.621Z" transform="translate(-80.469 -16.131)"/>
    <path id="Trazado_621621" data-name="Trazado 621621" d="M1536.514,1078.528V1073.9h4.72v4.629Z" transform="translate(-168.618 -200.72)"/>
  </g>
</svg>
