<svg xmlns="http://www.w3.org/2000/svg" width="93" height="94" viewBox="0 0 93 94">
  <g id="Grupo_947612" data-name="Grupo 947612" transform="translate(0.275 -0.334)">
    <ellipse id="Elipse_4870" data-name="Elipse 4870" cx="46.5" cy="47" rx="46.5" ry="47" transform="translate(-0.275 0.334)" fill="#49acc5"/>
    <g id="Grupo_947619" data-name="Grupo 947619" transform="translate(-95.069 622.594)">
      <path id="Trazado_621071" data-name="Trazado 621071" d="M160.969-574.675c-1.223.726-2.4,1.424-3.569,2.118q-7.8,4.609-15.587,9.224a.847.847,0,0,1-1.01.016q-9.358-5.558-18.735-11.084c-.128-.076-.252-.158-.447-.281l19.672-32.641Z" fill="#fff"/>
      <path id="Trazado_621072" data-name="Trazado 621072" d="M162.044-282.527,142.53-255.045l-19.515-27.5.064-.073q1.417.835,2.835,1.67,8.06,4.761,16.114,9.532a.839.839,0,0,0,1,0q9.284-5.508,18.588-10.983c.123-.073.248-.143.373-.215Z" transform="translate(-1.238 -288.152)" fill="#fff"/>
    </g>
  </g>
</svg>
