<svg xmlns="http://www.w3.org/2000/svg" width="93" height="94" viewBox="0 0 93 94">
  <g id="Grupo_947613" data-name="Grupo 947613" transform="translate(0.275 -0.334)">
    <ellipse id="Elipse_4870" data-name="Elipse 4870" cx="46.5" cy="47" rx="46.5" ry="47" transform="translate(-0.275 0.334)" fill="#49acc5"/>
    <path id="Trazado_621074" data-name="Trazado 621074" d="M87.712,1426.271c-3.551,0-7.1-.012-10.654.014-.5,0-.576-.149-.575-.6q.021-10.023.01-20.046c0-.61,0-.611-.591-.611-1.106,0-2.212-.015-3.317.008-.386.008-.537-.058-.53-.5.029-1.962.021-3.925,0-5.887,0-.356.079-.482.457-.474,1.105.025,2.211.009,3.317.009.66,0,.661,0,.661-.642q0-9.229,0-18.457c0-.674,0-.674.664-.674,6.5,0,12.99-.024,19.485.013a19.754,19.754,0,0,1,11.967,3.714,18.863,18.863,0,0,1,6.465,8.956,32.961,32.961,0,0,1,1.815,13.093,29.766,29.766,0,0,1-2.2,10.358A18.044,18.044,0,0,1,99.94,1426a26.4,26.4,0,0,1-4,.269Q91.824,1426.266,87.712,1426.271Zm-2.937-14.031c0,2.228.009,4.455-.008,6.682,0,.386.06.533.5.528,2.492-.024,4.984-.007,7.477-.013a25.686,25.686,0,0,0,5.249-.463c5.35-1.126,8.812-4.247,9.97-9.665a33.352,33.352,0,0,0-.009-14,11.534,11.534,0,0,0-7-8.687,18.945,18.945,0,0,0-7.3-1.353c-2.8-.047-5.607-.009-8.411-.031-.4,0-.479.126-.478.5q.02,5.958,0,11.916c0,.417.093.548.531.546,3.972-.018,7.944-.006,11.916-.017.354,0,.477.081.474.461q-.03,2.944,0,5.888c.005.419-.113.513-.519.512-3.972-.016-7.944,0-11.916-.018-.39,0-.491.1-.488.491C84.785,1407.754,84.775,1410,84.775,1412.24Z" transform="translate(-48.269 -1355.01)" fill="#fefefd"/>
  </g>
</svg>
