<svg id="Grupo_947741" data-name="Grupo 947741" xmlns="http://www.w3.org/2000/svg" width="69.826" height="70.577" viewBox="0 0 69.826 70.577">
  <ellipse id="Elipse_4870" data-name="Elipse 4870" cx="34.913" cy="35.288" rx="34.913" ry="35.288" transform="translate(0 0)" fill="#49acc5"/>
  <g id="PuhTzC.tif" transform="translate(-804.112 155.069)">
    <g id="Grupo_947747" data-name="Grupo 947747" transform="translate(817.763 -143.858)">
      <path id="Trazado_621352" data-name="Trazado 621352" d="M863.716-132v13.989a2.165,2.165,0,0,0-.089.3,13.2,13.2,0,0,1-8.164,10.8c-1.307.579-2.67,1.03-4.017,1.517a1.085,1.085,0,0,1-.653,0c-.626-.2-1.238-.444-1.913-.692v8.144H817.795c-.01-.083-.02-.129-.02-.174,0-4.416-.034-8.832.013-13.247a7.27,7.27,0,0,1,6.108-7.011c1.58-.265,3.153-.566,4.73-.847a.474.474,0,0,0,.465-.459c.081-.594.22-1.18.353-1.765a.458.458,0,0,0-.257-.586,7.875,7.875,0,0,1-3.267-3.673.537.537,0,0,0-.585-.372,2.948,2.948,0,0,1-2.695-4.46.527.527,0,0,0,.067-.374,8.771,8.771,0,0,1-.49-3.64,1.127,1.127,0,0,0-.3-.828,5.138,5.138,0,0,1,1.3-7.7,12.55,12.55,0,0,1,1.955-.773h2.872c.618.324,1.234.651,1.857.967a.459.459,0,0,0,.3.027c1.165-.326,2.328-.661,3.491-.994h2.5a1.762,1.762,0,0,0,.3.093,9.363,9.363,0,0,1,7.81,11c-.033.155-.052.312-.083.5a16.789,16.789,0,0,0,6.49-2.606.615.615,0,0,1,.813.009,15.477,15.477,0,0,0,7.2,2.682C860.38-132.023,862.052-132.053,863.716-132Zm-34.369,19.725-2.218-5.16c-1.022.183-2.005.361-2.989.534a5.68,5.68,0,0,0-4.808,5.241c-.115,2.062-.041,4.135-.049,6.2,0,.04.037.079.049.1h4.377v-2.9H825.2v8.825h16.3v-8.824h1.475v2.9H847.4c0-2.083.1-4.14-.025-6.184a5.381,5.381,0,0,0-3.7-5.019,31.051,31.051,0,0,0-4.082-.925l-2.235,5.2-4-3.2Zm22.532-17.034v19.192c.421-.155.8-.308,1.194-.438a9.274,9.274,0,0,0,6.2-8.955c-.021-2.514,0-5.029,0-7.544v-.53A21.854,21.854,0,0,1,851.878-129.308Zm-10.319-2.725.964.175a7.866,7.866,0,0,0-.787-6.9c-2.344-3.607-6.77-4.535-10.837-2.714.016.085.026.176.049.263a3.7,3.7,0,0,1-2.942,4.721,2.267,2.267,0,0,1-2.727-2.871,2.327,2.327,0,0,1,2.828-1.479v1.428c-.247,0-.462-.012-.676,0a.767.767,0,0,0-.768.765.779.779,0,0,0,.866.71A2.265,2.265,0,0,0,829.615-140a2.144,2.144,0,0,0-1.693-2.28,9.7,9.7,0,0,0-2.211-.079,3.672,3.672,0,0,0-3.419,4.37,3.7,3.7,0,0,0,3.689,3.02c1.575.017,3.15,0,4.725,0,1.451,0,2.9,0,4.354,0a1.876,1.876,0,0,0,1.968-1.541,1.865,1.865,0,0,0-1.32-2.074c-.113-.042-.223-.091-.365-.149l.452-1.344a3.217,3.217,0,0,1,2.716,3.057.914.914,0,0,0,.565.915,4.357,4.357,0,0,1,2.251,2.748A13.158,13.158,0,0,1,841.559-132.032Zm-14.848-1.451c0,1.671,0,3.273,0,4.875a4.394,4.394,0,0,0,.081.734,6.71,6.71,0,0,0,7.474,5.444,6.67,6.67,0,0,0,5.622-5.484,40.14,40.14,0,0,0,.112-4.111A3.085,3.085,0,0,0,838-134.982a3.668,3.668,0,0,1-3.387,1.512c-2.221-.051-4.444-.014-6.667-.014Zm23.654,4.146a19.083,19.083,0,0,1-5.518,1.533,1.235,1.235,0,0,0-1.066.643,1.213,1.213,0,0,1-.46.447.733.733,0,0,0-.365.765c.012,1.9,0,3.8.007,5.7,0,.509.016,1.019.02,1.528a.445.445,0,0,0,.414.493,6.715,6.715,0,0,1,2.9,1.477,7.222,7.222,0,0,1,2.6,5.605c0,.182.031.47.14.524a12.657,12.657,0,0,0,1.329.5Zm-1.474,20.284c0,.393.021.7-.006,1.009-.026.289.1.407.357.492.51.171,1,.394,1.519.549a1.2,1.2,0,0,0,.7.006c1.017-.354,2.026-.735,3.03-1.126a11.915,11.915,0,0,0,7.746-11.323q.005-5.28,0-10.56v-.513c-.311,0-.557-.005-.8,0a18.165,18.165,0,0,1-10.046-2.66.514.514,0,0,0-.623.054,18.193,18.193,0,0,1-5.158,2.1c-.529.126-1.064.225-1.57.331l.48,1.41c.117-.009.255-.01.39-.031a17.138,17.138,0,0,0,5.574-1.734,1.157,1.157,0,0,1,1.259-.006,16.115,16.115,0,0,0,5.614,1.749c1.112.146,2.231.23,3.4.348,0,.15,0,.316,0,.481q0,4.632,0,9.263a10.672,10.672,0,0,1-6.819,9.935c-.833.322-1.667.64-2.51.932a1.022,1.022,0,0,1-.611,0C850.183-108.557,849.571-108.8,848.891-109.054Zm-29.6,9.636h4.373V-103.8h-4.373Zm23.722-4.407v4.406h4.361v-4.406Zm-12.086-17.414c-.133.668-.276,1.313-.379,1.963a.486.486,0,0,0,.192.39c.782.492,1.576.965,2.376,1.426a.493.493,0,0,0,.411.028c.892-.514,1.772-1.05,2.669-1.589l-.45-2.208A8.455,8.455,0,0,1,830.929-121.238Zm10.536-4.793c-.393-.125-.563.027-.7.351-.165.4-.41.757-.61,1.139a1,1,0,0,0-.153.418q-.015,2.476,0,4.953c0,.108.093.292.174.311.413.1.837.157,1.284.234Zm-12.8,8.364,1.283,3,2.088-1.678c-.705-.425-1.352-.781-1.961-1.194A1.309,1.309,0,0,0,828.665-117.668Zm8.09,3,1.32-3.078c-.372-.017-.747-.149-.992-.024-.814.416-1.581.925-2.416,1.428Zm4.72-12.915a1.437,1.437,0,0,0,1.495-1.306,1.461,1.461,0,0,0-1.495-1.59Zm-16.267.008V-130.5a1.5,1.5,0,0,0-1.482,1.536A1.445,1.445,0,0,0,825.209-127.579Zm13.3,4.906c-.388.253-.707.487-1.052.675a.41.41,0,0,0-.228.523c.115.524.219,1.05.33,1.575.144.683.21.729.95.664Zm-13.356-9.37V-133.5l-1.522-.448.322,2.161Z" transform="translate(-817.763 143.858)" fill="#262f43"/>
      <path id="Trazado_621353" data-name="Trazado 621353" d="M937.523-11.166a2.323,2.323,0,0,1-2.149,1.7,2.362,2.362,0,0,1-2.4-1.7l-1.353.452a3.771,3.771,0,0,0,3.989,2.735,3.676,3.676,0,0,0,3.261-2.751Zm-3.043-2.745a2.159,2.159,0,0,0-2.25-2.206A2.165,2.165,0,0,0,930.1-13.9c.411,0,.825.008,1.239-.007a.309.309,0,0,0,.238-.148.724.724,0,0,1,.745-.572c.428.015.637.318.732.714Zm5.934,0a2.181,2.181,0,0,0-2.411-2.2,2.139,2.139,0,0,0-1.961,2.191h1.433a.748.748,0,0,1,.746-.7c.449,0,.663.319.761.71Z" transform="translate(-919.666 27.977)" fill="#262f43"/>
      <path id="Trazado_621354" data-name="Trazado 621354" d="M952.4,37.234l1.343.442a3.676,3.676,0,0,1-3.261,2.751,3.771,3.771,0,0,1-3.988-2.735l1.353-.452a2.363,2.363,0,0,0,2.4,1.7A2.323,2.323,0,0,0,952.4,37.234Z" transform="translate(-934.547 -20.423)" fill="#262f43"/>
      <path id="Trazado_621355" data-name="Trazado 621355" d="M934.48-13.889h-1.429c-.095-.4-.3-.7-.732-.714a.724.724,0,0,0-.745.572.309.309,0,0,1-.238.148c-.413.015-.828.007-1.239.007a2.165,2.165,0,0,1,2.133-2.219A2.159,2.159,0,0,1,934.48-13.889Z" transform="translate(-919.666 27.956)" fill="#262f43"/>
      <path id="Trazado_621356" data-name="Trazado 621356" d="M998.376-13.915h-1.432c-.1-.391-.312-.712-.761-.71a.748.748,0,0,0-.746.7H994a2.139,2.139,0,0,1,1.961-2.191A2.181,2.181,0,0,1,998.376-13.915Z" transform="translate(-977.629 27.977)" fill="#262f43"/>
    </g>
  </g>
</svg>
