<svg xmlns="http://www.w3.org/2000/svg" xmlns:xlink="http://www.w3.org/1999/xlink" width="374.864" height="370.113" viewBox="0 0 374.864 370.113">
  <defs>
    <clipPath id="clip-path">
      <rect id="Rectángulo_58051" data-name="Rectángulo 58051" width="374.864" height="370.114" fill="none"/>
    </clipPath>
    <clipPath id="clip-path-4">
      <rect id="Rectángulo_58022" data-name="Rectángulo 58022" width="31.242" height="14.71" fill="none"/>
    </clipPath>
    <clipPath id="clip-path-5">
      <rect id="Rectángulo_58023" data-name="Rectángulo 58023" width="4.92" height="4.92" fill="none"/>
    </clipPath>
    <linearGradient id="linear-gradient" x1="0.5" x2="0.5" y2="1" gradientUnits="objectBoundingBox">
      <stop offset="0" stop-color="#4adbd1"/>
      <stop offset="1" stop-color="#5573c6"/>
    </linearGradient>
    <clipPath id="clip-path-6">
      <rect id="Rectángulo_58035" data-name="Rectángulo 58035" width="4.451" height="4.451" fill="none"/>
    </clipPath>
    <clipPath id="clip-path-9">
      <rect id="Rectángulo_58047" data-name="Rectángulo 58047" width="15.811" height="3.479" fill="none"/>
    </clipPath>
    <clipPath id="clip-path-10">
      <rect id="Rectángulo_58048" data-name="Rectángulo 58048" width="16.577" height="3.919" fill="none"/>
    </clipPath>
    <clipPath id="clip-path-11">
      <rect id="Rectángulo_58049" data-name="Rectángulo 58049" width="28.995" height="15.019" fill="none"/>
    </clipPath>
    <linearGradient id="linear-gradient-2" x1="0.5" x2="0.5" y2="1" gradientUnits="objectBoundingBox">
      <stop offset="0" stop-color="#49acc5"/>
      <stop offset="1" stop-color="#5573c6"/>
    </linearGradient>
    <linearGradient id="linear-gradient-3" x1="0.5" x2="0.5" y2="1" gradientUnits="objectBoundingBox">
      <stop offset="0" stop-color="#5573c6"/>
      <stop offset="1" stop-color="#2c4a9b"/>
    </linearGradient>
    <linearGradient id="linear-gradient-4" x1="0.5" x2="0.5" y2="1" gradientUnits="objectBoundingBox">
      <stop offset="0" stop-color="#f5f5f5"/>
      <stop offset="0.25" stop-color="#f5f5f5"/>
      <stop offset="1" stop-color="#a7b3cf"/>
    </linearGradient>
    <clipPath id="clip-path-12">
      <path id="Trazado_232066" data-name="Trazado 232066" d="M1431.328,842.6l-11.082-46.728-23.249.812,11.082,46.728Z" transform="translate(-1396.997 -795.875)" fill="none"/>
    </clipPath>
  </defs>
  <g id="Grupo_948143" data-name="Grupo 948143" transform="translate(-251.136 10099)">
    <g id="Grupo_948142" data-name="Grupo 948142">
      <g id="Grupo_948004" data-name="Grupo 948004" transform="translate(251.136 -10099)">
        <g id="Grupo_180166" data-name="Grupo 180166" clip-path="url(#clip-path)">
          <g id="Grupo_180096" data-name="Grupo 180096">
            <g id="Grupo_180095" data-name="Grupo 180095" clip-path="url(#clip-path)">
              <path id="Trazado_231172" data-name="Trazado 231172" d="M40.43,97.683l-3.749.006a2.885,2.885,0,0,0-1.129.122,1.767,1.767,0,0,0-.893.792,1.876,1.876,0,0,0-.21.6,3.8,3.8,0,0,0-.028.662c0,.226,0,.456,0,.689a3.207,3.207,0,0,1-.045.712,1.884,1.884,0,0,1-.836,1.2,1.749,1.749,0,0,1-.735.259c-.268.024-.527.007-.8.013h-3.36l-7.621,0H18.412a2.091,2.091,0,0,1-.543-.053,1.8,1.8,0,0,1-.934-.576,1.914,1.914,0,0,1-.456-1.015,4.253,4.253,0,0,1-.02-.562v-.56a2.988,2.988,0,0,0-.112-1.1,1.8,1.8,0,0,0-.67-.874,1.747,1.747,0,0,0-1.079-.3H5.949a5.964,5.964,0,0,0-2.522.477,5.9,5.9,0,0,0-2.1,1.566,5.766,5.766,0,0,0-1.188,2.39c-.058.219-.075.448-.115.672-.01.191-.02.381-.027.573V140.82c0,.5,0,.989,0,1.492,0,1.512,0,3.054,0,4.59v48.651a5.994,5.994,0,0,0,.231,1.815,5.73,5.73,0,0,0,2.227,3.065,5.957,5.957,0,0,0,3.671,1.006l3.9,0,7.725,0,15.105.01,7.359,0c1.214-.006,2.43.019,3.623-.015a5.705,5.705,0,0,0,3.249-1.255,6.109,6.109,0,0,0,1.172-1.3,5.677,5.677,0,0,0,.719-1.579A5.988,5.988,0,0,0,49.2,195.6q0-.875,0-1.746,0-3.482,0-6.884c.01-18.134.019-34.466.027-48.183s.025-24.815.032-32.488q0-1.439,0-2.715a5.921,5.921,0,0,0-.421-2.32,5.737,5.737,0,0,0-1.086-1.709A5.777,5.777,0,0,0,44.3,97.736a4.5,4.5,0,0,0-.583-.053c-.131-.008-.2-.015-.2-.015s-.266.006-.785.008l-2.305.007" transform="translate(0 -7.243)" fill="#fafafa"/>
              <path id="Trazado_231173" data-name="Trazado 231173" d="M392.107,97.683l-3.749.006a2.886,2.886,0,0,0-1.129.122,1.767,1.767,0,0,0-.892.792,1.876,1.876,0,0,0-.21.6,3.9,3.9,0,0,0-.028.662c0,.226,0,.456,0,.689a3.2,3.2,0,0,1-.045.712,1.884,1.884,0,0,1-.836,1.2,1.75,1.75,0,0,1-.735.259c-.268.024-.527.007-.8.013h-3.36l-7.621,0h-2.618a2.092,2.092,0,0,1-.543-.053,1.8,1.8,0,0,1-.934-.576,1.913,1.913,0,0,1-.456-1.015,4.248,4.248,0,0,1-.02-.562v-.56a2.988,2.988,0,0,0-.112-1.1,1.8,1.8,0,0,0-.67-.874,1.747,1.747,0,0,0-1.079-.3h-8.648a5.964,5.964,0,0,0-2.522.477,5.9,5.9,0,0,0-2.1,1.566,5.767,5.767,0,0,0-1.188,2.39c-.058.219-.075.448-.115.672-.01.191-.02.381-.027.573V140.82c0,.5,0,.989,0,1.492,0,1.512,0,3.054,0,4.59v48.651a5.963,5.963,0,0,0,.232,1.815,5.734,5.734,0,0,0,2.227,3.065,5.957,5.957,0,0,0,3.671,1.006l3.9,0,7.725,0,15.105.01,7.36,0c1.213-.006,2.429.019,3.622-.015a5.705,5.705,0,0,0,3.249-1.255,6.111,6.111,0,0,0,1.172-1.3,5.679,5.679,0,0,0,.719-1.579,5.989,5.989,0,0,0,.217-1.716v-1.746q0-3.482,0-6.884c.01-18.134.019-34.466.027-48.183s.025-24.815.032-32.488q0-1.439,0-2.715a5.92,5.92,0,0,0-.421-2.32,5.738,5.738,0,0,0-1.086-1.709,5.777,5.777,0,0,0-3.459-1.822,4.493,4.493,0,0,0-.583-.053c-.131-.008-.2-.015-.2-.015s-.266.006-.785.008l-2.305.007" transform="translate(-26.081 -7.243)" fill="#fafafa"/>
            </g>
          </g>
          <g id="Grupo_180152" data-name="Grupo 180152">
            <g id="Grupo_180151" data-name="Grupo 180151" clip-path="url(#clip-path)">
              <path id="Trazado_231174" data-name="Trazado 231174" d="M93.424,55.669l-5.98.009a4.582,4.582,0,0,0-1.8.194,2.816,2.816,0,0,0-1.424,1.262,3.038,3.038,0,0,0-.335.956,6.2,6.2,0,0,0-.044,1.055c0,.361,0,.728,0,1.1a5.146,5.146,0,0,1-.072,1.136,3.013,3.013,0,0,1-1.334,1.92,2.815,2.815,0,0,1-1.173.414c-.427.038-.84.011-1.267.019l-5.36,0-12.155,0H58.3a3.3,3.3,0,0,1-.868-.084,2.884,2.884,0,0,1-1.49-.918,3.057,3.057,0,0,1-.727-1.618,6.639,6.639,0,0,1-.031-.9V59.33a4.78,4.78,0,0,0-.181-1.759,2.874,2.874,0,0,0-1.067-1.394,2.788,2.788,0,0,0-1.721-.474h-13.8a9.509,9.509,0,0,0-4.023.761,9.4,9.4,0,0,0-3.347,2.5,9.179,9.179,0,0,0-1.894,3.812c-.094.35-.12.714-.184,1.071-.016.3-.032.608-.042.915V211.786a9.549,9.549,0,0,0,.368,2.893,9.142,9.142,0,0,0,3.552,4.889,9.5,9.5,0,0,0,5.856,1.605l6.223,0,12.324.008,24.094.016,11.741.008c1.935-.011,3.876.031,5.778-.024a9.1,9.1,0,0,0,5.182-2,9.721,9.721,0,0,0,1.87-2.066,9.046,9.046,0,0,0,1.147-2.519,9.567,9.567,0,0,0,.344-2.736q0-1.4,0-2.785,0-5.555,0-10.98c.017-28.927.031-54.979.044-76.859s.04-39.583.052-51.823q0-2.294.006-4.329a9.419,9.419,0,0,0-.672-3.7,9.112,9.112,0,0,0-1.732-2.727A9.21,9.21,0,0,0,99.6,55.753a7.623,7.623,0,0,0-.931-.085c-.209-.012-.315-.022-.315-.022s-.425.008-1.254.012l-3.677.011" transform="translate(-2.146 -4.127)" fill="#fafafa"/>
              <path id="Trazado_231175" data-name="Trazado 231175" d="M98.462,55.774s.106,0,.315.009a6.93,6.93,0,0,1,.93.072,8.64,8.64,0,0,1,3.446,1.19,8.816,8.816,0,0,1,2.1,1.7A9.2,9.2,0,0,1,107,61.485a9.511,9.511,0,0,1,.687,3.729q0,2.033.006,4.329c.007,12.24.018,29.945.031,51.823s.007,47.932.012,76.859q0,5.424,0,10.98v2.786a9.823,9.823,0,0,1-.353,2.8,9.245,9.245,0,0,1-1.173,2.588A9.933,9.933,0,0,1,104.3,219.5a9.3,9.3,0,0,1-5.3,2.059c-1.927.056-3.839.014-5.773.026l-11.7-.006-24.007-.012-12.278-.006-6.2,0a9.712,9.712,0,0,1-5.983-1.652,9.414,9.414,0,0,1-3.641-5.029,10.144,10.144,0,0,1-.383-3.108q0-1.55,0-3.1,0-6.184,0-12.282,0-12.2.006-24.014c.006-15.743.011-30.929.017-45.395s.015-28.212.019-41.077q.007-9.649.012-18.616,0-1.119,0-2.228c.006-.37.031-.744.052-1.115.065-.365.094-.737.189-1.094a9.391,9.391,0,0,1,1.931-3.892,9.32,9.32,0,0,1,7.489-3.318l8.007.009,3.852,0,1.887,0a2.944,2.944,0,0,1,1.808.506,3.042,3.042,0,0,1,1.123,1.476,4.92,4.92,0,0,1,.187,1.814q0,.449,0,.894a6.663,6.663,0,0,0,.029.876,2.9,2.9,0,0,0,.685,1.537,2.708,2.708,0,0,0,1.4.871,3.128,3.128,0,0,0,.828.082H59.4l3.315,0,12.112.018,5.339.008c.421-.007.851.019,1.251-.016a2.693,2.693,0,0,0,1.125-.4,2.909,2.909,0,0,0,1.287-1.85,5.117,5.117,0,0,0,.072-1.116q0-.557,0-1.1a6.264,6.264,0,0,1,.048-1.071,3.093,3.093,0,0,1,.346-.983,2.892,2.892,0,0,1,1.467-1.3,4.605,4.605,0,0,1,1.824-.2l5.958.017,3.664.015c.825,0,1.248.014,1.248.014s-.423.008-1.248.013l-3.664.01-5.958.009A4.548,4.548,0,0,0,85.8,56a2.815,2.815,0,0,0-1.419,1.263,3.022,3.022,0,0,0-.333.955A6.1,6.1,0,0,0,84,59.274q0,.542,0,1.1a5.214,5.214,0,0,1-.071,1.137A3.017,3.017,0,0,1,82.6,63.43a2.8,2.8,0,0,1-1.169.414c-.425.038-.836.011-1.263.019l-5.339,0-12.112,0H58.558a3.28,3.28,0,0,1-.865-.084,2.862,2.862,0,0,1-1.484-.918,3.061,3.061,0,0,1-.724-1.618,6.639,6.639,0,0,1-.031-.9v-.894a4.8,4.8,0,0,0-.18-1.759A2.874,2.874,0,0,0,54.209,56.3,2.772,2.772,0,0,0,52.5,55.83H38.749a9.136,9.136,0,0,0-7.342,3.259A9.194,9.194,0,0,0,29.521,62.9c-.094.35-.12.714-.184,1.071-.019.364-.044.726-.05,1.094q0,1.108,0,2.228,0,8.957,0,18.616c0,12.865,0,26.611,0,41.077s0,29.652,0,45.395q0,11.807,0,24.014,0,6.1,0,12.282,0,1.546,0,3.1a9.851,9.851,0,0,0,.373,3.035A9.149,9.149,0,0,0,33.2,219.7a9.435,9.435,0,0,0,5.836,1.605l6.2,0,12.278.007,24.006.016,11.7.008c1.928-.011,3.862.031,5.757-.024a9.045,9.045,0,0,0,5.163-2A9.71,9.71,0,0,0,106,217.246a9.035,9.035,0,0,0,1.143-2.519,9.6,9.6,0,0,0,.343-2.736q0-1.4,0-2.786,0-5.554,0-10.98c.016-28.927.031-54.979.043-76.859s.04-39.583.052-51.823q0-2.294.006-4.329a9.427,9.427,0,0,0-.67-3.7,9.109,9.109,0,0,0-1.725-2.728,9.168,9.168,0,0,0-5.5-2.906,7.352,7.352,0,0,0-.928-.084c-.208-.013-.314-.023-.314-.023" transform="translate(-2.153 -4.127)" fill="#263238"/>
              <path id="Trazado_231176" data-name="Trazado 231176" d="M105.4,71.848c0,.04-1.517.084-3.389.1s-3.391,0-3.391-.044,1.517-.084,3.389-.1,3.391,0,3.391.044" transform="translate(-7.314 -5.325)" fill="#263238"/>
              <path id="Trazado_231177" data-name="Trazado 231177" d="M105.415,73.722c0,.04-1.517.084-3.39.1s-3.39,0-3.391-.044,1.517-.084,3.39-.1,3.391,0,3.391.043" transform="translate(-7.315 -5.464)" fill="#263238"/>
              <path id="Trazado_231178" data-name="Trazado 231178" d="M105.43,75.6c0,.04-1.517.084-3.39.1s-3.39,0-3.391-.044,1.517-.084,3.39-.1,3.391,0,3.391.044" transform="translate(-7.316 -5.603)" fill="#263238"/>
              <path id="Trazado_231179" data-name="Trazado 231179" d="M39.318,77.284a1.087,1.087,0,0,1,.141-.009l.393-.013,1.448-.034-.041.041c0-.321-.01-.672-.017-1.05,0-.2-.017-.38,0-.6a.555.555,0,0,1,.485-.446c.233,0,.439-.016.693,0a.563.563,0,0,1,.475.559c0,.49.011,1,.017,1.531l-.067-.066,1.826-.019-.069.07c-.007-.736-.014-1.5-.02-2.276l-.006-.58a.592.592,0,0,0-.256-.431l-.8-.787-.77-.76-.373-.368c-.129-.123-.229-.252-.378-.282a.494.494,0,0,0-.418.081c-.111.094-.229.226-.341.334l-.656.661c-.412.429-.842.819-1.154,1.19a1.291,1.291,0,0,0-.092.681c0,.226,0,.441,0,.643,0,.394,0,.741-.006,1.037,0,.265-.006.483-.008.663a2.118,2.118,0,0,1-.008.239,1.68,1.68,0,0,1-.013-.219c0-.177-.01-.392-.018-.653-.007-.3-.015-.647-.024-1.045,0-.206-.007-.426-.012-.656,0-.117,0-.236-.006-.359a.76.76,0,0,1,.1-.382c.338-.414.741-.78,1.156-1.221.21-.215.428-.437.65-.666.118-.115.214-.23.353-.35a.622.622,0,0,1,.53-.1.977.977,0,0,1,.439.314l.375.367q.379.372.773.757l.8.786a1.536,1.536,0,0,1,.2.22.608.608,0,0,1,.1.308c0,.193,0,.387,0,.582.006.78.012,1.541.018,2.277v.069h-.069l-1.827.011h-.067v-.067q0-.8-.008-1.531a.439.439,0,0,0-.368-.443c-.21-.011-.458,0-.663,0a.447.447,0,0,0-.393.355c-.018.184,0,.4-.008.584,0,.378,0,.729,0,1.05v.041H41.3l-1.471-.01-.384-.006a.747.747,0,0,1-.126-.007" transform="translate(-2.911 -5.311)" fill="#263238"/>
              <path id="Trazado_231180" data-name="Trazado 231180" d="M86.459,143.342c0,.263-7.264.476-16.223.476s-16.224-.213-16.224-.476,7.263-.476,16.224-.476,16.223.213,16.223.476" transform="translate(-4.006 -10.595)" fill="#263238"/>
              <rect id="Rectángulo_58012" data-name="Rectángulo 58012" width="31.499" height="41.908" transform="translate(45.239 121.748) rotate(-89.681)" fill="#afafaf"/>
              <path id="Trazado_231181" data-name="Trazado 231181" d="M48.863,129.938l14.747-19.5,9,12.3,6.186-6.514L90.77,130.171Z" transform="translate(-3.624 -8.19)" fill="#636363"/>
              <path id="Trazado_231182" data-name="Trazado 231182" d="M78.226,107.661a3.3,3.3,0,1,1-3.281-3.318,3.3,3.3,0,0,1,3.281,3.318" transform="translate(-5.312 -7.738)" fill="#636363"/>
              <path id="Trazado_231185" data-name="Trazado 231185" d="M98.09,155.864c0,.263-12.88.476-28.766.476s-28.769-.213-28.769-.476,12.878-.476,28.769-.476,28.766.213,28.766.476" transform="translate(-3.008 -11.524)" fill="#263238"/>
              <path id="Trazado_231186" data-name="Trazado 231186" d="M98.09,164.527c0,.263-12.88.476-28.766.476s-28.769-.213-28.769-.476,12.878-.476,28.769-.476,28.766.213,28.766.476" transform="translate(-3.008 -12.166)" fill="#263238"/>
              <path id="Trazado_231187" data-name="Trazado 231187" d="M98.09,173.189c0,.263-12.88.476-28.766.476s-28.769-.213-28.769-.476,12.878-.476,28.769-.476,28.766.213,28.766.476" transform="translate(-3.008 -12.808)" fill="#263238"/>
              <path id="Trazado_231188" data-name="Trazado 231188" d="M98.09,181.851c0,.263-12.88.476-28.766.476s-28.769-.213-28.769-.476,12.878-.476,28.769-.476,28.766.213,28.766.476" transform="translate(-3.008 -13.451)" fill="#263238"/>
              <path id="Trazado_231189" data-name="Trazado 231189" d="M98.09,190.514c0,.263-12.88.476-28.766.476s-28.769-.213-28.769-.476,12.878-.476,28.769-.476,28.766.213,28.766.476" transform="translate(-3.008 -14.093)" fill="#263238"/>
              <path id="Trazado_231190" data-name="Trazado 231190" d="M86.687,198.423a24.575,24.575,0,0,1-4.838.337c-2.989.086-7.117.139-11.677.139s-8.69-.053-11.679-.139a24.559,24.559,0,0,1-4.837-.337,24.468,24.468,0,0,1,4.837-.337c2.989-.086,7.118-.139,11.679-.139s8.688.053,11.677.139a24.483,24.483,0,0,1,4.838.337" transform="translate(-3.979 -14.68)" fill="#263238"/>
              <path id="Trazado_231191" data-name="Trazado 231191" d="M154.968,41.124l-6.645.01a5.062,5.062,0,0,0-2,.217,3.142,3.142,0,0,0-1.582,1.408,3.377,3.377,0,0,0-.372,1.066A6.862,6.862,0,0,0,144.319,45q0,.6,0,1.226a5.776,5.776,0,0,1-.079,1.267,3.364,3.364,0,0,1-1.483,2.141,3.148,3.148,0,0,1-1.3.461c-.474.042-.932.012-1.409.021l-5.955,0-13.508,0h-4.64a3.68,3.68,0,0,1-.965-.1,3.192,3.192,0,0,1-1.655-1.024,3.418,3.418,0,0,1-.808-1.805,7.556,7.556,0,0,1-.034-1q0-.5,0-1a5.328,5.328,0,0,0-.2-1.962,3.2,3.2,0,0,0-1.187-1.555,3.088,3.088,0,0,0-1.912-.529H93.849a10.192,10.192,0,0,0-8.189,3.634,10.269,10.269,0,0,0-2.105,4.251c-.1.391-.133.8-.2,1.2-.018.34-.036.679-.046,1.02V215.239a10.676,10.676,0,0,0,.408,3.227,10.206,10.206,0,0,0,3.949,5.452,10.529,10.529,0,0,0,6.507,1.791l6.916,0,13.694.008,26.774.018,13.046.009c2.15-.012,4.307.034,6.422-.027a10.092,10.092,0,0,0,5.758-2.232,10.855,10.855,0,0,0,2.079-2.3,10.126,10.126,0,0,0,1.274-2.81,10.664,10.664,0,0,0,.383-3.052q0-1.557,0-3.106,0-6.2,0-12.246c.018-32.262.034-61.317.048-85.72s.044-44.147.057-57.8q0-2.559.007-4.829a10.553,10.553,0,0,0-.747-4.126,10.2,10.2,0,0,0-1.925-3.041,10.221,10.221,0,0,0-6.131-3.24,8.264,8.264,0,0,0-1.035-.1c-.232-.014-.35-.025-.35-.025s-.471.009-1.392.014l-4.086.012" transform="translate(-6.178 -3.048)" fill="#fafafa"/>
              <path id="Trazado_231192" data-name="Trazado 231192" d="M160.5,41.013s.118,0,.351.01a7.593,7.593,0,0,1,1.039.081,9.647,9.647,0,0,1,3.842,1.328,9.807,9.807,0,0,1,2.338,1.893,10.24,10.24,0,0,1,1.951,3.058,10.594,10.594,0,0,1,.767,4.159q0,2.269.006,4.829c.008,13.65.02,33.4.035,57.8s.009,53.458.014,85.72q0,6.049,0,12.246v3.106a10.981,10.981,0,0,1-.393,3.126,10.362,10.362,0,0,1-1.309,2.887,11.085,11.085,0,0,1-2.133,2.368,10.374,10.374,0,0,1-5.916,2.3c-2.148.063-4.281.016-6.438.029l-13.046-.006-26.774-.014-13.694-.007-6.916,0a10.825,10.825,0,0,1-6.672-1.842,10.5,10.5,0,0,1-4.062-5.609A11.288,11.288,0,0,1,83.061,215q0-1.73,0-3.454,0-6.9,0-13.7,0-13.6.007-26.782c.006-17.558.012-34.494.019-50.628s.015-31.465.022-45.813q.006-10.76.012-20.761,0-1.25,0-2.485c.006-.413.035-.83.057-1.242.072-.408.1-.823.21-1.221a10.476,10.476,0,0,1,2.154-4.341,10.394,10.394,0,0,1,8.353-3.7l8.93.01,4.3.006,2.1,0a3.281,3.281,0,0,1,2.016.563A3.386,3.386,0,0,1,112.5,43.1a5.478,5.478,0,0,1,.207,2.023q0,.5,0,1a7.388,7.388,0,0,0,.032.977,3.238,3.238,0,0,0,.765,1.715,3.02,3.02,0,0,0,1.565.972,3.489,3.489,0,0,0,.924.091h.943l3.7.006,13.507.019,5.955.01c.47-.008.949.021,1.4-.018a3.013,3.013,0,0,0,1.255-.442,3.239,3.239,0,0,0,1.435-2.064,5.651,5.651,0,0,0,.081-1.243q0-.622,0-1.226a6.852,6.852,0,0,1,.054-1.194,3.434,3.434,0,0,1,.386-1.1,3.234,3.234,0,0,1,1.636-1.446,5.133,5.133,0,0,1,2.034-.217l6.645.018,4.087.017c.92.006,1.392.016,1.392.016s-.471.009-1.392.014l-4.087.012-6.645.01a5.039,5.039,0,0,0-2,.218,3.135,3.135,0,0,0-1.583,1.407,3.376,3.376,0,0,0-.372,1.066,6.943,6.943,0,0,0-.049,1.178q0,.6,0,1.226a5.774,5.774,0,0,1-.079,1.267,3.361,3.361,0,0,1-1.483,2.141,3.144,3.144,0,0,1-1.3.461c-.474.042-.932.012-1.409.021l-5.955,0-13.508,0h-4.641a3.636,3.636,0,0,1-.964-.094,3.192,3.192,0,0,1-1.655-1.024,3.422,3.422,0,0,1-.808-1.8,7.575,7.575,0,0,1-.034-1c0-.331,0-.663,0-1a5.329,5.329,0,0,0-.2-1.962,3.194,3.194,0,0,0-1.187-1.555,3.1,3.1,0,0,0-1.912-.529H93.9a10.192,10.192,0,0,0-8.189,3.634,10.273,10.273,0,0,0-2.105,4.252c-.1.39-.133.8-.2,1.194-.021.406-.05.809-.056,1.22q0,1.236,0,2.485,0,9.989,0,20.761c0,14.349,0,29.68,0,45.813s0,33.07,0,50.628q0,13.17,0,26.782,0,6.8,0,13.7,0,1.723,0,3.453a10.988,10.988,0,0,0,.417,3.384,10.2,10.2,0,0,0,3.948,5.452,10.529,10.529,0,0,0,6.507,1.791l6.916,0,13.694.008,26.774.018,13.046.009c2.15-.012,4.307.034,6.422-.027a10.089,10.089,0,0,0,5.758-2.232,10.853,10.853,0,0,0,2.078-2.3,10.1,10.1,0,0,0,1.274-2.81,10.664,10.664,0,0,0,.383-3.052q0-1.557,0-3.106,0-6.2,0-12.246c.019-32.262.034-61.317.048-85.72s.044-44.147.056-57.8q.006-2.559.008-4.829a10.549,10.549,0,0,0-.747-4.126,10.183,10.183,0,0,0-1.925-3.041,10.221,10.221,0,0,0-6.131-3.24,8.264,8.264,0,0,0-1.035-.1c-.232-.014-.35-.025-.35-.025" transform="translate(-6.16 -3.031)" fill="#263238"/>
              <path id="Trazado_231193" data-name="Trazado 231193" d="M168.235,58.94c0,.044-1.692.094-3.781.111s-3.782,0-3.782-.048,1.692-.094,3.781-.111,3.782,0,3.782.048" transform="translate(-11.916 -4.367)" fill="#263238"/>
              <path id="Trazado_231194" data-name="Trazado 231194" d="M168.253,61.031c0,.044-1.692.094-3.781.111s-3.783,0-3.783-.048,1.693-.094,3.781-.111,3.783,0,3.783.048" transform="translate(-11.917 -4.522)" fill="#263238"/>
              <path id="Trazado_231195" data-name="Trazado 231195" d="M168.27,63.121c0,.044-1.692.094-3.781.111s-3.782,0-3.782-.048,1.692-.094,3.781-.111,3.782,0,3.782.048" transform="translate(-11.918 -4.677)" fill="#263238"/>
              <path id="Trazado_231196" data-name="Trazado 231196" d="M94.536,65a1.2,1.2,0,0,1,.157-.01l.437-.015,1.616-.039-.045.046q-.008-.537-.019-1.171c0-.218-.019-.423,0-.674a.62.62,0,0,1,.542-.5c.26-.006.489-.017.771,0a.626.626,0,0,1,.53.623q.01.819.019,1.708l-.075-.073,2.037-.021-.077.079c-.007-.82-.015-1.668-.023-2.538l-.006-.647a.654.654,0,0,0-.286-.481l-.891-.879-.859-.847-.416-.411c-.144-.138-.256-.281-.421-.315a.547.547,0,0,0-.468.089c-.124.1-.256.252-.38.373l-.731.738c-.459.477-.938.913-1.286,1.326a1.434,1.434,0,0,0-.1.76c0,.253,0,.492,0,.718q0,.66-.006,1.155c0,.3-.006.54-.009.74a2.428,2.428,0,0,1-.009.267,1.936,1.936,0,0,1-.014-.245c-.006-.2-.012-.437-.02-.728q-.011-.5-.026-1.166-.007-.346-.014-.731c0-.131,0-.264-.006-.4a.839.839,0,0,1,.113-.426c.376-.462.826-.871,1.29-1.363l.725-.743c.131-.129.238-.256.393-.39a.693.693,0,0,1,.591-.117,1.1,1.1,0,0,1,.489.35c.138.135.278.271.418.41l.862.844.893.876a1.612,1.612,0,0,1,.228.247.662.662,0,0,1,.106.343q0,.322.006.649c.006.869.013,1.718.019,2.539v.078h-.078l-2.037.013H98.4V64.97c0-.592-.006-1.162-.009-1.707a.491.491,0,0,0-.412-.494c-.234-.013-.51,0-.739,0a.5.5,0,0,0-.439.4c-.019.2,0,.443-.009.651q0,.633,0,1.171v.045h-.045L95.1,65.018l-.428-.006A.839.839,0,0,1,94.536,65" transform="translate(-7.005 -4.351)" fill="#263238"/>
              <path id="Trazado_231197" data-name="Trazado 231197" d="M137.929,76.407a6.828,6.828,0,1,1-6.828-6.828,6.828,6.828,0,0,1,6.828,6.828" transform="translate(-9.216 -5.16)" fill="#ff5422"/>
              <path id="Trazado_231198" data-name="Trazado 231198" d="M133.8,79.694h-4.685v-.576a2.342,2.342,0,0,1,4.685,0Z" transform="translate(-9.575 -5.694)" fill="#fff"/>
              <path id="Trazado_231199" data-name="Trazado 231199" d="M132.914,75.357a1.377,1.377,0,1,1-1.377-1.377,1.377,1.377,0,0,1,1.377,1.377" transform="translate(-9.653 -5.486)" fill="#fff"/>
              <path id="Trazado_231200" data-name="Trazado 231200" d="M147.111,96.4c0,.294-8.1.531-18.093.531s-18.095-.238-18.095-.531,8.1-.531,18.095-.531,18.093.237,18.093.531" transform="translate(-8.226 -7.11)" fill="#263238"/>
              <rect id="Rectángulo_58015" data-name="Rectángulo 58015" width="23.482" height="31.243" transform="translate(83.748 130.758) rotate(-89.681)" fill="#afafaf"/>
              <path id="Trazado_231201" data-name="Trazado 231201" d="M90.456,140.067l10.993-14.536,6.709,9.169,4.612-4.856,8.929,10.4Z" transform="translate(-6.708 -9.309)" fill="#636363"/>
              <path id="Trazado_231202" data-name="Trazado 231202" d="M112.348,123.46a2.46,2.46,0,1,1-2.447-2.474,2.461,2.461,0,0,1,2.447,2.474" transform="translate(-7.967 -8.972)" fill="#636363"/>
              <rect id="Rectángulo_58018" data-name="Rectángulo 58018" width="54.287" height="72.226" transform="matrix(0.006, -1, 1, 0.006, 83.464, 192.287)" fill="#afafaf"/>
              <path id="Trazado_231205" data-name="Trazado 231205" d="M90.149,205l25.414-33.6,15.509,21.2,10.661-11.227L162.374,205.4Z" transform="translate(-6.686 -12.711)" fill="#636363"/>
              <path id="Trazado_231206" data-name="Trazado 231206" d="M140.756,166.607a5.687,5.687,0,1,1-5.655-5.719,5.687,5.687,0,0,1,5.655,5.719" transform="translate(-9.595 -11.932)" fill="#636363"/>
              <rect id="Rectángulo_58021" data-name="Rectángulo 58021" width="23.482" height="31.243" transform="translate(124.994 130.758) rotate(-89.681)" fill="#afafaf"/>
              <path id="Trazado_231209" data-name="Trazado 231209" d="M135.006,140.067,146,125.531l6.709,9.169,4.613-4.856,8.928,10.4Z" transform="translate(-10.012 -9.309)" fill="#e8505b"/>
              <path id="Trazado_231210" data-name="Trazado 231210" d="M156.9,123.46a2.46,2.46,0,1,1-2.447-2.474,2.461,2.461,0,0,1,2.447,2.474" transform="translate(-11.271 -8.972)" fill="#e8505b"/>
              <g id="Grupo_180117" data-name="Grupo 180117" transform="translate(124.994 116.222)" opacity="0.2">
                <g id="Grupo_180116" data-name="Grupo 180116">
                  <g id="Grupo_180115" data-name="Grupo 180115" clip-path="url(#clip-path-4)">
                    <path id="Trazado_231211" data-name="Trazado 231211" d="M135.006,140.067,146,125.531l6.709,9.169,4.613-4.856,8.928,10.4Z" transform="translate(-135.006 -125.531)"/>
                  </g>
                </g>
              </g>
              <g id="Grupo_180120" data-name="Grupo 180120" transform="translate(140.707 112.014)" opacity="0.2">
                <g id="Grupo_180119" data-name="Grupo 180119">
                  <g id="Grupo_180118" data-name="Grupo 180118" clip-path="url(#clip-path-5)">
                    <path id="Trazado_231212" data-name="Trazado 231212" d="M156.9,123.46a2.46,2.46,0,1,1-2.447-2.474,2.461,2.461,0,0,1,2.447,2.474" transform="translate(-151.978 -120.986)"/>
                  </g>
                </g>
              </g>
              <path id="Trazado_231213" data-name="Trazado 231213" d="M365.119,51.012l-5.958.009a4.548,4.548,0,0,0-1.793.194,2.814,2.814,0,0,0-1.419,1.262,3.012,3.012,0,0,0-.333.956,6.2,6.2,0,0,0-.044,1.055q0,.542,0,1.1a5.162,5.162,0,0,1-.071,1.137,3.01,3.01,0,0,1-1.33,1.919,2.79,2.79,0,0,1-1.168.414c-.425.038-.836.011-1.264.019l-5.339,0-12.112,0h-4.161a3.272,3.272,0,0,1-.865-.084,2.865,2.865,0,0,1-1.484-.918,3.062,3.062,0,0,1-.725-1.618,6.785,6.785,0,0,1-.031-.9q0-.446,0-.894a4.758,4.758,0,0,0-.18-1.759,2.872,2.872,0,0,0-1.064-1.394,2.773,2.773,0,0,0-1.715-.474H310.319a9.133,9.133,0,0,0-7.342,3.259,9.2,9.2,0,0,0-1.889,3.812c-.093.35-.119.714-.182,1.071-.016.3-.032.608-.042.915V207.129a9.555,9.555,0,0,0,.367,2.894,9.144,9.144,0,0,0,3.539,4.888,9.437,9.437,0,0,0,5.835,1.605l6.2,0,12.279.007,24.007.016,11.7.008c1.928-.011,3.862.031,5.758-.024a9.042,9.042,0,0,0,5.163-2,9.67,9.67,0,0,0,1.864-2.066,9.059,9.059,0,0,0,1.143-2.519,9.6,9.6,0,0,0,.344-2.736q0-1.4,0-2.785,0-5.555,0-10.98c.016-28.927.031-54.979.043-76.859s.039-39.583.051-51.823q0-2.294.007-4.329a9.451,9.451,0,0,0-.67-3.7A9.118,9.118,0,0,0,376.77,54a9.155,9.155,0,0,0-5.5-2.905,7.452,7.452,0,0,0-.928-.086c-.209-.012-.315-.022-.315-.022s-.422.008-1.248.013l-3.663.01" transform="translate(-22.312 -3.781)" fill="#fafafa"/>
              <rect id="Rectángulo_58024" data-name="Rectángulo 58024" width="51.702" height="10.56" transform="translate(291.421 109.525)" fill="#ebebeb"/>
              <path id="Trazado_231214" data-name="Trazado 231214" d="M370.2,50.912s.106,0,.315.009a6.928,6.928,0,0,1,.931.072,8.654,8.654,0,0,1,3.446,1.19,8.819,8.819,0,0,1,2.1,1.7,9.2,9.2,0,0,1,1.75,2.742,9.526,9.526,0,0,1,.688,3.729q0,2.035,0,4.329c.007,12.24.018,29.945.031,51.823s.007,47.932.012,76.859q0,5.424,0,10.98v2.785a9.822,9.822,0,0,1-.353,2.8,9.247,9.247,0,0,1-1.173,2.588,9.936,9.936,0,0,1-1.913,2.124,9.3,9.3,0,0,1-5.3,2.059c-1.927.056-3.839.014-5.773.026l-11.7-.006-24.007-.012-12.278-.006-6.2,0a9.708,9.708,0,0,1-5.982-1.652,9.413,9.413,0,0,1-3.641-5.029,10.139,10.139,0,0,1-.383-3.107q0-1.551,0-3.1,0-6.184,0-12.282,0-12.2.007-24.014c.005-15.743.011-30.929.017-45.395s.014-28.212.02-41.077q.006-9.649.011-18.616,0-1.119,0-2.228c.006-.37.032-.744.052-1.115.065-.365.094-.737.188-1.094a9.393,9.393,0,0,1,1.932-3.892,9.32,9.32,0,0,1,7.489-3.318l8.007.009,3.852,0,1.887,0a2.949,2.949,0,0,1,1.808.506,3.037,3.037,0,0,1,1.123,1.476,4.922,4.922,0,0,1,.187,1.815c0,.3,0,.6,0,.893a6.652,6.652,0,0,0,.029.876,2.9,2.9,0,0,0,.685,1.537,2.708,2.708,0,0,0,1.4.871,3.09,3.09,0,0,0,.828.082h.846l3.315,0,12.112.018,5.339.008c.421-.006.851.019,1.251-.016a2.7,2.7,0,0,0,1.125-.394,2.913,2.913,0,0,0,1.287-1.851,5.109,5.109,0,0,0,.072-1.116q0-.557,0-1.1a6.272,6.272,0,0,1,.048-1.071,3.1,3.1,0,0,1,.346-.983,2.893,2.893,0,0,1,1.467-1.3,4.622,4.622,0,0,1,1.824-.2l5.958.017,3.664.015c.825,0,1.248.014,1.248.014s-.423.008-1.248.012l-3.664.011-5.958.009a4.548,4.548,0,0,0-1.793.194,2.816,2.816,0,0,0-1.419,1.263,3.018,3.018,0,0,0-.333.955,6.085,6.085,0,0,0-.044,1.055q0,.542,0,1.1a5.2,5.2,0,0,1-.071,1.136,3.013,3.013,0,0,1-1.33,1.92,2.8,2.8,0,0,1-1.168.414c-.426.038-.837.011-1.264.019l-5.339,0-12.112,0h-4.162a3.281,3.281,0,0,1-.865-.084A2.856,2.856,0,0,1,327.944,58a3.055,3.055,0,0,1-.725-1.618,6.786,6.786,0,0,1-.031-.9V54.6a4.8,4.8,0,0,0-.18-1.76,2.874,2.874,0,0,0-1.065-1.394,2.772,2.772,0,0,0-1.714-.474H310.483a9.132,9.132,0,0,0-7.342,3.259,9.2,9.2,0,0,0-1.888,3.812c-.093.35-.119.714-.183,1.071-.019.364-.044.726-.05,1.094q0,1.108,0,2.228,0,8.957,0,18.616c0,12.865,0,26.611,0,41.077s0,29.652,0,45.395q0,11.809,0,24.014,0,6.1,0,12.282v3.1a9.847,9.847,0,0,0,.372,3.034,9.147,9.147,0,0,0,3.54,4.888,9.433,9.433,0,0,0,5.835,1.605l6.2,0,12.279.007,24.006.016,11.7.008c1.928-.011,3.862.031,5.757-.024a9.045,9.045,0,0,0,5.163-2,9.688,9.688,0,0,0,1.863-2.066,9.034,9.034,0,0,0,1.143-2.519,9.6,9.6,0,0,0,.344-2.736q0-1.4,0-2.785,0-5.555,0-10.98c.017-28.927.031-54.979.043-76.859s.04-39.583.052-51.823q0-2.294.006-4.329a9.424,9.424,0,0,0-.67-3.7,9.124,9.124,0,0,0-1.725-2.728,8.787,8.787,0,0,0-2.075-1.7,8.7,8.7,0,0,0-3.423-1.208,7.218,7.218,0,0,0-.928-.085c-.208-.013-.314-.023-.314-.023" transform="translate(-22.305 -3.766)" fill="#263238"/>
              <path id="Trazado_231215" data-name="Trazado 231215" d="M377.133,66.986c0,.04-1.517.084-3.39.1s-3.391,0-3.391-.044,1.517-.084,3.39-.1,3.391,0,3.391.044" transform="translate(-27.465 -4.964)" fill="#263238"/>
              <path id="Trazado_231216" data-name="Trazado 231216" d="M377.149,68.86c0,.04-1.517.084-3.39.1s-3.39,0-3.391-.044,1.518-.084,3.391-.1,3.391,0,3.391.044" transform="translate(-27.467 -5.103)" fill="#263238"/>
              <path id="Trazado_231217" data-name="Trazado 231217" d="M377.164,70.734c0,.04-1.517.084-3.391.1s-3.39,0-3.39-.044,1.517-.084,3.39-.1,3.391,0,3.391.044" transform="translate(-27.468 -5.242)" fill="#263238"/>
              <path id="Trazado_231218" data-name="Trazado 231218" d="M311.052,72.422a1.082,1.082,0,0,1,.141-.009l.393-.013,1.448-.034-.041.041c0-.321-.01-.672-.017-1.05,0-.2-.017-.38,0-.6a.554.554,0,0,1,.485-.446c.233,0,.439-.016.693,0a.563.563,0,0,1,.475.559c0,.49.011,1,.017,1.531l-.067-.067,1.827-.018-.069.07c-.007-.736-.014-1.5-.02-2.276l-.006-.581a.592.592,0,0,0-.256-.431l-.8-.787-.771-.76-.373-.368c-.128-.124-.229-.252-.378-.282a.49.49,0,0,0-.418.081c-.111.094-.229.226-.341.334l-.655.661c-.412.429-.842.819-1.154,1.189a1.294,1.294,0,0,0-.092.682c0,.226,0,.441,0,.643,0,.394,0,.741-.007,1.037,0,.265-.005.483-.008.663a2.127,2.127,0,0,1-.008.239,1.686,1.686,0,0,1-.013-.219c0-.177-.01-.393-.018-.653-.007-.3-.015-.647-.024-1.045,0-.206-.007-.426-.012-.656,0-.117,0-.236-.006-.359a.76.76,0,0,1,.1-.382c.338-.414.742-.78,1.156-1.221.21-.215.428-.437.65-.666.118-.115.214-.23.353-.35a.622.622,0,0,1,.53-.1.983.983,0,0,1,.439.313l.375.368.772.757.8.786a1.544,1.544,0,0,1,.2.22.608.608,0,0,1,.1.308c0,.193,0,.387,0,.582.006.78.012,1.541.018,2.277v.069h-.069l-1.827.011h-.067v-.067q0-.8-.007-1.531a.441.441,0,0,0-.369-.443c-.21-.011-.458,0-.663,0a.446.446,0,0,0-.393.355c-.018.184,0,.4-.007.584v1.091h-.041l-1.471-.01-.384-.006a.746.746,0,0,1-.126-.007" transform="translate(-23.062 -4.95)" fill="#263238"/>
              <rect id="Rectángulo_58025" data-name="Rectángulo 58025" width="51.702" height="10.56" transform="translate(291.53 125.276)" fill="#ebebeb"/>
              <rect id="Rectángulo_58026" data-name="Rectángulo 58026" width="51.702" height="10.56" transform="translate(291.53 140.599)" fill="#ebebeb"/>
              <path id="Trazado_231219" data-name="Trazado 231219" d="M354.8,185.089H328.85a5.28,5.28,0,1,1,0-10.56H354.8a5.28,5.28,0,0,1,0,10.56" transform="translate(-23.996 -12.943)" fill="#12263f"/>
              <path id="Trazado_231220" data-name="Trazado 231220" d="M358.074,106.472c0,.263-7.264.476-16.222.476s-16.224-.213-16.224-.476S332.89,106,341.851,106s16.222.213,16.222.476" transform="translate(-24.149 -7.861)" fill="#263238"/>
              <path id="Trazado_231221" data-name="Trazado 231221" d="M318.749,39.2l-6.645.01a5.056,5.056,0,0,0-2,.218,3.135,3.135,0,0,0-1.583,1.407,3.374,3.374,0,0,0-.372,1.067,6.934,6.934,0,0,0-.049,1.177q0,.6,0,1.226a5.831,5.831,0,0,1-.08,1.267,3.361,3.361,0,0,1-1.483,2.141,3.148,3.148,0,0,1-1.3.461c-.474.042-.932.012-1.408.021l-5.956,0-13.508,0h-4.641a3.636,3.636,0,0,1-.964-.094,3.187,3.187,0,0,1-1.655-1.024,3.419,3.419,0,0,1-.808-1.8,7.586,7.586,0,0,1-.034-1c0-.331,0-.664,0-1a5.328,5.328,0,0,0-.2-1.962,3.2,3.2,0,0,0-1.187-1.555,3.094,3.094,0,0,0-1.912-.529H257.63a10.192,10.192,0,0,0-8.189,3.634,10.269,10.269,0,0,0-2.105,4.251c-.1.391-.133.8-.2,1.2-.018.34-.036.679-.046,1.02V213.319a10.651,10.651,0,0,0,.409,3.228A10.2,10.2,0,0,0,251.443,222a10.529,10.529,0,0,0,6.507,1.791l6.916,0,13.694.008,26.774.018,13.046.009c2.15-.012,4.307.034,6.422-.027a10.089,10.089,0,0,0,5.758-2.232,10.854,10.854,0,0,0,2.079-2.3,10.089,10.089,0,0,0,1.274-2.81,10.663,10.663,0,0,0,.383-3.052q0-1.557,0-3.106,0-6.2,0-12.246c.018-32.262.034-61.317.048-85.719s.044-44.148.057-57.8q0-2.559.007-4.829a10.552,10.552,0,0,0-.747-4.126,10.213,10.213,0,0,0-1.925-3.041,10.221,10.221,0,0,0-6.131-3.24,8.264,8.264,0,0,0-1.035-.1c-.232-.014-.35-.025-.35-.025s-.471.009-1.392.014l-4.086.012" transform="translate(-18.324 -2.906)" fill="#fafafa"/>
              <path id="Trazado_231222" data-name="Trazado 231222" d="M324.28,39.322s.118,0,.351.01a7.567,7.567,0,0,1,1.038.081,9.645,9.645,0,0,1,3.843,1.328,9.8,9.8,0,0,1,2.337,1.893,10.242,10.242,0,0,1,1.952,3.058,10.628,10.628,0,0,1,.767,4.159q0,2.269.006,4.829c.008,13.65.02,33.4.035,57.8s.008,53.458.014,85.72q0,6.049,0,12.246,0,1.548,0,3.106a10.982,10.982,0,0,1-.392,3.126,10.364,10.364,0,0,1-1.309,2.887,11.085,11.085,0,0,1-2.133,2.368,10.374,10.374,0,0,1-5.916,2.3c-2.149.063-4.281.016-6.438.029l-13.046-.006-26.774-.014-13.694-.007-6.916,0a10.823,10.823,0,0,1-6.672-1.842,10.49,10.49,0,0,1-4.062-5.609,11.289,11.289,0,0,1-.428-3.465q0-1.73,0-3.454,0-6.9,0-13.7,0-13.6.007-26.782c.006-17.558.012-34.494.018-50.628s.016-31.465.023-45.813q.005-10.76.012-20.761,0-1.25,0-2.485c.005-.413.035-.83.057-1.242.072-.408.1-.823.21-1.221a10.465,10.465,0,0,1,2.154-4.341,10.394,10.394,0,0,1,8.353-3.7l8.93.01,4.3.006,2.1,0a3.275,3.275,0,0,1,2.016.563,3.391,3.391,0,0,1,1.254,1.646,5.5,5.5,0,0,1,.207,2.023c0,.334,0,.667,0,1a7.383,7.383,0,0,0,.032.977,3.236,3.236,0,0,0,.764,1.715,3.026,3.026,0,0,0,1.566.972,3.528,3.528,0,0,0,.924.091h.943l3.7.006,13.508.019,5.955.01c.47-.008.949.021,1.4-.018a3.013,3.013,0,0,0,1.255-.442,3.238,3.238,0,0,0,1.435-2.064,5.652,5.652,0,0,0,.081-1.243q0-.622,0-1.226a7.041,7.041,0,0,1,.054-1.194,3.454,3.454,0,0,1,.387-1.1,3.229,3.229,0,0,1,1.636-1.446,5.133,5.133,0,0,1,2.034-.217l6.645.018,4.086.017c.921.006,1.392.016,1.392.016s-.471.009-1.392.014l-4.086.012-6.645.01a5.039,5.039,0,0,0-2,.218,3.134,3.134,0,0,0-1.583,1.407,3.353,3.353,0,0,0-.372,1.066,6.855,6.855,0,0,0-.049,1.178q0,.6,0,1.226a5.723,5.723,0,0,1-.08,1.267,3.363,3.363,0,0,1-1.482,2.141,3.148,3.148,0,0,1-1.3.461c-.474.042-.933.012-1.409.021l-5.955,0-13.508,0h-4.641a3.636,3.636,0,0,1-.964-.094,3.193,3.193,0,0,1-1.655-1.024,3.414,3.414,0,0,1-.808-1.8,7.711,7.711,0,0,1-.035-1v-1a5.33,5.33,0,0,0-.2-1.962,3.2,3.2,0,0,0-1.187-1.555,3.1,3.1,0,0,0-1.912-.529h-15.33a10.192,10.192,0,0,0-8.189,3.634,10.272,10.272,0,0,0-2.105,4.252c-.1.39-.133.8-.2,1.194-.02.406-.05.809-.055,1.22V52.17q0,9.989,0,20.761c0,14.349,0,29.68,0,45.813s0,33.07,0,50.628q0,13.17,0,26.782,0,6.8,0,13.7,0,1.723,0,3.453a11.015,11.015,0,0,0,.416,3.384,10.2,10.2,0,0,0,3.949,5.452A10.528,10.528,0,0,0,258,223.933l6.916,0,13.694.008,26.774.018,13.046.009c2.15-.012,4.307.034,6.422-.027a10.092,10.092,0,0,0,5.758-2.232,10.827,10.827,0,0,0,2.078-2.3,10.074,10.074,0,0,0,1.275-2.81,10.662,10.662,0,0,0,.383-3.052q0-1.557,0-3.106,0-6.2.005-12.246c.018-32.262.034-61.316.048-85.72s.043-44.147.056-57.8q0-2.559.008-4.829a10.533,10.533,0,0,0-.748-4.126,10.18,10.18,0,0,0-1.924-3.041,10.221,10.221,0,0,0-6.131-3.24,8.262,8.262,0,0,0-1.035-.1c-.232-.014-.35-.025-.35-.025" transform="translate(-18.306 -2.906)" fill="#263238"/>
              <path id="Trazado_231223" data-name="Trazado 231223" d="M332.016,57.249c0,.044-1.692.094-3.78.111s-3.782,0-3.783-.048,1.692-.094,3.781-.111,3.782,0,3.782.048" transform="translate(-24.062 -4.242)" fill="#263238"/>
              <path id="Trazado_231224" data-name="Trazado 231224" d="M332.034,59.339c0,.044-1.692.094-3.781.111s-3.782,0-3.782-.048,1.692-.094,3.781-.111,3.782,0,3.782.048" transform="translate(-24.063 -4.397)" fill="#263238"/>
              <path id="Trazado_231225" data-name="Trazado 231225" d="M332.051,61.429c0,.044-1.693.094-3.781.111s-3.782,0-3.782-.048,1.692-.094,3.781-.111,3.781,0,3.782.048" transform="translate(-24.064 -4.552)" fill="#263238"/>
              <path id="Trazado_231226" data-name="Trazado 231226" d="M258.316,63.311a1.2,1.2,0,0,1,.157-.01l.438-.015,1.615-.038-.045.045q-.008-.537-.018-1.171c0-.218-.019-.423,0-.674a.62.62,0,0,1,.542-.5c.26,0,.489-.017.771,0a.627.627,0,0,1,.53.623q.01.819.019,1.708l-.075-.073,2.038-.021-.078.079c-.007-.82-.015-1.668-.023-2.538l-.005-.647a.651.651,0,0,0-.286-.481q-.451-.446-.891-.878t-.859-.848l-.416-.411c-.143-.138-.256-.281-.421-.315a.547.547,0,0,0-.468.089c-.124.1-.256.252-.38.373l-.73.738c-.46.477-.939.913-1.287,1.326a1.443,1.443,0,0,0-.1.76c0,.253,0,.493,0,.718,0,.44,0,.826-.006,1.155,0,.3-.006.54-.008.74a2.507,2.507,0,0,1-.01.267,1.936,1.936,0,0,1-.014-.244c-.006-.2-.012-.438-.02-.729q-.011-.5-.027-1.166-.006-.346-.013-.731c0-.131,0-.264-.007-.4a.842.842,0,0,1,.113-.426c.376-.462.826-.871,1.29-1.363l.725-.743c.13-.129.238-.256.393-.39a.693.693,0,0,1,.591-.117,1.1,1.1,0,0,1,.489.35l.418.41.862.844.892.876a1.661,1.661,0,0,1,.228.247.661.661,0,0,1,.106.343q0,.322.007.649c.006.869.013,1.718.018,2.539v.078h-.078l-2.038.013h-.074v-.075c0-.591-.006-1.161-.009-1.707a.491.491,0,0,0-.412-.494c-.234-.013-.511,0-.739,0a.5.5,0,0,0-.439.4c-.02.2,0,.443-.009.651q0,.633,0,1.171v.045h-.045l-1.641-.011-.428-.007a.835.835,0,0,1-.141-.008" transform="translate(-19.151 -4.226)" fill="#263238"/>
              <path id="Trazado_231227" data-name="Trazado 231227" d="M311.257,103.685a17.1,17.1,0,1,1-17.1-17.1,17.1,17.1,0,0,1,17.1,17.1" transform="translate(-20.546 -6.421)" fill="#1565c0"/>
              <path id="Trazado_231228" data-name="Trazado 231228" d="M300.919,111.92H289.184v-1.442a5.867,5.867,0,1,1,11.735,0Z" transform="translate(-21.446 -7.758)" fill="#fff"/>
              <path id="Trazado_231229" data-name="Trazado 231229" d="M298.694,101.053a3.449,3.449,0,1,1-3.45-3.45,3.45,3.45,0,0,1,3.45,3.45" transform="translate(-21.64 -7.238)" fill="#fff"/>
              <rect id="Rectángulo_58027" data-name="Rectángulo 58027" width="57.662" height="11.778" transform="translate(243.115 133.963)" fill="#ebebeb"/>
              <rect id="Rectángulo_58028" data-name="Rectángulo 58028" width="57.662" height="11.778" transform="translate(243.115 151.053)" fill="#ebebeb"/>
              <path id="Trazado_231230" data-name="Trazado 231230" d="M307.111,200.211H278.167a5.889,5.889,0,0,1,0-11.778h28.944a5.889,5.889,0,1,1,0,11.778" transform="translate(-20.192 -13.974)" fill="url(#linear-gradient)"/>
              <path id="Trazado_231231" data-name="Trazado 231231" d="M310.892,136.984c0,.293-8.1.531-18.093.531s-18.095-.237-18.095-.531,8.1-.531,18.095-.531,18.093.239,18.093.531" transform="translate(-20.372 -10.119)" fill="#263238"/>
              <path id="Trazado_231232" data-name="Trazado 231232" d="M270.951,153.683H268.4a.452.452,0,0,1-.452-.452,1.7,1.7,0,0,1,1.7-1.7h.056a1.7,1.7,0,0,1,1.7,1.7.452.452,0,0,1-.452.452" transform="translate(-19.871 -11.238)" fill="#e0e0e0"/>
              <path id="Trazado_231233" data-name="Trazado 231233" d="M270.749,150.487a1.014,1.014,0,1,1-1.015-1.015,1.015,1.015,0,0,1,1.015,1.015" transform="translate(-19.928 -11.085)" fill="#e0e0e0"/>
              <rect id="Rectángulo_58029" data-name="Rectángulo 58029" width="3.04" height="2.15" transform="translate(248.285 157.129)" fill="#e0e0e0"/>
              <path id="Trazado_231234" data-name="Trazado 231234" d="M271.522,170H270.5v-.662a.861.861,0,0,0-1.721,0V170h-1.02v-.662a1.88,1.88,0,0,1,3.761,0Z" transform="translate(-19.857 -12.419)" fill="#e0e0e0"/>
              <path id="Trazado_231235" data-name="Trazado 231235" d="M249.982.167l-9.9.015A7.545,7.545,0,0,0,237.107.5a4.677,4.677,0,0,0-2.358,2.1,5.032,5.032,0,0,0-.554,1.587,10.21,10.21,0,0,0-.073,1.753q0,.9,0,1.824a8.524,8.524,0,0,1-.119,1.886,5,5,0,0,1-2.208,3.187,4.673,4.673,0,0,1-1.941.688c-.705.061-1.39.018-2.1.031l-8.87,0-20.118.006h-6.912a5.418,5.418,0,0,1-1.436-.141,4.755,4.755,0,0,1-2.466-1.524,5.083,5.083,0,0,1-1.2-2.687,11.329,11.329,0,0,1-.052-1.488q0-.739,0-1.483a7.918,7.918,0,0,0-.3-2.92,4.766,4.766,0,0,0-1.768-2.315,4.6,4.6,0,0,0-2.847-.787H158.957A15.715,15.715,0,0,0,152.3,1.485a15.554,15.554,0,0,0-5.538,4.146,15.256,15.256,0,0,0-3.136,6.327c-.155.58-.2,1.185-.3,1.779-.026.5-.053,1.01-.069,1.518v99.129c0,1.327,0,2.617,0,3.951,0,4,0,8.085,0,12.153V259.307a15.865,15.865,0,0,0,.609,4.8,15.177,15.177,0,0,0,5.88,8.115,15.687,15.687,0,0,0,9.691,2.666l10.3.006,20.394.013,39.876.027,19.431.013c3.2-.019,6.414.052,9.563-.04a15.023,15.023,0,0,0,8.575-3.323,16.093,16.093,0,0,0,3.1-3.429,15.015,15.015,0,0,0,1.9-4.182,15.881,15.881,0,0,0,.571-4.541q0-2.318,0-4.624,0-9.22.007-18.226c.027-48.016.051-91.26.071-127.579.036-36.314.066-65.7.085-86.02q.007-3.809.012-7.187A15.653,15.653,0,0,0,272.2,9.657a15.133,15.133,0,0,0-2.865-4.526,14.6,14.6,0,0,0-3.446-2.817A14.46,14.46,0,0,0,260.2.308a12.184,12.184,0,0,0-1.541-.142c-.346-.021-.521-.038-.521-.038s-.7.015-2.074.021l-6.086.018" transform="translate(-10.624 -0.009)" fill="#fafafa"/>
              <path id="Trazado_231236" data-name="Trazado 231236" d="M258.291.212s.175,0,.521.016a11.185,11.185,0,0,1,1.542.119,14.327,14.327,0,0,1,5.709,1.971,14.6,14.6,0,0,1,3.472,2.814,15.21,15.21,0,0,1,2.9,4.543,15.765,15.765,0,0,1,1.141,6.178q0,3.371.008,7.174c.011,20.278.029,49.614.051,85.861.007,36.251.014,79.415.021,127.343v22.807a16.247,16.247,0,0,1-.583,4.642,15.387,15.387,0,0,1-1.943,4.289,16.47,16.47,0,0,1-3.17,3.517,15.4,15.4,0,0,1-8.788,3.412c-3.191.093-6.36.023-9.565.043l-19.381-.008-39.775-.02-20.343-.011-10.275-.006a16.083,16.083,0,0,1-9.911-2.737,15.58,15.58,0,0,1-6.033-8.333,16.753,16.753,0,0,1-.636-5.149q0-2.569,0-5.131,0-10.243,0-20.349.006-20.206.011-39.786c.009-26.084.019-51.243.027-75.211s.023-46.743.033-68.058q.01-15.986.018-30.842,0-1.855,0-3.692c.008-.613.052-1.233.085-1.846.107-.6.155-1.221.312-1.814a15.563,15.563,0,0,1,3.2-6.448,15.848,15.848,0,0,1,5.644-4.218A15.973,15.973,0,0,1,159.357,0l13.265.015L179,.025l3.127,0a4.874,4.874,0,0,1,3,.837,5.035,5.035,0,0,1,1.862,2.445,8.153,8.153,0,0,1,.308,3.005q0,.744,0,1.481a11.019,11.019,0,0,0,.047,1.451,4.813,4.813,0,0,0,1.136,2.547A4.491,4.491,0,0,0,190.8,13.24a5.165,5.165,0,0,0,1.371.135l1.4,0,5.493.007,20.067.03,8.847.015c.7-.013,1.409.031,2.072-.027a4.467,4.467,0,0,0,1.863-.655,4.815,4.815,0,0,0,2.133-3.066,8.4,8.4,0,0,0,.119-1.848q0-.924,0-1.82a10.412,10.412,0,0,1,.081-1.775,5.15,5.15,0,0,1,.574-1.63A4.8,4.8,0,0,1,237.259.46a7.617,7.617,0,0,1,3.022-.322l9.871.026,6.071.025c1.367.007,2.068.023,2.068.023s-.7.015-2.068.021l-6.071.018-9.871.015a7.527,7.527,0,0,0-2.971.322,4.664,4.664,0,0,0-2.352,2.091,5.011,5.011,0,0,0-.552,1.584,10.172,10.172,0,0,0-.073,1.749q0,.9,0,1.82a8.613,8.613,0,0,1-.118,1.883,4.989,4.989,0,0,1-2.2,3.181,4.649,4.649,0,0,1-1.937.685c-.7.062-1.385.019-2.092.032l-8.847,0-20.067.006h-6.895a5.467,5.467,0,0,1-1.432-.14,4.75,4.75,0,0,1-2.459-1.522,5.069,5.069,0,0,1-1.2-2.681,11.277,11.277,0,0,1-.052-1.485q0-.737,0-1.481a7.911,7.911,0,0,0-.3-2.915,4.76,4.76,0,0,0-1.764-2.31,4.58,4.58,0,0,0-2.84-.785H159.357a15.662,15.662,0,0,0-6.64,1.26A15.535,15.535,0,0,0,147.192,5.7a15.248,15.248,0,0,0-3.128,6.317c-.154.579-.2,1.182-.3,1.775-.031.6-.075,1.2-.082,1.812q0,1.837,0,3.692,0,14.839.007,30.842c0,21.316,0,44.09.006,68.058s0,49.128,0,75.211q0,19.563,0,39.786,0,10.1,0,20.35,0,2.561,0,5.13a16.323,16.323,0,0,0,.618,5.027,15.149,15.149,0,0,0,5.864,8.1,15.644,15.644,0,0,0,9.667,2.66l10.275.007,20.343.013,39.775.026,19.382.014c3.193-.019,6.4.052,9.539-.04a14.983,14.983,0,0,0,8.554-3.316,16.071,16.071,0,0,0,3.087-3.424,14.974,14.974,0,0,0,1.893-4.174,15.862,15.862,0,0,0,.57-4.533q0-2.314,0-4.615,0-9.2.007-18.192c.026-47.928.051-91.091.07-127.343.036-36.248.066-65.584.086-85.861q.006-3.8.01-7.174a15.605,15.605,0,0,0-1.11-6.129,15.136,15.136,0,0,0-2.858-4.519,14.54,14.54,0,0,0-3.438-2.812,14.411,14.411,0,0,0-5.67-2A12.086,12.086,0,0,0,258.811.25c-.345-.021-.52-.038-.52-.038" transform="translate(-10.624 0)" fill="#263238"/>
              <path id="Trazado_231237" data-name="Trazado 231237" d="M269.784,26.844c0,.066-2.515.139-5.616.165s-5.619-.006-5.62-.072,2.514-.139,5.617-.165,5.618.006,5.619.072" transform="translate(-19.174 -1.985)" fill="#263238"/>
              <path id="Trazado_231238" data-name="Trazado 231238" d="M269.81,29.949c0,.066-2.515.139-5.617.165s-5.618-.006-5.619-.072,2.514-.139,5.617-.165,5.618.006,5.619.072" transform="translate(-19.176 -2.215)" fill="#263238"/>
              <path id="Trazado_231239" data-name="Trazado 231239" d="M269.835,33.054c0,.066-2.515.139-5.616.165s-5.619-.006-5.62-.072,2.514-.139,5.617-.165,5.618.006,5.619.072" transform="translate(-19.178 -2.445)" fill="#263238"/>
              <path id="Trazado_231240" data-name="Trazado 231240" d="M160.3,35.851a1.958,1.958,0,0,1,.233-.015l.65-.022,2.4-.057-.066.068c-.009-.531-.019-1.113-.029-1.74,0-.323-.028-.628,0-1a.923.923,0,0,1,.805-.74c.386-.007.727-.025,1.146-.006a.931.931,0,0,1,.786.926c.009.811.019,1.659.03,2.538l-.112-.109,3.027-.031-.115.118c-.011-1.219-.022-2.479-.034-3.771q0-.483-.007-.96a.977.977,0,0,0-.426-.715l-1.323-1.3-1.276-1.259-.619-.611c-.212-.206-.379-.417-.626-.468a.81.81,0,0,0-.693.133c-.184.155-.379.373-.564.554l-1.086,1.1c-.682.709-1.394,1.357-1.912,1.97a2.148,2.148,0,0,0-.152,1.13q0,.562,0,1.067-.007.98-.011,1.717c0,.439-.009.8-.012,1.1,0,.253-.009.39-.015.4a2.9,2.9,0,0,1-.02-.364c-.008-.293-.019-.649-.031-1.081q-.017-.743-.04-1.731-.008-.514-.019-1.088c0-.194-.007-.392-.009-.594a1.257,1.257,0,0,1,.167-.633c.56-.686,1.229-1.293,1.916-2.024l1.078-1.1c.193-.191.353-.381.583-.579a1.03,1.03,0,0,1,.878-.173,1.628,1.628,0,0,1,.727.519l.621.608,1.28,1.255,1.326,1.3a2.469,2.469,0,0,1,.338.366.989.989,0,0,1,.158.511q0,.479.008.965c.01,1.292.02,2.552.03,3.771v.117h-.117l-3.027.019h-.11V35.8c0-.879-.009-1.727-.014-2.538a.729.729,0,0,0-.611-.734c-.348-.019-.758-.006-1.1,0a.742.742,0,0,0-.653.589c-.03.3-.007.659-.013.967v1.808h-.066l-2.44-.017-.635-.011a1.134,1.134,0,0,1-.209-.012" transform="translate(-11.879 -1.961)" fill="#263238"/>
              <path id="Trazado_231241" data-name="Trazado 231241" d="M253.408,72.317H163.569a8.138,8.138,0,0,1-8.139-8.138V61.154a8.14,8.14,0,0,1,8.139-8.14h89.839a8.14,8.14,0,0,1,8.139,8.14v3.025a8.138,8.138,0,0,1-8.139,8.138" transform="translate(-11.527 -3.932)" fill="#f5f5f5"/>
              <path id="Trazado_231242" data-name="Trazado 231242" d="M253.392,72.3s.207-.023.609-.05a8.718,8.718,0,0,0,1.752-.341,8.408,8.408,0,0,0,2.553-1.342,7.987,7.987,0,0,0,2.42-3.068,7.77,7.77,0,0,0,.639-2.25,20.665,20.665,0,0,0,.073-2.6,17.456,17.456,0,0,0-.126-2.828,8.032,8.032,0,0,0-6.409-6.55,22.2,22.2,0,0,0-3.689-.141l-3.921.006-83.734.058a7.958,7.958,0,0,0-7.915,7.283c-.067.961-.019,1.978-.033,2.958a9.219,9.219,0,0,0,.3,2.87,8,8,0,0,0,3.288,4.5,7.658,7.658,0,0,0,2.57,1.1,11.718,11.718,0,0,0,2.792.21l5.62,0,10.882.006,37.645.043,25.378.063,6.9.036,1.794.02c.4.007.611.019.611.019s-.207.015-.611.02l-1.794.02c-1.59.007-3.912.021-6.9.037l-25.378.062-37.645.044-10.882.006-5.62,0a12.1,12.1,0,0,1-2.878-.217,8.055,8.055,0,0,1-2.7-1.148,8.392,8.392,0,0,1-3.451-4.714,9.633,9.633,0,0,1-.317-2.977c.015-1-.035-1.965.033-2.99a8.349,8.349,0,0,1,8.307-7.645l83.734.058q2.01,0,3.921.006a22.3,22.3,0,0,1,3.737.158,8.249,8.249,0,0,1,6.564,6.764,17.566,17.566,0,0,1,.111,2.861,20.561,20.561,0,0,1-.092,2.623,7.91,7.91,0,0,1-.668,2.29,8.059,8.059,0,0,1-2.489,3.1,8.355,8.355,0,0,1-2.6,1.326,8.242,8.242,0,0,1-1.772.3c-.4.014-.612.01-.612.01" transform="translate(-11.511 -3.916)" fill="#263238"/>
              <path id="Trazado_231243" data-name="Trazado 231243" d="M262.449,62.648c-.038,0-.034-.311-.184-.835a3.486,3.486,0,0,0-1.281-1.833,3.327,3.327,0,1,0,0,5.337,3.49,3.49,0,0,0,1.281-1.833c.15-.524.146-.837.184-.835.014,0,.023.077.029.225a2.611,2.611,0,0,1-.063.647,3.48,3.48,0,0,1-1.262,2.017,3.623,3.623,0,0,1-3.453.566,3.666,3.666,0,0,1,0-6.91,3.625,3.625,0,0,1,3.453.565,3.478,3.478,0,0,1,1.261,2.018,2.577,2.577,0,0,1,.064.647c-.006.148-.015.225-.029.225" transform="translate(-18.93 -4.374)" fill="#263238"/>
              <path id="Trazado_231244" data-name="Trazado 231244" d="M264.853,69.181a6.9,6.9,0,0,1-1.711-1.561,6.948,6.948,0,0,1-1.421-1.829,6.881,6.881,0,0,1,1.711,1.561,6.934,6.934,0,0,1,1.421,1.829" transform="translate(-19.409 -4.879)" fill="#263238"/>
              <path id="Trazado_231245" data-name="Trazado 231245" d="M170.752,61.314h-1.892v-.493h4.355v.493h-1.893v4.894h-.569Z" transform="translate(-12.523 -4.511)" fill="#e0e0e0"/>
              <path id="Trazado_231246" data-name="Trazado 231246" d="M177.454,64.459h-3.386a1.5,1.5,0,0,0,1.592,1.408,1.593,1.593,0,0,0,1.24-.531l.307.355a2.14,2.14,0,0,1-3.686-1.4,1.949,1.949,0,0,1,1.978-2.054,1.929,1.929,0,0,1,1.962,2.054c0,.046-.007.107-.007.169m-3.386-.408h2.87a1.438,1.438,0,0,0-2.87,0" transform="translate(-12.869 -4.615)" fill="#e0e0e0"/>
              <path id="Trazado_231247" data-name="Trazado 231247" d="M181.386,66.316,180.1,64.622l-1.293,1.693h-.615l1.6-2.078-1.523-1.97h.616l1.216,1.585,1.216-1.585h.6l-1.523,1.97,1.616,2.078Z" transform="translate(-13.215 -4.618)" fill="#e0e0e0"/>
              <path id="Trazado_231248" data-name="Trazado 231248" d="M185.377,66a1.3,1.3,0,0,1-.855.284,1.072,1.072,0,0,1-1.185-1.177V62.659h-.723V62.2h.723v-.885h.546V62.2h1.231v.462h-1.231v2.416a.648.648,0,0,0,.7.739.906.906,0,0,0,.6-.207Z" transform="translate(-13.543 -4.547)" fill="#e0e0e0"/>
              <path id="Trazado_231249" data-name="Trazado 231249" d="M230.836,93.7c0,.109-7.767.2-17.346.2s-17.347-.088-17.347-.2,7.765-.2,17.347-.2,17.346.088,17.346.2" transform="translate(-14.546 -6.934)" fill="#e8505b"/>
              <path id="Trazado_231250" data-name="Trazado 231250" d="M258.5,101.392c0,.109-13.96.2-31.176.2s-31.179-.088-31.179-.2,13.957-.2,31.179-.2,31.176.088,31.176.2" transform="translate(-14.546 -7.505)" fill="#263238"/>
              <path id="Trazado_231251" data-name="Trazado 231251" d="M257.765,106.884c0,.109-13.8.2-30.81.2s-30.812-.088-30.812-.2,13.792-.2,30.812-.2,30.81.088,30.81.2" transform="translate(-14.546 -7.912)" fill="#263238"/>
              <path id="Trazado_231252" data-name="Trazado 231252" d="M232.527,112.123c0,.11-8.146.2-18.191.2s-18.193-.088-18.193-.2,8.144-.2,18.193-.2,18.191.088,18.191.2" transform="translate(-14.546 -8.301)" fill="#263238"/>
              <path id="Trazado_231253" data-name="Trazado 231253" d="M230.836,135.5c0,.109-7.767.2-17.346.2s-17.347-.088-17.347-.2,7.765-.2,17.347-.2,17.346.088,17.346.2" transform="translate(-14.546 -10.034)" fill="#e8505b"/>
              <path id="Trazado_231254" data-name="Trazado 231254" d="M258.5,143.19c0,.109-13.96.2-31.176.2s-31.179-.088-31.179-.2,13.957-.2,31.179-.2,31.176.089,31.176.2" transform="translate(-14.546 -10.604)" fill="#263238"/>
              <path id="Trazado_231255" data-name="Trazado 231255" d="M257.765,148.682c0,.109-13.8.2-30.81.2s-30.812-.088-30.812-.2,13.792-.2,30.812-.2,30.81.088,30.81.2" transform="translate(-14.546 -11.012)" fill="#263238"/>
              <path id="Trazado_231256" data-name="Trazado 231256" d="M232.527,153.921c0,.109-8.146.2-18.191.2s-18.193-.088-18.193-.2,8.144-.2,18.193-.2,18.191.088,18.191.2" transform="translate(-14.546 -11.4)" fill="#263238"/>
              <path id="Trazado_231257" data-name="Trazado 231257" d="M230.836,177.3c0,.109-7.767.2-17.346.2s-17.347-.088-17.347-.2,7.765-.2,17.347-.2,17.346.088,17.346.2" transform="translate(-14.546 -13.134)" fill="#e8505b"/>
              <path id="Trazado_231258" data-name="Trazado 231258" d="M258.5,184.988c0,.109-13.96.2-31.176.2s-31.179-.089-31.179-.2,13.957-.2,31.179-.2,31.176.088,31.176.2" transform="translate(-14.546 -13.704)" fill="#263238"/>
              <path id="Trazado_231259" data-name="Trazado 231259" d="M257.765,190.48c0,.109-13.8.2-30.81.2s-30.812-.088-30.812-.2,13.792-.2,30.812-.2,30.81.088,30.81.2" transform="translate(-14.546 -14.112)" fill="#263238"/>
              <path id="Trazado_231260" data-name="Trazado 231260" d="M232.527,195.719c0,.109-8.146.2-18.191.2s-18.193-.089-18.193-.2,8.144-.2,18.193-.2,18.191.088,18.191.2" transform="translate(-14.546 -14.5)" fill="#263238"/>
              <path id="Trazado_231261" data-name="Trazado 231261" d="M230.836,219.1c0,.109-7.767.2-17.346.2s-17.347-.088-17.347-.2,7.765-.2,17.347-.2,17.346.089,17.346.2" transform="translate(-14.546 -16.234)" fill="#e8505b"/>
              <path id="Trazado_231262" data-name="Trazado 231262" d="M258.5,226.786c0,.109-13.96.2-31.176.2s-31.179-.088-31.179-.2,13.957-.2,31.179-.2,31.176.088,31.176.2" transform="translate(-14.546 -16.804)" fill="#263238"/>
              <path id="Trazado_231263" data-name="Trazado 231263" d="M257.765,232.278c0,.109-13.8.2-30.81.2s-30.812-.088-30.812-.2,13.792-.2,30.812-.2,30.81.088,30.81.2" transform="translate(-14.546 -17.211)" fill="#263238"/>
              <path id="Trazado_231264" data-name="Trazado 231264" d="M232.527,237.517c0,.109-8.146.2-18.191.2s-18.193-.088-18.193-.2,8.144-.2,18.193-.2,18.191.088,18.191.2" transform="translate(-14.546 -17.6)" fill="#263238"/>
              <path id="Trazado_231265" data-name="Trazado 231265" d="M230.836,260.6c0,.109-7.767.2-17.346.2s-17.347-.088-17.347-.2,7.765-.2,17.347-.2,17.346.089,17.346.2" transform="translate(-14.546 -19.312)" fill="#e8505b"/>
              <path id="Trazado_231266" data-name="Trazado 231266" d="M258.5,268.29c0,.109-13.96.2-31.176.2s-31.179-.088-31.179-.2,13.957-.2,31.179-.2,31.176.088,31.176.2" transform="translate(-14.546 -19.882)" fill="#263238"/>
              <path id="Trazado_231267" data-name="Trazado 231267" d="M257.765,273.782c0,.109-13.8.2-30.81.2s-30.812-.088-30.812-.2,13.792-.2,30.812-.2,30.81.089,30.81.2" transform="translate(-14.546 -20.289)" fill="#263238"/>
              <path id="Trazado_231268" data-name="Trazado 231268" d="M232.527,279.022c0,.109-8.146.2-18.191.2s-18.193-.088-18.193-.2,8.144-.2,18.193-.2,18.191.088,18.191.2" transform="translate(-14.546 -20.678)" fill="#263238"/>
              <rect id="Rectángulo_58030" data-name="Rectángulo 58030" width="21.24" height="28.259" transform="translate(144.326 107.721) rotate(-89.681)" fill="#afafaf"/>
              <path id="Trazado_231269" data-name="Trazado 231269" d="M155.886,115.3l9.944-13.147,6.068,8.294,4.172-4.392,8.075,9.4Z" transform="translate(-11.561 -7.575)" fill="#636363"/>
              <path id="Trazado_231270" data-name="Trazado 231270" d="M175.687,100.275a2.225,2.225,0,1,1-2.213-2.237,2.225,2.225,0,0,1,2.213,2.237" transform="translate(-12.699 -7.271)" fill="#636363"/>
              <rect id="Rectángulo_58033" data-name="Rectángulo 58033" width="21.24" height="28.259" transform="translate(144.326 145.926) rotate(-89.681)" fill="#afafaf"/>
              <path id="Trazado_231273" data-name="Trazado 231273" d="M155.886,156.562l9.944-13.148,6.068,8.295,4.172-4.393,8.075,9.4Z" transform="translate(-11.561 -10.636)" fill="#636363"/>
              <path id="Trazado_231274" data-name="Trazado 231274" d="M175.687,141.541a2.225,2.225,0,1,1-2.213-2.238,2.225,2.225,0,0,1,2.213,2.238" transform="translate(-12.699 -10.331)" fill="#e8505b"/>
              <g id="Grupo_180132" data-name="Grupo 180132" transform="translate(158.537 128.972)" opacity="0.2">
                <g id="Grupo_180131" data-name="Grupo 180131">
                  <g id="Grupo_180130" data-name="Grupo 180130" clip-path="url(#clip-path-6)">
                    <path id="Trazado_231276" data-name="Trazado 231276" d="M175.687,141.541a2.225,2.225,0,1,1-2.213-2.238,2.225,2.225,0,0,1,2.213,2.238" transform="translate(-171.236 -139.303)"/>
                  </g>
                </g>
              </g>
              <rect id="Rectángulo_58036" data-name="Rectángulo 58036" width="21.24" height="28.259" transform="translate(144.326 184.132) rotate(-89.681)" fill="#afafaf"/>
              <path id="Trazado_231277" data-name="Trazado 231277" d="M155.886,197.828l9.944-13.147,6.068,8.294,4.172-4.392,8.075,9.4Z" transform="translate(-11.561 -13.696)" fill="#636363"/>
              <path id="Trazado_231278" data-name="Trazado 231278" d="M175.687,182.807a2.225,2.225,0,1,1-2.213-2.238,2.225,2.225,0,0,1,2.213,2.238" transform="translate(-12.699 -13.391)" fill="#636363"/>
              <rect id="Rectángulo_58039" data-name="Rectángulo 58039" width="21.24" height="28.259" transform="translate(144.326 222.338) rotate(-89.681)" fill="#afafaf"/>
              <path id="Trazado_231281" data-name="Trazado 231281" d="M155.886,239.094l9.944-13.148,6.068,8.295,4.172-4.393,8.075,9.4Z" transform="translate(-11.561 -16.756)" fill="#636363"/>
              <path id="Trazado_231282" data-name="Trazado 231282" d="M175.687,224.073a2.225,2.225,0,1,1-2.213-2.238,2.225,2.225,0,0,1,2.213,2.238" transform="translate(-12.699 -16.451)" fill="#636363"/>
              <rect id="Rectángulo_58042" data-name="Rectángulo 58042" width="21.24" height="28.259" transform="translate(144.326 260.357) rotate(-89.681)" fill="#afafaf"/>
              <path id="Trazado_231285" data-name="Trazado 231285" d="M155.886,280.159l9.944-13.147,6.068,8.294,4.172-4.392,8.075,9.4Z" transform="translate(-11.561 -19.802)" fill="#636363"/>
              <path id="Trazado_231286" data-name="Trazado 231286" d="M175.687,265.138a2.225,2.225,0,1,1-2.213-2.237,2.225,2.225,0,0,1,2.213,2.237" transform="translate(-12.699 -19.497)" fill="#636363"/>
              <path id="Trazado_231289" data-name="Trazado 231289" d="M394.708,53.289a10.076,10.076,0,1,1-10.077-10.076,10.077,10.077,0,0,1,10.077,10.076" transform="translate(-27.777 -3.205)" fill="#afafaf"/>
              <path id="Trazado_231290" data-name="Trazado 231290" d="M384.477,57.11a.46.46,0,0,1-.294-.106l-3.391-2.791a.462.462,0,1,1,.587-.715l3.034,2.5,4.3-5.268a.462.462,0,1,1,.716.586l-4.6,5.627a.465.465,0,0,1-.313.169l-.045,0" transform="translate(-28.227 -3.749)" fill="#fff"/>
              <path id="Trazado_231291" data-name="Trazado 231291" d="M351.192,38.072A13.811,13.811,0,1,1,337.381,24.26a13.812,13.812,0,0,1,13.812,13.812" transform="translate(-23.996 -1.799)" fill="#ffd800"/>
              <path id="Trazado_231292" data-name="Trazado 231292" d="M337.148,43.578a.929.929,0,0,1-.589-.211l-4.648-3.826a.926.926,0,1,1,1.177-1.43l3.93,3.236,5.716-6.994a.926.926,0,0,1,1.434,1.171l-6.3,7.714a.921.921,0,0,1-.625.335c-.031,0-.062,0-.092,0" transform="translate(-24.59 -2.522)" fill="#fff"/>
            </g>
          </g>
          <g id="Grupo_180154" data-name="Grupo 180154">
            <g id="Grupo_180153" data-name="Grupo 180153" clip-path="url(#clip-path)">
              <path id="Trazado_231293" data-name="Trazado 231293" d="M273.437,239.11a28.783,28.783,0,0,1-20.35-33.333c-.264.71-.509,1.432-.72,2.174a28.787,28.787,0,0,0,55.38,15.741c.21-.742.38-1.484.53-2.228a28.784,28.784,0,0,1-34.84,17.646" transform="translate(-18.634 -15.261)" fill="#263238"/>
              <path id="Trazado_231294" data-name="Trazado 231294" d="M287.748,186.377A28.783,28.783,0,0,1,308.1,219.71c.263-.711.509-1.432.72-2.174a28.787,28.787,0,0,0-55.38-15.741c-.21.742-.381,1.484-.531,2.228a28.783,28.783,0,0,1,34.84-17.646" transform="translate(-18.756 -13.414)" fill="#455a64"/>
              <path id="Trazado_231295" data-name="Trazado 231295" d="M309.11,217.317s.019-.158.081-.461c.068-.321.163-.767.284-1.34q.1-.443.215-.984c.063-.365.1-.77.151-1.205a20.986,20.986,0,0,0,.232-3.019,27.5,27.5,0,0,0-.987-8.208,28.753,28.753,0,0,0-14.913-18.221,26.7,26.7,0,0,0-3.363-1.389c-.587-.188-1.167-.416-1.773-.577l-1.845-.423c-.311-.065-.618-.155-.935-.2l-.957-.119c-.64-.072-1.282-.178-1.934-.225a30.236,30.236,0,0,0-3.969.035,29.725,29.725,0,0,0-4.03.557c-.669.15-1.331.358-2,.536a14.6,14.6,0,0,0-1.981.671,26.107,26.107,0,0,0-7.464,4.182,27.662,27.662,0,0,0-6.075,6.449,28.289,28.289,0,0,0-4.928,17.33,27.676,27.676,0,0,0,1.774,8.683,26.122,26.122,0,0,0,4.149,7.484,14.553,14.553,0,0,0,1.333,1.614c.477.5.93,1.03,1.419,1.509a29.816,29.816,0,0,0,3.136,2.594,30.32,30.32,0,0,0,3.357,2.118c.58.3,1.181.551,1.764.826l.877.4c.293.128.6.213.9.321l1.792.612c.6.181,1.213.293,1.812.441a26.681,26.681,0,0,0,3.59.588,28.751,28.751,0,0,0,22.266-7.654,27.469,27.469,0,0,0,5.156-6.461,21,21,0,0,0,1.391-2.69c.181-.4.368-.761.506-1.1q.183-.522.335-.95.3-.826.462-1.288c.107-.29.174-.435.174-.435s-.035.155-.127.449c-.1.313-.239.747-.418,1.306q-.142.433-.314.962c-.132.347-.311.714-.487,1.118a20.431,20.431,0,0,1-1.36,2.725,27.27,27.27,0,0,1-5.133,6.564,28.951,28.951,0,0,1-22.489,7.856,26.976,26.976,0,0,1-3.643-.583c-.607-.148-1.23-.261-1.839-.443l-1.821-.615c-.3-.108-.617-.2-.915-.323l-.891-.406c-.593-.278-1.2-.529-1.792-.834a31.7,31.7,0,0,1-6.606-4.771c-.5-.487-.959-1.018-1.445-1.53a15.016,15.016,0,0,1-1.357-1.637,26.595,26.595,0,0,1-4.226-7.6,28.112,28.112,0,0,1-1.811-8.828,28.73,28.73,0,0,1,5.011-17.62,28.1,28.1,0,0,1,6.183-6.553,26.537,26.537,0,0,1,7.591-4.239,14.735,14.735,0,0,1,2.016-.679c.682-.18,1.354-.39,2.034-.541a30.063,30.063,0,0,1,4.1-.558,30.536,30.536,0,0,1,4.031-.025c.661.049,1.313.157,1.963.232l.97.124c.321.048.633.14.949.206l1.871.434c.613.166,1.2.4,1.8.592a26.783,26.783,0,0,1,3.405,1.42,28.946,28.946,0,0,1,14.995,18.508,27.259,27.259,0,0,1,.914,8.284,20.381,20.381,0,0,1-.276,3.033c-.064.436-.1.843-.175,1.208l-.238.983-.331,1.331c-.078.3-.129.448-.129.448" transform="translate(-18.719 -13.383)" fill="#263238"/>
              <path id="Trazado_231296" data-name="Trazado 231296" d="M301.836,237.508c.363.247,27.624,25.389,37.658,34.79a4.375,4.375,0,1,0,5.975-6.391l-37.414-34.561Z" transform="translate(-22.384 -17.157)" fill="#263238"/>
            </g>
          </g>
          <g id="Grupo_180165" data-name="Grupo 180165">
            <g id="Grupo_180164" data-name="Grupo 180164" clip-path="url(#clip-path)">
              <path id="Trazado_231297" data-name="Trazado 231297" d="M149.248,137.989l.554-2.192a8.176,8.176,0,0,0-.094-4.353l-2.286-7.634a2.865,2.865,0,0,0-1.315-1.659c-1.736-1-5.174-2.924-5.466-2.681-2.1,1.75,2.6,4.836,2.6,4.836s1.814,2.02.378,3.521c-1.632,1.706-4.7-2.034-4.7-2.034s.162-.39.309-.317a6.052,6.052,0,0,0,2.954,1.271l0-2.483L139.4,122.52a2.8,2.8,0,0,0-2.066-.364l-.962.206a2.443,2.443,0,0,0-1.522,1.034l-.914,1.371-.387.521a1.741,1.741,0,0,0-.188,1.761l.442.971-.6.855a2.618,2.618,0,0,0-.312,2.441l4.692,6.451,6.949,11.338,7.519-8.077Z" transform="translate(-9.842 -8.858)" fill="#ffbe9d"/>
              <path id="Trazado_231298" data-name="Trazado 231298" d="M134.761,131.923a1.57,1.57,0,0,1-.251-.467,1.306,1.306,0,0,1,.231-1.2l.034-.044-.025-.053-.081-.166a11.773,11.773,0,0,0-1-1.836,12.014,12.014,0,0,0,.838,1.917l.081.166.009-.1a1.363,1.363,0,0,0-.2,1.354c.138.338.359.453.368.424" transform="translate(-9.912 -9.504)" fill="#eb996e"/>
              <path id="Trazado_231299" data-name="Trazado 231299" d="M135.439,123.141a2.2,2.2,0,0,0-.143,1.3,10.076,10.076,0,0,0,1.266,2.987,3.849,3.849,0,0,1,.44.871,2.388,2.388,0,0,1,.056.923,2.251,2.251,0,0,0,.165,1.388,2.7,2.7,0,0,0,.91.946,1.558,1.558,0,0,1-1.09-.848,2.369,2.369,0,0,1-.251-1.505,2.2,2.2,0,0,0-.06-.82,3.813,3.813,0,0,0-.417-.8,8.735,8.735,0,0,1-1.22-3.109,1.406,1.406,0,0,1,.344-1.329" transform="translate(-10.017 -9.132)" fill="#eb996e"/>
              <path id="Trazado_231300" data-name="Trazado 231300" d="M139.4,126.013a6.071,6.071,0,0,0-.353-1.033c-.282-.532-.594-.942-.528-1s.471.28.785.867c.342.6.184,1.206.1,1.166" transform="translate(-10.272 -9.194)" fill="#eb996e"/>
              <path id="Trazado_231301" data-name="Trazado 231301" d="M152.438,178.181l2.865,3.59,14.864-17.862L150.705,138.3l-9.625,7.549Z" transform="translate(-10.463 -10.256)" fill="#262f43"/>
              <path id="Trazado_231302" data-name="Trazado 231302" d="M224.8,367.986l1.231,29.019,15.669-.352-1.173-29.077Z" transform="translate(-16.671 -27.26)" fill="#262f43"/>
              <path id="Trazado_231303" data-name="Trazado 231303" d="M234.308,395.721c.131-.007-.112-6.362-.543-14.192s-.886-14.175-1.017-14.167.112,6.361.543,14.193.886,14.174,1.017,14.166" transform="translate(-17.258 -27.244)" fill="#263238"/>
              <path id="Trazado_231304" data-name="Trazado 231304" d="M226.034,397.169l15.672-.4.082,2.053-15.669.351Z" transform="translate(-16.763 -29.424)" fill="#263238"/>
              <path id="Trazado_231305" data-name="Trazado 231305" d="M241.407,388.6c.023-.019-.122-.244-.431-.616a10.879,10.879,0,0,0-1.465-1.427,10.591,10.591,0,0,0-2.607-1.579,8.343,8.343,0,0,0-9.669,2.261A7.208,7.208,0,0,0,226.169,389a2.029,2.029,0,0,0-.216.72,16.361,16.361,0,0,1,1.537-2.257,8.346,8.346,0,0,1,5.754-2.681,9.6,9.6,0,0,1,6.062,2.045c1.359,1.007,2.037,1.835,2.1,1.778" transform="translate(-16.756 -28.499)" fill="#263238"/>
              <g id="Grupo_180157" data-name="Grupo 180157" transform="translate(208.504 348.593)" opacity="0.3">
                <g id="Grupo_180156" data-name="Grupo 180156">
                  <g id="Grupo_180155" data-name="Grupo 180155" clip-path="url(#clip-path-9)">
                    <path id="Trazado_231306" data-name="Trazado 231306" d="M240.887,376.515l.129,3.2-15.709.281-.1-2.407Z" transform="translate(-225.205 -376.515)"/>
                  </g>
                </g>
              </g>
              <path id="Trazado_231307" data-name="Trazado 231307" d="M183.586,369.881l.765,17.662s-17.7,6.71-17.872,9.988l34.3-.253-.063-27.571Z" transform="translate(-12.346 -27.418)" fill="#262f43"/>
              <path id="Trazado_231308" data-name="Trazado 231308" d="M196.846,387.348a1.411,1.411,0,0,1,.988,1.6,1.356,1.356,0,0,1-1.58.992,1.488,1.488,0,0,1-1.037-1.7,1.406,1.406,0,0,1,1.758-.85" transform="translate(-14.474 -28.722)" fill="#e0e0e0"/>
              <path id="Trazado_231309" data-name="Trazado 231309" d="M200.757,399.264l-.006-2.76-33.188,1.253s-1.533.68-1.351,1.762Z" transform="translate(-12.325 -29.405)" fill="#263238"/>
              <path id="Trazado_231310" data-name="Trazado 231310" d="M185.446,389.083c.007.168.851.239,1.685.775.848.515,1.281,1.242,1.436,1.174.155-.033-.1-1.041-1.125-1.672s-2.034-.432-2-.277" transform="translate(-13.753 -28.843)" fill="#263238"/>
              <path id="Trazado_231311" data-name="Trazado 231311" d="M181.545,390.738c-.037.164.7.445,1.273,1.155.6.693.75,1.463.918,1.455.159.025.269-.964-.467-1.832s-1.72-.938-1.723-.777" transform="translate(-13.463 -28.972)" fill="#263238"/>
              <path id="Trazado_231312" data-name="Trazado 231312" d="M179.246,395.212c.154.035.382-.81-.057-1.73s-1.232-1.282-1.3-1.142c-.094.14.422.631.771,1.393.368.754.421,1.464.589,1.479" transform="translate(-13.191 -29.094)" fill="#263238"/>
              <path id="Trazado_231313" data-name="Trazado 231313" d="M185.741,384.646c.072.154.844-.085,1.8-.028.956.039,1.7.353,1.787.207.1-.122-.632-.742-1.757-.793s-1.911.481-1.828.614" transform="translate(-13.774 -28.48)" fill="#263238"/>
              <path id="Trazado_231314" data-name="Trazado 231314" d="M185.048,380.364a3.244,3.244,0,0,0,1.73-.021,7.806,7.806,0,0,0,1.805-.569,8.19,8.19,0,0,0,.99-.535,2.128,2.128,0,0,0,.519-.41.736.736,0,0,0,.071-.9.925.925,0,0,0-.742-.38,2.252,2.252,0,0,0-.648.094,6.273,6.273,0,0,0-1.073.377,6.132,6.132,0,0,0-1.588,1.059c-.8.748-1.065,1.38-1.006,1.413.077.055.463-.476,1.274-1.1a6.9,6.9,0,0,1,1.537-.88,6.478,6.478,0,0,1,.991-.314c.366-.1.677-.1.771.058.035.062.04.087-.036.194a1.739,1.739,0,0,1-.382.3,8.925,8.925,0,0,1-.91.529,9.554,9.554,0,0,1-1.667.654,11.831,11.831,0,0,0-1.635.426" transform="translate(-13.723 -27.999)" fill="#263238"/>
              <path id="Trazado_231315" data-name="Trazado 231315" d="M185.1,380.411a2.755,2.755,0,0,0,.444-1.675,5.628,5.628,0,0,0-.249-1.891,5.7,5.7,0,0,0-.449-1.048,1.429,1.429,0,0,0-1.11-.865.806.806,0,0,0-.718.488,2.315,2.315,0,0,0-.173.635,3.834,3.834,0,0,0,.007,1.166,3.972,3.972,0,0,0,.752,1.781c.682.891,1.388,1.087,1.4,1.03.056-.085-.534-.406-1.057-1.263a3.992,3.992,0,0,1-.559-1.622,3.571,3.571,0,0,1,.024-1c.052-.368.187-.665.325-.628.171,0,.466.27.609.562a5.688,5.688,0,0,1,.435.935,6.2,6.2,0,0,1,.348,1.723c.055,1.015-.12,1.647-.029,1.672" transform="translate(-13.557 -27.805)" fill="#263238"/>
              <g id="Grupo_180160" data-name="Grupo 180160" transform="translate(171.86 352.881)" opacity="0.3">
                <g id="Grupo_180159" data-name="Grupo 180159">
                  <g id="Grupo_180158" data-name="Grupo 180158" clip-path="url(#clip-path-10)">
                    <path id="Trazado_231316" data-name="Trazado 231316" d="M202.2,381.148l-.034,3.919H185.627v-3.555Z" transform="translate(-185.626 -381.148)"/>
                  </g>
                </g>
              </g>
              <path id="Trazado_231317" data-name="Trazado 231317" d="M263.008,63.423l2.462,9.515s.916,5.262-1.543,5.257c-2.165,0-2.372-2.825-2.372-2.825s1.074-5.758-1.758-5.44c-.393.044-1.428,4.015-1.929,6.04a2.975,2.975,0,0,0,.3,2.184l4.083,7.225a8.521,8.521,0,0,0,3.2,3.213l2.046,1.166.264,4.3,11.492.18-3.5-13.4-1.461-8.179a2.728,2.728,0,0,0-2.058-1.527l-1.078-.162-.411-1.033a1.814,1.814,0,0,0-1.457-1.13l-.671-.084-.943-2.324c-.312-.769-2.564-5.835-3.394-5.824,0,0-1.875.507-1.268,2.853" transform="translate(-19.117 -4.492)" fill="#ffbe9d"/>
              <path id="Trazado_231318" data-name="Trazado 231318" d="M272.061,75.57a8.2,8.2,0,0,0-.219-1.044,3.944,3.944,0,0,0-1.562-1.991,11.515,11.515,0,0,1-.863-2.494,3.348,3.348,0,0,1-.12-1.079c.032,0,.078.407.253,1.046a15.523,15.523,0,0,0,.879,2.4c.172.151.374.294.562.465a3.546,3.546,0,0,1,.468.532,3.492,3.492,0,0,1,.515,1.076,2.9,2.9,0,0,1,.116.793.747.747,0,0,1-.028.292" transform="translate(-19.97 -5.114)" fill="#eb996e"/>
              <path id="Trazado_231319" data-name="Trazado 231319" d="M274.011,74.77a1.633,1.633,0,0,0-.169-.525,1.356,1.356,0,0,0-1.067-.693l-.058-.006-.021-.057c-.021-.058-.044-.119-.066-.181a12.379,12.379,0,0,1-.656-2.079,12.365,12.365,0,0,1,.836,2.013l.066.181-.079-.062a1.42,1.42,0,0,1,1.162.827c.155.346.081.6.053.582" transform="translate(-20.169 -5.282)" fill="#eb996e"/>
              <path id="Trazado_231320" data-name="Trazado 231320" d="M200.507,120.855l20.839-.268-2.327-17.743s1.424-.3,1.519-8.024.45-20.834.45-20.834a26.83,26.83,0,0,0-26.958,3.389l-1.143.88Z" transform="translate(-14.305 -5.325)" fill="#ffbe9d"/>
              <path id="Trazado_231321" data-name="Trazado 231321" d="M195.087,89.008c-.131-.056-5.3-1.568-5.136,3.709s5.433,4.019,5.437,3.868-.3-7.577-.3-7.577" transform="translate(-14.087 -6.583)" fill="#ffbe9d"/>
              <path id="Trazado_231322" data-name="Trazado 231322" d="M222.209,87.822c.132-.056,4.836-1.326,4.667,3.952s-5.432,4.019-5.437,3.867.769-7.82.769-7.82" transform="translate(-16.422 -6.5)" fill="#ffbe9d"/>
              <path id="Trazado_231323" data-name="Trazado 231323" d="M193.652,87.1c.789,4.422.633,6.746,1.363,9.7,1.155,4.674,3.476,8.258,7.686,10.592s9.906,2.292,13.523-.885c2.51-2.205,4.288-4.7,4.661-8.017s.745-9.2.769-12.54c.043-6.025.446-11.786.446-11.786l-17.214-3.115-9.8,5.824Z" transform="translate(-14.361 -5.269)" fill="#263238"/>
              <path id="Trazado_231324" data-name="Trazado 231324" d="M212.357,113.132a7.7,7.7,0,0,1-5.9-.651c.05-.132,1.323.267,2.939.438s2.944.073,2.964.213" transform="translate(-15.311 -8.34)" fill="#263238"/>
              <path id="Trazado_231325" data-name="Trazado 231325" d="M194.365,94.043c-.5-4.531-.831-9.714-1.54-14.491-.266-1.792-.9-4.377-.744-6.183a14.982,14.982,0,0,1,1.131-5.308,7.458,7.458,0,0,1,11.616-2.336,5.591,5.591,0,0,1,10.189,2.358,3.881,3.881,0,0,1,6.4,3.889,3.792,3.792,0,0,1,2.558,5.806c-.8,1.228-2.236,1.9-3.115,3.075a4.4,4.4,0,0,0-.264,4.763" transform="translate(-14.243 -4.691)" fill="#263238"/>
              <path id="Trazado_231326" data-name="Trazado 231326" d="M218.585,78.681a1.164,1.164,0,0,1-.191.5,3.478,3.478,0,0,1-1,1.125,3.6,3.6,0,0,1-2.239.709,3.841,3.841,0,0,1-2.759-1.293l.364-.1a3.586,3.586,0,0,1-2.3,2.64,4.109,4.109,0,0,1-3.88-.489,5.826,5.826,0,0,1-2.184-2.861l.418.047a4.85,4.85,0,0,1-3.9,2.137,4.479,4.479,0,0,1-3.279-1.34,4.552,4.552,0,0,1-1.186-2.018,1.962,1.962,0,0,1-.1-.837c.036,0,.073.29.254.788a4.771,4.771,0,0,0,1.241,1.852,4.227,4.227,0,0,0,3.059,1.151,4.472,4.472,0,0,0,3.517-1.985l.255-.4.163.443a5.425,5.425,0,0,0,2.012,2.619,3.661,3.661,0,0,0,3.443.456,3.179,3.179,0,0,0,2.061-2.279l.078-.438.286.339a3.52,3.52,0,0,0,2.456,1.223,3.431,3.431,0,0,0,2.085-.568,4.922,4.922,0,0,0,1.33-1.42" transform="translate(-14.56 -5.703)" fill="#455a64"/>
              <path id="Trazado_231327" data-name="Trazado 231327" d="M219.314,75.956a4.784,4.784,0,0,0-.735-1.921,3.146,3.146,0,0,0-1.81-1.217,3.272,3.272,0,0,0-2.625.5l-.418.3.044-.517a3.976,3.976,0,0,0-.176-1.517,4.138,4.138,0,0,0-2.117-2.464,4.047,4.047,0,0,0-2.684-.236,5.653,5.653,0,0,0-2.238,1.262c-.02-.015.1-.25.429-.587a4.193,4.193,0,0,1,1.719-1,4.266,4.266,0,0,1,2.959.161,4.492,4.492,0,0,1,2.391,2.72,4.341,4.341,0,0,1,.189,1.71l-.374-.216a3.632,3.632,0,0,1,3-.519,3.372,3.372,0,0,1,1.963,1.444,3.3,3.3,0,0,1,.527,1.519c.027.377-.023.58-.047.578" transform="translate(-15.318 -5.07)" fill="#455a64"/>
              <path id="Trazado_231328" data-name="Trazado 231328" d="M208.31,76.4c-.067-.029.014-.3-.014-.725a3.438,3.438,0,0,0-.539-1.559,16.537,16.537,0,0,0-.994-1.4.507.507,0,0,0-.55-.108c-.027-.009-.028-.118.114-.212a.592.592,0,0,1,.647.053,3.814,3.814,0,0,1,.594.6,6.105,6.105,0,0,1,.6.816,2.889,2.889,0,0,1,.467,1.819c-.065.5-.276.743-.327.714" transform="translate(-15.292 -5.364)" fill="#455a64"/>
              <path id="Trazado_231329" data-name="Trazado 231329" d="M197.449,69.394c-.055-.019,0-.411.321-.963a2.571,2.571,0,0,1,.785-.827,2.052,2.052,0,0,1,1.4-.306,3.356,3.356,0,0,1,2.09,1.31c.385.488.56.822.512.863s-.33-.221-.762-.631a3.606,3.606,0,0,0-1.9-1.064,2.014,2.014,0,0,0-1.843.851c-.363.453-.532.8-.6.767" transform="translate(-14.642 -4.989)" fill="#455a64"/>
              <path id="Trazado_231330" data-name="Trazado 231330" d="M200.145,93.164a8.555,8.555,0,0,1-1.818-3.366,8.574,8.574,0,0,1-.638-3.773c.142-.018.412,1.657,1.093,3.616s1.485,3.45,1.363,3.523" transform="translate(-14.657 -6.38)" fill="#455a64"/>
              <path id="Trazado_231331" data-name="Trazado 231331" d="M202.685,94.7a6.411,6.411,0,0,1-1.277-2.4,6.429,6.429,0,0,1-.628-2.643,9.82,9.82,0,0,1,1.079,2.473,9.882,9.882,0,0,1,.826,2.568" transform="translate(-14.887 -6.649)" fill="#455a64"/>
              <path id="Trazado_231332" data-name="Trazado 231332" d="M218.246,95.491A10.082,10.082,0,0,1,215.028,104a29.193,29.193,0,0,0,2.172-4.042,29.159,29.159,0,0,0,1.045-4.467" transform="translate(-15.946 -7.082)" fill="#455a64"/>
              <path id="Trazado_231333" data-name="Trazado 231333" d="M220.885,91.334a8.136,8.136,0,0,1-1.451,7.97,23.323,23.323,0,0,0,1.313-3.878,23.324,23.324,0,0,0,.138-4.091" transform="translate(-16.273 -6.773)" fill="#455a64"/>
              <path id="Trazado_231334" data-name="Trazado 231334" d="M210.72,245.723l5.069,48.85,3.637,73.566H238.84l.525-156.574-55.581,3.964-11.517,82.15,9.975,71.9h21.3l-4.987-68.365Z" transform="translate(-12.775 -15.69)" fill="#263238"/>
              <path id="Trazado_231335" data-name="Trazado 231335" d="M213.169,248.459a29.292,29.292,0,0,1-3.777,3.724,29.257,29.257,0,0,1-4.1,3.366,58.294,58.294,0,0,1,7.875-7.09" transform="translate(-15.224 -18.426)" fill="#455a64"/>
              <path id="Trazado_231336" data-name="Trazado 231336" d="M213.735,246.4a55.119,55.119,0,0,1,.1-6.271,54.982,54.982,0,0,1,.363-6.262,32.78,32.78,0,0,1,.119,6.28,32.746,32.746,0,0,1-.584,6.253" transform="translate(-15.846 -17.344)" fill="#455a64"/>
              <path id="Trazado_231337" data-name="Trazado 231337" d="M220.673,227.643a1.373,1.373,0,0,1,.311-.034l.96-.057,3.683-.18,13.161-.55.225-.009v.227c.007,4.106.016,8.754.024,13.663v.427l-.152.06-8.561,3.43-.081.032-.081-.029-7.57-2.629-.119-.041-.016-.122c-.554-4.263-1.015-7.815-1.345-10.364-.144-1.188-.261-2.141-.347-2.85a8.452,8.452,0,0,1-.094-.975,1.6,1.6,0,0,1,.06.278c.036.211.079.465.131.77.113.717.266,1.681.456,2.884.379,2.508.905,6,1.539,10.2l-.134-.162,7.588,2.575-.16,0,8.554-3.451-.151.224V240.7c.008-4.91.017-9.557.023-13.663l.225.217-13.018.323-3.74.067-1.006.009a2.554,2.554,0,0,1-.365-.012" transform="translate(-16.365 -16.821)" fill="#455a64"/>
              <path id="Trazado_231338" data-name="Trazado 231338" d="M190.36,227.93a1.082,1.082,0,0,1,.28-.029l.864-.037,3.33-.1,12.005-.279.22,0-.007.223c-.131,4.055-.281,8.73-.441,13.707l0,.125-.106.068-1.389.907-7.038,4.589-.123.081-.125-.076-7.928-4.83-.1-.061,0-.116c.15-4.258.274-7.8.363-10.35.052-1.186.093-2.137.123-2.844a7.682,7.682,0,0,1,.07-.971,1.578,1.578,0,0,1,.016.28c0,.212,0,.467,0,.773-.006.719-.012,1.686-.02,2.891-.038,2.516-.091,6.022-.155,10.231l-.1-.177,7.961,4.776-.247,0,7.029-4.6,1.39-.907-.109.193c.182-4.976.353-9.65.5-13.705l.213.219-11.876.065-3.377-.007-.905-.012a1.83,1.83,0,0,1-.327-.019" transform="translate(-14.076 -16.87)" fill="#455a64"/>
              <path id="Trazado_231339" data-name="Trazado 231339" d="M236.838,251.683a13.572,13.572,0,0,1-2.632-.082c-1.62-.12-3.853-.342-6.311-.659s-4.675-.677-6.272-.973a13.51,13.51,0,0,1-2.565-.593,15.12,15.12,0,0,1,2.618.256l6.281.831,6.284.8a15.038,15.038,0,0,1,2.6.422" transform="translate(-16.245 -18.492)" fill="#455a64"/>
              <path id="Trazado_231340" data-name="Trazado 231340" d="M236.721,309.839c.02.009-.08.281-.459.616a3.076,3.076,0,0,1-1.986.674,4.692,4.692,0,0,1-2.9-1.112,20.035,20.035,0,0,1-2.643-2.674,36.534,36.534,0,0,1-3.931-5.531,11.72,11.72,0,0,1-1.228-2.528,25.975,25.975,0,0,1,1.518,2.351,48.677,48.677,0,0,0,4.006,5.394,22.215,22.215,0,0,0,2.552,2.639,4.491,4.491,0,0,0,2.631,1.12,3.1,3.1,0,0,0,1.867-.482c.385-.265.538-.492.573-.467" transform="translate(-16.58 -22.195)" fill="#455a64"/>
              <path id="Trazado_231341" data-name="Trazado 231341" d="M195.378,312.111a1.321,1.321,0,0,1-.262.624,3.989,3.989,0,0,1-1.342,1.276,5.141,5.141,0,0,1-2.664.7,6.3,6.3,0,0,1-3.209-1.018,11.351,11.351,0,0,1-3.86-4.6,10.2,10.2,0,0,1-.96-2.288,16.461,16.461,0,0,1,1.259,2.125,12.177,12.177,0,0,0,3.817,4.356,6.1,6.1,0,0,0,2.964.982,5.042,5.042,0,0,0,2.486-.553,5.548,5.548,0,0,0,1.77-1.6" transform="translate(-13.577 -22.753)" fill="#455a64"/>
              <path id="Trazado_231342" data-name="Trazado 231342" d="M196.735,304.575a4.793,4.793,0,0,1-1.6.928,12.6,12.6,0,0,1-8.769.362,4.748,4.748,0,0,1-1.666-.793,16.1,16.1,0,0,0,12.029-.5" transform="translate(-13.698 -22.587)" fill="#455a64"/>
              <path id="Trazado_231343" data-name="Trazado 231343" d="M262.939,116.414H234.634s-3.845-2.215-5.706-1.842a7.362,7.362,0,0,0-3.473,2.356l3.745,31.189,9.169-6.785,34.122-3.555a10.855,10.855,0,0,0,10.676-12.142l-6.312-33.539-12.948.429-.511,8.512Z" transform="translate(-16.72 -6.83)" fill="#262f43"/>
              <path id="Trazado_231344" data-name="Trazado 231344" d="M179.62,126.853a17.343,17.343,0,0,0-6.836,7.944c-1.651,3.962-12.923,23.751-18.864,34.105a9.786,9.786,0,0,0,1.417,11.636c3.611,3.775,7.924,2.3,13.192.589,2.361-.768,12.985-17.075,12.985-17.075Z" transform="translate(-11.319 -9.407)" fill="#262f43"/>
              <path id="Trazado_231345" data-name="Trazado 231345" d="M186.58,196.9l-6.487-55.84,1.565-14.881,16.521-7.042,21.4-1.4,20.375,2.243-4.766,57.274,5.214,32.3-57.067,2.58Z" transform="translate(-13.356 -8.731)" fill="#262f43"/>
              <path id="Trazado_231346" data-name="Trazado 231346" d="M186.552,198.527c-.132.016-1.686-12.42-3.469-27.772s-3.124-27.816-2.991-27.832,1.686,12.418,3.47,27.776,3.123,27.812,2.991,27.828" transform="translate(-13.355 -10.599)" fill="#263238"/>
              <path id="Trazado_231347" data-name="Trazado 231347" d="M243.932,133.692a2.011,2.011,0,0,1-.013.5c-.034.382-.077.856-.13,1.434-.133,1.313-.315,3.094-.535,5.265-.453,4.51-1.067,10.62-1.744,17.372-.646,6.788-1.172,12.939-1.5,17.394-.156,2.177-.285,3.963-.38,5.278-.046.578-.084,1.053-.115,1.434a2.011,2.011,0,0,1-.072.5,1.958,1.958,0,0,1-.025-.5c.007-.383.015-.859.025-1.44.025-1.251.11-3.058.227-5.291.246-4.464.718-10.625,1.366-17.418s1.341-12.927,1.885-17.364c.275-2.218.509-4.012.688-5.25.088-.574.161-1.044.219-1.424a1.977,1.977,0,0,1,.109-.492" transform="translate(-17.755 -9.915)" fill="#263238"/>
              <path id="Trazado_231348" data-name="Trazado 231348" d="M231.049,193.738a8.117,8.117,0,0,1-.9,1.1,12.753,12.753,0,0,1-1.159,1.209,21.239,21.239,0,0,1-1.649,1.488,23.746,23.746,0,0,1-2.146,1.629c-.78.579-1.684,1.086-2.622,1.642a32.6,32.6,0,0,1-13.5,4.028c-1.09.048-2.125.12-3.094.063a23.536,23.536,0,0,1-2.688-.185,21.078,21.078,0,0,1-2.194-.341,12.733,12.733,0,0,1-1.632-.376,7.885,7.885,0,0,1-1.361-.429c.026-.106,1.975.5,5.223.805a25.151,25.151,0,0,0,2.659.126c.958.039,1.979-.047,3.053-.106a33.8,33.8,0,0,0,13.317-3.976c.93-.539,1.831-1.026,2.611-1.584a25.122,25.122,0,0,0,2.156-1.562c2.549-2.034,3.846-3.612,3.926-3.537" transform="translate(-14.691 -14.368)" fill="#263238"/>
              <g id="Grupo_180163" data-name="Grupo 180163" transform="translate(183.71 175.562)" opacity="0.3">
                <g id="Grupo_180162" data-name="Grupo 180162">
                  <g id="Grupo_180161" data-name="Grupo 180161" clip-path="url(#clip-path-11)">
                    <path id="Trazado_231349" data-name="Trazado 231349" d="M200.9,203.858c-2.775-.8-2.934-3.411-1.864-4.538a4.988,4.988,0,0,1,4.363-1.046,22.153,22.153,0,0,0,4.61.626c2.538-.171,4.667-1.937,6.429-3.773s3.434-3.886,5.75-4.938,5.539-.683,6.759,1.551a4.842,4.842,0,0,1-.277,4.635,10.81,10.81,0,0,1-3.436,3.366,28.1,28.1,0,0,1-22.334,4.118" transform="translate(-198.425 -189.625)"/>
                  </g>
                </g>
              </g>
              <path id="Trazado_231350" data-name="Trazado 231350" d="M237.554,119.59A8.782,8.782,0,0,1,242.9,127a19.119,19.119,0,0,0-2.025-4.174,19.1,19.1,0,0,0-3.322-3.236" transform="translate(-17.617 -8.868)" fill="#263238"/>
              <path id="Trazado_231351" data-name="Trazado 231351" d="M231.3,118.869a3.346,3.346,0,0,0-.471-.281,2.406,2.406,0,0,0-1.536-.094,4.282,4.282,0,0,0-2.1,1.254,23.58,23.58,0,0,1-2.333,2.372,6.882,6.882,0,0,1-3.833,1.179c-1.457.071-3-.081-4.625-.122a91.165,91.165,0,0,0-10.57.231,67.848,67.848,0,0,0-18.7,4.127A58.127,58.127,0,0,0,181.8,129.9l-1.4.738c-.322.167-.5.246-.5.246s.161-.1.477-.28l1.387-.771a53.646,53.646,0,0,1,5.306-2.424,66.516,66.516,0,0,1,18.737-4.192A89.388,89.388,0,0,1,216.4,123c1.629.047,3.173.2,4.612.14a6.754,6.754,0,0,0,3.76-1.13,24.391,24.391,0,0,0,2.339-2.339,4.326,4.326,0,0,1,2.163-1.25,2.406,2.406,0,0,1,1.569.132,1.488,1.488,0,0,1,.455.317" transform="translate(-13.342 -8.777)" fill="#fafafa"/>
              <path id="Trazado_231352" data-name="Trazado 231352" d="M237.8,131.243c0,.014-.2-.058-.574-.124a5.955,5.955,0,0,0-1.672-.054,9.324,9.324,0,0,0-2.559.678,30.9,30.9,0,0,0-3.137,1.614,17.461,17.461,0,0,1-3.942,1.7,25.122,25.122,0,0,1-4.863.787c-3.464.216-7.268.269-11.254.578-7.976.549-15.155,1.516-20.324,2.359-2.586.414-4.669.807-6.111,1.068l-1.657.315c-.38.069-.581.1-.581.1s.2-.053.573-.134l1.651-.35c1.437-.285,3.517-.7,6.1-1.13,5.166-.878,12.349-1.867,20.333-2.416,3.987-.309,7.8-.358,11.254-.564a25.157,25.157,0,0,0,4.834-.763,17.463,17.463,0,0,0,3.919-1.662,30.424,30.424,0,0,1,3.162-1.593,9.17,9.17,0,0,1,2.592-.652,5.688,5.688,0,0,1,1.687.09,2.976,2.976,0,0,1,.567.162" transform="translate(-13.433 -9.713)" fill="#fafafa"/>
              <path id="Trazado_231353" data-name="Trazado 231353" d="M238.02,148.274s-.718.334-2.052.859-3.29,1.217-5.757,1.916A86.532,86.532,0,0,1,210.45,154a181.329,181.329,0,0,1-20-.476l-6.046-.47-1.642-.144c-.376-.035-.572-.063-.572-.063s.2,0,.575.024l1.645.109,6.049.408a192.111,192.111,0,0,0,19.987.418,88.783,88.783,0,0,0,19.734-2.891c2.465-.681,4.427-1.349,5.766-1.854.675-.239,1.185-.46,1.539-.591s.54-.2.54-.2" transform="translate(-13.511 -10.996)" fill="#fafafa"/>
              <path id="Trazado_231354" data-name="Trazado 231354" d="M236,167.9s-.671.293-1.923.723a38.319,38.319,0,0,1-5.428,1.388,55.266,55.266,0,0,1-8.266.846c-3.128.107-6.571.006-10.173-.21-7.2-.475-13.719-.986-18.447-.817-2.361.061-4.268.213-5.581.368-.657.062-1.164.149-1.51.187s-.528.056-.528.056a48.27,48.27,0,0,1,7.615-.749c4.736-.2,11.267.287,18.463.763,3.6.214,7.034.321,10.156.224a56.654,56.654,0,0,0,8.247-.8,40.935,40.935,0,0,0,5.429-1.325c.634-.185,1.109-.381,1.441-.487s.506-.165.506-.165" transform="translate(-13.656 -12.452)" fill="#fafafa"/>
              <path id="Trazado_231355" data-name="Trazado 231355" d="M234.358,183.091s-2.613.861-6.945,1.855c-2.164.5-4.763,1-7.667,1.45-2.906.426-6.118.791-9.5,1-3.387.2-6.619.22-9.557.147-2.936-.1-5.577-.276-7.786-.516-4.419-.465-7.117-1-7.117-1s.172.013.5.056l1.416.2c1.227.184,3.011.4,5.219.616s4.846.387,7.778.474c2.932.063,6.159.032,9.539-.163,3.378-.213,6.585-.572,9.488-.988,2.9-.439,5.5-.921,7.663-1.407s3.911-.908,5.107-1.24l1.381-.367c.317-.082.486-.116.486-.116" transform="translate(-13.778 -13.578)" fill="#fafafa"/>
              <path id="Trazado_231356" data-name="Trazado 231356" d="M236.429,188.64s-.165.069-.484.182l-1.392.5c-1.206.446-2.931,1.145-5.035,2.076s-4.588,2.09-7.4,3.25a48.186,48.186,0,0,1-9.467,2.893,78.272,78.272,0,0,1-17.936.991c-2.3-.1-4.159-.216-5.444-.3l-1.478-.1c-.338-.027-.515-.05-.515-.05s.179,0,.517.011l1.48.068,5.444.236a80.64,80.64,0,0,0,17.895-1.044,48.685,48.685,0,0,0,9.436-2.868c2.815-1.148,5.3-2.3,7.417-3.209s3.848-1.6,5.063-2.023,1.9-.616,1.9-.616" transform="translate(-13.888 -13.99)" fill="#fafafa"/>
              <path id="Trazado_231357" data-name="Trazado 231357" d="M239.2,205.195s-.634.435-1.842,1.121a36.9,36.9,0,0,1-5.346,2.448,58.826,58.826,0,0,1-19.062,3.222c-7.586.137-14.431-.464-19.386-.673-2.478-.121-4.485-.193-5.873-.221l-1.6-.031c-.366-.008-.557-.022-.557-.022s.192-.013.557-.017l1.6,0c1.389.006,3.4.056,5.877.16,4.96.174,11.805.754,19.376.617a59.872,59.872,0,0,0,19.02-3.158,38.9,38.9,0,0,0,5.357-2.385c.619-.314,1.069-.612,1.391-.786s.488-.269.488-.269" transform="translate(-13.759 -15.217)" fill="#fafafa"/>
              <path id="Trazado_231358" data-name="Trazado 231358" d="M252.781,142.3a1.062,1.062,0,0,1,.049-.233c.054-.2.111-.418.175-.657.162-.567.365-1.4.581-2.429a37.359,37.359,0,0,0-.245-16.337c-.246-1.025-.474-1.849-.654-2.411l-.194-.652a1.068,1.068,0,0,1-.056-.231,1.134,1.134,0,0,1,.092.219c.071.2.146.408.23.641.2.556.451,1.377.715,2.4a35.363,35.363,0,0,1,.246,16.4c-.233,1.032-.456,1.86-.642,2.422-.077.235-.145.448-.21.648a1.135,1.135,0,0,1-.086.221" transform="translate(-18.721 -8.851)" fill="#fafafa"/>
              <path id="Trazado_231359" data-name="Trazado 231359" d="M267.254,138.925a.866.866,0,0,1,0-.212c.007-.19.016-.389.024-.6.031-.524.046-1.284.036-2.221a34.337,34.337,0,0,0-3.232-14.173c-.4-.849-.741-1.527-1-1.985l-.283-.534a.934.934,0,0,1-.088-.193.825.825,0,0,1,.121.173c.1.163.2.332.316.518.276.448.639,1.118,1.054,1.964a32.222,32.222,0,0,1,3.246,14.231c-.007.941-.044,1.7-.1,2.226-.021.216-.042.414-.06.6a.866.866,0,0,1-.034.209" transform="translate(-19.483 -8.825)" fill="#fafafa"/>
              <path id="Trazado_231360" data-name="Trazado 231360" d="M286.028,132.429a1.31,1.31,0,0,1-.174-.185l-.47-.553c-.4-.486-1-1.17-1.772-1.992a44.619,44.619,0,0,0-14.2-10.169c-1.026-.464-1.867-.814-2.456-1.036l-.675-.267a1.262,1.262,0,0,1-.231-.106,1.238,1.238,0,0,1,.244.069l.689.233c.6.2,1.45.532,2.486.981a42.111,42.111,0,0,1,14.249,10.2c.758.836,1.347,1.536,1.729,2.038l.443.576a1.21,1.21,0,0,1,.143.209" transform="translate(-19.73 -8.76)" fill="#fafafa"/>
              <path id="Trazado_231361" data-name="Trazado 231361" d="M281.893,105.222a3.49,3.49,0,0,1-.59.011l-1.6-.029c-1.354-.023-3.226-.04-5.291,0s-3.937.117-5.289.188l-1.6.083a3.37,3.37,0,0,1-.589.009,3.461,3.461,0,0,1,.583-.084c.377-.042.923-.092,1.6-.144,1.352-.106,3.224-.208,5.294-.245s3.944,0,5.3.062c.678.03,1.226.06,1.6.09a3.521,3.521,0,0,1,.586.064" transform="translate(-19.795 -7.786)" fill="#fafafa"/>
              <path id="Trazado_231362" data-name="Trazado 231362" d="M169.8,144.927a2.56,2.56,0,0,1,.348.367c.211.245.53.591.934,1a24.318,24.318,0,0,0,3.469,2.887,44.7,44.7,0,0,0,3.869,2.349l1.205.658a2.5,2.5,0,0,1,.433.26,2.533,2.533,0,0,1-.467-.193c-.3-.135-.718-.341-1.236-.6a35.072,35.072,0,0,1-3.914-2.311,21.2,21.2,0,0,1-3.458-2.952,13.412,13.412,0,0,1-.893-1.05,2.579,2.579,0,0,1-.291-.414" transform="translate(-12.593 -10.748)" fill="#fafafa"/>
              <path id="Trazado_231363" data-name="Trazado 231363" d="M174.02,136.925c.029-.015.213.318.654.741a13.89,13.89,0,0,0,1.87,1.479c.775.521,1.505.953,2.046,1.242s.887.443.877.469a10.421,10.421,0,0,1-3.031-1.552,10.684,10.684,0,0,1-1.86-1.544,2.2,2.2,0,0,1-.555-.835" transform="translate(-12.905 -10.154)" fill="#fafafa"/>
              <path id="Trazado_231364" data-name="Trazado 231364" d="M179.891,169.849a1.026,1.026,0,0,1-.2-.091l-.563-.293c-.488-.257-1.179-.658-2.005-1.2a41.43,41.43,0,0,1-6.03-4.784,38.342,38.342,0,0,1-5.028-5.829,23.188,23.188,0,0,1-1.246-1.974l-.3-.557a1,1,0,0,1-.094-.2.933.933,0,0,1,.128.181l.335.538c.285.469.718,1.138,1.293,1.934a41.658,41.658,0,0,0,5.05,5.768,45.261,45.261,0,0,0,5.972,4.809c.814.55,1.492.967,1.967,1.243l.544.325a.979.979,0,0,1,.183.125" transform="translate(-12.193 -11.489)" fill="#fafafa"/>
              <path id="Trazado_231365" data-name="Trazado 231365" d="M153.327,179.413a4.572,4.572,0,0,1-.171-1.058,17.5,17.5,0,0,1-.062-2.931,18.861,18.861,0,0,1,3.072-9.1c1.991-3.184,3.815-6.052,5.156-8.115l1.609-2.429a4.624,4.624,0,0,1,.645-.855,4.546,4.546,0,0,1-.487.956l-1.479,2.511c-1.267,2.108-3.044,5-5.034,8.185a19.684,19.684,0,0,0-3.143,8.875c-.215,2.428,0,3.957-.106,3.962" transform="translate(-11.351 -11.489)" fill="#263238"/>
              <path id="Trazado_231366" data-name="Trazado 231366" d="M169.708,184.274a12.035,12.035,0,0,1-3.2-.476,15,15,0,0,1-10.6-10.6,12.056,12.056,0,0,1-.475-3.2,1,1,0,0,1,.038.222c.022.145.034.361.079.637a15.982,15.982,0,0,0,.49,2.3,15.236,15.236,0,0,0,10.506,10.507,15.889,15.889,0,0,0,2.3.491c.275.045.492.056.637.079a1.018,1.018,0,0,1,.222.038" transform="translate(-11.527 -12.607)" fill="#fafafa"/>
              <path id="Trazado_231367" data-name="Trazado 231367" d="M159.866,151.281a.78.78,0,0,1-.162.114l-.481.293c-.422.244-1.017.63-1.728,1.136a24.639,24.639,0,0,0-8.4,10.517c-.336.805-.581,1.47-.726,1.937-.064.188-.122.365-.18.533a.787.787,0,0,1-.075.183.732.732,0,0,1,.038-.193c.045-.173.094-.353.144-.545a18.278,18.278,0,0,1,.672-1.966,23.426,23.426,0,0,1,8.448-10.578,18.445,18.445,0,0,1,1.769-1.09l.5-.262a.768.768,0,0,1,.181-.08" transform="translate(-10.984 -11.219)" fill="#fafafa"/>
              <path id="Trazado_231368" data-name="Trazado 231368" d="M154.325,143.88a3.1,3.1,0,0,1-.526.187c-.344.1-.832.277-1.424.517a16.6,16.6,0,0,0-4.251,2.574,24.193,24.193,0,0,0-3.444,3.607c-.4.5-.708.918-.919,1.208a3.1,3.1,0,0,1-.348.436,3.015,3.015,0,0,1,.286-.48c.193-.3.49-.731.873-1.248A21.673,21.673,0,0,1,148,147.008a15.417,15.417,0,0,1,4.325-2.551,12.305,12.305,0,0,1,1.453-.463,3.12,3.12,0,0,1,.547-.115" transform="translate(-10.635 -10.67)" fill="#fafafa"/>
            </g>
          </g>
        </g>
      </g>
      <g id="Grupo_948006" data-name="Grupo 948006" transform="translate(322.998 -10066.428)">
        <g id="Grupo_180489" data-name="Grupo 180489" transform="translate(0 0)">
          <g id="Grupo_180488" data-name="Grupo 180488">
            <g id="Grupo_180483" data-name="Grupo 180483">
              <g id="Grupo_180482" data-name="Grupo 180482">
                <g id="Grupo_180480" data-name="Grupo 180480" style="isolation: isolate">
                  <path id="Trazado_232056" data-name="Trazado 232056" d="M1301.689,782.834a2.227,2.227,0,0,0-.661.579,3.8,3.8,0,0,0-.319,3.474l-3.778,2.089C1295.6,785.022,1299.066,784.473,1301.689,782.834Z" transform="translate(-1296.636 -777.258)" fill="#1565c0"/>
                  <path id="Trazado_232057" data-name="Trazado 232057" d="M1381.131,769.644l-69.55,5.584-3.076.247a3.807,3.807,0,0,1,.319-3.474,2.205,2.205,0,0,1,1.6-.863l66.788-5.289C1379.258,765.757,1380.78,767.765,1381.131,769.644Z" transform="translate(-1304.431 -765.846)" fill="url(#linear-gradient-2)"/>
                </g>
                <g id="Grupo_180481" data-name="Grupo 180481" transform="translate(0.296 3.797)" style="isolation: isolate">
                  <path id="Trazado_232058" data-name="Trazado 232058" d="M1386.149,844.207c-.512.2-3.929,2.133-4.338,2.131-1.223-.078-66.931,6.845-68.047,6.3a4.5,4.5,0,0,1-2.7-2.825c-.161-.419-13.4-52.106-13.532-52.544l3.78-2.089c.969,1.187,12.982,56.66,15.612,55.162a2.98,2.98,0,0,0,1.744.417C1319.524,850.555,1385.342,844.626,1386.149,844.207Z" transform="translate(-1297.536 -789.348)" fill="url(#linear-gradient-3)"/>
                  <path id="Trazado_232059" data-name="Trazado 232059" d="M1395.262,830.032a2.424,2.424,0,0,1-2.07,2.423c-1.134-.026-66.5,6.593-67.59,6.32a4.329,4.329,0,0,1-2.867-2.594c-.422-.8-13.385-52.1-13.689-52.934l3.076-.247,69.55-5.584C1384.347,788.395,1393.134,819.478,1395.262,830.032Z" transform="translate(-1305.268 -777.415)" fill="url(#linear-gradient-4)"/>
                </g>
              </g>
            </g>
            <g id="Grupo_180487" data-name="Grupo 180487" transform="translate(32.943 9.857)">
              <g id="Grupo_180486" data-name="Grupo 180486" style="isolation: isolate">
                <g id="Grupo_180485" data-name="Grupo 180485" clip-path="url(#clip-path-12)">
                  <g id="Grupo_180484" data-name="Grupo 180484" transform="translate(5.642 0.406)">
                    <path id="Trazado_232060" data-name="Trazado 232060" d="M1432.412,797.112l17.267,23.386-13.168-6.1-4.1-17.284" transform="translate(-1426.43 -797.112)" fill="#8a92b2"/>
                    <path id="Trazado_232061" data-name="Trazado 232061" d="M1444.9,849.769l13.168,6.1-9.609,8.9-3.559-15.005" transform="translate(-1434.818 -832.485)" fill="#62688f"/>
                    <path id="Trazado_232062" data-name="Trazado 232062" d="M1467.386,876.12l-6.79,20.794-2.725-11.489,9.514-9.3" transform="translate(-1443.533 -850.186)" fill="#8a92b2"/>
                    <path id="Trazado_232063" data-name="Trazado 232063" d="M1420.169,797.112l7.658,32.289-13.64-8.092,13.64,8.092-3.559-15.005-10.081,6.913,5.982-24.2" transform="translate(-1414.187 -797.112)" fill="#62688f"/>
                    <path id="Trazado_232064" data-name="Trazado 232064" d="M1424.268,849.769l3.559,15.005-13.64-8.092,10.081-6.913" transform="translate(-1414.187 -832.485)" fill="#454a75"/>
                    <path id="Trazado_232065" data-name="Trazado 232065" d="M1416.028,878.594l13.735,8.493,2.725,11.489-16.46-19.982" transform="translate(-1415.424 -851.848)" fill="#62688f"/>
                  </g>
                </g>
              </g>
            </g>
          </g>
        </g>
      </g>
      <g id="Grupo_948007" data-name="Grupo 948007" transform="translate(469.588 -9907.495) rotate(39)">
        <path id="Trazado_620930" data-name="Trazado 620930" d="M94.378-60.114c-8.769-1.036-14.85-8.657-14.85-8.657L66.511-65.092l-9.954,2.814L43.54-58.6s-1.193,9.677-8.121,15.15c0,0,8.153,34.7,44.574,45.076C105.594-26.281,94.378-60.114,94.378-60.114Z" transform="translate(0 0)" fill="#12263f"/>
        <path id="Trazado_620931" data-name="Trazado 620931" d="M94.143-53.054c-7.683-.908-13.012-7.586-13.012-7.586L69.725-57.416,61-54.951,49.6-51.727s-1.045,8.479-7.116,13.275c0,0,7.144,30.4,39.059,39.5C103.971-23.408,94.143-53.054,94.143-53.054Z" transform="translate(-2.943 -3.389)" fill="#becae5"/>
        <path id="Trazado_620932" data-name="Trazado 620932" d="M94.24-49.759C87.072-50.606,82.1-56.836,82.1-56.836L71.46-53.828l-8.137,2.3L52.681-48.521s-.975,7.911-6.638,12.385c0,0,6.665,28.365,36.438,36.848C103.409-22.1,94.24-49.759,94.24-49.759Z" transform="translate(-4.428 -4.974)" fill="#e3e9f9"/>
        <circle id="Elipse_8343" data-name="Elipse 8343" cx="15.469" cy="15.469" r="15.469" transform="translate(50.831 -24.795) rotate(-80.358)" fill="#fff"/>
        <circle id="Elipse_8344" data-name="Elipse 8344" cx="12.339" cy="12.339" r="12.339" transform="matrix(0.64, -0.768, 0.768, 0.64, 51.294, -35.876)" fill="#1565c0"/>
        <path id="Trazado_620933" data-name="Trazado 620933" d="M83.3-17.693l5.008,1.822,3.663-10.418,1.833.407-4.32,12.535L82.595-15.69Z" transform="translate(-19.661 -17.705)" fill="#fff"/>
      </g>
    </g>
  </g>
</svg>
