<svg id="Grupo_947743" data-name="Grupo 947743" xmlns="http://www.w3.org/2000/svg" width="69.826" height="70.577" viewBox="0 0 69.826 70.577">
  <ellipse id="Elipse_4870" data-name="Elipse 4870" cx="34.913" cy="35.288" rx="34.913" ry="35.288" transform="translate(0 0)" fill="#49acc5"/>
  <g id="IHtFAN" transform="translate(-892.999 -723.93)">
    <g id="Grupo_947749" data-name="Grupo 947749" transform="translate(912.167 741.332)">
      <path id="Trazado_621369" data-name="Trazado 621369" d="M943.316,772.556c1.246,0,2.42.035,3.591-.012.778-.032,1.138.229,1.036,1.033a9.2,9.2,0,0,1-.194,1.693,2.568,2.568,0,0,1-2.553,1.828q-12.832.014-25.665,0a2.726,2.726,0,0,1-2.736-2.952q0-13.532,0-27.064v-1.1a8.21,8.21,0,0,0-.836-.092q-1.522-.018-3.044,0c-.507,0-.775-.2-.744-.735a9.763,9.763,0,0,1,.108-1.8,2.706,2.706,0,0,1,2.842-2.016q12.627-.006,25.254,0a2.762,2.762,0,0,1,2.942,3q0,13.573,0,27.146Zm-1.148-.019c.018-.369.038-.586.038-.8q.008-13.533.01-27.066a4.754,4.754,0,0,0-.059-.818,1.6,1.6,0,0,0-1.192-1.324,1.754,1.754,0,0,0-2.259,1.855c-.011,1.333.291,1.515-1.46,1.513q-9.132-.012-18.263.008h-1.04c-.019.365-.039.582-.039.8q0,13.574,0,27.149a3.944,3.944,0,0,0,.066.818,1.746,1.746,0,0,0,1.661,1.34,1.808,1.808,0,0,0,1.767-1.965c0-1.431-.189-1.509,1.552-1.507q9.049.012,18.1,0Zm-28.833-27.81h24.1l.525-2.266a3.271,3.271,0,0,0-.344-.037q-11.139,0-22.278,0c-.082,0-.165,0-.246,0A1.809,1.809,0,0,0,913.335,744.726Zm9.343,28.952-.528,2.3c.2.013.382.038.569.038q10.974,0,21.949,0a3.421,3.421,0,0,0,.971-.126,1.648,1.648,0,0,0,1.036-2.208Z" transform="translate(-912.167 -741.332)" fill="#262f43"/>
      <path id="Trazado_621370" data-name="Trazado 621370" d="M963.1,779.879l1.031-.3a5.021,5.021,0,0,1-1.9,6.216,5.2,5.2,0,0,1-6.989-7.5,5.074,5.074,0,0,1,6.567-1.356l-.411,1.024a3.961,3.961,0,0,0-3.734-.046,5.635,5.635,0,0,0-1.816,1.812,3.767,3.767,0,0,0,.718,4.528,3.969,3.969,0,0,0,4.693.693C962.947,784.041,963.576,782.373,963.1,779.879Z" transform="translate(-947.265 -770.516)" fill="#262f43"/>
      <path id="Trazado_621371" data-name="Trazado 621371" d="M988.2,846.841v1.051h-19.51v-1.051Z" transform="translate(-959.388 -829.48)" fill="#262f43"/>
      <path id="Trazado_621372" data-name="Trazado 621372" d="M954.48,861.889v-1.052h19.508v1.052Z" transform="translate(-947.518 -841.173)" fill="#262f43"/>
      <path id="Trazado_621373" data-name="Trazado 621373" d="M988.105,874.943v1.041H968.576v-1.041Z" transform="translate(-959.294 -852.958)" fill="#262f43"/>
      <path id="Trazado_621374" data-name="Trazado 621374" d="M974.07,888.962v1.023H954.53v-1.023Z" transform="translate(-947.559 -864.67)" fill="#262f43"/>
      <path id="Trazado_621375" data-name="Trazado 621375" d="M988.072,903.018v1.026H968.53v-1.026Z" transform="translate(-959.256 -876.413)" fill="#262f43"/>
      <path id="Trazado_621376" data-name="Trazado 621376" d="M974.151,917.2V918.2H954.625V917.2Z" transform="translate(-947.639 -888.258)" fill="#262f43"/>
      <path id="Trazado_621377" data-name="Trazado 621377" d="M975.05,774.476l.936.58c-.689,1.2-1.349,2.385-2.043,3.548-.757,1.269-1.538,2.525-2.327,3.775-.44.7-.766.728-1.37.159-.714-.674-1.416-1.362-2.248-2.165l1.079-.811,1.7,1.618Z" transform="translate(-958.811 -769.022)" fill="#262f43"/>
      <path id="Trazado_621378" data-name="Trazado 621378" d="M954.494,847.869v-1.061h1.036v1.061Z" transform="translate(-947.529 -829.452)" fill="#262f43"/>
      <path id="Trazado_621379" data-name="Trazado 621379" d="M1080.952,860.771h1.028v1.047h-1.028Z" transform="translate(-1053.179 -841.118)" fill="#262f43"/>
      <path id="Trazado_621380" data-name="Trazado 621380" d="M955.651,875.955h-1v-1.079h1Z" transform="translate(-947.659 -852.902)" fill="#262f43"/>
      <path id="Trazado_621381" data-name="Trazado 621381" d="M1080.951,888.879h1.024v1.042h-1.024Z" transform="translate(-1053.178 -864.601)" fill="#262f43"/>
      <path id="Trazado_621382" data-name="Trazado 621382" d="M955.669,904.053h-1.007V902.99h1.007Z" transform="translate(-947.67 -876.39)" fill="#262f43"/>
      <path id="Trazado_621383" data-name="Trazado 621383" d="M1081.943,918.233h-1.014v-1.021h1.014Z" transform="translate(-1053.16 -888.272)" fill="#262f43"/>
    </g>
  </g>
</svg>
