<svg xmlns="http://www.w3.org/2000/svg" width="169.599" height="102.496" viewBox="0 0 169.599 102.496">
  <g id="Grupo_948783" data-name="Grupo 948783" transform="translate(-428.487 -5866.66)">
    <g id="Grupo_947637" data-name="Grupo 947637" transform="translate(428.487 5866.66)">
      <ellipse id="Elipse_4870" data-name="Elipse 4870" cx="39.248" cy="39.67" rx="39.248" ry="39.67" transform="translate(0 0)" fill="#12263f"/>
      <path id="Trazado_621119" data-name="Trazado 621119" d="M31.8,1145.475v-4.965h7.483v-4.975h4v4.95h3.781v-4.946h4.02v.323c0,1.523,0,3.046,0,4.569,0,.212.055.29.277.328a11.438,11.438,0,0,1,5.614,2.433,8.5,8.5,0,0,1,3,5.7,9.791,9.791,0,0,1-.656,5.086,8.076,8.076,0,0,1-1.963,2.743l-.285.266c.332.233.659.444.965.681a8.963,8.963,0,0,1,3.509,6.556,12.023,12.023,0,0,1-.776,5.708,9.062,9.062,0,0,1-5.618,5.215,15.507,15.507,0,0,1-3.782.839c-.219.022-.288.084-.286.307.009,1.487,0,2.974,0,4.46v.345H47.079v-4.957H43.3v4.959H39.288v-4.978h-7.48c-.008-.114-.019-.193-.019-.271,0-1.469,0-2.937-.005-4.406,0-.22.052-.3.285-.294.87.013,1.741.007,2.611.005a1.249,1.249,0,0,0,1.352-1.359q0-11.491,0-22.982a1.233,1.233,0,0,0-1.336-1.339Zm11.509,24.13h.313c1.949-.008,3.9,0,5.847-.03a8.8,8.8,0,0,0,2.646-.414,3.426,3.426,0,0,0,2.6-2.868,9.707,9.707,0,0,0,.023-1.975,3.156,3.156,0,0,0-2.4-3.009,11.739,11.739,0,0,0-3.324-.463c-1.858-.035-3.716-.019-5.575-.024a.79.79,0,0,0-.126.02Zm0-15.325a1.153,1.153,0,0,0,.147.02c1.894-.01,3.788-.006,5.681-.037a7.623,7.623,0,0,0,2.6-.471,2.372,2.372,0,0,0,1.5-1.5,4.977,4.977,0,0,0,.209-2.28,4.651,4.651,0,0,0-.373-1.375,2.6,2.6,0,0,0-2.009-1.336,16.674,16.674,0,0,0-2.609-.3c-1.7-.05-3.405-.023-5.108-.027-.008,0-.016.007-.044.018Z" transform="translate(-6.446 -1119.648)" fill="#fff"/>
    </g>
    <g id="Grupo_947638" data-name="Grupo 947638" transform="translate(518.811 5866.66)">
      <ellipse id="Elipse_4870-2" data-name="Elipse 4870" cx="39.248" cy="39.67" rx="39.248" ry="39.67" transform="translate(0 0)" fill="#12263f"/>
      <g id="Grupo_947619" data-name="Grupo 947619" transform="translate(22.642 12.607)">
        <path id="Trazado_621071" data-name="Trazado 621071" d="M154.832-579.767c-1.032.612-2.022,1.2-3.013,1.788q-6.58,3.89-13.156,7.785a.715.715,0,0,1-.853.013q-7.9-4.691-15.813-9.355c-.108-.064-.213-.133-.377-.237l16.6-27.55Z" transform="translate(-121.62 607.323)" fill="#fff"/>
        <path id="Trazado_621072" data-name="Trazado 621072" d="M155.957-282.541l-16.47,23.2-16.472-23.211.054-.061q1.2.7,2.393,1.409,6.8,4.019,13.6,8.046a.709.709,0,0,0,.848,0q7.836-4.649,15.689-9.27c.1-.061.21-.121.314-.182Z" transform="translate(-122.882 313.47)" fill="#fff"/>
      </g>
    </g>
    <path id="Trazado_622656" data-name="Trazado 622656" d="M1.016,0V-11.375H5a5.232,5.232,0,0,1,3.141.793,2.712,2.712,0,0,1,1.07,2.324,2.57,2.57,0,0,1-.43,1.473,2.482,2.482,0,0,1-1.2.934,2.4,2.4,0,0,1,1.379.883,2.61,2.61,0,0,1,.5,1.625A3,3,0,0,1,8.422-.859,4.713,4.713,0,0,1,5.438,0ZM3.359-4.953v3.07H5.367A1.938,1.938,0,0,0,6.66-2.277a1.353,1.353,0,0,0,.465-1.09A1.428,1.428,0,0,0,5.508-4.953Zm0-1.656H5.094q1.773-.031,1.773-1.414a1.307,1.307,0,0,0-.449-1.113A2.363,2.363,0,0,0,5-9.477H3.359ZM13.719,0H11.375V-11.375h2.344ZM24.453-9.477H20.969V0H18.625V-9.477H15.188v-1.9h9.266ZM34.719-3.789A4.025,4.025,0,0,1,33.363-.9,4.76,4.76,0,0,1,30.141.156,4.28,4.28,0,0,1,26.7-1.316a6.038,6.038,0,0,1-1.254-4.043v-.7a6.819,6.819,0,0,1,.578-2.891,4.332,4.332,0,0,1,1.652-1.918,4.629,4.629,0,0,1,2.5-.668,4.637,4.637,0,0,1,3.172,1.055,4.326,4.326,0,0,1,1.391,2.961H32.391a2.376,2.376,0,0,0-.613-1.6,2.271,2.271,0,0,0-1.605-.5,1.991,1.991,0,0,0-1.754.84,4.707,4.707,0,0,0-.6,2.605V-5.3a5.038,5.038,0,0,0,.559,2.7,1.954,1.954,0,0,0,1.762.852,2.314,2.314,0,0,0,1.621-.5,2.241,2.241,0,0,0,.613-1.535ZM45.6-5.43a6.867,6.867,0,0,1-.594,2.945,4.472,4.472,0,0,1-1.7,1.953,4.7,4.7,0,0,1-2.535.688,4.732,4.732,0,0,1-2.523-.68,4.515,4.515,0,0,1-1.719-1.941,6.67,6.67,0,0,1-.617-2.9V-5.93a6.831,6.831,0,0,1,.605-2.957,4.508,4.508,0,0,1,1.711-1.961,4.706,4.706,0,0,1,2.527-.684,4.706,4.706,0,0,1,2.527.684A4.508,4.508,0,0,1,45-8.887,6.811,6.811,0,0,1,45.6-5.937Zm-2.375-.516a4.787,4.787,0,0,0-.641-2.719,2.088,2.088,0,0,0-1.828-.93,2.088,2.088,0,0,0-1.82.918,4.732,4.732,0,0,0-.648,2.691v.555a4.847,4.847,0,0,0,.641,2.7,2.082,2.082,0,0,0,1.844.961,2.064,2.064,0,0,0,1.813-.926,4.819,4.819,0,0,0,.641-2.7ZM49.8,0H47.453V-11.375H49.8ZM61.219,0H58.875L54.313-7.484V0H51.969V-11.375h2.344l4.57,7.5v-7.5h2.336Z" transform="translate(436 5969)" fill="#12263f"/>
    <path id="Trazado_622655" data-name="Trazado 622655" d="M7.859-4.93h-4.5v3.047H8.641V0H1.016V-11.375H8.625v1.9H3.359v2.711h4.5ZM18.734-9.477H15.25V0H12.906V-9.477H9.469v-1.9h9.266ZM29.328,0H26.984V-4.875h-4.57V0H20.07V-11.375h2.344v4.609h4.57v-4.609h2.344Zm8.891-4.93h-4.5v3.047H39V0H31.375V-11.375h7.609v1.9H33.719v2.711h4.5Zm6.367.766H42.719V0H40.375V-11.375H44.6a4.778,4.778,0,0,1,3.109.9A3.1,3.1,0,0,1,48.8-7.937,3.5,3.5,0,0,1,48.3-6a3.437,3.437,0,0,1-1.527,1.238L49.234-.109V0H46.719Zm-1.867-1.9h1.891a1.936,1.936,0,0,0,1.367-.449,1.606,1.606,0,0,0,.484-1.238A1.719,1.719,0,0,0,46-9.016a1.9,1.9,0,0,0-1.4-.461H42.719ZM59.2-11.375v7.492A3.836,3.836,0,0,1,58.027-.93,4.5,4.5,0,0,1,54.836.156,4.553,4.553,0,0,1,51.672-.9a3.77,3.77,0,0,1-1.2-2.9v-7.578H52.82v7.508a2.167,2.167,0,0,0,.535,1.629,2.054,2.054,0,0,0,1.48.512q1.977,0,2.008-2.078v-7.57Zm4.984,0L67.1-3.125l2.906-8.25h3.078V0H70.734V-3.109l.234-5.367L67.9,0H66.289L63.227-8.469l.234,5.359V0H61.117V-11.375Z" transform="translate(525 5969)" fill="#12263f"/>
  </g>
</svg>
