<svg id="Grupo_947811" data-name="Grupo 947811" xmlns="http://www.w3.org/2000/svg" width="69.826" height="70.576" viewBox="0 0 69.826 70.576">
  <ellipse id="Elipse_4870" data-name="Elipse 4870" cx="34.913" cy="35.288" rx="34.913" ry="35.288" transform="translate(0 0)" fill="#ff5422"/>
  <g id="_6jpSJc" data-name="6jpSJc" transform="translate(307.091 -746.469)">
    <g id="Grupo_947818" data-name="Grupo 947818" transform="translate(-297.101 759.152)">
      <path id="Trazado_621448" data-name="Trazado 621448" d="M-297.1,1023.489a2.351,2.351,0,0,1,.8-1.169c1.516-1.383,3.018-2.781,4.53-4.169.134-.123.213-.236.141-.423a.714.714,0,0,1-.017-.246q0-10.322,0-20.644a2.335,2.335,0,0,1,2.713-2.269V996.1c-.117,0-.231,0-.345,0a.775.775,0,0,0-.808.806c0,.124,0,.248,0,.372q0,9.991,0,19.982v.252h35.806c0-.075.012-.142.012-.208q0-10.167,0-20.333a.789.789,0,0,0-.87-.871h-.282v-1.534a2.339,2.339,0,0,1,1.431.229,2.26,2.26,0,0,1,1.278,2.09q.008,10.3,0,20.6a1.673,1.673,0,0,1-.094.544.251.251,0,0,0,.092.328c1.556,1.327,3.1,2.664,4.664,3.986a2.187,2.187,0,0,1,.795,1.147v.537a5.705,5.705,0,0,1-.248.558,1.681,1.681,0,0,1-1.033.723H-295.82a6.5,6.5,0,0,1-.737-.385,1.628,1.628,0,0,1-.544-.9Zm48.206.244.039-.054a.7.7,0,0,1-.123-.069q-2.589-2.217-5.178-4.432a.49.49,0,0,0-.3-.1q-17.914-.006-35.827-.006a.468.468,0,0,0-.346.138q-2.363,2.191-4.732,4.376c-.042.039-.079.084-.139.149Z" transform="translate(297.101 -984.803)" fill="#262f43"/>
      <path id="Trazado_621449" data-name="Trazado 621449" d="M-33.14,759.152a2.883,2.883,0,0,1,1.132.517,2.262,2.262,0,0,1,.866,1.8q0,13.245,0,26.489a2.322,2.322,0,0,1-2.342,2.353q-12.852,0-25.7,0a2.329,2.329,0,0,1-2.323-2.352q0-13.234,0-26.469a2.339,2.339,0,0,1,1.844-2.29c.052-.012.1-.031.155-.047Zm-26.814,7.8v.211q0,10.362,0,20.724a.784.784,0,0,0,.86.859h25.517a1.271,1.271,0,0,0,.267-.02c.409-.089.618-.4.618-.921q0-10.31,0-20.62v-.231Zm0-1.569H-36.5c1.2,0,2.4,0,3.6,0,.173,0,.22-.051.219-.221-.007-1.205,0-2.41,0-3.616a.781.781,0,0,0-.84-.838H-59.091a.784.784,0,0,0-.864.874q0,1.446,0,2.893Z" transform="translate(71.247 -759.152)" fill="#262f43"/>
      <path id="Trazado_621450" data-name="Trazado 621450" d="M66.386,988.059q3.347,0,6.695,0c.179,0,.251-.047.277-.229a5.779,5.779,0,0,1,.172-.786,2.195,2.195,0,0,1,1.884-1.516c.74-.075,1.481-.135,2.222-.194a1,1,0,0,1,.346.036.684.684,0,0,1,.527.659.693.693,0,0,1-.561.654,4.359,4.359,0,0,1-.553.063c-.542.049-1.083.1-1.625.142a.76.76,0,0,0-.77.666q-.758,3.689-1.519,7.377c-.185.9-.372,1.791-.553,2.688a1.569,1.569,0,0,1-1.63,1.341h-9.98a1.564,1.564,0,0,1-1.608-1.318q-.762-3.814-1.525-7.629a1.561,1.561,0,0,1,1.611-1.96ZM59.7,989.634c.092.466.184.9.262,1.341.027.155.087.208.251.208q5.978-.008,11.957-.005c.448,0,.45,0,.538-.432.074-.366.144-.734.217-1.112Zm.624,3.115c.088.446.182.869.249,1.3.033.208.122.255.323.255q5.434-.009,10.868,0a.336.336,0,0,0,.123,0c.048-.02.117-.055.126-.094.1-.475.194-.953.293-1.449Zm.622,3.117c.091.457.186.885.257,1.319.03.182.1.225.28.225q4.626-.008,9.251,0c.206,0,.472.068.6-.034s.112-.375.159-.574c.006-.027.015-.053.02-.08.054-.279.108-.559.164-.851Z" transform="translate(-43.461 -975.987)" fill="#262f43"/>
      <path id="Trazado_621451" data-name="Trazado 621451" d="M132.179,1333.857a2.337,2.337,0,1,1,2.35-2.321A2.327,2.327,0,0,1,132.179,1333.857Zm-.759-2.34a.773.773,0,1,0,.773-.769A.77.77,0,0,0,131.42,1331.517Z" transform="translate(-112.21 -1305.623)" fill="#262f43"/>
      <path id="Trazado_621452" data-name="Trazado 621452" d="M280.711,1331.52a2.335,2.335,0,1,1,2.3,2.344A2.331,2.331,0,0,1,280.711,1331.52Zm2.321-.764a.774.774,0,1,0,.785.759A.779.779,0,0,0,283.032,1330.757Z" transform="translate(-256.829 -1305.631)" fill="#262f43"/>
      <path id="Trazado_621453" data-name="Trazado 621453" d="M411.178,835.981c-.262,0-.523.006-.785,0a.761.761,0,0,1-.759-.724.729.729,0,0,1,.675-.814,16.342,16.342,0,0,1,1.774,0,.735.735,0,0,1,.659.809.769.769,0,0,1-.738.725C411.73,835.989,411.454,835.981,411.178,835.981Z" transform="translate(-380.423 -831.308)" fill="#262f43"/>
      <path id="Trazado_621454" data-name="Trazado 621454" d="M524.252,835.909c-.262,0-.523.005-.785,0a.767.767,0,0,1-.768-.714.738.738,0,0,1,.684-.828,16.656,16.656,0,0,1,1.754,0,.74.74,0,0,1,.669.8.767.767,0,0,1-.748.736C524.789,835.916,524.52,835.909,524.252,835.909Z" transform="translate(-488.814 -831.236)" fill="#262f43"/>
    </g>
  </g>
</svg>
