<svg id="Grupo_947812" data-name="Grupo 947812" xmlns="http://www.w3.org/2000/svg" width="69.826" height="70.576" viewBox="0 0 69.826 70.576">
  <ellipse id="Elipse_4870" data-name="Elipse 4870" cx="34.913" cy="35.288" rx="34.913" ry="35.288" transform="translate(0 0)" fill="#49acc5"/>
  <g id="X3YGgP.tif" transform="translate(-515.934 -4491.781)">
    <g id="Grupo_947819" data-name="Grupo 947819" transform="translate(535.826 4504.377)">
      <path id="Trazado_621455" data-name="Trazado 621455" d="M561.69,4546.6H540.928c-1.752-.547-2.333-1.792-2.309-3.555.055-4.038.018-8.078.018-12.117v-.471c-1.777-.287-2.8-1.322-2.8-2.857q-.016-7.4,0-14.8a2.793,2.793,0,0,1,1.849-2.625,9.393,9.393,0,0,1,.954-.233c0-.118,0-.252,0-.387,0-.783-.013-1.566,0-2.35a2.809,2.809,0,0,1,2.867-2.827q9.8,0,19.6,0a2.8,2.8,0,0,1,.572.044,2.827,2.827,0,0,1,2.3,2.822c.013.9,0,1.808,0,2.729a2.883,2.883,0,0,1,2.54,1.67,7.085,7.085,0,0,1,.277.813v15.5a7.588,7.588,0,0,1-.416,1.063,2.856,2.856,0,0,1-2.4,1.419v.5q0,6.341,0,12.681a2.866,2.866,0,0,1-1.763,2.771C562.042,4546.465,561.865,4546.53,561.69,4546.6Zm-10.384-35.177H538.952c-1.2,0-1.7.5-1.7,1.708q0,7.089,0,14.179c0,1.176.508,1.69,1.672,1.69,2.677,0,5.353.006,8.03-.008a1.246,1.246,0,0,0,.673-.218,6.344,6.344,0,0,1,7.361,0,1.249,1.249,0,0,0,.674.214c2.663.015,5.326.01,7.989.009,1.2,0,1.708-.5,1.708-1.7q0-3.606,0-7.213,0-3.524,0-7.048a1.368,1.368,0,0,0-.613-1.35,2.418,2.418,0,0,0-1.092-.259C559.542,4511.414,555.424,4511.42,551.306,4511.42Zm5.331,19.021a6.456,6.456,0,0,1-1.387,8.468,6.388,6.388,0,0,1-7.726.107,6.172,6.172,0,0,1-2.31-3.366,6.344,6.344,0,0,1,.782-5.191h-5.919v.4q0,4.6,0,9.194a1.407,1.407,0,0,0,1.62,1.6h19.235a1.409,1.409,0,0,0,1.606-1.618q0-4.6,0-9.194c0-.131-.015-.263-.024-.406Zm-5.318-1.419a4.914,4.914,0,1,0,4.906,4.93A4.917,4.917,0,0,0,551.32,4529.021Zm11.22-19.047c0-.931.008-1.822,0-2.713a1.388,1.388,0,0,0-1.467-1.478c-.714-.011-1.428-.014-2.141.007a.729.729,0,0,0-.455.2c-.531.537-1.043,1.092-1.556,1.646a2.885,2.885,0,0,1-2.229.965q-3.377-.012-6.753,0a2.914,2.914,0,0,1-2.26-.992c-.5-.546-1.008-1.088-1.527-1.617a.675.675,0,0,0-.413-.2c-.754-.019-1.51-.022-2.265,0a1.3,1.3,0,0,0-1.343,1.057c-.066,1.034-.018,2.075-.018,3.13ZM540.1,4542.723a12.363,12.363,0,0,0,.009,1.323,1.405,1.405,0,0,0,1.569,1.146h19.27a2.828,2.828,0,0,0,.288-.007,1.351,1.351,0,0,0,1.262-1.062,10.371,10.371,0,0,0,.012-1.393,4.545,4.545,0,0,1-2.352.356q-8.791,0-17.581,0A4.781,4.781,0,0,1,540.1,4542.723Zm5.824-36.935c.265.286.479.494.665.724a1.816,1.816,0,0,0,1.55.681c2.155-.022,4.31-.008,6.466-.009a2.339,2.339,0,0,0,1.978-1.4Z" transform="translate(-535.826 -4504.377)" fill="#262f43"/>
      <path id="Trazado_621456" data-name="Trazado 621456" d="M589.6,4615.125c.466,0,.933-.007,1.4,0a1.377,1.377,0,0,1,1.389,1.343q.041,1.461,0,2.925a1.364,1.364,0,0,1-1.384,1.347q-1.419.028-2.84,0a1.379,1.379,0,0,1-1.416-1.4q-.039-1.4,0-2.8a1.4,1.4,0,0,1,1.492-1.414c.453,0,.905,0,1.358,0Zm1.335,4.2v-2.765h-2.716v2.765Z" transform="translate(-582.523 -4605.975)" fill="#262f43"/>
      <path id="Trazado_621457" data-name="Trazado 621457" d="M594.038,4752.624c-2.057,0-4.114,0-6.171,0-.675,0-1.054-.449-.842-.977a.741.741,0,0,1,.755-.462c.494-.006.987,0,1.481,0h10.82c.59,0,.9.215.944.636.047.479-.263.8-.816.8-.823.011-1.646,0-2.468,0Z" transform="translate(-582.742 -4730.793)" fill="#262f43"/>
      <path id="Trazado_621458" data-name="Trazado 621458" d="M802.751,4616.522c-.671,0-1.343,0-2.015,0-.5,0-.786-.261-.791-.691a.678.678,0,0,1,.77-.709q2.035-.008,4.07,0a.682.682,0,0,1,.771.709c-.005.429-.3.688-.792.691C804.094,4616.525,803.422,4616.522,802.751,4616.522Z" transform="translate(-778.128 -4605.97)" fill="#262f43"/>
      <path id="Trazado_621459" data-name="Trazado 621459" d="M589.1,4710.21c-.452,0-.9.006-1.355,0a.728.728,0,0,1-.781-.72.711.711,0,0,1,.767-.687q1.355-.015,2.711,0a.711.711,0,0,1,.762.692.734.734,0,0,1-.788.714C589.981,4710.216,589.543,4710.21,589.1,4710.21Z" transform="translate(-582.744 -4691.909)" fill="#262f43"/>
      <path id="Trazado_621460" data-name="Trazado 621460" d="M793.347,4710.211c-.452,0-.9.007-1.355,0a.73.73,0,0,1-.765-.694.7.7,0,0,1,.74-.71q1.375-.018,2.751,0a.7.7,0,0,1,.744.707.717.717,0,0,1-.759.7C794.25,4710.219,793.8,4710.211,793.347,4710.211Z" transform="translate(-770.13 -4691.911)" fill="#262f43"/>
      <path id="Trazado_621461" data-name="Trazado 621461" d="M657.351,4710.208c-.452,0-.9.007-1.355,0a.694.694,0,0,1-.754-.692.672.672,0,0,1,.725-.713q1.375-.018,2.75,0a.681.681,0,0,1,.739.7.708.708,0,0,1-.75.7C658.254,4710.215,657.8,4710.207,657.351,4710.208Z" transform="translate(-645.378 -4691.906)" fill="#262f43"/>
      <path id="Trazado_621462" data-name="Trazado 621462" d="M725.41,4708.807c.451,0,.9-.009,1.354,0a.673.673,0,0,1,.737.7.687.687,0,0,1-.739.7q-1.354.014-2.709,0a.7.7,0,0,1-.76-.688.685.685,0,0,1,.763-.718C724.507,4708.8,724.958,4708.807,725.41,4708.807Z" transform="translate(-707.807 -4691.917)" fill="#262f43"/>
      <path id="Trazado_621463" data-name="Trazado 621463" d="M742.04,4615.125c.355,0,.711-.01,1.066,0a.7.7,0,0,1,0,1.393c-.711.014-1.422.013-2.133,0a.7.7,0,1,1,0-1.4C741.329,4615.115,741.685,4615.124,742.04,4615.125Z" transform="translate(-723.382 -4605.973)" fill="#262f43"/>
      <path id="Trazado_621464" data-name="Trazado 621464" d="M690.673,4831.816l2.662-3.195c.105-.126.206-.257.319-.377a.686.686,0,0,1,1.018-.118.707.707,0,0,1,.062,1.028c-.588.725-1.19,1.438-1.786,2.155-.535.644-1.067,1.29-1.608,1.929a.733.733,0,0,1-1.227.06q-.267-.256-.524-.523a.736.736,0,0,1-.1-1.062.715.715,0,0,1,1.031-.014C690.567,4831.732,690.609,4831.766,690.673,4831.816Z" transform="translate(-676.63 -4801.223)" fill="#262f43"/>
    </g>
  </g>
</svg>
