<svg xmlns="http://www.w3.org/2000/svg" width="93.993" height="88.6" viewBox="0 0 93.993 88.6">
  <g id="Grupo_948527" data-name="Grupo 948527" transform="translate(-331.003 -10868.138)">
    <g id="QD4Mft.tif" transform="translate(806.198 10828.522)">
      <g id="Grupo_948525" data-name="Grupo 948525" transform="translate(-475.195 39.615)">
        <path id="Trazado_622064" data-name="Trazado 622064" d="M-475.2,99.7c.192-.3.406-.584.572-.9q7.251-13.623,14.493-27.25c.086-.162.171-.324.26-.484a1.9,1.9,0,0,1,2.971-.875q6.435,3.407,12.858,6.834c.266.141.538.272.964.487,0-.446-.01-.791,0-1.136a46.574,46.574,0,0,1,.331-7.305c.9-4.583,3.944-7.6,8.085-9.563.33-.157.671-.29,1.006-.436.024-.01.038-.041.122-.138a10.518,10.518,0,0,1-4.658-9.2,10.141,10.141,0,0,1,3.619-7.544,10.517,10.517,0,0,1,14.754.953c3.582,3.969,4.072,11.292-2.047,15.854a15.523,15.523,0,0,1,7.826,6.343c1.867,3.045,1.9,6.419,1.748,9.977,1.352-.712,2.535-1.329,3.713-1.955q4.489-2.386,8.975-4.777c1.49-.79,2.342-.524,3.145.975q1.535,2.866,3.054,5.741c.685,1.3.464,2.371-.585,2.914-1.028.533-1.985.126-2.672-1.149-.81-1.5-1.612-3.008-2.436-4.547l-11.446,6.085,13.524,25.437,11.454-6.084c-1.007-1.9-1.988-3.723-2.948-5.56a1.622,1.622,0,0,1,.148-2.043,2.516,2.516,0,0,1,1.748-.667A2.317,2.317,0,0,1-385.2,90.8c1.268,2.228,2.442,4.509,3.632,6.781a1.9,1.9,0,0,1-.939,2.949q-5.411,2.895-10.837,5.763c-.971.516-1.961,1-2.907,1.556-1.046.618-2.041.8-3-.1-1.994,1.919-2.6,2.229-4.791,2.451a12.8,12.8,0,0,1-.226,2.062,5.276,5.276,0,0,1-4.378,3.928c-.431.09-.654.192-.632.678a5.625,5.625,0,0,1-6.146,5.588c-.15-.013-.3,0-.535,0-.072.459-.111.905-.214,1.337a5.652,5.652,0,0,1-7.554,4.037c-2.335-.893-4.624-1.91-6.92-2.9a.908.908,0,0,0-1.2.182,12.877,12.877,0,0,1-1.36,1.23,5.151,5.151,0,0,1-5.585.825,5.687,5.687,0,0,1-3.551-4.66c-.02-.15-.036-.3-.063-.526a6.093,6.093,0,0,1-3.52-1.916,5.826,5.826,0,0,1-1.586-3.647,6.209,6.209,0,0,1-5.088-5.69,5.962,5.962,0,0,1-3.924-2.442c-.136.227-.223.368-.306.511a1.936,1.936,0,0,1-2.983.882q-5.546-2.934-11.081-5.888c-.89-.473-1.812-.893-2.661-1.429a15.219,15.219,0,0,1-1.645-1.377Zm30.121-13.02-4.682,8.818c4.173-1.217,6.278-.244,8.271,3.688a5.9,5.9,0,0,1,6.315,8.11,6.511,6.511,0,0,1,3.043,3.615,5.477,5.477,0,0,1-.712,4.709c1.93,1.328,3.171,2.964,3.178,5.342,0,.2.315.481.545.582q3.187,1.391,6.4,2.724a2.02,2.02,0,0,0,2.791-.938,1.969,1.969,0,0,0-1.143-2.7c-1.094-.541-2.212-1.034-3.305-1.576a2.029,2.029,0,0,1-1.171-2.709c.473-.994,1.513-1.288,2.747-.759,2.3.986,4.588,2,6.892,2.97a2.008,2.008,0,0,0,2.774-.973,1.891,1.891,0,0,0-1.227-2.617q-4.23-1.861-8.47-3.7a1.91,1.91,0,0,1-1.322-1.5,1.862,1.862,0,0,1,.725-1.868,1.908,1.908,0,0,1,2.075-.141c3.224,1.459,6.445,2.925,9.686,4.347a6.312,6.312,0,0,0,1.928.468,1.7,1.7,0,0,0,1.8-1.01,1.742,1.742,0,0,0-.519-2.08,6.262,6.262,0,0,0-1.615-1c-3.245-1.486-6.507-2.935-9.757-4.41a1.881,1.881,0,0,1-1.168-2.66,1.9,1.9,0,0,1,2.714-.825c4.327,1.828,8.644,3.68,12.977,5.5a3.37,3.37,0,0,0,1.576.324,1.787,1.787,0,0,0,1.651-1.591c.173-1.014-.221-1.689-1.4-2.3q-12.1-6.307-24.211-12.588a1.913,1.913,0,0,0-1.19-.135c-3.04.655-6.063,1.389-9.107,2.028a5.365,5.365,0,0,1-5.821-2.357A16.207,16.207,0,0,1-445.074,86.678Zm-12.242-12.509-13.53,25.446,11.454,6.086,13.528-25.438Zm41.34.241c0-.883,0-1.64,0-2.4a8.977,8.977,0,0,0-3.146-7.051A12.474,12.474,0,0,0-431.7,62.386c-3.841,1.178-6.784,3.58-7.431,7.664-.515,3.251-.27,6.621-.366,10.063.47-.161.754-.251,1.032-.356q6.464-2.43,12.926-4.866A13.684,13.684,0,0,1-415.976,74.41Zm11.326,23.3c-.131-.316-.167-.427-.221-.527q-4.423-8.331-8.856-16.656a3.164,3.164,0,0,0-.633-.771,7.542,7.542,0,0,0-7.958-1.94c-5.939,2.035-11.8,4.3-17.669,6.532a2.183,2.183,0,0,0-1.063,1.269c-.535,1.654.921,2.912,2.814,2.485,3.183-.719,6.356-1.482,9.55-2.151a3.112,3.112,0,0,1,1.823.22c1.6.743,3.151,1.61,4.721,2.428Zm-23.016-54.377a6.752,6.752,0,0,0-6.809,6.787,6.773,6.773,0,0,0,6.78,6.825,6.838,6.838,0,0,0,6.841-6.8A6.815,6.815,0,0,0-427.666,43.331Zm-12.959,59.524a5.708,5.708,0,0,0-1.022.571c-.732.6-1.416,1.254-2.118,1.888-1.494,1.351-3,2.683-4.472,4.061a1.676,1.676,0,0,0-.046,2.523c.734.853,1.68,1.074,2.4.44q3.512-3.075,6.959-6.224a1.558,1.558,0,0,0,.334-1.934A2.2,2.2,0,0,0-440.625,102.855Zm-4.427-1.9a2.361,2.361,0,0,0-1.312-2.129,1.667,1.667,0,0,0-2.01.389c-1.607,1.451-3.22,2.9-4.818,4.357a1.706,1.706,0,0,0-.158,2.711,1.707,1.707,0,0,0,2.708.175c1.62-1.437,3.236-2.879,4.815-4.36A5.405,5.405,0,0,0-445.051,100.95Zm7.243,9.523a4.453,4.453,0,0,0-.94.536c-1.474,1.28-2.923,2.589-4.369,3.9a1.631,1.631,0,0,0-.13,2.557,1.689,1.689,0,0,0,2.634.294c1.5-1.3,2.963-2.637,4.426-3.976a1.6,1.6,0,0,0,.429-1.921A2.134,2.134,0,0,0-437.809,110.473Zm1.332,13.473a6.928,6.928,0,0,0,1.084-.643c.491-.4.913-.892,1.363-1.346a1.547,1.547,0,0,0,.124-2.4,1.712,1.712,0,0,0-2.559-.426,17.677,17.677,0,0,0-1.693,1.527,1.535,1.535,0,0,0-.38,1.837A2.355,2.355,0,0,0-436.476,123.947Z" transform="translate(475.195 -39.615)"/>
        <path id="Trazado_622065" data-name="Trazado 622065" d="M-24.949,274.171a1.876,1.876,0,0,1-1.866-1.844,1.88,1.88,0,0,1,1.9-1.816,1.816,1.816,0,0,1,1.8,1.8A1.813,1.813,0,0,1-24.949,274.171Z" transform="translate(109.284 -228.043)"/>
        <path id="Trazado_622066" data-name="Trazado 622066" d="M-332.2,295.495a16.208,16.208,0,0,0,1.269,2.774,5.365,5.365,0,0,0,5.821,2.357c3.043-.639,6.067-1.373,9.107-2.028a1.912,1.912,0,0,1,1.19.135Q-302.7,305-290.6,311.322c1.177.614,1.572,1.289,1.4,2.3a1.787,1.787,0,0,1-1.651,1.591,3.37,3.37,0,0,1-1.576-.324c-4.332-1.816-8.65-3.668-12.977-5.5a1.9,1.9,0,0,0-2.714.825,1.881,1.881,0,0,0,1.168,2.66c3.25,1.475,6.512,2.924,9.757,4.41a6.263,6.263,0,0,1,1.615,1,1.742,1.742,0,0,1,.519,2.08,1.7,1.7,0,0,1-1.8,1.01,6.313,6.313,0,0,1-1.928-.468c-3.241-1.421-6.462-2.887-9.686-4.347a1.908,1.908,0,0,0-2.075.141,1.862,1.862,0,0,0-.725,1.868,1.91,1.91,0,0,0,1.322,1.5q4.241,1.837,8.47,3.7a1.891,1.891,0,0,1,1.227,2.617,2.008,2.008,0,0,1-2.774.973c-2.3-.974-4.593-1.983-6.892-2.97-1.234-.529-2.273-.234-2.747.759a2.03,2.03,0,0,0,1.171,2.709c1.094.541,2.211,1.035,3.305,1.576a1.969,1.969,0,0,1,1.143,2.7,2.02,2.02,0,0,1-2.791.938q-3.21-1.337-6.4-2.724c-.231-.1-.545-.383-.545-.582-.007-2.378-1.249-4.014-3.178-5.342a5.477,5.477,0,0,0,.712-4.709,6.511,6.511,0,0,0-3.043-3.615,5.9,5.9,0,0,0-6.315-8.11c-1.994-3.932-4.1-4.9-8.271-3.688Z" transform="translate(362.322 -248.432)" fill="#f6f6f6"/>
        <path id="Trazado_622067" data-name="Trazado 622067" d="M-438.017,227.484l11.452,6.094-13.528,25.438-11.454-6.086Zm-7.457,24.523a1.848,1.848,0,0,0,1.859,1.845,1.909,1.909,0,0,0,1.825-1.814,1.917,1.917,0,0,0-1.84-1.893A1.852,1.852,0,0,0-445.474,252.007Z" transform="translate(455.896 -192.93)" fill="#ffd800"/>
        <path id="Trazado_622068" data-name="Trazado 622068" d="M-257.572,172.421a13.684,13.684,0,0,0-9.56.482q-6.456,2.451-12.926,4.866c-.279.1-.563.194-1.032.356.1-3.442-.149-6.813.366-10.063.647-4.084,3.59-6.487,7.431-7.664a12.474,12.474,0,0,1,12.576,2.576,8.977,8.977,0,0,1,3.146,7.051C-257.574,170.781-257.572,171.538-257.572,172.421Z" transform="translate(316.791 -137.626)" fill="#727997"/>
        <path id="Trazado_622069" data-name="Trazado 622069" d="M-253.644,265.277l-17.491-9.112c-1.57-.818-3.116-1.686-4.721-2.428a3.112,3.112,0,0,0-1.823-.22c-3.193.669-6.367,1.432-9.55,2.151-1.893.427-3.349-.83-2.814-2.485a2.183,2.183,0,0,1,1.063-1.269c5.869-2.232,11.73-4.5,17.669-6.532a7.542,7.542,0,0,1,7.958,1.94,3.163,3.163,0,0,1,.633.771q4.44,8.321,8.856,16.656C-253.811,264.851-253.775,264.961-253.644,265.277Z" transform="translate(324.189 -207.185)" fill="#f6f6f6"/>
        <path id="Trazado_622070" data-name="Trazado 622070" d="M-246.994,59.82a6.815,6.815,0,0,1,6.811,6.816,6.838,6.838,0,0,1-6.841,6.8,6.773,6.773,0,0,1-6.78-6.825A6.752,6.752,0,0,1-246.994,59.82Z" transform="translate(294.523 -56.104)" fill="#727997"/>
        <path id="Trazado_622071" data-name="Trazado 622071" d="M-323.652,383.448a2.2,2.2,0,0,1,2.039,1.326,1.558,1.558,0,0,1-.334,1.934q-3.455,3.138-6.959,6.224c-.724.634-1.67.413-2.4-.44a1.676,1.676,0,0,1,.046-2.523c1.468-1.378,2.978-2.711,4.472-4.061.7-.634,1.386-1.291,2.118-1.888A5.708,5.708,0,0,1-323.652,383.448Z" transform="translate(358.222 -320.208)" fill="#f6f6f6"/>
        <path id="Trazado_622072" data-name="Trazado 622072" d="M-350.766,362.793a5.406,5.406,0,0,1-.775,1.142c-1.579,1.481-3.2,2.923-4.815,4.36a1.707,1.707,0,0,1-2.708-.175,1.706,1.706,0,0,1,.158-2.711c1.6-1.461,3.211-2.906,4.818-4.357a1.667,1.667,0,0,1,2.01-.389A2.361,2.361,0,0,1-350.766,362.793Z" transform="translate(380.909 -301.458)" fill="#f6f6f6"/>
        <path id="Trazado_622073" data-name="Trazado 622073" d="M-298.527,424.87a2.134,2.134,0,0,1,2.049,1.392,1.6,1.6,0,0,1-.429,1.921c-1.463,1.339-2.926,2.679-4.426,3.976a1.689,1.689,0,0,1-2.634-.294,1.631,1.631,0,0,1,.13-2.557c1.446-1.312,2.9-2.621,4.369-3.9A4.453,4.453,0,0,1-298.527,424.87Z" transform="translate(335.913 -354.012)" fill="#f6f6f6"/>
        <path id="Trazado_622074" data-name="Trazado 622074" d="M-274.531,474.972a2.355,2.355,0,0,1-2.061-1.45,1.535,1.535,0,0,1,.38-1.836,17.672,17.672,0,0,1,1.693-1.527,1.712,1.712,0,0,1,2.559.426,1.547,1.547,0,0,1-.124,2.4c-.45.454-.873.941-1.363,1.346A6.928,6.928,0,0,1-274.531,474.972Z" transform="translate(313.249 -390.641)" fill="#f6f6f6"/>
        <path id="Trazado_622075" data-name="Trazado 622075" d="M-418.53,352.549a1.852,1.852,0,0,1,1.844-1.863,1.917,1.917,0,0,1,1.84,1.893,1.909,1.909,0,0,1-1.825,1.814A1.848,1.848,0,0,1-418.53,352.549Z" transform="translate(428.952 -293.472)"/>
      </g>
    </g>
    <g id="Grupo_948526" data-name="Grupo 948526">
      <g id="Elipse_8406" data-name="Elipse 8406" transform="translate(358 10904)" fill="#fff" stroke="#ff5422" stroke-width="3">
        <circle cx="19" cy="19" r="19" stroke="none"/>
        <circle cx="19" cy="19" r="17.5" fill="none"/>
      </g>
      <path id="Trazado_622660" data-name="Trazado 622660" d="M-.007-13.289l3.254-6.617H8.729L3.165-10.035,8.88,0H3.343L-.007-6.74-3.356,0H-8.88l5.7-10.035-5.551-9.871h5.469Z" transform="translate(377 10932)" fill="#ff5422"/>
    </g>
  </g>
</svg>
