<svg xmlns="http://www.w3.org/2000/svg" width="295" height="188.105" viewBox="0 0 295 188.105"><g transform="translate(-1125 -1209.09)"><rect width="275" height="149.854" transform="translate(1125 1232.058)" fill="#f5fafe"/><g transform="translate(1055.513 1115.164)"><g transform="translate(158.459 165.356)"><rect width="151.75" height="99.091" rx="7.462" transform="translate(0 0)" fill="#262f43"/><path d="M217.811,307.7H362.49V217.826a3.454,3.454,0,0,0-3.453-3.454H221.265a3.454,3.454,0,0,0-3.454,3.454Z" transform="translate(-214.276 -210.681)" fill="#cbd7f2"/><path d="M222.2,306.821h139.21V221.233a3.306,3.306,0,0,0-3.324-3.289H225.519a3.306,3.306,0,0,0-3.323,3.289Z" transform="translate(-215.926 -212.026)" fill="#e3e9f9"/><path d="M216.8,359.634H359.239a4.654,4.654,0,0,0,4.654-4.654v-8.109H212.143v8.109A4.653,4.653,0,0,0,216.8,359.634Z" transform="translate(-212.143 -260.543)" fill="#262f43"/><path d="M334.81,355.564a2.55,2.55,0,1,1-2.55-2.55A2.549,2.549,0,0,1,334.81,355.564Z" transform="translate(-256.386 -262.855)" fill="#e3e9f9"/><rect width="58.923" height="4.822" transform="translate(46.414 111.854)" fill="#9faadd"/><path d="M338.382,380.1H315.94l4.042-12.763h15.032Z" transform="translate(-251.204 -268.244)" fill="#e3e9f9"/><path d="M337.757,371.509l-1.1-4.174H321.623l-1.322,4.174Z" transform="translate(-252.845 -268.244)" fill="#c3cee6"/></g><g transform="translate(184.153 170.998)"><g transform="translate(31.086)"><rect width="1.035" height="11.558" transform="translate(1.145 9.939)" fill="#2947ab"/><rect width="1.035" height="18.343" transform="translate(11.438 3.153)" fill="#2947ab"/><rect width="1.035" height="11.558" transform="translate(21.731 9.939)" fill="#2947ab"/><rect width="1.035" height="18.343" transform="translate(32.023 3.153)" fill="#2947ab"/><path d="M356.016,219.164a1.663,1.663,0,1,1-1.663-1.663A1.663,1.663,0,0,1,356.016,219.164Z" transform="translate(-321.813 -217.501)" fill="#9faadd"/><path d="M323.01,219.164a1.663,1.663,0,1,1-1.663-1.663A1.663,1.663,0,0,1,323.01,219.164Z" transform="translate(-309.392 -217.501)" fill="#9faadd"/><path d="M306.508,231.33a1.663,1.663,0,1,1-1.663-1.663A1.663,1.663,0,0,1,306.508,231.33Z" transform="translate(-303.182 -222.079)" fill="#9faadd"/><path d="M339.513,231.33a1.663,1.663,0,1,1-1.663-1.663A1.662,1.662,0,0,1,339.513,231.33Z" transform="translate(-315.603 -222.079)" fill="#9faadd"/></g><g transform="translate(31.086 56.686)"><rect width="1.035" height="11.558" transform="translate(32.023)" fill="#2947ab"/><rect width="1.035" height="18.343" transform="translate(21.731)" fill="#2947ab"/><rect width="1.035" height="11.558" transform="translate(11.438)" fill="#2947ab"/><rect width="1.035" height="18.343" transform="translate(1.145)" fill="#2947ab"/><path d="M303.182,339.187a1.663,1.663,0,1,1,1.663,1.663A1.663,1.663,0,0,1,303.182,339.187Z" transform="translate(-303.182 -319.354)" fill="#9faadd"/><path d="M336.188,339.187a1.663,1.663,0,1,1,1.663,1.663A1.663,1.663,0,0,1,336.188,339.187Z" transform="translate(-315.603 -319.354)" fill="#9faadd"/><path d="M352.691,327.021a1.663,1.663,0,1,1,1.663,1.663A1.663,1.663,0,0,1,352.691,327.021Z" transform="translate(-321.813 -314.776)" fill="#9faadd"/><path d="M319.685,327.021a1.663,1.663,0,1,1,1.663,1.663A1.663,1.663,0,0,1,319.685,327.021Z" transform="translate(-309.392 -314.776)" fill="#9faadd"/></g><g transform="translate(72.246 21.989)"><rect width="14.252" height="1.035" transform="translate(0 1.146)" fill="#2947ab"/><rect width="21.037" height="1.035" transform="translate(0 11.438)" fill="#2947ab"/><rect width="14.252" height="1.035" transform="translate(0 21.731)" fill="#2947ab"/><rect width="21.037" height="1.035" transform="translate(0 32.023)" fill="#2947ab"/><path d="M404.295,305.592a1.663,1.663,0,1,1,1.663-1.663A1.663,1.663,0,0,1,404.295,305.592Z" transform="translate(-381.767 -271.389)" fill="#9faadd"/><path d="M404.295,272.587a1.663,1.663,0,1,1,1.663-1.663A1.663,1.663,0,0,1,404.295,272.587Z" transform="translate(-381.767 -258.968)" fill="#9faadd"/><path d="M392.129,256.084a1.663,1.663,0,1,1,1.663-1.663A1.663,1.663,0,0,1,392.129,256.084Z" transform="translate(-377.189 -252.758)" fill="#9faadd"/><path d="M392.129,289.09a1.663,1.663,0,1,1,1.663-1.663A1.663,1.663,0,0,1,392.129,289.09Z" transform="translate(-377.189 -265.179)" fill="#9faadd"/></g><g transform="translate(0 21.989)"><rect width="14.252" height="1.035" transform="translate(9.939 32.023)" fill="#2947ab"/><rect width="21.037" height="1.035" transform="translate(3.154 21.731)" fill="#2947ab"/><rect width="14.252" height="1.035" transform="translate(9.939 11.438)" fill="#2947ab"/><rect width="21.037" height="1.035" transform="translate(3.154 1.146)" fill="#2947ab"/><path d="M255,252.758a1.663,1.663,0,1,1-1.663,1.663A1.663,1.663,0,0,1,255,252.758Z" transform="translate(-253.34 -252.758)" fill="#9faadd"/><path d="M255,285.764a1.663,1.663,0,1,1-1.663,1.663A1.663,1.663,0,0,1,255,285.764Z" transform="translate(-253.34 -265.179)" fill="#9faadd"/><path d="M267.169,302.267a1.663,1.663,0,1,1-1.663,1.663A1.663,1.663,0,0,1,267.169,302.267Z" transform="translate(-257.918 -271.389)" fill="#9faadd"/><path d="M267.169,269.261a1.663,1.663,0,1,1-1.663,1.663A1.663,1.663,0,0,1,267.169,269.261Z" transform="translate(-257.918 -258.968)" fill="#9faadd"/></g><g transform="translate(21.223 19.32)"><rect width="53.929" height="39.542" rx="3.507" fill="#12263f"/><rect width="49.292" height="35.163" rx="4.458" transform="translate(2.318 2.19)" fill="#8792c9"/><path d="M337.232,286.295H296.8a2.256,2.256,0,0,1-2.3-2.208V257.663a2.257,2.257,0,0,1,2.3-2.209h40.431a2.257,2.257,0,0,1,2.3,2.209v26.423A2.256,2.256,0,0,1,337.232,286.295Z" transform="translate(-290.052 -251.103)" fill="#fff"/><path d="M336.58,285.726H299.612a2.189,2.189,0,0,1-2.244-2.124V259.88a2.189,2.189,0,0,1,2.244-2.124H336.58a2.189,2.189,0,0,1,2.244,2.124V283.6A2.189,2.189,0,0,1,336.58,285.726Zm-36.968-27.689a1.908,1.908,0,0,0-1.963,1.843V283.6a1.908,1.908,0,0,0,1.963,1.842H336.58a1.908,1.908,0,0,0,1.963-1.842V259.88a1.908,1.908,0,0,0-1.963-1.843Z" transform="translate(-291.131 -251.97)" fill="#2947ab"/></g></g><text transform="translate(231.487 216.836)" fill="#2947ab" font-size="17" font-family="Montserrat-Bold, Montserrat" font-weight="700"><tspan x="-17.595" y="0">NFT</tspan></text><g transform="translate(112.705 93.926)"><g transform="translate(60.124 26.896)"><circle cx="27.55" cy="27.55" r="27.55" transform="translate(1.266 1.267)" fill="#12263f"/><circle cx="23.896" cy="23.896" r="23.896" transform="translate(0 46.47) rotate(-76.492)" fill="#a7b6d4"/><circle cx="22.194" cy="22.194" r="22.194" transform="translate(6.623 6.623)" fill="#e3e9f9"/><circle cx="16.897" cy="16.897" r="16.897" transform="translate(11.92 11.92)" fill="#fff"/><g transform="translate(16.316 9.409)"><path d="M281.386,152.137V180.2l12.085-8.316Z" transform="translate(-268.887 -152.137)" fill="#af5e46"/><path d="M281.386,176.3v12.988l12.085-8.316Z" transform="translate(-268.887 -161.231)" fill="#8f4d39"/><path d="M274.093,152.137V180.2l-12.085-8.316Z" transform="translate(-261.595 -152.137)" fill="#f76846"/><path d="M274.093,176.3v12.988l-12.085-8.316Z" transform="translate(-261.595 -161.231)" fill="#af5e46"/><g transform="translate(0 21.638)"><path d="M281.386,204.008l12.541-17.177-12.541,8.912Z" transform="translate(-268.887 -186.831)" fill="#af5e46"/><path d="M273.887,204.008l-12.541-17.177,12.541,8.912Z" transform="translate(-261.345 -186.831)" fill="#f76846"/></g></g></g><g transform="translate(110.082 16.824)"><path d="M316.081,120.9h25.953a.8.8,0,0,1,.8.8v13.474a.8.8,0,0,1-.8.8H324.291l-2.005,3.935-2.573-3.935h-3.632a.8.8,0,0,1-.8-.8V121.7A.8.8,0,0,1,316.081,120.9Z" transform="translate(-315.285 -120.901)" fill="#8e9acb"/><g transform="translate(2.451 6.034)"><path d="M350.547,132.127a1.551,1.551,0,1,0,1.55-1.551A1.55,1.55,0,0,0,350.547,132.127Z" transform="translate(-331.006 -130.576)" fill="#fff"/><path d="M340.1,132.127a1.551,1.551,0,1,0,1.551-1.551A1.55,1.55,0,0,0,340.1,132.127Z" transform="translate(-327.075 -130.576)" fill="#fff"/><path d="M329.659,132.127a1.551,1.551,0,1,0,1.55-1.551A1.55,1.55,0,0,0,329.659,132.127Z" transform="translate(-323.145 -130.576)" fill="#fff"/><path d="M319.215,132.127a1.551,1.551,0,1,0,1.55-1.551A1.55,1.55,0,0,0,319.215,132.127Z" transform="translate(-319.215 -130.576)" fill="#fff"/></g></g><g transform="translate(72.044 1.809)"><path d="M277.735,104.825a3.686,3.686,0,0,1,2.621-4.506l-.923-3.492L254.3,103.473l.924,3.492a3.686,3.686,0,1,1,1.884,7.127l.923,3.492,25.137-6.646-.923-3.492A3.686,3.686,0,0,1,277.735,104.825Z" transform="translate(-254.296 -96.827)" fill="#2947ab"/><path d="M272.751,104.945l2.371,2.72,3.584-.411-1.854,3.1,1.5,3.282-3.517-.807-2.658,2.439-.319-3.594-3.141-1.774,3.319-1.414Z" transform="translate(-259.722 -99.882)" fill="#fff"/><g transform="translate(5.488 3.109)"><rect width="0.513" height="11.233" transform="matrix(0.967, -0.256, 0.256, 0.967, 0, 3.993)" fill="#5f7acf"/><rect width="0.513" height="11.233" transform="translate(14.608 0.131) rotate(-14.81)" fill="#5f7acf"/></g></g><g transform="translate(205.799 73.614)"><path d="M472.549,245.48l-3.793-2.915,3.793-2.915,3.793,2.915Z" transform="translate(-468.756 -222.379)" fill="#f78f5f"/><path d="M468.756,263.257l3.793,2.915V247.239l-3.793-2.915Z" transform="translate(-468.756 -224.138)" fill="#f76846"/><path d="M478.632,263.257l-3.793,2.915V247.239l3.793-2.915Z" transform="translate(-471.045 -224.138)" fill="#af5e46"/><path d="M491.735,227.579l-3.793-2.915,3.793-2.915,3.793,2.915Z" transform="translate(-475.976 -215.642)" fill="#8da1de"/><path d="M487.941,256.521l3.793,2.915v-30.1l-3.793-2.915Z" transform="translate(-475.976 -217.401)" fill="#5f7acf"/><path d="M497.817,256.521l-3.793,2.915v-30.1l3.793-2.915Z" transform="translate(-478.265 -217.401)" fill="#2947ab"/><path d="M510.92,217.787l-3.793-2.915,3.793-2.915,3.794,2.915Z" transform="translate(-483.195 -211.958)" fill="#e3e9f9"/><path d="M507.127,252.836l3.793,2.915v-36.2l-3.793-2.915Z" transform="translate(-483.195 -213.716)" fill="#becae5"/><path d="M517,252.836l-3.793,2.915v-36.2L517,216.631Z" transform="translate(-485.484 -213.716)" fill="#9dabc9"/></g><g transform="translate(173.449 136.486)"><rect width="48.109" height="43.536" fill="#becae5"/><rect width="48.109" height="6.382" fill="#8e9acb"/><circle cx="1.436" cy="1.436" r="1.436" transform="translate(1.489 1.755)" fill="#f76846"/><circle cx="1.436" cy="1.436" r="1.436" transform="translate(6.062 1.755)" fill="#fff"/><circle cx="1.436" cy="1.436" r="1.436" transform="translate(10.636 1.755)" fill="#f7a463"/><circle cx="14.31" cy="14.31" r="14.31" transform="matrix(0.169, -0.986, 0.986, 0.169, 7.532, 36.79)" fill="#fff"/><path d="M462.357,347.487l-14.737,8.321V339.165Z" transform="translate(-428.452 -322.699)" fill="#ffd800"/></g><g transform="translate(216.311 122.972)"><rect width="35.471" height="31.294" fill="#e3e9f9"/><rect width="30.844" height="26.666" transform="translate(2.314 2.314)" fill="#becae5"/><path d="M489.32,327.384v-8.222l7.763-8.648,11.653,16.87Z" transform="translate(-487.006 -298.404)" fill="#8e9acb"/><path d="M517.721,328.8l-4.524-6.55,9.068-7.975,6.884,5.764v8.76Z" transform="translate(-495.992 -299.819)" fill="#7e92be"/><circle cx="4.764" cy="4.764" r="4.764" transform="translate(13.595 5.514)" fill="#fff"/></g><g transform="translate(0 111.295)"><path d="M154.584,314.956H142.323a3.541,3.541,0,0,1-3.541-3.541V296.844h19.342v14.571A3.541,3.541,0,0,1,154.584,314.956Z" transform="translate(-138.782 -281.582)" fill="#262f43"/><circle cx="4.81" cy="4.81" r="4.81" transform="translate(3.884 27.894) rotate(-76.718)" fill="#dee4f0"/><path d="M142.053,280v7.631h2.39v-7.764a5.241,5.241,0,0,1,5.241-5.241h0a5.241,5.241,0,0,1,5.241,5.241v3.561h2.391V280a7.631,7.631,0,0,0-7.631-7.631h0A7.631,7.631,0,0,0,142.053,280Z" transform="translate(-140.013 -272.374)" fill="#12263f"/></g><g transform="translate(13.631)"><path d="M183.385,108.692l4.257-.944-.521-4.11-4.363.148a9.319,9.319,0,0,0-.692-1.355l2.655-3.46-3.04-2.813-3.246,2.918a9.265,9.265,0,0,0-1.4-.588l-.19-4.361-4.138-.2-.611,4.322a9.316,9.316,0,0,0-1.453.45l-2.948-3.218-3.3,2.506,2.308,3.7a9.339,9.339,0,0,0-.82,1.282l-4.328-.571-.916,4.041,4.146,1.351a9.28,9.28,0,0,0,.2,1.509l-3.683,2.345,1.9,3.685,4.043-1.63a9.39,9.39,0,0,0,1.121,1.031l-1.313,4.162,3.82,1.6,2.053-3.852c.25.032.5.063.757.075s.51.006.762,0l1.67,4.033,3.957-1.226-.9-4.27a9.321,9.321,0,0,0,1.216-.917l3.866,2.014,2.243-3.483-3.439-2.692A9.3,9.3,0,0,0,183.385,108.692Zm-9.526,4.164a5.49,5.49,0,1,1,5.75-5.217A5.49,5.49,0,0,1,173.86,112.856Z" transform="translate(-160.637 -93.926)" fill="#e3e9f9"/><path d="M177.681,103.248a7.633,7.633,0,1,0,7.633,7.633A7.633,7.633,0,0,0,177.681,103.248Zm-.28,13.116a5.49,5.49,0,1,1,5.75-5.217A5.49,5.49,0,0,1,177.4,116.364Z" transform="translate(-164.178 -97.434)" fill="#becae5"/></g><g transform="translate(206.026 43.4)"><path d="M484.1,173.237l2.8-.621-.342-2.707-2.874.1a6.125,6.125,0,0,0-.455-.892l1.748-2.278-2-1.853-2.137,1.921a6.147,6.147,0,0,0-.923-.387l-.125-2.871-2.725-.133-.4,2.846a6.142,6.142,0,0,0-.957.3l-1.941-2.119-2.173,1.65,1.519,2.437a6.155,6.155,0,0,0-.539.844l-2.85-.375-.6,2.661,2.73.889a6.137,6.137,0,0,0,.13.994l-2.425,1.545,1.248,2.426,2.662-1.073a6.189,6.189,0,0,0,.738.679l-.865,2.741,2.516,1.056,1.352-2.537c.165.021.33.041.5.05s.335,0,.5,0l1.1,2.656,2.606-.808-.6-2.812a6.2,6.2,0,0,0,.8-.6l2.546,1.326,1.477-2.294-2.265-1.773A6.078,6.078,0,0,0,484.1,173.237Zm-6.272,2.742a3.615,3.615,0,1,1,3.786-3.435A3.615,3.615,0,0,1,477.827,175.979Z" transform="translate(-469.119 -163.513)" fill="#e3e9f9"/><path d="M480.343,169.652a5.027,5.027,0,1,0,5.027,5.026A5.026,5.026,0,0,0,480.343,169.652Zm-.184,8.637a3.615,3.615,0,1,1,3.786-3.435A3.615,3.615,0,0,1,480.159,178.289Z" transform="translate(-471.451 -165.823)" fill="#becae5"/></g><g transform="translate(45.906 12.023)"><path d="M225.75,123.328l2.626.03.258-2.483-2.58-.511a5.67,5.67,0,0,0-.221-.889l2.032-1.666-1.4-2.068-2.3,1.267a5.636,5.636,0,0,0-.742-.537l.486-2.585-2.4-.685-.951,2.452a5.629,5.629,0,0,0-.913.065l-1.289-2.292-2.279,1.018.848,2.487a5.672,5.672,0,0,0-.657.639l-2.461-.927-1.091,2.245,2.248,1.36a5.612,5.612,0,0,0-.092.912l-2.482.871.607,2.421,2.6-.4a5.664,5.664,0,0,0,.516.758l-1.34,2.262,2.021,1.464,1.732-1.979c.142.053.285.105.433.148s.3.074.447.1l.427,2.595,2.49-.177.054-2.629a5.66,5.66,0,0,0,.839-.372l1.993,1.71,1.793-1.736-1.649-2.05A5.56,5.56,0,0,0,225.75,123.328Zm-6.159,1.139a3.307,3.307,0,1,1,4.088-2.273A3.307,3.307,0,0,1,219.591,124.467Z" transform="translate(-212.386 -113.203)" fill="#8e9acb"/><path d="M222.7,118.949a4.5,4.5,0,1,0,4.5,4.5A4.5,4.5,0,0,0,222.7,118.949Zm3.169,5.407a3.308,3.308,0,1,1-2.274-4.088A3.308,3.308,0,0,1,225.865,124.356Z" transform="translate(-214.572 -115.365)" fill="#747ea6"/></g></g><path d="M193.27,370.75l-.284,10.352,5.956.6.709-11.983Z" transform="translate(-46.475 -103.787)" fill="#ffa476"/><path d="M170.017,391.6h21.414a6.6,6.6,0,0,0,0-3.581,22.361,22.361,0,0,1-.674-2.446c-.213-.319-.674-.709-2.2,0s-2.517.957-2.977.532-.957-1.294-1.879-.931-2.482,1.6-4.184,2.207-7.941,2.021-8.828,2.233S169.84,391.033,170.017,391.6Z" transform="translate(-37.793 -109.569)" fill="#ff5422"/><g transform="translate(252.232 98.622)"><path d="M389.113,304.874l-2.127,12.267L381.6,315.06l1.205-11.391Z" transform="translate(-369.684 -177.551)" fill="#ffa476"/><path d="M447.74,297.851l2.646,12.165-5.776.1-3.171-11.007Z" transform="translate(-392.205 -175.362)" fill="#ffa476"/><path d="M445.956,320.777c.263-.107,20.364-3.375,20.613-3.705s-.673-2.788-.673-2.788-7.74.542-11.158-.9-3.892-1.481-4.678-.778-1.366,1.724-3.138,1.132-2.225.74-2.089,1.451,1.109,2.917,1.074,3.773A16.6,16.6,0,0,0,445.956,320.777Z" transform="translate(-393.473 -180.746)" fill="#1565c0"/><path d="M446.561,320.968c0,.025,0,.052,0,.075a16.607,16.607,0,0,0,.049,1.817c.263-.107,20.365-3.375,20.613-3.705.12-.16-.035-.821-.226-1.46C461.262,318.622,451.468,320.2,446.561,320.968Z" transform="translate(-394.129 -182.83)" fill="#b05a46"/><path d="M363.674,190.777s-.957,7.784,1.17,9.7,15.528,7.552,15.475,7.764-4.733,46.691-5.265,53.924c0,0,4.68,2.34,8.3.532l8.934-57.54,5.53,2.127,14.465,55.449s5.672,0,7.8-2.553c0,0-13.472-61.546-14.465-62.4s-16.1-7.232-16.1-7.232Z" transform="translate(-362.859 -134.982)" fill="#12263f"/><path d="M396.815,144.352c-.709-.5-3.545-6.417-5.814-8.225-3.146-2.507-8.28-3.829-8.28-3.829l-7.674-1.383c-4.376-.1-7.658,1.1-8.863,2.162s-3.475,15.954-3.262,17.94a6.086,6.086,0,0,0,1.56,3.332s-.354,6.736-1.063,8.367-.922,6.337-.922,6.337.78-.24,9.856-.026a111.615,111.615,0,0,0,16.8-.922,34.3,34.3,0,0,1-.228-4.751l3.56,1.064c1.7-.993,2.2-5.531,2.2-5.531l-5.318-2.269-.142-7.87s3.049,3.049,3.687,3.616,10.21-.5,15.387-1.134,13.117-1.986,13.117-1.986l2.34-4.183C418.158,144.706,396.815,144.352,396.815,144.352Z" transform="translate(-362.497 -112.539)" fill="#1565c0"/><path d="M384.18,124.723s.177,3.332-.39,3.581a3.874,3.874,0,0,1-1.17.284,5.651,5.651,0,0,0,4.644,3.722c3.251.263,3.411-2.056,3.411-2.056a8.4,8.4,0,0,1,.6-2.978C391.8,126.389,384.18,124.723,384.18,124.723Z" transform="translate(-370.07 -110.211)" fill="#ffa476"/><path d="M385.1,124.723a19.527,19.527,0,0,1-.036,2.519c1.427.506,3.2,1.6,3.959,1.877.791.293,2.139-.4,2.8-.792a3.623,3.623,0,0,1,.367-1.051C392.721,126.389,385.1,124.723,385.1,124.723Z" transform="translate(-370.989 -110.211)" fill="#d59470"/><path d="M392.57,110.67a7.254,7.254,0,0,0,1.579-1.7,3.735,3.735,0,0,0,.541-2.387,3.071,3.071,0,0,0-1.216-2.1,6.877,6.877,0,0,1-.584-.412,7.905,7.905,0,0,1-.94-1.41,3.355,3.355,0,0,0-2.922-1.2,8.551,8.551,0,0,0-3.126.977c-1.33-.473-2.82-.869-4.091-.254a5.89,5.89,0,0,0-2.485,3.348,4.779,4.779,0,0,0-.409,1.458,5.761,5.761,0,0,1-.061,1.181,4.613,4.613,0,0,1-.327.721,3.192,3.192,0,0,0,.659,3.564,1.684,1.684,0,0,1,.39.447,1.8,1.8,0,0,1,.11.522,3.114,3.114,0,0,0,2.78,2.443,5.257,5.257,0,0,0,3.688-1.226c.452-.349.864-.744,1.287-1.128C388.889,112.2,391.08,111.928,392.57,110.67Z" transform="translate(-368.425 -101.455)" fill="#4b1417"/><path d="M383.22,115.9a5.709,5.709,0,0,0,.691,3.8c1.09,1.463,2.393,3.324,4.547,3.457s4.281-2.872,4.866-4.92a44.183,44.183,0,0,0,.9-6.328,3.652,3.652,0,0,1-1.736-.366,6.805,6.805,0,0,1-1.382-1.047,5.112,5.112,0,0,1-2.818.369,9.2,9.2,0,0,1-2.724-.9,8.488,8.488,0,0,1-1.018,3.173.954.954,0,0,1-.235.324.353.353,0,0,1-.377.056.436.436,0,0,1-.156-.168,2.809,2.809,0,0,1-.272-1.459c0-.269-.382-.43-.652-.427a1.146,1.146,0,0,0-.962.668,2.216,2.216,0,0,0-.162,1.2,1.6,1.6,0,0,0,.121.509,1.687,1.687,0,0,0,.342.455,6.869,6.869,0,0,0,1.139.946A4.489,4.489,0,0,0,383.22,115.9Z" transform="translate(-369.73 -104.656)" fill="#ffa476"/><path d="M394.627,120.905a.117.117,0,0,1-.089-.04.119.119,0,0,1,.011-.167,4.187,4.187,0,0,0,.395-.392.873.873,0,0,0,.144-.2,1.048,1.048,0,0,0,0-.607,8.83,8.83,0,0,1-.1-2.614.112.112,0,0,1,.13-.1.118.118,0,0,1,.1.13,8.561,8.561,0,0,0,.092,2.523,1.271,1.271,0,0,1-.012.771,1.087,1.087,0,0,1-.182.259,4.569,4.569,0,0,1-.416.414A.118.118,0,0,1,394.627,120.905Z" transform="translate(-374.544 -107.221)" fill="#4b1417"/><path d="M391.6,114.312a.117.117,0,0,1-.077-.028,2.452,2.452,0,0,0-2.16-.511.118.118,0,1,1-.057-.229,2.7,2.7,0,0,1,2.371.561.118.118,0,0,1-.077.207Z" transform="translate(-372.553 -105.976)" fill="#4b1417"/><path d="M399.076,115.521a.135.135,0,0,1-.038-.006,4.1,4.1,0,0,0-2.049-.15.113.113,0,0,1-.137-.095.118.118,0,0,1,.094-.137,4.36,4.36,0,0,1,2.167.158.118.118,0,0,1-.037.23Z" transform="translate(-375.425 -106.576)" fill="#4b1417"/><path d="M398.519,116.72c-.059.284-.248.485-.42.449s-.264-.3-.2-.579.248-.485.42-.449S398.579,116.436,398.519,116.72Z" transform="translate(-375.811 -106.98)" fill="#4b1417"/><path d="M391.034,115.343c-.059.284-.248.485-.42.448s-.264-.3-.2-.579.248-.485.42-.448S391.094,115.059,391.034,115.343Z" transform="translate(-372.994 -106.461)" fill="#4b1417"/><path d="M393.77,125.651h-.009a4.748,4.748,0,0,1-2.492-.684.118.118,0,1,1,.141-.19,4.562,4.562,0,0,0,2.369.638.118.118,0,0,1-.009.235Z" transform="translate(-373.307 -110.223)" fill="#4b1417"/><path d="M378.467,153.643c-.306-10.372-1.418-13-1.418-13a67.782,67.782,0,0,1,.284,13Z" transform="translate(-367.973 -116.2)" fill="#79ace6"/><path d="M375.4,160.9c5.85,1.383,18.826,6.984,18.826,6.984l-.019-1.07C377.7,159.933,375.4,160.9,375.4,160.9Z" transform="translate(-367.353 -123.809)" fill="#79ace6"/><path d="M365.578,168.493s-.056,1.067-.168,2.452c6.618,3.785,21.849,6.81,24.612,7.338,0-.475,0-.785,0-.785S372.332,173,365.578,168.493Z" transform="translate(-363.593 -126.682)" fill="#79ace6"/><path d="M405.319,154.506s.889.888,1.806,1.795c-.717-3.471-1.806-10.091-1.806-10.091C405.177,148.975,405.319,154.506,405.319,154.506Z" transform="translate(-378.588 -118.297)" fill="#79ace6"/><path d="M408.821,209.723a25.279,25.279,0,0,0-1.531-6c-1.063-2.021-10.459-5.1-10.459-5.1,2.056,1.7,8.651,5.6,8.651,6.027s-.638,3.545-.638,3.545Z" transform="translate(-375.417 -138.02)" fill="#293272"/><path d="M378.527,325.767c.284,0,20.137,4.538,20.492,4.325s.425-2.836.425-2.836-7.374-2.411-10-5.034-3.049-2.837-4.042-2.482-1.915,1.083-3.333-.132-2.339-.152-2.482.558-.07,3.12-.425,3.9A16.64,16.64,0,0,0,378.527,325.767Z" transform="translate(-368.529 -183.341)" fill="#1565c0"/><path d="M379.191,326.976c-.009.023-.017.049-.026.07a16.642,16.642,0,0,0-.638,1.7c.284,0,20.137,4.539,20.492,4.325.172-.1.277-.774.34-1.438C393.7,330.335,384.027,328.111,379.191,326.976Z" transform="translate(-368.529 -186.322)" fill="#b05a46"/><g transform="translate(36.734 14.512)"><path d="M451.334,143.715a1.346,1.346,0,0,1,1.835-.506l.858-1.514a1.346,1.346,0,0,1,1.328-2.341l.74-1.305a1.346,1.346,0,0,1,1.328-2.341l1.753-3.09-1.232-6.347-2.728-1.547-18.791,33.133,6.384,3.62,9.032-15.926A1.347,1.347,0,0,1,451.334,143.715Z" transform="translate(-427.051 -124.723)" fill="#9dabc9"/><rect width="31.922" height="0.798" transform="translate(12.765 31.571) rotate(-60.442)" fill="#778aad"/><path d="M435.535,175.555a9.467,9.467,0,1,0,3.564,12.906A9.467,9.467,0,0,0,435.535,175.555Zm-.665,10.507a4.6,4.6,0,1,1-1.734-6.277A4.6,4.6,0,0,1,434.87,186.062Z" transform="translate(-421.396 -143.388)" fill="#becae5"/><path d="M435.837,179.592a6.728,6.728,0,1,0,2.533,9.171A6.727,6.727,0,0,0,435.837,179.592Zm.686,8.123a4.6,4.6,0,1,1-1.734-6.277A4.6,4.6,0,0,1,436.523,187.715Z" transform="translate(-423.049 -145.041)" fill="#9dabc9"/></g><g transform="translate(30.436 46.776)"><path d="M413,176.455s4.524,1.557,4.95,1.557a17.209,17.209,0,0,1,2.659-.567l-1.17,1.418a13.4,13.4,0,0,0,2.872,1.2c1.844.568,3.439.745,3.581.816s.78,1-1.206.895c0,0,1.277.488,1.719.594s.5.886-.266.957a49.208,49.208,0,0,1-5.655-1.17.38.38,0,0,0,.231.39c.266.106,4.13,1.666,4.254,1.826a.482.482,0,0,1-.284.745,32.973,32.973,0,0,1-4.325-1.188,2.807,2.807,0,0,0,.922.745c.635.264.4.482.1.534a5.788,5.788,0,0,1-2.393-.479,19.131,19.131,0,0,1-2.828-2.076,32.3,32.3,0,0,0-4.857-1.791Z" transform="translate(-411.298 -176.455)" fill="#ffa476"/><path d="M425.537,183.258c1.841.47,3.612.85,4.73,1.077a1.9,1.9,0,0,0,.988-.17C426.214,183,425.537,183.258,425.537,183.258Z" transform="translate(-416.656 -179.006)" fill="#d59470"/><path d="M427.24,188.74A14.632,14.632,0,0,0,424,187.479a6.129,6.129,0,0,0,1.188.665c-.032-.036-.053-.062-.053-.062S426.175,188.423,427.24,188.74Z" transform="translate(-416.079 -180.604)" fill="#d59470"/></g></g><g transform="translate(69.487 124.116)"><path d="M192.945,150.829s-1.661-1.859-1.449-3.7,1.383-4.078,3.191-4.5,6.116-.478,6.754.479,1.968.851,2.5,1.329a8.7,8.7,0,0,1,2.286,5.371c.16,2.818,2.925,11.753,4.041,12.657s-2.339.425-2.765.372-6.339-.957-6.519-1.17-2.627-7.871-2.627-7.871Z" transform="translate(-115.394 -142.331)" fill="#4b1417"/><path d="M276.924,348.163l7.828,6.781,4.241-4.225-8.819-8.143Z" transform="translate(-147.549 -217.686)" fill="#ffa476"/><path d="M280.078,372.929l13.571-16.563a6.6,6.6,0,0,0-2.769-2.27,22.61,22.61,0,0,1-2.319-1.029c-.382-.038-.975.071-1.393,1.7s-.855,2.553-1.476,2.64-1.607-.079-1.911.864-.332,2.936-.944,4.635-3.47,7.424-3.867,8.244S279.527,372.707,280.078,372.929Z" transform="translate(-148.283 -221.633)" fill="#ff5422"/><path d="M213.112,223.576a192.066,192.066,0,0,1,2.878,42.26s22.3,19.712,34.6,33.751c0,0-1.007,4.822-3.941,5.815,0,0-36.091-29.355-38.5-32.333s-3.97-19.287-3.97-19.287L199.356,316.6a10.211,10.211,0,0,1-8.084-.709s-.675-48.108.017-64.755.692-28.318.692-28.318Z" transform="translate(-115.206 -172.622)" fill="#12263f"/><path d="M183.562,169.97s7.729,1.986,9.217,3.971.355,11.345,0,13.614.5,13.543,1.277,16.238a41.773,41.773,0,0,1-10.14,1.489c-5.389.071-13.117-.5-13.117-.5a27.25,27.25,0,0,1,.354-4.751l-4.751.5-.425-3.687s3.72-1.348,5.618-1.773a23.831,23.831,0,0,0-.478-5.814,18.656,18.656,0,0,1,0-8.863s-8.65,8.367-10.4,9.271-21.432,5.584-21.432,5.584l-.638-4.414s20.1-6.807,21.75-7.817,7.285-10.37,8.243-10.955a72.347,72.347,0,0,1,6.842-2.375Z" transform="translate(-95.512 -152.626)" fill="#ff5422"/><path d="M203.651,160.535s.036,5.353.532,5.566a11.09,11.09,0,0,0,1.418.425s-1.312,6.027-7.126,6.027c0,0-2.021-.638-.957-6.31,0,0,.839-.25.98-.6a44.385,44.385,0,0,0-.165-4.536Z" transform="translate(-117.551 -149.182)" fill="#ffa476"/><path d="M201.651,160.828l-2.462,1.972c.015.255.03.52.042.781a4.118,4.118,0,0,0,1.948.783,23.037,23.037,0,0,1,3.358-.177c-.127-1.612-.141-3.652-.141-3.652Z" transform="translate(-118.296 -149.182)" fill="#d59470"/><path d="M193.546,151.011s-.525,6.943,4.6,8.553a2.115,2.115,0,0,0,1.339-.016,5.014,5.014,0,0,0,3.388-4.992s.851-.071.957-1.383-.213-2.482-.744-2.163-.178,1.312-.709,1.418-1.17-1.418-1.134-1.844-5.546,1.631-7.709-.567Z" transform="translate(-116.166 -145.224)" fill="#ffa476"/><path d="M200.766,158.02a.072.072,0,0,1-.02,0,2.369,2.369,0,0,1-.49-.138.321.321,0,0,1-.165-.123.329.329,0,0,1-.036-.194l.066-1.2q.026-.483.054-.965a.117.117,0,0,1,.125-.111.118.118,0,0,1,.111.125c-.019.322-.037.643-.055.965l-.065,1.2a.207.207,0,0,0,0,.06.169.169,0,0,0,.051.026,2.189,2.189,0,0,0,.442.125.118.118,0,0,1-.02.234Z" transform="translate(-118.621 -147.207)" fill="#4b1417"/><path d="M208.542,207.975c1.327-.841,2.748-3.253,3.661-5.016a36.368,36.368,0,0,1-.027-4.116h0c-.328,2.523-2.623,7.325-4.006,8.389s-17.585,3.776-17.585,3.776a13.512,13.512,0,0,0-.3,2.675C194.36,212.565,206.726,209.127,208.542,207.975Z" transform="translate(-114.944 -163.597)" fill="#b05a46"/><path d="M206.813,203a71.186,71.186,0,0,0-15.325,3.145c.014.862-.01,1.464-.01,1.464S200.984,204.114,206.813,203Z" transform="translate(-115.394 -165.161)" fill="#b05a46"/><path d="M210.665,196.017l.842-.332a70.428,70.428,0,0,1,4.068-13.321S211.3,190.486,210.665,196.017Z" transform="translate(-122.615 -157.396)" fill="#b05a46"/><path d="M209.608,268.808l.588-7.663a114.4,114.4,0,0,0-3.085-18.754A90.679,90.679,0,0,0,209.608,268.808Z" transform="translate(-121.224 -179.985)" fill="#293272"/><path d="M222.526,238.167a.164.164,0,0,1-.114-.045,20.212,20.212,0,0,1-4.615-6.514.168.168,0,0,1,.312-.125,19.871,19.871,0,0,0,4.531,6.391.168.168,0,0,1-.114.293Z" transform="translate(-125.294 -175.841)" fill="#8d9cc9"/><g transform="translate(0 6.266)"><path d="M132.535,161.635c-9.376-1.108-15.88-9.257-15.88-9.257l-13.919,3.934-10.644,3.009-13.919,3.934s-1.275,10.348-8.685,16.2c0,0,8.719,37.1,47.666,48.2C144.528,197.814,132.535,161.635,132.535,161.635Z" transform="translate(-69.487 -152.378)" fill="#12263f"/><path d="M131.794,168.621c-8.216-.97-13.914-8.112-13.914-8.112l-12.2,3.447-9.327,2.636-12.2,3.448s-1.118,9.067-7.61,14.2c0,0,7.639,32.513,41.767,42.236C142.3,200.322,131.794,168.621,131.794,168.621Z" transform="translate(-72.145 -155.438)" fill="#becae5"/><path d="M131.65,171.881c-7.665-.906-12.981-7.568-12.981-7.568l-11.378,3.216-8.7,2.459L87.21,173.2s-1.042,8.46-7.1,13.243c0,0,7.127,30.332,38.965,39.4C141.455,201.456,131.65,171.881,131.65,171.881Z" transform="translate(-73.485 -156.869)" fill="#e3e9f9"/><circle cx="16.542" cy="16.542" r="16.542" transform="translate(16.481 47.025) rotate(-80.358)" fill="#fff"/><circle cx="13.194" cy="13.194" r="13.194" transform="matrix(0.64, -0.768, 0.768, 0.64, 16.977, 35.176)" fill="#1565c0"/><path d="M117.415,204.052,122.771,206l3.917-11.14,1.96.435-4.62,13.4-7.365-2.505Z" transform="translate(-87.24 -168.365)" fill="#fff"/></g><g transform="translate(57.33 43.154)"><path d="M174.567,212.526a20.763,20.763,0,0,1-3.475.234,18.832,18.832,0,0,1-1.838-1.236,9.63,9.63,0,0,1-.2,1.838,28.6,28.6,0,0,1-5.245,0c-1.938-.167-1.621.384-1.437.634s1.554.518,1.554.518-1.971-.268-2.272,0-.351.518,0,.752a43.549,43.549,0,0,0,4.928.618s-3.141.05-4.26.084-.886.8.05.952,4.193.084,4.193.084-1.37.3-1.453.568.367.669,1.52.5,3.525-.084,4.678-.886a15.988,15.988,0,0,1,3.622-1.5Z" transform="translate(-161.409 -211.524)" fill="#ffa476"/><path d="M167.739,216.076a27.89,27.89,0,0,1-5-1.209.48.48,0,0,0,.127.387c.184.251,1.554.518,1.554.518l-.041-.006A14.72,14.72,0,0,0,167.739,216.076Z" transform="translate(-161.907 -212.782)" fill="#d88876"/></g><path d="M201.527,161.71a.118.118,0,0,1,0-.235,3.563,3.563,0,0,0,1.134-.19,1,1,0,0,0,.3-.146.118.118,0,0,1,.165.019.117.117,0,0,1-.019.165,1.229,1.229,0,0,1-.37.185,3.8,3.8,0,0,1-1.21.2Z" transform="translate(-119.132 -149.4)" fill="#4b1417"/><path d="M203.7,154.645c.036.259-.076.488-.251.513s-.345-.166-.381-.425.076-.488.251-.512S203.666,154.386,203.7,154.645Z" transform="translate(-119.754 -146.805)" fill="#4b1417"/><path d="M197.33,155.148c.036.259-.076.488-.251.513s-.345-.166-.381-.425.076-.488.251-.512S197.294,154.889,197.33,155.148Z" transform="translate(-117.356 -146.994)" fill="#4b1417"/><path d="M195.615,154.231a.118.118,0,0,1-.049-.225,2.967,2.967,0,0,1,1.421-.235.119.119,0,0,1,.1.133.121.121,0,0,1-.133.1,2.732,2.732,0,0,0-1.291.216A.121.121,0,0,1,195.615,154.231Z" transform="translate(-116.907 -146.63)" fill="#4b1417"/><path d="M202.309,153.725a.118.118,0,0,1-.05-.225,2.883,2.883,0,0,1,1.572-.169.118.118,0,1,1-.041.233,2.714,2.714,0,0,0-1.433.151A.112.112,0,0,1,202.309,153.725Z" transform="translate(-119.426 -146.455)" fill="#4b1417"/></g></g></g></svg>