<svg xmlns="http://www.w3.org/2000/svg" width="73.805" height="73.938" viewBox="0 0 73.805 73.938">
  <g id="B4zLmt.tif" transform="translate(222.556 -452.922)">
    <g id="Grupo_948528" data-name="Grupo 948528" transform="translate(-222.556 452.922)">
      <path id="Trazado_622076" data-name="Trazado 622076" d="M-211.978,816.484q-3.306-2.106-6.613-4.21c-1.055-.67-2.11-1.34-3.18-1.987a1.423,1.423,0,0,1-.756-1.356q.032-4.945,0-9.89a1.386,1.386,0,0,1,.72-1.3q4.776-2.969,9.539-5.96a1.257,1.257,0,0,1,1.476,0q4.764,2.987,9.54,5.955a1.388,1.388,0,0,1,.7,1.314q-.034,4.909,0,9.817a1.545,1.545,0,0,1-.823,1.467c-3.124,1.938-6.234,3.9-9.348,5.854-.137.086-.26.2-.39.294ZM-203.7,798.8c-1.945-1.215-3.816-2.388-5.691-3.556-.693-.431-1.394-1.192-2.087-1.186-.724.006-1.45.739-2.16,1.179-1.891,1.17-3.774,2.352-5.724,3.569,2.555,1.6,5.033,3.155,7.532,4.68a.9.9,0,0,0,.754-.082c1.379-.829,2.737-1.693,4.1-2.547C-205.906,800.182-204.835,799.508-203.7,798.8Zm.973,2.134c-.128,0-.184-.018-.217,0-2.385,1.484-4.773,2.963-7.141,4.474a.956.956,0,0,0-.317.7c-.024,2.236-.015,4.473-.012,6.709,0,.152.031.3.059.557,2.524-1.586,4.964-3.11,7.386-4.661a.829.829,0,0,0,.231-.609c.02-1.394.01-2.789.01-4.184Zm-10,12.421a1.66,1.66,0,0,0,.081-.3c0-2.354.021-4.708-.012-7.061a1.043,1.043,0,0,0-.472-.694c-2.2-1.406-4.427-2.785-6.646-4.168-.153-.1-.32-.168-.571-.3,0,2.562-.005,5.028.013,7.493a.644.644,0,0,0,.289.436C-217.644,810.285-215.226,811.794-212.734,813.353Z" transform="translate(222.531 -742.545)"/>
      <path id="Trazado_622077" data-name="Trazado 622077" d="M158.421,471.377q-5.059,3.187-10.116,6.376a1.257,1.257,0,0,1-1.477-.009q-4.761-3-9.536-5.969a1.4,1.4,0,0,1-.711-1.312q.022-4.946,0-9.891a1.4,1.4,0,0,1,.707-1.314q4.779-2.968,9.543-5.96a1.261,1.261,0,0,1,1.477-.007q4.765,2.988,9.538,5.962c.2.126.384.284.575.427Zm-18.678-11.061c1.915,1.2,3.745,2.345,5.577,3.488.733.457,1.474,1.263,2.207,1.258.765-.005,1.534-.78,2.285-1.246,1.846-1.146,3.681-2.307,5.59-3.505-2.564-1.6-5.044-3.158-7.536-4.694a.663.663,0,0,0-.576,0C144.8,457.15,142.32,458.706,139.743,460.316Zm6.717,14.6c0-2.59.011-5.016-.019-7.44a.957.957,0,0,0-.429-.643c-2.246-1.43-4.507-2.836-6.767-4.244a3.8,3.8,0,0,0-.474-.206c0,2.5-.011,4.929.02,7.352a.971.971,0,0,0,.437.637c1.183.776,2.389,1.517,3.589,2.268C143.989,473.376,145.163,474.108,146.46,474.917Zm2.219.015c2.58-1.619,5.02-3.14,7.439-4.691a.919.919,0,0,0,.257-.674c.023-1.418.012-2.836.012-4.254v-2.929a2.653,2.653,0,0,0-.343.136c-2.344,1.458-4.69,2.914-7.022,4.391a.8.8,0,0,0-.328.565C148.671,469.9,148.679,472.328,148.679,474.933Z" transform="translate(-84.616 -453.037)"/>
      <path id="Trazado_622078" data-name="Trazado 622078" d="M147.095,816.691c-3.186-2.013-6.361-4.045-9.567-6.026a1.862,1.862,0,0,1-1.02-1.8q.063-4.655,0-9.311a1.856,1.856,0,0,1,1.019-1.8q4.553-2.779,9.051-5.649a1.519,1.519,0,0,1,1.849-.016c3.063,1.944,6.148,3.854,9.224,5.778.242.151.472.322.707.484v11.7c-1.618,1.032-3.231,2.071-4.856,3.092a1.131,1.131,0,0,1-1.7-.227c-.36-.578-.171-1.161.552-1.621,1.115-.71,2.222-1.433,3.364-2.1a1.13,1.13,0,0,0,.622-1.157c-.036-1.683-.013-3.367-.013-5.051,0-.615,0-1.229,0-1.95-.311.173-.518.278-.713.4-2.119,1.322-4.227,2.663-6.362,3.959a1.148,1.148,0,0,0-.648,1.138c.03,2.814,0,5.629.024,8.443a1.958,1.958,0,0,1-.664,1.715Zm-7.413-17.68c2.567,1.6,5.044,3.165,7.542,4.69a.9.9,0,0,0,.755-.1c1.723-1.05,3.427-2.13,5.137-3.2l2.227-1.4c-2.567-1.6-5.048-3.161-7.543-4.694a.729.729,0,0,0-.629.033C144.7,795.868,142.237,797.413,139.681,799.011ZM138.708,801c0,2.505.013,4.838-.011,7.169a.982.982,0,0,0,.531.977c2.212,1.355,4.4,2.742,6.606,4.115.152.1.319.167.563.292,0-2.544.01-4.992-.019-7.439a.9.9,0,0,0-.419-.576c-1.741-1.112-3.5-2.2-5.25-3.295C140.085,801.852,139.459,801.465,138.708,801Z" transform="translate(-84.554 -742.752)"/>
      <path id="Trazado_622080" data-name="Trazado 622080" d="M-20.991,634.834c0,1.635-.016,3.271.008,4.906a1.381,1.381,0,0,1-.7,1.313q-4.767,2.976-9.522,5.972A1.33,1.33,0,0,1-32.756,647c-3.17-2-6.359-3.968-9.509-6a1.629,1.629,0,0,1-.654-1.151q-.077-5.049,0-10.1a1.629,1.629,0,0,1,.651-1.155c3.172-2.039,6.382-4.021,9.578-6.024a1.283,1.283,0,0,1,1.483.018q4.761,2.984,9.531,5.953a1.364,1.364,0,0,1,.695,1.312C-21.008,631.515-20.991,633.175-20.991,634.834Zm-18.8-5.233c2.613,1.635,5.089,3.195,7.585,4.722a.849.849,0,0,0,.695-.117c2.31-1.425,4.607-2.87,6.9-4.314a4.157,4.157,0,0,0,.4-.337c-2.521-1.577-4.978-3.124-7.454-4.641a.816.816,0,0,0-.689.054c-.913.531-1.8,1.1-2.7,1.664Zm6.711,14.6c0-2.617.012-5.065-.022-7.512,0-.209-.279-.475-.494-.611-2.208-1.4-4.428-2.783-6.647-4.166-.15-.094-.319-.158-.533-.263,0,2.507-.011,4.933.019,7.357a.963.963,0,0,0,.423.641c1.08.714,2.185,1.391,3.283,2.078C-35.777,642.52-34.5,643.315-33.082,644.2Zm2.231.009c2.6-1.626,5.04-3.148,7.467-4.7a.849.849,0,0,0,.219-.617c.022-1.034.01-2.069.01-3.1v-4.21c-2.556,1.6-5,3.119-7.426,4.656a.645.645,0,0,0-.259.462C-30.856,639.147-30.851,641.6-30.851,644.208Z" transform="translate(68.944 -597.832)"/>
      <path id="Trazado_622081" data-name="Trazado 622081" d="M-219.386,460.2c2.543,1.59,5.024,3.147,7.516,4.685a.658.658,0,0,0,.568.033c2.51-1.546,5.006-3.113,7.576-4.72l-5.38-3.366c-.957-.6-1.92-1.19-2.872-1.8a1.077,1.077,0,0,1-.47-1.578,1.039,1.039,0,0,1,1.618-.278q4.776,2.966,9.542,5.947a1.384,1.384,0,0,1,.712,1.307q-.033,4.907,0,9.814a1.544,1.544,0,0,1-.808,1.475q-4.655,2.886-9.278,5.821a1.479,1.479,0,0,1-1.79,0q-4.591-2.921-9.224-5.777a1.64,1.64,0,0,1-.88-1.579c.032-3.223.027-6.447,0-9.67a1.478,1.478,0,0,1,.78-1.416c1.539-.937,3.057-1.909,4.587-2.86.776-.482,1.376-.4,1.744.211s.179,1.162-.6,1.657C-217.137,458.8-218.237,459.484-219.386,460.2Zm6.665,14.573c.026-.232.051-.347.051-.462,0-2.284.018-4.567-.019-6.85a1.112,1.112,0,0,0-.474-.767c-2.183-1.4-4.389-2.763-6.589-4.135-.175-.109-.362-.2-.627-.343,0,2.565-.005,5.034.013,7.5a.648.648,0,0,0,.291.438C-217.664,471.686-215.244,473.2-212.721,474.776Zm9.966-12.5a1.528,1.528,0,0,0-.279.087c-2.345,1.463-4.694,2.918-7.021,4.409a1.024,1.024,0,0,0-.372.744c-.029,2.189-.018,4.379-.015,6.568,0,.2.029.4.051.693,2.505-1.571,4.929-3.079,7.331-4.621a.99.99,0,0,0,.291-.724c.028-1.347.013-2.695.013-4.042Z" transform="translate(222.556 -452.922)"/>
      <path id="Trazado_622082" data-name="Trazado 622082" d="M-30.343,527.79q4.729,0,9.458,0c.778,0,1.193.352,1.23,1.008a1.016,1.016,0,0,1-1.007,1.151c-.12.009-.24.006-.361.006-6.233,0-12.467.009-18.7-.02a1.7,1.7,0,0,1-1.171-.476,1.176,1.176,0,0,1-.038-1.113,1.455,1.455,0,0,1,1.059-.534C-36.7,527.773-33.52,527.79-30.343,527.79Z" transform="translate(67.316 -516.954)"/>
      <path id="Trazado_622083" data-name="Trazado 622083" d="M-30.222,874.085q4.729,0,9.458,0c.934,0,1.425.621,1.17,1.436a1,1,0,0,1-1.1.726c-1.877-.01-3.754,0-5.631,0q-6.714,0-13.429,0c-.914,0-1.445-.642-1.181-1.434a1.082,1.082,0,0,1,1.186-.731C-36.575,874.092-33.4,874.085-30.222,874.085Z" transform="translate(67.274 -813.141)"/>
      <path id="Trazado_622084" data-name="Trazado 622084" d="M-151.461,664.671q0,3.1,0,6.209c0,.857-.378,1.34-1.047,1.361-.7.022-1.111-.475-1.112-1.366q0-6.245-.005-12.49c0-.507.129-.964.639-1.076a1.545,1.545,0,0,1,1.123.153,1.4,1.4,0,0,1,.386,1C-151.443,660.532-151.461,662.6-151.461,664.671Z" transform="translate(163.6 -627.702)"/>
      <path id="Trazado_622085" data-name="Trazado 622085" d="M206.842,664q0,3.1,0,6.207c0,.854-.387,1.322-1.073,1.327s-1.087-.453-1.087-1.307q0-6.243,0-12.485c0-.836.35-1.225,1.068-1.229s1.089.4,1.092,1.209C206.846,659.811,206.842,661.9,206.842,664Z" transform="translate(-142.86 -627.051)"/>
      <path id="Trazado_622086" data-name="Trazado 622086" d="M108,782.636a7.188,7.188,0,0,1-.882-.4q-2.318-1.517-4.62-3.059a1.029,1.029,0,0,1-.4-1.535,1.043,1.043,0,0,1,1.562-.3c1.59,1.03,3.168,2.08,4.744,3.132a.952.952,0,0,1,.457,1.289A4.207,4.207,0,0,1,108,782.636Z" transform="translate(-54.958 -730.208)"/>
      <path id="Trazado_622087" data-name="Trazado 622087" d="M-83.827,606.476a8.937,8.937,0,0,1,.945.449q2.26,1.475,4.5,2.974c.7.468.854,1.064.462,1.643a1.1,1.1,0,0,1-1.648.2c-1.545-1.012-3.081-2.039-4.621-3.057-.442-.292-.749-.7-.512-1.206A4.75,4.75,0,0,1-83.827,606.476Z" transform="translate(104.715 -584.258)"/>
      <path id="Trazado_622088" data-name="Trazado 622088" d="M109.126,609.059a4.012,4.012,0,0,1-.692.9c-1.583,1.084-3.186,2.14-4.8,3.18a1.09,1.09,0,1,1-1.166-1.838c1.572-1.058,3.143-2.119,4.752-3.119a1.383,1.383,0,0,1,1.125-.073C108.659,608.252,108.839,608.688,109.126,609.059Z" transform="translate(-54.961 -585.582)"/>
      <path id="Trazado_622089" data-name="Trazado 622089" d="M-83.2,782.417c-.234-.215-.676-.437-.781-.767a1.281,1.281,0,0,1,.22-1.143c1.677-1.2,3.4-2.332,5.144-3.434a.935.935,0,0,1,1.32.365.935.935,0,0,1-.148,1.41c-1.677,1.158-3.389,2.265-5.095,3.381A2.984,2.984,0,0,1-83.2,782.417Z" transform="translate(104.071 -730.045)"/>
      <path id="Trazado_622090" data-name="Trazado 622090" d="M-185.011,813.668c-1.13.71-2.2,1.385-3.274,2.057-1.364.854-2.722,1.718-4.1,2.547a.9.9,0,0,1-.754.082c-2.5-1.525-4.976-3.084-7.532-4.68,1.949-1.217,3.833-2.4,5.724-3.569.71-.439,1.436-1.173,2.16-1.179.693-.006,1.394.754,2.087,1.186C-188.828,811.281-186.956,812.453-185.011,813.668Z" transform="translate(203.838 -757.415)" fill="#1565c0"/>
      <path id="Trazado_622091" data-name="Trazado 622091" d="M-131.169,856.4V859.4c0,1.395.01,2.789-.01,4.184a.829.829,0,0,1-.231.609c-2.422,1.551-4.861,3.075-7.386,4.661-.028-.253-.059-.4-.059-.557,0-2.236-.012-4.473.012-6.709a.956.956,0,0,1,.317-.7c2.368-1.511,4.756-2.99,7.141-4.474C-131.353,856.386-131.3,856.4-131.169,856.4Z" transform="translate(150.97 -798.017)" fill="#1565c0"/>
      <path id="Trazado_622092" data-name="Trazado 622092" d="M-199.9,868.284c-2.492-1.559-4.91-3.069-7.319-4.592a.644.644,0,0,1-.289-.436c-.018-2.465-.013-4.931-.013-7.493.251.13.418.2.571.3,2.219,1.383,4.442,2.761,6.646,4.168a1.043,1.043,0,0,1,.472.694c.033,2.353.017,4.707.012,7.061A1.66,1.66,0,0,1-199.9,868.284Z" transform="translate(209.693 -797.476)" fill="#1565c0"/>
      <path id="Trazado_622093" data-name="Trazado 622093" d="M158.437,475.056c2.576-1.61,5.056-3.166,7.548-4.7a.663.663,0,0,1,.576,0c2.492,1.536,4.972,3.091,7.536,4.694-1.909,1.2-3.745,2.36-5.59,3.505-.75.466-1.52,1.24-2.285,1.246-.733,0-1.474-.8-2.207-1.258C162.182,477.4,160.352,476.254,158.437,475.056Z" transform="translate(-103.31 -467.777)" fill="#262f43"/>
      <path id="Trazado_622094" data-name="Trazado 622094" d="M159.394,530.061c-1.3-.81-2.471-1.541-3.644-2.275-1.2-.751-2.406-1.492-3.589-2.268a.971.971,0,0,1-.437-.637c-.031-2.424-.02-4.848-.02-7.352a3.8,3.8,0,0,1,.474.206c2.26,1.408,4.521,2.814,6.767,4.244a.957.957,0,0,1,.429.643C159.405,525.046,159.394,527.471,159.394,530.061Z" transform="translate(-97.55 -508.181)" fill="#262f43"/>
      <path id="Trazado_622095" data-name="Trazado 622095" d="M220.183,530.077c0-2.6-.008-5.03.014-7.455a.8.8,0,0,1,.328-.565c2.332-1.477,4.678-2.933,7.022-4.391a2.664,2.664,0,0,1,.343-.136v2.929c0,1.418.011,2.836-.012,4.254a.919.919,0,0,1-.257.674C225.2,526.938,222.764,528.458,220.183,530.077Z" transform="translate(-156.121 -508.182)" fill="#262f43"/>
      <path id="Trazado_622096" data-name="Trazado 622096" d="M158.441,813.617c2.555-1.6,5.015-3.143,7.488-4.667a.729.729,0,0,1,.629-.033c2.5,1.533,4.976,3.09,7.543,4.694l-2.227,1.4c-1.71,1.071-3.414,2.151-5.137,3.2a.9.9,0,0,1-.755.1C163.485,816.782,161.008,815.222,158.441,813.617Z" transform="translate(-103.313 -757.358)" fill="#ff5422"/>
      <path id="Trazado_622097" data-name="Trazado 622097" d="M151.646,855.473c.751.467,1.377.854,2,1.244,1.753,1.094,3.509,2.183,5.25,3.295a.894.894,0,0,1,.419.576c.029,2.448.019,4.9.019,7.439-.244-.125-.411-.2-.563-.292-2.2-1.373-4.394-2.76-6.606-4.115a.982.982,0,0,1-.531-.977C151.659,860.31,151.646,857.978,151.646,855.473Z" transform="translate(-97.492 -797.227)" fill="#ff5422"/>
      <path id="Trazado_622098" data-name="Trazado 622098" d="M-21.087,644.451l4.749-2.97c.9-.56,1.784-1.133,2.7-1.664a.816.816,0,0,1,.689-.054c2.475,1.518,4.933,3.065,7.454,4.641a4.173,4.173,0,0,1-.4.337c-2.3,1.444-4.6,2.889-6.9,4.314a.849.849,0,0,1-.695.117C-16,647.646-18.474,646.086-21.087,644.451Z" transform="translate(50.238 -612.682)" fill="#e8e8e8"/>
      <path id="Trazado_622099" data-name="Trazado 622099" d="M-20.213,699.176c-1.418-.884-2.7-1.678-3.972-2.476-1.1-.687-2.2-1.363-3.283-2.078a.963.963,0,0,1-.423-.641c-.03-2.425-.019-4.85-.019-7.357.214.1.383.169.533.263,2.219,1.383,4.44,2.764,6.647,4.166.215.136.491.4.494.611C-20.2,694.111-20.213,696.559-20.213,699.176Z" transform="translate(56.076 -652.809)" fill="#e8e8e8"/>
      <path id="Trazado_622100" data-name="Trazado 622100" d="M40.708,698.788c0-2.61,0-5.06.011-7.511a.645.645,0,0,1,.259-.462c2.43-1.537,4.87-3.058,7.426-4.656v4.21c0,1.035.012,2.07-.01,3.1a.849.849,0,0,1-.22.617C45.748,695.64,43.3,697.162,40.708,698.788Z" transform="translate(-2.615 -652.412)" fill="#e8e8e8"/>
      <path id="Trazado_622101" data-name="Trazado 622101" d="M-199.857,529.735c-2.523-1.58-4.943-3.09-7.355-4.615a.648.648,0,0,1-.291-.438c-.018-2.469-.013-4.939-.013-7.5.265.144.452.234.627.343,2.2,1.372,4.406,2.736,6.589,4.135a1.112,1.112,0,0,1,.474.767c.037,2.283.021,4.567.019,6.85C-199.807,529.388-199.831,529.5-199.857,529.735Z" transform="translate(209.692 -507.881)" fill="#ffd800"/>
      <path id="Trazado_622102" data-name="Trazado 622102" d="M-131.175,517.576v3.114c0,1.347.015,2.7-.013,4.042a.99.99,0,0,1-.291.724c-2.4,1.542-4.826,3.05-7.331,4.621-.022-.292-.051-.492-.051-.693,0-2.19-.014-4.379.015-6.568a1.024,1.024,0,0,1,.372-.744c2.327-1.49,4.676-2.946,7.021-4.409A1.527,1.527,0,0,1-131.175,517.576Z" transform="translate(150.975 -508.221)" fill="#ffd800"/>
    </g>
  </g>
</svg>
