<svg xmlns="http://www.w3.org/2000/svg" xmlns:xlink="http://www.w3.org/1999/xlink" width="576" height="240.088" viewBox="0 0 576 240.088"><defs><clipPath id="a"><path d="M0,1.161H549.713V-234H0Z" transform="translate(0 234)" fill="none"/></clipPath></defs><g transform="translate(6690 9368.089)"><g transform="translate(-6667 -9134.089)" opacity="0.8"><g transform="translate(0.114 -234)" clip-path="url(#a)"><path d="M0-234H549.713V1.161H0Z" transform="translate(0 234)" fill="rgba(255,255,255,0)"/><path d="M15.5-100.05H119.765v-91.2H15.5Z" transform="translate(0.077 234.212)" fill="#afafaf"/><path d="M119.25-191.1l30.4-30.4v91.2l-30.4,30.4Z" transform="translate(0.591 234.062)" fill="#464646"/><path d="M15.5-191.1l30.4-30.4H150.165l-30.4,30.4Z" transform="translate(0.077 234.062)" fill="#636363"/><g transform="translate(15.577 12.562)"><path d="M0,30.4,30.4,0H134.665V91.2l-30.4,30.4H0Zm0,0H104.265L134.665,0m-30.4,30.4v91.2" fill="none" stroke="#000" stroke-miterlimit="8" stroke-width="1"/></g><g transform="translate(46.886 71.627)"><text transform="translate(0 29)" fill="#fff" font-size="39" font-family="Calibri" letter-spacing="0.002em"><tspan x="0" y="0">#1</tspan></text></g><path d="M202.5-100.05H306.765v-91.2H202.5Z" transform="translate(1.004 234.212)" fill="#4471c4"/><path d="M306.25-191.1l30.4-30.4v91.2l-30.4,30.4Z" transform="translate(1.519 234.062)" fill="#375b9e"/><path d="M202.5-191.1l30.4-30.4H337.165l-30.4,30.4Z" transform="translate(1.004 234.062)" fill="#688ed0"/><g transform="translate(203.504 12.562)"><path d="M0,30.4,30.4,0H134.665V91.2l-30.4,30.4H0Zm0,0H104.265L134.665,0m-30.4,30.4v91.2" fill="none" stroke="#000" stroke-miterlimit="8" stroke-width="1"/></g><g transform="translate(234.777 71.627)"><text transform="translate(0 29)" fill="#fff" font-size="39" font-family="Calibri" letter-spacing="0.002em"><tspan x="0" y="0">#2</tspan></text></g><path d="M394.5-100.05H497.76v-91.2H394.5Z" transform="translate(1.957 234.212)" fill="#ff5422"/><path d="M497.25-191.1l30.4-30.4v91.2l-30.4,30.4Z" transform="translate(2.466 234.062)" fill="#9e480d"/><path d="M394.5-191.1l30.4-30.4H528.16l-30.4,30.4Z" transform="translate(1.957 234.062)" fill="#d88628"/><g transform="translate(396.457 12.562)"><path d="M0,30.4,30.4,0H133.66V91.2l-30.4,30.4H0Zm0,0H103.26L133.66,0m-30.4,30.4v91.2" fill="none" stroke="#000" stroke-miterlimit="8" stroke-width="1"/></g><g transform="translate(427.469 71.627)"><text transform="translate(0 29)" fill="#fff" font-size="39" font-family="Calibri" letter-spacing="0.002em"><tspan x="0" y="0">#3</tspan></text></g><g transform="translate(128.99 74.444)"><text transform="translate(0 22)" fill="#fff" font-size="29" font-family="Calibri-Bold, Calibri" font-weight="700"><tspan x="0" y="0">I</tspan></text></g><g transform="translate(319.624 74.444)"><text transform="translate(0 22)" fill="#fff" font-size="29" font-family="Calibri-Bold, Calibri" font-weight="700"><tspan x="0" y="0">I</tspan></text></g><g transform="translate(510.258 74.444)"><text transform="translate(0 22)" fill="#fff" font-size="29" font-family="Calibri-Bold, Calibri" font-weight="700"><tspan x="0" y="0">I</tspan></text></g><g transform="translate(253.802 15.976)"><text transform="translate(0 22)" fill="#fff" font-size="29" font-family="Calibri-Bold, Calibri" font-weight="700" letter-spacing="0.002em"><tspan x="0" y="0">#1</tspan></text></g><g transform="translate(445.122 15.373)"><text transform="translate(0 22)" fill="#fff" font-size="29" font-family="Calibri-Bold, Calibri" font-weight="700" letter-spacing="0.002em"><tspan x="0" y="0">#2</tspan></text></g></g><g transform="translate(0.114 -234)" clip-path="url(#a)"><path d="M161.5-166.411h16.581V-184.5l16.581,36.179-16.581,36.179v-18.089H161.5Z" transform="translate(0.801 234.246)" fill="#12263f"/><g transform="translate(162.301 49.746)"><path d="M0,18.089H16.581V0L33.162,36.179,16.581,72.357V54.268H0Z" fill="none" stroke="#12263f" stroke-miterlimit="8" stroke-width="1"/></g><path d="M348.5-166.411h16.581V-184.5l16.581,36.179-16.581,36.179v-18.089H348.5Z" transform="translate(1.729 234.246)" fill="#12263f"/><g transform="translate(350.229 49.746)"><path d="M0,18.089H16.581V0L33.162,36.179,16.581,72.357V54.268H0Z" fill="none" stroke="#12263f" stroke-miterlimit="8" stroke-width="1"/></g><path d="M160.8-47.613,187.051-13.8l1.588-1.233,1.317,6.612-6.079-2.914,1.588-1.233L159.21-46.381Z" transform="translate(-10.265 234.924)" fill="#636363"/><path d="M348.8-47.613,375.051-13.8l1.588-1.233,1.316,6.612-6.079-2.914,1.588-1.233L347.21-46.381Z" transform="translate(1.722 234.924)" fill="#4471c4"/></g><g transform="translate(-23 -77.912)" fill="#e8e8e8" stroke="#12263f" stroke-width="1"><rect width="172" height="41" stroke="none"/><rect x="0.5" y="0.5" width="171" height="40" fill="none"/></g><g transform="translate(-23 -39.912)" fill="#afafaf" stroke="#12263f" stroke-width="1"><rect width="172" height="46" stroke="none"/><rect x="0.5" y="0.5" width="171" height="45" fill="none"/></g><text transform="translate(-7 -76.911)" fill="#12263f" font-size="15" font-family="Roboto-Bold, Roboto" font-weight="700"><tspan x="30.087" y="16">Hash actual</tspan></text><path d="M15.457,16h-2.2V11.43H8.975V16h-2.2V5.336h2.2V9.657H13.26V5.336h2.2Zm6.372,0a2.351,2.351,0,0,1-.212-.71,2.561,2.561,0,0,1-2,.857,2.814,2.814,0,0,1-1.93-.674,2.167,2.167,0,0,1-.765-1.7,2.24,2.24,0,0,1,.934-1.934,4.608,4.608,0,0,1,2.7-.681h.974V10.7a1.306,1.306,0,0,0-.282-.879,1.109,1.109,0,0,0-.89-.33,1.261,1.261,0,0,0-.839.256.871.871,0,0,0-.3.7H17.1a2.126,2.126,0,0,1,.425-1.274,2.808,2.808,0,0,1,1.2-.919,4.378,4.378,0,0,1,1.743-.333,3.459,3.459,0,0,1,2.325.736,2.575,2.575,0,0,1,.861,2.069v3.435a3.789,3.789,0,0,0,.315,1.707V16Zm-1.75-1.472a1.823,1.823,0,0,0,.864-.209,1.371,1.371,0,0,0,.586-.56V12.4h-.791q-1.589,0-1.692,1.1l-.007.125a.847.847,0,0,0,.278.652A1.081,1.081,0,0,0,20.078,14.528Zm9.492-.718a.682.682,0,0,0-.385-.612,4.368,4.368,0,0,0-1.234-.4q-2.827-.593-2.827-2.4A2.178,2.178,0,0,1,26,8.635a3.531,3.531,0,0,1,2.289-.707,3.8,3.8,0,0,1,2.413.71,2.239,2.239,0,0,1,.9,1.846H29.49a1.024,1.024,0,0,0-.293-.751,1.24,1.24,0,0,0-.916-.3,1.267,1.267,0,0,0-.828.242.763.763,0,0,0-.293.615.652.652,0,0,0,.333.568,3.428,3.428,0,0,0,1.124.374,9.183,9.183,0,0,1,1.333.355,2.19,2.19,0,0,1,1.677,2.131,2.067,2.067,0,0,1-.93,1.754,4.013,4.013,0,0,1-2.4.67,4.191,4.191,0,0,1-1.769-.355,2.968,2.968,0,0,1-1.212-.974,2.263,2.263,0,0,1-.439-1.337h2.007a1.105,1.105,0,0,0,.417.864,1.656,1.656,0,0,0,1.04.3,1.533,1.533,0,0,0,.919-.231A.718.718,0,0,0,29.571,13.81Zm5.486-4.871a2.642,2.642,0,0,1,2.117-1.011q2.578,0,2.615,3V16H37.671V10.983a1.472,1.472,0,0,0-.293-1.007A1.256,1.256,0,0,0,36.4,9.65a1.441,1.441,0,0,0-1.348.718V16H32.94V4.75h2.117Zm17.2,3.171a4.8,4.8,0,0,1-.813,2.97,2.693,2.693,0,0,1-2.271,1.066,2.474,2.474,0,0,1-2.058-.989l-.1.842h-1.9V4.75h2.117V8.786a2.411,2.411,0,0,1,1.926-.857,2.715,2.715,0,0,1,2.274,1.066,4.806,4.806,0,0,1,.824,3Zm-2.117-.154a3.153,3.153,0,0,0-.381-1.754,1.288,1.288,0,0,0-1.135-.553,1.4,1.4,0,0,0-1.392.828V13.6a1.415,1.415,0,0,0,1.406.835,1.307,1.307,0,0,0,1.348-1.011A5.214,5.214,0,0,0,50.144,11.957ZM55.8,16H53.675V4.75H55.8Zm1.414-4.036a4.7,4.7,0,0,1,.454-2.1,3.324,3.324,0,0,1,1.307-1.428,3.814,3.814,0,0,1,1.981-.505,3.609,3.609,0,0,1,2.618.981A3.939,3.939,0,0,1,64.7,11.576l.015.542A4.142,4.142,0,0,1,63.7,15.044a3.946,3.946,0,0,1-5.468,0,4.215,4.215,0,0,1-1.022-2.988Zm2.117.15a2.962,2.962,0,0,0,.425,1.727,1.526,1.526,0,0,0,2.417.007,3.241,3.241,0,0,0,.432-1.889,2.933,2.933,0,0,0-.432-1.716,1.4,1.4,0,0,0-1.216-.609,1.382,1.382,0,0,0-1.2.605A3.3,3.3,0,0,0,59.329,12.115Zm6.365-.15a4.737,4.737,0,0,1,.831-2.952,2.718,2.718,0,0,1,2.281-1.084,2.433,2.433,0,0,1,2.029.974l.139-.828h1.86V19.047H70.711V15.319a2.44,2.44,0,0,1-1.919.828,2.7,2.7,0,0,1-2.256-1.1A4.969,4.969,0,0,1,65.694,11.964Zm2.117.15a3.107,3.107,0,0,0,.4,1.731,1.278,1.278,0,0,0,1.124.594,1.423,1.423,0,0,0,1.377-.778V10.383a1.412,1.412,0,0,0-1.362-.748,1.293,1.293,0,0,0-1.135.594A3.432,3.432,0,0,0,67.81,12.115Zm11.433,3.08a2.654,2.654,0,0,1-2.168.952,2.5,2.5,0,0,1-1.945-.732,3.127,3.127,0,0,1-.685-2.146V8.075h2.117V13.2q0,1.239,1.128,1.239a1.528,1.528,0,0,0,1.479-.748V8.075h2.124V16H79.3Zm7.295.952A3.89,3.89,0,0,1,83.7,15.077a3.8,3.8,0,0,1-1.095-2.849v-.205a4.787,4.787,0,0,1,.461-2.135,3.386,3.386,0,0,1,1.307-1.45,3.669,3.669,0,0,1,1.93-.509,3.289,3.289,0,0,1,2.56,1.025,4.167,4.167,0,0,1,.934,2.908v.864H84.751a1.966,1.966,0,0,0,.619,1.245,1.871,1.871,0,0,0,1.307.469,2.285,2.285,0,0,0,1.912-.886l1.04,1.165a3.178,3.178,0,0,1-1.289,1.051A4.229,4.229,0,0,1,86.538,16.146ZM86.3,9.635a1.323,1.323,0,0,0-1.022.427,2.209,2.209,0,0,0-.5,1.221h2.944v-.169a1.576,1.576,0,0,0-.381-1.092A1.365,1.365,0,0,0,86.3,9.635ZM99.326,16a2.351,2.351,0,0,1-.212-.71,2.561,2.561,0,0,1-2,.857,2.814,2.814,0,0,1-1.93-.674,2.167,2.167,0,0,1-.765-1.7,2.24,2.24,0,0,1,.934-1.934,4.608,4.608,0,0,1,2.7-.681h.974V10.7a1.306,1.306,0,0,0-.282-.879,1.109,1.109,0,0,0-.89-.33,1.261,1.261,0,0,0-.839.256.871.871,0,0,0-.3.7H94.595a2.126,2.126,0,0,1,.425-1.274,2.808,2.808,0,0,1,1.2-.919,4.378,4.378,0,0,1,1.743-.333,3.459,3.459,0,0,1,2.325.736,2.575,2.575,0,0,1,.861,2.069v3.435a3.789,3.789,0,0,0,.315,1.707V16Zm-1.75-1.472a1.823,1.823,0,0,0,.864-.209,1.371,1.371,0,0,0,.586-.56V12.4h-.791q-1.589,0-1.692,1.1l-.007.125a.847.847,0,0,0,.278.652A1.081,1.081,0,0,0,97.576,14.528Zm7.148-6.453.066.916a2.767,2.767,0,0,1,2.278-1.062,2.3,2.3,0,0,1,1.875.74,3.451,3.451,0,0,1,.63,2.212V16h-2.117V10.932a1.373,1.373,0,0,0-.293-.978,1.312,1.312,0,0,0-.974-.3,1.456,1.456,0,0,0-1.34.762V16h-2.117V8.075Zm8.987-1.948V8.075h1.355V9.628h-1.355v3.955a.944.944,0,0,0,.168.63.846.846,0,0,0,.645.19,3.376,3.376,0,0,0,.623-.051v1.6a4.358,4.358,0,0,1-1.282.19,2.021,2.021,0,0,1-2.271-2.249V9.628h-1.157V8.075h1.157V6.127Zm6.182,10.02a3.89,3.89,0,0,1-2.838-1.069,3.8,3.8,0,0,1-1.095-2.849v-.205a4.787,4.787,0,0,1,.461-2.135,3.386,3.386,0,0,1,1.307-1.45,3.669,3.669,0,0,1,1.93-.509,3.289,3.289,0,0,1,2.56,1.025,4.167,4.167,0,0,1,.934,2.908v.864h-5.046a1.966,1.966,0,0,0,.619,1.245,1.871,1.871,0,0,0,1.307.469,2.285,2.285,0,0,0,1.912-.886l1.04,1.165a3.178,3.178,0,0,1-1.289,1.051A4.229,4.229,0,0,1,119.893,16.146Zm-.242-6.511a1.323,1.323,0,0,0-1.022.427,2.209,2.209,0,0,0-.5,1.221h2.944v-.169a1.576,1.576,0,0,0-.381-1.092A1.365,1.365,0,0,0,119.651,9.635Zm9.155.425a5.751,5.751,0,0,0-.762-.059,1.55,1.55,0,0,0-1.575.813V16h-2.117V8.075h2l.059.945a1.961,1.961,0,0,1,1.765-1.091,2.218,2.218,0,0,1,.659.1ZM132.058,16h-2.124V8.075h2.124ZM129.81,6.024a1.042,1.042,0,0,1,.319-.784,1.373,1.373,0,0,1,1.732,0,1.036,1.036,0,0,1,.322.784,1.039,1.039,0,0,1-.326.791,1.358,1.358,0,0,1-1.721,0A1.039,1.039,0,0,1,129.81,6.024Zm3.662,5.94a4.7,4.7,0,0,1,.454-2.1,3.324,3.324,0,0,1,1.307-1.428,3.814,3.814,0,0,1,1.981-.505,3.609,3.609,0,0,1,2.618.981,3.939,3.939,0,0,1,1.132,2.666l.015.542a4.142,4.142,0,0,1-1.018,2.926,3.946,3.946,0,0,1-5.468,0,4.215,4.215,0,0,1-1.022-2.988Zm2.117.15a2.962,2.962,0,0,0,.425,1.727,1.526,1.526,0,0,0,2.417.007,3.241,3.241,0,0,0,.432-1.889,2.933,2.933,0,0,0-.432-1.716,1.4,1.4,0,0,0-1.216-.609,1.382,1.382,0,0,0-1.2.605A3.3,3.3,0,0,0,135.589,12.115Zm11.147-2.055a5.751,5.751,0,0,0-.762-.059,1.55,1.55,0,0,0-1.575.813V16h-2.117V8.075h2l.059.945a1.961,1.961,0,0,1,1.765-1.091,2.218,2.218,0,0,1,.659.1Zm1.121,4.9a1.066,1.066,0,0,1,.341-.82,1.323,1.323,0,0,1,1.714,0,1.066,1.066,0,0,1,.341.82,1.051,1.051,0,0,1-.337.809,1.345,1.345,0,0,1-1.721,0A1.051,1.051,0,0,1,147.857,14.96Zm0-6a1.066,1.066,0,0,1,.341-.82,1.323,1.323,0,0,1,1.714,0,1.066,1.066,0,0,1,.341.82,1.051,1.051,0,0,1-.337.809,1.345,1.345,0,0,1-1.721,0A1.051,1.051,0,0,1,147.857,8.961Z" transform="translate(-14 -24.911)" fill="#fff"/><g transform="translate(381 -77.912)" fill="#e8e8e8" stroke="#12263f" stroke-width="1"><rect width="172" height="41" stroke="none"/><rect x="0.5" y="0.5" width="171" height="40" fill="none"/></g><g transform="translate(381 -39.912)" fill="#ff8931" stroke="#12263f" stroke-width="1"><rect width="172" height="46" stroke="none"/><rect x="0.5" y="0.5" width="171" height="45" fill="none"/></g><text transform="translate(397 -76.911)" fill="#12263f" font-size="15" font-family="Roboto-Bold, Roboto" font-weight="700"><tspan x="30.087" y="16">Hash actual</tspan></text><path d="M15.457,16h-2.2V11.43H8.975V16h-2.2V5.336h2.2V9.657H13.26V5.336h2.2Zm6.372,0a2.351,2.351,0,0,1-.212-.71,2.561,2.561,0,0,1-2,.857,2.814,2.814,0,0,1-1.93-.674,2.167,2.167,0,0,1-.765-1.7,2.24,2.24,0,0,1,.934-1.934,4.608,4.608,0,0,1,2.7-.681h.974V10.7a1.306,1.306,0,0,0-.282-.879,1.109,1.109,0,0,0-.89-.33,1.261,1.261,0,0,0-.839.256.871.871,0,0,0-.3.7H17.1a2.126,2.126,0,0,1,.425-1.274,2.808,2.808,0,0,1,1.2-.919,4.378,4.378,0,0,1,1.743-.333,3.459,3.459,0,0,1,2.325.736,2.575,2.575,0,0,1,.861,2.069v3.435a3.789,3.789,0,0,0,.315,1.707V16Zm-1.75-1.472a1.823,1.823,0,0,0,.864-.209,1.371,1.371,0,0,0,.586-.56V12.4h-.791q-1.589,0-1.692,1.1l-.007.125a.847.847,0,0,0,.278.652A1.081,1.081,0,0,0,20.078,14.528Zm9.492-.718a.682.682,0,0,0-.385-.612,4.368,4.368,0,0,0-1.234-.4q-2.827-.593-2.827-2.4A2.178,2.178,0,0,1,26,8.635a3.531,3.531,0,0,1,2.289-.707,3.8,3.8,0,0,1,2.413.71,2.239,2.239,0,0,1,.9,1.846H29.49a1.024,1.024,0,0,0-.293-.751,1.24,1.24,0,0,0-.916-.3,1.267,1.267,0,0,0-.828.242.763.763,0,0,0-.293.615.652.652,0,0,0,.333.568,3.428,3.428,0,0,0,1.124.374,9.183,9.183,0,0,1,1.333.355,2.19,2.19,0,0,1,1.677,2.131,2.067,2.067,0,0,1-.93,1.754,4.013,4.013,0,0,1-2.4.67,4.191,4.191,0,0,1-1.769-.355,2.968,2.968,0,0,1-1.212-.974,2.263,2.263,0,0,1-.439-1.337h2.007a1.105,1.105,0,0,0,.417.864,1.656,1.656,0,0,0,1.04.3,1.533,1.533,0,0,0,.919-.231A.718.718,0,0,0,29.571,13.81Zm5.486-4.871a2.642,2.642,0,0,1,2.117-1.011q2.578,0,2.615,3V16H37.671V10.983a1.472,1.472,0,0,0-.293-1.007A1.256,1.256,0,0,0,36.4,9.65a1.441,1.441,0,0,0-1.348.718V16H32.94V4.75h2.117Zm17.2,3.171a4.8,4.8,0,0,1-.813,2.97,2.693,2.693,0,0,1-2.271,1.066,2.474,2.474,0,0,1-2.058-.989l-.1.842h-1.9V4.75h2.117V8.786a2.411,2.411,0,0,1,1.926-.857,2.715,2.715,0,0,1,2.274,1.066,4.806,4.806,0,0,1,.824,3Zm-2.117-.154a3.153,3.153,0,0,0-.381-1.754,1.288,1.288,0,0,0-1.135-.553,1.4,1.4,0,0,0-1.392.828V13.6a1.415,1.415,0,0,0,1.406.835,1.307,1.307,0,0,0,1.348-1.011A5.214,5.214,0,0,0,50.144,11.957ZM55.8,16H53.675V4.75H55.8Zm1.414-4.036a4.7,4.7,0,0,1,.454-2.1,3.324,3.324,0,0,1,1.307-1.428,3.814,3.814,0,0,1,1.981-.505,3.609,3.609,0,0,1,2.618.981A3.939,3.939,0,0,1,64.7,11.576l.015.542A4.142,4.142,0,0,1,63.7,15.044a3.946,3.946,0,0,1-5.468,0,4.215,4.215,0,0,1-1.022-2.988Zm2.117.15a2.962,2.962,0,0,0,.425,1.727,1.526,1.526,0,0,0,2.417.007,3.241,3.241,0,0,0,.432-1.889,2.933,2.933,0,0,0-.432-1.716,1.4,1.4,0,0,0-1.216-.609,1.382,1.382,0,0,0-1.2.605A3.3,3.3,0,0,0,59.329,12.115Zm6.365-.15a4.737,4.737,0,0,1,.831-2.952,2.718,2.718,0,0,1,2.281-1.084,2.433,2.433,0,0,1,2.029.974l.139-.828h1.86V19.047H70.711V15.319a2.44,2.44,0,0,1-1.919.828,2.7,2.7,0,0,1-2.256-1.1A4.969,4.969,0,0,1,65.694,11.964Zm2.117.15a3.107,3.107,0,0,0,.4,1.731,1.278,1.278,0,0,0,1.124.594,1.423,1.423,0,0,0,1.377-.778V10.383a1.412,1.412,0,0,0-1.362-.748,1.293,1.293,0,0,0-1.135.594A3.432,3.432,0,0,0,67.81,12.115Zm11.433,3.08a2.654,2.654,0,0,1-2.168.952,2.5,2.5,0,0,1-1.945-.732,3.127,3.127,0,0,1-.685-2.146V8.075h2.117V13.2q0,1.239,1.128,1.239a1.528,1.528,0,0,0,1.479-.748V8.075h2.124V16H79.3Zm7.295.952A3.89,3.89,0,0,1,83.7,15.077a3.8,3.8,0,0,1-1.095-2.849v-.205a4.787,4.787,0,0,1,.461-2.135,3.386,3.386,0,0,1,1.307-1.45,3.669,3.669,0,0,1,1.93-.509,3.289,3.289,0,0,1,2.56,1.025,4.167,4.167,0,0,1,.934,2.908v.864H84.751a1.966,1.966,0,0,0,.619,1.245,1.871,1.871,0,0,0,1.307.469,2.285,2.285,0,0,0,1.912-.886l1.04,1.165a3.178,3.178,0,0,1-1.289,1.051A4.229,4.229,0,0,1,86.538,16.146ZM86.3,9.635a1.323,1.323,0,0,0-1.022.427,2.209,2.209,0,0,0-.5,1.221h2.944v-.169a1.576,1.576,0,0,0-.381-1.092A1.365,1.365,0,0,0,86.3,9.635ZM99.326,16a2.351,2.351,0,0,1-.212-.71,2.561,2.561,0,0,1-2,.857,2.814,2.814,0,0,1-1.93-.674,2.167,2.167,0,0,1-.765-1.7,2.24,2.24,0,0,1,.934-1.934,4.608,4.608,0,0,1,2.7-.681h.974V10.7a1.306,1.306,0,0,0-.282-.879,1.109,1.109,0,0,0-.89-.33,1.261,1.261,0,0,0-.839.256.871.871,0,0,0-.3.7H94.595a2.126,2.126,0,0,1,.425-1.274,2.808,2.808,0,0,1,1.2-.919,4.378,4.378,0,0,1,1.743-.333,3.459,3.459,0,0,1,2.325.736,2.575,2.575,0,0,1,.861,2.069v3.435a3.789,3.789,0,0,0,.315,1.707V16Zm-1.75-1.472a1.823,1.823,0,0,0,.864-.209,1.371,1.371,0,0,0,.586-.56V12.4h-.791q-1.589,0-1.692,1.1l-.007.125a.847.847,0,0,0,.278.652A1.081,1.081,0,0,0,97.576,14.528Zm7.148-6.453.066.916a2.767,2.767,0,0,1,2.278-1.062,2.3,2.3,0,0,1,1.875.74,3.451,3.451,0,0,1,.63,2.212V16h-2.117V10.932a1.373,1.373,0,0,0-.293-.978,1.312,1.312,0,0,0-.974-.3,1.456,1.456,0,0,0-1.34.762V16h-2.117V8.075Zm8.987-1.948V8.075h1.355V9.628h-1.355v3.955a.944.944,0,0,0,.168.63.846.846,0,0,0,.645.19,3.376,3.376,0,0,0,.623-.051v1.6a4.358,4.358,0,0,1-1.282.19,2.021,2.021,0,0,1-2.271-2.249V9.628h-1.157V8.075h1.157V6.127Zm6.182,10.02a3.89,3.89,0,0,1-2.838-1.069,3.8,3.8,0,0,1-1.095-2.849v-.205a4.787,4.787,0,0,1,.461-2.135,3.386,3.386,0,0,1,1.307-1.45,3.669,3.669,0,0,1,1.93-.509,3.289,3.289,0,0,1,2.56,1.025,4.167,4.167,0,0,1,.934,2.908v.864h-5.046a1.966,1.966,0,0,0,.619,1.245,1.871,1.871,0,0,0,1.307.469,2.285,2.285,0,0,0,1.912-.886l1.04,1.165a3.178,3.178,0,0,1-1.289,1.051A4.229,4.229,0,0,1,119.893,16.146Zm-.242-6.511a1.323,1.323,0,0,0-1.022.427,2.209,2.209,0,0,0-.5,1.221h2.944v-.169a1.576,1.576,0,0,0-.381-1.092A1.365,1.365,0,0,0,119.651,9.635Zm9.155.425a5.751,5.751,0,0,0-.762-.059,1.55,1.55,0,0,0-1.575.813V16h-2.117V8.075h2l.059.945a1.961,1.961,0,0,1,1.765-1.091,2.218,2.218,0,0,1,.659.1ZM132.058,16h-2.124V8.075h2.124ZM129.81,6.024a1.042,1.042,0,0,1,.319-.784,1.373,1.373,0,0,1,1.732,0,1.036,1.036,0,0,1,.322.784,1.039,1.039,0,0,1-.326.791,1.358,1.358,0,0,1-1.721,0A1.039,1.039,0,0,1,129.81,6.024Zm3.662,5.94a4.7,4.7,0,0,1,.454-2.1,3.324,3.324,0,0,1,1.307-1.428,3.814,3.814,0,0,1,1.981-.505,3.609,3.609,0,0,1,2.618.981,3.939,3.939,0,0,1,1.132,2.666l.015.542a4.142,4.142,0,0,1-1.018,2.926,3.946,3.946,0,0,1-5.468,0,4.215,4.215,0,0,1-1.022-2.988Zm2.117.15a2.962,2.962,0,0,0,.425,1.727,1.526,1.526,0,0,0,2.417.007,3.241,3.241,0,0,0,.432-1.889,2.933,2.933,0,0,0-.432-1.716,1.4,1.4,0,0,0-1.216-.609,1.382,1.382,0,0,0-1.2.605A3.3,3.3,0,0,0,135.589,12.115Zm11.147-2.055a5.751,5.751,0,0,0-.762-.059,1.55,1.55,0,0,0-1.575.813V16h-2.117V8.075h2l.059.945a1.961,1.961,0,0,1,1.765-1.091,2.218,2.218,0,0,1,.659.1Zm1.121,4.9a1.066,1.066,0,0,1,.341-.82,1.323,1.323,0,0,1,1.714,0,1.066,1.066,0,0,1,.341.82,1.051,1.051,0,0,1-.337.809,1.345,1.345,0,0,1-1.721,0A1.051,1.051,0,0,1,147.857,14.96Zm0-6a1.066,1.066,0,0,1,.341-.82,1.323,1.323,0,0,1,1.714,0,1.066,1.066,0,0,1,.341.82,1.051,1.051,0,0,1-.337.809,1.345,1.345,0,0,1-1.721,0A1.051,1.051,0,0,1,147.857,8.961ZM24.1,33H21.979V24.841l-2.527.784V23.9l4.417-1.582H24.1Zm10.642-4.409a5.4,5.4,0,0,1-.916,3.384,3.2,3.2,0,0,1-2.681,1.172A3.218,3.218,0,0,1,28.476,32a5.244,5.244,0,0,1-.945-3.3V26.738a5.331,5.331,0,0,1,.927-3.391,3.22,3.22,0,0,1,2.67-1.157,3.223,3.223,0,0,1,2.666,1.146,5.228,5.228,0,0,1,.945,3.292Zm-2.117-2.158a3.905,3.905,0,0,0-.363-1.932,1.225,1.225,0,0,0-1.132-.6,1.2,1.2,0,0,0-1.1.576,3.654,3.654,0,0,0-.377,1.8v2.6A4.1,4.1,0,0,0,30,30.806a1.209,1.209,0,0,0,1.139.634,1.189,1.189,0,0,0,1.121-.608,4,4,0,0,0,.359-1.862Zm12.209,5.22a3.814,3.814,0,0,1-1.677,1.1,7.024,7.024,0,0,1-2.4.392,4.759,4.759,0,0,1-2.428-.6,4.03,4.03,0,0,1-1.611-1.754,6.174,6.174,0,0,1-.582-2.7V27.36a6.557,6.557,0,0,1,.538-2.765,3.982,3.982,0,0,1,1.553-1.787,5.112,5.112,0,0,1,5.343.286,3.866,3.866,0,0,1,1.267,2.633H42.692a2.126,2.126,0,0,0-.648-1.34,2.07,2.07,0,0,0-1.381-.425,1.948,1.948,0,0,0-1.707.842,4.429,4.429,0,0,0-.593,2.5v.681A4.216,4.216,0,0,0,39,30.524a2.182,2.182,0,0,0,1.868.857,2.437,2.437,0,0,0,1.765-.527V29.016h-2V27.4h4.2ZM51.525,33H49.408V24.841l-2.527.784V23.9L51.3,22.321h.227Zm8.606,0H58.014V24.841l-2.527.784V23.9L59.9,22.321h.227ZM72.5,33H70.3V28.43H66.02V33h-2.2V22.336h2.2v4.321H70.3V22.336h2.2Zm6.833,0H77.218V24.841l-2.527.784V23.9l4.417-1.582h.227Zm10.774,0H82.8V31.55l3.45-3.677A8.51,8.51,0,0,0,87.3,26.518a2.177,2.177,0,0,0,.341-1.1,1.629,1.629,0,0,0-.359-1.117,1.3,1.3,0,0,0-1.025-.406,1.4,1.4,0,0,0-1.132.494,1.958,1.958,0,0,0-.414,1.3H82.587a3.5,3.5,0,0,1,.465-1.78,3.278,3.278,0,0,1,1.315-1.263,4,4,0,0,1,1.926-.458,3.784,3.784,0,0,1,2.56.791,2.8,2.8,0,0,1,.912,2.234,3.586,3.586,0,0,1-.41,1.611,8.954,8.954,0,0,1-1.406,1.912l-2.424,2.556h4.585Zm3.86,0h-2.2V22.336h2.2Zm6.951,0H98.8V24.841l-2.527.784V23.9l4.417-1.582h.227Zm10.774,0h-7.31V31.55l3.45-3.677a8.51,8.51,0,0,0,1.051-1.355,2.177,2.177,0,0,0,.341-1.1,1.629,1.629,0,0,0-.359-1.117,1.3,1.3,0,0,0-1.025-.406,1.4,1.4,0,0,0-1.132.494,1.958,1.958,0,0,0-.414,1.3h-2.124a3.5,3.5,0,0,1,.465-1.78,3.278,3.278,0,0,1,1.315-1.263,4,4,0,0,1,1.926-.458,3.784,3.784,0,0,1,2.56.791,2.8,2.8,0,0,1,.912,2.234,3.586,3.586,0,0,1-.41,1.611,8.954,8.954,0,0,1-1.406,1.912l-2.424,2.556h4.585Zm5.823-10.664h2.2v7.383a3.531,3.531,0,0,1-.45,1.8,3.057,3.057,0,0,1-1.271,1.2,3.97,3.97,0,0,1-1.853.425,3.773,3.773,0,0,1-2.637-.861,3.127,3.127,0,0,1-.945-2.435h2.212a1.715,1.715,0,0,0,.33,1.157,1.319,1.319,0,0,0,1.04.374,1.259,1.259,0,0,0,1-.432,1.826,1.826,0,0,0,.374-1.23Zm7.419,6.387-1.143,1.23V33h-2.2V22.336h2.2V27.17l.967-1.326,2.717-3.508h2.7l-3.787,4.739L130.29,33h-2.615Zm12.905-3.552a2.48,2.48,0,0,1-.388,1.377,2.794,2.794,0,0,1-1.069.959,3.093,3.093,0,0,1,1.23,1.029,2.64,2.64,0,0,1,.454,1.542,2.8,2.8,0,0,1-.967,2.245,4.611,4.611,0,0,1-5.266,0,2.788,2.788,0,0,1-.974-2.241,2.657,2.657,0,0,1,.454-1.545,3.037,3.037,0,0,1,1.223-1.025,2.765,2.765,0,0,1-1.066-.959,2.5,2.5,0,0,1-.385-1.377A2.764,2.764,0,0,1,132,23a4.178,4.178,0,0,1,4.933-.007A2.754,2.754,0,0,1,137.841,25.17Zm-1.9,4.753a1.536,1.536,0,0,0-.4-1.113,1.612,1.612,0,0,0-2.161,0,1.737,1.737,0,0,0-.007,2.216,1.652,1.652,0,0,0,2.179.015A1.529,1.529,0,0,0,135.944,29.924Zm-.22-4.651a1.465,1.465,0,0,0-.33-1,1.341,1.341,0,0,0-1.853-.011,1.456,1.456,0,0,0-.33,1.011,1.53,1.53,0,0,0,.33,1.025,1.3,1.3,0,0,0,1.857,0A1.542,1.542,0,0,0,135.724,25.273Z" transform="translate(389 -32.911)" fill="#fff"/><g transform="translate(180 -77.912)" fill="#e8e8e8" stroke="#12263f" stroke-width="1"><rect width="172" height="41" stroke="none"/><rect x="0.5" y="0.5" width="171" height="40" fill="none"/></g><g transform="translate(180 -39.912)" fill="#4471c4" stroke="#12263f" stroke-width="1"><rect width="172" height="46" stroke="none"/><rect x="0.5" y="0.5" width="171" height="45" fill="none"/></g><text transform="translate(196 -76.911)" fill="#12263f" font-size="15" font-family="Roboto-Bold, Roboto" font-weight="700"><tspan x="30.087" y="16">Hash actual</tspan></text><path d="M15.457,16h-2.2V11.43H8.975V16h-2.2V5.336h2.2V9.657H13.26V5.336h2.2Zm6.372,0a2.351,2.351,0,0,1-.212-.71,2.561,2.561,0,0,1-2,.857,2.814,2.814,0,0,1-1.93-.674,2.167,2.167,0,0,1-.765-1.7,2.24,2.24,0,0,1,.934-1.934,4.608,4.608,0,0,1,2.7-.681h.974V10.7a1.306,1.306,0,0,0-.282-.879,1.109,1.109,0,0,0-.89-.33,1.261,1.261,0,0,0-.839.256.871.871,0,0,0-.3.7H17.1a2.126,2.126,0,0,1,.425-1.274,2.808,2.808,0,0,1,1.2-.919,4.378,4.378,0,0,1,1.743-.333,3.459,3.459,0,0,1,2.325.736,2.575,2.575,0,0,1,.861,2.069v3.435a3.789,3.789,0,0,0,.315,1.707V16Zm-1.75-1.472a1.823,1.823,0,0,0,.864-.209,1.371,1.371,0,0,0,.586-.56V12.4h-.791q-1.589,0-1.692,1.1l-.007.125a.847.847,0,0,0,.278.652A1.081,1.081,0,0,0,20.078,14.528Zm9.492-.718a.682.682,0,0,0-.385-.612,4.368,4.368,0,0,0-1.234-.4q-2.827-.593-2.827-2.4A2.178,2.178,0,0,1,26,8.635a3.531,3.531,0,0,1,2.289-.707,3.8,3.8,0,0,1,2.413.71,2.239,2.239,0,0,1,.9,1.846H29.49a1.024,1.024,0,0,0-.293-.751,1.24,1.24,0,0,0-.916-.3,1.267,1.267,0,0,0-.828.242.763.763,0,0,0-.293.615.652.652,0,0,0,.333.568,3.428,3.428,0,0,0,1.124.374,9.183,9.183,0,0,1,1.333.355,2.19,2.19,0,0,1,1.677,2.131,2.067,2.067,0,0,1-.93,1.754,4.013,4.013,0,0,1-2.4.67,4.191,4.191,0,0,1-1.769-.355,2.968,2.968,0,0,1-1.212-.974,2.263,2.263,0,0,1-.439-1.337h2.007a1.105,1.105,0,0,0,.417.864,1.656,1.656,0,0,0,1.04.3,1.533,1.533,0,0,0,.919-.231A.718.718,0,0,0,29.571,13.81Zm5.486-4.871a2.642,2.642,0,0,1,2.117-1.011q2.578,0,2.615,3V16H37.671V10.983a1.472,1.472,0,0,0-.293-1.007A1.256,1.256,0,0,0,36.4,9.65a1.441,1.441,0,0,0-1.348.718V16H32.94V4.75h2.117Zm17.2,3.171a4.8,4.8,0,0,1-.813,2.97,2.693,2.693,0,0,1-2.271,1.066,2.474,2.474,0,0,1-2.058-.989l-.1.842h-1.9V4.75h2.117V8.786a2.411,2.411,0,0,1,1.926-.857,2.715,2.715,0,0,1,2.274,1.066,4.806,4.806,0,0,1,.824,3Zm-2.117-.154a3.153,3.153,0,0,0-.381-1.754,1.288,1.288,0,0,0-1.135-.553,1.4,1.4,0,0,0-1.392.828V13.6a1.415,1.415,0,0,0,1.406.835,1.307,1.307,0,0,0,1.348-1.011A5.214,5.214,0,0,0,50.144,11.957ZM55.8,16H53.675V4.75H55.8Zm1.414-4.036a4.7,4.7,0,0,1,.454-2.1,3.324,3.324,0,0,1,1.307-1.428,3.814,3.814,0,0,1,1.981-.505,3.609,3.609,0,0,1,2.618.981A3.939,3.939,0,0,1,64.7,11.576l.015.542A4.142,4.142,0,0,1,63.7,15.044a3.946,3.946,0,0,1-5.468,0,4.215,4.215,0,0,1-1.022-2.988Zm2.117.15a2.962,2.962,0,0,0,.425,1.727,1.526,1.526,0,0,0,2.417.007,3.241,3.241,0,0,0,.432-1.889,2.933,2.933,0,0,0-.432-1.716,1.4,1.4,0,0,0-1.216-.609,1.382,1.382,0,0,0-1.2.605A3.3,3.3,0,0,0,59.329,12.115Zm6.365-.15a4.737,4.737,0,0,1,.831-2.952,2.718,2.718,0,0,1,2.281-1.084,2.433,2.433,0,0,1,2.029.974l.139-.828h1.86V19.047H70.711V15.319a2.44,2.44,0,0,1-1.919.828,2.7,2.7,0,0,1-2.256-1.1A4.969,4.969,0,0,1,65.694,11.964Zm2.117.15a3.107,3.107,0,0,0,.4,1.731,1.278,1.278,0,0,0,1.124.594,1.423,1.423,0,0,0,1.377-.778V10.383a1.412,1.412,0,0,0-1.362-.748,1.293,1.293,0,0,0-1.135.594A3.432,3.432,0,0,0,67.81,12.115Zm11.433,3.08a2.654,2.654,0,0,1-2.168.952,2.5,2.5,0,0,1-1.945-.732,3.127,3.127,0,0,1-.685-2.146V8.075h2.117V13.2q0,1.239,1.128,1.239a1.528,1.528,0,0,0,1.479-.748V8.075h2.124V16H79.3Zm7.295.952A3.89,3.89,0,0,1,83.7,15.077a3.8,3.8,0,0,1-1.095-2.849v-.205a4.787,4.787,0,0,1,.461-2.135,3.386,3.386,0,0,1,1.307-1.45,3.669,3.669,0,0,1,1.93-.509,3.289,3.289,0,0,1,2.56,1.025,4.167,4.167,0,0,1,.934,2.908v.864H84.751a1.966,1.966,0,0,0,.619,1.245,1.871,1.871,0,0,0,1.307.469,2.285,2.285,0,0,0,1.912-.886l1.04,1.165a3.178,3.178,0,0,1-1.289,1.051A4.229,4.229,0,0,1,86.538,16.146ZM86.3,9.635a1.323,1.323,0,0,0-1.022.427,2.209,2.209,0,0,0-.5,1.221h2.944v-.169a1.576,1.576,0,0,0-.381-1.092A1.365,1.365,0,0,0,86.3,9.635ZM99.326,16a2.351,2.351,0,0,1-.212-.71,2.561,2.561,0,0,1-2,.857,2.814,2.814,0,0,1-1.93-.674,2.167,2.167,0,0,1-.765-1.7,2.24,2.24,0,0,1,.934-1.934,4.608,4.608,0,0,1,2.7-.681h.974V10.7a1.306,1.306,0,0,0-.282-.879,1.109,1.109,0,0,0-.89-.33,1.261,1.261,0,0,0-.839.256.871.871,0,0,0-.3.7H94.595a2.126,2.126,0,0,1,.425-1.274,2.808,2.808,0,0,1,1.2-.919,4.378,4.378,0,0,1,1.743-.333,3.459,3.459,0,0,1,2.325.736,2.575,2.575,0,0,1,.861,2.069v3.435a3.789,3.789,0,0,0,.315,1.707V16Zm-1.75-1.472a1.823,1.823,0,0,0,.864-.209,1.371,1.371,0,0,0,.586-.56V12.4h-.791q-1.589,0-1.692,1.1l-.007.125a.847.847,0,0,0,.278.652A1.081,1.081,0,0,0,97.576,14.528Zm7.148-6.453.066.916a2.767,2.767,0,0,1,2.278-1.062,2.3,2.3,0,0,1,1.875.74,3.451,3.451,0,0,1,.63,2.212V16h-2.117V10.932a1.373,1.373,0,0,0-.293-.978,1.312,1.312,0,0,0-.974-.3,1.456,1.456,0,0,0-1.34.762V16h-2.117V8.075Zm8.987-1.948V8.075h1.355V9.628h-1.355v3.955a.944.944,0,0,0,.168.63.846.846,0,0,0,.645.19,3.376,3.376,0,0,0,.623-.051v1.6a4.358,4.358,0,0,1-1.282.19,2.021,2.021,0,0,1-2.271-2.249V9.628h-1.157V8.075h1.157V6.127Zm6.182,10.02a3.89,3.89,0,0,1-2.838-1.069,3.8,3.8,0,0,1-1.095-2.849v-.205a4.787,4.787,0,0,1,.461-2.135,3.386,3.386,0,0,1,1.307-1.45,3.669,3.669,0,0,1,1.93-.509,3.289,3.289,0,0,1,2.56,1.025,4.167,4.167,0,0,1,.934,2.908v.864h-5.046a1.966,1.966,0,0,0,.619,1.245,1.871,1.871,0,0,0,1.307.469,2.285,2.285,0,0,0,1.912-.886l1.04,1.165a3.178,3.178,0,0,1-1.289,1.051A4.229,4.229,0,0,1,119.893,16.146Zm-.242-6.511a1.323,1.323,0,0,0-1.022.427,2.209,2.209,0,0,0-.5,1.221h2.944v-.169a1.576,1.576,0,0,0-.381-1.092A1.365,1.365,0,0,0,119.651,9.635Zm9.155.425a5.751,5.751,0,0,0-.762-.059,1.55,1.55,0,0,0-1.575.813V16h-2.117V8.075h2l.059.945a1.961,1.961,0,0,1,1.765-1.091,2.218,2.218,0,0,1,.659.1ZM132.058,16h-2.124V8.075h2.124ZM129.81,6.024a1.042,1.042,0,0,1,.319-.784,1.373,1.373,0,0,1,1.732,0,1.036,1.036,0,0,1,.322.784,1.039,1.039,0,0,1-.326.791,1.358,1.358,0,0,1-1.721,0A1.039,1.039,0,0,1,129.81,6.024Zm3.662,5.94a4.7,4.7,0,0,1,.454-2.1,3.324,3.324,0,0,1,1.307-1.428,3.814,3.814,0,0,1,1.981-.505,3.609,3.609,0,0,1,2.618.981,3.939,3.939,0,0,1,1.132,2.666l.015.542a4.142,4.142,0,0,1-1.018,2.926,3.946,3.946,0,0,1-5.468,0,4.215,4.215,0,0,1-1.022-2.988Zm2.117.15a2.962,2.962,0,0,0,.425,1.727,1.526,1.526,0,0,0,2.417.007,3.241,3.241,0,0,0,.432-1.889,2.933,2.933,0,0,0-.432-1.716,1.4,1.4,0,0,0-1.216-.609,1.382,1.382,0,0,0-1.2.605A3.3,3.3,0,0,0,135.589,12.115Zm11.147-2.055a5.751,5.751,0,0,0-.762-.059,1.55,1.55,0,0,0-1.575.813V16h-2.117V8.075h2l.059.945a1.961,1.961,0,0,1,1.765-1.091,2.218,2.218,0,0,1,.659.1Zm1.121,4.9a1.066,1.066,0,0,1,.341-.82,1.323,1.323,0,0,1,1.714,0,1.066,1.066,0,0,1,.341.82,1.051,1.051,0,0,1-.337.809,1.345,1.345,0,0,1-1.721,0A1.051,1.051,0,0,1,147.857,14.96Zm0-6a1.066,1.066,0,0,1,.341-.82,1.323,1.323,0,0,1,1.714,0,1.066,1.066,0,0,1,.341.82,1.051,1.051,0,0,1-.337.809,1.345,1.345,0,0,1-1.721,0A1.051,1.051,0,0,1,147.857,8.961ZM21.917,33H19.8V24.841l-2.527.784V23.9l4.417-1.582h.227Zm10.774,0h-7.31V31.55l3.45-3.677a8.51,8.51,0,0,0,1.051-1.355,2.177,2.177,0,0,0,.341-1.1,1.629,1.629,0,0,0-.359-1.117,1.3,1.3,0,0,0-1.025-.406,1.4,1.4,0,0,0-1.132.494,1.958,1.958,0,0,0-.414,1.3H25.169a3.5,3.5,0,0,1,.465-1.78,3.278,3.278,0,0,1,1.315-1.263,4,4,0,0,1,1.926-.458,3.784,3.784,0,0,1,2.56.791,2.8,2.8,0,0,1,.912,2.234,3.586,3.586,0,0,1-.41,1.611,8.954,8.954,0,0,1-1.406,1.912l-2.424,2.556h4.585Zm7.544-2.2H36.382L35.65,33H33.313l3.97-10.664h2.036L43.311,33H40.974Zm-3.259-1.78h2.666L38.3,25.031Zm9.258-2.292h1.128a1.589,1.589,0,0,0,1.194-.4,1.476,1.476,0,0,0,.388-1.069,1.305,1.305,0,0,0-.385-1A1.49,1.49,0,0,0,47.5,23.9a1.562,1.562,0,0,0-1.018.333,1.066,1.066,0,0,0-.41.868H43.955a2.6,2.6,0,0,1,.45-1.5,3,3,0,0,1,1.26-1.036,4.2,4.2,0,0,1,1.783-.374A3.987,3.987,0,0,1,50.1,23a2.761,2.761,0,0,1,.959,2.23,2.244,2.244,0,0,1-.447,1.348,2.9,2.9,0,0,1-1.172.945,2.65,2.65,0,0,1,1.344.967,2.623,2.623,0,0,1,.443,1.523,2.807,2.807,0,0,1-1.036,2.278,4.167,4.167,0,0,1-2.743.857,3.951,3.951,0,0,1-2.611-.842,2.751,2.751,0,0,1-1.014-2.227H45.94a1.226,1.226,0,0,0,.45.981,1.879,1.879,0,0,0,2.292-.018,1.378,1.378,0,0,0,.428-1.058q0-1.6-1.758-1.6H46.233Zm12.715,2.256h1.208v1.707H58.948V33H56.831V30.693H52.459l-.1-1.333,4.446-7.024h2.139Zm-4.475,0h2.358V25.222l-.139.242ZM61.519,33V22.336h3.735a4.9,4.9,0,0,1,2.944.743,2.542,2.542,0,0,1,1,2.179,2.409,2.409,0,0,1-.4,1.381,2.327,2.327,0,0,1-1.121.875,2.251,2.251,0,0,1,1.293.828,2.447,2.447,0,0,1,.472,1.523,2.814,2.814,0,0,1-.981,2.329,4.418,4.418,0,0,1-2.8.806Zm2.2-4.644v2.878H65.6a1.816,1.816,0,0,0,1.212-.37,1.268,1.268,0,0,0,.436-1.022,1.339,1.339,0,0,0-1.516-1.487Zm0-1.553h1.626Q67,26.774,67,25.478a1.225,1.225,0,0,0-.421-1.044,2.215,2.215,0,0,0-1.329-.319H63.716Zm7.463.952.615-5.42h5.977V24.1H73.531l-.264,2.292a3.356,3.356,0,0,1,1.6-.4,3.074,3.074,0,0,1,2.388.945,3.774,3.774,0,0,1,.864,2.644,3.866,3.866,0,0,1-.436,1.849A3.076,3.076,0,0,1,76.438,32.7a3.9,3.9,0,0,1-1.919.45,4.14,4.14,0,0,1-1.794-.392,3.183,3.183,0,0,1-1.307-1.1,3,3,0,0,1-.509-1.619H73a1.565,1.565,0,0,0,.465,1.036,1.474,1.474,0,0,0,1.044.37,1.3,1.3,0,0,0,1.106-.516,2.392,2.392,0,0,0,.388-1.461,1.978,1.978,0,0,0-.447-1.392,1.64,1.64,0,0,0-1.267-.483,1.832,1.832,0,0,0-1.223.4l-.205.19Zm14.033-5.53v1.743h-.205a3.6,3.6,0,0,0-2.311.747,3.035,3.035,0,0,0-1.051,2.014,2.883,2.883,0,0,1,2.146-.864,2.716,2.716,0,0,1,2.212,1,3.993,3.993,0,0,1,.82,2.622,3.928,3.928,0,0,1-.45,1.882A3.23,3.23,0,0,1,85.1,32.678a3.7,3.7,0,0,1-1.864.469,3.458,3.458,0,0,1-2.721-1.172,4.549,4.549,0,0,1-1.036-3.127v-.762a6.846,6.846,0,0,1,.656-3.065,4.807,4.807,0,0,1,1.882-2.058,5.516,5.516,0,0,1,2.845-.736Zm-2.065,5.347a1.691,1.691,0,0,0-.93.267,1.608,1.608,0,0,0-.615.705v.643a2.85,2.85,0,0,0,.417,1.656,1.349,1.349,0,0,0,1.172.6,1.334,1.334,0,0,0,1.1-.537,2.522,2.522,0,0,0,0-2.8A1.385,1.385,0,0,0,83.147,27.573Zm13.528,1.875a3.774,3.774,0,0,1-1.271,2.71,4.463,4.463,0,0,1-3.021.989,4.013,4.013,0,0,1-3.226-1.381,5.661,5.661,0,0,1-1.176-3.79v-.652a6.393,6.393,0,0,1,.542-2.71,4.062,4.062,0,0,1,1.549-1.8,4.841,4.841,0,0,1,5.314.363,4.055,4.055,0,0,1,1.3,2.776h-2.2a2.227,2.227,0,0,0-.575-1.5,2.129,2.129,0,0,0-1.505-.465,1.867,1.867,0,0,0-1.644.787,4.413,4.413,0,0,0-.56,2.443v.806a4.723,4.723,0,0,0,.524,2.527,1.832,1.832,0,0,0,1.652.8,2.169,2.169,0,0,0,1.52-.465,2.1,2.1,0,0,0,.575-1.439Zm8.467-5.93L101.018,33H98.784l4.131-8.958h-5.3V22.336h7.529Zm8.306,1.653a2.48,2.48,0,0,1-.388,1.377,2.794,2.794,0,0,1-1.069.959,3.093,3.093,0,0,1,1.23,1.029,2.64,2.64,0,0,1,.454,1.542,2.8,2.8,0,0,1-.967,2.245,4.611,4.611,0,0,1-5.266,0,2.788,2.788,0,0,1-.974-2.241,2.657,2.657,0,0,1,.454-1.545,3.037,3.037,0,0,1,1.223-1.025,2.765,2.765,0,0,1-1.066-.959,2.5,2.5,0,0,1-.385-1.377A2.764,2.764,0,0,1,107.6,23a4.178,4.178,0,0,1,4.933-.007A2.754,2.754,0,0,1,113.448,25.17Zm-1.9,4.753a1.536,1.536,0,0,0-.4-1.113,1.612,1.612,0,0,0-2.161,0,1.737,1.737,0,0,0-.007,2.216,1.652,1.652,0,0,0,2.179.015A1.529,1.529,0,0,0,111.551,29.924Zm-.22-4.651a1.465,1.465,0,0,0-.33-1,1.341,1.341,0,0,0-1.853-.011,1.456,1.456,0,0,0-.33,1.011,1.53,1.53,0,0,0,.33,1.025,1.3,1.3,0,0,0,1.857,0A1.542,1.542,0,0,0,111.331,25.273Zm4,7.727V22.336h3.281a4.983,4.983,0,0,1,2.516.634,4.418,4.418,0,0,1,1.732,1.8,5.557,5.557,0,0,1,.623,2.655v.491a5.573,5.573,0,0,1-.612,2.644,4.38,4.38,0,0,1-1.725,1.794,5.021,5.021,0,0,1-2.512.645Zm2.2-8.884v7.119h1.062a2.386,2.386,0,0,0,1.97-.842,3.806,3.806,0,0,0,.7-2.41v-.564a3.867,3.867,0,0,0-.674-2.465,2.378,2.378,0,0,0-1.97-.839Zm13.967,4.526h-4.219V33h-2.2V22.336h6.943v1.78h-4.746V26.87h4.219Zm6.526.1a2.673,2.673,0,0,1-1.934.813,2.859,2.859,0,0,1-2.263-.97,3.835,3.835,0,0,1-.85-2.618,4.085,4.085,0,0,1,.458-1.923,3.358,3.358,0,0,1,1.278-1.362,3.546,3.546,0,0,1,1.846-.487,3.391,3.391,0,0,1,1.875.527,3.467,3.467,0,0,1,1.274,1.516,5.443,5.443,0,0,1,.461,2.263v.784a6.168,6.168,0,0,1-1.326,4.189,5.012,5.012,0,0,1-3.757,1.626l-.52.007V31.337l.469-.007Q137.793,31.206,138.02,28.737Zm-1.414-.806a1.48,1.48,0,0,0,.883-.264,1.762,1.762,0,0,0,.56-.637v-.872a2.911,2.911,0,0,0-.41-1.67,1.273,1.273,0,0,0-1.1-.593,1.236,1.236,0,0,0-1.047.582,2.476,2.476,0,0,0-.41,1.461,2.409,2.409,0,0,0,.4,1.432A1.3,1.3,0,0,0,136.607,27.932Z" transform="translate(188 -32.911)" fill="#fff"/></g></g></svg>