<svg xmlns="http://www.w3.org/2000/svg" width="120.978" height="121.218" viewBox="0 0 120.978 121.218">
  <g id="Grupo_948037" data-name="Grupo 948037" transform="translate(-651.623)">
    <path id="Trazado_621590" data-name="Trazado 621590" d="M742.12,121.218c-1.378-.286-2.767-.523-4.131-.864a27.64,27.64,0,0,1-20.675-23.63c-.2-1.714-.222-3.448-.336-5.339H715.67q-26.877,0-53.753,0A9.759,9.759,0,0,1,652.036,84a11.417,11.417,0,0,1-.391-3.031q-.038-19.412-.011-38.825a10.012,10.012,0,0,1,10.325-10.4c5.316-.034,10.632-.007,15.949-.007h1.457V30.288c0-7.5.095-15-.04-22.489-.067-3.7,1.03-6.447,4.667-7.8h77.976c3.555,1.24,4.785,3.806,4.756,7.483-.1,13.212-.041,26.426-.041,39.639,0,.868.019,1.736-.009,2.6a5.975,5.975,0,0,1-5.984,5.906c-.615.011-1.23,0-1.957,0v1.425c0,3.55.049,7.1-.029,10.649a2.48,2.48,0,0,0,1.316,2.453,26.6,26.6,0,0,1,11.178,14.6c.593,1.852.942,3.783,1.4,5.677v5.682a6.3,6.3,0,0,0-.228.783c-1.81,11.364-8.1,19.04-18.917,22.906a56.2,56.2,0,0,1-5.666,1.407Zm12.472-53.864c.044-.418.1-.682.1-.946q.006-12.25,0-24.5a6.472,6.472,0,0,0-.167-1.635c-.776-2.929-3.072-4.515-6.508-4.516q-42.821,0-85.641,0c-4.316,0-6.731,2.427-6.732,6.743q0,19.055,0,38.11c0,4.419,2.358,6.761,6.8,6.762h55.272a28.237,28.237,0,0,1,17.318-20.029c-3.77-2.164-5.018-5.365-3.416-8.494a5.952,5.952,0,0,1,7.766-2.726,5.74,5.74,0,0,1,3.394,4.27,6.172,6.172,0,0,1-1.631,5.461A26.8,26.8,0,0,1,754.592,67.354ZM683.5,23.715h79.1V15.962H683.5Zm-.007-11.936h79.184c0-1.617,0-3.15,0-4.683,0-2.526-.545-3.084-3.011-3.085H686.332a6.776,6.776,0,0,0-1.178.032c-.887.159-1.609.63-1.64,1.589C683.449,7.668,683.495,9.706,683.495,11.78Zm75.238,39.7c3.11.485,3.946-.218,3.946-3.19q0-9.526,0-19.053V27.976H683.535v3.765h34.693q15.059,0,30.118.006A9.9,9.9,0,0,1,758.438,39.5a14.212,14.212,0,0,1,.283,3.282C758.757,45.689,758.733,48.6,758.733,51.484Zm-13.848,18.1a23.8,23.8,0,1,0,23.71,23.879A23.788,23.788,0,0,0,744.885,69.586Zm-6.06-7.966a1.913,1.913,0,0,0-1.9-1.966,1.889,1.889,0,0,0-1.915,1.944,1.909,1.909,0,0,0,3.817.022Z" fill="#12263f"/>
    <path id="Trazado_621591" data-name="Trazado 621591" d="M766.628,174.671a26.8,26.8,0,0,0-13.454-1.5,6.172,6.172,0,0,0,1.631-5.461,5.74,5.74,0,0,0-3.394-4.27,5.952,5.952,0,0,0-7.766,2.726c-1.6,3.13-.355,6.331,3.416,8.494a28.238,28.238,0,0,0-17.318,20.029H674.471c-4.442,0-6.8-2.342-6.8-6.762q0-19.055,0-38.11c0-4.316,2.416-6.743,6.732-6.743q42.82-.005,85.641,0c3.436,0,5.732,1.586,6.508,4.516a6.472,6.472,0,0,1,.167,1.635q.016,12.25,0,24.5C766.724,173.989,766.672,174.253,766.628,174.671Zm-31.564-5.748a17.857,17.857,0,1,0-17.857,17.907A17.9,17.9,0,0,0,735.064,168.923Zm-49.548,5.931a5.951,5.951,0,1,0-6-6A6.007,6.007,0,0,0,685.516,174.853Z" transform="translate(-12.037 -107.317)" fill="#d2e1f1"/>
    <path id="Trazado_621592" data-name="Trazado 621592" d="M779.184,71.626V63.873h79.1v7.753Z" transform="translate(-95.682 -47.911)" fill="#afafaf"/>
    <path id="Trazado_621593" data-name="Trazado 621593" d="M779.11,23.794c0-2.074-.046-4.112.02-6.147.031-.959.753-1.43,1.64-1.589a6.775,6.775,0,0,1,1.178-.032h73.336c2.466,0,3.01.559,3.011,3.085,0,1.533,0,3.066,0,4.683Z" transform="translate(-95.615 -12.014)" fill="#afafaf"/>
    <path id="Trazado_621594" data-name="Trazado 621594" d="M854.515,135.454c0-2.886.024-5.8-.012-8.7a14.208,14.208,0,0,0-.283-3.282,9.9,9.9,0,0,0-10.091-7.751q-15.059-.029-30.118-.006H779.317v-3.765h79.144v1.265q0,9.527,0,19.053C858.461,135.236,857.626,135.94,854.515,135.454Z" transform="translate(-95.782 -83.97)" fill="#afafaf"/>
    <path id="Trazado_621595" data-name="Trazado 621595" d="M953.371,278.45a23.8,23.8,0,1,1-23.8,23.677A23.765,23.765,0,0,1,953.371,278.45Zm-.078,1.919a21.883,21.883,0,1,0,21.873,21.864A21.9,21.9,0,0,0,953.293,280.368Z" transform="translate(-208.486 -208.864)" fill="#ffd800"/>
    <path id="Trazado_621596" data-name="Trazado 621596" d="M989.1,240.675a1.909,1.909,0,0,1-3.817-.022,1.889,1.889,0,0,1,1.915-1.944A1.913,1.913,0,0,1,989.1,240.675Z" transform="translate(-250.28 -179.054)" fill="#1565c0"/>
    <path id="Trazado_621597" data-name="Trazado 621597" d="M830.154,192.674a17.857,17.857,0,1,1-17.823-17.938A17.907,17.907,0,0,1,830.154,192.674Zm-17.827-13.866a13.868,13.868,0,1,0,13.8,13.795A13.878,13.878,0,0,0,812.328,178.808Z" transform="translate(-107.127 -131.068)" fill="#12263f"/>
    <path id="Trazado_621598" data-name="Trazado 621598" d="M721.073,234.521a5.951,5.951,0,1,1,5.98-5.906A6,6,0,0,1,721.073,234.521Zm1.918-5.886a1.97,1.97,0,0,0-1.895-2,2,2,0,0,0-1.98,1.921,1.939,1.939,0,0,0,3.875.076Z" transform="translate(-47.594 -166.985)" fill="#12263f"/>
    <path id="Trazado_621599" data-name="Trazado 621599" d="M959.036,286.127a21.883,21.883,0,1,1-21.809,21.81A21.91,21.91,0,0,1,959.036,286.127ZM976.9,308.16a17.836,17.836,0,1,0-17.98,17.666A17.934,17.934,0,0,0,976.9,308.16Z" transform="translate(-214.229 -214.622)" fill="#12263f"/>
    <path id="Trazado_621600" data-name="Trazado 621600" d="M824.343,191.031a13.868,13.868,0,0,1-.027,27.735,13.868,13.868,0,1,1,.027-27.735Zm1.831,25.761c.053-.156.134-.271.118-.369a2.46,2.46,0,0,1,1.47-2.783c2.677-1.594,4.057-6.435.093-8.988-1.483-.955-3.066-1.755-4.568-2.682a1.523,1.523,0,0,1,.19-2.787,1.908,1.908,0,0,1,2.64,1c.156.3.463.7.724.72,1.12.08,2.248.034,3.451.034-.072-2.1-.8-3.8-2.436-4.743a2.675,2.675,0,0,1-1.584-2.96c.007-.058-.074-.127-.106-.179h-3.946c.42,1.57-.26,2.33-1.476,3.169a5.251,5.251,0,0,0,.046,8.846c1.448,1,3.056,1.769,4.562,2.691a1.429,1.429,0,0,1,.174,2.583,1.909,1.909,0,0,1-2.915-.631,7.069,7.069,0,0,1-.313-.811h-3.881a5.07,5.07,0,0,0,2,4.361c1.247.9,2.42,1.671,1.833,3.526Z" transform="translate(-119.142 -143.291)" fill="#ff5422"/>
    <path id="Trazado_621601" data-name="Trazado 621601" d="M735.125,240.7a1.939,1.939,0,0,1-3.875-.076,2,2,0,0,1,1.98-1.921A1.97,1.97,0,0,1,735.125,240.7Z" transform="translate(-59.728 -179.049)" fill="#1565c0"/>
    <path id="Trazado_621602" data-name="Trazado 621602" d="M988.924,320.21a17.836,17.836,0,1,1-17.391-18.016A17.8,17.8,0,0,1,988.924,320.21Zm-15.9,15.712a2.706,2.706,0,0,0,.059-.641c-.2-1.134.248-1.658,1.351-2.139a7.823,7.823,0,0,0,4.151-9.787c-.832-2.429-2.747-3.64-4.96-4.538-1.67-.677-3.4-1.247-4.986-2.079a3.233,3.233,0,0,1-1.383-1.9,3.906,3.906,0,0,1,7.531-2.026c.136.395.231.8.343,1.2h4.134a30.124,30.124,0,0,0-1.2-3.648,7.948,7.948,0,0,0-5.032-4.034v-2.165h-3.915v2.126c-.177.1-.271.162-.374.2-3.74,1.543-5.62,4.168-5.567,7.778.052,3.488,1.818,5.642,5.811,7.128,1.359.506,2.74.978,4.04,1.612a3.1,3.1,0,0,1,1.913,3.842,3.934,3.934,0,0,1-3.613,3.05c-2.253.089-3.619-1.145-4.271-3.887h-3.907c.169,3.123,1.439,5.549,4.167,6.866,1.363.658,2.04,1.348,1.821,2.835-.008.053.081.12.137.2Z" transform="translate(-226.249 -226.672)" fill="#1565c0"/>
    <path id="Trazado_621603" data-name="Trazado 621603" d="M849.848,222.874h-3.919c.588-1.855-.586-2.626-1.833-3.526a5.069,5.069,0,0,1-2-4.361h3.881a7.081,7.081,0,0,0,.313.811,1.909,1.909,0,0,0,2.915.631,1.429,1.429,0,0,0-.174-2.583c-1.506-.922-3.114-1.689-4.562-2.691a5.251,5.251,0,0,1-.046-8.846c1.216-.839,1.9-1.6,1.476-3.169h3.946c.032.052.113.121.106.179a2.675,2.675,0,0,0,1.584,2.96c1.639.941,2.364,2.644,2.436,4.743-1.2,0-2.332.046-3.451-.034-.261-.018-.568-.424-.724-.72a1.908,1.908,0,0,0-2.641-1,1.523,1.523,0,0,0-.19,2.787c1.5.928,3.085,1.727,4.568,2.682,3.964,2.553,2.584,7.394-.093,8.988a2.46,2.46,0,0,0-1.47,2.783C849.982,222.6,849.9,222.718,849.848,222.874Z" transform="translate(-142.816 -149.374)" fill="#12263f"/>
    <path id="Trazado_621604" data-name="Trazado 621604" d="M1002.727,341.858h-3.749c-.056-.077-.145-.145-.137-.2.22-1.487-.458-2.178-1.821-2.835-2.728-1.317-4-3.742-4.167-6.866h3.907c.651,2.741,2.018,3.976,4.271,3.887a3.934,3.934,0,0,0,3.613-3.05,3.1,3.1,0,0,0-1.913-3.842c-1.3-.634-2.681-1.106-4.039-1.612-3.993-1.486-5.759-3.64-5.811-7.128-.054-3.61,1.826-6.235,5.567-7.778.1-.042.2-.107.374-.2V310.1h3.915v2.165a7.948,7.948,0,0,1,5.032,4.034,30.15,30.15,0,0,1,1.2,3.648h-4.134c-.112-.4-.206-.806-.343-1.2a3.906,3.906,0,0,0-7.531,2.026,3.232,3.232,0,0,0,1.383,1.9c1.59.832,3.316,1.4,4.986,2.079,2.213.9,4.128,2.109,4.96,4.538a7.823,7.823,0,0,1-4.151,9.787c-1.1.481-1.546,1.005-1.351,2.139A2.71,2.71,0,0,1,1002.727,341.858Z" transform="translate(-255.954 -232.608)" fill="#12263f"/>
  </g>
</svg>
