<svg xmlns="http://www.w3.org/2000/svg" xmlns:xlink="http://www.w3.org/1999/xlink" width="202.018" height="180.782" viewBox="0 0 202.018 180.782">
  <defs>
    <filter id="Rect치ngulo_341845" x="0" y="0" width="202.018" height="180.782" filterUnits="userSpaceOnUse">
      <feOffset dy="3" input="SourceAlpha"/>
      <feGaussianBlur stdDeviation="3" result="blur"/>
      <feFlood flood-opacity="0.161"/>
      <feComposite operator="in" in2="blur"/>
      <feComposite in="SourceGraphic"/>
    </filter>
  </defs>
  <g id="Grupo_948783" data-name="Grupo 948783" transform="translate(-486.002 -2331.66)">
    <g transform="matrix(1, 0, 0, 1, 486, 2331.66)" filter="url(#Rect치ngulo_341845)">
      <rect id="Rect치ngulo_341845-2" data-name="Rect치ngulo 341845" width="184.018" height="162.782" rx="10" transform="translate(9 6)" fill="#f6f6f6"/>
    </g>
    <g id="Grupo_947540" data-name="Grupo 947540" transform="translate(540.786 2357.326)">
      <ellipse id="Elipse_4870" data-name="Elipse 4870" cx="46.5" cy="47" rx="46.5" ry="47" transform="translate(-0.275 0.334)" fill="#ff5422"/>
      <g id="gPQBdf" transform="translate(-233.291 -1312.696)">
        <g id="Grupo_947545" data-name="Grupo 947545" transform="translate(256.45 1334.395)">
          <path id="Trazado_620915" data-name="Trazado 620915" d="M277.1,1363.982c-3.067-.355-6-.616-8.918-1.054a28.488,28.488,0,0,1-9.659-2.8c-.964-.527-2.056-1.11-2.073-2.44-.018-1.389,1.118-1.956,2.1-2.51a24.34,24.34,0,0,1,8.272-2.564c3.367-.54,6.762-.882,10.2-1.316v-6.388H263.084V1334.4h38.808v10.432H288v6.585c1.575.14,3.166.257,4.752.428a45.1,45.1,0,0,1,12.306,2.656,11.026,11.026,0,0,1,2.182,1.171c1.8,1.261,1.8,2.807-.046,4.016a14.087,14.087,0,0,1-3.088,1.523,49.589,49.589,0,0,1-11.754,2.31c-1.447.135-2.894.259-4.39.393v21.756H277.1Zm-.048-11.512c-3.746.494-7.38.846-10.967,1.5a24.317,24.317,0,0,0-5.637,1.895c-1.493.68-1.451,1.921.017,2.714a16.113,16.113,0,0,0,3.347,1.337,57.588,57.588,0,0,0,12.294,1.747,91.634,91.634,0,0,0,22.779-1.193,29.856,29.856,0,0,0,5.331-1.726,2.253,2.253,0,0,0,1.284-1.535c0-.526-.725-1.224-1.283-1.542a10.033,10.033,0,0,0-2.942-1.149q-4.336-.869-8.712-1.505c-1.512-.223-3.05-.235-4.663-.348v7.484H277.052Z" transform="translate(-256.45 -1334.395)" fill="#fff"/>
        </g>
      </g>
    </g>
    <path id="Trazado_622655" data-name="Trazado 622655" d="M65.242,14.07a1.626,1.626,0,0,0-.5-1.211,4.508,4.508,0,0,0-1.7-.891,5.447,5.447,0,0,1-2.426-1.324,2.921,2.921,0,0,1-.762-2.074,3,3,0,0,1,.746-2.1,3.17,3.17,0,0,1,2.051-.977V3.781h1.164V5.5a3.011,3.011,0,0,1,2.043,1.1,3.959,3.959,0,0,1,.73,2.523H65.148a2.721,2.721,0,0,0-.523-1.756,1.72,1.72,0,0,0-1.414-.651,1.951,1.951,0,0,0-1.422.481A1.791,1.791,0,0,0,61.3,8.542a1.636,1.636,0,0,0,.52,1.272,4.786,4.786,0,0,0,1.711.861,7.2,7.2,0,0,1,1.859.852,2.991,2.991,0,0,1,.984,1.082,3.128,3.128,0,0,1,.316,1.445,2.9,2.9,0,0,1-.793,2.125,3.516,3.516,0,0,1-2.223.953v1.492H62.516V17.133A3.369,3.369,0,0,1,60.238,16.1a3.493,3.493,0,0,1-.824-2.449h1.445a2.3,2.3,0,0,0,.57,1.672,2.153,2.153,0,0,0,1.617.586,2.426,2.426,0,0,0,1.609-.492A1.662,1.662,0,0,0,65.242,14.07ZM76.867,5.625v7.734a3.628,3.628,0,0,1-1.012,2.633,4.077,4.077,0,0,1-2.723,1.148l-.4.016a4.258,4.258,0,0,1-2.977-1.008,3.6,3.6,0,0,1-1.125-2.773V5.625h1.484v7.7a2.6,2.6,0,0,0,.68,1.918,3.111,3.111,0,0,0,3.887,0,2.6,2.6,0,0,0,.676-1.914V5.625Zm5.719,6.3a7.053,7.053,0,0,1-2.809-1.363,2.6,2.6,0,0,1-.879-2,2.751,2.751,0,0,1,1.074-2.223,4.269,4.269,0,0,1,2.793-.879,4.66,4.66,0,0,1,2.09.453,3.436,3.436,0,0,1,1.422,1.25,3.2,3.2,0,0,1,.5,1.742H85.273a2.08,2.08,0,0,0-.656-1.627A2.669,2.669,0,0,0,82.766,6.7a2.732,2.732,0,0,0-1.73.489,1.632,1.632,0,0,0-.621,1.358A1.468,1.468,0,0,0,81,9.72a5.785,5.785,0,0,0,2.008.88,9.316,9.316,0,0,1,2.219.88A3.367,3.367,0,0,1,86.418,12.6a2.861,2.861,0,0,1,.387,1.508,2.658,2.658,0,0,1-1.078,2.215,4.6,4.6,0,0,1-2.883.832,5.347,5.347,0,0,1-2.187-.449,3.681,3.681,0,0,1-1.566-1.23,3,3,0,0,1-.551-1.773h1.508a1.959,1.959,0,0,0,.762,1.629,3.207,3.207,0,0,0,2.035.6,2.948,2.948,0,0,0,1.82-.484,1.573,1.573,0,0,0,.633-1.32,1.545,1.545,0,0,0-.586-1.293A6.755,6.755,0,0,0,82.586,11.93ZM88.727,17V5.625h3.211a5.169,5.169,0,0,1,2.625.656,4.438,4.438,0,0,1,1.762,1.867,6.078,6.078,0,0,1,.629,2.781v.727a6.1,6.1,0,0,1-.621,2.82,4.369,4.369,0,0,1-1.773,1.859A5.5,5.5,0,0,1,91.875,17Zm1.5-10.148v8.922H91.8a3.434,3.434,0,0,0,2.7-1.079,4.458,4.458,0,0,0,.965-3.073v-.665a4.529,4.529,0,0,0-.91-3.014,3.239,3.239,0,0,0-2.582-1.091Zm16.852,0h-3.656V17H101.93V6.852H98.281V5.625h8.8Z" transform="translate(506.011 2460.66)" fill="#12263f"/>
    <path id="Trazado_622654" data-name="Trazado 622654" d="M11.66,15.189a6.789,6.789,0,0,1-1.294,4.443A4.471,4.471,0,0,1,6.719,21.2a4.5,4.5,0,0,1-3.672-1.572,6.779,6.779,0,0,1-1.3-4.434v-2.6A6.789,6.789,0,0,1,3.042,8.148,4.483,4.483,0,0,1,6.7,6.586a4.484,4.484,0,0,1,3.662,1.572,6.8,6.8,0,0,1,1.3,4.443ZM8.369,12.172a5.071,5.071,0,0,0-.4-2.29A1.338,1.338,0,0,0,6.7,9.125a1.307,1.307,0,0,0-1.235.7,4.777,4.777,0,0,0-.415,2.129V15.59a5.109,5.109,0,0,0,.4,2.329,1.343,1.343,0,0,0,1.27.737,1.325,1.325,0,0,0,1.24-.718,4.878,4.878,0,0,0,.41-2.251ZM23.291,21H13.369V18.852l4.57-4.8q1.689-1.924,1.689-3.057a2.126,2.126,0,0,0-.4-1.4,1.43,1.43,0,0,0-1.162-.479,1.447,1.447,0,0,0-1.221.64,2.629,2.629,0,0,0-.469,1.6h-3.3a4.67,4.67,0,0,1,.654-2.417A4.588,4.588,0,0,1,15.547,7.2a5.4,5.4,0,0,1,2.6-.625,5.308,5.308,0,0,1,3.55,1.064A3.8,3.8,0,0,1,22.939,10.7a4.439,4.439,0,0,1-.312,1.636A7.173,7.173,0,0,1,21.655,14a24.476,24.476,0,0,1-2.124,2.339L17.7,18.461h5.6Z" transform="translate(506.011 2344.33)" fill="#12263f" opacity="0.134"/>
  </g>
</svg>
